<?xml version="1.0" encoding="utf-8"?>
<svg xmlns="http://www.w3.org/2000/svg" xmlns:xlink="http://www.w3.org/1999/xlink" style="margin: auto; background: rgb(255, 255, 255); display: block; shape-rendering: auto;" width="447px" height="447px" viewBox="0 0 100 100" preserveAspectRatio="xMidYMid">
<g transform="rotate(0 50 50)">
  <rect x="48.5" y="24.5" rx="0" ry="0" width="3" height="11" fill="#414141">
    <animate attributeName="opacity" values="1;0" keyTimes="0;1" dur="1s" begin="-0.8888888888888888s" repeatCount="indefinite"></animate>
  </rect>
</g><g transform="rotate(40 50 50)">
  <rect x="48.5" y="24.5" rx="0" ry="0" width="3" height="11" fill="#414141">
    <animate attributeName="opacity" values="1;0" keyTimes="0;1" dur="1s" begin="-0.7777777777777778s" repeatCount="indefinite"></animate>
  </rect>
</g><g transform="rotate(80 50 50)">
  <rect x="48.5" y="24.5" rx="0" ry="0" width="3" height="11" fill="#414141">
    <animate attributeName="opacity" values="1;0" keyTimes="0;1" dur="1s" begin="-0.6666666666666666s" repeatCount="indefinite"></animate>
  </rect>
</g><g transform="rotate(120 50 50)">
  <rect x="48.5" y="24.5" rx="0" ry="0" width="3" height="11" fill="#414141">
    <animate attributeName="opacity" values="1;0" keyTimes="0;1" dur="1s" begin="-0.5555555555555556s" repeatCount="indefinite"></animate>
  </rect>
</g><g transform="rotate(160 50 50)">
  <rect x="48.5" y="24.5" rx="0" ry="0" width="3" height="11" fill="#414141">
    <animate attributeName="opacity" values="1;0" keyTimes="0;1" dur="1s" begin="-0.4444444444444444s" repeatCount="indefinite"></animate>
  </rect>
</g><g transform="rotate(200 50 50)">
  <rect x="48.5" y="24.5" rx="0" ry="0" width="3" height="11" fill="#414141">
    <animate attributeName="opacity" values="1;0" keyTimes="0;1" dur="1s" begin="-0.3333333333333333s" repeatCount="indefinite"></animate>
  </rect>
</g><g transform="rotate(240 50 50)">
  <rect x="48.5" y="24.5" rx="0" ry="0" width="3" height="11" fill="#414141">
    <animate attributeName="opacity" values="1;0" keyTimes="0;1" dur="1s" begin="-0.2222222222222222s" repeatCount="indefinite"></animate>
  </rect>
</g><g transform="rotate(280 50 50)">
  <rect x="48.5" y="24.5" rx="0" ry="0" width="3" height="11" fill="#414141">
    <animate attributeName="opacity" values="1;0" keyTimes="0;1" dur="1s" begin="-0.1111111111111111s" repeatCount="indefinite"></animate>
  </rect>
</g><g transform="rotate(320 50 50)">
  <rect x="48.5" y="24.5" rx="0" ry="0" width="3" height="11" fill="#414141">
    <animate attributeName="opacity" values="1;0" keyTimes="0;1" dur="1s" begin="0s" repeatCount="indefinite"></animate>
  </rect>
</g>
<!-- [ldio] generated by https://loading.io/ --></svg>