<?xml version="1.0" encoding="UTF-8"?>
<svg width="48px" height="48px" viewBox="0 0 48 48" version="1.1" xmlns="http://www.w3.org/2000/svg" xmlns:xlink="http://www.w3.org/1999/xlink">
    <!-- Generator: Sketch 61 (89581) - https://sketch.com -->
    <title>Group 2</title>
    <desc>Created with Sketch.</desc>
    <g id="🔪🖥📱-Alternate-|-List" stroke="none" stroke-width="1" fill="none" fill-rule="evenodd">
        <g id="Alternate-|-Image-+-List-Text-w/-Icons" transform="translate(-855.000000, -352.000000)">
            <g id="Group-4" transform="translate(100.000000, 117.000000)">
                <g id="Block-with-Quote">
                    <g id="Group-12" transform="translate(755.000000, 0.000000)">
                        <g id="Group" transform="translate(0.000000, 235.000000)">
                            <g id="Group-2">
                                <rect id="Rectangle" fill="#000000" x="0" y="0" width="48" height="48" rx="4"></rect>
                                <g id="Group" transform="translate(14.000000, 14.000000)" stroke="#FFFFFF" stroke-linecap="round" stroke-linejoin="round" stroke-width="2">
                                    <path d="M12,7 L12,3 C12,1.34314575 10.6568542,-4.4408921e-16 9,-4.4408921e-16 L5,9 L5,20.0001297 L16.28,20.0001297 C17.2772867,20.0112744 18.1304612,19.2860761 18.28,18.3 L19.66,9.3 C19.748056,8.71985532 19.5768972,8.1303088 19.1918585,7.68751434 C18.8068198,7.24471987 18.2467517,6.99335535 17.66,7 L12,7 Z M5,20 L2,20 C0.8954305,20 0,19.1045695 0,18 L0,11 C0,9.8954305 0.8954305,9 2,9 L5,9" id="Shape"></path>
                                </g>
                            </g>
                        </g>
                    </g>
                </g>
            </g>
        </g>
    </g>
</svg>