<?xml version="1.0" encoding="UTF-8"?>
<svg width="57px" height="61px" viewBox="0 0 57 61" version="1.1" xmlns="http://www.w3.org/2000/svg" xmlns:xlink="http://www.w3.org/1999/xlink">
    <!-- Generator: Sketch 60.1 (88133) - https://sketch.com -->
    <title>5da7e2b3990d0aa197154ffe_page-compositions</title>
    <desc>Created with Sketch.</desc>
    <g id="🔪🖥📱-Call-to-Action" stroke="none" stroke-width="1" fill="none" fill-rule="evenodd">
        <g id="Call-to-Action" transform="translate(-812.000000, -140.000000)" fill-rule="nonzero">
            <g id="Group" transform="translate(499.000000, 140.000000)">
                <g id="5da7e2b3990d0aa197154ffe_page-compositions" transform="translate(313.000000, 0.000000)">
                    <path d="M37.6806133,23.1372999 C40.019592,18.7848691 63.5536159,28.1192786 55.2229534,49.5200251 C48.6426267,63.9491102 25.1553824,68.2704521 19.2611561,41.5807251 C15.070486,40.4148954 -2.42897294,47.6080644 0.284242338,36.7153293 C3.50813463,-0.808841389 -6.98998139,1.69769238 17.218448,0.621242995 C39.9221345,0.963219696 34.5541784,-6.6069009 37.6806133,23.1372999 Z M2.48288231,38.9653806 C4.56067504,38.9653806 8.22117669,39.4045097 9.77269922,37.2360666 C11.0513409,39.3229016 10.162529,38.7555312 18.5633608,38.4951626 C20.9920003,39.8047779 21.5572535,32.6660143 25.1904671,28.8964984 C25.2372467,26.2150902 37.2751903,23.5453402 34.9362116,21.9015204 C33.645875,22.9663115 36.6319712,5.063054 32.6323176,3.44643687 C30.6441857,4.7288495 11.7569328,2.00858029 7.65592351,6.69132943 C6.14338395,6.21722537 8.09253286,4.95424324 3.50813463,4.7210773 C2.47118741,14.3974635 3.04033889,26.6853081 2.48288231,38.9653806 Z M22.2589471,41.5457502 C21.7677616,53.7636451 36.8268861,62.0254913 48.2411021,53.7636451 C60.3258253,43.2478615 55.6088849,28.0298983 37.7897656,25.5622255 C38.7292554,44.2193862 44.6546681,40.3332874 22.2589471,41.5457502 Z M22.6097939,38.3047437 C26.7458879,38.2309079 31.5758789,37.8228675 37.0646822,37.881159 C36.6618581,33.9225196 36.2538363,29.9625848 35.8406167,26.0013547 C29.954187,27.2332481 24.6758918,31.6828313 22.6097939,38.3047437 Z" id="Shape" fill="#FFFFFF"></path>
                    <path d="M8.50841648,49.0215045 C11.3795676,48.620246 10.2311072,53.98106 13.3195346,52.8695739 C13.707528,52.6127684 15.7600131,52.0951449 15.9268502,53.4594239 C16.6058387,54.4545451 12.4349097,58.8804268 8.52005628,53.0300773 C5.42386896,54.8397533 2.46347934,50.9595832 8.50841648,49.0215045 Z" id="Path" fill="#FFFFFF"></path>
                    <path d="M46.0053503,8.0622855 C46.2866314,5.99814464 46.5679125,2.3075893 48.4743734,8.1466181 C51.4551717,6.90572409 52.4396556,12.0901713 47.8297708,11.2066868 C48.1657455,14.0499003 45.7357893,18.1942454 45.6889091,10.9898316 C42.4229229,11.6805558 39.2116303,7.36754548 46.0053503,8.0622855 Z" id="Path" fill="#FFFFFF"></path>
                    <path d="M23,38 C24.6368534,32.6367656 29.3550647,27.1711939 35.8006466,26 C36.200431,29.8660771 36.6002155,33.7283639 37,37.5868604 C33.8205819,37.526216 29.3475216,37.7839545 23,38 Z" id="Path" fill="#47C1AF"></path>
                    <path d="M11,11.6231842 C10.9203912,15.2829493 4.81565404,10.6754532 7.84078804,9 C8.54888727,9.11423544 10.7821233,9.94350013 11,11.6231842 Z" id="Path" fill="#FFFFFF"></path>
                    <path d="M14,35.4015122 C14.2913662,31.6634013 19.3155654,32.4118938 15.6921652,36.7940564 C14.8628922,37.4207013 14.209186,36.5198993 14,35.4015122 Z" id="Path" fill="#FFFFFF"></path>
                    <path d="M6.01131283,19.5408139 C5.72303015,17.2680283 11.0667047,17.4306121 8.10031772,20.5569624 C7.69505077,21.1903617 6.05727094,21.3698812 6.01131283,19.5408139 Z" id="Path" fill="#FFFFFF"></path>
                    <path d="M28.9769204,7.33655563 C29.3930401,9.02117909 24.0084513,10.2039251 26.813098,6.90487086 C27.2625073,6.2661178 28.797989,5.03774653 28.9769204,7.33655563 Z" id="Path" fill="#FFFFFF"></path>
                    <path d="M12,24.9079141 C12.3600134,23.0342222 15.6001336,24.26944 14.9017077,26.7106644 C14.4408906,27.2072554 13.7172637,27.3199273 12,24.9079141 Z" id="Path" fill="#FFFFFF"></path>
                    <path d="M20.0002613,14.1552137 C19.9655738,11.1063181 23.3996375,14.9367488 21.343614,16 C20.8737559,15.8500543 20.4007444,16.3453295 20.0002613,14.1552137 Z" id="Path" fill="#FFFFFF"></path>
                    <path d="M6.63212051,27.9701084 C5.20494056,28.4219166 3.84284375,23.5740145 6.57168618,25.4219101 C7.65020652,25.692995 9.1285232,27.7396862 6.63212051,27.9701084 Z" id="Path" fill="#FFFFFF"></path>
                    <path d="M33.9979839,12.6601588 C34.0966758,15.0424868 30.5291462,14.1003466 32.7040234,11 C33.3765904,11.2365726 33.6288031,11.4606941 33.9979839,12.6601588 Z" id="Path" fill="#FFFFFF"></path>
                    <path d="M19.9998492,29.8989326 C19.8176142,33.2905406 16.1610291,27.7391233 19.2075231,28.0096196 C19.7187255,28.4898368 20.0075672,29.178584 19.9998492,29.8989326 Z" id="Path" fill="#FFFFFF"></path>
                    <path d="M27.002382,23.2138402 C26.8963226,20.5186933 30.3773452,22.8502454 28.3811549,25 C27.8129792,24.7727532 27.3698023,25.3590499 27.002382,23.2138402 Z" id="Path" fill="#FFFFFF"></path>
                    <path d="M30,18.2884622 C29.8543588,20.3244605 26.7115753,17.4944228 28.6049107,16 C29.1951408,16.1343759 29.8466935,16.9487752 30,18.2884622 Z" id="Path" fill="#FFFFFF"></path>
                    <path d="M15.0039565,13 C15.5108898,13.5645514 16.7680846,14.5886214 15.3385325,17 C14.0762684,16.5842451 13.249967,14.3522976 15.0039565,13 Z" id="Path" fill="#FFFFFF"></path>
                    <path d="M7,33.2857768 C6.2591708,35.5587712 3.39957009,31.6458096 6.21472105,32.026282 C6.58978187,32.3823424 6.85955322,32.8150238 7,33.2857768 L7,33.2857768 Z" id="Path" fill="#FFFFFF"></path>
                    <path d="M23,22.8714313 C23,25.6021932 19.5146221,22.7377576 21.7460268,21 C22.423077,21.2138779 22.6662429,21.7523918 23,22.8714313 Z" id="Path" fill="#FFFFFF"></path>
                    <path d="M19,7.26881098 C17.8812512,10.3092666 15.3935693,2.68848635 18.5185132,5.73287022 C18.537395,6.02748801 18.825343,5.78786554 19,7.26881098 Z" id="Path" fill="#FFFFFF"></path>
                    <path d="M14,19.6552247 C14.1114507,18.0479224 17.180631,19.7501857 15.4960111,20.9952295 C14.8830323,21.0409514 14.098591,20.7701368 14,19.6552247 Z" id="Path" fill="#FFFFFF"></path>
                </g>
            </g>
        </g>
    </g>
</svg>