<svg width="57" height="61" viewBox="0 0 57 61" xmlns="http://www.w3.org/2000/svg"><title>5da7e2b3990d0aa197154ffe_page-compositions</title><desc>Created with Sketch.</desc><g fill-rule="nonzero" fill="none"><path d="M37.681 23.137c2.339-4.352 25.873 4.982 17.542 26.383-6.58 14.429-30.068 18.75-35.962-7.939-4.191-1.166-21.69 6.027-18.977-4.865 3.224-37.524-7.274-35.018 16.934-36.094 22.704.342 17.336-7.228 20.462 22.516zm-35.198 15.828c2.078 0 5.738.439 7.29-1.729 1.279 2.087.39 1.519 8.791 1.259 2.429 1.31 2.994-5.829 6.627-9.599.047-2.681 12.085-5.351 9.746-6.995-1.29 1.065 1.696-16.838-2.304-18.455-1.988 1.282-20.875-1.438-24.976 3.245-1.513-.474.437-1.737-4.148-1.97-1.037 9.676-.468 21.964-1.025 34.244zm19.776 2.58c-.491 12.218 14.568 20.48 25.982 12.218 12.085-10.516 7.368-25.734-10.451-28.201.939 18.657 6.865 14.771-15.531 15.984zm.351-3.241c4.136-.074 8.966-.482 14.455-.424-.403-3.959-.811-7.919-1.224-11.88-5.886 1.232-11.165 5.681-13.231 12.303z" fill="#000"/><path d="M8.508 49.022c2.871-.401 1.723 4.96 4.811 3.848.388-.257 2.44-.774 2.607.59.679.995-3.492 5.421-7.407-.429-3.096 1.81-6.057-2.07-.012-4.009zM46.005 8.062c.281-2.064.563-5.755 2.469.084 2.981-1.241 3.965 3.944-.645 3.06.336 2.843-2.094 6.988-2.141-.217-3.266.691-6.477-3.622.316-2.928z" id="Path" fill="#000"/><path d="M23 38c1.637-5.363 6.355-10.829 12.801-12l1.199 11.587c-3.179-.061-7.652.197-14 .413z" id="Path" fill="#47C1AF"/><path d="M11 11.623c-.08 3.66-6.184-.948-3.159-2.623.708.114 2.941.944 3.159 2.623zM14 35.402c.291-3.738 5.316-2.99 1.692 1.393-.829.627-1.483-.274-1.692-1.393zM6.011 19.541c-.288-2.273 5.055-2.11 2.089 1.016-.405.633-2.043.813-2.089-1.016zM28.977 7.337c.416 1.685-4.968 2.867-2.164-.432.449-.639 1.985-1.867 2.164.432zM12 24.908c.36-1.874 3.6-.638 2.902 1.803-.461.497-1.184.609-2.902-1.803zM20 14.155c-.035-3.049 3.399.782 1.343 1.845-.47-.15-.943.345-1.343-1.845zM6.632 27.97c-1.427.452-2.789-4.396-.06-2.548 1.079.271 2.557 2.318.06 2.548zM33.998 12.66c.099 2.382-3.469 1.44-1.294-1.66.673.237.925.461 1.294 1.66zM20 29.899c-.182 3.392-3.839-2.16-.792-1.889.511.48.8 1.169.792 1.889zM27.002 23.214c-.106-2.695 3.375-.364 1.379 1.786-.568-.227-1.011.359-1.379-1.786zM30 18.288c-.146 2.036-3.288-.794-1.395-2.288.59.134 1.242.949 1.395 2.288zM15.004 13c.507.565 1.764 1.589.335 4-1.262-.416-2.089-2.648-.335-4zM7 33.286c-.741 2.273-3.6-1.64-.785-1.259.375.356.645.789.785 1.259zM23 22.871c0 2.731-3.485-.134-1.254-1.871.677.214.92.752 1.254 1.871zM19 7.269c-1.119 3.04-3.606-4.58-.481-1.536.019.295.307.055.481 1.536zM14 19.655c.111-1.607 3.181.095 1.496 1.34-.613.046-1.397-.225-1.496-1.34z" fill="#000"/></g></svg>