<?xml version="1.0" encoding="UTF-8"?>
<svg width="92px" height="30px" viewBox="0 0 92 30" version="1.1" xmlns="http://www.w3.org/2000/svg" xmlns:xlink="http://www.w3.org/1999/xlink">
    <!-- Generator: Sketch 60.1 (88133) - https://sketch.com -->
    <title>google</title>
    <desc>Created with Sketch.</desc>
    <g id="🔪🖥📱-Customer-logos" stroke="none" stroke-width="1" fill="none" fill-rule="evenodd">
        <g id="Customer-logos" transform="translate(-1085.000000, -221.000000)" fill="#000000">
            <g id="Group-2" transform="translate(271.000000, 140.000000)">
                <g id="Group-3" transform="translate(0.000000, 76.000000)">
                    <g id="Group-33">
                        <g id="google" transform="translate(814.000000, 3.000000)">
                            <g id="Artboard-6">
                                <g id="Page-1">
                                    <g id="Artboard-6">
                                        <g id="google-new2015-seeklogo.com" transform="translate(0.000000, 2.000000)">
                                            <path d="M63.989014,8.30842166 C65.7491536,8.30842166 67.0752617,8.98602729 68.0447542,10.0254266 L68.0447542,10.0254266 L68.0447542,8.7582577 L71.1987408,8.7582577 L71.1987408,22.2005846 C71.1987408,27.4817024 68.1347144,30 64.1148151,30 C60.4393453,30 58.3749177,27.7508198 57.3495136,25.5943159 L57.3495136,25.5943159 L60.2400707,24.3923768 C60.6407704,25.3565658 61.7930508,27.0557483 64.0908017,27.0557483 C66.4691945,27.0557483 68.0447542,25.5101944 68.0447542,22.9291622 L68.0447542,22.9291622 L68.0447542,21.4541847 C67.2032132,22.4255026 66.0631187,23.2717076 63.9194829,23.2717076 C60.452248,23.2717076 56.7678181,20.2857516 56.7678181,15.783114 C56.7678181,11.8301174 59.9458181,8.30842166 63.989014,8.30842166 Z M11.7923262,-1.61648472e-13 C17.0136078,-1.61648472e-13 19.8765675,3.16988261 19.8765675,3.16988261 L19.8765675,3.16988261 L17.6461972,5.46682668 C17.6461972,5.46682668 15.5179729,3.177368 11.9062998,3.177368 C7.22513839,3.177368 3.49196504,6.87015827 3.49196504,11.6654389 C3.49196504,16.5879711 7.40828467,20.1000428 11.8966227,20.1000428 C15.4047162,20.1000428 19.1210444,18.2055273 19.497014,13.7627727 L19.497014,13.7627727 L11.8837201,13.7627727 L11.8837201,10.5946723 L22.618,10.594 L22.6261773,10.625576 C22.6593904,10.772332 22.7933498,11.424458 22.8110634,12.4660881 L22.8130008,12.6952141 C22.8130008,19.0071765 18.2268175,23.2752721 11.961853,23.2752721 C4.83850232,23.2752721 -1.95399252e-13,17.5158025 -1.95399252e-13,11.6091203 C-1.95399252e-13,5.5808897 5.14350717,-1.61648472e-13 11.7923262,-1.61648472e-13 Z M85.2214374,8.29095575 C88.2291938,8.29095575 90.5018563,10.2856328 91.4763665,12.6741837 L91.4763665,12.6741837 L92,13.8939451 L81.9140523,18.056176 C82.516177,19.171855 83.4885367,20.323535 85.6031415,20.323535 C87.4858565,20.323535 88.6137652,19.3055226 89.2886466,18.2639846 L89.2886466,18.2639846 L91.8888936,19.9849105 C90.7229937,21.5361675 88.7696724,23.2677867 85.5873716,23.2677867 C81.7742733,23.2677867 78.2048922,20.4732427 78.2048922,15.7613706 C78.2048922,11.3082791 81.4069055,8.29059932 85.221079,8.29059932 Z M31.4126323,8.30057982 C35.033624,8.30057982 38.9603375,10.852027 38.9603375,15.8069959 C38.9603375,20.1299843 35.584855,23.2617271 31.464243,23.2617271 C26.9128252,23.2617271 23.8509491,19.7731809 23.8509491,15.7196663 C23.8509491,11.725322 27.0078031,8.30057982 31.4126323,8.30057982 Z M47.8585224,8.30057982 C51.4795143,8.30057982 55.4062277,10.852027 55.4062277,15.8069959 C55.4062277,20.1299843 52.0303867,23.2617271 47.9101332,23.2617271 C43.3587154,23.2617271 40.296481,19.7731809 40.296481,15.7196663 C40.296481,11.725322 43.4533349,8.30057982 47.8585224,8.30057982 Z M76.7092574,0.773846303 L76.7092574,22.8236539 L73.3964962,22.8236539 L73.3964962,0.773846303 L76.7092574,0.773846303 Z M64.281833,11.2409106 C62.1597018,11.2409106 60.0769953,12.9547075 60.0769953,15.8266005 C60.0769953,18.5908464 62.082644,20.3313769 64.2381073,20.3313769 C66.2684862,20.3313769 68.2995819,18.7209495 68.2995819,15.7987976 C68.2995819,12.9240531 66.2641853,11.2409106 64.281833,11.2409106 Z M31.456358,11.2387719 C29.0224122,11.2387719 27.151883,13.1739223 27.151883,15.7652916 C27.151883,18.4133359 29.0457086,20.3253173 31.4463226,20.3253173 C33.6311752,20.3253173 35.6751737,18.5341714 35.6751737,15.7870348 C35.6751737,12.9807281 33.6225734,11.2387719 31.456358,11.2387719 Z M47.9022482,11.2387719 C45.4679439,11.2387719 43.5977732,13.1739223 43.5977732,15.7652916 C43.5977732,18.4133359 45.4915988,20.3253173 47.8922128,20.3253173 C50.0770654,20.3253173 52.1210638,18.5341714 52.1210638,15.7870348 C52.1210638,12.9807281 50.0684636,11.2387719 47.9022482,11.2387719 Z M85.3522561,11.1674825 C83.1745718,11.1674825 81.1097856,13.397771 81.4000958,15.5653249 L81.4000958,15.5653249 L88.1356495,12.7654342 C87.7155958,11.8942778 86.7267492,11.1674825 85.3522561,11.1674825 Z" id="Combined-Shape"></path>
                                        </g>
                                    </g>
                                </g>
                            </g>
                        </g>
                    </g>
                </g>
            </g>
        </g>
    </g>
</svg>