<?xml version="1.0" encoding="UTF-8"?>
<svg width="144px" height="38px" viewBox="0 0 144 38" version="1.1" xmlns="http://www.w3.org/2000/svg" xmlns:xlink="http://www.w3.org/1999/xlink">
    <!-- Generator: Sketch 60.1 (88133) - https://sketch.com -->
    <title>page-header--brand-logo-ad455cbd301a7e8bf22bf3f94a6ea8ae</title>
    <desc>Created with Sketch.</desc>
    <g id="🔪🖥📱-Customer-logos" stroke="none" stroke-width="1" fill="none" fill-rule="evenodd">
        <g id="Customer-logos" transform="translate(-669.000000, -216.000000)" fill="#000000">
            <g id="Group-2" transform="translate(271.000000, 140.000000)">
                <g id="Group-3" transform="translate(0.000000, 76.000000)">
                    <g id="Group-33">
                        <g id="page-header--brand-logo-ad455cbd301a7e8bf22bf3f94a6ea8ae" transform="translate(398.000000, 0.000000)">
                            <g id="Group">
                                <g id="Shape">
                                    <path d="M52.5939518,28.464544 L55.8768832,28.464544 L55.333039,25.9567064 L55.333039,11.005534 L52.1926494,11.005534 L52.1926494,17.8248179 C51.2479996,16.7469563 49.9487335,16.1146174 48.4145467,16.1146174 C45.2736604,16.1146174 42.8420065,18.6684255 42.8420065,22.4184448 C42.8420065,26.1679751 45.2736604,28.7222723 48.4145467,28.7222723 C49.9730699,28.7222723 51.3185255,28.06597 52.263672,26.9406708 L52.5939518,28.464055 L52.5939518,28.464544 Z M114.672645,19.4660626 C115.310358,19.4660626 115.900392,19.6294046 116.443243,20.0040153 L117.93124,16.7004968 C117.245847,16.2779594 116.443243,16.0911431 115.664478,16.0911431 C114.247503,16.0911431 113.066939,16.7220149 112.312014,17.8957298 L111.980741,16.3708785 L108.745489,16.3708785 L109.264996,18.7378703 L109.264996,28.4625878 L112.403896,28.4625878 L112.403896,20.7537258 C112.829038,19.9565777 113.63214,19.4650846 114.671155,19.4650846 L114.671155,19.4660626 L114.672148,19.4660626 L114.672645,19.4660626 Z M123.880746,25.4647242 C122.063959,25.4647242 120.717013,24.2699802 120.717013,22.4179558 C120.717013,20.5434352 122.063959,19.3721655 123.880746,19.3721655 C125.72336,19.3721655 127.045969,20.5434352 127.045969,22.4179558 C127.045969,24.2699802 125.72336,25.4647242 123.881243,25.4647242 L123.880746,25.4647242 Z M45.8875338,22.4179558 C45.8875338,20.5434352 47.233486,19.3721655 49.0512665,19.3721655 C50.89388,19.3721655 52.2159925,20.5434352 52.2159925,22.4179558 C52.2159925,24.2699802 50.89388,25.4647242 49.0522598,25.4647242 C47.2344793,25.4647242 45.8875338,24.2699802 45.8875338,22.4179558 Z M137.789747,25.4647242 C135.971966,25.4647242 134.626014,24.2699802 134.626014,22.4179558 C134.626014,20.5434352 135.971966,19.3721655 137.789747,19.3721655 C139.631367,19.3721655 140.953479,20.5434352 140.953479,22.4179558 C140.953479,24.2699802 139.631367,25.4647242 137.789747,25.4647242 Z M63.5031179,19.1843711 C65.1321671,19.1843711 66.1950223,19.9340815 66.5253021,21.3166199 L60.4809337,21.3166199 C60.8350533,19.9340815 61.8974118,19.1843711 63.5026213,19.1843711 L63.5031179,19.1843711 Z M101.070581,19.1843711 C102.700624,19.1843711 103.763479,19.9340815 104.093759,21.3166199 L98.0493902,21.3166199 C98.4035097,19.9340815 99.4658683,19.1843711 101.071078,19.1843711 L101.070581,19.1843711 Z M85.747089,28.464544 L90.8001214,28.464544 L94.0830528,16.3723456 L90.6590696,16.3723456 L88.2512554,26.1679751 L85.842448,16.3723456 L82.4651509,16.3723456 L85.7480823,28.464055 L85.747089,28.464544 Z M77.647536,28.464544 L80.7864356,28.464544 L80.7864356,16.3718566 L77.647536,16.3718566 L77.647536,28.464544 Z M63.9843828,28.688528 C65.7326306,28.688528 67.4560455,28.219042 68.8963633,27.3055005 L67.6924563,24.6343209 C66.5585784,25.2202003 65.3074885,25.5718257 64.0320622,25.5718257 C62.37967,25.5718257 61.2224491,24.9389977 60.7262844,23.7672389 L69.5569229,23.7672389 C69.6512886,23.3222053 69.6994647,22.8771718 69.6994647,22.3377519 C69.6994647,18.5882217 67.0785829,16.0808731 63.5597373,16.0808731 C60.018542,16.0808731 57.4210033,18.611696 57.4210033,22.3847005 C57.4210033,26.2276389 59.9947023,28.688528 63.9853761,28.688528 L63.9843828,28.688528 Z M144,22.4179558 C144,18.6684255 141.355278,16.1141283 137.789747,16.1141283 C134.223718,16.1141283 131.579493,18.6684255 131.579493,22.4179558 C131.579493,26.1679751 134.223718,28.7217832 137.78925,28.7217832 C141.355278,28.7217832 143.999503,26.1679751 143.999503,22.4179558 L144,22.4179558 Z M101.496717,28.7217832 C103.242978,28.7217832 104.966889,28.2532753 106.408697,27.3392448 L105.2033,24.666598 C104.069919,25.2524774 102.818332,25.6036138 101.542906,25.6036138 C99.8905138,25.6036138 98.7332929,24.9717639 98.2371282,23.7990271 L107.06876,23.7990271 C107.163126,23.3539935 107.209812,22.9089599 107.209812,22.3700291 C107.209812,18.6204988 104.588433,16.1131502 101.070084,16.1131502 C97.5288891,16.1131502 94.9313504,18.6434841 94.9313504,22.4169777 C94.9313504,26.2599161 97.5055461,28.7208051 101.49622,28.7208051 L101.49622,28.7217832 L101.496717,28.7217832 Z M123.881243,28.7217832 C127.447271,28.7217832 130.090999,26.1679751 130.090999,22.4179558 C130.090999,18.6684255 127.446774,16.1141283 123.880746,16.1141283 C120.314718,16.1141283 117.670493,18.6684255 117.670493,22.4179558 C117.670493,26.1679751 120.315214,28.7217832 123.880249,28.7217832 L123.881243,28.7217832 Z M71.6970366,28.464055 L74.8369295,28.464055 L74.8369295,11.0050449 L71.6965399,11.0050449 L71.6965399,28.464055 L71.6970366,28.464055 Z M79.2289057,14.7071375 C80.3384471,14.7071375 81.1887313,13.8630408 81.1887313,12.7382307 C81.1887313,11.6134205 80.3394404,10.7698129 79.2294024,10.7698129 C78.0960212,10.7698129 77.245737,11.6134205 77.245737,12.7382307 C77.245737,13.8630408 78.0965179,14.7066485 79.229899,14.7066485 L79.2289057,14.7071375 Z M25.2780752,0.000489047901 L23.4801611,16.7562482 L20.4127808,2.62912152 L10.7974174,4.63226172 L13.8628111,18.7579213 L0,21.6433039 L2.44854037,32.9266171 L26.8266652,38 L32.4021853,25.738591 L35.0563435,1.00743868 L25.2780752,0 L25.2780752,0.000489047901 Z M17.5748579,24.3076369 C17.07174,24.758539 16.4067104,24.71697 15.7024447,24.4871174 C14.9981789,24.258243 14.6852823,23.4244164 14.9514927,22.4164886 C15.1501573,21.6682453 16.0858672,21.5557643 16.5537222,21.5479396 C16.731527,21.5450053 16.9063517,21.5802167 17.0677667,21.6516177 C17.3985431,21.7983321 17.9587771,22.1113227 18.0725126,22.5886335 C18.2364108,23.2772129 18.0784725,23.8552676 17.5758512,24.3061697 L17.5748579,24.3061697 L17.5748579,24.3071478 L17.5748579,24.3076369 Z M24.6324154,25.085223 C24.2668727,25.7063139 23.3083163,25.7884739 22.3651564,25.3365937 C21.7294299,25.0314278 21.7343966,24.2548197 21.8039291,23.7814213 C21.8411787,23.523204 21.9464709,23.2801472 22.1118592,23.0752362 C22.3388334,22.7935446 22.717786,22.4262696 23.1558413,22.4150215 C23.8680536,22.3964377 24.4809337,22.7094283 24.8271067,23.2757458 C25.1747696,23.8401071 25.0009381,24.4626651 24.6348987,25.085223 L24.6329121,25.085223 L24.6324154,25.085223 Z"></path>
                                </g>
                            </g>
                        </g>
                    </g>
                </g>
            </g>
        </g>
    </g>
</svg>