<?xml version="1.0" encoding="UTF-8"?>
<svg width="92px" height="25px" viewBox="0 0 92 25" version="1.1" xmlns="http://www.w3.org/2000/svg" xmlns:xlink="http://www.w3.org/1999/xlink">
    <!-- Generator: Sketch 60.1 (88133) - https://sketch.com -->
    <title>Shape</title>
    <desc>Created with Sketch.</desc>
    <g id="🔪🖥📱-Customer-logos" stroke="none" stroke-width="1" fill="none" fill-rule="evenodd">
        <g id="Customer-logos" transform="translate(-271.000000, -223.000000)" fill="#000000" fill-rule="nonzero">
            <g id="Group-2" transform="translate(271.000000, 140.000000)">
                <g id="Group-3" transform="translate(0.000000, 76.000000)">
                    <g id="Group-33">
                        <g id="Netflix_2015_logo" transform="translate(0.000000, 7.000000)">
                            <path d="M12.5868753,23.1331191 C11.2098576,23.3748114 9.80861422,23.4472744 8.35909835,23.6402708 L3.9378738,10.697361 L3.9378738,24.1957608 C2.56085607,24.3405975 1.30460898,24.5337726 -3.58824082e-12,24.7269477 L-3.58824082e-12,-3.55271368e-15 L3.67228566,-3.55271368e-15 L8.69727402,14.0298547 L8.69727402,-3.55271368e-15 L12.5868753,-3.55271368e-15 L12.5868753,23.1331191 Z M20.1970348,9.05528339 C21.6950019,9.05528339 23.9900911,8.9828204 25.3671088,8.9828204 L25.3671088,12.8463222 C23.6517366,12.8463222 21.6466401,12.8463222 20.1970348,12.9187852 L20.1970348,18.6659675 C22.4680771,18.5211309 24.73903,18.3277771 27.0340297,18.2553141 L27.0340297,21.9738005 L16.3314803,22.8191426 L16.3314803,2.48689958e-14 L27.0340297,2.48689958e-14 L27.0340297,3.86359116 L20.1970348,3.86359116 L20.1970348,9.05528339 Z M41.408686,3.86368051 L37.398314,3.86368051 L37.398314,21.6361462 C36.0937051,21.6361462 34.7890961,21.6361462 33.5330278,21.684306 L33.5330278,3.86368051 L29.5226558,3.86368051 L29.5226558,-3.90798505e-14 L41.4088648,-3.90798505e-14 L41.408686,3.86368051 L41.408686,3.86368051 Z M47.6900108,8.78973466 L52.9809449,8.78973466 L52.9809449,12.6532365 L47.6900108,12.6532365 L47.6900108,21.4188466 L43.8967757,21.4188466 L43.8967757,2.48689958e-14 L54.6962277,2.48689958e-14 L54.6962277,3.86359116 L47.6900108,3.86359116 L47.6900108,8.78973466 Z M60.9775525,18.0381038 C63.1760967,18.0862635 65.3985983,18.2555821 67.5488699,18.3761155 L67.5488699,22.1914576 C64.0941681,21.9739792 60.6393769,21.7569477 57.1121769,21.684306 L57.1121769,-3.55271368e-15 L60.9775525,-3.55271368e-15 L60.9775525,18.0381038 Z M70.810303,22.4570957 C72.0424138,22.529648 73.3470228,22.602111 74.6032699,22.746769 L74.6032699,-3.19744231e-14 L70.810303,-3.19744231e-14 L70.810303,22.4570957 Z M91.538961,-3.55271368e-15 L86.6345645,11.759824 L91.538961,24.7269477 C90.0892664,24.5337726 88.6397505,24.2681345 87.1901452,24.0266209 L84.4119735,16.8791426 L81.5856187,23.4472744 C80.1841072,23.2055821 78.8312257,23.1331191 77.4302505,22.939944 L82.4069663,11.6148087 L77.9132437,-3.55271368e-15 L82.0684331,-3.55271368e-15 L84.6051529,6.49566877 L87.3110947,-3.55271368e-15 L91.538961,-3.55271368e-15 Z" id="Shape"></path>
                        </g>
                    </g>
                </g>
            </g>
        </g>
    </g>
</svg>