<?xml version="1.0" encoding="UTF-8"?>
<svg width="82px" height="33px" viewBox="0 0 82 33" version="1.1" xmlns="http://www.w3.org/2000/svg" xmlns:xlink="http://www.w3.org/1999/xlink">
    <!-- Generator: Sketch 60.1 (88133) - https://sketch.com -->
    <title>EBay_logo</title>
    <desc>Created with Sketch.</desc>
    <g id="🔪🖥📱-Customer-logos" stroke="none" stroke-width="1" fill="none" fill-rule="evenodd">
        <g id="Customer-logos" transform="translate(-908.000000, -219.000000)" fill="#000000">
            <g id="Group-2" transform="translate(271.000000, 140.000000)">
                <g id="Group-3" transform="translate(0.000000, 76.000000)">
                    <g id="Group-33">
                        <g id="EBay_logo" transform="translate(637.000000, 3.000000)">
                            <g id="Group">
                                <path d="M24.6632031,-4.61852778e-14 L24.6632031,10.2748468 C24.6632031,10.2748468 26.4267446,7.20356106 32.1020757,7.20356106 C38.1626835,7.20356106 41.7512517,11.4933036 41.7512517,16.8269229 C41.7512517,17.4811317 41.7003833,18.1127948 41.6017102,18.7185394 C42.5793311,15.9570851 45.9724869,14.5932606 51.558306,14.5932606 L51.558306,14.5932606 L56.6104259,14.5932606 L56.6104259,13.6997957 C56.6104259,11.1896133 54.4047434,9.88395578 51.558306,9.88395578 C47.1779327,9.88395578 46.9519616,12.6574201 46.9519616,12.6574201 L46.9519616,12.6574201 L42.6428026,12.6574201 C42.6428026,11.8982949 43.1980394,7.1477196 51.8554888,7.1477196 C54.8057695,7.1477196 58.0348462,7.76531947 59.6779788,10.2005399 L58.4505743,7.89302406 L63.2983802,7.89302406 L70.2556552,21.8613909 L77.1970125,7.89302406 L81.5884294,7.89302406 L68.9448655,32.7611229 L64.338521,32.7611229 L67.9869798,25.8288011 L60.2385487,11.2554751 C60.5791203,12.0913441 60.7709922,13.0876487 60.7709922,14.2721717 L60.7709922,14.2721717 L60.7709922,23.2487021 C60.7709922,24.2872271 60.9195849,25.9104832 60.9195849,25.9104832 L60.9195849,25.9104832 L57.088785,25.9104832 C57.088785,25.9104832 56.9865464,24.6009107 56.9865464,23.2719696 C56.9865464,23.2719696 55.0428395,26.6131561 49.0090296,26.6131561 C44.5816654,26.6131561 41.3054763,24.4765672 41.3054763,20.5496935 C41.3054763,20.327046 41.3165163,20.1107 41.3385296,19.9006453 C40.1949911,23.940284 36.7481767,26.5619679 32.0927902,26.5619679 C26.63088,26.5619679 24.6221411,23.412656 24.6221411,23.412656 C24.6221411,24.605387 24.4762077,25.9104832 24.4762077,25.9104832 L24.4762077,25.9104832 L20.4104661,25.9104832 C20.4104661,25.9104832 20.5026346,24.0933423 20.5026346,22.7991881 L20.502,17.94 L4.21487864,17.9400551 C4.21487864,21.2969787 6.70153959,23.7138285 10.1933425,23.8219514 L10.4385689,23.8257317 C14.8831941,23.8257317 15.7971581,20.6986042 15.7971581,20.6986042 L15.7971581,20.6986042 L20.0598832,20.6986042 C20.0598832,20.6986042 19.495942,26.5061264 10.6986044,26.5061264 C3.22452819,26.5061264 9.68114477e-13,22.8235721 9.68114477e-13,16.9758339 C9.68114477e-13,9.59437778 4.79535364,7.1477196 10.5500127,7.1477196 C18.1824488,7.1477196 20.4088627,12.1597777 20.502537,15.5591669 L20.5026346,-4.58295018e-14 L24.6632031,-4.61852778e-14 Z M56.6104259,17.2736553 C50.0679238,17.2736553 45.614638,17.2946191 45.614638,20.5496935 C45.614638,22.3389851 46.9370346,23.8815731 50.0213112,23.8815731 C55.6536995,23.8815731 56.6104259,20.0187044 56.6104259,18.464942 L56.6104259,18.464942 Z M31.0526465,10.0235597 C26.6809924,10.0235597 24.6632031,13.4947724 24.6632031,16.8641507 C24.6632031,20.4801194 26.911864,23.7419692 31.0805085,23.7419692 C34.5735546,23.7419692 37.4420927,21.0072115 37.4420927,16.8269229 C37.4420927,12.9285581 34.9584381,10.0235597 31.0526465,10.0235597 Z M10.4014208,9.90256969 C7.37544863,9.90256969 4.30916008,11.8227374 4.30916008,15.1889038 L4.30916008,15.1889038 L16.1964983,15.1889038 C16.1964983,12.018128 13.8473106,9.90256969 10.4014208,9.90256969 Z" id="Combined-Shape"></path>
                            </g>
                        </g>
                    </g>
                </g>
            </g>
        </g>
    </g>
</svg>