<?xml version="1.0" encoding="UTF-8"?>
<svg width="116px" height="19px" viewBox="0 0 116 19" version="1.1" xmlns="http://www.w3.org/2000/svg" xmlns:xlink="http://www.w3.org/1999/xlink">
    <!-- Generator: Sketch 60.1 (88133) - https://sketch.com -->
    <title>Group 8</title>
    <desc>Created with Sketch.</desc>
    <g id="🔪🖥📱-Customer-logos" stroke="none" stroke-width="1" fill="none" fill-rule="evenodd">
        <g id="Customer-logos" transform="translate(-458.000000, -226.000000)" fill="#000000">
            <g id="Group-2" transform="translate(271.000000, 140.000000)">
                <g id="Group-3" transform="translate(0.000000, 76.000000)">
                    <g id="Group-33">
                        <g id="Group-8" transform="translate(187.000000, 10.000000)">
                            <path d="M25.6319654,4.79616347e-14 L25.6319654,11.0838829 C25.6319654,14.3481643 26.6738107,15.7162186 30.176321,15.7162186 C33.6921471,15.7162186 34.7013917,14.3481643 34.7013917,11.0838829 L34.7013917,4.79616347e-14 L38.9486675,4.79616347e-14 L38.9486675,11.1845957 C38.9486675,13.5565886 38.6584753,15.1757414 37.7580528,16.1546157 C36.1073548,17.9615229 33.6921471,18.7066157 30.176321,18.7066157 C26.6738107,18.7066157 24.2218698,17.9615229 22.568876,16.1546157 C21.6381486,15.1579686 21.4182086,13.5310686 21.4182086,11.1845957 L21.4182086,4.79616347e-14 L25.6319654,4.79616347e-14 Z M4.24268421,6.03961325e-14 L4.24268421,7.49604429 L13.6964315,7.49604429 L13.6964315,6.03961325e-14 L17.9267183,6.03961325e-14 L17.9267183,18.5010886 L13.6964315,18.5010886 L13.6964315,10.7771871 L4.24268421,10.7771871 L4.24268421,18.5010886 L4.12114787e-13,18.5010886 L4.12114787e-13,6.03961325e-14 L4.24268421,6.03961325e-14 Z M52.8035109,6.03961325e-14 L61.4068847,18.5010886 L56.6852915,18.5010886 L54.8279692,14.1016229 L46.0671018,14.1016229 L44.2653385,18.5010886 L39.7751644,18.5010886 L48.3009394,6.03961325e-14 L52.8035109,6.03961325e-14 Z M63.3321634,6.03961325e-14 L67.9959019,14.21783 L71.9254356,6.03961325e-14 L76.9298745,6.03961325e-14 L81.4535676,14.21783 L85.7995639,6.03961325e-14 L90.1515294,6.03961325e-14 L83.9192834,18.5010886 L78.7206178,18.5010886 L74.4196196,4.69249 L70.6608953,18.5010886 L65.4920754,18.5010886 L58.777247,6.03961325e-14 L63.3321634,6.03961325e-14 Z M107.600257,6.03961325e-14 L107.600257,3.22281143 L100.630592,3.22281143 C97.5812776,3.22281143 96.0394016,4.61957571 95.8750206,7.52202 L107.600257,7.52202 L107.600257,10.7398186 L95.8401241,10.7398186 C95.8750206,14.0738243 97.2988911,15.2842014 100.630592,15.2842014 L107.600257,15.2842014 L107.600257,18.5010886 L100.438661,18.5010886 C97.9995768,18.5010886 96.112868,18.3274614 94.1499378,16.8773786 C92.0726756,15.3653186 91.0620535,12.9409186 91.0620535,9.59141857 C91.0620535,3.04599429 94.0714206,6.03961325e-14 100.547483,6.03961325e-14 L107.600257,6.03961325e-14 Z M115.772475,6.03961325e-14 L115.772475,18.5010886 L111.339237,18.5010886 L111.339237,6.03961325e-14 L115.772475,6.03961325e-14 Z M50.3928949,3.68946286 L47.4390867,10.8036186 L53.4624126,10.8036186 L50.3928949,3.68946286 Z" id="Combined-Shape"></path>
                        </g>
                    </g>
                </g>
            </g>
        </g>
    </g>
</svg>