<?xml version="1.0" encoding="UTF-8"?>
<svg width="137px" height="23px" viewBox="0 0 137 23" version="1.1" xmlns="http://www.w3.org/2000/svg" xmlns:xlink="http://www.w3.org/1999/xlink">
    <!-- Generator: Sketch 60.1 (88133) - https://sketch.com -->
    <title>Rakuten_logo_2</title>
    <desc>Created with Sketch.</desc>
    <g id="🔪🖥📱-Customer-logos" stroke="none" stroke-width="1" fill="none" fill-rule="evenodd">
        <g id="Customer-logos" transform="translate(-1272.000000, -224.000000)" fill="#000000" fill-rule="nonzero">
            <g id="Group-2" transform="translate(271.000000, 140.000000)">
                <g id="Group-3" transform="translate(0.000000, 76.000000)">
                    <g id="Group-33">
                        <g id="Rakuten_logo_2" transform="translate(1001.000000, 8.000000)">
                            <g id="Group">
                                <path d="M11.1918558,0.213675 C17.3741965,0.213675 22.3850392,5.24503269 22.3850392,11.4504923 C22.3850392,17.6546192 17.3741965,22.6824231 11.1918558,22.6824231 C5.00685955,22.6824231 -3.19744231e-12,17.6550635 -3.19744231e-12,11.4504923 C-3.19744231e-12,5.24503269 5.00685955,0.213675 11.1918558,0.213675 Z M112.884885,4.96028077 C117.049965,4.96028077 120.439653,8.77666731 120.439653,13.4650788 C120.439653,13.8431192 120.407787,14.2216038 120.3653,14.5983115 L120.3653,14.5983115 L109.573533,14.5960904 C109.96654,17.5289019 113.906349,19.8819923 116.733523,16.4152154 L116.733523,16.4152154 L120.067004,18.3476192 C117.988668,21.3066404 115.345606,21.9712096 113.41509,21.9712096 C109.590351,21.9712096 105.329674,18.4786673 105.329674,13.4650788 C105.329674,8.69715 108.648549,4.96028077 112.884885,4.96028077 Z M97.9280369,1.33713462 L97.9280369,5.37119423 L103.568222,5.37119423 L103.568222,9.21334615 L97.9280369,9.21334615 L97.9280369,16.1966538 C97.9280369,17.7243635 99.0557199,18.1268365 99.6536398,18.1268365 C100.587475,18.1268365 101.049081,17.4898096 101.256207,17.0544635 L101.256207,17.0544635 L104.984465,18.0597577 C104.297587,20.0619058 102.446735,21.9703212 99.6536398,21.9703212 C96.9238325,21.9703212 94.0988715,19.8113596 94.0997566,16.1966538 L94.0997566,16.1966538 L94.0997566,9.21334615 L91.3814563,9.21334615 L91.3814563,5.37119423 L94.0997566,5.37119423 L94.0997566,1.33713462 L97.9280369,1.33713462 Z M50.2422693,4.97360769 C51.5974363,4.97360769 52.8667436,5.38407692 53.9705275,6.08951538 L53.9705275,6.08951538 L53.9705275,5.37119423 L57.7983652,5.37119423 L57.7983652,21.5594077 L53.9705275,21.5594077 L53.9705275,20.8415308 C52.8671861,21.5483019 51.5974363,21.9569942 50.2422693,21.9569942 C46.078074,21.9569942 42.6910418,18.1481596 42.6910418,13.4659673 C42.6910418,8.78510769 46.0785166,4.97360769 50.2422693,4.97360769 Z M79.768711,5.37119423 L79.768711,14.8808423 C79.768711,16.6644288 81.2141634,18.1148423 82.9911051,18.1148423 C84.7693745,18.1148423 86.2139418,16.6644288 86.2139418,14.8808423 L86.2139418,14.8808423 L86.2139418,5.37119423 L90.0417795,5.37119423 L90.0417795,21.5594077 L86.2139418,21.5594077 L86.2139418,21.1680404 C85.2469137,21.6704654 84.1519813,21.9569942 82.9911051,21.9569942 C79.1035196,21.9569942 75.9404307,18.7825212 75.9404307,14.8808423 L75.9404307,14.8808423 L75.9404307,5.37119423 L79.768711,5.37119423 Z M129.020754,4.97360769 C132.909667,4.97360769 136.071429,8.15074615 136.071429,12.0515365 L136.071429,12.0515365 L136.071429,21.5589635 L132.243148,21.5589635 L132.243148,12.0515365 C132.243148,10.2661731 130.798138,8.81487115 129.020754,8.81487115 C127.243813,8.81487115 125.799245,10.2661731 125.799245,12.0515365 L125.799245,12.0515365 L125.799245,21.5594077 L121.970965,21.5594077 L121.970965,5.37119423 L125.799245,5.37119423 L125.799245,5.76345 C126.766273,5.26280192 127.859878,4.97360769 129.020754,4.97360769 Z M34.2489092,1.33713462 C38.0816152,1.33713462 41.1982337,4.46185385 41.1982337,8.30889231 C41.1982337,10.6517654 40.0391278,12.7196596 38.2736931,13.9914923 L38.2736931,13.9914923 L43.9382202,21.5589635 L39.1460099,21.5589635 L34.4582475,15.2873135 L31.750569,15.2873135 L31.750569,21.5594077 L27.9222887,21.5594077 L27.9222887,1.33713462 Z M63.9236137,1.77635684e-14 L63.9236137,11.2319308 L69.7607454,5.37119423 L75.1747746,5.37119423 L67.6138104,12.9591 L76.1794216,21.5589635 L70.7680478,21.5589635 L63.9236137,14.6876019 L63.9236137,21.5589635 L60.0953334,21.5589635 L60.0953334,1.77635684e-14 L63.9236137,1.77635684e-14 Z M50.2422693,8.81798077 C48.1891604,8.81798077 46.5179943,10.9036442 46.5179943,13.4655231 C46.5179943,16.0291788 48.1891604,18.1148423 50.2422693,18.1148423 C52.2980337,18.1148423 53.9705275,16.0291788 53.9705275,13.4655231 C53.9705275,10.9036442 52.2980337,8.81798077 50.2422693,8.81798077 Z M11.2046905,5.41295192 L7.42642121,5.41295192 L7.42642121,17.4867 L9.712325,17.4867 L9.712325,13.7418346 L11.3290542,13.7418346 L14.1279033,17.4862558 L16.9891556,17.4862558 L13.6074342,12.9679846 C14.6612071,12.2087942 15.3538382,10.9738327 15.3538382,9.57539423 C15.3538382,7.27827692 13.4928071,5.41295192 11.2046905,5.41295192 Z M11.2038053,7.70518269 C12.2301385,7.70518269 13.0697047,8.54344615 13.0697047,9.57539423 C13.0697047,10.6104519 12.2301385,11.4478269 11.2038053,11.4478269 L9.712325,11.4478269 L9.712325,7.70518269 L11.2038053,7.70518269 Z M34.2489092,5.17662115 L31.750569,5.17662115 L31.750569,11.4451615 L34.2489092,11.4451615 C35.9678734,11.4451615 37.3739366,10.0422808 37.3739366,8.30889231 C37.3739366,6.58039038 35.9678734,5.17662115 34.2489092,5.17662115 L34.2489092,5.17662115 Z M116.111262,11.1612981 C115.400928,7.35779423 110.372382,8.01347885 109.655852,11.1612981 L109.655852,11.1612981 Z" id="Combined-Shape"></path>
                            </g>
                        </g>
                    </g>
                </g>
            </g>
        </g>
    </g>
</svg>