<?xml version="1.0" encoding="UTF-8"?>
<svg width="50px" height="50px" viewBox="0 0 50 50" version="1.1" xmlns="http://www.w3.org/2000/svg" xmlns:xlink="http://www.w3.org/1999/xlink">
    <!-- Generator: Sketch 61 (89581) - https://sketch.com -->
    <title>digital-ocean</title>
    <desc>Created with Sketch.</desc>
    <g id="🔪🖥-Testimonial" stroke="none" stroke-width="1" fill="none" fill-rule="evenodd">
        <g id="Testimonial-|-Logos-switch" transform="translate(-1360.000000, -823.000000)" fill="#000000" fill-rule="nonzero">
            <g id="Group-4" transform="translate(270.000000, 124.000000)">
                <g id="logos" transform="translate(0.000000, 699.000000)">
                    <g id="digital-ocean" transform="translate(1090.000000, 0.000000)">
                        <path d="M24.9772138,39.8582996 L15.3547264,39.8582996 L15.3547264,30.3238176 C15.3547264,30.3238176 15.3555877,30.3219275 15.3566218,30.3219275 L24.9980655,30.3219275 C24.9990996,30.3219275 24.999615,30.3229585 24.999615,30.3229585 L24.999615,39.8338919 C35.2545359,39.81928 43.1776304,29.778246 39.261625,19.1137136 C37.8097821,15.1607438 34.620897,12.0079558 30.6236336,10.5730582 C19.8326057,6.70118919 9.67504728,14.5481933 9.67349612,24.6981468 C9.67349612,24.6981468 9.67246201,24.7005524 9.67108375,24.7005524 L0,24.7005524 C0,8.52715681 15.8000147,-4.06578223 32.9379658,1.22483292 C40.4270632,3.53706078 46.3781542,9.42218499 48.7162676,16.8281184 C54.0657704,33.7757503 41.3322885,49.3999982 24.9772138,49.3999982 L24.9772138,39.8582996 Z M15.3530024,47.1865689 L7.94507087,47.1865689 L7.94300266,47.1845069 L7.94300266,39.8582996 L15.3545535,39.8582996 L15.3545535,47.1845069 L15.3530024,47.1865689 Z M7.94851734,39.8582996 L1.73842052,39.8582996 C1.73583525,39.8582996 1.73393994,39.8562377 1.73393994,39.8562377 L1.73393994,33.7180177 C1.73393994,33.7180177 1.73583525,33.713722 1.73842052,33.713722 L7.94386386,33.713722 C7.94644913,33.713722 7.94851734,33.7156121 7.94851734,33.7156121 L7.94851734,39.8582996 Z" id="Combined-Shape"></path>
                    </g>
                </g>
            </g>
        </g>
    </g>
</svg>