<?xml version="1.0" encoding="UTF-8"?>
<svg width="48px" height="50px" viewBox="0 0 48 50" version="1.1" xmlns="http://www.w3.org/2000/svg" xmlns:xlink="http://www.w3.org/1999/xlink">
    <!-- Generator: Sketch 61 (89581) - https://sketch.com -->
    <title>a</title>
    <desc>Created with Sketch.</desc>
    <g id="🔪🖥-Testimonial" stroke="none" stroke-width="1" fill="none" fill-rule="evenodd">
        <g id="Testimonial-|-Logos-switch" transform="translate(-917.000000, -823.000000)" fill="#000000">
            <g id="Group-4" transform="translate(270.000000, 124.000000)">
                <g id="logos" transform="translate(0.000000, 699.000000)">
                    <path d="M694.44186,20.2090902 L671.55814,20.2090902 L671.55814,29.7522716 L684.730233,29.7522716 C683.502326,35.8149987 678.367442,39.2954531 671.55814,39.2954531 C663.52093,39.2954531 657.046512,32.7836352 657.046512,24.6999991 C657.046512,16.616363 663.52093,10.1045451 671.55814,10.1045451 C675.018605,10.1045451 678.144186,11.339545 680.6,13.3604541 L687.744186,6.17499977 C683.390698,2.35772719 677.809302,0 671.55814,0 C657.939535,0 647,11.0027269 647,24.6999991 C647,38.3972713 657.939535,49.3999982 671.55814,49.3999982 C683.837209,49.3999982 695,40.4181803 695,24.6999991 C695,23.2404537 694.776744,21.6686356 694.44186,20.2090902 Z" id="a"></path>
                </g>
            </g>
        </g>
    </g>
</svg>