<?xml version="1.0" encoding="UTF-8"?>
<svg width="121px" height="29px" viewBox="0 0 121 29" version="1.1" xmlns="http://www.w3.org/2000/svg" xmlns:xlink="http://www.w3.org/1999/xlink">
    <!-- Generator: Sketch 61.2 (89653) - https://sketch.com -->
    <title>docker-1</title>
    <desc>Created with Sketch.</desc>
    <g id="🔪🖥📱-Slider-|-Testimonial" stroke="none" stroke-width="1" fill="none" fill-rule="evenodd">
        <g id="Text/Testimonial-slider" transform="translate(-780.000000, -477.000000)" fill="#000000" fill-rule="nonzero">
            <g id="Group-5" transform="translate(367.000000, 140.000000)">
                <g id="Group-2" transform="translate(44.000000, 267.000000)">
                    <g id="Group">
                        <g id="Group-6" transform="translate(151.000000, 70.000000)">
                            <g id="docker-1" transform="translate(217.000000, 0.000000)">
                                <path d="M8.7,23 C7.6,23 6.6,22.1 6.6,21 C6.6,19.9 7.5,19 8.7,19 C9.9,19 10.8,19.9 10.8,21 C10.8,22.1 9.8,23 8.7,23 Z M34.5,12.1 C34.3,10.5 33.3,9.2 32,8.2 L31.5,7.8 L31.1,8.3 C30.3,9.2 30,10.8 30.1,12 C30.2,12.9 30.5,13.8 31,14.5 C30.6,14.7 30.1,14.9 29.7,15.1 C28.8,15.4 27.9,15.5 27,15.5 L1.1,15.5 L1,16.1 C0.8,18 1.1,20 1.9,21.8 L2.3,22.5 L2.3,22.6 C4.7,26.6 9,28.4 13.7,28.4 C22.7,28.4 30.1,24.5 33.6,16.1 C35.9,16.2 38.2,15.6 39.3,13.4 L39.6,12.9 L39.1,12.6 C37.8,11.8 36,11.7 34.5,12.1 L34.5,12.1 Z M21.6,10.5 L17.7,10.5 L17.7,14.4 L21.6,14.4 L21.6,10.5 Z M21.6,5.6 L17.7,5.6 L17.7,9.5 L21.6,9.5 L21.6,5.6 Z M21.6,0.6 L17.7,0.6 L17.7,4.5 L21.6,4.5 L21.6,0.6 Z M26.4,10.5 L22.5,10.5 L22.5,14.4 L26.4,14.4 L26.4,10.5 Z M11.9,10.5 L8,10.5 L8,14.4 L11.9,14.4 L11.9,10.5 L11.9,10.5 Z M16.8,10.5 L12.9,10.5 L12.9,14.4 L16.8,14.4 L16.8,10.5 Z M7.1,10.5 L3.2,10.5 L3.2,14.4 L7.1,14.4 L7.1,10.5 L7.1,10.5 Z M16.8,5.6 L12.9,5.6 L12.9,9.5 L16.8,9.5 L16.8,5.6 Z M11.9,5.6 L8,5.6 L8,9.5 L11.9,9.5 L11.9,5.6 L11.9,5.6 Z" id="SVGID_1_"></path>
                                <path d="M101.9,20.6 C103.6,19.1 105.3,17.7 107,16.2 C107.6,15.7 108.2,15.2 108.8,14.6 C108.3,14 107.6,13.6 106.9,13.3 C105.6,12.8 104.3,13 103,13.7 C101.4,14.6 100.7,16.1 100.8,17.9 C100.8,18.6 101,19.3 101.4,19.9 C101.7,20.2 101.8,20.4 101.9,20.6 M103.9,22 C104.7,22.3 105.7,22.3 106.6,22.1 C107,21.9 108.2,21.4 108.6,21.5 L108.8,21.5 C109.1,21.6 109.3,21.8 109.4,22.1 C109.7,22.7 109.6,23.3 109,23.6 L108.8,23.7 C106.6,25 104.3,24.8 102.1,23.6 C101.1,23 100.3,22.2 99.7,21.2 L99.6,21 C98.2,18.6 98.4,16 100,13.7 C100.5,12.9 101.3,12.3 102.1,11.8 L102.4,11.6 C104.5,10.4 106.7,10.5 108.8,11.5 C109.9,12.1 110.9,12.9 111.5,14 L111.6,14.2 C112.1,15 111.5,15.7 110.8,16.2 L108.7,18 C106.9,19.4 105.4,20.7 103.9,22 L103.9,22 Z M120.2,11 L120.4,11 C121.1,11 121.6,11.5 121.6,12.2 C121.6,13.2 120.7,13.4 119.9,13.4 C118.9,13.4 117.9,14 117.2,14.7 C116.3,15.6 115.9,16.7 115.9,17.9 L115.9,23.5 C115.9,24.1 115.5,24.7 114.8,24.7 L114.6,24.7 C113.9,24.7 113.5,24.2 113.5,23.5 L113.5,17.6 C113.5,15.3 114.6,13.5 116.4,12.2 C117.7,11.4 118.9,11 120.2,11 L120.2,11 Z M91.6,14.9 L94.3,12.2 C94.6,12 95.5,10.9 95.9,10.9 L96.3,10.9 C96.8,11 97.2,11.3 97.2,11.9 L97.2,12.1 C97.2,12.5 96.7,12.9 96.5,13.2 C96,13.8 95.4,14.3 94.9,14.9 L92.1,17.7 L95.7,21.3 L96.7,22.3 L97.1,22.7 C97.2,22.9 97.3,23 97.3,23.2 L97.3,23.5 C97.2,24 96.8,24.4 96.3,24.4 L96.1,24.4 C95.7,24.4 95.3,24 95,23.7 C94.5,23.2 93.9,22.7 93.4,22.1 L91.6,20.4 L91.6,23.2 C91.6,23.8 91.2,24.4 90.5,24.4 L90.3,24.4 C89.6,24.4 89.2,23.9 89.2,23.2 L89.2,7.8 C89.2,7.2 89.6,6.7 90.3,6.7 L90.5,6.7 C91.2,6.7 91.6,7.2 91.6,7.8 L91.6,14.9 L91.6,14.9 Z M84.2,13.4 C83.9,13.2 83.2,13.2 82.8,13.2 C80.9,13.1 79.5,14.2 78.7,15.9 C78.4,16.5 78.3,17.1 78.3,17.8 C78.3,19.8 79.3,21.2 81.1,22 C81.7,22.3 82.6,22.4 83.3,22.4 C83.9,22.4 84.8,22 85.3,21.8 L85.8,21.8 C86.3,21.9 86.7,22.2 86.7,22.8 L86.7,23 C86.7,24.4 84.1,24.7 83.2,24.8 C79.8,25 77.2,23.1 76.2,19.9 C76,19.3 76,18.8 76,18.2 L76,17.7 C76,15.2 77.2,13.2 79.4,12 C80.4,11.4 81.5,11.1 82.7,11.1 L83.2,11.1 C84.4,11.1 85.6,11.4 86.6,12.1 L86.7,12.2 L86.8,12.3 C86.9,12.5 87,12.7 87,12.9 L87,13.1 C87,13.7 86.6,14 86,14.1 L85.9,14.1 C85.2,13.9 84.4,13.5 84.2,13.4 Z M63.2,17.7 C63.2,19.4 64.1,20.7 65.5,21.6 C66.2,22 67,22.2 67.8,22.2 C69.5,22.2 70.8,21.3 71.7,19.9 C72.1,19.2 72.3,18.4 72.3,17.6 C72.3,16 71.5,14.7 70.2,13.8 C69.5,13.3 68.6,13.1 67.8,13.1 C65.9,13.1 64.5,14.1 63.7,15.8 C63.2,16.5 63.2,17.1 63.2,17.7 L63.2,17.7 Z M67.4,10.9 L67.7,10.9 C70.4,10.9 72.4,12.2 73.7,14.5 C74.2,15.4 74.5,16.4 74.5,17.5 L74.5,18 C74.5,20.5 73.3,22.5 71.1,23.7 C70.1,24.3 69,24.6 67.8,24.6 L67.3,24.6 C64.8,24.6 62.8,23.4 61.6,21.2 C61,20.2 60.7,19.1 60.7,17.9 L60.7,17.4 C60.7,14.9 61.9,12.9 64.1,11.7 C65.2,11.2 66.2,10.9 67.4,10.9 L67.4,10.9 Z M48,17.7 C48,19.5 48.9,20.9 50.5,21.7 C51.1,22 51.8,22.2 52.6,22.2 C54.4,22.2 55.7,21.4 56.6,19.9 C57,19.2 57.2,18.4 57.2,17.6 C57.2,16 56.5,14.8 55.2,13.9 C54.4,13.4 53.6,13.1 52.6,13.1 C50.7,13.1 49.3,14.1 48.5,15.8 C48.2,16.5 48,17.1 48,17.7 L48,17.7 Z M57.2,12.6 L57.2,7.7 C57.2,7.1 57.6,6.5 58.3,6.5 L58.5,6.5 C59.2,6.5 59.6,7 59.6,7.7 L59.6,18 C59.6,20.5 58.4,22.5 56.2,23.7 C55.2,24.3 54.1,24.6 52.9,24.6 L52.4,24.6 C49.9,24.6 47.9,23.4 46.7,21.2 C46.1,20.2 45.8,19.1 45.8,17.9 L45.8,17.4 C45.8,14.9 47,12.9 49.2,11.7 C50.2,11.1 51.3,10.8 52.5,10.8 L53,10.8 C54.5,10.9 56,11.5 57.2,12.6 L57.2,12.6 Z" id="docker_2_"></path>
                            </g>
                        </g>
                    </g>
                </g>
            </g>
        </g>
    </g>
</svg>