<?xml version="1.0" encoding="UTF-8"?>
<svg width="59px" height="50px" viewBox="0 0 59 50" version="1.1" xmlns="http://www.w3.org/2000/svg" xmlns:xlink="http://www.w3.org/1999/xlink">
    <!-- Generator: Sketch 61 (89581) - https://sketch.com -->
    <title>logo</title>
    <desc>Created with Sketch.</desc>
    <g id="🔪🖥-Testimonial" stroke="none" stroke-width="1" fill="none" fill-rule="evenodd">
        <g id="Testimonial-|-Logos-switch" transform="translate(-1133.000000, -823.000000)" fill="#000000" fill-rule="nonzero">
            <g id="Group-4" transform="translate(270.000000, 124.000000)">
                <g id="logos" transform="translate(0.000000, 699.000000)">
                    <g id="logo" transform="translate(863.000000, 0.000000)">
                        <path d="M52.456401,8.77827306 C50.1107895,8.77827306 48.0139551,9.95107877 46.7345307,11.7280571 L38.0984159,23.8115099 C37.7785598,24.2735243 37.2454663,24.5578408 36.6768332,24.5578408 C35.7172649,24.5578408 34.9353944,23.7759704 34.9353944,22.816402 C34.9353944,22.4610064 35.0420131,22.1056107 35.2197109,21.8568337 L42.5053222,10.9461866 C43.2516531,9.84446007 43.6781279,8.49395652 43.6781279,7.03683427 C43.6781279,3.16302147 40.550646,0.035539567 36.6768332,0.035539567 L0,0.035539567 L0,7.03683427 L31.4169773,7.03683427 C31.4169773,8.95597089 29.8532363,10.5552514 27.8985601,10.5552514 L0,10.5552514 C0,13.0430211 0.533093506,15.4241721 1.45712225,17.5565461 L24.380143,17.5565461 C24.380143,19.4756827 22.816402,21.0749633 20.8617259,21.0749633 L3.51841714,21.0749633 C6.71697817,25.3397113 11.7991363,28.076258 17.5565461,28.076258 L26.1926609,28.076258 C27.1522292,28.076258 27.9340997,28.8581284 27.9340997,29.8176967 C27.9340997,30.7772651 27.1522292,31.5591355 26.1926609,31.5591355 L17.5210066,31.5591355 L5.79294943,49.0801421 L27.010071,49.0801421 C36.7123728,49.0801421 44.9575523,42.7540992 47.8362572,34.0113657 L51.7811492,22.0345316 C53.0605736,18.1607188 55.406185,14.7489203 58.4625878,12.1545319 C57.2542425,10.1287766 55.0152498,8.77827306 52.456401,8.77827306 Z M52.456401,13.5761146 C51.7456096,13.5761146 51.141437,12.971942 51.141437,12.2611506 C51.141437,11.5503593 51.7456096,10.9461866 52.456401,10.9461866 C53.1671923,10.9461866 53.7713649,11.5503593 53.7713649,12.2611506 C53.7713649,13.0074815 53.1671923,13.5761146 52.456401,13.5761146 Z" id="Shape"></path>
                    </g>
                </g>
            </g>
        </g>
    </g>
</svg>