<?xml version="1.0" encoding="UTF-8"?>
<svg width="46px" height="49px" viewBox="0 0 46 49" version="1.1" xmlns="http://www.w3.org/2000/svg" xmlns:xlink="http://www.w3.org/1999/xlink">
    <!-- Generator: Sketch 61 (89581) - https://sketch.com -->
    <title>deliveroo</title>
    <desc>Created with Sketch.</desc>
    <g id="🔪🖥-Testimonial" stroke="none" stroke-width="1" fill="none" fill-rule="evenodd">
        <g id="Testimonial-|-Logos-switch" transform="translate(-270.000000, -823.000000)" fill="#000000" fill-rule="nonzero">
            <g id="Group-4" transform="translate(270.000000, 124.000000)">
                <g id="logos" transform="translate(0.000000, 699.000000)">
                    <g id="deliveroo">
                        <path d="M32.8614966,0.000629857335 L30.5242083,21.5808018 L26.5366139,3.38611303 L14.036642,5.96600869 L18.0216538,24.158808 L0,27.8749663 L3.18310236,42.4070347 L34.8746635,48.9411747 L42.1228394,33.1493915 L45.5732448,1.29750611 L32.8614966,0 L32.8614966,0.000629857335 Z M22.8473144,31.306429 C22.1932611,31.8871574 21.3287227,31.8336196 20.4131774,31.5375866 C19.4976319,31.2428135 19.0908662,30.1689067 19.4369398,28.8707706 C19.6952037,27.9070889 20.9116266,27.7622217 21.519838,27.752144 C21.7509843,27.7483649 21.9782564,27.7937146 22.1880959,27.8856738 C22.6181053,28.074631 23.3464094,28.4777397 23.4942655,29.0924804 C23.7073332,29.9793196 23.5020133,30.723811 22.8486057,31.3045394 L22.8473144,31.3045394 L22.8473144,31.3057992 L22.8473144,31.306429 Z M32.0221389,32.3079021 C31.5469333,33.107821 30.3008101,33.213637 29.0747023,32.6316489 C28.2482579,32.2386178 28.2547144,31.2384045 28.3451068,30.6287025 C28.3935313,30.2961378 28.5304112,29.9830987 28.7454159,29.7191885 C29.0404824,29.3563907 29.5331207,28.8833679 30.1025926,28.8688812 C31.0284686,28.8449465 31.8252127,29.2480552 32.2752374,29.9774301 C32.7271993,30.7042854 32.5012184,31.5060937 32.0253672,32.3079021 L32.0227845,32.3079021 L32.0221389,32.3079021 Z" id="Shape"></path>
                    </g>
                </g>
            </g>
        </g>
    </g>
</svg>