<?xml version="1.0" encoding="UTF-8"?>
<svg width="28px" height="50px" viewBox="0 0 28 50" version="1.1" xmlns="http://www.w3.org/2000/svg" xmlns:xlink="http://www.w3.org/1999/xlink">
    <!-- Generator: Sketch 61 (89581) - https://sketch.com -->
    <title>netflix-seeklogo.com</title>
    <desc>Created with Sketch.</desc>
    <g id="🔪🖥-Testimonial" stroke="none" stroke-width="1" fill="none" fill-rule="evenodd">
        <g id="Testimonial-|-Logos-switch" transform="translate(-721.000000, -823.000000)" fill="#000000" fill-rule="nonzero">
            <g id="Group-4" transform="translate(270.000000, 124.000000)">
                <g id="logos" transform="translate(0.000000, 699.000000)">
                    <g id="netflix-seeklogo.com" transform="translate(451.000000, 0.000000)">
                        <path d="M17.6896866,0.14572955 L17.6702777,11.0146904 L17.6508688,21.8836513 L16.7580613,19.3604997 L16.7580613,19.3540301 L15.5999994,43.5504073 C16.7386525,46.7593386 17.3467967,48.4737878 17.3532663,48.4802575 C17.359736,48.4867271 18.0066979,48.5255448 18.7895219,48.5643625 C21.1574026,48.6808157 24.0946099,48.9331308 26.3266287,49.2113245 C26.8441983,49.2760207 27.2841324,49.3083688 27.3164805,49.2824903 C27.3488286,49.2566118 27.3552982,38.1935623 27.3488286,24.6914662 L27.3294197,0.14572955 L17.6896866,0.14572955 Z" id="path5715" opacity="0.7"></path>
                        <path d="M0.112979131,0.113381452 L0.112979131,24.6849966 C0.112979131,38.2000319 0.12591837,49.269551 0.145327229,49.2889599 C0.164736088,49.3083688 0.999317014,49.2242637 2.00857767,49.1142802 C3.01783832,49.0042966 4.40880653,48.861965 5.10105583,48.8037384 C6.16207344,48.7131638 9.34512628,48.5126055 9.70742497,48.5061359 C9.8174085,48.5061359 9.82387812,47.9562183 9.83681736,38.096518 L9.85622622,27.6869001 L10.626111,29.8606923 C10.7425641,30.1971125 10.7813818,30.3006264 10.897835,30.630577 L12.0558969,6.4406694 C11.8100513,5.74842011 11.9394437,6.1107188 11.6612501,5.32142522 C10.7166856,2.64947233 9.9144528,0.391575094 9.8821047,0.28806118 L9.8174085,0.106911832 L0.112979131,0.106911832 L0.112979131,0.113381452 Z" id="path5717" opacity="0.7"></path>
                        <path d="M0.112979131,0.113381452 L9.8497566,27.706309 L9.8497566,27.6933697 L10.6196413,29.8671619 C14.8960599,41.9718202 17.1927748,48.4673182 17.2057141,48.4802575 C17.2121837,48.4867271 17.8591456,48.5255448 18.6419696,48.5643625 C21.0098504,48.6808157 23.9470577,48.9331308 26.1790764,49.2113245 C26.6901764,49.2760207 27.1365801,49.3083688 27.1624586,49.2824903 L17.5097862,21.8771817 L17.5097862,21.8836513 L16.6169787,19.3604997 C15.74358,16.8955746 15.1613143,15.2458217 11.6483108,5.32142522 C10.7037464,2.64947233 9.90151356,0.391575094 9.86916546,0.28806118 L9.80446927,0.106911832 L4.9587242,0.106911832 L0.112979131,0.113381452 Z" id="path5721"></path>
                    </g>
                </g>
            </g>
        </g>
    </g>
</svg>