<?xml version="1.0" encoding="UTF-8"?>
<svg width="69px" height="50px" viewBox="0 0 69 50" version="1.1" xmlns="http://www.w3.org/2000/svg" xmlns:xlink="http://www.w3.org/1999/xlink">
    <!-- Generator: Sketch 61 (89581) - https://sketch.com -->
    <title>Group</title>
    <desc>Created with Sketch.</desc>
    <g id="🔪🖥-Testimonial" stroke="none" stroke-width="1" fill="none" fill-rule="evenodd">
        <g id="Testimonial-|-Logos-switch" transform="translate(-484.000000, -823.000000)" fill="#000000" fill-rule="nonzero">
            <g id="Group-4" transform="translate(270.000000, 124.000000)">
                <g id="logos" transform="translate(0.000000, 699.000000)">
                    <g id="Group" transform="translate(214.000000, 0.000000)">
                        <path d="M53.7239922,9.49857002 L54.7105478,10.0674885 C54.8911996,10.1740885 58.9206217,12.5502958 59.6316735,17.4240438 C60.5882809,17.2626512 61.5563475,17.1794512 62.5264364,17.1752142 C66.2003325,17.1752142 67.9424288,18.4906215 68.129051,18.6388215 L68.129051,18.6388215 L68.8076509,19.1750956 L68.5261769,19.9987178 C68.0773399,21.1348214 67.3856436,22.1591251 66.4996214,22.9999843 C65.1663992,24.3183769 62.7486882,25.8916657 58.8171032,25.8916657 L58.8171032,25.8916657 L58.1830884,25.8916657 C56.5921773,29.9150211 54.4529552,34.4421987 50.8620664,38.5071541 C48.7141776,40.9378652 46.1879407,43.0057318 43.381,44.6312132 C39.9744224,46.5604131 36.2692299,47.9062501 32.4187263,48.6132575 C29.6487635,49.1285389 26.8366229,49.3835315 24.0191859,49.3748954 C17.7825565,49.3748954 12.2806678,48.1895538 8.8942161,46.1156205 C5.87214955,44.2698132 3.54929037,41.253717 1.98794228,37.1591023 C0.622749738,33.4301247 -0.0499761628,29.4831323 0.00289050194,25.5124509 C0.00934235355,24.3286806 0.96999417,23.3719769 2.15386079,23.3703399 L2.15386079,23.3703399 L47.4785036,23.3703399 C48.0324961,23.3496362 50.7701035,23.1155399 52.4766664,22.1645177 C51.063422,19.93054 50.6634072,17.3174438 51.3212071,14.5353476 C51.6694145,13.0790588 52.2625997,11.6925848 53.0751478,10.4348589 L53.0751478,10.4348589 L53.7239922,9.49857002 Z M12.4317567,15.5693772 C12.7245937,15.5710142 12.9607122,15.8097328 12.9590837,16.1026661 L12.9590837,16.1026661 L12.9590837,21.5127844 L12.9505413,21.6080962 C12.905647,21.8554601 12.6891567,22.0430881 12.4287715,22.0430881 L12.4287715,22.0430881 L6.35507545,22.0430881 C6.06214213,22.0430881 5.82477177,21.8056214 5.82477177,21.5126881 L5.82477177,21.5126881 L5.82477177,16.0996809 C5.82477177,15.8068439 6.06214213,15.5693772 6.35507545,15.5693772 L6.35507545,15.5693772 Z M20.8015416,15.5693772 C21.0944749,15.5710142 21.3305934,15.8097328 21.3289648,16.1026661 L21.3289648,16.1026661 L21.3289648,21.5127844 L21.3204225,21.6080962 C21.2755281,21.8554601 21.0590379,22.0430881 20.7986527,22.0430881 L20.7986527,22.0430881 L14.7249566,22.0430881 C14.4315418,22.0430881 14.1933048,21.8061029 14.1915715,21.5126881 L14.1915715,21.5126881 L14.1915715,16.1026661 C14.1915715,15.8080957 14.43029,15.5693772 14.7248603,15.5693772 L14.7248603,15.5693772 Z M29.2987265,15.5693772 C29.5916598,15.5710142 29.8277783,15.8097328 29.8261497,16.1026661 L29.8261497,16.1026661 L29.8261497,21.5127844 L29.8176073,21.6080962 C29.772713,21.8554601 29.5562228,22.0430881 29.2958376,22.0430881 L29.2958376,22.0430881 L23.2221415,22.0430881 C22.9293045,22.0430881 22.6918378,21.8056214 22.6917415,21.5126881 L22.6917415,21.5126881 L22.6917415,16.0996809 C22.6917415,15.8068439 22.9291119,15.5693772 23.2220452,15.5693772 L23.2220452,15.5693772 Z M37.6923928,15.5693772 L37.7789055,15.5763559 C38.0323197,15.6176794 38.2256817,15.8375528 38.2256817,16.1026661 L38.2256817,16.1026661 L38.2256817,21.5127844 C38.2240447,21.8061992 37.9858076,22.0430881 37.6923928,22.0430881 L37.6923928,22.0430881 L31.6186967,22.0430881 C31.3258597,22.0430881 31.0883931,21.8056214 31.0883931,21.5126881 L31.0883931,21.5126881 L31.0883931,16.0996809 C31.0883931,15.8068439 31.3257634,15.5693772 31.6186967,15.5693772 L31.6186967,15.5693772 L37.6923928,15.5693772 Z M46.1629999,15.5693772 L46.2495126,15.5763559 C46.5029268,15.6176794 46.6962888,15.8375528 46.6962888,16.1026661 L46.6962888,16.1026661 L46.6962888,21.5127844 C46.6946518,21.8061992 46.4564147,22.0430881 46.1629999,22.0430881 L46.1629999,22.0430881 L40.0893038,22.0430881 C39.7964668,22.0430881 39.5590002,21.8056214 39.5590002,21.5126881 L39.5590002,21.5126881 L39.5590002,16.0996809 C39.5590002,15.8068439 39.7964668,15.5693772 40.0893038,15.5693772 L40.0893038,15.5693772 L46.1629999,15.5693772 Z M20.7986527,7.78622934 L20.8939645,7.79477145 C21.1413284,7.83966428 21.3289564,8.05614785 21.3289564,8.31653303 L21.3289564,8.31653303 L21.3289564,13.7265551 C21.3289564,14.0198736 21.0919712,14.2582069 20.7986527,14.2598439 L20.7986527,14.2598439 L14.7249566,14.2598439 C14.4310603,14.2582069 14.1933048,14.0204513 14.1916678,13.7265551 L14.1916678,13.7265551 L14.1916678,8.31653303 C14.1933048,8.02311822 14.4316381,7.78622934 14.7249566,7.78622934 L14.7249566,7.78622934 L20.7986527,7.78622934 Z M29.2958376,7.78622934 L29.3911494,7.79477145 C29.6385133,7.83966428 29.8261413,8.05614785 29.8261413,8.31653303 L29.8261413,8.31653303 L29.8261413,13.7265551 C29.8261413,14.0198736 29.5891561,14.2582069 29.2958376,14.2598439 L29.2958376,14.2598439 L23.2221415,14.2598439 C22.928823,14.2582069 22.6918378,14.0198736 22.6918378,13.7265551 L22.6918378,13.7265551 L22.6918378,8.31653303 L22.7003799,8.22122123 C22.7452727,7.97385732 22.9617563,7.78622934 23.2221415,7.78622934 L23.2221415,7.78622934 L29.2958376,7.78622934 Z M37.6923928,7.78622934 C37.9858076,7.78622934 38.2240447,8.02311822 38.2256817,8.31653303 L38.2256817,8.31653303 L38.2256817,13.7265551 C38.2240447,14.0204513 37.9862891,14.2582069 37.6923928,14.2598439 L37.6923928,14.2598439 L31.6186967,14.2598439 C31.3253782,14.2582069 31.0883931,14.0198736 31.0883931,13.7265551 L31.0883931,13.7265551 L31.0883931,8.31653303 L31.0969352,8.22122123 C31.141828,7.97385732 31.3583116,7.78622934 31.6186967,7.78622934 L31.6186967,7.78622934 Z M37.6923928,2.94431146e-13 C37.9858076,2.94431146e-13 38.2240447,0.23688888 38.2256817,0.530303684 L38.2256817,0.530303684 L38.2256817,5.94340719 C38.2240447,6.2367257 37.9858076,6.47371087 37.6923928,6.47371087 L37.6923928,6.47371087 L31.6186967,6.47371087 C31.3258597,6.47371087 31.0883931,6.23624422 31.0883931,5.94331089 L31.0883931,5.94331089 L31.0883931,0.530303684 L31.0969352,0.434966524 C31.141828,0.187551891 31.3583116,2.94431146e-13 31.6186967,2.94431146e-13 L31.6186967,2.94431146e-13 Z" id="Combined-Shape"></path>
                    </g>
                </g>
            </g>
        </g>
    </g>
</svg>