<svg width="1024" height="768" xmlns="http://www.w3.org/2000/svg"><g fill="none" fill-rule="evenodd"><path d="M720.312 614.793c4.753 16.096 1.722 34.877-9.164 48.117-7.031 8.551-23.751 16.198-33.136 7.295-4.197-3.982-5.972-17.611-7.765-23.97-1.65-5.849-4.407-16.68-3.182-21.587 1.784-7.151 16.036-5.498 22.698-6.124 10.223-.96 20.372-2.421 30.549-3.731zm134.488 8.176c2.238 4.926 5.808 8.19 7.33 13.657.995 3.57 1.594 7.148 1.987 10.812.478 4.438.804 4.268-2.258 6.343-4.672 3.167-16.624 2.923-22.309 3.841-7.42 1.198-14.804 2.609-22.228 3.803 1.799-6.909.856-14.347 2.716-21.394 1.808-6.847 4.955-13.607 9.397-19.232 3.305-4.186 8.112-9.2 14.055-9.226 7.66-.033 8.871 6.03 11.31 11.396zM383.679 474.921c1.137 14.814-.974 30.589-9.399 43.319-3.568 5.391-8.764 8.29-12.982 12.933-4.88 5.372-7.528 12.012-15.239 14.31-4.975 1.485-10.814.46-15.987 1.128-8.587 1.11-11.122-.093-18.363-4.538-5.2-3.194-11.195-2.595-16.679-6.096-6.576-4.198-12.302-10.184-18.53-14.938 34.955-17.124 70.993-31.706 107.179-46.118zm93.965 8.785c13.378 6.295 20.452 17.032 24.275 30.892-36.902 8.435-72.817 18.754-109.064 30.39 10.121-25.746 21.488-49.32 49.176-61.296 5.524-2.39 11.2-6.193 17.487-6.102 6.262.09 12.635 3.533 18.126 6.116zm336.58 38.167c19.018 10.01 9.35 42 2.705 56.201-8.458-6.221-17.325-12.28-25.584-18.338-9.027-6.622-17.143-15.145-25.378-22.688 4.36-2.274 7.194-5.891 11.247-8.489 4.013-2.571 7.994-2.755 12.49-3.76 8.607-1.925 15.573-7.637 24.52-2.926zm-148.41-72.082c1.519 1.947 3.333 3.783 4.763 5.784 3.474 4.86 6.478 9.8 10.506 14.308 7.135 7.988 17.523 18.516 29.213 19.245l.34 3.41c-3.448-.087-5.487-3.056-8.478-3.358-2.348-.236-5.635 1.558-8.514 1.304-8.903-.784-17.65-1.232-26.688-.992-17.839.473-35.374 3.317-52.91 5.584 3.35-11.94 9.603-24.17 19.566-32.157 3.444-2.762 6.744-6.558 10.632-8.76 2.34-1.324 4.819-1.425 7.228-2.46 2.788-1.198 6.367-5.195 9.246-5.578 3.01-.401 3.022 1.007 5.097 3.67zm142.951 1.088c9.358 7.512 16.548 17.043 24.243 26.065 6.965 8.166 16.404 19.816 18.88 30.329-12.351 5.81-33.535.492-41.503-10.257-9.825-13.256-5.01-31.706-1.62-46.137zm-214.207-42.833c-1.843 12.457-7.83 26.337-16.817 35.638-3.875 4.011-7.27 9.24-11.672 12.748-5.749 4.58-10.376 2.233-17.048 2.944-7.166.762-11.81 5.438-19.447 4.169-5.44-.905-10.45-3.917-15.563-4.83-5.585-1-10.46-.408-16.012-3.173-6.867-3.418-12.346-10.145-17.686-15.253 2.811-2.226 8.487-2.386 12.083-3.589 4.75-1.59 9.494-3.165 14.27-4.688 9.866-3.145 19.704-6.357 29.589-9.449 18.827-5.89 38.706-11.483 58.303-14.517z" fill="#FF5678"/><g fill="#000"><path d="M889.924 100.492l-.615 4.13c6.011 1.036 6.188-2.594.615-4.13zm-26.157-7.12c-3.223-1.124-8.494.523-5.96 4.372 3.577 5.435 5.206-1.66 5.96-4.373zM603.869 243.877c.485-.484-5.227-11.398-5.964-13.229-3.687 2.104-3.937 1.595-2.435 5.113 1.297 3.034 5.81 6.115 8.4 8.116zm-336.8 2.994c-1.762-.154-5.268-1.203-6.763-.591-2.089.856-1.527 2.838-1.78 5.73 6.11-.284 6.964.525 8.542-5.139zm-7.923-5.992l8.958 1.608c.638-3.42 2.326-9.076-3.97-7.011-.592.194-4.23 4.29-4.988 5.403zm351.783 7.032c-3.176 3.155 11.566 9.836 13.086 7.696 3.317-4.668-10.942-6.997-13.086-7.696zm72.922-37.3l5.35-.526c-.617-2.601-2.494-12.188-6.395-11.673-3.876.51.495 10.17 1.045 12.199zm6.505 15.651c.05-2.16.935-6.95.09-9.03-.575-1.415-2.939-5.71-6.336-2.92-.723.595-1.054 9.245-.834 9.525.926 1.177 5.761 1.973 7.08 2.425zm-18.432 27.743c-3.66-2.798-11.618-6.926-15.142-.6-4.913 8.819 11.966 2.925 15.142.6zm-20.922.735c-4.806.9-9.661.783-14.526.443-5.45-.382-6.743-2.046-8.33 3.174 5.846 2.12 18.297 3.589 24.212 1.573-.45-1.73-.904-3.46-1.356-5.19zm30.312-23.959c-1.683 3.448-5.328 7.964-6.31 11.56-.722 2.653-1.006 1.328-.4 3.386.215.734 3.174 3.808 3.692 4.551 3.593-2.72 7.926-5.5 9.766-9.69 2.946-6.708-.842-7.246-6.748-9.807zm-81.753-14.119c-12.22 3.802-27.23 7.525-40.164 6.393-.17 1.107 21.938 7.55 24.58 7.085 2.702-.475 2.917-4.239 6.153-6.248 3.568-2.215 6.515-.897 10.46-1.242l-1.029-5.988zm40.226 51.21c-11.248-.72-21.297-3.407-31.247-8.525-5.715-2.939-9.819-7.202-13.639-12.12-2.958-3.81-2.353-3.497-6.998-4.789-3.432-.953-7.653-.567-11.177-1.01-11.798-1.483-23.557-5.058-34.779-8.781-12.593-4.176-23.44-10.066-37.274-9.722-23.752.591-43.017 18.567-67.794 11.017-9.831-2.995-20.013-6.97-27.964-13.392-10.339-8.352-16.618-13.3-31.188-10.341-11.73 2.38-20.731 8.597-30.781 14.326-11.455 6.53-23.955 10.442-36.727 13.89-5.003 1.351-9.637 2.137-14.88 2.4-3.12.157-17.899-2.092-19.725-.504-1.766 1.536-2.57 12.135-2.381 14.068.314 3.228-1.11 3.561 2.338 4.92 2.395.945 9.79-.01 12.758.328 23.881 2.728 48.347 3.545 71.846 7.66 22.085 3.867 44.25 6.996 66.086 11.531 28.406 5.9 57.336 8.593 85.757 14.307 13.738 2.761 27.593 6.651 41.17 9.593 12.363 2.677 24.785 5.162 37.219 7.588-.456-1.708-3.04-7.932 1.085-7.358 2.614.363 7.001 9.39 8.38 11.42 6.346 9.351 13.105 16.449 21.739 23.89 8.701 7.5 17.463 14.922 26.295 22.283 7.215 6.013 22.715 14.982 22.315 25.483-4.395.836-13.12-6.95-16.411-9.058-6.658-4.27-13.042-8.922-19.25-13.778-5.84 8.545 8.003 18.45 9.575 26.532-3.56.015-9.505-9.782-11.666-12.378-5.74 5.349-12.18 10.066-16.312 16.785 46.308-1.976 53.9 55.457 87.327 74.926 7.406 4.312 16.685 6.095 25.152 4.2 8.82-1.972 17.297-4.757 25.057-9.74 17.33-11.128 30.03-32.523 36.812-50.896 3.745-10.147 7.279-19.975 8.974-30.652 1.876-11.823.112-23.84-1.416-35.621-2.72-20.992-13.878-42.184-29.68-57.199-7.083-6.73-14.82-12.62-21.305-19.965-2.263-2.564-7.428-12.382-10.268-12.997-5.233-1.134-7.934 6.21-11.555.199-3.546-5.884 3.218-8.18 7.336-10.921 4.442-2.96 8.752-6.07 13.094-9.16 8.585-6.109 17.084-12.116 25.33-18.62 40.207-31.712 75.751-67.067 111.759-103.102-6.742-1.595-16.329-6.181-23.183-4.958-6.856 1.225-12.947 6.076-20.176 6.88-7.042.783-13.88-.737-20.41-2.95-7.697-2.61-12.908-5.969-19.366.543-10.375 10.464-16.086 25.003-26.978 34.904-11.008 10.006-26.416 15.85-40.749 18.868-13.27 2.794-31.674 1.474-41.399 11.92-2.189 2.351-4.141 4.024-4.266 7.537-.22 6.247 1.197 1.77 3.205 5.639 3.272 6.298 4.55 14.156 5.29 21.116 1.491 14.088-.393 29.519-11.68 39.229-12.159 10.457-27.197 14.86-43.275 14.555zm-.643-22.817c8.232 4.2 24.878-1.274 31.457-6.395 8.952-6.97 9.659-19.1 8.225-29.239l-12.49 3.023-5.326 1.289c.162 1.469-.08 2.84-.723 4.113-3.922 5.026-5.823 2.529-10.082-1.83-9.116-9.331-17.205-19.85-20.922-32.254-4.165 4.864-8.868 8.002-15.542 7.326-2.924-.296-14.137-3.786-11.242-8.903.92-1.627 10.038.422 13.093.268 6.38-.323 9.38-.2 11.715-6.2 1.944-4.994 1.257-7.047-4.74-7.962-7.614-1.163-7.832 3.358-13.257 5.478-13.775 5.385-4.369-16.056-6.335-22.095 6.771-2.004 13.92-3.396 19.907-7.215-6.634.76-12.943 2.977-19.368 4.59.547-7.907 16.235-9.59 22.102-12.074-6.34-.843-12.364 3.33-18.727 3.067-5.945-.245-14.282-2.743-20.018-4.645-5.898-1.955-10.524-7.404-16.215-2.661-3.73 3.11-8.736 11.58-9.931 16.088 3.712-.535 12.456-1.257 13.487 2.956 1.325 5.411-9.6 2.262-12.966 3.148-5.111 1.346-3.544 2.831-5.398 7.881-1.826 4.973-5.104 8.952-10.29 11.014 5.765 3.101 7.352 3.045 6.19 8.782-1.142 5.641-.388 11.978.17 18.256 3.43-1.404 7.125-1.857 10.807-2.225.717 4.554-6.439 6.481-10.125 6.747 1.935 5.994 2.007 5.805 8.627 5.787 3.708-.011 7.428-.224 11.127-.403 7.531-.366 14.84-1.71 22.268-2.903 2.835-.457 6.85-2.005 9.673-1.694 5.174.568 4.168 1.127 3.313 5.535-1.158 5.976.147 10.5 1.648 16.985-8.855-3.018-1.743 6.217 2.435 8.118 8.229 3.742 18.301 7.748 27.453 8.247zm-484.247 361.17c6.268 3.126 12.189 6.072 17.9 10.073 5.68 3.98 11.74 10.675 18.933 11.96 8.603 1.54 10.674-2.925 12.803-9.517 2.392-7.414 4.582-10.78 11.382-14.846 12.034-7.196 26.13-11.938 39.281-17.118 5.03-1.98 5.41-1.601 3.92-6.698-.898-3.077-1.995-6.1-3.173-9.09-2.177-5.514-4.562-11.355-8.205-16.167-20.854 13.691-45.726 29.561-71.398 32.854-10.424 1.337-20.697 3.682-30.921 4.57-5.062.442-9.21 1.723-13.669 3.9-4.993 2.435-13.252 3.294-16.848 7.3 13.499-.09 26.648 1.632 39.995 2.778zM666.34 624.17c-4.18 1.721 1.465 11.596 2.67 15.708 1.812 6.177 3.525 12.38 5.352 18.553 3.868 13.07 7.513 26.192 11.183 39.313 24.188-13.127 50.069-20.639 76.932-26.919 26.763-6.257 54.1-10.71 81.446-14.992 14.943-2.342 30.617-5.539 44.454-11.627 8.603-3.785 6.921-7.279 6.78-15.66-.132-7.868-1.369-15.888-2.575-23.679-2.278-14.72-4.685-30.767-10.63-44.597-5.793-13.475-13.544-26.432-20.996-39.124-8.844-15.061-16.376-31.279-27.916-44.65-12.026-13.934-24.931-26.573-37.975-39.544-7.808 14.806-18.95 32.764-33.35 42.085-15.844 10.252-40.768 15.523-58.785 6.942-18.147-8.643-28.874-26.372-40.173-41.82-10.89-14.89-20.353-30.995-39.652-36.307-20.413-5.619-41.905 2.03-61.806 6.82-22.691 5.464-44.893 13.302-66.948 20.706-38.29 12.857-76.275 24.623-113.597 39.944-45.936 18.857-91.933 37.566-136.331 59.641 9.605 13.735 17.05 26.25 22.476 42.047 4.225 12.299 6.806 25.323 7.794 38.624 5.168-5.142 9.116-11.257 14.332-16.461 5.9-5.888 12.827-10.419 19.768-15.034 12.565-8.356 25.443-15.92 39.302-22.275 31.458-14.425 64.886-24.36 98.146-34.64 7.535-2.33 16.404-5.036 24.214-6.326 6.636-1.095 12.53-3.018 19.286-4.616 15.32-3.62 30.809-6.94 46.26-9.562 29.69-5.037 59.983-10.405 90.084-13.886 20.41-2.362 41.71-6.19 62.68-4.146 3.544.346 7.014 1.045 10.583.935.995-.031 2.178-1.503 3.208-1.402 1.98.196 4.102 2.41 6.123 3.072 4.563 1.491 11.19.565 13.676 4.322 1.991 3.009 1.262 5.392-1.703 7.375 3.568 4.531 10.55 8.706 15.333 12.269 4.298 3.203 8.352 6.65 12.687 9.737 4.657 3.317 10.3 6.448 15.176 9.833 6.362 4.415 11.797 10.07 17.806 15.024 10.785 8.89 21.608 16.633 32.973 24.966 6.12 4.488 11.954 8.714 18.603 12.386 3.636 2.008 11.876 7.508 7.575 12.502-4.292 4.983-12.899-2.385-17.587-2.915-5.396-.612-12.673 2.758-18.055 3.55-14.242 2.091-28.53 3.931-42.776 6.192-16.262 2.58-32.354 6.064-48.692 8.208-8.438 1.107-16.874 2.176-25.358 2.94-4.375.393-10.56-.198-14.671 1.198-3.11-.904-4.465-.021-4.06 2.651-.763 1.248-1.85 2.127-3.266 2.64zM215.711 252.043c8.898-.057 17.724.456 26.632.38 3.43-.03 6.38.662 7.769-1.706 1.696-2.894.914-10.453 1.204-13.766-10.402.833-19.947 1.091-30.331.182-11.122-.973-21.917-4.146-33.08-4.833 2.378.902 5.101 5.814 3.55 8.204-1.545 2.379-4.068.231-6.514-.846-9.444-4.16-17.31-10.304-27.92-7.617 9.768 5.037 19.037 13.115 29.237 16.123 9.619 2.836 19.322 3.803 29.453 3.88zM876.547 88.27c4.331.808 12.78 5.13 16.665 2.953 4.744-2.66 3.747-13.443 3.92-17.64.53-12.901 1.512-30.652-8.635-41.11-1.84 12.397 2.139 25.359 1.854 37.892-.215 9.405-3.768 4.27-5.025-2.387-1.15-6.09-1.024-12.098-2.592-18.157-2.878 4.906-3.548 11.565-5.579 16.982-2.56 6.83-6.182 13.027-9.832 19.36 3.085.67 6.154 1.378 9.224 2.107zM257.96 257.777c-.053 3.612-.568 7.007 3.954 7.339 5.987.438 4.023-5.661 3.643-9.51-2.152.291-7.086-.309-7.597 2.17zM874.045 94.163c-3.754-.464-4.324-1.312-6.704 1.311-1.512 1.665-1.659 4.686-.347 5.734 5.688 4.55 6.585-4.49 7.05-7.045zm3.51 8.376c2.92.574 5.78 2.13 7.422-.767 2.407-4.247-3.347-4.602-6.499-5.863l-.924 6.63zm-183.577 399.6c-32.302-.763-64.124 4.298-95.83 9.87-28.045 4.926-55.884 9.032-83.313 15.215-55.277 12.462-110.647 26.407-161.955 50.394-12.465 5.827-24.913 11.651-36.403 18.74-6.175 3.808-12.465 7.574-18.312 11.87-3.216 2.362-6.544 4.693-9.56 7.282-2.76 2.372-4.328 5.644-6.809 7.965-1.168 1.092-6.2 5.128-7.692 5.582-3.206.976-1.936 1.054-5.177-1.162-6.774-4.63-8.132-10.802-10.174-18.226-1.437-5.227-.334-6.958-5.055-6.78-2.402.09-6.018 2.532-8.244 3.456-7.19 2.985-14.96 5.363-21.862 8.924-5.579 2.878-10.043 6.58-12.433 12.28-2.822 6.73-4.462 12.225-13.024 12.98-15.272 1.346-24.047-13.878-37.106-19.001-13.967-5.48-31.792-4.402-46.54-4.578-5.37-.065-11.219.452-16.342 1.176-7.239 1.023-15.803 4.954-23.316 2.455-8.647-2.876-8.517-15.16-2.787-20.505 5.99-5.588 14.879-6.354 22.54-8.209 15.49-3.749 29.578-12.295 45.389-14.92 15.727-2.611 32.39-3.179 47.723-7.937 7.813-2.426 15.404-4.318 22.828-7.73 9.25-4.252 19.21-7.018 28.347-11.197-3.144-5.522-3.995-10.647-4.187-16.834-.127-4.129-.799-4.132 2.068-5.862l1.704.884c1.801 1.28 3.084.695 3.852-1.754 12.68-7.69 24.4-15.953 37.93-22.633 22.693-11.205 46.716-20.256 69.402-30.929 43.101-20.276 91.106-31.975 136.449-46.83 27.43-8.985 55.515-16.346 83.62-22.973a190.804 190.804 0 0114.845-2.895c8.483-1.306 6.477-1.384 10.756-7.909 5.49-8.373 14.205-17.306 23.05-22.494 5.455-3.2 7.782-2.72 7.612-9.72-.13-5.35-1.598-5.296-5.973-8.877-4.948-4.052-9.544-8.547-13.722-13.325-4.77-5.452-6.906-11.632-10.896-17.236-4.824-6.774-19.743-5.624-28.094-6.804-13.08-1.846-26.377-3.167-39.261-6.019-26.02-5.758-52.174-7.772-78.517-11.798-26.481-4.047-52.954-7.737-79.437-11.403-9.507-1.316-19.136-2.447-28.59-4.078-13.237-2.285-27.166-2.516-40.595-4.653-6.914-1.1-15.382-5.005-22.337-4.672-7.465.359-.79.274-5.7 2.84-2.204 1.154-4.753 2.185-7.293 2.318-4 .21-8.032-1.503-10.48-4.557-4.079-5.09-2.112-8.99-10.425-9.632-5.473-.422-11.86 1.69-17.421 1.967-5.449.273-11.115 1.063-16.566.903-10.901-.322-23.893-1.28-33.792-5.94-10.49-4.936-19.853-11.522-30.889-15.72-5.538-2.108-13.417-3.002-17.13-8.097-3.099-4.253-4.057-12.904.695-16.392 7.29-5.35 21.424 2.746 29.49.724 4.124-1.034.72-2.28 3.839-3.72 1.932-.893 1.642-1.027 3.935-1.35 5.653-.8 14.912 3.158 20.66 4.099 11.34 1.853 22.582 4.682 33.913 6.415 6.47.99 13.048 1.238 19.532 2.29 5.647.917 10.288 3.13 14.386-1.406 1.728-1.913 1.2-3.885 3.97-4.883 2.484-.893 9.619.389 12.019 1.31 2.621 1.004 3.207 2.453 5.316 3.598.053 2.168.964 2.817 2.735 1.945a19.268 19.268 0 014.926.263c14.394.06 28.72-4.406 41.811-9.68 21.694-8.738 48.63-33.476 73.513-20.02 6.122 3.31 10.14 8.831 16.1 12.418 5.296 3.184 12.068 6.037 18.022 7.833 11.898 3.59 23.725 3.14 35.51-.576 14.372-4.533 25.946-9.28 41.434-8.759 14.35.482 25.802 10.388 39.858 10.783-3.434-5.515-4.07-11.85-4.433-18.106-.237-4.092 2.048-14.802-.428-18.114-2.733-3.658-24.077-5.137-12.173-15.875 3.896-3.517 11.088-2.243 15.117-6.126 4.067-3.918 4.147-10.046 6.315-14.938 2.454-5.535 6.501-10.107 10.649-14.524 1.756-1.87 2.942-3.057 3.942-5.305 1.161-2.609.388-4.813 2.242-7.562 6.262-9.278 17.185-6.048 26.691-4.812 5.763.75 12.743.035 18.336 1.608 4.495 1.264 10.34 5.096 13.998 7.909 8.057 6.195 9.93 17.628 10.55 26.996.363 5.484-.704 10.652-.792 16.117-.093 5.72-2.576 8.312-7.042 12.106-.083-1.056-.6-1.764-1.55-2.125-1.945 2.393-1.446 3.327 1.497 2.803.112 1.43.623 2.716 1.531 3.858 2.433 2.702 4.529 5.688 6.898 8.443 5.184 6.024 11.231 11.252 15.22 18.089 4.182-4.866 9.505-5.664 14.494-9.02 4.853-3.265 1.229-4.237 3.03-8.956.722-1.891 2.617-2.225 3.283-3.689.632-1.388-.137-2.264.252-3.789 1.942-7.572 1.136-12.263 7.184-18.199 8.09-7.939 18.057-10.038 29.178-11.545 11.095-1.505 18.973-2.041 28.836-6.424 3.422-1.52 6.659-2.215 9.91-3.94 4.392-2.334 8.484-4.795 12.301-7.944 8.873-7.318 14.39-17.514 21.565-26.308 5.744-7.037 12.67-16.047 23.036-14.189 11.79 2.115 22.18 9.28 34.73 5.417 4.656-1.433 4.153-.552 6-5.066.614-1.503 1.01-3.018 1.608-4.496 2.238-5.531 6.524-6.224 9.182-10.727 6.274-10.632 9.711-23.89 13.284-35.559 1.66-5.418 4.875-10.118 6.835-15.314.82-2.172.448-11.849 2.992-12.697 8.207-2.735 14.849 18.757 16.346 22.822 3.911 10.623 7.356 22.61 5.812 33.984-.635 4.687-1.141 10.116-2.395 14.705-1.14 4.166-1.386 3.892-.734 7.668.662 3.84 1.45 6.143.882 10.168-.16 1.124-.671 5.278-1.155 5.853-2.249 2.675-2.554.805-5.353 1.874-4.526 1.73-5.645 3.216-8.85 7.272-8.012 10.139-16.376 20.309-25.035 29.935-15.19 16.886-31.164 32.023-48.215 47.04-16.735 14.74-34.23 29.695-53.227 41.735-4.616 2.927-12.205 5.494-15.92 9.333-4.07 4.205 2.1 6.03 6.27 9.012 8.29 5.924 16.813 11.99 24.041 18.898 15.41 14.725 24.21 36.421 29.608 56.124 2.81 10.253 3.386 22.007 4.45 32.626 1.247 12.456-.297 26.087-4.226 37.936-1.49 4.494-3.244 8.896-4.69 13.409-.665 2.078-3.934 8.53-3.047 10.929 1.465 3.962 11.096 8.775 14.459 11.529 4.596 3.767 9.3 7.659 13.151 12.147 16.386 19.093 29.786 39.13 41.823 61.095 12.242 22.341 23.797 42.5 28.627 67.608 1.262 6.562 2.385 13.13 3.712 19.681 1.426 7.05.047 17.218 2.9 23.658 1.765 3.984 5.068 5.238 3.723 10.746-1.164 4.762-7.074 13.217-10.287 16.968-7.315 8.539-20.67 11.902-31.214 14.997-12.797 3.757-26.485 5.49-39.662 7.626-47.468 7.697-93.989 16.105-137.925 35.833 1.478 2.155 2.671 6.81-.329 8.294-3.985 1.971-5.94-3.882-7.312-6.469-3.99-7.527-5.179-17.263-7.563-25.511-5.814-20.123-10.23-40.455-14.964-60.797-16.158 3.401-32.518 5.208-48.592 8.362-7.414 1.455-14.927 1.591-22.393 2.509-8.017.985-8.53 3.508-7.897 11.16 1.395 16.868 8.13 33.052 11.972 49.456 1.865 7.956 5.127 15.532 6.901 23.45.577 2.579-.049 9.519 1.769 11.443-.078-.082 6.122 1.148 7.1 1.395-.526-9.965.64-19.742.142-29.688-.512-10.276-1.917-23.75.38-33.704 2.09-9.05 10.059-18.617 18.856-22.435 7.663-3.328 22.873-8.665 31.147-3.732 1.454.867 4.956 3.556 4.14 5.64-1.105 2.814-13.352 4.971-15.84 5.843-9.735 3.41-20.03 9.389-25.484 18.056-4.907 7.799-2.946 19.853-2.782 28.795.092 5.083.75 9.804.135 14.868-.871 7.167-1.325 9.762 1.606 15.95 3.434 7.248 1.312 17.841-8.975 15.234-6.153-1.56-6.399-4.916-10.104-8.568-1.401-1.382-2.977-.77-4.35-2.513-1.84-2.337-1.83-7.508-2.762-10.458-2.98-9.441-7.199-18.62-10.35-28.119-4.239-12.771-7.708-25.7-10.746-38.775-2.36-10.166-4.92-20.46-.013-30.353 4.356-8.782 15.026-8.129 23.873-8.445 20.488-.73 41.664-5.172 62.57-6.244 1.503-.078 4.641.437 5.99-.19 1.863-.865 2.567-3.382 4.978-4.99 4.607-3.075 13.72-4.144 19.045-5.088 12.075-2.144 24.087-3.885 36.09-6.12 13.8-2.571 27.472-5.643 41.287-7.98 13.226-2.238 26.586-2.659 39.97-4.18-21.234-13.695-39.934-30.389-60.363-45.226-9.474-6.88-18.252-13.648-26.754-21.603-3.54-3.312-7.043-6.533-10.258-10.143-1.704-1.914-3.21-5.57-5.376-6.906-2.724-1.68-5.83-1.231-9.421-1.53z"/><path d="M616.042 116.588c-7.024-.612-15.073-.656-21.89-2.22 6.022.521 16.377.183 21.89 2.22M230.007 226.336l-8.965-.79c3.051-.444 6.033-.109 8.965.79M414.04 291.372c1.997.172 3.993.343 5.977.517-2-.171-3.989-.344-5.977-.517M617.51 704.173l.263-7.003-.263 7.003M606.55 722.287l-.106 5.01.105-5.01M651.198 644.115l-6.023.007 6.023-.007M590.166 114.035l-4.983-.416 4.983.416M606.842 696.213l-.143 5.007.143-5.007M357.52 283.387c1.331.134 2.662.269 3.98.4l-3.98-.4M595.894 622.244l-5.022.03 5.022-.03M607.498 713.336c-.115 1.33-.232 2.66-.346 3.985l.346-3.985M693.698 502.551c1.001.084 2 .166 2.99.252-1.004-.082-1.997-.167-2.99-.252M385.307 195.26l-5.023.04 5.023-.04M189.517 218.722l-3.95-.743 3.95.743M212.248 222.8l-3.936-.904 3.936.903zM159.282 220.102l-3.949-.763 3.949.763M679.668 502.281c.665.086 1.33.174 1.986.257l-1.986-.257M766.186 591.91l-4.036.238c1.346-.08 2.691-.16 4.036-.238M810.296 391.787l.26-2.989c-.085.998-.173 1.994-.26 2.99M572.646 314.282l1.993.17-1.993-.17M300.908 276.472c.669.045 1.336.089 1.996.135-.671-.044-1.333-.09-1.996-.135M196.826 249.919c3.085.272 5.96.379 8.919 1.321-2.899-.221-6.329.114-8.92-1.321M228.819 251.395c2.155-.624 5.755-.36 7.98.583l-7.98-.583M638.895 245.48l6.975.587c-2.389.569-4.731.585-6.975-.587M874.009 93.805a5938.37 5938.37 0 010 0M148.627 605.779c2.093-.979 4.041-.298 5.978.513l-5.978-.513M273.312 251.452c-.032 1.672-.062 3.345-.095 5.01l.095-5.01M210.721 251.724l5.02-.015-5.02.015M639.943 267.923c-1.336-.086-2.67-.17-3.993-.258 1.34.085 2.666.171 3.993.258M270.147 585.447l-.008 5.018.008-5.018M558.509 303.768l4.94.913-4.94-.913M218.032 237.01c-1.336-.072-2.673-.144-3.997-.212 1.34.074 2.669.143 3.997.213M547.649 301.691l4.94.905c-1.685-.078-3.472.452-4.94-.905M521.09 295.467l4.938.93-4.938-.93M877.24 102.766l4.937.945-4.937-.945M460.739 285.388l4.976.492-4.976-.492M876.467 88.66l4.939.916-4.94-.916M273.351 258.703l4.99.337c-1.725.878-3.383.672-4.99-.337M602.452 162.8c.123-1.329.245-2.658.37-3.982l-.37 3.983M607.816 405.659l-2.994-.194 2.994.194M694.878 220.074l-.46 3.975.46-3.975M716.303 473.653l5.024-.055-5.024.055M604.209 205.942c1.4-.723 2.732-.648 3.985.344l-3.985-.344M615.5 191.617l-1.98-.312 1.98.312M621.917 393.646l3.945.806-3.945-.806M576.515 499.543c1.34-.03 2.681-.06 4.023-.092l-4.023.092M547.923 505.083c1.342-.038 2.682-.077 4.025-.114-1.342.037-2.682.076-4.025.114M535.703 507.069l4.033-.2-4.033.2zM523.489 508.998l4.03-.173-4.03.173M781.146 604.495l-3-.14 3 .14M576.265 307.343c1.316.265 2.63.532 3.945.798l-3.945-.798M823.937 115.393l-1.998-.112c.671.039 1.334.075 1.998.112M228.981 238.064c-.665-.077-1.33-.152-1.987-.227.668.075 1.327.15 1.987.227M510.305 292.53l3.944.813-3.944-.812M359.926 267.369l3.95.732-3.95-.732M257.718 258.118l-.013 3.01c.005-1.006.01-2.008.013-3.01M243.77 252.617l4.025-.12-4.026.12M280.359 258.924c1.382-.565 2.739-.806 3.987.317l-3.987-.317M740.939 339.672c4.815.743 7.093 1.83 8.395 6.497.604 2.165-1.138 6.237-.551 7.603.78 1.813 1.947.853 3.309 2.572 4.976 6.285 7.573 18.8-2.142 23.137-3.64-4.431-2.373-9.576.121-14.155-5.246-1.21-7.966-1.393-9.586-6.645-.194-.63-.588-8.343-.748-8.51-1.085-1.132-5.477.011-6.982-.833-3.325-1.868-4.895-8.118-4.058-11.634 1.153-4.849 6.278-7.326 10.174-10.046-12.5.307-23.992 9.746-36.493 10.378-3.475.175-4.348 1.722-5.555-2.199-1.07-3.483.088-3.03 2.446-4.762 4.674-3.43 11.844-5.69 17.363-7.646 8.016-2.842 21.84-9.498 30.52-5.776 4.331 1.856 7.406 7.551 6.078 12-1.296 4.34-8.774 7.408-12.291 10.019M745.943 275.047c3.577 5.575 5.148 11.464 1.279 17.349 5.501-.45 11.626-1.455 15.21 3.524 5.183 7.196-.173 9.554-6.213 9.964-4.85.33-14.476 3.461-18.727.191-6.987-5.375-.034-15.55 2.658-20.697-4.439.14-15.644 1.451-13.71-6.858 1.393-5.99 15.144-4.473 19.503-3.473M688.675 311.161l-4.331 5.1c2.192.49 5.17-1.371 7.103-2.154l-2.772-2.946zm-6.58-6.868c-5.146-.722-10.7 6.002-11.885-1.512-.693-4.403 3.43-10.043 8.278-10.72 8.456-1.181 20.278 17.993 22.392 24.602 1.948 6.091-.13 5.25-4.602 7.506-3.872 1.953-8.907 6.487-13.934 5.114-4.596-1.256-6.015-8.618-5.994-12.455.032-5.914 3.588-7.818 5.745-12.535zM708.291 304.27c.777 2.377 6.393 13.492 1.41 13.465-2.77-.014-7.995-16.054-8.742-17.888-1.024-2.518-3.181-5.99-2.801-8.843.657-4.933.38-3.376 3.725-2.84 6.516 1.049 11.902 10.966 18.06 13.48-2.55-9.468-6.376-19.847-3.758-29.515 7.336 6.779 7.654 20.743 9.663 30.019.612 2.823 2.068 8.606-1.021 10.52-3.497 2.165-14.176-6.896-16.536-8.398M661.48 324.69c2.43-5.104 5.045-11.075-3.934-9.186l3.934 9.185zm-2.91-21.348c7.703-.612 12.086 9.495 12.883 15.37.636 4.685-4.24 21.037-10.814 16.101-2.45-1.84-3.827-6.866-5.43-9.408-2.196-3.48-5.27-6.8-6.936-10.542-3.528-7.928 2.798-11.5 10.298-11.52zM658.914 303.505l-5.025.067 5.025-.067M746.682 275.578l-3.937-.901 3.937.901"/><path d="M757.238 292.604l-3.984-.36c1.405-.725 2.731-.593 3.984.36M572.932 162.226c6.49 4.657-7.873 22.1-13.563 7.958-1.588-3.947-1.093-8.849 3.096-7.825 1.886.46 2.145 3.304 4.763 3.41 2.597.107 3.872-2.124 5.704-3.543M610.624 178.573c.102-3.488 6.801-10.416 10.619-5.837 3.831 4.594-7.72 5.729-10.62 5.837"/></g></g></svg>