<svg width="1024" height="768" xmlns="http://www.w3.org/2000/svg"><g fill="none" fill-rule="evenodd"><path d="M537.02 380.53l-10.353 17.567-31.932 54.168c-2.442 4.144-3.597 8.275-5.073 12.912l-8.12 25.52-12.098-6.232c-3.87-1.994-10.832-3.982-13.868-7.144-2.678-2.789-4-9.339-5.46-12.882L437.4 433.6c-6.422-15.576-12.844-31.152-19.264-46.728 19.285 1.85 38.57 3.7 57.857 5.548l61.027-11.889zm-31.702-164.06l2.51 18.065c.567 4.09.263 8.641 2.792 11.861 6.128 7.803 16.33 13.202 18.88 23.042l2.66 10.256c.34 1.314 2.112 5.072 1.646 6.35-.776 2.128-8.223 4.873-10.153 5.897-7.319 3.88-14.89 7.644-22.835 10.066-8.246 2.513-14.897 1.492-22.36-2.97-4.759-2.847-12.977-7.675-15.769-12.733-1.923-3.482-1.818-9.616-2.547-13.563h-20.355c-4.145 0-11.153-1.39-14.467.924-1.999 1.396-3.683 4.366-5.322 6.175a153.12 153.12 0 01-8.209 8.423c-6.037 5.717-12.895 11.602-20.798 14.53-9.553 3.537-18.544-1.426-26.006-7.453-3.407-2.753-11.254-8.966-11.663-13.675-.423-4.854 3.85-10.6 7.223-13.534 6.08-5.284 13.295-9.37 20.28-13.315 10.851-6.128 22.025-11.74 33.348-16.948a57306.424 57306.424 0 009.153 23.796c.631 1.643 1.226 5.171 2.47 6.425 1.455 1.467 5.23.69 7.493.69H452.4c2.4 0 7.931 1.075 10.135-.019 1.727-.858 3.61-4.412 4.802-5.87l37.981-46.42z" fill="#CF536D"/><g fill="#000"><path d="M929.306 348.72c-2.112-2.937-4.47-4.061-5.378.213-.995 4.682.048 10.582-.356 15.448-.976 11.748-1.367 23.552-2.658 35.272-2.37 21.522-3.855 44.417-12.014 64.706-3.903 9.703-8.316 19.297-13.637 28.307-5.314 8.997-10.609 18.813-17.147 26.97-12.268 15.303-23.17 31.978-38.247 44.736-3.657 3.095-6.912 6.633-10.834 9.413-3.316 2.35-7.055 4.134-10.232 6.444-1.566 1.138-3.109 2.02-4.758 3.072-1.57 1-2.518 2.524-4.215 3.213-1.665.676-3.744.498-5.529 1.243-2.099.877-3.96 2.255-6.054 3.142-4.139 1.754-8.746 2.145-12.93 3.882-4.083 1.693-7.704 2.775-11.975 3.949-4.864 1.337-9.785 2.095-14.688 3.265a40.063 40.063 0 00-6.254 2.035c-2.642 1.109-2.864.982-5.645.564-4.684-.704-9.41 1.462-14.164 1.34-2.382-.06-4.515-.694-6.908-.422-2.64.3-4.505.729-7.223.502a232.008 232.008 0 00-14.333-.75c-1.849-.041-3.533-.55-5.383-.456-2.814.142-3.61-.421-6.34-1.081-1.963-.474-4.182.176-6.16.07-2.334-.123-4.558-.875-6.886-1.051-4.819-.364-9.203-.98-14.022-1.756-10-1.611-20.352-4.127-29.895-7.521-4.56-1.622-8.327-3.713-12.448-6.126-3.934-2.304-8.375-2.77-12.034-5.431-7.507-5.463-16.063-9.957-23.122-16.02-7.218-6.197-15.865-10.665-22.978-16.838-3.217-2.792-6.826-5.09-9.933-8-3.392-3.177-6.206-6.701-9.808-9.661-7.523-6.182-13.42-14.461-20.933-20.86-7.818-6.657-14.455-14.108-21.556-21.488-2.892-3.006-5.84-5.748-9.259-8.128-3.996-2.783-1.507-5.468-.075-9.42 3.836-10.573 9.122-19.432 15.433-28.731 6.225-9.171 12.462-18.216 19.431-26.847 5.871-7.271 12.18-14.041 18.446-20.808 2.605-2.814 5.127-5.818 7.902-8.484 2.144-2.06 2.435-1.943 5.108-1.294 2.43.59 4.758.809 7.034 1.905 4.418 2.128 8.234 5.096 13.116 6.237 5.212 1.217 9.727 3.078 14.827 4.615 9.414 2.839 19.626 5.919 27.984 11.27 8.795 5.632 15.156 14.524 21.433 22.64 6.568 8.49 11.111 18.294 16.37 27.656 5.44 9.68 10.511 19.506 16.397 28.932 10.78 17.26 24.91 32.21 45.14 37.222 8.848 2.19 19.91 4.964 28.536.633 3.776-1.895 7.026-4.703 10.761-6.692 4.347-2.315 8.755-4.31 12.468-7.621 7.261-6.474 15.137-12.197 22.127-19.02 6.447-6.293 12.075-13.455 18.095-20.173 3.003-3.351 5.467-7.175 8.001-10.884 1.26-1.844 2.145-3.981 3.39-5.788 1.14-1.653 2.735-2.724 3.971-4.302 2.47-3.15 4.351-7.096 6.615-10.443 2.863-4.232 5.13-8.768 6.964-13.532 3.832-9.96 5.255-19.455 6.137-30.017 3.093 2.563 11.437 2.682 13.393-1.15 3.17-6.212-3.604-7.2-7.136-9.974-2.41-1.892-3.997-4.554-5.763-7-1.196-1.658-4.528-4.354-4.976-6.364-.672-3.02 2.686-6.082 4.234-8.36 2.168-3.188 4.18-6.486 6.302-9.706 8.16-12.381 16.84-24.665 26.83-35.655 4.45-4.897 9.176-10.01 14.597-13.826 4.815-3.39 9.541-10.007 15.514-11.202-3.36 5.167-12.62 15.933-6.156 22.437 5.294 5.325 15.737-6.582 22.294-5.633-3.685 5.268-10.082 13.903-5.296 20.647 4.104 5.785 11.632-3.703 16.675-3.703-3.396 6.746-6.79 13.492-10.187 20.238m-441.45 79.37c-3.187-.214-6.736 1.802-6.363 5.347.36 3.432 4.377 3.696 4.813 6.734.413 2.869-3.042 8.36-4.03 11.125-.608 1.695-1.632 8.445-3.628 9.182-2.75 1.015-6.864-4.39-9.502-1.948-2.09 1.933.316 6.362 1.546 8.026 1.951 2.639 6.151 2.903 7.251 5.848.99 2.653-.063 8.062-.063 10.92-3.509-1.84-5.79-2.722-7.319-6.455-1.444-3.524-2.022-2.826-5.425-4.795-2.859-1.656-4.456-4.733-6.42-7.28-2.096-2.716-5.08-5.514-5.676-9.045 4.922 0 9.816.237 12.87-4.43 2.73-4.174-.082-7.321-4.64-6.718-2.546.337-9.406 4.465-11.666 3.11-1.276-.764-1.533-3.446-1.975-4.758-1.06-3.151-2.27-6.232-3.25-9.415a179.553 179.553 0 01-2.53-9.145c-.435-1.73-2.414-6.212-1.438-7.726 1.883-2.918 6.753-.124 7.033-5.651.296-5.842-5.436-5.828-9.359-5.574-5.11.33-7.647-6.64-10.21-10.31 6.76 1.1 13.333 3.04 20.127 4.004 5.516.78 11.03-1.738 13.258 4.604.793 2.256 3.653 9.6 7.412 5.854 2.215-2.207-.489-7.182-1.517-9.468 10.944-2.033 22.101-1.584 33.054-4.11 5.218-1.201 10.028-3.504 15.127-5.08 3.986-1.232 8.588-3.98 12.693-4.38-.959 3.219-5.113 5.867-7.312 8.279-3.336 3.659-6.527 7.448-9.74 11.214-1.712-2.818-3.95-8.042-7.442-9.026-5.187-1.462-5.566 5.463-4.362 8.746.834 2.276 2.24 3.566 3.78 5.298 2.606 2.937.872 3.892-1.588 6.906-2.056 2.519-3.849 5.106-5.749 7.732-2.925 4.039-3.443 2.677-7.76 2.386m-56.464 39.208c-10.064-1.65-20.82-2.016-31.015-2.61-9.538-.556-19.364-.73-28.928-.443-9.523.284-19.26-.641-28.732.497-8.823 1.06-17.738-1.018-26.736-1.397-3.784-.16-7.614.849-11.399.395-1.9-.228-3.575-.905-5.52-.874-2.759.045-5.419.812-8.199.799-10.018-.05-21.1-2.444-30.939.652-4.26 1.34-8.259.735-12.613 1.78-4.214 1.012-8.26 2.477-12.436 3.556-8.525 2.204-16.357 5.137-24.486 8.74-15.814 7.009-31.185 18.945-38.325 35.136-4.052 9.189-5.94 19.83-4.348 29.772 1.531 9.565 2.82 20.003 7.985 28.375 9.627 15.6 19.917 31.84 36.046 41.413 7.976 4.734 15.1 10.877 23.05 15.545 3.483 2.044 7.577 2.562 10.985 4.677 3.011 1.869 6.048 4 9.001 5.99 3.46 2.335 5.797 4.679 4.52 9.06-1.269 4.358-4.648 8.733-7.313 12.34-6.473 8.76-12.964 17.712-19.677 26.278-3.57 4.557-7.993 8.108-12.509 11.68-2.975 2.356-7.694 4.618-9.924 7.715-1.476 2.05-.37 3.369-1.198 5.328-.768 1.813-2.633 2.439-4.293 3.344-5.329 2.903-10.392 3.649-16.095 5.363 2.178-5.645 5.003-11.501 4.115-17.73-.729-5.104-3.336-7.32-7.984-4.611-4.885 2.846-9.556 6.254-14.487 8.994-4.957 2.756-11.242 4.005-16.679 5.52 2.47-5.123 5.458-10.488 4.084-16.382-1.27-5.447-4.155-6.538-8.579-3.55-9.453 6.384-24.47 9.637-35.636 6.752 1.702-5.862 7.732-10.808 11.68-15.213 4.673-5.218 9.418-10.356 14.547-15.133 4.842-4.51 9.364-9.051 13.778-13.963.681-.757 1.206-1.86 2.195-2.288 1.067-.462 2.636.435 3.496-.333 1.595-1.423-.639-3.466-1.6-4.777 3.055-.722 6.526 2.774 9.345.786 4.517-3.188.263-10.594-2.4-13.248-7.533-7.51-16.423-13.253-23.358-21.481-7.5-8.9-16.019-17.035-23.219-26.167-6.557-8.315-13.925-17.042-17.99-26.892-4.397-10.651-6.622-21.21-5.362-32.73 1.29-11.795 3.853-23.548 6.221-35.165 2.01-9.852 7.87-19.288 13.616-27.42 5.504-7.788 10.875-16.95 17.558-23.76 3.291-3.353 7.528-5.54 10.923-8.763 3.876-3.681 6.707-6.12 11.522-8.585 4.724-2.417 9.31-5.105 14.021-7.551 4.684-2.433 9.201-4.342 13.997-6.458 4.042-1.783 8.021-2.431 12.168-4.061 5.37-2.11 10.852-3.881 16.497-5.094 9.804-2.106 19.397-4.677 29.16-6.703 4.626-.96 9.458-.934 13.987-1.977 4.878-1.124 9.447-1.347 14.39-2.15 4.452-.723 8.883-.705 13.382-1.302 2.657-.352 5.337.074 7.987-.247 3.26-.394 5.553-1.07 8.865-.888 4.521.25 8.117-2.247 12.458-1.597 4.146.62 8.088-.504 12.193-1.207 2.171-.372 3.834.25 5.99.315 2.931.088 5.931-.54 8.895-.565 6.062-.054 12.165-.401 18.224-.258 12.098.286 23.97.266 36.072 2.029 2.881.42 5.753 1.67 8.583 2.006 2.331.277 3.475-.275 5.837.792 4.646 2.1 7.808 7.773 10.23 12.092 6.12 10.917 7.991 23.952 11.622 35.794 3.75 12.226 8.707 22.595 15.768 33.172-4.399-.78-8.603-2.392-13.014-3.114M382.455 333.25c-4.055-8.353-6.278-17.422-9.667-26.038 3.612-.551 7.517.916 11.175 1.03 4.414.142 8.316-.065 12.642-1.056 8.022-1.84 17.033-5.168 23.4-10.535 3.144-2.651 5.5-5.93 7.051-9.727.954-2.337 1.534-4.724 2.007-7.186.118-.615.083-3.627.598-4.083 1.154-1.024 6.86-1.222 8.45-1.098 4.356.342 8.735.92 13.17 1.208 3.435.224 6.952-.27 8.272 3.37 1.15 3.17.685 7 1.754 10.3 2.33 7.198 7.99 14.543 15.076 17.527 7.067 2.975 18.071 3.568 25.525 2.549 9.091-1.243 15.67-7.042 22.506-12.475 0 17.86-.598 35.336 4.664 52.69 1.185 3.913 2.625 7.774 4.453 11.434.835 1.67 4.9 6.425 4.496 8.19-.444 1.938-8.08 3.95-9.88 4.562-4.399 1.494-8.837 2.926-13.259 4.346-7.883 2.532-16.457 4.614-24.696 5.186-8.039.558-15.954.368-23.995.54-8.023.173-15.129-.813-22.99-2.624-8.88-2.044-18.217-3.061-26.98-5.42-7.659-2.06-12.608-10.385-17.306-16.245-6.537-8.156-11.903-17.048-16.466-26.445m-11.31-44.677c-1.553 1.257-7.99-1.428-9.333-2.467-1.858-1.44-2.23-6.604.43-7.946 2.538-1.28 10.861 2.934 7.045-4.403-.859-1.653-2.137-1.592-1.365-3.612.443-1.157 3.354-2.972 4.413-3.371 4.385-1.65 4.905 3.143 8.666 4.705 3.81 1.582 8.2.507 12.125 2.066 1.5.595 2.261 1.732 3.515.142.621-.79.326-2.88.09-3.773-1.157-4.34-7.17-7.07-10.466-9.588 8.356-4.232 16.147-8.234 23.526-14.055.551 1.504 2.107 3.905 1.056 5.52-.593.909-3.686 1.963-4.637 2.83-2.885 2.637-6.774 8.586-3.718 12.54 3.708 4.798 12.554-3.541 15.085-6.401 4.54 4.56 4.226 14.968.724 19.855-.566-4.057-8.233-10.402-11.635-5.65-4.81 6.725 7.447 7.972 11.017 7.145-2.005 3.232-5.793 8.369-9.864 8.938-3.854.54-5.643-4.518-7.93-7.015-1.988-2.168-6.312-7.245-8.379-2.895-2.047 4.31 2.5 9.17 4.731 12.352-3.097.4-6.07 1.822-9.249 1.493-1.518-.157-5.126-.344-6.398-.813-3.923-1.446-3.06-7.488-2.082-10.727.995-3.29 2.028-8.92-3.786-6.534-6.179 2.534-.296 9-3.582 11.664m48.734-55.693c2.608-4.322 4.73-8.982 6.325-13.77 1.584-4.751 1.515-8.6 6.195-10.93 8.446-4.203 18.318-8.837 24.523-16.201 2.41-2.86 3.528-7.322 6.92-9.064 4.177-2.144 9.818-3.217 14.302-4.815 5.248-1.87 10.765-2.847 15.914-4.988 3.643-1.515 8.635-4.425 12.563-4.747-.26 3.872-1.019 7.85-.444 11.733.387 2.616 3.687 6.143 3.392 8.273-.142 1.022-1.68 1.446-2.275 2.3-.735 1.059-.767 2.534-1.02 3.737-.835 3.986-1.416 7.98-2.8 11.839-5.799 16.144-21.438 27.067-31.978 39.988a106.946 106.946 0 00-7.746 10.847c-1.492 2.38-2.867 6.728-5.697 7.83-3.399 1.326-10.028-.776-13.533-.99-3.444-.21-6.237 1.009-9.565.774-3.45-.245-5.996 1.313-7.612-2.282-1.297-2.886-1.396-6.481-2.413-9.5-2.159-6.41-9.27-13.038-5.05-20.034m25.48-82.358c-4.85.156-9.226-2.093-13.256-4.543 8.252-3.331 16.695-2.835 24.985-.348-3.242 2.912-7.346 4.75-11.729 4.89m-19.28-22.233c2.03-7.476 7.873-16.101 13.432-21.387.94 4.592 4.43 3.747 7.652 5.269 2.754 1.3 3.097 3.94 6.33 4.734 2.413.592 6.46.94 8.383-1.042 3.16-3.258-.489-5.254-3.05-6.67a135.658 135.658 0 016.233-7.722c1.495-1.728 4.4-4.135 4.498-6.654.15-3.871-2.94-2.228-5.244-1.034-1.089.565-2.609 1.887-3.842 2.108-1.182.21-2.346-.572-3.409-.276-2.575.717-7.372 9.287-11.109 5.316-1.55-1.648 1.765-6.854 2.718-8.215 3.211-4.585 9.425-3.004 14.443-3.398 5.481-.431 10.97-1.553 16.45-1.845 6.127-.326 8.838 4.774 13.134 8.61 4.083 3.646 10.253 7.65 15.53 9.338 5.05 1.613 7.38.41 7.581 6.65.444 13.788 15.833 6.693 24.618 8.083 5.131.81 5.974 3.866 1.691 6.989-2.19 1.597-4.756 2.182-7.356 2.61-3.302.546-4.586 1.298-7.398 3.18-9.254 6.192-24.506 9.524-35.26 6.652-5.942-1.587-12.028-4.527-17-8.138-4.29-3.116-8.228-6.926-13.176-9.016-5.994-2.531-11.689-.572-17.889-.621-7.818-.063-12.02 1.394-17.96 6.479m88.9 44.795c.85-2.474 6.094-15.735 9.911-14.12.97.412 2.771 5.73 3.49 6.7 2.315 3.12 5.614 5.48 8.878 7.503-5.419 4.506-13.105 5.63-19.153 9.094-6.61 3.784-4.382-5.526-3.126-9.177M495.34 292.223a494.414 494.414 0 00-9.42-.751c-2.798-.2-5.969-1.25-8.682-1.265-2.335-.014-3.928 1.614-6.145.159-1.87-1.227-2.512-4.342-3.413-6.211 4.425.246 13.155 3.95 16.724-.108 2.488-2.83.25-7.132-2.468-8.807-5.09-3.14-9.116-.433-14.019 1.21.047-5.986 3.078-8.8 6.833-12.907 4.023-4.398 8.304-8.927 11.773-13.78 2.926 2.397 10.024 8.398 13.525 3.68 3.527-4.751-3.5-9.053-6.825-10.864l8.28-11.46c.958 5.507.71 11.017 3.038 16.212 2.13 4.75 5.1 9.677 9.09 13.072-3.753 2.275-7.505 8.709-3.572 12.439 2.22 2.105 4.24 1.284 6.49-.178 3.022-1.963 3.741-3.082 7.15-1.385 1.497.744 3.99 1.858 3.618 3.63-.308 1.469-4.483 4.079-5.584 5.114-5.033 4.734-10.689 8.41-16.522 12.075-.889-2.97-1.77-11.921-6.336-11.478-4.42.429-3.535 8.59-3.535 11.603m74.333-117.95c34.192-8.956 67.988-18.3 102.79-24.831 8.446-1.585 16.957-2.784 25.398-4.38 8.322-1.572 16.804-2.081 25.1-3.646 16.705-3.151 33.46-5.307 50.435-6.816 16.57-1.474 32.856-2.071 49.36.719 6.858 1.16 14.156.717 20.818 2.498 3.364.899 7.146 1.68 10.273 3.23 3.484 1.725 6.448 4.61 9.721 6.716 6.617 4.258 10.724 8.744 14.994 15.328 4.514 6.962 4.901 15.473 5.09 23.7.187 8.176-2.026 16.112-4.43 23.846-2.458 7.909-3.549 16.677-7.13 24.167-.847 1.77-4.314 8.666-7.219 7.799-1.862-.556-1.685-3.61-1.803-5.201-.367-4.941-.945-17.234-9.295-11.887-3.232 2.07-5.69 5.986-8.103 8.878-2.997 3.59-6 7.174-9.027 10.739-5.274 6.212-10.489 15.005-18.004 18.69.561-3.723 9.794-40.75-1.755-36.52-2.097.769-3.926 3.708-5.298 5.379-2.586 3.15-5.054 6.394-7.484 9.666-4.298 5.787-8.506 11.636-12.685 17.509-3.899 5.48-8.318 10.616-13.11 15.342-2.66 2.623-13.356 12.942-14.223 3.362-.175-1.932.745-4.198 1.101-6.083.72-3.807 1.162-7.674 1.83-11.491 1.365-7.82 3.265-15.496 5.3-23.162 1.996-7.518 3.423-14.958 3.5-22.75.077-7.71.32-16.041-3.843-22.873-3.084-5.06-8.414-10.8-13.655-13.481-7.106-3.634-14.118-3.44-21.817-4.517-15.254-2.135-31.448.07-46.589 2.402-14.218 2.189-27.752 6.529-41.59 9.832-15.564 3.715-30.4 9.54-45.416 14.429-16.557 5.389-33.106 11.143-49.349 17.454.797-2.811.713-5.67 1.32-8.483.478-2.223 1.742-3.135 2.702-5.057 2.025-4.054 1.07-9.976-4.368-9.842-4.529.11-9.679 3.802-13.306 6.14-3.698 2.386-11.644 6.097-13.85 10.195-5.936 11.02 17.43 5.697 13.353 14.67-1.12 2.464-2.587 2.262-2.298 5.509.32 3.61.198 5.312-1.026 8.896-2.163 6.334-3.143 13.018-5.412 19.3-6.16-7.442-17.399-15.914-18.71-26.076-1.398-10.84 4.017-21.128 6.641-31.323 1.048-4.073.204-9.586 1.85-13.32 1.88-4.264 9.148-4.147 13.094-4.963 12.168-2.518 24.104-6.543 36.125-9.692M950.8 321.166c-.627-4.547-4.215-7.556-8.485-8.466-4.206-.896-2.16-1.367-2.017-5.913.13-4.063-.658-9.032-4.394-11.354-3.382-2.101-7.842-1.372-11.62-1.537 2.626-7.584 5.232-19.25-6.4-17.203-9.399 1.653-16.417 7.96-24.01 13.486-7.764 5.65-14.473 10.974-21.019 18.005-6.575 7.064-12.792 14.468-18.334 22.375-5.543 7.908-10.334 16.28-14.199 25.132-3.637 8.33-6.922 16.37-5.025 25.585.984 4.778 3.27 9.214 4.073 14.023.831 4.955-.267 9.966-1.655 14.716-2.653 9.078-7.297 17.057-12.554 24.842-4.45 6.589-8.323 13.132-13.747 18.94-6.769 7.252-13.393 14.494-20.472 21.469-5.594 5.51-12.384 11.11-18.828 15.622-3.909 2.737-8.597 3.98-12.834 6.085-3.955 1.965-7.308 3.982-11.604 5.188-4.343 1.219-8.897 3.34-13.47 3.243-4.599-.1-9.575-2.348-13.964-3.675-9.152-2.767-16.15-5.45-22.697-12.654-13.869-15.261-23.008-34.644-33.266-52.482-9.342-16.247-20.359-34.42-35.508-45.98-7.243-5.53-15.788-9.474-24.143-12.985-4.109-1.728-8.588-2.345-12.858-3.55-3.817-1.076-7.853-1.053-11.424-2.544-4.299-1.794-8.378-5.043-13.138-5.574-1.53-.17-2.765.414-4.245-.09-1.81-.615-3.492-2.57-5.39-3.405-8.716-3.835-13.692-7.633-17.683-16.445-4.146-9.157-6.869-18.855-6.468-28.983.197-4.97.905-9.984 1.801-14.874.84-4.586.934-9.456 2.014-13.93.464-1.921 1.421-3.702 1.832-5.645.38-1.793.058-3.906.788-5.604.638-1.485 1.838-1.973 2.655-3.24 1.46-2.257.358-3.627.108-5.97-.452-4.258 1.46-8.888 2.281-13.045 1.024-5.193 2.584-10.222 3.767-15.371.742-3.225.694-6.821 3.576-8.944 3.097-2.283 8.968-2.528 12.667-3.49 10.108-2.627 20.15-5.423 30.258-8.035a112.2 112.2 0 0014.138-4.658c2.713-1.1 3.762-.724 6.514-.998 2.074-.206 3.786-1.477 5.748-2.007 4.078-1.1 6.433 1.092 9.936 2.715 3.98 1.843 9.138 2.653 13.46 3.273 8.836 1.268 19.66-.196 28.445-1.725 9.888-1.722 19.89-4.572 28.49-9.736 1.694-1.017 2.996-2.193 4.92-1.721 1.547.379 2.88 2.49 4.163 3.395 3.886 2.737 8.625 3.475 13.056 1.639 3.604-1.492 6.01-4.18 7.622-7.678 1.233-2.674 1.723-6.782 4.774-8.046 3.037-1.258 9.408.232 12.618.85 4.096.787 7.361 3.159 10.472 5.925 6.892 6.129 7.71 14.204 6.35 22.874-3.188 20.358-11.333 39.852-10.88 60.782.17 7.996 3.485 15.454 13.027 14.513 4.7-.463 7.472-3.832 10.981-6.542 3.932-3.036 7.404-6.182 10.708-9.906 6.972-7.853 12.96-16.463 19.291-24.822.74 7.618-3.239 15.187 1.663 22.225 4.017 5.768 9.661 1.77 13.474-2.04 5.686-5.676 10.901-12.057 16.014-18.25 4.104-4.973 8.308-13.11 13.877-16.488-.183 6.314 4.044 17.124 11.961 14.296 7.307-2.611 12.151-12.92 15.284-19.377 1.89-3.896 3.582-7.885 5.401-11.814 2.063-4.454 2.428-8.305 3.398-13.01a541.602 541.602 0 004.954-27.478c1.468-9.602-.118-17.976-3.416-26.975-1.388-3.784-1.663-7.378-4.078-10.771-2.515-3.531-5.8-7.04-8.98-9.981-6.676-6.171-15.349-8.34-23.4-12.022-4.41-2.016-8.173-2.2-12.847-2.837-4.44-.605-8.676-1.767-13.18-2.02-11.528-.644-22.939-2.921-34.528-2.211-5.386.33-10.799.645-16.189.843-4.31.158-10.399 1.444-14.545.209 2.162-4.524 6.66-8.226 6.488-13.631-.164-5.173-4.473-7.783-8.939-9.124-5.99-1.798-12.686-2.84-18.944-2.603-5.218.196-12.446 2.319-17.327-.426 3.228-4.381 6.8-9.087 7.536-14.648.971-7.34-4.942-11.306-11.002-14.014-6.259-2.797-13.732-3.554-20.442-4.548-6.848-1.016-13.523-1.61-20.394-.787-13.748 1.646-27.497 3.347-41.28 5.292-12.872 1.817-27.22 5.002-40.075 1.739-13.605-3.455-8.828-15.303-14.467-25.013-6.293-10.836-22.022-11.054-32.87-10.288-13.293.939-28.866 6.482-40.428 12.99-2.373 1.337-4.894 2.389-7.212 3.772-2.355 1.404-4.126 3.467-6.854 4.27-6.4 1.886-13.832-1.874-20.333-2.031-14.059-.338-30.612 6.585-40.609 16.524-6.398 6.36-14.92 25.655-4.023 32.15-4.72 4.955-8.147 10.94-10.8 17.212-1.33 3.14-2.454 6.365-3.5 9.609-.75 2.327-1.148 6.152-2.88 8.017-1.695 1.826-4.082 2.935-5.822 4.935-2.28 2.622-4.396 5.362-6.174 8.352-2.933 4.928-5.457 10.687-6.195 16.417-.678 5.253.432 10.458 4.687 13.954 2.425 1.993 5.47 3.118 8.581 3.345 3.395.248 6.897-1.483 10.193-1.106 2.707.309 2.416 1.7 4.132 3.554 1.955 2.11 4.952 3.193 7.698 3.783 2.546.547 5.213.656 7.766.088 3.287-.731 6.1-3.148 9.493-3.363-5.063 4.635-10.423 8.95-16.124 12.78-6.212 4.173-12.112 5.533-19.323 7.074-14.245 3.044-27.804 7.623-42.355 9.22-6.917.759-13.696 2.285-20.658 2.846-8.53.687-17.07.675-25.62.54-6.607-.104-13.323-.01-19.837-1.247-7.003-1.331-14.25-.895-21.393-.864-7.328.03-14.616-.095-21.914-.828-6.946-.698-13.708-4.308-20.348-6.414-13.635-4.326-26.207-11.395-37.334-20.291-5.375-4.297-11.308-8.064-16.057-13.087-4.31-4.558-8.393-10.003-12.259-14.963-8.439-10.828-10.942-24.718-17.576-36.428-3.453-6.095-10.899-21.91-18.254-10.507-4.263 6.61-4.904 15.117-6.558 22.613-3.395-6.186-6.656-12.47-10.217-18.562-1.678-2.872-4.508-8.086-8.623-6.663-3.942 1.364-5.787 9.128-6.646 12.6-1.672 6.758-1.729 13.84-4.654 20.278-2.287-4.748-3.945-10.681-9.187-13.01-6.42-2.85-12.772.17-15.978 5.99-7.905 14.347-6.536 32.969-3.86 48.49 5.228 30.344 19.558 60.012 42.72 80.74 5.516 4.939 11.932 8.713 17.955 12.975 2.42 1.713 4.587 3.232 7.515 3.895 3.701.837 5.386 3.028 8.896 4.58 13.106 5.8 27.841 6.339 41.271 10.832 3.138 1.05 6.397.405 9.495 1.45 3.413 1.153 5.754 1.32 9.27 1.888 7.22 1.167 14.896 3.134 22.308 3.273 7.415.138 14.595 1.097 22.064 1.506 7.695.42 14.853-.018 22.52-.951 16.637-2.025 34.681-2.484 50.053-9.632 5.985-2.783 10.928-6.353 15.385-11.235 1.241-1.36 4.718-5.003 3.357-7.2-1.484-2.394-4.762-.142-6.716.717-15.245 6.7-31.985 8.469-48.452 9.824-7.7.633-15.508 1.757-23.227 1.96-3.979.105-7.473-.302-11.316-1.105-4.4-.92-8.843-.52-13.282-1.027-7.712-.882-15.367-2.272-23.055-3.215-6.45-.791-13.665.265-19.507-2.683-5.444-2.746-11.97-3.217-17.843-5.132-6.919-2.257-14.066-3.493-20.865-6.246-3.386-1.371-6.789-2.06-10.17-3.182-2.732-.907-5.046-3.13-7.786-4.362-6.43-2.892-12.292-8.225-17.238-13.19-11.069-11.11-20.388-24.355-27.706-38.273-4.052-7.707-6.368-17.226-9.116-25.495-2.558-7.698-4.808-16.297-6.143-24.295-.475-2.843-3.832-17.226.846-17.343 6.463-.16 10.607 11.3 12.404 15.803 2.705 6.778 6.085 16.164 11.694 21.153 5.244 4.664 8.306-4.207 8.226-8.344-.058-3.005-1.176-4.331-2.81-6.707-2.31-3.358-3.104-6.03-3.29-10.195-.428-9.531 1.335-18.976 2.962-28.32 3.912 6.886 8.072 13.524 10.785 21 1.417 3.905 3.528 15.38 9.832 13.482 3.881-1.168 5.44-6.994 6.004-10.473 1.26-7.762.444-15.594 2.61-23.271 2.72 1.3 4.033 6.597 5.223 9.128 2.384 5.064 4.153 10.145 5.815 15.477 3.19 10.238 9.411 18.784 15.598 27.404 6.261 8.723 13.723 16.15 22.292 22.618 8.36 6.308 18.11 13.349 27.988 16.99 5.078 1.872 10.338 3.126 15.395 5.084 2.281.883 4.546 1.826 6.862 2.616 3.132 1.067 6.205 1.065 9.295 1.864 4.945 1.279 9.071 2.48 14.272 2.634 5.051.15 10.117.039 15.147.447 10.328.838 21.151 1.01 31.533 1.007 11.704-.004 23.642.226 35.158-2.095 11.75-2.367 23.723-3.998 35.311-6.9 13.236-3.313 26.357-7.308 39.522-10.908-5.714 10.35-16.017 21.1-26.518 26.512-5.233 2.696-10.637 5.84-16.104 7.965-5.967 2.319-11.87 3.985-17.47 7.194-6.072 3.478-8.176 6.797-11.084 12.946-2.91 6.154-4.916 12.067-4.152 19.044.591 5.386 2.83 11.144 6.798 14.949a17.864 17.864 0 007.274 4.21c3.072.908 4.186.26 4.974 3.393.522 2.073-.074 5.017.268 7.274.474 3.122 1.247 6.199 2.043 9.25 1.818 6.977 3.79 13.99 6.947 20.497 2.593 5.34 5.924 10.257 9.477 14.998 1.354 1.808 3.954 4.008 4.771 6.117.574 1.48-.165 5.254-1.928 6.147-.932.472-5.63-1.471-6.304-1.631-2.763-.661-5.362-1.192-7.992-2.131-6.318-2.255-13.898-2.4-20.62-3.132-5.912-.643-11.929-1.446-17.886-1.222-2.773.105-5.508 1.089-8.22 1.17-2.898.089-5.494-.592-8.446-.423-2.709.156-3.667.129-6.269.95-2.765.872-4.095-.045-6.837-.32-3.19-.318-6.087 1.195-9.24 1.223-3.037.027-6.014-.275-9.09-.157-5.612.213-11.424 1.4-16.904 1.31-3.244-.053-5.432.43-8.582 1.083-3.523.73-7.165-.47-10.623.528-4.819 1.389-9.967 1.399-15.058 2.449-5.56 1.147-10.914 2.916-16.535 3.765-12.027 1.816-23.968 5.557-35.51 9.379-49.604 16.428-90.605 60.6-99.919 112.63-2.69 15.03-6.483 31.949-4.763 47.233 1.647 14.648 7.365 29.58 15.023 42.097 7.486 12.234 16.725 23.87 26.901 33.96 5.046 5.004 9.855 10.37 15.442 14.785 2.33 1.84 4.381 4.206 6.773 5.92 2.86 2.048 6.531 3.016 9.754 4.333-11.833 6.684-23.125 15.207-32.904 24.656-8.467 8.18-19.456 19.884-18.238 32.698 1.68 17.694 25.817 11.98 37.184 9.533 0 8.473.068 18.647 11.48 17.666 4.773-.411 10.486-2.424 14.635-4.795 3.75-2.141 6.165-3.033 10.455-4.021 0 4.079-.922 9.946 2.386 13.102 3.592 3.426 10.23 3.186 14.594 1.896 10.028-2.963 20.83-6.184 27.353-15.088 3.171-4.328 6.12-9.091 8.04-14.123.91-2.388.938-5.508 2.51-7.551 1.463-1.9 4.193-3.183 5.983-4.763 3.886-3.43 7.136-7.534 10.513-11.443 4.04-4.676 8.558-8.966 12.248-13.937 6.665-8.974 11.4-20.378 9.083-31.701-2.166-10.58-10.916-20.406-21.25-22.835-4.877-1.146-7.96-5.087-11.78-7.993-4.143-3.152-8.844-6.294-13.268-9.017-4.76-2.93-9.756-6.176-14.169-9.604-4.428-3.441-7.818-8.506-11.284-12.87-7.215-9.08-15.447-18.537-17.803-30.188-.944-4.668-2.286-9.743-.784-14.393 1.59-4.92 5.09-8.873 8.281-12.8 6.99-8.6 17.024-13.7 27.02-17.96 5.41-2.307 10.764-4.184 16.246-5.936 1.958-.626 3.488-1.875 5.525-2.371 2.847-.693 5.883-.956 8.768-1.613 5.506-1.253 10.332-2.644 15.99-2.69 6.47-.051 12.928-.548 19.362-1.207 5.621-.575 10.446.246 15.981.372 2.385.054 4.816-.395 7.2-.27 2.92.155 5.67.948 8.641 1.005 4.836.09 9.337.59 14.07-.064 2.35-.326 4.348.37 6.72.139.58-.056 1.14-.803 1.685-.816 1.078-.024 1.674.524 2.774.65 11.47 1.326 22.923-1.012 34.381-.504 11.208.497 22.88-.192 34.116-.841 11.123-.643 23.674-1.78 34.015-6.278 3.85-1.675 6.272-5.823 9.976-2.998 4.672 3.563 8.453 7.902 13.606 10.994 4.415 2.649 9.874 3.479 14.801 4.744 2.324.597 5.152 1.858 7.562 1.45 3.082-.521 2.763-2.03 4.923.914 3.2 4.362 5.254 9.448 8.67 13.74 3.612 4.54 7.65 9.059 11.824 13.093 7.716 7.453 15.053 15.375 22.678 23.002 3.93 3.93 6.37 8.865 10.467 12.607 3.854 3.519 7.568 7.319 11.51 10.725 9.058 7.833 19.01 14.763 28.564 21.978 4.604 3.477 8.628 7.467 13.672 10.344 4.881 2.784 10.093 5.333 14.731 8.376 9.098 5.967 19.71 9.688 30.161 13.177 5.6 1.87 11.28 3.419 17.092 4.464 5.313.954 10.336 1.31 15.627 1.944 4.873.585 9.798.775 14.635 1.422 2.854.382 3.618-.073 6.113-.447 2.24-.336 3.903.837 6.226.955 10.603.538 21.462 1.383 32.168.456 5.554-.482 10.5-.125 15.845-1.912 5.308-1.776 11.01-1.228 16.373-3.141 10.355-3.691 21.21-5.718 31.28-10.44 4.226-1.98 9.645-3.328 13.381-6.17 1.543-1.173 2.546-2.572 4.117-3.531 2.06-1.256 4.928-2.545 7.202-3.49 4.13-1.717 6.93-4.892 10.552-7.53 4.672-3.4 9.298-6.737 13.38-10.863 7.517-7.602 14.8-15.077 21.33-23.653 14.806-19.45 27.733-40.486 39.137-62.102 12.42-23.54 17.36-48.303 19.648-74.623 1.137-13.062 2.085-26.173 2.963-39.255.408-6.097.756-12.237.496-18.348-.11-2.598-.94-6.096-.025-8.641.874-2.426 3.46-4.266 5.098-6.167 6.23-7.22 16.11-19.977 14.712-30.12"/><path d="M461.545 421.375c-3.147-1.775 1.208-6.766-2.295-8.03-3.172-1.146-5.029 4.327-5.362 6.481-.695 4.503 1.012 8.63 4.942 10.821 2.066 1.152 4.474 1.77 6.376 3.232 2.06 1.585 3.076 3.775 5.285 5.227 3.853-7.97-2.627-14.167-8.946-17.73M484.298 406.083c-5.923 1.395-6.953 17.718-.522 17.443 3.793-.162 2.73-7.8 3.323-10.405.58-2.542 1.748-8.109-2.8-7.038M480.894 119.743c7.648 5.074 20.055-7.948 16.131-15.73-3.11 1.861-7.649 7.37-11.487 6.975-5.985-.615.161-6.423-.662-9.21-1.553-5.269-5.896 3.588-6.392 5.242-1.153 3.848-1.49 10.135 2.41 12.723M500.234 274.119c-.124-2.997-.97-6.085-3.188-8.214-2.217-2.13-4.812-2.635-6.486-5.32-1.059-1.7-1.084-3.396-3.304-1.636-1.417 1.123-1.848 4.29-1.824 5.958.035 2.507 1.039 4.872 2.676 6.752 1.906 2.19 4.6 2.514 6.633 4.264 1.235 1.064 1.522 3.709 3.53 2.814 1.272-.567 1.593-3.475 1.963-4.618"/></g></g></svg>