<svg width="1024" height="768" xmlns="http://www.w3.org/2000/svg"><g fill="none" fill-rule="evenodd"><path d="M521.92 324.834c37.364-2.972 73.012 10.952 102.876 32.654 38.49 27.97 71.113 67.973 93.195 110.124a325.33 325.33 0 016.961 5.536c12.29 10.012 24.297 20.587 34.94 32.357 5.942 6.57 21.527 22.546 14.761 32.623-1.436 2.14-3.794 3.368-6.156 4.215-6.622 2.37-13.525 3.572-20.056 6.346-8.062 3.423-16.422 8.217-21.587 15.526-1.469 2.079-1.852 4.532-3.827 5.448-2.094.972-6.042.593-8.33.817l-13.806 1.353c-10.81 1.06-22.112 1.177-32.688 3.788l-48.653 12.013c-9.95 2.457-21.388 3.81-30.825 7.849-14.082 6.027-27.517 14.85-40.992 22.123l-19.547 10.549c-3.182 1.718-5.36 1.74-9.089 2.028l-26.91 2.07c-4.34.334-6.425 2.082-6.994-2.262l-6.255-47.758-3.306-25.254c-.197-1.502-.139-8.942-1.37-9.84-.772-.563-5.302.649-6.14.752l-12.214 1.496-26.39 3.23c-.714.088-4.669.043-5.113.627-.52.685.47 4.61.558 5.456l2.8 26.604c.11 1.028 1.358 5.797.7 6.64-.458.587-3.772.658-4.445.768l-25.457 4.156c-6.077.992-14.019.942-19.764 3.227-3.299 1.312-6.563 4.667-9.413 6.764l-41.386 30.454c-6.277 4.618-14.737 3.442-22.38 4.024l-88.178 6.718.22-8.24 1.163-43.634.508-19.024c.032-1.204-.449-4.727.338-5.617 1.046-1.181 5.721-1.693 7.172-2.123l14.6-4.321 42.827-12.677 42.327-12.53 14.482-4.286c1.115-.33 5.01-.77 5.785-1.712.977-1.188.54-6.257.696-7.763.766-7.35 1.858-14.665 3.188-21.932 9.592-52.418 32.011-105.662 73.58-140.631 27.478-23.116 61.946-35.896 97.593-38.731zm6.59 105.116c-3.7-4.343-9.914-11.428-16.449-10.252-5.31.956-8.205 7.54-10.056 11.917-7.44 17.592-9.749 37.757-12.063 56.558-1.452 11.797-2.62 23.646-3.367 35.509l79.518-6.117c-1.25-8.446-2.254-16.97-3.76-25.375-.755-4.213-2.843-8.006-4.628-11.898-7.984-17.408-16.699-35.67-29.196-50.342z" fill="#FF5678"/><path d="M896.454 87.001l.648.011c17.59.468 33.102 11.787 45.133 23.766 5.95 5.923 11.374 12.89 13.927 20.997 2.948 9.365 1.978 19.666-.265 29.065-4.955 20.771-11.01 41.65-17.82 61.892-3.352 9.958-8.21 19.722-10.74 29.914-2.085 8.397 6.695 14.513 7.031 23.142.34 8.705-5.518 16.883-13.566 19.994-3.428 1.325-7.575.218-10.735 1.576-2.89 1.241-3.902 4.904-4.457 7.716-.756 3.835-.62 7.667-.405 11.536.132 2.367-.458 6.23.697 8.341.793 1.45 2.238 1.924 3.483 2.916 1.7 1.354 2.831 3.04 4.321 4.595 2.456 2.568 4.82 3.96 5.486 7.705l1.064-2.552c1.831 3.35 3.188 4.955 1.447 8.134 5.401-.53 8.601 9.268 10.017 12.984 2.593 6.8 4.374 13.866 6.973 20.67 3.562 9.33 8.242 18.535 10.515 28.296 1.91 8.204 3.42 16.63 5.117 24.891.956 4.651 1.79 9.376 3.538 13.811.68 1.722 1.942 2.881 2.724 4.416 1.07 2.101.651 3.211.702 5.512.09 4.102 2.678 6.765 3.492 10.75.87 4.257 1.58 8.562 2.456 12.828 1.767 8.593 5.04 17.174 5.828 25.878.915 10.107 2.878 20.09 3.865 30.2.864 8.834-.604 18.318 1.241 26.864 1.636 7.585-.392 14.521-1.114 22.052-.183 1.912 2.762 13.296-1.97 11.11.888 2.684 2.134 3.963 2.201 6.907.062 2.754-.648 5.585-1.228 8.255-1.12 5.16-1.866 10.784-4.06 15.618-2.48 5.468-6.262 6.123-11.402 8-3.48 1.27-9.746 5.801-12.488.953-1.635 4.977-4.827 1.537-8.405 1.26.024 0-2.048.766-2.436.82-1.258.168-2.745-.425-3.997-.529-3.12-.259-6.183.158-9.236.79-7.035 1.458-13.84 3.474-20.98 4.49-13.945 1.984-27.61 1.046-41.576 1.915-27.33 1.7-55.112.273-82.463-.463-2.936-.079-6.1.332-8.997-.119-3.123-.487-3.804-1.965-6.237-3.445-4.045-2.458-8.533-.067-12.729.831-12.32 2.637-25.186 2.832-37.604 5.383-25.23 5.181-48.476 15.406-72.643 24.031-10.477 3.74-22.774 9.794-34.072 10.062-13.692.291-10.458-13.195-7.942-21.864-7.91 2.1-20.334 11.696-28.375 6.127-9.583-6.636 2.61-17.668 3.184-25.468-17.127 3.555-36.555 11.352-53.939 5.014-3.345-1.219-6.256-3.797-9.847-4.216-3.733-.436-7.679.883-11.453.86-8.598-.055-16.947-1.199-25.542-.14-19.163 2.36-38.054 3.652-57.372 4.161-19.448.512-38.897 1.664-58.354 1.616-9.876-.025-19.935-1.196-29.79-.67-3.87.205-12.2 3.016-14.919-.917-2.73 3.273-5.049 1.086-8.55 1.45.648-.068-1.825 1.362-2.197 1.5-1.84.684-3.562.476-5.484.456-5.12-.052-9.903 2.344-14.997 2.112-1.288-.058-2.262-.433-3.355-.875-.259-.105-.197-1.219-.612-1.312-2.492-.558-1.848.968-3.43 1.738-1.754.852-4.349-.527-3.35 2.095-4.76-.209-9.269 1.395-13.599-1.427 2.047 4.524-5.104.766-6.973.692-3.106-.125-5.826 1.428-8.924 1.786-3.715.428-7.448-1.295-11.083-.243-2.848.823-3.823 2.804-6.787 1.791-2.518-.86-4.09-2.729-5.313-4.772-1.686-2.819-1.902-4.077-5.968-4.127-3.015-.037-6.046.612-9.09.606-3.488-.007-7.32-.377-10.505 1.281-3.43 1.786-5.445 4.505-9.249 5.904-17.106 6.29-35.884 4.625-53.732 4.518-7.53-.045-13.056.647-15.17-7.942-1.786-7.257-2.502-14.846-4.206-22.163-2.088-8.965-4.383-17.283-9.016-25.298-4.494-7.773-8.275-15.803-12.188-23.877-8.138-16.792-19.466-31.079-32.096-44.725-4.798-5.185-10.297-10.96-10.527-18.427-.157-6.447 2.683-13.126 6.408-18.262 3.326-4.584 8.806-9.755 15.005-8.686 3.733.644 6.18 3.655 8.966 5.914 3.045 2.468 6.362 4.15 10.032 5.496 8.558 3.14 15.735 6.574 23.146 11.992 7.5 5.483 14.51 11.623 20.994 18.272 12.45 12.765 25.205 26.026 32.358 42.555 2.82 6.512 4.62 12.792 6.542 19.544 1.888 6.63 7.028 4.803 12.808 3.85 7.044-1.162 14.123-1.785 21.214-2.52 2.67-.278 6.432-.36 8.04-2.882 1.771-2.78-.259-6.384-.42-9.269-.086-1.54.425-2.677.553-4.18.147-1.709-.358-3.27-.36-4.972-.002-3.66 1.711-6.92 4.558-9.137 5.327-4.15 13.097-6.624 19.404-8.907 8.611-3.118 17.838-4.65 26.706-6.875 9.985-2.506 20.03-4.764 30.07-7.04 9.863-2.236 19.712-4.536 29.682-6.258 5.848-1.01 12.192-.64 17.861-2.487 6.025-1.962 5.026-8.024 5.008-13.395-.029-8.87 1.07-18.002 2.368-26.77 2.764-18.643 9.348-36.887 15.333-54.702 5.766-17.158 12.91-33.626 24.701-47.55 11.48-13.555 25.568-25.822 40.183-35.895 15.228-10.496 32.173-18.079 48.07-27.449-3.475-2.657-7.619-4.924-9.615-9.016-2.254-4.619-1.299-10.142-1.203-15.079.108-5.572.278-10.463 2.268-15.77 1.09-2.908 5.3-8.422 4.654-11.583-1.08-5.308-12.693-9.185-16.969-11.369-6.706-3.426-13.425-6.906-19.605-11.23-5.93-4.15-11.51-9.144-15.104-15.513a31.961 31.961 0 01-2.509-5.675c-.725-2.198-.218-2.947-2.415-3.108-3.507-.258-8.765 3.262-11.72 4.817-15.235 8.017-31.967 18.806-49.943 18.09-6.522-.259-13.854-2.308-16.16-9.11-3.036-8.955 3.303-18.206 8.865-24.674-10.849 1.705-30.855 7.034-39.416-2.646-5.705-6.45-1.402-16.688 3.382-22.28 6.321-7.389 15.332-11.887 23.656-16.588-10.214-3.894-21.52-6.384-30.503-12.9-8.59-6.23-7.529-15.804-.744-23.154 7.254-7.857 19.938-11.88 29.914-14.798 12.236-3.578 24.392-3.29 37.001-3.05 22.63.43 42.07 8.771 60.63 21.383 9.814 6.67 19.487 13.866 28.191 21.943 8.164 7.575 16.873 14.62 24.917 22.276 7.794 7.42 13.925 16.611 22.151 23.542 6.995 5.893 14.664 14.246 23.55 16.862 9.423 2.774 17.905 7.362 27.408 10.093 10.78 3.097 20.04 8.276 30.03 13.217 41.925 20.736 86.932 34.231 131.132 49.118 22.608 7.614 45.366 12.981 68.447 18.796 11.591 2.92 22.354 4.478 34.315 3.95 2.758-.12 5.392-.193 8.112.19 1.994.28 3.51 1.034 5.293-.158 2.562-1.712 3.525-6.168 5.052-8.705-8.512-2.639-16.845-5.494-20.729-14.217-2.447-5.497-3.717-11.908-4.79-17.806-.576-3.174-.589-6.377-1.08-9.553-.27-1.754-1.105-3.587-1.04-5.379-.192.997-6.535-2.282-7.455-2.89-3.549-2.352-4.195-7.09-4.166-11.09.034-4.519 1.398-9.485 4.466-12.91 1.452-1.623 3.18-2.839 5.291-3.45 1.498-.434 3.474.134 4.795-.303 5.86-1.937 6.516-16.438 7.347-21.717 1.832-11.632 3.657-22.737 7.611-33.887a329.434 329.434 0 0127.538-58.592c9.47-15.86 18.93-35.25 39.748-35.477h.641zm-179.977 488.32c-8.427 1.46-16.5 4.44-24.64 6.966-7.602 2.36-15.307 3.863-23.106 5.397-15.52 3.054-31.383 5.85-46.679 9.83-4.307 1.121-6.573 3.651-10.33 5.41-2.787 1.304-5.402-.017-8.3-.128-6.309-.24-13.309 1.817-19.377 3.351-14.325 3.62-27.035 9.905-39.998 16.854-1.16.621-9.003 4.21-8.63 5.696.301 1.213 10.271-2.044 11.857-2.285 8.028-1.223 15.87-3.754 23.84-5.326 6.54-1.29 13.155-2.165 19.668-3.598 7.248-1.594 22.688-7.138 23.302 4.833.663 12.938-13.624 16.917-22.212 22.952.957 1.651 14.735-3.793 16.443-4.343 5.86-1.889 11.294-5.294 17.26-6.744 10.377-2.523 9.12 8.94 3.391 14.038-6.366 5.664-16.894 7.376-20.419 16.093 4.63 1.67 10.681-1.466 14.933-3.025a1052.72 1052.72 0 0116.807-6.015c12.611-4.382 24.59-10.419 37.267-14.594 26.012-8.564 53.507-11.02 80.7-12.542-2.424-9.399-5.074-18.743-7.25-28.204-.933-4.049-1.786-8.117-2.492-12.212-.49-2.848-.073-9.663-2.035-11.909-2.389-2.736-8.61 1.107-11.997 1.034-3.317-.072-5.737-1.784-8.802-2.324-2.91-.512-6.354.302-9.2.795zm-488.755 54.406c0 4.493-.779 9.943 5.131 10.468 4.78.425 14.131.971 17.944-2.428-3.654-1.78-7.807-2.092-11.688-3.119-4.044-1.07-7.778-2.829-11.387-4.92zm97.546-81.866c-1.798.013-4.83 2.012-6.47 2.57-3.002 1.02-6.052 1.881-9.116 2.692-9.206 2.438-21.059 2.818-25.286 12.7-2.11 4.932-3.573 17.615-10.905 17.57-6.517-.043-10.42-9.449-15.069-12.796-4.805-3.458-12.423-1.104-17.605.398-5.266 1.525-13.438 3.482-12.847 10.156.425 4.798 1.291 9.165 1.25 14.066-.05 6.24-.578 12.465-.578 18.704 3.697-5.065 6.922-15.248 13.472-17.285 6.617-2.058 10.36 9.503 12.081 13.934 2.133 5.49 4.814 11.716 4.977 17.666.051 1.868-1.083 7 .216 8.536 1.153 1.364 5.588.375 7.021.226 8.87-.923 17.691-2.072 26.588-2.842 4.57-.395 5.813-1.398 5.366-6.313-.35-3.86-.46-7.539.024-11.414 2.16-17.3 12.814-33.127 30.828-36.13 10.855-1.812 23.532-.488 34.37 1.251 4.176.67 8.711 2.693 12.955 2.517 3.135-.13 2.125-.308 2.767-3.259.45-2.063 1.41-3.823 2.98-5.253 1.24-1.13 2.813-.492 3.982-1.969.846-1.069.72-2.525 1.118-3.757.78-2.397 2.187-5.632 4.99-6.237 4.511-.975 9.306 5.065 11.583 8.18 2.352 3.221 3.063 12.837 6.846 14.096 4.365 1.451 9.558-4.27 10.468-7.874 1.224-4.848-.318-10.093-1.055-14.894-.052-.344-.267-3.534-.504-3.742-.637-.56-5.436-.404-6.286-.446-4.18-.199-8.369-.209-12.554-.22-16.407-.04-32.479-1.654-48.777-3.374 2.367 3.86 6.42 10.195 2.26 14.27-3.083 3.017-8.647 1.503-12.519 2.125-5.47.878-14.69 6.07-19.904 2.274-7.346-5.35.964-14.542 3.692-19.598.584-1.084 2.75-4.898 1.832-6.169-.795-1.1-1.027-.368-2.19-.359zm-122.346 59.46c-3.75 1.143-7.53 2.243-11.362 3.091-4.495.995-11.465.03-13.652 4.974-1.664 3.76-.838 9.826.514 13.571 1.548 4.29 5.181 5.392 9.47 5.72 5.003.381 10.073-.426 15.018-1.11 1.95-.27 4.027-.757 6.007-.76 1.175-.003 3.547 1.072 4.592.193 1.353-1.139.462-7.609.356-9.16-.263-3.84-.992-7.63-1.19-11.478-.143-2.763.9-6.518-2.34-7.107-2.017-.367-5.66 1.531-7.413 2.065zm302.901-76.038c-2.803.485-5.59.832-8.437.79-1.754-.028-3.854-.624-5.475.338-2.994 1.777-2.548 6.458-2.446 9.38.125 3.543.435 7.14.813 10.666.361 3.372 2.211 8.925-.402 11.814-1.843-2.017-2.752-8.612-6.309-8.37-3.91.263-2.103 6.513-1.756 8.751 1.917 12.371 4.102 24.75 5.815 37.156.814 5.898 1.866 11.753 2.411 17.68.365 3.978.488 7.56 4.934 8.384 4.12.764 8.75-.54 12.915-.64 4.288-.103 6.744-.394 9.211-4.27-5.907-1.293-15.264-.502-18.592-6.75-3.88-7.289 4.304-13.847 8.331-18.829 3.091-3.826 9.411-16.546 15.15-8.99 2.065 2.72 2.438 6.87 3.481 10.034 1.697 5.141 3.77 10.208 5.804 15.222 18.61-9.606 37.704-18.266 58-23.659-5.175-8.745-11.58-16.62-15.453-26.099-4.34-10.623-7.935-21.536-12.372-32.125-7.035 4.106-14.556-5.848-21.56-6.249-11.067-.633-23.214 3.886-34.063 5.766zM395.591 602.9c-3.858 2.298-9.533 6.767-10.459 11.387-1.6 7.987 7.515 2.647 10.33.9 5.89-3.66 11.662-4.829 18.427-2.574 8.676 2.891 16.671 7.772 25.983 4.064 4.633-1.846 14.91-5.79 12.137-12.867-1.912-4.878-7.507-.694-10.464 1.055-7.742 4.58-14.153 1.678-21.889-1.627-7.737-3.306-16.449-4.874-24.065-.338zm-274.755-40.988c-3.097 4.39 3.2 3.442 5.963 3.87 5.78.893 11.733 5.502 10.14 12.024-1.553 6.36-7.638 10.334-8.797 17.01-.996 5.731-.036 12.986 5.5 16.133 3.108 1.767 9.903 2.495 13.032.465 4.778-3.1-1.156-7.716-4.317-9.25-4.189-2.036-7.572-3.138-5.499-8.484 2.527-6.517 7.435-11.518 7-18.975-.36-6.178-3.622-13.199-9.563-15.766-4.254-1.837-10.558-1.14-13.459 2.973zm422.867-18.939c5.354-.229 5.567 6.241 5.297 9.423-.369 4.351.421 8.988.512 13.353.121 5.781 1.331 24.713-8.892 21.901-6.574-1.808-11.983-8.108-17.268-12.156-4.862-3.726-17.222-8.195-18.023-15.259-.904-7.979 8.842-9.472 14.426-10.74 7.972-1.81 15.712-6.168 23.948-6.522zm-26.082-210.29c-8.49.82-16.933 2.08-25.013 4.9-5.467 1.908-13.864 3.276-17.739 7.958-3.35 4.05-1.898 9.821-2.987 14.605-1.473 6.472-5.94 5.587-10.274 1.546-5.186-4.838-6.686-8.34-13.905-3.8-14.945 9.397-26.794 23.272-38.649 36.126 9.167 2.776 27.15 3.448 30.195 14.901 1.664 6.262-3.353 10.817-7.86 14.234-5.822 4.413-11.898 8.494-17.592 13.084-5.313 4.283-17.227 21.336-20.597 6.343-2.087-9.28 1.823-18.872.164-28.04-7.208 11.622-14.527 23.216-21.136 35.194-5.625 10.197-8.896 21.104-11.594 32.378 4.206.275 8.584-1.86 12.742-.599 4.004 1.214 5.878 5.002 6.16 8.926.477 6.653-2.595 13.425-4.14 19.814-1.062 4.388-2.28 14.347-7.625 15.775-6.092 1.627-9.915-7.744-12.63-11.552-2.587 3.975-2.544 9.79-2.922 14.347-.259 3.133-2.007 8.99 1.517 10.722 3.298 1.622 10.252-.41 13.78-.559 6.543-.278 13.214-.808 19.76-.615 6.185.183 15.285 3.49 17.701-4.112 1.645-5.175 3.094-23.773 11.868-13.683 3.898 4.481 6.946 9.59 10.711 14.155 3.798 4.605 7.251 4.907 12.923 4.674 11.228-.46 22.192 1.696 33.178 3.437 9.64 1.527 8.375-6.655 8.232-13.939-.219-11.29 2.02-23.098 3.241-34.327 2.904-26.7 8.864-53.08 18.033-78.334-7.67-2.612-21.42 7.926-27.09-.077-4.663-6.579 1.326-15.642 3.764-21.792 3.041-7.673 4.58-15.689 9.54-22.489 1.564-2.147 3.791-5.024 6.821-4.3 2.6.62 3.636 3.936 5.1 5.807 4.643 5.938 10.575 10.391 14.703 16.868 2.525 3.962 4.49 8.196 5.31 12.848.225 1.28-.06 3.898.84 4.971 2.79 3.325 11.583 3.276 15.491 5.315 13.342 6.963 18.031 27.231 23.212 40.011 1.46 3.6 2.907 7.207 3.683 11.022.518 2.55.493 5.792 1.876 8.08 3.02 4.992 12.4.533 17.002-.24 7.715-1.296 15.392-2.532 23.138-3.62 4.726-.663 11.605-2.376 15.206 1.811 3.733 4.341 1.586 11.178-.288 15.835-3.059 7.601-6.967 14.863-10.195 22.395-2.575 6.008-3.857 13.748-8.805 18.377-4.286 4.012-11.379 5.162-16.425 1.897-2.88-1.863-10.274-19.885-12.225-19.08 3.522 13.92 8.686 28.114 14.142 41.4 1.675 4.08 4.552 12.401 8.785 14.614 3.51 1.835 11.471-1.632 15.061-2.304 3.404-.638 10.124-3.402 13.38-1.377 3.944 2.456 4.425 9.006 4.868 13.072.33 3.015-.268 5.265 3.4 5.115 2.584-.105 5.192-1.365 7.672-1.999 5.757-1.469 11.732-2.44 17.593-3.387 13.555-2.189 27.105-4.372 40.654-6.616 11.648-1.929 23.144-1.918 33.67-7.443 5.334-2.8 11.45-3.655 17.131-5.528 5.634-1.857 11.25-3.062 17.147-3.76 12.89-1.524 25.431-3.017 38.17-5.628a863.534 863.534 0 0020.862-4.527c6.172-1.425 12.14-3.689 18.281-5.086 5.11-1.162 9.307-.289 11.496-6.089 1.57-4.159 1.205-8.82 1.608-13.173 1.843-19.889-5.122-39.89-6.547-59.67-.462-6.407-.604-12.833-1.085-19.234-.22-2.933-.087-11.473-3.509-13.054-.31 2.346-.069 6.292-2.734 7.455 1.302-.568-.407 6.361-.499 7.057-.364 2.766.544 5.726.065 8.44.38.955.214 1.674-.496 2.158a3.374 3.374 0 00-1.057 1.487c-.034 1.935.533.795.56 1.463.268 6.656-.857 13.556-.376 20.374.51 7.207 2.118 14.277 3.34 21.385 1.097 6.38 2.28 12.773 3.194 19.182.642 4.498 1.118 9.661-1.302 13.755-4.595 7.773-17.898 6.928-25.646 8.2-12.878 2.113-25.774 4.02-38.699 5.816-4.962.69-9.984 2.263-15.004 2.342-5.363.084-8.233-2.082-11.614-6.04-6.812-7.973-11.205-17.029-16.879-25.702-3.187-4.872-5.838-6.156-11.203-7.643-4.983-1.38-8.982-5.017-13.036-8.04-8.516-6.353-19.513-13.26-25.1-22.615-5.882-9.844 2.405-13.112 10.34-15.798-1.93-5.132-5.718-9.254-8.838-13.669-3.547-5.02-6.763-10.234-10.582-15.065-7.784-9.847-15.559-19.643-23.113-29.674-6.457-8.573-12.983-16.694-21.224-23.639-8.277-6.976-17.492-12.693-26.58-18.533-4.749-3.05-13.084-10.846-19.085-10.049-5.82.774-8.123 11.616-9.577 16.173-1.669 5.23-2.258 12.52-6.146 16.637-5.714 6.05-11.647-3.48-14.374-7.872-4.993-8.045-10.103-16.018-15.089-24.07-2.272-3.67-5.554-7.164-6.903-11.326-.016-.05-.647-3.629-.01-3.128l.044.04-.043-.048c-1.426-1.413-6.694-1.706-8.664-1.877l-.18-.016c-4.144-.39-8.337-.083-12.469.316zm-55.655 225.585c-4.773-.029-9.532.526-14.283.915-4.173.341-7.998-.297-12.164-.548-5.154-.31-7.703.23-6.516 5.553.863 3.873 1.9 9.032 5.877 10.67 5.372 2.211 12.608 1.913 18.332 2.751 4.202.615 8.393 1.17 12.577 1.871 2.78.466 4.206.953 5.507-2.196 1.088-2.639.387-6.165.016-8.89-.286-2.093-.115-5.772-1.103-7.633-1.475-2.778-5.339-2.475-8.243-2.493zm222.515-53.079c7.013 6.41 11.731 14.605 17.027 22.377 3.232 4.745 9.558 12.31 4.964 18.063-3.913 4.904-13.011 3.783-18.486 4.019-8.601.37-15.627 4.257-23.813 6.262-20.617 5.05-3.495-29.604-.639-36.837 2.005-5.073 4.072-10.124 6.495-15.015 1.093-2.205 3.274-8.635 5.992-9.478 3.94-1.22 5.966 8.33 8.46 10.61zm-177.14-72.863c-3.278 6.264-3.81 14.934-5.364 21.775-4.749 20.918-7.526 42.222-9.709 63.542 10.86-4.307 22.321-4.605 33.787-5.659 8.307-.764 15.935-1.639 24.244-1.284 1.416.06 5.49.78 6.656-.425 1.567-1.616-.33-6.125-.794-7.825-2.518-9.233-3.625-18.774-6.487-27.95-2.918-9.358-6.465-18.703-10.239-27.75-2.76-6.617-6.55-13.07-13.24-16.315-5.856-2.84-15.22-5.057-18.855 1.891zm-44.722 40.712c4.474 6.745 10.141 12.645 14.511 19.453 3.098 4.829 6.726 13.761-.716 16.831-2.612 1.077-5.696.611-8.433.659-4.233.073-8.425.437-12.665.336-4.01-.096-7.982-.582-11.982-.791-2.52-.131-5.688.063-7.909-1.385-5.953-3.883-1.648-11.812.27-16.885 2.035-5.389 4.784-10.485 7.437-15.592 1.84-3.542 4.59-10.759 8.772-12.203 4.954-1.71 8.651 6.466 10.715 9.577zm216.95-76.423c9.832 11.434 18.37 23.906 26.41 36.644 3.924 6.216 7.734 12.505 11.538 18.795 2.49 4.116 4.358 9.381 7.39 13.11 6.917 8.502 8.841-10.05 9.86-14.084 3.761-14.87 8.418-29.622 12.561-44.4h-4.246c-16.925-.009-33.152-.26-49.63-5.246-4.666-1.41-8.919-4.474-13.884-4.819zm-35.75 2.883c5.354 3.954 39.625 27.17 25.21 36.127-2.984 1.854-7.859 1.013-11.23 1.28-4.32.34-8.708.758-12.976 1.523-5.525.992-10.893 2.721-16.444 3.597-4.413.697-10.26 1.51-14.204-1.238-6.504-4.534-2.556-13.438-.409-19.202 3.053-8.19 5.944-19.154 13.517-24.032 1.762-1.135 3.921-5.188 5.817-5.559 2.97-.582 8.547 5.901 10.72 7.504zM832.895 206.93c-2.584 1.977-2.702 6.083-3.372 8.981-2.254 9.748-5.4 19.237-7.267 29.09-1.82 9.608-2.392 19.068-1.499 28.806.596 6.495.665 14.487 4.613 20.018 4.725 6.618 14.081 6.28 21.157 8.24 6.808 1.885 13.558 7.726 6.132 13.798-2.639 2.157-6.104 2.508-8.713 4.586-3.218 2.565-5.066 7.161-6.433 10.92-1.126 3.093-1.093 3.684 2.27 4.777 1.536.5 3.088.816 4.704.682 3.68-.306 6.963-2.736 10.044-4.562 7.858-4.657 16.934-10.874 26.316-11.577 3-.224 6.408 1.003 9.324.03 2.717-.91 1.883-1.466 2.355-3.993 1.87-10.016 2.628-19.847 7.735-28.908 2.521-4.47 9.185-13.617 13.652-6.656 1.865 2.907 2.54 4.327 6.678 3.435 3.367-.725 7.066-3.388 6.398-7.277-.629-3.669-5.454-6.167-8.378-7.775-3.895-2.14-6.626-1.893-10.867-2.4-11.653-1.393-3.483-18.436-1.803-24.83 1.056-4.02 2.291-9.215-.48-12.844-4.22-5.52-13.41-3.705-19.2-2.922-8.008 1.083-16.749 1.66-24.243-1.974-7.928-3.844-11.307-12.514-18.74-16.729-2.748-1.558-7.56-3.078-10.383-.916zm34.793 70.407c5.51-.074 2.832 7.781 1.323 10.422-3.178 5.57-9.984 7.724-15.962 5.67-4.727-1.625-9.841-8.803-2.437-9.993 3.552-.57 7.067-.338 10.432-2.027 1.917-.962 4.394-4.042 6.644-4.072zm-13.82-41.77c3.423 2.078-2.42 15.35-3.403 18.036-1.602 4.384-3.028 7.214 1.048 10.593 2.834 2.35 8.424 4.378 5.755 9.061-2.47 4.333-10.945 2.516-14.391.396-5.01-3.083-3.533-8.988-2.428-13.834.722-3.175 7.324-27.952 13.419-24.252zm-538.999-87.142c10.556 4.51 21.35 8.582 32.52 11.3 9.76 2.374 19.358 4.935 29.418 4.377 9.307-.515 10.417 8.628 5.101 14.96-2.888 3.44-6.239 3.354-10.448 3.487-4.927.156-9.402 1.523-14.154 2.747-7.237 1.864-14.564 3.447-21.577 6.078-3.619 1.358-7.19 2.955-10.418 5.101-2.029 1.35-6.557 3.782-4.162 5.668 3.462 2.725 13.738-1.008 17.858-1.254a438.893 438.893 0 0028.706-2.639c4.672-.589 9.688-1.17 14.113-2.868 2.895-1.11 6.1-3.866 9.378-3.166 6.916 1.477 3.49 11.845.35 15.218-4.664 5.01-11.743 7.221-17.766 10.067a244.897 244.897 0 00-12.482 6.324c-1.93 1.052-10.93 4.993-10.646 7.985.3 3.145 7.403 1.56 9.16 1.273 11.726-1.907 22.307-6.44 33.141-11.08 4.742-2.032 9.551-3.98 14.194-6.233 3.243-1.574 6.431-3.972 10.014-4.687 8.448-1.687 8.078 7.748 11.404 12.845 9.886 15.148 28.987 21.61 43.85 30.364 5.621 3.311 10.984 7.124 16.143 11.113 3.685 2.848 5.158 6.768 9.273 3.012 3.43-3.13 5.083-7.723 7.281-11.705 2.56-4.636 5.977-8.729 8.6-13.327 3.876-6.793 5.037-13.272-3.475-15.772-8.936-2.624-16.008-6.537-23.603-12.12-18.639-13.702-34.105-31.199-52.69-45.006-17.218-12.792-35.476-24.796-57.06-28.23-20.459-3.258-42.904-2.456-62.023 6.168zm558.413 98.393c-.437 3.772-1.365 11.817-6.606 12.118-6.364.365-2.09-18.968 1.515-21.144 5.772-3.484 5.462 5.83 5.091 9.026zm-59.217-1.54c-7.944.658-10.208 9.36-2.268 12.44l2.268-12.44zm29.456-7.636c-1.02 3.949-.657 10.286-3.826 13.317-4.467 4.27-6.412-1.997-6.38-5.571.033-3.535 1.785-12.377 6.516-12.843 4.042-.398.678 4.288 3.69 5.097zm85.731-87.859c-2.904 6.043.218 12.007 1.956 17.947-3.565 1.15-8.369.28-10.546 4.048-1.372 2.375-1.133 5.951-.722 8.523.337 2.11 2.067 4.951.627 6.91-1.885 2.562-6.564 1.377-8.643 4.228-3.16 4.336-1.387 14.24 3.047 17.504 6.232 4.585 2.513-6.667 2.132-8.716-.956-5.133 4.362-4.435 7.994-6.508 1.95-1.112 2.297-1.327 2.744-3.7.413-2.188.194-3.923-.327-6.28-1.768-7.997 1.323-6.69 7.676-8.453 5.48-1.52 5.041-5.9 3.65-10.503-1.093-3.608-4.348-9.527-.822-12.603 1.4-1.22 3.524-.449 3.826-2.997.204-1.72-2.104-4.54-3.316-5.529-4.177-3.41-7.578 2.595-9.276 6.13z" fill="#000"/></g></svg>