<svg width="1024" height="768" xmlns="http://www.w3.org/2000/svg"><g fill="none" fill-rule="evenodd"><path d="M285.204 455.106c4.669-3.182 14.216-14.572 19.218-17.204 11.123-5.853 60.675-17.36 62.286-18.04 2.454-1.034 18.395-4.652 27.683-6.937 21.81-5.368 99.965-40.036 120.565-48.925 2.63 6.92 24.34 37.468 20.616 40.599-12.262 10.307-34.241 23.141-48.445 30.527-11.488 5.974-23.656 10.918-35.94 14.954-13.947 4.584-23.52 9.498-37.419 14.186-13.675 4.613 2.668 19.04 9.69 22.02 7.878 3.345 20.079 5.042 28.127 7.94-14.17 22.025-26.07 48.756-28.452 75.139-.573 6.35-5.413 12.17-13.286 10.27-4.062-.982-41.546-5.974-47.658-7.368-40.803-9.305-114.052-58.034-95.189-108 4.321 1.995 14.187-6.423 18.204-9.161z" fill="#FF5678"/><g fill="#000"><path d="M308.031 190c3.048-.257 10.93-6.346 6.794-9.426-4.172-3.107-7.17 7.306-6.794 9.426m-158.786 23.353c.797-.14.45-4.501-.805-5.058-3.96-1.758-4.294 4.849-4.39 6.617-.121 2.23-.4 8.516 4.414 6.793 2.733-.978 1.037-6.68.781-8.352M383 233.723c-.107 3.892 7.756 11.376 10.687 6.887 2.466-3.772-10.485-14.635-10.687-6.887m-278-87.779c2.278 5.812 13.545-2.109 13.964-6.371.86-8.73-14.082.563-13.964 6.371M199 171c5.246-.431 12.15-7.102 17.21-9.594 3.424-1.686 12.74-3.696 13.754-7.525.882-3.327-14.926 3.794-16.276 4.427-6.2 2.905-11.792 6.217-14.689 12.692m393.898-46c4.182-3.234 9.266-5.32 14.627-5.183 2.677.068 8.262 1.743 8.472-2.887.342-7.528-23.302 1.653-26.997 3.13l3.898 4.94M331.999 418.387c-3.068-5.095-8.586-8.04-12.736-12.387 1.52 7.137-1.908 13.485-4.264 20l17-7.613M864.805 527c1.69-5.659 3.384-11.286 5.361-16.858 2.212-6.24 3.312-6.78-1.983-11.142l-13.184 24.918c3.129 1.33 6.394 2.624 9.806 3.082M409.999 117.365c-5.818-6.558-33.086-6.97-29.712 7.504 1.178 5.054 7.882-.315 12.081-1.493 4.168-1.17 15.97-1.325 17.631-6.011m-1 92.85c-.705-1.674-2.113-7.715-4.203-8.19-2.036-.465-10.07 5.871-11.58 6.838-7.533 4.827-14.876 10.02-22.217 15.137 2.811 0 5.363-1 8.157-1.022 3.32-.029 5.701 1.335 8.938.557 6.955-1.67 15.027-9.377 20.905-13.32m7.537-149.645c.653-3 34.745 6.005 38.842 7.654 2.232.897 13.75 6.884 11.275-2.14-1.409-5.138-14.718-9.056-18.983-10.465-10.843-3.579-22.275-6.124-33.82-5.534-2.242.114-19.22 1.094-12.13 7.918 2.442 2.35 11.2 1.61 14.816 2.567m7.463 412.143c6.352 3.125 12.837 5.515 19.476 7.96 2.95 1.084 7.544 3.927 10.797 3.213 2.665-.586 3.519-4.644 4.919-7.36 5.118-9.938 11.23-17.955 18.808-26.15-3.518-2.565-21.381 8.755-25.8 10.426-4.426 1.673-8.6 3.358-12.93 5.357-4.078 1.882-12.123 3.565-15.27 6.554M536.463 388c9.257-4.189 18.031-11.617 25.623-18.268 8.717-7.636 16.532-15.64 22.913-25.521-3.84.196-12.318 12.548-12.413-.9-.049-6.86 9.352-13.617 12.27-19.98-7.258-4.098-13.91 20.388-22.24 14.453-8.022-5.72 4.637-25.382 7.076-31.586-4.706-3.131-31.518 31.915-35.4 36.4-2.426 2.806-8.166 6.543-9.536 9.817-.816 1.95-.933 8.135-.538 9.928.821 3.75 4.98 8.24 6.832 11.73 2.344 4.42 4.385 9.013 5.413 13.927m382.692 126.352c-8.005-11.3.263-16.227 6.773-25.605 5.206-7.502 9.995-15.771 13.295-24.149 8.253-20.953 15.7-40.433 19.776-62.598-5.61 2.56-9.116 12.306-11.922 17.441-3.774 6.904-7.093 14.15-11.287 20.839-7.848 12.516-15.553 25.868-25.536 36.717-4.523 4.917-8.352 10.448-13.57 14.878-2.385 2.024-6.946 3.685-8.703 6.216-1.658 2.389.197 3.916-.433 6.77-.646 2.928-3.608 6.05-4.879 8.87-1.67 3.702-3.224 7.414-5.087 11.035-2.032 3.949-2.587 6.014-3.135 9.873-.599 4.22 1.237 4.658-2.448 8.546l20.033 8.833c2.253.995 4.507 1.988 6.76 2.982l1.426-2.671c1.835-1.783 3.523-6.178 4.572-8.533 4.388-9.824 9.343-19.687 14.365-29.444M274.32 466.919c-18.96 49.92 47.668 91.95 88.683 101.247 5.681 1.287 11.225 2.972 16.88 4.355 6.166 1.507 11.641 1.207 17.796 1.838 4.896.5 7.23 4.285 11.844 5.327 7.71 1.742 7.239-4.053 7.791-10.261 2.34-26.325 15.776-51.724 29.995-73.69-6.495-2.324-12.93-4.86-19.343-7.404-5.487-2.178-13.888-8.3-19.787-8.624-4.362-.238-11.01 3.487-15.247 5.122-7.056 2.723-14.133 5.042-21.487 6.899-12.86 3.247-27.17 7.673-40.477 8.008-3.837.097-14.36 1.884-17.121-.487-5.264-4.52 2.042-8.29 6.45-9.903 26.264-9.618 54.15-13.707 80.49-23.568 13.554-5.075 26.968-10.742 40.607-15.742 11.757-4.309 24.071-8.124 35.433-13.425 15.005-6.998 30.074-15.716 43.067-25.987 2.6-2.055 8.05-5.108 9.832-8.086 1.57-2.622 1.374-.007 1.048-3.186-.234-2.283-3.028-5.378-4.177-7.535-4.282-8.043-8.152-16.305-11.405-24.817-20.726 8.89-40.444 20.99-60.865 30.49-20.554 9.563-43.74 16.31-65.728 21.689-9.359 2.29-20.118 3.014-28.7 7.54-3.648 1.921-7.253 4.145-11.16 5.257-1.153 2.213-2.288 2.647-3.407 1.3-.701-.786-1.607-1.118-2.719-.996-2.39.404-4.826 1.533-7.06 2.4-11.31 4.384-22.138 9.874-32.874 15.476-5.09 2.653-10.309 5.267-15.179 8.298-2.61 1.625-4.95 3.263-7.085 5.494-2.56 2.675-1.951 4.874-6.095 2.971M700.98 170.53c4.79.078 9.158-2.518 14.155-2.373 7.857.227 14.077 6.319 18.637 12.194 9.024 11.624 6.723 25.647 2.19 38.656-2.169 6.217-5.147 12.185-8.867 17.627-3.294 4.818-9.183 9.375-11.482 14.74-3.791 8.846 3.858 5.084 8.542 3.195 5.888-2.378 11.409-5.333 16.407-9.314 22.277-17.742 39.223-42.403 44.9-70.725 2.77-13.818 2.556-29.972-7.07-41.25-8.8-10.313-23.99-13.682-36.977-11.77-14.037 2.068-26.759 8.014-38.189 15.667-3.32 2.224-6.36 4.652-9.477 7.139-4.09 3.263-6.54 3.348-5.517 8.462.76 3.802 2.83 7.742 4.164 11.39 2.498 6.833 1.587 8.601 8.583 6.362m15.277 117.801l-.97 1.657c6.684.318 12.91-5.578 18.604-8.456 7.398-3.741 13.967-8.844 20.45-13.997 11.432-9.09 23.014-19.332 31.523-31.264 19.077-26.747 36.405-60.658 31.2-94.57-5.61-36.55-37.579-50.618-71.642-45.78-15.35 2.18-29.056 9.034-42.794 15.992-6.925 3.507-12.77 8.058-19.113 12.462-3.292 2.287-6.296 2.584-6.51 6.582-.163 3.013 5.046 9.827 6.454 12.557 17.25-17.596 35.838-32.153 61.887-33.053 30.99-1.07 49.315 28.314 49.18 56.452-.134 27.595-12.036 54.14-31.009 73.971-8.622 9.013-16.843 16.245-27.431 22.823-5.278 3.279-9.17 6.223-15.072 8.4-4.174 1.541-3.74.73-4.804 4.593-.905 3.28.02 8.226.047 11.631m-168.391 374.91c-.403 4.973-1.414 9.869-2.539 14.72-.404 1.741-2.679 7.24-2.28 9.198.66 3.237-.218 1.156 2.618 2.844 2.958 1.763 6.402 1.657 9.641 2.192 2 .33 9.324 3.778 10.556 3.234 2.154-.952 2.086-4.308 4.449-5.638 3.22-1.814 7.965-.26 11.002 1.159 8.12 3.787 13.7 11.628 21.557 15.92 13.954 7.62 30.512 11.84 46.08 13.58 8.433.944 17.063 2.599 25.392.623 6.562-1.557 15.091-1.414 18.658-8.455-31.701-8.718-80.087-19.387-92.621-55.767-6.814 6.178-18.201 2.851-26.435 1.998-9.06-.938-17.154-.72-25.439-4.849-.606 3.246-.79 5.94-.64 9.241m-280.68-225.318c14.923.901 29.07-6.16 38.254-18.076 2.26-2.935 4.579-5.93 5.936-9.407.295-.88.588-1.763.882-2.644 1.425-2.433.8-3.581-1.87-3.444-1.505-2.064-5.32-2.758-4.235-6.499.817-2.822 3.834-2.868 6.456-3.756-1.306-2.194-2.087-3.295-3.956-5.246-4.857 4.37-13.672 12.945-17.085 2.907-1.64-4.819 1.246-9.425.531-14.073-.294-1.923-2.731-6.834-4.144-7.983-7.523-6.125-18.358-3.59-26.34.015-5.501 2.485-6.685 3.65-7.582 9.347-.911 5.792-1.757 11.582-2.768 17.357 3.3-1.72 3.902-5.436 6.055-8.112.806 1.468 1.613 2.938 2.422 4.406 1.136-.637 2.197-.604 3.181.102 1.593 2.45.59 6.08.101 8.648 5.312-.495 7.557 5.43 2.202 7.831-5.547 2.486-8.05-4.292-8.237-8.682-2.07 2.472-4.196 1.15-5.639 2.42-1.441 1.27-2.009 3.916-2.522 6.815-.843 4.763-3 11.635-1.004 16.413 2.963 7.097 12.41 10.79 19.362 11.66M699.61 209.976c-4.937 6.867-13.356 15.856-15.117 24.152 5.439-3.191 16.938-18.548 19.9-6.315 1.7 7.022-7.021 15.389-9.164 22.188 8.577-2.822 14.686-11.66 20.038-18.481 6.824-8.697 13.791-20.161 15.533-31.22 1.409-8.949-4.8-17.29-14.023-18.167-4.712-.448-9.632.3-14.184 1.393-2.076.497-5.172 1.115-7.025 2.227-2.326 1.397-2.644 4.667-4.836 1.947-2.91 5.487-5.822 10.974-8.733 16.46 2.897-1.052 8.809-5.514 11.975-5.053 4.624.675 5.574 7.39 5.636 10.87M237.28 75.643c-12.945.382-26.476 3.139-38.73 7.236-3.044 1.019-15.883 4.641-13.18 9.892 1.788 3.47 11.423-1.434 14.336-2.252 12.484-3.505 25.338-5.817 38.125-7.927 3.096-.51 13.6-.46 14.141-4.519.664-4.952-11.036-2.435-14.692-2.43m352.313 564.822c-7.017.857-13.754.537-20.777-.323-5.911-.723-11.93-3.143-17.811-3.143 0 6.295-.427 6.335 6.215 7.682 4.636.94 9.338 1.47 14.023 2.125 8.249 1.153 17.406 4.39 25.756 2.727-.202-1.093-.842-8.47-1.707-9.2-.487-.41-4.99.139-5.7.132M476.19 174.677c1.962 1.25 6.472 6.235 8.81 6.323-.835-5.771-7.274-15.82-14.668-12.253-1.812.875-5.618 5.229-3.896 7.15.92 1.027 7.35-1.213 9.754-1.22m-68.409 51.34c.071-1.006.144-2.012.218-3.017-2.713 1.595-6.072 2.35-8 4.92l6.944 3.08.838-4.983m213.676 153.218c12.819 4.49 24.571 10.485 34.006 20.662 8.157 8.8 11.99 24.307 13.98 35.843 4.927 28.546-4.579 55.005-10.847 82.313-3.18 13.853-7.927 27.184-12.372 40.679-3.88 11.784-7.209 24.124-12.566 35.33-4.542 9.5-10.345 18.868-14.341 28.724-2.15 5.304-5.635 23.506-13.797 17.79-2.227 5.823-2.768 5.327-.388 9.372 1.724 2.928 7.569 6.994 10.328 9.378 7.35 6.356 16.66 11.594 25.283 16.044 15.794 8.152 32.724 14.25 48.99 21.68 7.19 3.289 14.988 7.172 13.374 16.58-1.352 7.885-5.914 13.865-13.032 17.373-6.68 3.295-16.238 5.839-23.589 6.872-4.361.614-5.361-1.201-8.917-1.829-3.957-.697-8.575.652-12.658.617-18.326-.16-34.371-4.77-49.18-15.398-5.293-3.798-13.083-14.1-20.009-14.099-3.54 0-2.793 2.15-5.907 3.413-3.843 1.556-10.465-1.382-14.243-2.072-8.049-1.469-16.234-2.961-21.594-9.894-5.795-7.492-3.735-16.773-1.245-25.093 2.807-9.379 7.53-18.894 9.537-28.415.489-2.316.939-6.633.443-8.99-.772-3.655-4.463-5.836-4.574-9.795-.034-1.204 1.69-2.792 1.99-4.035.666-2.73.563-5.562.837-8.34.489-4.956 1.62-9.704 2.399-14.602 1.772-11.145 5.267-21.087 8.65-31.825 3.282-10.422 6.406-18.178 12.752-27.202 3.285-4.673 14.275-21.324 8.908-26.116-7.345 14.428-15.934 25.68-27.175 37.166-8.598 8.786-17.004 20.596-27.765 26.853-11.831 6.88-26.289 10.927-39.354 14.565-6.214 1.729-11.37 5.565-18.069 6.275-7.26.768-14.65-.138-21.76-1.757-2.001-.455-7.774-3.53-9.585-3.335-2.668.29-6.506 5.046-9.434 5.92-7.127 2.125-11.994-1.936-17.4-5.69-5.867-4.073-7.642-5.085-14.412-5.576-8.292-.6-16.356-3.522-24.512-5.312-14.34-3.146-26.529-9.522-39.563-16.197-14.941-7.649-27.721-18.198-38.983-30.66-16.555-18.321-39.61-69.088-12.567-86.863-15.92-2.162-30.502-9.114-32.443-27.134-1.014-9.43.895-19.874 3.266-28.963 1.082-4.15 2.372-8.274 3.608-12.38a8.5 8.5 0 001.475-4.555c.571-2.137-.252-3.202-2.47-3.192-4.194-4.903-7.347-9.23-8.194-16.193-.267-2.206-.506-5.588 1.064-7.464a5.361 5.361 0 012.626-1.51c2.458.14 3.152-1.071 2.084-3.632 1.193-3.628-.577-6.455 3.92-7.97 1.441.307 2.876.643 4.305 1.006 1.824.831 3.01.229 3.562-1.802 4.236-1.658 2.282-4.109 8.038-1.976 3.483 1.291 6.797 3.514 9.334 6.222 3.182-2.043-4.055-14.668-4.296-18.696-.573-9.495 3.353-17.345 8.46-25.144 9.927-15.156 23.783-28.188 37.447-39.914 26.172-22.456 53.667-43.834 83.219-61.725-12.191-8.467-26.434-10.762-40.94-6.827-13.373 3.628-24.213 10.217-36.523 15.98-11.404 5.337-23.509 7.53-27.145-7.035-4.074-16.315 8.924-22.372 20.583-29.688-2.911-2.171-12.495-.619-16.12-.362-8.074.57-15.796 2.394-23.642 4.006-3.763.772-7.22.598-10.948 1.355-5.542 1.125-11.329 2.385-16.936 3.988-13.34 3.815-26.58 9.605-38.108 17.407-9.963 6.74-16.875 16.257-24.902 25.022-9.154 9.994-17.926 19.828-31.497 23.486-6.355 1.714-13.81 3.269-18.315-2.407-4.192-5.278-4.426-11.639-4.288-18.092.303-14.255 7.19-29.658 15.2-41.306 8.694-12.644 20.34-19.885 31.343-30.062-15.904 1.137-31.274 9.52-45.9 15.315-3.078 1.22-6.185 2.59-9.28 3.72-3.3 1.203-5.486.466-8.648 1.017-7.215 1.26-13.413 4.3-20.432-.548-13.278-9.171.025-27.828 9.168-33.553 12.734-7.973 25.689-14.686 39.718-20.373-7.595-8.238-1.109-19.994 5.892-25.839 8.857-7.395 20.136-11.632 30.809-15.59 8.44-3.132 16.73-6.138 25.498-8.022 9.218-1.98 19.996-5.006 29.35-4.715 8.77.272 16.55-1.274 25.433-1.52 7.392-.206 14.801-.029 22.192-.22 19.886-.514 39.845.827 59.28 2.258-15.398-45.029 86.03-31.123 107.668-25.242 19.665 5.346 42.197 11.547 58.715 24.23 6.998 5.373 13.644 11.48 19.853 17.748 9.16 9.248 14.231 21.358 19.076 33.311 12.29-6.02 24.04-12.58 37.487-15.566 12.795-2.84 25.902-6.688 38.772-8.833 9.785-1.632 23.988-2.738 32.223 4.17 8.944 7.505 13.604 19.184 18.943 29.185 25.64-24.329 54.24-42.078 90.796-40.898 35.772 1.156 59.295 32.047 63.632 65.521 4.777 36.886-11.654 75.428-33.926 103.992-9.987 12.81-20.32 25.182-33.763 34.739-6.666 4.737-13.698 9.927-21.007 13.626-3.645 1.844-7.63 3.51-11.456 4.93-1.727.64-3.505 1.282-5.3 1.717-5.129 1.244-4.133-.417-6.04 4.072-1.547 3.645-1.357 9.916-2.02 13.916-.757 4.572-1.207 9.207-2.312 13.717-1.916 7.817-3.91 15.442-6.309 23.076-4.542 14.447-10.653 29.008-18.14 42.186 6.349 2.758 15.24 3.036 22.025 3.872 7.343.903 14.697 2.803 22.325 4.936 15.284 4.273 28.942 7.88 43.476 14.279 15.089 6.642 28.537 16.56 43.066 24.454 13.36 7.259 26.865 16.35 39.273 25.065 2.952 2.073 4.78 3.875 7.13 6.5 2.404 2.683 3.17 3.208 6.042 5.532 1.296 1.047 5.063 6.332 6.542 6.526 2.649.351 2.242-1.626 4.321-4.386 4.342-5.762 10.398-10.226 14.71-16.134 3.595-4.927 7.346-9.915 11.189-14.152 9.302-10.252 17.01-21.616 23.622-33.906 3.442-6.399 7.066-12.488 10.804-18.527 3.72-6.012 10.336-13.947 17.747-13.592-.596-3.061-2.49-3.571.778-5.443 2.104-1.206 6.2.738 7.822 1.962 4.292 3.244 4.482 9.536 4.212 14.263-.698 12.18-3.246 24.205-6.8 35.723-4.27 13.846-9.62 26.061-15.462 39.276-4.65 10.527-10.424 24.448-21.995 29.252 7.77 11.096 4.039 20.137-1.155 31.917-3.796 8.612-8.81 17.51-16.447 23.209-8.608 6.424-17.945.974-26.949-3.272-5.437-2.565-22.066-8.618-18.684-16.511-4.154-.554-6.767-3.572-10.548-4.5-4.003-.983-3.315.642-7.55 1.252-3.248.467-8.105-2.441-11.162-3.482-5.108-1.737-10.2-3.519-15.3-5.275-14.355-4.945-28.468-9.813-42.965-13.774-26.973-7.37-54.279-11.55-81.157-18.132-5.388-1.32-10.745-2.592-16.355-3.65-1.158-.217-7.169-.552-7.9-1.792-1.278-2.173 2.654-14.333 2.991-16.811 2.216-16.268 1.492-34.076-1.629-50.16-1.296-6.685-7.085-15.342-7.035-21.868.035-4.378 3.914-9.158 6.192-13.124 5.634-9.805 11.537-20.4 15.71-30.603 6.39-15.61 10.304-33.23 13.127-49.948 1.47-8.716 3.18-18.164 3.58-26.981.306-6.72-.246-13.77.73-20.653-3.72.353-8.983 2.28-12.333.217-4.231-2.603-5.367-10.036-4.827-14.475-14.486 2.529-14.005-11.21-13.108-21.952-26.18 0 7.348-38.904 11.537-47.258 1.925-3.84 1.868.473 1.018-5.467-.373-2.611-2.158-5.505-3.168-7.906a258.52 258.52 0 00-7.12-15.487c-5.368-10.74-11.45-21.117-18.086-31.123-5.974 4.163-11.359 9.09-16.348 14.378 3.2-8.37 12.979-18.739 8.796-28.243-3.876-8.81-16.823-8.2-24.47-6.588-20.776 4.38-40.702 10.76-60.495 18.147 6.131 3.516 15.518.8 21.61-1.888 7.543-3.33 15.655-6.823 23.785-8.587 7.09-1.538 16.402-1.013 14.353 8.537-1.66 7.738-9.23 15.19-14.223 20.976-11.003 12.747-24.8 22.615-38.352 32.475-14.568 10.6-28.605 22.115-43.357 32.407-26.667 18.606-55.34 34.776-82.892 52.143-14.317 9.024-30.54 16.286-46.067 22.974-17.08 7.357-33.456 15.234-51.176 21.045-9.841 3.228-19.595 5.884-29.265 9.557-6.061 2.3-16.616 6.912-20.62.08-8.134-13.879 21.3-32.13 29.365-40.615 5.564 5.404-21.875 25.54-19.727 33.41 1.687 6.182 8.214-1.802 11.366-3.487 5.093-2.724 11.125-4.093 16.244-7.2 10.499-6.375 22.947-13.726 25.344-26.903-1.668-1.76-1.647-3.385.063-4.875.761-.905 1.365-1.9 1.81-2.983.747-2.07 1.047-4.664 1.447-6.86 1.182-6.49-1.785-12.565.988-18.916-16.18 12.26-31.734 26.109-47.094 39.381-13.777 11.905-28.153 27.494-33.216 45.258-.648 2.276-1.726 4.858-1.608 7.26.23 4.716.701 3.7 4.5 5.215 3.8 1.517 9.333 1.386 13.419 1.547 2.33.09 12.731-2.376 10.663 2.735-1.192 2.947-8.403 2.836-10.985 3.108-6.48.684-9.994-.018-6.924 7.006 1.376 3.148 4.164 5.28 6.351 7.717 6.087 6.779 9.393 17.176 14.18 25.14 5.456 9.073 11.453 17.7 17.824 26.15 2.63 3.487 6.143 10.04 9.788 12.528 3.403 2.323-.601 2.131 5.052 1.187 2.464-.41 4.697-2.013 7.054-2.587a1019.941 1019.941 0 0043.153-11.54c18.642-5.421 38.205-10.044 55.991-17.85 15.933-6.995 31.748-15.322 47.848-22.406 4.702-2.067 9.398-3.438 13.052-7.243 4.411-4.592 8.063-10.604 12.131-15.54 6.919-8.397 13.296-16.937 20.743-24.894 5.544-5.921 15.368-16.927 23.19-19.29 14.86-4.49 6.905 18.145 4.984 23.866 3.494.793 5.33-3.688 9.43-2.4 4.909 1.545 5.417 8.073 6.031 12.164.163 1.09-1.312 3.127-.864 4.099.153.331 3.356 2.225 3.974 3.103 2.243 3.19 1.802 7.067.952 10.506-4.398 17.815-20.03 30.823-31.526 43.964 5.143-.973 8.956-3.904 13.81-5.357 4.558-1.363 9.139-1.292 13.732-1.683 4.809-.41 9.428-2.209 14.348-2.3 5.163-.096 10.106 1.374 15.226 1.957"/><path d="M77.737 219c-2.835 1.853-3.635 3.671-3.732 7.946-.04 1.753.081 8.294 2.532 8.047 2.3-.231 1.2-13.744 1.2-15.993m-14.645 10.653c1.32-13.701 6.333-27.632 18.125-36.169 2.916-2.111 6.215-2.036 9.411-3.368 1.921-.8 4.956-4.52 7.137-4.08 8.027 1.624-1.247 12.29-2.605 15.096-4.209 8.693-3.925 16.331-3.799 25.709.096 7.127 1.577 19.142-2.016 25.593-3.83 6.869-12.138 2.408-16.775-1.657-5.852-5.133-10.272-13.306-9.478-21.124M204.01 270.142c0 7.645 6.205 2.47 5.984-2.969-.325-8.006-6.274-3.076-5.984 2.969M237 227.876c-6.792 6.108-12.031 9.535-13.34 18.927-.99 7.114-.006 14.16.036 21.326.071 12.012-9.629 24.64-20.067 10.871-7.614-10.043-4.883-25.835 1.326-35.929 3.258-5.295 7.91-10.534 13.282-13.834 4.041-2.484 15.409-7.37 18.762-1.361M142.151 413c-.787 1.863-2.636 9.469 1.136 7.749 3.33-1.52 1.172-6.562-1.136-7.749m-19.927-23.483c-.582-2.86-.345-20.79 4.594-19.445 3.879 1.054 4.52 10.232 6.1 13.426 5.885 11.895 19.392 19.302 24.05 31.58 5.199 13.71-10.52 14.135-18.86 8.583-9.877-6.574-15.591-22.67-15.884-34.144M110.117 316c2.143-2.894 2.36-4.44 1.138-7-1.562 1.699-1.285 4.127-1.138 7m1.55 12.945c-11.173 1.251-11.732-19.34-9.819-26.41 1.524-5.63 4.8-11.681 8.173-16.27.68-.925 7.141-9.244 8.407-9.264 4.86-.077 3.525 5.414 3 7.458-1.65 6.44-2.305 11.822-1.86 18.962.476 7.64 4.094 25.778-7.9 25.524M619 150.618c-15.977 13.399-31.145 27.905-48.518 39.625-8.5 5.736-17.388 10.81-25.87 16.64-4.321 2.968-8.73 5.626-13.522 7.808-4.234 1.928-7.002 2.179-3.49-2.397 2.349-3.057 7.612-5.187 10.81-7.36 4.923-3.347 9.572-7.06 14.75-10.028 9.128-5.237 18.2-9.465 26.615-15.887 7.47-5.699 15.174-11.263 22.302-17.32 3.057-2.597 13.192-14.52 16.923-11.081M619.323 199c7.185 6.146-10.792 22.984-14.892 26.8-4.323 4.025-9.084 7.615-13.786 11.18-1.655 1.256-10.685 9.66-12.977 8.981-4.522-1.339 1.415-6.79 2.959-8.212 4.993-4.604 10.093-9.072 14.975-13.8 4.403-4.26 9.17-8.205 13.429-12.603 3.45-3.563 6.347-9.6 10.292-12.346M87 446.756c-1.877-4.347-5.236.48-3.533 2.65 1.61 2.055 3.292-1.815 3.532-2.65m-11-8.584c1.006-6.392 3.33-9.944 9.327-4.488 4.12 3.75 12.408 14.41 11.621 20.222-1.032 7.623-9.428 5.46-13.78 1.474-4.462-4.086-6.432-11.54-7.168-17.208M89.14 563.975c-7.346-.56-13.613-6.199-16.732-12.808-2.625-5.558-5.11-14.517 4.112-11.596 6.01 1.905 29.177 25.3 12.62 24.404M178.164 527.74c-5.677 1.293-11.292-2.446-14.783-6.662-2.172-2.626-7.227-11.83-4.68-15.62 3.55-5.285 8.91 5.338 10.759 7.441 2.9 3.293 12.384 9.59 8.704 14.841M183.277 384c-4.45-2.065-8.581-4.55-10.37-9.483-1.139-3.141-2.095-12.56 2.96-12.517 5.845.052 19.23 21.057 7.41 22M152.079 286.003c5.958-.108 7.369 3.178 8.197 7.9.563 3.203 3.292 14.08.458 16.308-4.05 3.184-10.493-4.111-11.795-6.975-2.684-5.896 1.027-11.695 3.14-17.233M254.458 612.138c2.901 1.32 9.501 4.247 6.979 8.79-2.637 4.75-10.208.133-13.036-1.943-1.184-.869-8.706-6.557-8.391-8.464.663-4.054 11.032 1.236 14.448 1.617M63.326 315.508c1.983 4.964 4.214 22.018-6.225 12.809-3.186-2.81-3.666-6.321-2.569-10.18 1.587-5.592 3.897-4.483 8.794-2.63M616.538 252c-2.312-4.723 3.395-7.77 6.445-10.813 1.991-1.988 10.364-12.771 13.109-12.162 5.647 1.253-16.778 20.869-19.554 22.975M152.004 594.086c5.447-.874 6.718 5.176 10.227 7.813 1.505 1.132 6.671 2.126 5.632 4.528-2.73 6.306-16.126-8.101-15.86-12.341M198 451.192c3.744-1.567 14.55 6.851 11.447 10.488-4.638 5.441-11.183-7.511-11.447-10.488M276.917 572.986c-2.729.27-14.246-3.35-9.979-8.196 2.996-3.405 10.958 5.114 9.98 8.196M139 549.728c-2.71 1.083-12.481-1.145-9.409-5.39 2.927-4.039 9.413 2.036 9.409 5.39M219 568.037c3.168-.33 5.456 1.581 6 4.815-3.962.565-5.184-.377-6-4.815M631 98.49l4 .02c-1.34-.008-2.67-.014-4-.02M610 376.996l-6 .008c2-.004 4.001-.006 6-.008M956.806 391c.638 2.225-.296 2.594-2.806 1.106l2.806-1.106M900 565.49l3 .02-3-.02M710 404.525c-1.677 1.278-3.345 1.458-5-.068 1.667.024 3.333.046 5 .068M672.564 234c-.041 1.67-.084 3.337-.128 5 .041-1.671.085-3.336.128-5M759 79.7a8320.79 8320.79 0 01-5-.005c1.668-.624 3.335-.42 5 .005M270 59.353l-5 .294 5-.294M311 59.67l-4-.34 4 .34M333 61.255c-1.333.497-2.666.79-4 .007l4-.007M214 63.993c-1.668.339-3.334.678-5 1.014 1.668-.336 3.334-.675 5-1.014M673.568 471c-.046 1.002-.092 2.003-.136 3 .047-1.003.091-2.002.136-3"/><path d="M122.472 390c.02.668.038 1.336.056 2-.02-.67-.038-1.335-.056-2M963 386.412l-5 .026c1.663-1.242 3.33-1.084 5-.026M621 379.33l-4-.66 4 .66M255 611.987c-1.667-.323-3.333-.65-5-.974l5 .974zM591.546 325l-.092-3 .092 3M275 59.684l-3-.368 3 .368M439 34.955l-3-.91 3 .91M558 709.439l2 .122-2-.122M99 172.46l3 .08-3-.08M243 75.994l-7 .012 7-.012M715.452 282c.03 1.669.063 3.338.096 5-.03-1.67-.06-3.336-.096-5M593 640.032c-1.338-.02-2.673-.042-4-.064 1.34.018 2.67.042 4 .064M735 110.194l6-.666c-1.92 1.698-3.993.568-6 .666M582 640.556c-1.003-.038-2.005-.076-3-.112l3 .112M547.424 658l.152 5c-.049-1.673-.101-3.336-.152-5M700 171.598l4-.371c-1.217.938-2.646.389-4 .37M263 437.633c1.333.246 2.668.49 4 .734-1.333-.244-2.667-.488-4-.734M471 174.504c1.664-1.418 3.331-1.264 5-.016-1.667.004-3.333.01-5 .016M408.427 225c.048-.667.095-1.334.146-2-.046.668-.096 1.334-.146 2M699.479 206c.014 1.336.027 2.671.042 4-.013-1.339-.027-2.67-.042-4M258.284 415.031c2.194.744 6.607 2.991 9.164 2.693 2.047-.24 3.734-2.727 5.708-2.724 5.315.007 4.33 6.151 1.761 9.45-6.945 8.92-22.464-.753-16.633-9.419M279.977 383c7.248 1.87 3.638 17.814-2.455 18.91-7.174 1.292-8.424-11.672-7.007-16.358 3.692 2.194 1.406 10.02 6.06 7.857 2.958-1.377 2.508-7.743 3.402-10.409"/></g></g></svg>