<svg width="1024" height="768" xmlns="http://www.w3.org/2000/svg"><g fill="none" fill-rule="evenodd"><path d="M621.816 498.242c-1.607 23.573-33.594 35.829-52.995 40.858 3.888-23.125 8.91-47.098 5.786-70.551-1.028-7.725-2.378-15.409-3.828-23.065-.536-2.831-1.09-5.66-1.662-8.483-.139-.687-1.264-3.692-.906-4.377.641-1.225 6.068-1.033 7.451-.98 3.563.137 7.06 1.038 10.32 2.462 6.853 2.992 12.626 8.143 17.382 13.829 11.218 13.407 19.665 32.531 18.452 50.307M584.783 338c-18.57 10.996-40.937 16.897-62.117 19.773-32.265 4.382-65.209-.662-96.753-7.652-7.745-1.716-15.474-3.566-23.105-5.737-.344 22.355 5.945 43.614 18.228 62.257 10.155 15.414 23.408 28.296 34.992 42.574 10.784 13.291 19.482 28.284 19.914 45.827.18 7.32-.422 14.02-6.552 18.764-6.16 4.768-14.48 6.536-22.018 7.622-18.874 2.72-38.642 1.25-57.398-1.744-3.642-.582-7.277-1.244-10.871-2.072-4.08-.94-5.51-2.047-8.92 1.017-7.354 6.61-10.728 16.524-12.394 26.008-3.122 17.762-2.063 38.483 2.437 56.007 4.336 16.881 24.798 26.237 39.957 30.317 45.724 12.305 96.171-4.689 131.256-34.941a83.656 83.656 0 002.264-2.016c2.492 5.189 5.213 10.287 8.187 15.215 2.07 3.43 4.247 6.875 6.856 9.927.942 1.101 2.048 2.59 3.336 3.312 2.398 1.343 4.836.356 7.55-.116 20.025-3.477 40.003-8.05 59.044-15.251 28.947-10.948 54.909-28.984 68.629-57.474 6.93-14.391 10.544-30.159 12.293-45.972 2.007-18.156 2.44-36.716-2.669-54.412-9.362-32.43-33.249-58.72-59.408-78.997-16.186-12.548-33.98-23.886-52.738-32.236" fill="#FF5678"/><g fill="#000"><path d="M911.98 123.252c-4.232 1.682-8.789 2.15-13.291 2.48-3.532.257-6.304 1.673-9.632 1.753-9.266.22-18.572.637-27.793 2.022-9.262 1.391-17.792-.426-25.105 6.533-2.603 2.476-5.866 5.323-4.302 9.32.718 1.83 1.729 3.143 2.325 5.108.674 2.221 1.512 4.32 2.486 6.434 1.87 4.056 11.231 19.162 3.634 21.01-8.236 2.003-19.406-.338-27.34-2.63-4.63-1.337-9.185-2.904-13.747-4.448-3.612-1.222-8.357-1.915-11.685-3.83-2.208-1.27-2.665-3.438-4.124-5.498-2.654-3.747-5.134-6.938-8.564-10.056-7.114-6.467-16.009-10.858-24.78-14.717-.566-.25-1.6-.834-2.211-.892-.66-.061-1.387.619-1.814.536-1.17-.227-1.577-.963-2.857-1.69-1.72-.976-8.73-4.225-9.957-1.67 1.147-3.356 1.985-2.388 5.09-1.901 1.368.216 2.283-.41 3.512-.348 1.132.057 1.597.702 2.543.876 1.733.318 3.347.078 5.156.065.486-1.073 1.176-1.065 2.069.023.499.162.998.323 1.496.486 1.802.494 3.728.4 5.572.544 2.77.22 9.99 3.598 11.38.179 1.482-3.651-3.02-4.561-3.77-7.11-.733-2.499 2.697-3.966 4.073-5.475 1.568-1.717 2.526-3.224 4.366-4.736 1.078-.888 2.49-1.715 3.29-2.898.736-1.088.703-2.847 1.657-3.753 1.137-1.081 1.312-.333 2.346-.855 2.027-1.026 1.132-.974 2.331-2.376 1.025-1.198 1.782-1.162 3.124-2.08 1.964-1.345 2.655-3.973 4.563-5.418 1.396-1.058 3.62-1.056 4.845-2.155.722-.647.499-1.696 1.123-2.307 1.197-1.175 2.018-.698 3.513-1.085 2.521-.653 3.337-2.046 5.193-3.66 1.696-1.473 2.772-1.467 4.895-2.078 2.9-.834 4.773-3.02 7.39-4.303 2.463-1.208 5.007-2.055 7.5-3.341 1.8-.93 3.533-1.506 5.176-2.455.555-.32.603-1.492 1.319-1.65.822-.184 1.48 1.183 2.354 1.254 1.832.15 3.918-1.882 5.122-3.059.523-.511 1.23-1.894 1.904-2.18 1.407-.598 2.247.587 3.502.12 1.76-.657 1.06-2.58 2.14-3.64.943-.924 2.947-.861 4.623-.569 6.75 1.177-3.756 5.946-5.731 6.911-3.323 1.625-27.501 13.444-21.845 19.338 2.993 3.118 10.3.774 13.552-.048 5.704-1.44 11.65-4.214 17.499-4.85.723-.08 2.88.438 3.47.213 1.328-.509.997-1.526 2.077-2.061 1.627-.803 4.95-.764 6.601-.584 1.291.141 2.705.912 4.018.808 1.446-.115 2.843-.957 4.278-1.228 2.454-.462 4.995-.236 7.474-.164 3.565.104 10.692.643 5.512 5.38-4.192 3.833-11.444 5.492-16.732 7.165-7.823 2.472-15.508 4.722-23.23 7.539-5.262 1.918-16.486 5.288-10.222 12.48l1.854-1.75c.731.738 1.486 2.176 2.656 2.218.974.034.616-1.012 1.536-1.34 2.894-1.026 6.86-.948 9.911-1.14 7.643-.485 15.259-1.498 22.912-1.812 7.208-.295 14.492.09 21.558 1.6 1.818.39 18.765 4.84 12.212 7.445zm-62.502 73.95c.384 3.211-1.04 5.808-1.436 8.909-.478 3.749-.127 7.051-1.19 10.778-2.066 7.245-3.535 14.657-5.752 21.86-3.915 12.718-10.236 23.95-16.736 35.489-3.315 5.883-8.308 10.741-12.871 15.662-4.676 5.043-8.412 10.007-14.002 14.148-11.171 8.276-23.225 15.637-36.45 20.108-13.842 4.681-28.399 6.1-42.939 5.504-6.452-.264-13.292.39-19.642-.654-6.752-1.11-14.069-2.474-20.705-4.114-12.182-3.007-23.919-8.113-35.816-12.672-13.286-5.093-25.248-11.594-37.363-18.938-3.206-1.943-6.594-2.85-9.6-5.202-2.534-1.981-5.027-3.876-7.692-5.686-3.059-2.076-5.987-4.346-9.111-6.32-1.868-1.179-4.495-2.333-5.475-4.468-1.349-2.937.277-6.625 1.117-9.474 1.094-3.708 2.258-7.37 3.573-11.005 2.227-6.155 7.894-15.648 4.777-22.155-6.571 4.071-9.47 12.074-12.278 18.877-3.355 8.128-5.697 16.236-6.203 25.05-1.016 17.733 1.95 36.397 8.384 52.93.956 2.456 2.635 5.119 1.401 7.746-1.295 2.756-4.809 5.084-7.51 6.276-8.545 3.77-17.124 4.867-26.048 6.952-2.43.567-5.09 2.272-7.37 2.487-1.54.145-2.811-.36-4.574-.348-1.77.012-3.155 1.003-4.739 1.11-1.383.093-2.61-.716-3.929-.64-2.95.172-3.494 5.229-4.957.777-.265.183-1.73 1.844-1.914 1.844-.417.001-1.152-1.237-1.55-1.458-.776-.43-1.798-.454-2.665-.566-1.913-.249-3.976-.274-5.86.165-3.495.814-7.008.471-9.996.412-.68-.013-1.16.534-2.006.502-.385-.016-.94-.697-1.348-.802-2.362-.609-4.814-.154-7.22-.287-5.652-.312-11.11-.463-16.63-1.712-11.311-2.561-22.844-3.074-34.2-5.416-5.787-1.194-11.44-1.845-17.136-3.418-2.002-.553-4.054-.814-5.828-1.568-1.694-.72-1.028-1.681-3.657.247-1.181-2.895-1.32-2.6-4.172-3.557-1.103-.371-3.637-1.291-4.458-2.02-.082-.073-1.837-4.48-1.988-5.022-.731-2.632-.122-5.64.183-8.29.689-5.972 1.685-11.897 1.744-17.917.026-2.655.505-2.732 1.331-4.733.255-.62 1.006-.57 1.069-1.515.084-1.259-1.204-2.135-1.065-3.605.185-1.978 2.17-3.982 2.868-5.825.838-2.22.827-4.566 1.327-6.863.669-3.056 1.96-5.924 2.612-8.993.555-2.599.607-4.666 1.991-6.896 1.385-2.226.977-4.043 2.08-6.26 1.012-2.033 2.293-2.763 2.985-5.218 1.678-5.939 4.228-11.82 7.84-16.854 3.177 12.625 6.557 25.669 15.403 35.648 3.644 4.11 8.348 8.255 13.842 9.507 6.212 1.415 11.18-2.249 15.225-6.59 9.638-10.342 13.63-21.887 14.212-35.911.145-3.486.124-6.977.077-10.465-.022-1.552-.818-5.536.246-6.84 1.166-1.432 4.494-.538 6.226-1.481 2.13-1.162 4.47-4.269 3.519-6.831 5.676 2.57 11.103 5.953 17.415 6.67 2.499.283 5.16-.149 7.395-.268-.067.003 1.73.37 1.838.394.443-.511.923-.635 1.439-.373.459.049.793.295 1.003.74 8.997.899 18.056-3.547 25.757-8.256 4.5-2.752 9.441-6.825 10.704-12.182.45-1.911.06-3.712 2.037-4.687 1.605-.794 4.705.35 6.399.475 5.959.437 11.831-.129 17.65 1.647 3.55 1.084 9.747 8.679 12.223 3.336 1.074 1.008.49 2.803 1.634 3.784.997.855 4.348 1.457 5.726 2.189 2.135 1.132 3.387 2.64 5.256 4 2.296 1.673 4.7 1.802 6.922 3.765 7.699 6.798 16.717 11.722 25.313 17.36 10.2 6.688 19.225 14.572 30.169 20.027 11.193 5.578 22.023 10.238 34.254 13.14 5.548 1.317 11.238 2.416 16.934 2.822 2.686.19 5.25.094 7.84.9 1.574.49 2.083.735 3.63.78.9.026 2.204-.494 3.314-.474 2.279.041 3.443-.053 5.5.701 2.327.853 4.262 1.366 6.912 1.44 3.048.085 4.843-1.086 7.612-1.808 2.232-.582 4.242-.304 6.24-1.513 8.877-5.37 16.01-13.57 20.666-22.881 5.345-10.685 9.463-23.71 10.3-35.685.48-6.854-1.032-13.538-3.65-19.83-.738-1.776-5.17-9.337-3.805-10.71 1.55-1.56 6.618 2.016 8.047 2.793 4.533 2.464 12.72 3.253 15.898 7.398.809-1.553 5.31.749 6.754 1.397 1.194.536 1.532 1.505 3.035 1.621 1.416.109 2.877-1.02 4.178-1.38-.95 2.653 2.246 2.777 4.437 2.918 1.577.101 3.273-.147 4.678-.247 2.69-.191 2.733-.795 5.19-2.173a7.243 7.243 0 00.326 2.957c1.578-2.285 4.59-.698 6.723-1.702-1.541-2.34 5.04-2.98 6.573-2.488 3.858 1.24 1.242 6.16 1.583 9.005zM547.368 357.97c2.545-.759 5.107-1.453 7.66-2.178-1.934 1.775-3.943 4.978-6.705 5.478-3.332.6-4.644-2.2-.956-3.3zm-125.686 1.272c4.286.513 8.953.12 12.71 2.65-1.83 2.107-3.02 4.312-6.074 3.104-2.566-1.014-4.678-3.907-6.636-5.754zm143.19 115.328c-2.814-2.524-2.443-3.653-1.121-6.92.568-1.406 1.468-5.774 3.603-4.494.758.454 1.676 5.214 1.812 6.18.302 2.155-1.032 8.16-4.294 5.234zm15.873-14.657c-.994-3.654-.96-7.632-1.937-11.375-1.031-3.953-2.3-7.919-2.664-12.004 14.87 2.627 23.315 17.385 29.756 29.701 3.422 6.544 6.778 13.782 8.069 21.098 1.26 7.129-.926 12.542-3.465 18.895-1.294 3.244-3.433 4.369-5.93 6.512-2.213 1.899-3.042 5.103-5.348 6.81-1.703 1.26-3.917 1.914-5.698 3.187-1.76 1.257-3.52 2.503-5.336 3.678-2.077 1.341-8.3 6.233-11.102 5.19-2.099-.782-1.164-3.35-.635-4.96 1.113-3.394 1.895-6.662 2.582-10.2 1.835-9.44 2.83-18.822 3.305-28.424.464-9.376.897-18.955-1.597-28.108zm-12.437 42.58c.223.464 1.152 4.427-.92 3.613-1.441-.567.71-2.885.92-3.613zm8.76-157.352c1.756-.725 2.458 1.42 4.002 1.484 2.048.085 2.478-2.193 4.627-2.26 5.255-.165 12.87 4.913 17.142 7.563-2.092 2.645-2.955 5.35-1.915 8.607.917 2.869 4.418 6.077 4.29 9.117-.131 3.048-3.92 5.011-5.102 7.723-1.086 2.491-1.5 7.473 1.852 8.57 5.766 1.89 7.085-8.91 11.454-8.994 1.868-.035 4.296 3.477 5.64 4.57 3.008 2.45 6.401 4.239 9.9 5.865 2.362 1.097 5.65 3.26 7.401.31 1.404-2.362.257-6.106-1.107-8.139-1.565-2.332-15.588-13.006-14.703-13.946.472-.502 3.964.881 4.46 1.3 1.117.947 1.528 2.488 2.649 3.496 1.71 1.539 3.92 2.148 6.035 2.86 4.414 1.483 7.208 6.7 11.486 9.13 2.468 1.402 3.974 4.093 6.062 6.177 2.733 2.728 5.518 5.587 5.107 9.604-.286 2.784-.7 9.268-2.273 11.617-1.71 2.55-4.552 1.572-7.149 2.174-2.92.677-5.258 2.956-4.676 6.212.604 3.385 3.31 3.627 6.14 3.712 7.975.241 5.038 5.306 7.819 10.87 1.511 3.02 4.032 4.206 5.766.67 1.397-2.845-1.098-7.33.418-9.76 1.846-2.96 11.727-2.154 13.788.145 1.562 1.744 2.39 4.142 3.948 5.966 2.364 2.769 3.336 6.651 4.755 10.046a121.331 121.331 0 013.973 10.997c.81 2.624 2.56 6.778-1.63 4.537-2.926-1.564-5.112-5.094-8.82-5.206-3.668-.11-5.758 3.7-4.686 7.013 1.036 3.206 5.765 4.618 6.312 7.869.602 3.556-5.489 7.184-7.338 9.799-4.259 6.02-.697 12.798 6.283 7.687 2.474-1.811 5.065-5.465 7.856-6.61 4.415-1.81 4.39 4.9 6.504 7.37 1.14 1.328 1.55-.022.876 1.964-.25.732-1.51.961-1.652 1.871-.102.667.496 1.02.516 1.536.07 1.75.074 2.008-.32 3.91-.435 2.108-.277 4.728-.408 6.871-.301 4.897-.365 9.574-.88 14.469-.285 2.724-.883 8.274 2.333 9.602-1.145 1.794-2.67 6.784-4.92 6.409.184 1.181.081 2.69 1.228 3.462.275-.72.549-1.44.822-2.161.63 1.646.077 1.836.04 2.957.046-1.388-1.267 1.935-.557 1.525-.604.505-1.4.793-2.308 1.447-1.268.912-1.936 2.172-2.92 3.406-1.781 2.23-1.678 4.483-3.237 6.809-2.212 3.3-5.05 6.556-7.38 9.853-1.897 2.684-5.512 4.231-7.032 7.116-.967 1.835-1.352 3.969-3.001 5.259-2.362 1.848-5.52 3.59-8.086 5.498-1.614 1.2-2.841 2.864-4.451 4.028-.816.59-3.27 1.188-3.274 2.39-3.09-.866-5.277-4.022-7.706-5.942-1.623-1.284-5.49-2.951-5.256-5.523.192-2.105 3.184-4.716 3.873-6.923.585-1.87 1.398-5.357-.218-6.955-3.392-3.35-7.238 3.84-9.059 5.755-3.756 3.948-5.353-.033-8.44-2.9-4.934-4.58-8.035.172-6.299 5.874.88 2.886 4.23 5.46 4.446 8.408.239 3.24-3.27 4.867-4.66 7.455-1.311 2.441-1.917 6.729.548 8.749 2.72 2.229 5.083-.408 6.861-2.464 1.381-1.598 2.916-5.113 5.16-5.313 2.809-.249 7.417 4.855 9.555 6.43-3.248.94-5.203 3.66-7.949 5.402-3.543 2.248-8.49 2.78-12.455 4.323-3.736 1.455-7.097 2.639-10.654 4.443-4.22 2.14-9.384 2.675-13.854 4.233-3.99 1.392-7.776 3.344-11.852 4.493-4.594 1.295-9.361 2.074-13.994 3.245-3.96 1-8.607 1.962-12.689 1.97-4.129.006-4.043-2.55-5.363-5.957-1.57-4.046-4.167-7.598-5.824-11.546-1.577-3.755.804-5.18 3.088-8.054 2.151-2.708 1.582-3.132 4.356-1.23 3.652 2.502 6.064.81 8.905-2.069 2.528-2.557 3.456-4.684 7.093-2.902 3.64 1.782 7.107 4.682 11.017 5.845 3.08.915 5.376.25 5.892-3.12.557-3.64-1.52-6.225-4.136-8.388-1.992-1.644-6.343-3.596-7.07-6.265-.768-2.811 3.272-6.914 3.704-10.058.544-3.97-1.165-6.888-4.93-4.14-2.733 1.993-4.551 6.316-8.344 6.584 1.053-4.42 3.338-8.346 5.298-12.396 1.643-3.39 3.052-7.238 7.462-7.616 1.43-.122 2.36.027 3.724-.219 1.801-.324 4.245-.582 6.17-1.068 4.531-1.145 8.532-4.643 12.703-6.648.957 2.574 2.65 9.905 6.545 5.625 2.88-3.166-.311-8.615 2.343-12.137 5.475-7.267 17.4-1.931 24.592-5.678 3.13-1.631 5.68-6.833 1.265-8.402-2.58-.916-10.03 2.467-11.581-.027-1.107-1.779 3.53-8.727 4.09-10.637 1.744-5.944 1.46-12.115 1.46-18.237 3.501 1.432 7.93 4.784 11.702 5.243 3.878.471 4.56-4.083 3.544-7.074-1.4-4.12-6.068-7.498-9.267-10.153-1.41-1.17-5.103-3.053-5.876-4.832-.798-1.837.345-2.727 1.241-4.323 1.4-2.495 4.792-8.944 1.101-11.281-3.395-2.15-5.3 3.877-7.463 5.166-3.67 2.188-4.928-2.824-6.387-5.375-2.649-4.63-6.32-8.764-9.615-12.931-3-3.793-4.848-6.36-5.286-11.193-.332-3.661-1.08-6.495 3.236-7.327 7.652-1.474 18.855 2.159 25.07-4.068 3.261-3.265.932-6.64-3.184-6.473-5.407.221-10.548.488-15.99.05-2.893-.234-8.941.469-10.402-2.513-1.88-3.84 1.308-10.009-2.154-13.374-4.419-4.297-5.502 5.414-5.648 8.095-.108 1.954.393 4.928-.822 6.618-1.135 1.576-3.208 1.553-4.885 2.123-4.224 1.436-6.406 6.627-.802 7.725 1.885.37 4.514-.168 6.08 1.23 1.641 1.463 1.015 4.063 1.168 6.035-3.925-4.551-12.086-2.534-17.402-4.224-2.8-.89-3.273-2.076-4.45-4.788-1.426-3.282-4.675-7.432-4.8-11.061-.105-3.081 2.461-5.4 3.658-8.056 1.028-2.279 1.958-5.988 1.806-8.545-.367-6.168-11.493.128-13.785 2.488-4.16 4.283-9.287 9.823-7.032 15.89 2.01 5.413 3.078 8.483-3.9 8.057-2.554-.156-7.918.35-9.9-.729-1.471-.8-.918-2.236-.967-4.316-.04-1.802.095-4.533-1.061-6.108-4.07-5.538-5.022 8.244-7.308 9.737-3.57 2.335-11.129-.112-10.546 6.817.511 6.063 8.704 3.587 10.971 8.803 1.091 2.513.86 5.438 2.234 7.863 1.959 3.456 4.37 3.272 5.67-.331.91-2.53-.305-5.132.397-7.52 1.013-3.453 5.837-3.133 8.805-3.523 3.607-.475 6.751-1.383 10.182-2.493 4.233-1.37 4.003.879 4.692 4.135.8 3.778 2.022 7.42 2.772 11.254.698 3.573 2.551 7.421 2.853 10.997.23 2.734-.696 2.484-2.96 4.062-2.474 1.724-5.197 6.206-8.068 6.943-4.319 1.109-8.672-8.766-12.601-3.713-1.688 2.169-1.035 6.788.165 9.029 1.585 2.961 4.5 3.715 2.057 7.106-1.836 2.548-4.143 4.522-4.315 7.95-.16 3.184 2.003 6.195 5.387 5.26 2.734-.754 4.35-3.555 6.42-5.255 3.574-2.935 6.508-.216 10.166 1.445 2.88 1.308 8.171 2.161 9.615 5.237 1.834 3.903-.517 5.412-3.923 4.302 1.327 4.364-.42 6.899-.899 11.41-.388 3.65-1.227 6.99-1.762 10.52-.71 4.713-.785 4.202-5.635 4.362-4.12.136-8.126.026-12.24-.155-3.626-.16-6.092.169-6.255-4.207-.072-1.931 1.145-8.478-2.66-7.692-3.35.692-2.386 6.674-3.507 8.922-1.621 3.254-4.364 2.26-7.415 3.062-3.104.818-5.613 3.11-4.813 6.652.856 3.781 4.32 3.518 7.333 4.393 4.638 1.346 3.62 8.17 6.328 11.877 1.105 1.512 2.268 3.04 4.123 1.799 3.401-2.277.19-7.84 1.09-10.63.944-2.935 4.131-2.334 7.143-2.715 4.447-.56 9.101-2.706 13.53-2.68-.848 2.557-3.228 4.043-4.084 6.735-.46 1.443-.031 4.138-.669 5.331-.685 1.282-2.846 1.666-3.74 3.45-1.17 2.334-1.53 4.835-2.9 7.122-3.236 5.408-6.023 10.937-9.463 16.29-3.552 5.528-7.38 10.79-11.848 15.581-4.335 4.65-5.628 2.398-9.353-1.403-1.516-1.547-4.737-3.338-5.158-5.648-.417-2.278 1.467-4.136 2.498-5.99 1.368-2.458 3.837-6.687 3.235-9.636-1.129-5.538-6.08-.44-7.956 1.634-3.278 3.621-5.11 7.43-10.064 4.569-3.171-1.832-7.17-6.845-11.332-4.991-3.79 1.688-2.728 6.564-.397 9.038 1.306 1.386 3.166 2.179 4.551 3.476 2.982 2.796 1.294 3.555-.067 6.686-1.114 2.564-1.275 7.604.778 9.739 4.04 4.2 7.165-4.273 10.915-4.446 1.778-.081 9.167 4.768 9.694 6.514.924 3.063-7.048 6.72-9.166 8.159-4.927 3.344-10.294 6.753-15.836 8.97-6.54 2.617-1.666-5.629-5.241-8.369-4.65-3.564-5.01 6.2-5.487 8.626-1.268 6.452-8.083 6.62-13.58 8.22-3.5 1.019-7.004 2.1-10.54 2.987-3 .752-6.36.734-9.27 1.665-2.551.817-4.297 2.474-7.15 2.493-.928.007-1.734-.308-2.629-.329-1.804-.044-3.458.988-5.183.88-2.868-.178-1.62-1.082-2.619-3.084-.937-1.878-3.32-2.568-5.176-3.155-5.319-1.681-9.747-.208-10.52-6.971-.237-2.077.077-10.605-3.874-9.608-4.614 1.162-.554 11.298-3.418 13.838-1.394 1.236-3.498.62-5.178.985-2.758.599-3.967 2.682-6.986 2.542-2.547-.117-4.918-1.248-7.138-2.371-3.309-1.675-7.257-2.784-10.016-5.34-3.782-3.503-5.441-8.957-7.053-13.693-2.372-6.976-3.383-13.927-3.764-21.242-.133-2.55-1.216-4.348-1.669-6.688-.48-2.488.94-2.987 1.268-5.344.318-2.292.164-4.74.646-7.196.693-3.531.935-7.143 1.607-10.685 1.112-5.857 2.798-11.674 4.182-17.478.43-1.804 1.209-7.584 3.434-8.139 1.642-.41 5.433 2.035 6.955 2.753 3.008 1.419 5.594 3.38 8.814 4.362 1.66.507 3.757.457 4.847 2 1.723 2.44.33 7.22 1.044 10.104.874 3.531 3.768 5.033 6.1 1.486 1.243-1.89.912-4.145 1.079-6.235.238-3.014.291-3.743 3.552-3.54 3.303.207 6.528 1.454 9.915 1.606 3.054.136 6.123.052 9.174-.115 7.409-.406 14.185-1.611 21.133-4.249 4.707-1.787 10.165-5.694 15.352-5.556 7.322.194 5.34 6.973 6.343 12.044.61 3.086 5.771 12.561 7.754 4.872.98-3.804-2.287-9.349-.351-12.784 2.286-4.06 10.689-.691 14.512-1.631 3.094-.761 8.265-5.148 6.08-8.933-1.035-1.793-3.045-1.453-4.837-1.587-3.397-.254-6.77-.718-10.14-1.214-1.916-.282-4.845-.447-5.61-2.648-.65-1.868 2.398-6.712 3.06-8.499 2.188-5.917 2.977-10.729 2.986-17.181.002-2.907.192-5.975-.275-8.851-.172-1.054-1.753-4.495-1.013-5.502.996-1.355 3.034.365 3.852 1.38 1.625 2.023 1.06 1.861.136 3.957-1.36 3.083-4.003 9.549.48 11.922 4.688 2.482 6.382-5.906 10.824-4.986 2.07.429 4.115 3.152 5.784 4.424 1.954 1.49 4.063 3.07 6.36 3.984 3.766 1.5 8 .376 6.477-4.362-1.2-3.736-4.997-6.861-7.712-9.51-4.325-4.22-4.13-5.992-1.14-10.962 1.25-2.08 6.052-10.912.486-11.63-2.946-.38-6.132 4.396-7.688 6.224-2.67 3.137-4.202 4.484-8.176 1.965-3.884-2.462-5.687-4.52-10.385-4.747-5.405-.26-7.837-8.383-10.702-12.554-7.785-11.33-19.703-16.934-29.752-25.615-4.897-4.23-8.204-9.766-11.928-14.974-1.773-2.48-4.063-4.541-5.508-7.244-.91-1.7-3.372-5.797-2.73-7.803.797-2.497 5.104-4.038 6.896-5.802 1.503-1.48 2.306-3.324 4.671-2.759 2.105.504 4.002 3.353 5.723 4.605a37.66 37.66 0 005.468 3.288c3.388 1.662 7.478 2.55 7.677-2.504.173-4.373-3.815-9.056-6.696-12.006-2.096-2.147-5.273-4.013-4.857-7.422.205-1.691 1.64-4.7 2.479-6.119 2.889-4.881 11.71-1.903 16.502-1.59 5.775.378 12.142-.592 16.732 3.494 1.497 1.333 4.967 3.95 5.702 5.806.855 2.16-.542 3.13-1.318 5.22-1.004 2.7-1.694 8.033 1.195 9.895 4.822 3.107 7.336-6.11 12.349-4.094 4.753 1.912 8.076 7.409 13.502 8.279 7.1 1.138 3.057-7.664.6-10.254-3.187-3.358-9.367-6.83-7.344-11.795.578-1.42 1.9-4.38 3.087-5.26 2.326-1.725 6.075-.778 8.738-.75 6.721.072 13.066-.481 19.653-1.656 1.986-.355 2.438-.636 3.837.844 1.938 2.046 2.955 4.714 5.209 6.726-3.256 3.51-8.082 7.652-5.818 13.054 1.947 4.648 6.217 2.368 9.106-.115 1.357-1.166 2.758-3.634 4.556-4.102 2.334-.608 4.957 1.513 6.868 2.59 2.868 1.616 9.001 6.408 12.259 3.579 4.308-3.742-.79-9.372-3.758-11.683-1.795-1.398-4.186-2.395-5.696-4.12-2.011-2.296-.832-2.633.386-4.702 2.23-3.786 1.412-8.662 4.978-11.62 1.977-1.64 4.804-2.67 7.062-3.872 2.222-1.185 4.607-3.534 6.787-4.435zm36.333 14.723c-.867-.53-1.734-1.062-2.6-1.594 1.981-.966 3.29-.85 2.6 1.594zm47.844 46.001c.35-1.767 1.712-4.928 3.588-3.275 1.208 1.062-.111 5.051 2.762 3.948.148 2.541-1.744 2.325 1.047 4.586-3.522-.408-8.384-.249-7.397-5.259zm-136.71 214.213c.886-2.38.879-6.07 3.61-3.895.142-2.882-.54-12.02 4.692-11.65 2.133.151 2.11 2.033 2.674 3.663.982 2.843 2.642 5.434 4.04 8.083-5.191.21-10.386 1.398-15.017 3.799zm1.699 32.847c2.967 2.242 4.454-.405 7.255-1.37 2.585-.892 5.268-.358 8.132-.99 3.552-.785 7.735-.666 11.205-.697.855-.007 2.643.128 3.507.228 1.574.18 1.433.506 3.063.944a15.43 15.43 0 011.906-.316c.786-.034 1.406.291 1.86.976 1.465.488 1.998.163 3.4.505 3.342.816 5.836 2.83 8.018 5.498 4.443 5.432 4.575 13.596 4.473 20.32-.029 1.915-.175 3.82.037 5.73.193 1.752 1.431 4.4.926 6.14-.767 2.636-3.14 2.043-5.904 2.161-1.627.07-3.251 1.12-4.546 1.213-1.252.09-1.757-.372-3.024-.656-3.307-.74-7.209.316-10.471 1.216-3.347.924-6.282 1.835-9.676 2.489-2.209.425-4.196.667-6.424.945-1.827.229-2.615 1.19-4.209 1.587-1.537.38-3.036-.19-4.587.11-2.114.409-3.587 1.96-5.513 2.732-2.655 1.065-6.9-.526-8.076 2.757-.46-3.166-3.497-2.306-5.758-2.586-3.725-.462-7.396-2.134-10.979-3.199-2.938-.873-13.096-8.925-15.04-5.657.002-.33.355-2.202.048-2.418-1.084-.762-1.075-.343-2.242-.82-1.785-.73-2.537-1.39-3.813-2.62-2.58-2.487-6.054-3.788-8.772-6.044-6.83-5.669-9.168-17.346-10.834-25.474-2.179 3.863-1.377-1.094-1-2.75.892-3.91-.255-5.837-.514-9.612-.24-3.474 1.344-4.161 4.48-4.524 3.863-.448 7.581-1.073 11.365-2.037 3.613-.921 7.154-1.96 10.414-3.792 2.984-1.676 6.115-2.335 9.166-3.802 3.365-1.619 6.665-3.32 10.06-4.897 1.53-.71 8.268-5.795 9.438-5.485 2.4.636.134 4.841-.598 5.945-1.881 2.834-4.97 4.148-7.756 5.932-2.513 1.607-10.134 9.224-2.397 8.46 5.127-.506 8.6-5.88 11.88.244 1.158 2.163 2.862 3.899 1.53 6.133-1.858 3.118-7.22 4.604-10.031 6.702-2.396 1.788-7.298 10.219-2.358 11.123 1.42.259 3.61-.077 4.665-1.18.712-.745.662-2.277 1.382-2.786 1.02-.723 3.004.172 4.169-.224 1.66-.565 2.05-1.47 2.66-3.066 1.773.81 1.798 1.894 3.822.85.671-.345.918-1.615 1.695-1.954 1.044-.455 1.355 1.037 1.928.817 1.552-.595 1.546-1.266 2.038-2.8zM419.82 628.128c-2.973.223-6.22.462-8.757-1.433 3.083.186 5.801.882 8.89.245 1.228-.253 3.194-1.412 4.452-1.009 4.471 1.434-3.395 2.107-4.585 2.197zm-8.257-261.553c-.044-1.046-.931-15.116 3.875-9.59 1.316 1.513-.103 3.538-.29 5.21-.316 2.818.672 5.643 2.156 8.015 1.385 2.213 3.971 4.151 3.584 7.037-.34 2.532-2.895 4.694-4.154 6.795-3.096-4.88-4.922-11.594-5.17-17.467zM401 218.91c-11.137 1.172-22.218 3.246-32.956 6.447-10.543 3.142-20.371 8.055-30.278 12.762-2.042-8.743-4.18-17.463-6.197-26.213a873.83 873.83 0 01-2.805-12.659c-.647-3.004-2.998-8.606-2.017-11.561.521-1.566 1.208-1.573 2.328-2.54.684-.59 1.876-2.034 2.585-2.343 1.727-.75 6.162-1.409 7.93-1.302 1.61.097 2.452.737 4.109.274 1.411-.394 2.596-1.48 3.92-2.075 3.37-1.515 7.575-2.023 11.178-2.825 3.468-.771 7.048-.943 10.524-1.707 3.044-.67 4.491-2.911 7.088-2.83 6.758.21 14.23-.58 20.936-2.196 7.523-1.811 15.707-1.461 23.425-1.655 3.075-.077 5.236-.769 5.252 2.655.018 4.178-1.65 8.869-2.502 12.948-1.889 9.044-3.488 17.835-4.202 27.018-.357 4.594-2.24 4.273-5.974 5.682-4.154 1.567-7.925 1.656-12.344 2.12zm-58.555 92.788c2.744.405 2.43-7.101 2.63-8.627 6.543 12.34 13.912 24.214 19.676 36.958 1.347 2.98 2.57 6.03 3.995 8.973.974 2.016 3.154 4.722 3.102 7.067-.056 2.447-2.032 3.363-4.115 4.27-2.251.98-3.13 1.47-4.717.336-1.92-1.373-3.523-5.6-4.709-7.639-1.811-3.111-3.545-6.268-5.319-9.4-3.213-5.679-7.005-11.116-9.645-17.077-2.473-5.585-6.215-10.39-8.88-15.877-2.64-5.433-6.254-10.584-9.29-15.902 3.05-1.268 6.848-4.437 10.311-4.261 3.577.182 3.49 3.635 3.645 6.511.163 3.054-.859 14.05 3.316 14.668zm8.787 55.749c-1.632 1.936-5.312 3.074-7.57 4.148-3.125 1.487-6.325 2.81-9.436 4.327-10.207 4.98-20.371 9.54-30.769 14.114a340.122 340.122 0 00-15.93 7.516c-2.747 1.382-8.8 6.226-11.962 6.35-3.624.14-3.709-7.178-4.507-9.923-.671-2.297-1.916-4.085-2.754-6.262-.34-.89-.076-1.564-.596-2.445-.592-1.004-2.251-1.813-3.104-2.678-3.621-3.679-6.624-8.362-9.683-12.506-2.802-3.796-7.582-8.55-8.926-13.201-2.643-9.145 12.712-14.207 18.587-17.881 10.286-6.433 20.622-13.041 30.428-20.188 4.466-3.256 8.84-6.64 13.328-9.868 2.095-1.505 7.9-7.362 10.589-5.275 1.001.777 1.02 2.927 1.438 4.054.913 2.463 2.299 4.613 3.703 6.822 1.247 1.956 3.02 3.98 3.8 6.162.928 2.603.885 4.077 2.585 6.412 3.092 4.246 4.552 9.145 7.427 13.474 2.772 4.174 5.435 7.253 7.248 11.917 1.04 2.673 2.68 5.044 4.131 7.502.683 1.161 1.397 2.302 2.01 3.504 1.095 2.148 1.482 2.12-.037 3.925zm-87.736 35.719c-1.962 1.404-4.85-.956-6.753-.988-.828-.015-1.65.63-2.203.613-1.663-.05-3.022-1.167-4.553-1.687-7.067-2.404-15.493-2.496-21.53-7.378-11.993-9.7-6.275-29.162-4.091-41.77.445-2.571 1.246-6.131-.831-8.237-2.277-2.308-5.702-.93-7.786.937-2.138 1.914-3.591 4.596-5.369 6.832-2.83 3.561-5.921 6.927-9.042 10.232-11.09 11.743-22.832 25.18-36.55 33.798-5.705 3.585-10.869 8.443-17.122 11.175-7.522 3.286.2-9.4 1.552-11.461 8.853-13.49 21.742-24.17 32.566-36.013 2.043-2.235 4.944-5.248 4.98-8.468.055-4.835-4.215-4.4-7.592-3.059-3.158 1.256-4.74 4.381-7.28 6.517-3.164 2.658-6.86 4.814-10.381 6.96-7.594 4.627-15.655 8.51-23.691 12.296-3.76 1.77-7.537 3.504-11.314 5.237-1.037.476-7.233 4.407-6.937 1.037.04-.453 3.993-5.254 4.481-5.432 2.434-.89 3.64 1.796 5.807-1.724 1.539-2.5 1.752-3.797 3.925-5.694.37-.322.624-1.138.924-1.667-.037.2 1.614-1.407 1.298-1.128.434-.383 1.064-1.085 1.416-1.545 1.699-2.218 4.964-2.26 6.44-4.795.563-.965.244-2.203.923-3.161.95-1.344 3.043-1.916 4.16-3.098a466.115 466.115 0 012.339-2.465c.409-.428 1.127-.728 1.611-1.218 1.205-1.219 1.11-2.298 2.796-3.323 1.514-.92 2.21-.059 2.734-2.336 1.842 1.18 1.611-.547 2.359-1.785.972-1.61 2.207-2.328 3.547-3.493 2.948-2.564 5.712-6.381 8.22-9.609 6.238-8.027 11.283-17.413 13.141-27.484.445-2.408.69-4.841.867-7.283.094-1.284-.325-4.411.47-5.67 1.235-1.95 3.578-1.176 5.361-2.03.606-.29 1.204-1.146 1.772-1.34.795-.272 1.768-.007 2.593-.269.32-.101.395-1.044.926-1.165 1.039-.238 2.072.14 3.1.154 2.249.03 4.47-.366 6.626-1.083 1.962-.652 3.604-2.147 5.562-2.686-.2.056 3.227.328 3.042.135l.492-2.532c1.3.909 5.737 2.107 7.113 1.9 2.212-.334 1.746-2.328 3.621.29 1.062-.925 2.123-1.85 3.184-2.777.804 3.374 6.342 1.737 8.852 1.923 3.537.264 6.323-.4 9.546.831 3.92 1.5 7.358 3.08 11.58 3.489 2.95.285 4.177 1.672 7.067 2.528 3.884 1.15 4.191 2.417 2.976 6.386-.985 3.218-1.836 5.7-.397 9 2.553 5.856 9.49 8.268 13.963 12.314-10.477 7.354-20.822 14.588-30.951 22.425-4.244 3.282-8.757 6.57-11.174 11.508-2.229 4.558-3.493 10.035-4.834 14.914-3.077 11.186 5.59 18.714 14.493 23.635 1.843 1.017 14.532 16.944 11.956 18.787zm-17.28 13.52c-.627-2.15-.545-2.725 1.532-3.497.786-.292 3.8-.674 4.287.405 1.104 2.448-4.699 2.417-5.82 3.093zm88.29-155.9c.744 4.774 1.476 9.55 2.14 14.334.367 2.644 1.198 4.982-.771 6.976-1.119 1.132-3.833 1.555-5.262 2.158-2.06.87-4.068 1.867-6.05 2.905-3.532 1.85-7.224 2.964-10.711 4.633-1.517.724-2.416 2.152-3.729 3.137-1.796 1.348-3.981 2.004-5.835 3.286-3.313 2.293-6.35 5.007-9.66 7.315-3.751 2.616-4.533 1.776-6.64-2.09-1.89-3.47-4.16-5.052-6.884-7.772-1.058-1.058-4.85-7.087-1.63-7.606.825-.134 3.675 1.106 4.32 1.503.982.602 2.55 4.025 3.348 4.083 1.437.105 3.277-3.987 4.173-5.064 5.869-7.065 12.325-14.053 19.126-20.233 3.525-3.203 7.228-6.122 11.224-8.708 2.842-1.838 5.322-4.414 8.124-6.158a5.314 5.314 0 012.018-1.1c1.462-.664 2.01-.091 1.647 1.72.838 1.77.747 4.727 1.052 6.681zm-128.378-6.256c1.427-1.452 3.228-2.613 4.472-4.234.702-.914 1.165-2.55 1.968-3.14 1.398-1.03 3.398-.555 5.024-1.936 1.57-1.335 2.95-2.933 4.483-4.318 3.325-3 6.756-5.758 10.018-8.812 1.854-1.736 3.798-3.988 5.445-5.134.437-.304.926-.756 1.39-.99.992-.5 1.487.009 2.935-.457.958-.307 1.642-1.52 2.41-2.094 1.827-1.364 4.207-1.904 5.965-3.217 1.759-1.313 2.604-3.352 5.024-4.447 2.927-1.324 5.121-.278 7.237-2.81.863-1.032 1.1-2.333 2.454-2.984 1.632-.785 3.065.048 4.624-.844 1.05-.602 1.769-1.864 2.854-2.523 1.942-1.175 4.09-1.3 5.907-2.755 1.533-1.227.682-1.101 2.497-1.62.798-.227 1.683-.325 2.535-.616 2.729-.93 7.185-2.07 8.801-4.66.82 1.198 1.102 1.44 2.433 1.069a14.888 14.888 0 001.924-1.877c.428.541.888.574 1.378.097 2.88-.99 5.522-2.69 8.359-3.635l1.205.651c.56.031.786-.242.68-.82 1.116-.204 2.402-.695 3.43-1.143 1.972-.86 4.15-2.9 6.473-2.17 3.88 1.22 4.065 9.134 4.734 12.27 1.65 7.73 3.31 15.455 4.967 23.182.674 3.145 1.266 6.313 2.153 9.404.58 2.02 2.023 4.999 1.502 7.147-.639 2.633-3.208 3.49-5.356 4.708-2.96 1.678-5.823 3.54-8.625 5.473-11.895 8.205-20.763 19.49-29.197 31.066-1.563-2.27-5.748-5.46-8.357-6.483-1.827-.716-3.47-.139-5.29-1.013-1.297-.624-2.374-1.843-3.6-2.628-7.49-4.797-16.53-8.762-25.21-10.665-17.811-3.907-35.248 2.142-52.518 5.013 3.504-4.818 8.744-7.856 12.872-12.055zM325.35 123.785c3.048-9.935 8.18-19.553 15.486-27.005 3.683-3.758 8.012-7.042 12.864-9.13 4.22-1.817 9.241-3.558 9.176 2.281-.143 12.678-3.071 25.212-3.429 37.91-.348 12.443 1.735 22.431 9.265 32.458a986.12 986.12 0 00-14.293 3.41c-3.61.896-7.353 1.9-10.768 2.515-3.376.606-6.48 1.002-9.819 2.143-2.25.77-5.775 3.12-8.21 2.61-4.047-.848-3.09-15.367-3.297-18.855-.584-9.851.118-18.856 3.025-28.337zm73.967 19.128c5.53-6.712 11.274-14.542 20.576-15.788 8.994-1.205 12.309 9.582 11.738 16.856-.194 2.461-.56 8.852-2.348 10.846-1.978 2.206-5.489.543-8.002.203-10.847-1.469-21.97.983-32.847.983 3.627-4.368 7.273-8.72 10.883-13.1zm44.51 26.765c3.773.54 6.786 1.116 4.964 5.411-3.647 8.603-6.449 16.813-3.253 26.191 2.441 7.162 10.17 15.856 17.893 17.291 2.707.503 6.778-.397 8.441 2.352 1.482 2.449-.124 9.792-.297 12.511-.642 10.13-3.236 20.18-9.792 28.14-5.834 7.081-12.952 12.624-21.436 5.939-7.152-5.634-11.375-15.713-13.49-24.327-1.13-4.598-1.268-9.186-1.484-13.885-.19-4.156-.983-6.792 3.716-7.654 1.26-.23 4.407-.158 4.411-2.081.007-2.584-3.405-1.615-4.71-1.746-5.034-.502-2.676-6.356-2.207-10.142.8-6.447 2.093-12.822 3.281-19.204 1.011-5.436 1.065-12.56 3.261-17.642 1.282-2.968 8.184-1.515 10.702-1.154zm9.267 19.091c.572-3.504.877-7.883 4.354-9.82 3.82-2.128 5.733 1.34 7.619 4.172 5 7.516 10.534 14.549 11.353 23.88.098 1.112.575 3.346-.497 4.116-.479.344-1.622-.563-2.362-.51-3.961.286-6.826 1.347-10.71-.89-7.599-4.377-11.139-12.492-9.757-20.948zm29.88 20.988c-.817-8.159-4.585-15.394-8.795-22.282-2.074-3.396-6.105-7.109-7.536-10.697-.768-1.922.59-4.302 3.38-3.478 1.39.411 4.067 4.097 4.996 5.372 2.386 3.278 4.364 6.934 6.251 10.513 2.018 3.825 7.753 17.862 1.703 20.572zm-25.017-81.242c.441-7.676.486-16.49 5.457-22.861 3.853-4.94 10.907-7.09 16.63-9 7.709-2.573 16.97-2.97 25.032-2.138 7.096.732 12.453 5.564 16.831 10.877 4.454 5.403 7.904 12.36 10.967 18.646.766 1.573 7.267 11.666 2.87 11.43-1.744-.093-3.26-3.498-4.596-4.504-1.046-.787-2.286-.69-3.224-1.32-1.006-.675-.788-1.3-1.568-2.134-5.37-5.736-10.311-2.433-16.104.588-.27-2 .204-5.718-1.47-7.18-2.189-1.914-4.476 1.118-6.047 2.604-1.43 1.355-3.191 3.823-4.992 4.556-2.338.95-1.543-.06-3.574-.859-4.088-1.608-7.233 3.152-9.3 5.92-.771 1.032-2.032 3.639-3.413 3.918-1.335.27-1.51-.682-2.661-1.033-3.256-.993-4.157 1.329-5.194 4.212-1.167 3.242-2.16 6.366-3.888 9.394-3.056 5.358-4.37 7.12-1.952 13.038-3.53.524-4.27.945-6.022-2.188-1.802-3.229-2.27-5.907-2.157-9.618.237-7.761-2.08-14.465-1.625-22.348zm81.948 36.722c3.696 6.675 6.045 15.964 6.006 23.57-.02 3.772-.241 8.412-2.002 11.835-1.69 3.284-5.228 4.928-8.486 6.327-7.855 3.374-16.703 3.335-24.961 1.831-4.286-.782-8.455-.277-12.123-2.852-2.76-1.94-6.089-3.823-6.897-7.378-.34-1.488.183-2.735.075-4.195a3.825 3.825 0 00-.15-2.034 57.25 57.25 0 00-1.457-.81c-.386-1.11.353-2.345.163-3.503-.228-1.398-1.388-2.536-1.93-3.803-1.495-3.494-.428-5.448 2.369-7.821.669-.527 1.342-1.048 2.02-1.565.608-.962 1.28-.966 2.015-.013 1.332.018 1.293.43 2.694.021 3.068-.894 5.642-4.159 8.648-5.306 1.168-.446 2.91-.067 3.859-.89.847-.734.302-2.276 1.047-2.997 2.377-2.306 6.118-.12 8.317-3.472 1.795-2.735 1.414-6.615 1.598-9.72 5.51 1.053 7.897 6.334 12.424 8.99.895-3.47 1.026-3.367 4.482-4.32-1.566 2.897.966 5.716 2.29 8.105zm4.218-36.847c1.015 1.308 1.79 4.555 0 4.868v-4.868zm4.703 11.81c8.413.017 13.79 10.653 16.246 17.242 2.67 7.165 5.483 16.722.501 23.7-1.911 2.676-4.255 2.921-7.33 2.574-3.705-.418-5.604-.954-4.154-4.913 2.716-7.42.673-16.851-4.141-23.062 6.621-1.28 2.424-7.353-.9-9.626-3.88-2.654-7.017-5.93-.222-5.915zM356.755 524.713c-1.98 5.25-3.991 10.484-5.652 15.893-1.574 5.126-.662 10.902-2.619 15.83-1.204-.595-1.55-1.653-2.596-2.296-.645-.398-1.769-.555-2.323-.993-.952-.75-3.261-3.547-3.887-4.632-2.162-3.753-.72-9.854.436-13.711 1.43-4.777 3.874-9.364 7.155-13.128 2.302-2.638 3.572-1.799 6.65-.5 1.819.769 3.693 1.26 2.836 3.537zm-14.994 41.42c-1.581 3.2-4.503 5.836-6.239 9.06-1.821 3.385-3.2 7.199-5.522 10.294-2.365 3.156-4.49 2.628-7.746 3.989-1.169.488-1.66 1.393-2.601 2.1-1.764 1.322-3.698 2.134-5.552 3.31-1.318-3.235-5.346-19.476-10.472-19.128-4.455.302-2.176 8.805-1.602 11.314.486 2.12 1.04 4.27 1.78 6.317.746 2.066 3.07 5.16 2.21 7.426-1.092 2.878-3.812 2.689-5.174.589-1.139-1.756-1.717-4.143-2.557-6.054-.737-1.68-4.111-10.875-7.027-9.45-2.809 1.374 1.56 10.289 2.291 12.04 1.766 4.228 5.152 8.292.677 11.68-6.793 5.144-15.158 9.016-22.768 12.724-4.442 2.165-8.436 5.01-13.099 6.768-4.33 1.632-9.334 1.91-13.52 3.786-1.03.462-.34 1.037-1.845 1.305-1.262.224-3.467-.378-4.82-.366-2.242.021-4.488.192-6.725-.09-1.26-.158-4.13-1.54-3.676.741-1.783-.495-2.473-2.295-3.774-3.419-1.159-1.003-2.64-1.546-3.933-2.333-2.675-1.628-4.675-3.483-5.478-6.585-1.884-7.284 2.1-14.865 7.015-19.943 2.822-2.913 6.132-5.336 8.72-8.473.907-1.1 1.553-2.38 2.705-3.274 1.411-1.096 3.347-1.232 4.713-2.342 1.017-.825 1.321-2.14 2.387-2.898 1.576-1.119 3.42-.655 4.909-2.124.849-.84 3.764-4.793 3.56-5.888l2.395.802c.486-2.436 4.687-5.44 6.76-6.608 1.048-.59 3.09-.561 3.869-1.196 1.037-.846.952-2.617 1.775-3.678 2.36-3.04 7.301-4.405 10.428-6.522 3.977-2.694 7.84-5.746 11.433-8.935a106.036 106.036 0 0018.894-22.116c2.107-3.296 4.062-6.657 5.562-10.27.924-2.222 1.845-6.175 4.126-7.465 2.356-1.331 7.766.472 10.404.662 3.875.28 9.915.106 13.388 2.01 3.713 2.037.694 3.72-1.217 6.148-2.797 3.552-4.473 7.901-5.87 12.163-1.076 3.278-1.277 6.451-1.98 9.756-.744 3.494-.737 8.21.985 11.421 1.705 3.178 13.99 9.158 12.21 12.753zM195.297 630.55c-8.342-11.36-1.436-27.986 6.725-37.165 9.846-11.075 23.86-17.303 35.37-26.31 13.31-10.413 26.98-20.087 38.774-32.302 5.978-6.19 11.183-12.864 15.903-20.058 4.006-6.11 6.915-14.247 15.01-15.13-4.775 5.953-5.054 14.53-8.746 21.157-3.909 7.019-9.672 12.856-15.54 18.25-12.393 11.392-25.777 21.828-39.162 32.009-6.832 5.196-13.475 10.627-20.284 15.848-6.098 4.678-12.503 8.678-16.017 15.805-6.063 12.296-6.425 30.512 7.001 38.087-6.918-1.38-14.699-4.29-19.034-10.191zM922.64 118.336c-2.468-4.938-7.094-6.697-11.738-8.63-4.546-1.89-8.701-4.219-13.743-4.824-2.242-.269-8.565.4-8.86-2.85-.247-2.707 6.36-5.425 7.883-7.487 2.257-3.058 3.79-8.022 2.915-11.883-.83-3.662-4.39-4.82-7.716-5.483-10.343-2.062-21.34-.546-31.71.302 1.27-1.775 3.059-3.231 4.076-5.357l1.644 3.418c.937-1.955 1.951-3.873 3.116-5.704l2.363 2.656c-1.31-4.596 3.094-4.573 2.63-8.447-.18-1.507-1.2-2.167-1.45-3.378-.492-2.408 1.367-3.914-.75-6.147-2.354-2.487-6.206-1.5-8.947-1.269-.344.03-.843.711-1.288.766-.616.078-.971-.77-1.733-.725-2.044.12-3.846 1.708-5.877 2.19-9.415 2.236-18.832 6.224-27.87 9.947-9.198 3.79-18.23 8.202-26.25 14.15-8.583 6.366-14.783 14.55-21.639 22.612-3.222 3.79-6.556 7.428-9.009 11.793-1.267 2.256-2.413 9.342-4.695 10.372-2.478 1.118-8.708-2.045-11.242-2.629-5.965-1.372-11.902-1.946-18.017-1.67-4.864.218-9.996.088-14.82.683-2.8.345-9.778 3.452-10.226 6.927-.198 1.544 1.57 2.828 1.967 4.275.6 2.188-.39 4.507.3 6.7 1.409 4.472 7.948 6.117 11.802 7.525 10.758 3.933 21.664 6.983 32.534 10.503 4.723 1.53 8.761 3.967 13.04 6.413 3.548 2.027 6.785 4.056 3.2 7.863-3.394 3.606-2.97 5.062-1.96 10.03 1.067 5.243 1.437 10.545 2.827 15.737 1.384 5.17 3.97 10.11 3.466 15.581-.504 5.453-2.76 11.054-4.87 16.052-2.131 5.048-4.484 10.037-6.8 15.004-2.142 4.595-4.461 9.254-9.417 11.215-9.463 3.743-21.552 3.15-31.414 1.79-11.193-1.543-22.756-4.16-33.342-8.153-10.178-3.84-21.373-9.73-29.79-16.69-4.498-3.716-9.368-6.47-14.14-9.797-4.837-3.37-8.509-7.917-12.746-11.953-8.304-7.91-18.527-13.362-29.05-17.711-11.829-4.889-24.042-4.381-36.576-4.91 1.972-3.877 4.512-7.582 5.444-11.898.971-4.495.268-9.38-.347-13.87-1.194-8.741-3.456-16.434-8.973-23.494-2.524-3.228-5.47-5.745-9.673-6.214-2.546-.285-7.251 1.671-9.089-.486-.81-.95-.62-2.951-1.13-4.122-.45-1.04-1.358-2.087-1.85-3.216-2.104-4.83-4.73-9.097-7.35-13.678-1.043-1.822-1.851-4.511-3.273-6.044-.774-.834-1.769-1.213-2.202-1.823-.81-1.142-1.183-3.23-1.858-4.517a28 28 0 00-4.323-6.074c-2.712-2.909-6.203-5.476-9.922-6.924-2.065-.806-3.579-.996-5.736-.878-.632.034-1.335.399-1.967.35-1.513-.114-1.276-.657-2.488-.909-8.111-1.689-18.988.681-26.596 3.59-8.014 3.065-14.523 7.106-19.393 14.368-11.963 17.834-9.175 40.861-4.1 60.504-3.07-.806-6.127-1.76-9.226-2.442-1.897-.419-4.487-.34-6.182-1.342-3.77-2.229-.704-7.948-.681-11.643.058-9.39-4.373-24.073-14.036-28.04-10.069-4.132-22.318 7.468-28.542 14.046-3.993 4.22-7.624 8.768-11.445 13.14-2.67 3.055-6.196 7.926-10.877 7.128-10.209-1.741-7.095-21.165-6.642-27.73.717-10.378 2.245-20.923 2.253-31.328.005-6.325-1.09-14.857-8.856-15.6-10.689-1.02-20.815 8.704-27.048 16.185-16.439 19.726-20.07 45.8-15.673 70.554.645 3.63 2.703 8.106-1.224 10.359-5.159 2.96-11.754 4.752-17.298 6.926-12.398 4.858-23.878 11.338-35.55 17.672-11.556 6.272-22.927 12.497-33.353 20.577-10.393 8.055-20.68 16.59-30.149 25.722-4.718 4.552-9.272 9.301-13.568 14.257-4.042 4.662-7.317 9.957-11.711 14.314-2.99 2.967-8.493 6.945-9.15 11.471-.531 3.653 5.63 6.186 8.41 7.874 1.906 1.158 3.227 1.122 3.365 3.186.17 2.574-2.543 6.7-3.509 9.153-2.46 6.26-5.677 11.446-9.906 16.655-9.366 11.54-20.684 21.324-31.427 31.575-9.981 9.525-19.762 18.9-27.079 30.719-1.793 2.896-6.254 8.843-2.014 11.553 1.097.702 4.464 1.257 5.581.504 1.385-.934.683-2.34 2.32-3.277-.411 3.147 13.879-3.002 14.99-3.572 3.004-1.54 5.72-3.343 8.79-4.722 1.8-.81 2.02-1.937 3.413-2.84.746-.483.755.165 1.752-.135.898-.272 3.006-.375 3.676-1.24.018-.025.75-2.12.128-1.686 2.434-1.695 3.873.87 2.412 3.278-4.32 7.115-9.784 12.35-11.477 20.901-.615 3.106-1.664 8.872.232 11.703.069.103.707-.197.785-.087.072.104.768 1.071 1.054 1.346 1.675 1.603 1.567 2.317 4.363 2.25 1.24-.03 3.713-.189 4.848-.749.854-.421 1.271-1.46 1.928-1.83.664-.375.586-.57 1.21-.788.127-.046.372 1.045.615 1 1.332-.251 1.906-1.047 3.038-1.688 3.26-1.846 6.458-3.876 9.563-5.735 3.126-1.87 5.46-4.48 8.574-6.653 3.308-2.309 6.013-4.08 8.557-7.283 1.761-2.22 3.863-3.027 5.045-4.119 1.403-1.297 3.822-6.303 6.083-6.898 1.03-.272 1.854.64 2.418.266.635-.42-.057-1.225.261-1.698.595-.883.67-1.03 1.68-1.84 1.296-1.036 2.888-1.314 3.975-2.664 1.21-1.503 1.375-3.187 2.862-4.594 3.578-3.386 6.763-6.953 10.554-10.234-1.464 8.165-2.915 16.272-1.78 24.576 1.099 8.048 4.514 11.652 11.217 15.736 1.476.9 3.024 2.208 4.609 2.845.963.388 2.414.157 3.132.442 2.43.964 1.604 2.937 1.937 5.16.517 3.446 3.684 6.098 5.728 8.783 1.719 2.258 4.819 7.395 7.695 8.175 2.597.704 5.047-2.334 7.21-3.628 3.261-1.95 6.814-3.348 10.253-4.942 6.717-3.112 13.207-6.826 19.849-10.118 3.034-1.503 6.098-2.115 9.309-3.086 3.857-1.166 7.148-3.397 10.847-4.92 6.651-2.736 13.024-6.002 19.635-8.876 13.683-5.948 28.606-10.034 40.782-18.958 5.508-4.037 12.6-4.467 18.029-8.39 5.658-4.09 2.188-10.344-.234-15.363-6.619-13.711-10.57-27.95-19.68-40.44-4.735-6.49-9.11-13.197-13.238-20.096-3.652-6.106-3.578-13.022-4.494-19.919-.614-4.609-1.189-9.238-1.939-13.827-.475-2.917-2.01-6.592-.153-9.235 1.995-2.841 6.734-4.05 9.729-5.55 3.722-1.861 7.326-3.865 11.188-5.442 8.825-3.602 18.12-6.095 27.378-8.296 2.76-.656 14.577-5.35 16.826-2.6-2.763 1.847-3.57 5.2-4.809 8.075-1.845 4.283-3.75 8.364-5.096 12.852-2.782 9.281-5.148 18.71-7.416 28.127-2.253 9.35-4.937 18.774-5.626 28.407-.353 4.917-.11 9.837-.12 14.76-.009 5.252-1.098 10.404-.904 15.67.13 3.502.424 7.709 2.475 10.696 1.9 2.768 5.132 3.077 7.948 4.557 3.716 1.953 5.171 2.786 5.205 7.036.041 4.953-.28 9.817.184 14.767 1.614 17.237 7.404 37.692 18.96 51 .77.885 23.193 29.17 25.675 25.03 1.71 2.025 4.266 2.765 6.37 4.53 3.307 2.775 6.552 4.993 9.286 8.43 4.977 6.252 9.208 13.58 10.453 21.576 1.069 6.88.426 15.108-3.454 21.072-3.893 5.983-12.215 9.908-18.497 12.854-8.258 3.871-16.638 4.306-25.604 3.336-4.424-.479-8.813-1.227-13.205-1.933-1.827-.294-3.958-.295-5.688-.984-1.855-.737-2.483-1.553-4.335-1.644-1.383-.068-2.14.238-3.601-.067-1.81-.378-3.775-1.066-5.58-1.53-2.007-.517-3.653-1.252-5.502-2.2-1.712-.878-3.64-1.048-5.289-1.88-2.84-1.433-3.715-3.83-7.558-2.501-4.056 1.402-3.208 4.911-5.797 7.316-2.3 2.14-5.15.162-7.44-1.11-3.37-1.87-6.87-3.428-10.459-4.845-3.876-1.53-7.835-2.861-11.869-3.915-4.412-1.152-9.258-1.38-13.508-3.058-3.735-1.473-5.342-4.324-8.048-6.987-2.846-2.801-6.707-3.868-10.652-3.619-7.184.455-12.09 8.223-15.886 13.617-10.603 15.07-22.323 27.91-36.496 39.748-6.772 5.654-14.405 10.464-20.954 16.333-2.762 2.476-4.767 4.797-8.039 6.64-4.297 2.422-8.196 5.46-12.304 8.19-16.067 10.68-27.852 26.236-23.409 46.549 2 9.143 5.995 15.56 13.459 21.063 3.389 2.497 6.49 4.575 10.807 4.43 4.076-.136 7.672-.278 5.27-5.129 3.043.942 5.589 3.267 8.91 4.458 3.826 1.37 8.804 2.225 12.866 2.308 6.505.133 14.156-3.297 19.852-4.751 1.592-.405 4.66-1.07 6.475-2.568 1.443-1.19 1.13-2.599 3.314-3.164 2.862-.74 3.952.125 6.693-1.61 3.976-2.517 8.288-4.012 12.413-6.332 5.557-3.126 10.899-6.65 16.404-9.87.734 2.023 5.047 14.046 7.71 8.25 2.32-5.046-5.207-9.365-.632-14.474 4.365-4.871 5.277.25 9.51 2.512 5.879 3.14 4.997-2.725 3.288-6.198-.683-1.39-2.12-3.484-1.697-5.104.816-3.129 3.347-1.293 5.337-.974 3.134.504 5.667-.359 8.02-2.461 1.962-1.754 5.207-3.268 6.393-5.579.593-1.157.697-2.746 1.19-3.975.651-1.619 1.115-1.226 1.352-3.235a12.266 12.266 0 01-.271-3.155l1.542-.313c.015-.073.051-2.1-.156-1.798.48-.697 1.51-.992 2.104-1.96.545-.89.038-2.596.257-3.647.444-2.127 1.654-3.844 2.643-5.74 2.092 8.853 1.487 18.086 3.486 26.944 1.642 7.272 5.381 13.791 9.743 19.754 2.022 2.764 4.699 4.725 6.815 7.352 1.791 2.222 2.687 4.18 5.33 5.493 1.759.872 3.737 1.322 5.55 2.075 1.158.483 3.796 2.702 4.883 2.663-.947.035 1.78.12 1.148.011.047.008-.323-1.188.006-1.168 3.953 3.744 8.083 3.753 12.658 6.08 2.096 1.066 2.88 1 5.114 1.394 2.895.51 5.331 2.162 8.103 2.338 4.267.271 9.073.844 13.522.687 1.21-.044 3.485-.824 4.434.235.627.699-.562 5.752-.637 6.91-.782 12.133.84 24.872 5.958 35.975 4.245 9.206 8.77 20.097 16.278 27.127 8.322 7.792 19.979 13.284 31.109 15.386 12.323 2.326 24.538.584 36.899-.14 12.542-.733 24.146-2.512 36.24-6.148 11.25-3.381 21.903-7.788 32.666-12.436 7.32-3.16 16.6-7.71 12.764-17.305-.928-2.32-4.526-8.77-7.71-5.588-2.817 2.816 1.892 8.145 4.023 9.934-16.063 11.203-35.555 14.908-54.35 18.877-10.322 2.18-20.491 2.087-30.99 2.118-8.897.025-17.793.28-26.632-.962-7.997-1.124-17.308-3.233-23.259-9.08-6.224-6.118-12.116-13.422-16.365-21.053-4.662-8.376-5.793-17.432-6.17-26.877-.198-4.973-.421-10.007.099-14.968.378-3.601 2.216-4.029 3.128-6.874 2.107 2.952 3.494 1.861 6.081.136 1.672 4.67.927 9.52.64 14.336-.28 4.691.345 9.447.92 14.105.974 7.919 4.767 16.178 9.58 22.553 2.176 2.883 5.437 4.1 8.387 6.09 3.76 2.538 7.661 4.901 11.587 7.179 7.393 4.29 15.462 7.956 23.795 8.602 2.92.227 5.042 1.748 8.52 1.535 2.065-.126 4.145-.833 6.206-.777 2.065.056 3.839.717 5.96.563 8.815-.638 17.902-3.526 26.63-5.113 9.45-1.717 18.958-3.566 27.98-6.956 3.908-1.47 7.136-3.365 9.318-7.057 1.558-2.638 1.15-7.368 4.054-8.946-1.902-2.454-1.195-2.887.448-5.081.767-1.023 3.243-3.731.24-3.682.913-3.953-.614-7.776-1.265-11.643-.28-1.67-.204-4.2-1.237-5.637-.603-.838-1.606-.854-2.145-1.472-.557-.012-.993-.245-1.305-.695-.037-.66.272-1.063.926-1.207-.15-1.307.816-.838-.15-2.881-1.32-2.79-3.823-5.22-6.193-7.116-2.019-1.616-3.506-4.486-5.837-5.348-3.033-1.123-6.214-2.342-9.401-3.384-7.226-2.363-14.388-3.266-21.97-1.956-3.472.6-6.892 1.336-10.246 2.41-1.962.628-4.963 2.324-6.7.495-.598-.627-1.844-5.957-1.766-6.533.311-2.312 5.03-3.245 6.753-4.052 2.632-1.233 7.505-2.551 9.176-4.998.7-1.026-.091-5.383.024-5.461 1.104-.744 5.738 9.836 7 10.558 1.825 1.043 6.953-.336 8.84-.543 5.628-.62 11.35-.97 16.863-2.313 10.572-2.575 20.952-6.558 31.24-10.078 19.572-6.695 38.467-15.52 56.062-26.48 8.217-5.12 16.38-11.664 22.633-19.098 2.82-3.353 4.813-7.33 7.692-10.617 3.323-3.793 2.275-7.214 3.764-11.965 3.015-9.615 6.676-18.35 8.317-28.427 1.69-10.375 2.387-20.968 1.919-31.472-.926-20.76-1.933-40.443-11.055-59.518-8.36-17.48-19.193-34.56-32.072-49.034-2.994-3.363-6.157-6.568-9.835-9.184-3.96-2.818-8.317-5.028-11.901-8.356-2.941-2.731-5.4-5.948-8.477-8.54-3.777-3.181-8.268-4.587-12.691-6.619-4.24-1.946-8.107-4.478-12.443-6.25-2.638-1.077-5.311-2.072-8.062-2.824-2.032-.556-4.733-.59-6.592-1.647-2.941-1.671-5.95-6.533-7.871-9.28-2.803-4.007-4.322-8.67-5.655-13.328-1.623-5.668-3.131-11.371-4.717-17.05-.543-1.94-2.57-8.693 1.472-7.054 1.182.48 2.291 2.61 3.202 3.52 1.726 1.728 3.857 3.272 5.998 4.447 3.454 1.895 7.05 4.177 10.363 5.483 2.92 1.15 5.92 3.407 8.642 5.03.413.247.535 1.095 1.067 1.332 1.254.557 2.09-.98 3.274-.603 1.618.514 1.884 2.04 2.782 3.252 1.302 1.76 1.977 1.899 3.965 2.804 2.212 1.007 3.836 2.997 5.993 3.984 2.62 1.197 8.386.268 8.78 4.397 4.072-2.66 9.179 2.505 11.72 5.185 2.558-3.928 7.089.671 10.96-.633-2.142 2.978-1.753 2.682 1.627 3.05 2.853.312 4.561 2.207 7.38 3.308 1.954.762 4.112 2.044 6.142 2.581 1.92.508 3.373-.63 5.044-.346 1.153.196 2.248 1.193 3.344 1.465 1.39.346 3.37.766 4.94 1.139 1.912.454 3.813.037 5.719.398 2.224.421 4.144 1.746 6.402 2.176 2.518.48 5.136.16 7.639.77 2.281.556 3.668 1.196 6.031 1.22 3.525.034 7.459.5 10.94.102 1.853-.212 2.88-1.152 4.977-.233 1.399.613 2.237 2.506 4.144 1.639-2.013-.807-.246-3.949 1.973-1.542.525-1.35.864-2.103 2.324-2.546-.073 1.32-.289 2.647 1.395 2.924.129-.92.26-1.838.388-2.758 3.661 2.788 4.528 3.772 7.983.37-.092 1.114-.562 2.374.57 3.163l2.174-3.613c1.224 3.886 7.067 2.545 9.9 1.856 1.098-.267 4.132-.69 4.849-1.59.497-.624.436-1.113.62-1.496.163-.34-1.699-1.176-.114-1.664 1.193-.37 2.123 2.248 3.524 2.144 1.25-.093 1.755-2.209 2.654-2.638.086-.04.696.854 1.12.658.656-.304 1.03-1.105 1.756-1.39 1.571-.614 3.603-.46 5.362-1.19 2.232-.924 4.481-1.365 6.759-2.127 2.888-.965 4.198-2.862 6.542-4.414.55-.364 1.122-.152 1.662-.41.727-.346 1.49-1.159 2.355-1.542 2.714-1.204 5.033-2.023 7.608-3.684 2.296-1.482 5.327-2.576 7.371-4.354 1.7-1.48 2.619-3.64 4.33-5.146 2.457-2.162 8.806-4.874 7.776-9.097 4.11.628 5.116-2.033 6.624-4.968 1.435-2.792 4.376-3.629 6.299-6.175.831-1.1 2.17-2.626 2.628-3.882.274-.747-.412-1.527-.227-2.037.853-2.346 4.142-3.37 5.665-5.486 1.937-2.692 2.559-6.096 4.175-8.861.318-.544 1.1-.867 1.404-1.447.195-.373-.21-1.297.025-1.663.564-.869 1.45-1.169 2.016-1.974 1.37-1.95 1.62-4.72 2.85-6.93.304-.544 1.36-2.064 1.493-2.388.445-1.088.31-1.803.54-3.014.068-.364.772-2.471.916-2.772.452-.94.889-1.08 1.58-2.111 1.729-2.583 2.802-6.64 2.944-9.776.06-1.33-.382-2.705.1-3.974.415-1.097 1.695-1.774 2.178-2.923 1.266-3.013 1.06-7.273 1.408-10.496.378-3.513 1.502-6.976 1.813-10.463.15-1.688-.642-3.183-.584-4.773.067-1.821 1.012-2.161 1.376-3.676.415-1.73-.193-3.723.178-5.578.346-1.726.848-3.323.991-5.093.373-4.61-.153-9.433-.353-14.045-.077-1.79-.317-3.657.157-5.41.381-1.41 1.937-2.986 1.886-4.515-.16-4.726-3.939-.636-6.111-.96-2.526-.377-2.99-6.045-3.656-8.195l-4.88-15.755c7.753-2.02 15.815-1.437 23.73-1.982 7.779-.535 15.373-2.223 22.915-4.124 6.368-1.604 13.335-2.535 19.057-5.96 4.805-2.877 8.768-9.242 5.96-14.858zM169.719 220.003c3.101-1.612 2.319-3.84 4.597-5.91 12.746-11.584 27.705-21.7 42.697-30.051 15.795-8.8 33.518-12.526 49.662-20.324 2.172-1.049 4.993-2.689 4.183-5.61-.947-3.415-4.198-1.844-6.515-1.038-7.722 2.685-15.94 3.696-23.772 6.055-16.718 5.035-32.374 13.718-46.536 23.88-8.24 5.912-16.132 12.448-23.168 19.79-2.591 2.702-6.046 5.855-6.72 9.748-.835 4.818 2.013 5.31 5.572 3.46"/><path d="M218 522.887c-.075-4.258-4.712-2.71-7.098-2.138-9.697 2.328-18.366 4.11-26.948 9.501-15.928 10.004-27.996 25.202-35.804 42.021-1.04 2.238-5.226 9.33-1.87 11.442 2.211 1.393 3.553-2.662 4.38-4.168 4.204-7.662 9.835-14.445 15.497-21.103 12.57-14.782 27.68-24.164 45.76-31.014 2.218-.84 6.138-1.446 6.083-4.54M753.98 418.309c-3.354-6.75-8.779-15.077-16.284-17.857-4.153-1.538-6.61 1.007-5.377 5.26.98 3.382 4.252 5.034 6.695 7.277 6.287 5.772 10.159 14.389 12.455 22.39 2.427 8.46 2.911 17.639 2.868 26.396-.023 4.624-1.257 8.642-1.927 13.142-.263 1.77-.712 5.669 1.321 6.773 4.505 2.448 6.586-10.333 7.046-12.79 1.695-9.066 1.531-17.413.104-26.463-1.306-8.276-3.138-16.558-6.9-24.128M741.093 93.991c1.833-2.471.496-5.931 1.042-8.75.571-2.953 2.276-5.94 3.717-8.524a177.351 177.351 0 0110.292-16.258c3.823-5.372 8.486-9.95 12.549-15.112 1.374-1.746 3.81-4.242 3.215-6.344-.96-3.403-3.054-1.744-4.732-.318-9.17 7.798-17.245 17.413-23.768 27.511-3.095 4.793-6.02 10.042-7.044 15.727-.53 2.936-.534 6 .337 8.875.547 1.807 2.19 6.163 4.392 3.193M175.985 509.941c4.595-.425 9.216-.577 13.822-.813 3.409-.175 7.244.035 10.373-1.607 3.149-1.651 1.78-4.126-.838-4.492-1.505-.211-4.045.805-5.658.875-1.747.075-3.503.021-5.25.028-5.11.019-10.615-.02-15.541 1.678-1.609.555-4.046 1.41-4.708 3.25-1.415 3.934 5.669 1.278 7.8 1.081M216.22 150c6.673-.8 13.123-2.8 19.697-4.075 6.25-1.21 7.315-6.14-.085-5.918-2.485.074-26.44 4.62-19.612 9.993M767.626 397.163c-4.483-1.122-2.164 3.851-.777 5.389 2.566 2.843 3.968 4.972 4.73 8.763.445 2.207.028 7.19 1.9 8.878 1.846 1.661 1.973.558 2.3-1.493.924-5.781-.92-19.725-8.153-21.537M718.409 82.47c1.27-1.346-.092-7.2.058-8.916.183-2.079.675-3.838 1.295-5.789.3-.946 1.815-4.284 1-5.321-1.13-1.437-3.009.991-3.604 1.947-1.933 3.111-2.385 8.298-2.063 11.801.115 1.268.882 8.854 3.314 6.278M454.441 576.135c.211-3.317 3.404-5.615 3.413-9.141.012-3.962-2.654-5.678-5.974-3.103-2.002 1.553-3.561 5.336-6.269 5.831-5.43.996-7.561-8.76-12.911-7.631-4.631.977-2.197 8.932-.8 11.617 1.48 2.845 4.17 4.84 3.295 8.34-1.04 4.157-4.607 6.553-3.22 11.297 2.579 8.815 8.175.573 11.54-2.197 2.399-1.975 3.848-1.624 6.177.312 3.19 2.652 5.628 4.453 9.497 6.24 3.412 1.576 6.703 2.675 6.81-2.612.083-4.159-3.057-8.297-5.813-11.118-2.288-2.341-5.979-4.144-5.745-7.835M394.657 562.984c-3.992-4.256-9.034 6.6-12.26 7.801-5.23 1.947-6.433-8.489-11.247-8.16-3.747.255-3.451 5.625-2.635 8.074.878 2.637 3.506 4.792 3.946 7.494.677 4.14-7.156 12.417-1.69 16.416 4.667 3.415 6.405-8.122 12.239-3.415 2.864 2.31 10.878 10.909 14.849 6.63 4.692-5.057-6.468-13.693-8.505-17.539-2.756-5.208 11.153-11.064 5.303-17.3M491.367 415.107c-1.145-.505-2.995.33-4.234.277-1.33-.056-2.715-.66-4.027-.884-2.85-.488-7.864.217-9.887-2.324-2.064-2.592-.495-7.796-1.377-10.95-.48-1.714-1.035-3.83-3.344-3.065-2.68.887-2.615 5.808-2.935 7.966-.471 3.185-.85 5.614-4.052 6.747-2.37.838-4.863.416-6.78 2.363-1.403 1.426-2.35 4.031-1.251 5.895 1.65 2.8 5.224 1.35 7.703 2.235 3.78 1.35 2.882 7.527 3.657 11.074.496 2.279 1.587 8.66 4.86 8.558 4.462-.139 2.73-9.105 2.482-11.722-.25-2.655-.848-4.907 2.115-5.733 2.503-.696 6 .597 8.584.581 3.265-.02 7.112-.84 9.082-3.766 1.125-1.673 1.838-6.178-.596-7.252M655.34 525.455c7.096.612 2.796 9.355 7.504 12.83 4.492 3.316 5.096-5.836 5.095-8.449-.003-6.33 7.695-3.99 12.382-5.038 4-.893 8.366-5.047 3.59-8.585-3.447-2.554-9.163-1.369-13.165-2.045-5.423-.917-3.812-4.538-3.932-8.711-.043-1.53-.57-6.984-2.546-7.414-3.619-.787-3.834 9.372-4.078 11.305-1.032 8.179-6.65 3.196-11.113 7.296-5.834 5.36 2.037 8.446 6.264 8.811M317.915 372.965c-11.084 9.085-23.67 7.783-33.815-1.997-4.29-4.136-6.882-8.304-6.498-14.356.344-5.446 1.943-11.464 6.304-15.142 3.672-3.1 10.598-4.212 15.248-4.646 6.517-.606 12.348 2.942 16.856 7.376 3.926 3.86 8.515 8.78 9.12 14.512.637 6.03-2.8 10.632-7.215 14.253m1.686-36.153c-9.943-9.575-27.574-8.614-37.84.118-11.52 9.8-13.49 28.213-2.418 38.95 11.67 11.317 27.073 10.096 39.425.71 6.626-5.035 10.221-11.496 11.144-19.785.871-7.834-4.874-14.758-10.311-19.993M511.855 172c-1.116 3.626-.343 7.489-.145 11.183-3.152-1.972-5.114-5.488-8.498-7.122-1.623 4.484 6.464 17.309 11.554 13.105 4.657-3.847 1.22-14.582-2.911-17.166M528.393 194.111c-2.509.935-4.841.676-7.316 1.155-1.632.316-1.843-.612-2.055 1.257-.45 3.989 5.985 5.532 8.884 5.476 3.538-.07 7.415-2.448 7.073-6.321-.355-4.035-3.858-2.583-6.586-1.567M530.449 177.346c-1.138-1.034-3.76-4.938-5.686-4.27-1.475.512-.433 2.275 0 3.157 1.62 3.308 4.8 6.123 7.34 8.777-1.88.668-5.505 1.098-4.548 3.994.88 2.66 4.867 2.25 6.778 1.131 6.545-3.837-.609-9.816-3.884-12.789M537.057 171.066c.448 1.827.688 3.551-.3 5.264l-5.45-9.777c-4.385 1.8 3.305 15.886 7.784 14.327 3.098-1.078 1.61-7.699 1.12-9.782-.261-1.115-.884-4.66-2.43-5.02-3.04-.709-1.056 3.64-.724 4.988"/><path d="M312.17 368.267c-2.53-1.864-6.719 2.501-9.392 2.517-5.403.03-2.46-6.308-5.842-8.362-1.763-1.072-9.145.009-7.979-4.427.701-2.668 3.444-.742 4.947-2.372 1.886-2.043-.802-3.673-2.475-4.512.734-.979 4.964-1.41 6.027-.732 1.834 1.171 1.728 4.683 3.411 6.491 2.184-2.788 1-6.29 3.325-8.794.903-.973 3.545-1.704 2.518-3.439-.596-1.008-3.205-.675-4.098-1.476-.779-.699-.74-2.953-1.998-3.14-2.055-.306-2.005 2.834-2.622 3.741-1.857 2.725-10.016 1.785-6.634 7.313-2.253-1.124-8.399-2.013-7.206 1.912.305 1.004 1.467 1.618 1.755 2.762.25.991-.3 2.404-.352 3.4-.098 1.886-.249 4.092 1.147 5.61 1.919 2.086 4.483.568 6.541 1.476 2.805 1.235 1.794 3.804 3.273 6.051 1.937 2.939 4.915 2.036 7.657 1.147 3.27-1.06 3.787-1.157 6.18 1.567 1.093-1.414 4.09-5.056 1.816-6.733"/><path d="M316.566 356.791c-2.638-.488-1.599-8.35-4.81-4.933-1.203 1.28.03 3.778-1.313 5.15-.902.921-2.046.377-2.948.982-.812.542-1.017 1.582-1.495 2.375 1.697.764 3.009.863 4.82.53 0 1.365-.906 5.383 1.423 5.09 2.166-.274 1.554-4.307 2.657-5.56 1.12-1.275 5.631-.684 6.051-2.475.52-2.218-3.232-.946-4.385-1.159"/></g></g></svg>