<svg width="1024" height="768" xmlns="http://www.w3.org/2000/svg"><g fill="none" fill-rule="evenodd"><path d="M797.91 157c4.428 14.47 6.332 28.615 10.048 43.193 4.092 16.046 8.404 32.73 14.006 48.3 10.466 29.105 27.55 48.764 43.657 75.507 12.564 20.863 47.297 91.38 53.758 102.502 4.036 6.951 6.63 17.2 9.402 24.746 1.57 4.27 3.256 15.05 2.511 19.433-12.114-1.352-24.993-2.83-36.846 0-3.856.922-17.084 8.853-20.8 7.925-4.099-1.023-1.673-7.243-3.227-11.031-4.409-10.745-9.336-21.725-12.557-32.844-3.29-11.366-25.298-81.851-37.758-104.755-6.405-11.77-11.197-23.644-18.337-34.986-7.423-11.795-13.577-23.112-25.767-30.581 1.263-10.215 7.085-21.36 10.457-31.117 3.298-9.545 4.853-17.879 6.06-28.05 1.15-9.661 4.826-19.119 3.421-28.964-.73-5.122-4.086-8.55-5.326-13.079-.713-2.606-2.637-.314.083-3.584 1.27-1.524 5.595-1.53 7.215-2.615zm-10.168 7.546c2.107 11.453-4.835 27.234-7.328 38.53-2.61 11.83-5.731 23.388-8.544 35.139-1.395 5.828-4.075 10.953-5.804 16.598-1.937 6.334-2.834 12.944-4.821 19.304-3.963 12.674-9.425 24.83-7.872 38.321 1.351 11.732 2.966 24.378 6.814 35.52 4.565 13.222 8.858 25.708 9.886 39.798.976 13.401-2.279 27.352-5.794 40.194-1.245 4.547-10.64 37.519-13.487 37.045-2.168-14.942-13.747-29.573-21.205-42.527-8.58-14.897-21.144-27.794-33.587-39.657 3.493-1.366 6.808-8.575 8.49-11.975 2.323-4.693 5.024-9.448 7.687-13.95 4.876-8.242 18.625-41.005 22.823-49.21 4.97-9.714 38.125-107.792 37.386-117.957-.331-4.544-.595-6.226 1.82-9.665 3.164-4.505 9.918-11.148 13.536-15.508zM710.978 160c0 4.523.407 5.345-2.291 8.376-2.284 2.564-5.24 4.416-7.457 7.188-4.968 6.215-9.327 12.95-12.865 20.084-6.875 13.868-11.427 30.276-13.695 45.572-2.503 16.884-1.047 34.204-2.15 51.194-.411 6.316-1.498 13.774-5.687 18.857-3.748 4.549-10.568 7.88-15.723 10.481-11.797 5.95-21.74 13.813-30.732 23.67-2.193 2.404-2.797 7.882-5.288 9.874-2.516 2.014-10.166 7.985-13.112 9.3-6.846 3.057-33.519.164-40.759-1.1-7.218-1.262-17.488-7.282-23.857-10.445-9.04-4.489-20.454-14.007-34.244-28.554 39.049-14.921 84.103-28.993 118.972-52.885.198 2.844 5.157 10.708 5.666 8.362 3.26-14.992 5.446-30.183 8.663-45.17.855-3.98 1.706-7.973 3.249-11.731.772-1.882-8.269-3.328-11.912-1.886-13.57 5.374-27.65 7.997-41.939 11.148-26.33 5.805-56.265 8.032-79.023 23.896-9.71 6.769-19.377 15.412-27.253 23.954-8.744 9.484-16.872 25.121-18.068 38.324-15.806-7.122-36.467-4.047-52.763-2.572 5.913-14.89 25.181-29.575 37.066-39.722 9.816-8.385 19.418-17.07 30.248-24.194 24.164-15.895 48.529-30.943 76.401-39.944 13.795-4.454 27.572-8.952 41.932-11.262 7.83-1.26 15.775-1.645 23.647-2.438 7.68-.774 10.605-2.416 16.283-7.818 10.608-10.09 25.19-12.34 38.857-15.961 13.435-3.56 26.344-6.586 37.834-14.598zm-237.025-49.087L491.888 120c-7.259 2.945-12.893 4.945-16.903 6-6.015 1.583-14.27 24.752-22.011 24.752s-7.802-20.215-3.974-28.487c2.552-5.515 10.87-9.299 24.953-11.352z" fill="#FF5678"/><path d="M408.47 402.161c1.127.386 1.543-.344 1.246-2.188-1.127-.502-1.543.226-1.246 2.188m391.001-280.827c-1.785.164-.776 1.927.284 2.587l-.284-2.587m-104.045 259.27c1.064-.815.684-1.506-1.136-2.066-1.035.842-.655 1.532 1.136 2.066m-403.294-4.428c-5.785-.93-10.267-9.699-15.038-7.853-5.97 2.31-11.437 12.743-15.516 17.44 3.145 2.527 6.626 4.799 9.956 7.075 3.435 2.349 2.553 3.18 6.016.388 2.52-2.03 4.54-5.687 6.63-8.181 2.511-3 5.702-5.667 7.952-8.87m133.32 332.21c1.024.087 1.718-23.03 2.548-26.21 1.846-7.062 5.064-14.171 8.625-20.52 1.52-2.71 4.236-6.206 5.39-8.987 1.777-4.285-1.098-7.212-1.91-12.132-1.727-10.49.564-19.76 4.238-29.487-6.765-1.538-13.29-4.07-20.168-5.126 0 9.283-.918 17.063-4.744 25.577-.958 2.133-2.887 3.864-2.06 6.474.268.85 2.63 1.4 3.198 2.183 3.186 4.401 3.7 7.899 3.872 13.387.575 18.436-1.44 36.534 1.01 54.841m-47.907-318.91c3.739 3.16 15.674-19.145 19.78-19.018 8.726.272-3.672 22.202-4.431 24.884 3.49-1.244 6.792-9.148 8.658-12.212 1.601-2.625 7.484-15.518 10.845-16.313 6.555-1.551 3.647 10.37 2.73 13.165-2.063 6.289-4.08 12.512-5.88 18.884 3.829-2.09 6.67-14.6 8.389-18.687 2.374-5.65 4.277-11.845 7.98-16.787 2.53-3.372 6.689-8.127 11.251-8.364 5.547-.29 7.632 5.623 12.63 6.729.667-12.6-.573-25.263.9-37.824-9.864.206-19.783.663-29.523 2.343-5.484.946-9.126.909-11.828 6.04-2.093 3.977-3.73 8.132-5.707 12.167-7.603 15.511-15.731 30.914-25.794 44.993m-124.802-47.021c-7.202 7.392-13.714 15.037-20.5 22.791-6.803 7.773-16.264 12.76-22.69 20.785-5.872 7.336-10.28 15.78-15.88 23.353-6.196 8.386-11.325 17.776-16.602 26.774 5.44.995 6.78 1.107 10.303-2.934 2.917-3.346 5.305-7.373 8.25-10.746 6.844-7.845 13.443-14.234 21.996-20.38 8.36-6.007 19.129-11.264 29.128-14.32 3.9-1.192 5.332-.89 7.491-4.457 1.55-2.555 2.114-5.756 3.686-8.372 3.393-5.65 8.755-8.823 14.084-12.405-6.022-7.092-13.24-12.887-19.266-20.09m480.995-215.239c-1.975 1.479-2.24 7.03-3.148 9.337-1.665 4.236-4.028 8.211-6.1 12.256-3.633 7.102-6.651 15.052-6.518 23.198.136 8.374 6.627 13.182 14.427 14.7 8.571 1.67 15.15-1.701 22.682-5.305 7.475-3.578 13.644-9.231 19.59-14.94 4.705-4.518 7.705-11.876 13.04-14.41 5.063-2.408 11.28-4.537 12.804-11.68 1.041-4.88-.942-4.307-5.22-3.266-4.554 1.105-7.85 4.032-12.075 5.604 2.351-5.36 2.916-9.76.021-15.012-1.667-3.025-4.794-8.03-8.583-8.151-2.496-.08-5.48 2.65-7.78 3.528-2.818 1.073-5.938 1.568-8.837 2.367-8.592 2.374-15.479 2.83-24.303 1.774m16.93 337.593c2.882.48 12.164-32.385 13.439-37.05 3.508-12.841 6.746-26.803 5.774-40.197-1.025-14.127-5.383-26.532-9.85-39.804-3.773-11.198-5.42-23.76-6.79-35.523-1.575-13.509 3.883-25.644 7.843-38.325 1.829-5.858 2.791-11.853 4.399-17.745 1.69-6.2 4.676-11.821 6.19-18.161 2.804-11.758 5.905-23.312 8.512-35.143 2.48-11.254 9.257-24.65 7.161-36.08-3.528 4.267-7.793 7.988-11.279 12.18-3.554 4.277-2.318 4.612-1.888 10.542.71 9.792-1.349 21.166-3.629 30.678-4.755 19.833-13.162 37.845-19.297 57.086-3.153 9.894-4.407 21.048-8.868 30.386-3.999 8.372-9.533 15.815-13.774 23.905-4.65 8.868-10.094 17.24-15.178 25.865-2.408 4.086-4.912 8.087-7.05 12.325-1.801 3.573-3.796 12.187-7.323 13.57 12.416 11.879 21.921 24.044 30.479 38.96 7.447 12.982 18.966 27.553 21.128 42.531m25.836-200.513c11.719 7.186 17.59 17.743 24.784 29.073 7.175 11.304 13.893 22.875 20.28 34.64 12.704 23.407 22.052 46.655 29.073 72.394 3.166 11.61 7.775 22.88 11.065 34.247 3.04 10.501 4.028 21.187 8.403 31.25 1.209 2.78 2.143 8.924 5.346 9.905 3.775 1.157 13.903-4.023 17.72-4.977 12.4-3.094 25.33-3.718 38.045-2.297.743-4.38-4.284-13.02-5.851-17.288-2.59-7.053-4.918-14.575-8.39-21.245-5.98-11.484-12.894-22.655-19.812-33.478-7.33-11.466-13.36-23.766-20.856-34.948-3.46-5.16-8.405-12.123-10.68-17.86-1.125-2.834-1.476-3.929-2.832-6.333-1.183-2.101-2.565-4.173-3.815-6.25-15.76-26.19-27.404-52.77-37.536-81.318-5.547-15.626-10.183-31.356-14.573-47.35-4.126-15.03-4.907-30.529-9.49-45.508-2.696 1.806-7.218 1.553-7.135 5.134.016.703 3.797 5.717 4.211 6.691.837 1.977 1.351 4.065 1.734 6.171 1.861 10.235-1.876 20.164-3.195 30.216-1.277 9.728-2.427 17.692-5.745 26.82-3.59 9.883-9.47 21.95-10.751 32.311m-269.87 60.477c11.454 9.96 22.066 21.137 35.625 27.866 6.368 3.16 11.431 7.638 18.65 8.897 7.244 1.265 14.719.549 21.99.032 7.433-.528 14.158-.615 21.004-3.67 2.946-1.313 7.425-2.585 9.941-4.595 2.491-1.993 4.06-5.221 6.253-7.622 8.991-9.85 18.937-17.707 30.731-23.65 13.147-6.627 20.422-14.151 21.41-29.312 1.103-16.975-.353-34.28 2.15-51.149 2.272-15.306 6.813-31.666 13.696-45.531 3.536-7.128 7.895-13.857 12.863-20.067 2.216-2.77 5.172-4.621 7.456-7.182 2.698-3.028 2.291-3.85 2.291-8.368-11.49 8.003-24.398 11.028-37.832 14.584-13.624 3.607-28.286 5.902-38.857 15.948-5.677 5.397-8.602 7.038-16.281 7.81-7.872.793-15.818 1.178-23.647 2.436-14.365 2.31-28.132 6.802-41.93 11.252-27.87 8.993-52.236 24.028-76.4 39.908-10.835 7.122-20.424 15.792-30.247 24.173-11.883 10.14-27.86 23.724-33.774 38.6 16.283-1.472 32.816-6.172 48.618.942 1.2-13.224 10.17-26.09 18.92-35.575 7.761-8.41 17.25-16.814 26.745-23.58 22.722-16.19 53.024-20.385 79.475-26.21 14.299-3.15 27.627-5.607 41.205-10.979 3.44-1.36 13.47-7.447 15.363-3.82 1.21 2.317-1.894 5.646-2.666 7.528-1.335 3.248-2.096 6.626-2.87 10.059-3.49 15.485-5.664 31.266-9.04 46.792-.497 2.287-1.159 12.628-5.269 11.222-2.74-.936-.2-16.726-.398-19.578-34.873 23.878-76.123 37.93-115.176 52.84m39.197 266.552c-7.749.333-15.642 4.504-23.155 6.4-10.127 2.56-20.756 5.164-30.13 9.75-4.99 2.443-5.037 3.87-3.671 9.437 1.073 4.375 2.312 8.611 3.215 13.064a674.381 674.381 0 007.535 32.888c28.864-24.084 65.708-37.704 101.714-46.984 5.094-1.313 10.283-1.717 15.448-2.615 4.523-.785 9.676-.225 13.965-1.114 2.756-.573 5.247-2.429 8.063-3.081 6.092-1.412 13.353-1.525 19.215-3.693 7.845-2.899 16.62-6.733 24.382-10.683 8.473-4.317 15.292-7.469 17.016-16.75 1.368-7.362 4.8-14.239 5.866-21.465 1.388-9.422-.336-17.794-.916-27.213-1.345-21.796-4.516-43.827-10.059-65.086-5.315-20.383-9.108-41.25-12.771-61.914-.714-4.027-2.14-7.737-3.074-11.696-1.557-6.583-4.652-4.895-10.63-4.508-11.182.721-23.006-3.738-32.291-9.758-4.385-2.841-9.927-9.338-14.94-10.734-4.467-1.245-9.026 4.787-13.29 6.81-10.188 4.828-22.681 6.135-33.8 6.897-24.258 1.661-42.64-14.124-59.17-30.18-11.096 12.407-23.12 24.204-36.003 34.746-10.617 8.687-19.64 19.969-28.478 30.312-8.302 9.72-15.016 24.839-26.291 31.648-6.574 3.973-11.476 1.459-17.824-2.534-5.04-3.172-10.595-4.9-15.67-7.827-23.422-13.516-45.542-28.78-68.428-43.108-5.005-3.133-12.872-10.504-18.762-11.034-4.364-.393-4.02.698-6.544 4.31-2.446 3.502-4.925 6.978-7.353 10.492-9.516 13.772-19.659 27.988-27.37 42.86 16.788-4.002 32.66-4.618 49.182-2.254 15.198 2.177 34.602 4.803 48.057 13.018 5.748 3.51 11.392 7.451 17.125 11.44 7.196 5.007 12.784 12.009 20.75 15.786 6.871 3.256 14.307 4.73 21.448 7.157 8.025 2.724 19.409 7.804 27.931 5.597 7.262-1.88 13.343-8.32 18.81-12.756 7.112-5.77 15.755-9.716 22.952-15.096 12.756-9.532 26.07-17.677 39.787-26.196 16.38-10.174 32.095-21.868 49.097-30.824 3.343-1.762 6.649-2.983 9.76-5.088 2.925-1.98 5.032-5.6 8.551-3.019 3.13 2.292 1.763 6.516.816 9.457-.887 2.757-1.708 3.64-1.136 6.044.533 2.239 3.977 5.673 5.16 7.86 5.588 10.334 9.579 21.427 14.933 31.878 5.21 10.163 11.088 19.942 15.933 30.299 9.562 20.441 22.915 38.556 31.383 59.654-3.9 1.598-4.386-1.69-7.41-2.002-3.308-.342-2.11.288-5.395 2.655-4.403 3.176-9.126 5.183-13.851 7.66-10.52 5.516-21.292 12.007-32.645 15.818-19.5 6.549-37.47 18.121-57.037 25.275m335.522-95.439c-.674 4.839-1.54 9.64-2.245 14.468-.498 3.415-2.408 8.36-1.975 11.739 5.024-2.373 10.43-10.323 14.308-1.626 2.31 5.18-.586 15.46-1.268 21.034 5.677-1.15 4.395-15.096 13.467-10.595 6.975 3.46 2.094 21.045 7.548 22.758 3.767-5.94 3.146-19.415 4.38-26.485.577-3.315-.25-7.766 3.63-7.982 3.36-.187 6.019 4.683 7.61 6.908 1.514-8.08 5.6-15.251 3.817-22.69a846.214 846.214 0 00-3.412-13.79c-.694-2.699-1.433-10.981-3.78-12.836-4.367-3.452-20.323 2.695-25.149 4.08-4.401 1.266-10.013 2.465-14.063 4.597-4.256 2.242-2.951 5.468-2.868 10.42M739.956 217.782c6.535-.715 12.199-4.674 17.213-8.803 8.218-6.765 9.466-12.064 11.028-22.488-10.54 5.137-18.326 9.386-30.217 9.6-13.614.245-20.306-7.736-26.565-18.718-1.679 2.56-4.076 5.274-5.302 8.079-1.548 3.543-1.352 2.807-.903 6.403.693 5.552 3.459 12.666 6.27 17.538 6.068 10.519 17.997 11.943 28.476 8.39M470.888 640.376h12.359l-2.126-13.583c-.618-3.952.408-9.51-3.475-10.198-3.217-.57-6.408 2.994-9.68 2.675-3.735-.364-5.883-3.043-10.212-1.965-6.162 1.536-4.93 8.283-5.022 13.946-.035 2.224-.891 5.569-.196 7.73 1.211 3.773.2 2.268 3.95 2.635 4.403.432 9.867-.995 14.402-1.24M777.278 95.05c4.53.72 16.255 10.355 19.565 8.057 4.494-3.119-8.425-11.735-11.072-13.09-12.935-6.63-37.13-1.392-45.826 10.711 5.7.554 12.662-4.665 18.508-5.523 6.263-.92 12.534-.14 18.826-.155M774.123 344.4c3.687 14.852 10.306 30.767 10.266 46.207-.041 16.048-3.586 30.613-10.08 45.307-3.25 7.352-6.159 14.784-9.85 21.931-1.71 3.311-3.282 7.367-5.646 10.254-2.916 3.561-3.82 3.298-7.288.47-1.549 3.964-3.175 8.049-8.443 5.385-3.794-1.92-3.713-6.676-4.955-10.211-3.329-9.478-10.444-17.652-15.468-26.286-5.152-8.852-9.499-18.374-15.199-26.884-2.743-4.097-6.013-7.912-8.943-11.89-2.223-3.015-5.615-9.988-8.702-11.757-.408 3.975 3.831 9.763 5.398 13.645a150.37 150.37 0 015.304 15.63c2.884 10.275 4.625 21.015 6.82 31.46 3.924 18.676 8.552 37.23 11.178 56.185 2.443 17.634 3.094 35.854 1.237 53.566-.796 7.608-5.256 14.041-8.264 20.97-4.087 9.42-9.054 15.292-17.264 21.974-14.91 12.133-31.417 19.394-49.575 24.81-3.388 1.01-6.535.571-9.713 1.256-3.566.767-6.403 2.584-10.279 3.19-10.003 1.564-20.178 3.403-29.835 6.239-7.612 2.236-15.13 4.564-22.66 6.887-5.739 1.77-12.809 3.416-18.334 6.025-13.627 6.437-26.409 13.989-39.054 21.99-3.707 2.347-6.44 3.768-9.175 7.24-2.958 3.756-2.53 6.41-4.143 10.695-1.504 3.998-4.13 6.25-7.697 2.926-3.334-3.106-2.017-9.662-2.288-13.506-.408-5.797-3.843-27.96-7.833-29.814-2.88-1.338-11.305 1.54-14.798 1.923-4.528.497-8.607.486-13.116-.133 1.491 6.206-3.952 14.597-6.238 20.053-3.898 9.305-6.932 18.37-8.549 28.273-1.1 6.75-.746 13.53-1.783 20.36-1.07 7.052.551 18.106-9.024 19.164-15.2 1.68-19.077-28.73-20.805-38.927-2.713-15.993-.566-31.752 1.034-47.83.13-1.303.792-7.032.203-8.071-.48-.847-4.754-2.31-5.305-2.7-4.817-3.425-2.856-5.246-1.422-10.346 2.741-9.746 1.946-21.925 8.53-30.447 5.037-6.52 16.344-2.56 22.858-.8 4.856 1.312 9.652 3.077 14.37 4.825 3.262 1.209 6.904 4.823 9.76 5.406 5.698 1.164 9.896-6.112 14.146-8.69 7.668-4.647 15.665-8.92 23.927-12.036 15.18-5.727 30.891-9.015 46.466-13.835 9.535-2.95 18.952-6.175 28.01-10.438 6.694-3.148 13.444-7.582 20.685-9.715 9.121-2.688 18.378-6.424 27.281-10.138 9.47-3.95 19.83-6.482 29.549-9.683-20.233-29.619-37.522-61.3-51.417-94.394-1.603-3.816-3.142-7.653-4.56-11.541-.723-1.98-2.498-10.852-4.379-12.105-3.42-2.274-17.158 8.03-20.985 10.54-13.87 9.085-27.17 19.016-41.619 27.274-12.513 7.15-24.318 15.445-36.285 23.115-6.59 4.224-12.72 9.61-19.42 13.876-6.683 4.253-14.547 12.175-22.465 14.012-2.953.687-7.958-.152-10.944-.394-4.209-.342-8.907-.72-13-1.89-8.026-2.29-16.505-4.893-24.347-7.745-14.098-5.126-25.025-17.773-37.734-25.582-15.317-9.412-32.669-11.757-49.789-16.96-18.73-5.69-39.506-6.31-59.276-4.833 0-18.038 8.707-31.567 18.209-46.371-6.844-4.493-9.731-7.293-17.39-3.136-5.683 3.084-10.922 5.857-16.193 9.304-5.725 3.746-11.819 6.619-17.521 10.726-6.197 4.464-11.618 9.2-17.341 14.196-4.304 3.757-9.205 7.173-13.707 10.569-4.446 3.355-8.973 2.87-14.658.583-1.677-.675-6.912-3.03-7.799-4.164-1.786-2.286-.465-3.881 1.019-6.896 3.431-6.978 7.815-14.06 12.293-20.44 3.997-5.694 9.185-10.449 13.37-16.002 3.975-5.268 6.816-11.387 11.42-16.162 5.147-5.341 11.252-9.628 16.113-15.319 2.423-2.838 5.185-5.865 5.377-9.214.147-2.57-2.714-5.059-2.741-6.903-.061-4.328 7.355-8.73 10.45-11.914 4.546-4.677 9.036-8.717 16.057-6.71 5.154 1.471 12.909 7.968 16.75 11.743 4.831 4.753 8.836 10.253 13.82 14.954 2.802 2.644 5.789 5.057 8.684 7.591 1.713 1.498 4.426 5.795 6.32 6.67 1.693.786 3.346.044 5.713-.02-1.066.027 4.33.936 4.043.858 2.554.684 5.075 1.425 7.592 2.239 10.347 3.343 19.88 8.983 29.216 14.6 23.713 14.265 45.965 29.468 69.19 44.673 6.88 4.502 8.771 4.182 14.052-2.264 4.93-6.014 9.016-12.697 13.646-18.932 7.63-10.273 16.232-20.265 25.24-29.394 9.274-9.394 19.963-17.26 29.874-25.953 2.753-2.414 14.097-10.565 13.38-13.622-.404-1.726-4.071-4.64-5.233-6.406-1.733-2.634-3.53-5.607-4.808-8.513-7.53-17.108 12.01-18.28 23.443-23.567 13.958-6.455 27.776-13.585 42.042-19.349 7.163-2.892 14.336-5.535 21.568-8.217 6.657-2.47 12.72-6.474 19.271-9.199 4.826-2.008 15.31-2.773 18.525-7.044 1.898-2.52 1.08-10.476 1.414-13.41.55-4.871 1.362-9.714 2.636-14.451-2.391-.431-6.881 2.195-9.056 3.205-4.188 1.944-7.835 3.858-12.481 5.081-9.942 2.614-20.352 2.912-30.148 5.75-14.908 4.32-30.805 6.82-45.387 13.019-16.79 7.136-31.247 19.69-43.042 33.24-6.088 6.994-10.929 13.718-15.083 22.02-1.076 2.15-2.352 9.356-4.007 10.856-2.106 1.91-7.666-.1-10.06-.495 0 6.358.133 12.726-.095 19.074-.243 6.7.966 16.979-1.353 23.16-2.175 5.803-6.236 4.602-10.536 1.716-5.716-3.834-8.647-6.033-13.77-.092-8.912 10.334-12.284 26.388-18.397 38.485-2.003 3.962-6.94 12.257-9.64 4.114-1.966-5.935 1.296-13.505-.228-19.369-2.083 3.659-8.312 14.542-13.24 14.512-6.78-.041-4.567-10.569-4.341-14.86-3.998 4.267-15.731 18.21-18.57 7.033-2.182-8.578 3.907-17.092 8.231-23.845 5.032-7.86 9.977-15.839 15.198-23.563 5.109-7.56 8.528-16.126 13.707-23.733-3.948.547-11.59-.743-9.162-6.855 1.27-3.195 5.288-1.852 7.25-3.836 2.042-2.066 3.142-7.93 4.285-10.638 5.633-13.34 13.71-24.308 23.052-35.155 16.505-19.168 37.579-34.472 58.826-47.31 25.315-15.294 51.413-24.595 79.76-32.072 13.433-3.541 27.055-5.17 40.633-7.722 5.637-1.059 11.354-1.656 15.814-5.227 6.65-5.326 11.034-9.269 19.049-12.668 6.477-2.746 12.623-4.013 19.688-5.186 7.57-1.259 16.259.415 23.534-1.722 6.045-1.778 13.092-5.638 18.583-8.726 2.767-1.555 7.665-2.431 9.157-3.754 2.884-2.551 4.792-8.913 6.632-12.34-4.554 1.194-6.289-2.042-7.508-5.961-2.027-6.518-2.048-4.352-8.375-7.081-3.748-1.617-4.96-5.932-7.93-7.464-3.186-1.644-8.24 1.902-12.001.75-3.05-.936-6.033-4.215-5.866-7.704.069-1.457 1.604-2.75 1.631-3.935.066-2.78-2.204-4.316-1.873-7.363.514-4.716 2.91-3.92.876-9.03-2.026-5.087-1.236-6.09-.627-11.363.17-1.458-.58-3.805.438-5.045.593-.724 2.765-.836 2.987-1.202.829-1.366.855-2.489 1.022-4.995.096-1.427-.346-4.283 1.14-5.339 1.29-.917 3.12.788 4.25.248.98-.469 1.829-2.803 3.44-3.085 5.948-1.04 4.133 5.01 7.17-2.542 1.76-4.375 3.11-6.166 6.267-8.654 1.372.633 2.227.378 2.568-.77.461-.829.925-1.657 1.387-2.485 2.461-.583 2.815 1.262 4.72-.55 3.199-3.04-.091-9.775 6.369-7.972 4.686 1.306 5.825 7.315 10.727 8.758.676-1.957.588-7.677 3.435-8.256 2.898-.59 5.104 4.693 6.158 6.417.686-1.483 1.82-5.925 2.95-7.012 3.245-3.12 2.263-.097 5.135.318.45.529.903 1.058 1.353 1.588a85.793 85.793 0 004.437-2.326c3.15-.596 2.027-.27 4.774.84 2.195.89.882 1.906 3.55 2.465 1.938.404 3.578-1.608 5.735-.991l1.883.823c.889 1.971 2.253 2.32 4.092 1.046 2.169.894 5.095 4.487 7.404 4.37 4.413-.23 3.374-6.305 8.214-6.008 1.794.109 6.432 4.934 7.712 6.367 1.794 2.01 1.287 3.747 3.534 6.007 3.257 3.275 1.346 1.519 4.455 3 4.633 2.211 6.34 1.375 8.249 6.695 1.66 4.627 2.59 10.382 2.609 15.284.01 3.059-2.19 9.805 2.055 8.325 2.98-1.038 2.48-8.424 5.677-6.107 2.431 1.76-2.366 11.17-2.421 13.378-.16 6.351.853 6.86-3.083 11.606-1.866 2.248-6.14 6.39-7.087 9.302-1.12 3.445 1.853 9.41 2.54 12.488 1.487 6.678.23 8.089-4.18 13.337l-1.42.85c-2.355-.005-3.01 1.17-1.961 3.521-.938 2.623-.825 5.151-2.152 7.787-.725 1.44-3.929 4.357-4.092 5.782-.289 2.54.973 2.986 3.112 5.62 8.624 10.621 12.574 24.385 16.84 37.16 7.515 22.503 16.777 44.45 25.748 66.474 3.496 8.585 7.039 16.83 10.667 25.511 4.516 10.807 10.862 20.674 16.23 31.147 3.71 7.24 7.496 15.187 12.133 21.432 5.833 7.858 9.11 17.958 14.225 26.463 5.464 9.085 11.844 18.037 17.114 27.386 5.039 8.942 11.266 17.127 16.05 26.31 5.974 11.467 12.93 25.243 14.574 38.236.581 4.605 2.392 12.2-.465 16.14-2.959 4.078-11.106 5.784-15.24 2.74 4.134 9.622 6.705 20.404 8.56 30.696.8 4.446 1.917 8.37.937 12.914-.877 4.061.577 1.696-2.702 4.071-2.746 1.989-1.477-3.617-3.635 2.098-.454 1.205.438 4.548.406 5.947-.125 5.616-.543 11.334-.762 16.982-.166 4.285.525 7.9-4.74 7.447-4.22-.364-6.31-4.845-8.183-8.008-.703 5.036-1.106 10.062-1.687 15.112-.515 4.48.514 8.905-5.222 8.423-9.406-.793-13.113-17.839-15.497-24.96-4.285 5.645-6.368 16.854-8.253 23.758-1.794 6.572-3.886 20.56-13.056 11.954-6.109-5.734-3.742-17.013-2.646-24.35.361-2.421 5.52-23.688 3.107-24.914-3.448 3.69-7.464 9.716-13.141 6.464-5.104-2.923-3.443-9.418-3.037-14.106 1.156-13.336 5.732-26.12 9.125-39.043-1.93-.432-6.623-.816-8.214-2.253-2.038-1.841-.781-2.735-1.676-5.088-1.21-3.186-3.384-6.423-5.1-9.45-5.592-9.862-7.315-19.692-10.205-30.424-2.79-10.365-8.047-19.489-10.835-29.987a793.048 793.048 0 00-10.028-34.643c-7.962-25.306-19.43-49.4-32.614-72.352-1.732-3.013-15.915-35.563-18.051-34.602-1.524.687-2.397 9.11-2.978 11.386-1.348 5.27-1.612 10.812-1.93 16.244-5.196 12.67.336 34.535 3.49 47.24z" fill="#000"/><path d="M294.785 301.503c5.294 1.263 7.188-11.079 7.781-14.9.959-6.195 2.059-11.522 5.396-16.94 1.623-2.634 3.562-5.342 5.667-7.614 1.228-1.322 4.306-3.046 4.949-4.465 1.777-3.924-.288-13.788-.264-18.203.015-2.835-1.839-16.028 1.49-16.948 4.322-1.198 5.45 10.834 5.927 13.542.547 3.102.457 6.092.788 9.16.306 2.865 1.865 4.638 2.462 6.547 1.708 5.454-2.347 10.035-5.253 14.949-3.234 5.469-6.734 10.782-9.004 16.753-2.464 6.477-2.306 13.3-4.232 19.858-3.131 10.657-16.263 16.468-26.9 13.342-5.654-1.662-4.465-5.484-6.257-9.887-.678-1.671-2.584-2.6-3.151-4.82-.601-2.349-.05-5.407.41-7.78 2.237-11.487 5.867-23.514 9.374-34.69-19.087 10.513-39.3 17.44-61.28 17.045-10.925-.197-18.884-2.54-26.797 6.794-6.133 7.235-6.125 19.96-8.628 28.956-2.716 9.767-5.166 22.277-11.35 30.45-7.46 9.863-17.647 8.24-18.407-4.913-.65-11.213 4.928-21.84 3.992-33.222-.47-5.726-2.725-10.773-2.587-16.573.12-4.984 1.098-9.666 2.02-14.574-10.917 1.324-19.372 5.812-27.128 13.34-7.262 7.046-10.29 15.747-16.287 23.807-5.472 7.354-10.314 17.473-21.115 17.222-13.788-.32-14.656-17.298-9.486-26.37 2.643-4.639 6.314-8.269 9.673-12.354 3.72-4.521 4.159-8.153 4.926-13.93.583-4.404.743-10.222 4.706-13.127 3.564-2.615 8.038-1.343 11.335-4.809 3.154-3.312 5.644-8.327 8.477-11.99 3.538-4.573 7.2-9.298 10.347-14.152 6.77-10.45 15.667-17.721 25.044-25.897-3.4-2.119-12.366.223-16.577-.448-6.92-1.103-15.873-4.398-21.234-9.135-11.127-9.838-16.475-22.634-17.023-37.422-.527-14.204 1.701-31.335 12.255-41.89 5.378-5.381 12.265-10.09 19.06-13.521 4.526-2.283 13.845-7.263 19.077-5.207 12.08 4.752-15.24 23.65-18.843 26.674-11.478 9.633-18.162 18.93-17.895 34.34.258 14.983 14.693 22.106 26.766 27.063 6.262 2.571 13.826 4.634 20.821 4.446 7.927-.211 13.319-4.765 20.54-7.436 14.211-5.256 28.792-8.79 43.441-12.331 14.426-3.49 30.12-2.7 44.892-4.979 13.888-2.142 26.865-4.783 39.993-9.834 13.594-5.23 24.079-20.83 38.905-22.472 9.196-1.017 4.701 5.493.728 8.832-4.754 3.995-9.916 7.475-14.673 11.482-12.118 10.207-24.811 16.211-40.169 20.102-11.156 2.825-23.184 5.468-35.04 7.153-14.967 2.129-30.032 1.464-44.735 5.34-8.705 2.295-17.159 5.218-25.372 8.947-3.364 1.527-10.322 3.974-10.945 6.69-.808 3.516 2.005 3.446-1.386 6.685-5.713 5.457-13.143 9.316-18.913 14.978-6.427 6.307-12.54 12.425-17.746 19.821-5.164 7.338-9.287 14.45-16.934 19.51-2.535 1.677-6.839 4.62-9.72 5.39-2.651.711-3.863-.377-6.132 1.099-6.037 3.922-2.42 16.17-4.013 22.234-2.038 7.767-7.256 13.597-10.505 20.8 4.546-.983 7.72-8.51 10.056-12.062 2.62-3.983 5.937-6.666 9.27-10.108 7.009-7.236 8.864-17.133 17.195-23.946 15.091-12.34 38.55-11.276 51.142-27.819 2.039-2.68 3.955-10.425 6.402-12.11 4.482-3.088 4.102 6.137 3.641 8.875-1.576 9.348-7.341 20.396-14.878 26.297-3.41 2.672-8.182 3.895-11.142 7.363-.725.287-1.448.576-2.174.863.433 1.54.669 3.107.704 4.698.069 2.78-.605 5.49-.718 8.294-.28 7.057 1.28 13.09 2.693 19.85 1.012 4.828-1.71 14.894.459 18.83 4.285-14.381 9.324-30.992 17.443-43.773 1.918-3.023 5.723-5.52 7.234-8.632l2.153-2.394a20.692 20.692 0 01-3.288-3.899c-4.868-10.23 5.798-3.905 10.054-3.036 6.84 1.396 15.366-1.473 22.47-1.688 6.923-.21 13.75-.441 20.517-1.516 7.308-1.159 14.89-2.912 22.04-4.828 7.177-1.927 13.81-5.89 20.787-7.63-6.975-4.768-9.182-10.974-11.596-18.725-1.585-5.097-7.219-17.463-3.673-22.635 3.843-5.61 5.215 3.017 6.461 6.073 2.11 5.166 5.301 13.982 9.208 17.858 2.106 2.09 4.951 1.861 6.833 4.649 1.384 2.05 1.572 4.885 1.788 7.263.641 7.02-2.135 12.641-4.61 19.033-5.774 14.903-8.107 30.841-15.66 45.02 4.594.44 9.348-.22 13.928-.683" fill="#000"/><path d="M391.4 184.085c3.685-.867 15.283-2.132 11.918-8.889-3.405-6.834-12.467 4.218-11.918 8.889m109.79-53.806c-2.164-.672-5.598-2.237-7.915-2.071-2.746.197-4.787 2.187-7.573 2.45-5.685.537-10.08-1.889-13.796 4.182 7.904 0 23.713 2.68 29.284-4.56M352.082 271.856c7.521 1.049 11.258-32.171 11.656-36.523-3.373-.345-12.467 6.28-13.26 9.332-.871 3.353 2.129 8.732 2.493 12.217.54 5.159-.033 9.894-.889 14.974m41.913-189.625c-9.056.882-19.188 3.814-27.5-1.223-6.739-4.081-9.235-12.694-14.91-17.75 0 14.582 13.111 26.07 26.453 30.698 6.794 2.355 17.203-1.198 23.205 2.642 1.741 1.112 5.452 6.183 5.588 8.277.465 7.14-4.624.75-7.506.97-4.006.307-9.58 10.865-12.92 14.075-2.511 2.415-5.346 4.375-8.183 6.45-.935.685-5.74 3.116-5.98 4.29-.211 1.044 2.424 4.876 2.98 5.865 3.819 6.807 8.42 11.685 14.459 16.487 2.975 2.365 6.075 3.683 9.057 5.648.973.644 4.93 6.033 3.78 5.806 1.663-5.05 6.397-10.898 9.547-15.362 3.229-4.578 7.485-9.373 12.898-11.226 2.378-.815 6.315-1.514 8.79-1.714 1.738-.06 3.46.082 5.164.428 2.482 1.095 3.453.214 2.912-2.646 2.607-5.414 1.071-12.23 4.386-17.73 3.89-6.456 10.254-9.38 17.545-8.653 3.276.327 6.806 1.733 10.05 1.16 3.215-.569 6.859-3.163 10.005-4.28 12.22-4.346 27.3-9.626 36.88-18.678 1.455-1.373 5.561-5.18 5.884-7.154l-2.563-5.77c-.224-2.82-1.596-3.59-4.115-2.306-2.968-.063-8.595 3.342-11.565 4.316-3.77 1.238-7.563 2.326-11.273 3.723-6.44 2.424-12.708 4.914-19.468 6.357-7 1.491-10.333 2.4-14.017-4.231-3.603-6.483-3.091-10.274-11.477-9.326-7.474.843-13.738 3.663-20.629 6.638-4.576 1.976-10.537 5.614-15.191 6.393-3.45.579-7.172-.765-10.495-1.458-4.197-.872-7.523-.72-11.79-.716m86.816 37.65h3.766l-8.756-5.145c-4.109 6.63-14.377 3.747-20.602 7.698-5.112 3.245-9.91 17.074-5.003 22.11 6.822 7 10.18-8.532 12.117-12.11 3.94-7.283 9.877-12.737 18.478-12.553m-119.311 14.845c-3.054-5.764-1.052-11.274 3.481-14.333 6.54-4.41 13.122-9.244 19.535-14.131-10.9-1.71-18.71-5.314-27.597-11.961-10.253-7.671-13.171-14.76-12.884-27.716.144-6.503-.765-24.988 9.733-19.622 8.672 4.434 9.868 16.83 19.198 21.033 9.217 4.15 20.075-.154 29.768 3.078 2.76.921 10.14 7.399 12.381 7.369 2.978-.042 10.458-6.623 13.274-8.186 7.065-3.92 16.203-7.742 24.074-8.872 4.943-.71 6.552-1.218 10.135 2.426 4.011 4.079 5.269 9.122 6.7 14.422 15.219-6.266 30.592-12.115 46.24-17.224 4.97-1.623 8.383-3.698 12.623-6.313 6.07-3.743 9.448-2.01 10.552 5.73 1.944 13.634-6.388 22.354-13.629 32.56-3.993 5.627-6.72 9.603-13.212 12.477-6.757 2.991-14.891 2.027-22.23 4.275 1.883 2.293 2.878 7.633 4.536 9.245 1.35 1.31 7.804 1.093 9.98 2.237 6.525 3.429 5.75 9.153 1.707 14.813-4.56 6.384-11.302 7.56-18.67 8.117-3.297.248-6.237.293-9.538.06-2.135-.15-9.57-2.458-11.18-1.775-1.906.809-2.35 5.015-3.217 6.936-1.38 3.053-2.914 6.143-6.16 7.554-2.81 1.22-5.976.89-8.53-.785-3.424-2.242-2.485-4.89-4.64-7.77-.203-3.032-1.496-3.606-3.88-1.726-1.819.637-3.636 1.28-5.45 1.93-3.754 1.368-7.26 2.687-10.564 4.984-6.329 4.398-10.161 11.818-17.214 14.91 4.602 7.866 1.728 18.567-6.016 22.651-1.746.92-3.884 2.05-5.74 2.647-1.381.445-4.997.085-5.931.856-1.353 1.12-2.096 11.715-3.043 14.076-3.256 8.117-10.17 12.156-14.263 19.518-3.992 7.185-3.134 18.335-4.296 26.428-1.439 10.023-2.353 20.545-6.646 29.846-2.871 6.223-11.486 13.601-19.092 12.374-11.183-1.803-6.321-16.091-2.891-22.248 5.29-9.497 5.284-16.683 3.942-27.188-4.415.656-15.355 4.976-14.829-3.438.36-5.739 12.75-11 17.09-13.881 9.816-6.514 19.86-14.094 28.148-22.44 3.426-3.45 8.33-9.822 10.073-14.54 1.27-3.444.998-6.793 1.273-10.394.254-3.314 3.162-7.865 3.018-10.762-.213-4.296-11.525-11.16-14.759-15.708-4.608-6.48-8.482-14.143-11.36-21.54M588.063 149.152c3.468-.453 16.791-4.145 19.08-.69 4.175 6.305-8.097 7.48-11.183 8.05-13.636 2.522-26.977 5.876-40.2 9.633-26.304 7.471-53.123 16.848-77.623 29.02-3.837 1.906-15.111 9.663-18.951 5.744-4.962-5.061 7.075-10.677 9.832-12.254 12.22-6.991 25.132-13.262 38.248-18.41 25.834-10.139 53.129-18.042 80.797-21.093M259.28 481.937c19.568-2.92 40.828 1.388 59.818 7.33 6.085 1.902 12.427 4.113 17.996 7.215 3 1.67 10.135 4.642 11.833 7.766 2.832 5.209-.338 7.43-4.896 6.573-4.334-.815-9.659-3.307-14.183-4.445-20.713-5.214-41.303-9.125-62.282-11.212-5.019-.5-8.664.083-13.502.963-3.616.66-13.163 4.59-15.88 2.285-9.825-8.325 16.42-15.958 21.096-16.475M563.736 522c1.325 7.423-2.45 8.116-8.757 11.585-6.442 3.544-12.877 6.455-19.68 9.315-7.333 3.082-15.015 6.243-22.653 8.492-6.469 1.906-16.444 6.178-23.162 5.545-2.71-.256-4.463.098-4.484-3.26-.02-3.644 3.407-3.426 6.233-4.23 8.653-2.463 17.03-6.16 25.538-9.093 16.023-5.52 32.073-10.18 46.965-18.354M78.35 158.98c-5.019-8.285-4.918-19.328-3.53-28.688.468-3.155 8.08-26.48 12.68-21.631 2.728 2.876-6.558 21.194-7.53 25.38-1.173 5.047-1.776 10.039-1.003 15.198.21 1.394 3.335 10.245-.618 9.74" fill="#000"/><path d="M341.335 206c-3.675-5.026 1.245-16.271 2.733-21.614.918-3.292 3.72-15.659 8.164-13.02 4.314 2.563-.515 14.154-1.38 17.355-1.28 4.748-3.143 17.16-9.517 17.279" fill="#000"/><path d="M749 473.821l2.026-4.821c1.716 1.304 4.112 1.945 2.365 3.923-1.074 1.218-2.882 1.215-4.391.898M687 160.277c-3.01.461-5.018.486-8 .416l8-.416M784.51 394l-.02-6 .02 6M300.51 244l-.02-6 .02 6M394 68.754l-6-.037c2.01-.813 4.005-.422 6 .037M155 205.483c1.004.011 2.006.021 3 .034-1.006-.01-2.003-.022-3-.034M719.525 559l-.05-4c.015 1.337.033 2.669.05 4M770.406 297l.188-4-.188 4M679.609 95c-.072 1.334-.144 2.67-.218 4l.218-4M936.48 534l.04-4-.04 4M538.557 73c-.038-1.336-.075-2.671-.114-4l.114 4M120.415 159l.17-4c-.058 1.337-.113 2.669-.17 4M481 144.506l3-.012-3 .012M817.598 77l-.196-4 .196 4M158.499 284l.002 4-.002-4M942.622 516l-.244-4 .244 4M445 505.548c1.004-.033 2.007-.063 3-.096-1.006.034-2.003.065-3 .096M770.617 324l-.234-4c.077 1.335.155 2.668.234 4M291 481.487l-4 .026 4-.026M259 481.312l-4 .376 4-.376M769.544 315c-.03-1-.06-2.002-.088-3 .03 1 .06 2 .088 3M814.584 120l-.168-3 .168 3M508.488 129l.024-3c-.007 1.002-.015 2-.024 3M369.348 404.221l1.652.095c-1.233 1.063-2.676-.03-1.652-.095M430 504.517c.67-.012 1.338-.024 2-.034l-2 .034M941.612 508l-.224-3 .224 3M161.627 311l-.254 3 .254-3M620 182.236c-1.197.89-2.641.393-4 .362l4-.362M935.476 547l.048-3-.048 3M709.383 584c.077-1.002.156-2.003.234-3-.077 1.004-.156 2.002-.234 3M144 204.441c.67.04 1.339.077 2 .118-.671-.038-1.336-.078-2-.118M588 149.338l-4 .324 4-.324M491.634 680l-.268 3 .268-3M463 640.659l8-.317c-2.666.105-5.334.21-8 .317M706.401 547l.198-5-.198 5M760 95.681l5-.362-5 .362M284 435.34l5 .32-5-.32M402.55 397c-.704-1.5-.666-2.833.114-4 .418 1.362.38 2.694-.114 4M881.477 492c.015 1.337.029 2.672.046 4-.014-1.338-.029-2.669-.046-4M480.523 623l-.046-4 .046 4M433 489.332l4 .336c-1.334-.112-2.666-.225-4-.336M408.065 401.918c-.208-1.607.083-2.203.87-1.792.208 1.51-.083 2.108-.87 1.792M457.52 334l-.04 3 .04-3M916.513 524l-.026-3 .026 3M773 95.504l4-.008-4 .008M740 217.661l4-.322-4 .322zM677 385.516l-2-.032 2 .032M700.409 576c.062-1 .121-2.002.183-3-.063 1.003-.122 2.002-.183 3M546 591.462l-2 .076c.672-.026 1.336-.052 2-.076M457.49 338l.02 3a985.976 985.976 0 00-.02-3M401.755 161c1.414.92 1.624 1.92.628 3-1.605-.126-1.811-1.125-.628-3M477 119.47l4 .06-4-.06M448.505 136l-.01 3 .01-3M424 137.676l4-.352-4 .352z" fill="#CF536D"/><path d="M604.838 321.405c-9.798 1.077-22.258.141-31.109-4.627-6.136-3.308-8.98-14.145-.069-15.669 5.003-.855 11.007 3.551 15.43 5.254 5.265 2.025 10.76 2.978 16.18 4.397 3.68.964 9.025 3.396 5.666 8.656-.606.95-6.029 3.812-6.098 1.99M743 369.608c-.96 6.29-1.104 13.238-4.122 18.987-4.35 8.288-5.209-.59-4.523-5.144 1.01-6.714 1.559-13.588 1.055-20.374-.412-5.56-4.154-12.072-1.415-17.077 7.476 4.844 7.629 15.672 9.005 23.608M743.34 173.976c-4.135-.947-10.9-3.681-5.071-7.538 2.369-1.568 7.035-.816 9.68-2.284 1.602-.89 2.51-2.793 4.116-3.483 5.32-2.29 5.866 1.62 3.864 6.59-2.119 5.257-7.206 6.97-12.588 6.715M740.947 140.88c6.797-5.081 5.873 1.266 2.28 5.737a2612.926 2612.926 0 01-4.012 4.517l1.174 1.438c-.202 2.045 1.71 3.558-.634 4.897-3.867 2.212-6.773-3.016-6.755-5.911.027-4.803 4.759-7.815 7.947-10.679" fill="#000"/><path d="M740.073 141.288c-6.345 6.22-6.108-6.303-2.735-9.003 6.473-5.182 2.303 6.84 2.735 9.003M752.202 145.993c-.452-2.206-.51-12.655 3.884-11.96 4.778.756-.484 12.289-3.884 11.96" fill="#000"/><path d="M744 174.458l2 .084c-.672-.027-1.336-.056-2-.084" fill="#CF536D"/><path d="M439.338 96c-5.412-9.219 6.939-24.96 13.123-12.22.839 1.726 2.737 6.376.453 7.807-2.453 1.536-1.928-.696-3.946-1.032-2.406-.401-1.62-1.524-4.415-.304-1.986.866-3.843 4.159-5.215 5.749" fill="#000"/></g></svg>