<svg width="1024" height="768" xmlns="http://www.w3.org/2000/svg"><g fill="none" fill-rule="evenodd"><path d="M883.036 685.172c5.127 2.638 9.919 2.636 14.962 4.689 5.005 2.038 6.31 10.487 10.59 11.496-19.841 2.087-39.383 6.51-59.465 4.31 1.739-7.085-1.384-14.337 2.799-20.986 11.184-10.581 18.455-6.023 31.114.49zm-83.785-487.01c.258 4.982.627 6.962 4.163 10.176 2.771 2.518 4.33-1.236 4.593 3.682.152 2.837-2.796 4.26-3.937 6.554-5.688 11.424-1.762 26.179 1.033 37.559 5.668 23.075 19.512 48.164 9.757 71.618-.983 2.365-1.773 7.492-3.673 9.303-2.505-1.324-4.334-.745-5.488 1.735l-2.076 2.333c-4.384 4.054-9.05 5.56-14.869 3.406-11.732-4.343-13.672-17.97-13.733-28.696-.069-11.823 2.449-24.205 5.141-35.723 1.297-5.546 3.293-11.984-.423-17.216-3.51-4.942-7.846-2.156-11.302-4.362-3.679-2.348 1.62-19.605-2.005-24.181-6.329-7.99-8.534 11.556-8.635 15.548-.11 4.373.127 9.475 2.188 13.439 1.619 3.114 6.889 5.847 7.793 8.99.846 2.939-2.863 10.57-3.436 13.724-.882 4.858-1.189 9.82-1.442 14.745-.855 16.634 1.755 34.14 13.205 47.048 5.02 5.66 13.529 12.089 21.489 11.058 7.026-.91 14.087-4.704 20.64-7.282 4.407 16.93 11.027 33.326 18.08 49.314 6.13 13.898 11.893 28.132 18.333 41.86 13.572 28.935 35.602 53.584 52.815 80.338 16.618 25.829 25.937 55.469 28.172 85.962.528 7.21-1.578 17.077.102 23.819 1.575 6.32 2.957 9.066 1.926 15.959-1.146 7.66-3.366 14.724-2.412 22.518.846 6.915 4.141 17.218.54 23.624-4.327-4.61-8.644-6.78-11.268-12.93-2.665-6.24-1.616-11.367-7.656-14.11-5.16-2.342-8.861-1.832-13.414-5.667-5.531-4.66-9.3-10.353-12.025-17.023-4.651-11.382-5.324-23.721-1.392-35.41 3.153-9.372 12.362-26.916 25.273-20.636-1.918-3.94-3.194-8.221-6.853-10.78-3.186-2.23-7.95-2.955-11.508-5.49-3.978-2.833-8.481-5.857-12.921-7.93-1.724-.803-3.355-1.207-5.136-1.757-2.136-.66-6.187-.186-6.451-.226-7.626-1.153-16.13-4.824-20.787-10.356-3.505-4.164-6.603-8.051-9.279-12.816-3.474-6.184-4.811-5.81-11.476-7.28-9.686-2.132-15.832-3.587-23.58-10.773-8.593-7.97-14.881-17.902-21.169-27.681-3.684-5.73-6.922-6.08-12.926-8.368-3.491-1.33-8.325-7.283-11.503-7.725-.917-.128-5.311 1.872-6.797 2.11-2.656.43-4.962.354-7.623.075-6.106-.641-11.503-2.258-15.608-7.036-12.643-14.713-16.498-49.396.812-61.913 3.298-2.384 7.892-3.482 9.838-7.443 2.232-4.545 1.216-13.107 1.037-17.9-.203-5.468-.46-11.42-1.277-16.811-.376-2.478-.656-3.52-1.667-6.001-2.006-4.92-2.594-4.204-6.725-5.387-5.893-1.686-8.558-1.023-12.171-6.617-2.882-4.462-4.23-10.083-4.492-15.36-.244-4.921 1.976-9.47.122-13.928-2.714-6.524-7.746-11.462-9.953-18.602-1.86-6.013-6.662-19.434-1.928-24.982 2.121-2.486 5.888-2.85 7.991-6.177 3.664-5.793 5.144-8.961 10.582-13.527 4.012-3.37 7.865-8.39 12.701-10.45 4.756-2.025 9.245 1.236 13.106.342 4.209-.976 3.102-10.737 4.27-15.133 1.575-5.927 4.953-12.106 9.043-16.731 1.366-1.545 3.069-1.842 4.132-3.896 1.442-2.781.87-6.744 1.993-9.785 1.341-3.634 4.596-9.89 8.235-11.882 10.631-5.82 13.824 9.177 21.911 7.14zm-24.878 430.373c1.5 4.041.67 10.536 2.397 14.015 1.375 2.771 6.896 4.529 9.603 7.834 5.796 7.077 8.004 18.444 5.9 27.182-7.093-1.751-11.836-2.871-19.048-1.948-.728-15.837-.047-31.251 1.148-47.083zm-87.665 11.936c4.826 5.382 7.22 11.724 6.523 18.918-.25 2.561-1.032 6.151-1.786 8.611-.83 2.7-4.95 7.755-3.35 9.202-4.502-.269-9.792.254-13.036-2.657-2.912-2.613-4.95-9.348-6.131-12.917l6.82-13.61c1.48 2.348 5.827 8.48 9.416 6.518 2.703-1.477.52-11.079 1.544-14.065zm169.382-41.948c5.523 5.132 7.41 14.385 7.129 21.567.09 9.899-3.336 29.713-16.205 30.377-10.342.534-21.373-14.278-22.536-23.433-1.275-10.036 2.045-34.037 15.202-36.101 4.844-.76 12.919 4.345 16.41 7.59zm-92.442 12.8c.22 6.488.328 12.731-.187 19.198-.428 5.407 1.002 11.792-.207 16.97-7.652-8.56-17.73-17.882-17.424-30.464.287-11.894 10.141-10.882 17.817-5.705zm-77.112-143.006l6.404 7.02c.183 9.863-.012 19.615 2.991 29.125 3.16 10.007 8.455 19.651 13.697 28.699 10.19 17.586 12.62 34.173 13.848 54.285-19.164-8.586-29.615-37.924-35.938-56.276-3.348-9.715-6.82-19.439-9.978-29.215-3.114-9.641-8.618-22.238-4.995-32.394 6.962 5.118 9.973 7.756 13.971-1.244zm119.419 69.225c9.357 7.442 10.065 18.83 13.424 29.237-1.937 1.547-4.064 2.91-5.814 4.673-1.08 1.09-3.627 5.55-4.457 6.008-3.315 1.833-6.211-.52-9.45-3.476-6.376-5.823-10.356-18.18-10.057-26.727.349-9.982 7.406-16.832 16.354-9.715zm130.927-43.73c12.163 6.967 8.99 26.245 7.473 37.12-.952 6.815 1.158 13.75 1.01 20.233-.163 7.318-3.96 5.802-6.39 10.344-2.108-5.509-5.976-12.14-6.856-17.916l-1.398-3.654c1.184-.475 1.813-1.3 1.886-2.478.497-2.799.49-5.653.646-8.507.644-11.794 1.536-23.512 3.629-35.143zM751.568 506.83c-1.346 5.133-2.332 14.792-9.895 11.815-5.968-2.35-7.41-11.835-7.422-17.122-.01-4.34.704-12.314 6.775-12.574 7.452-.32 10.113 12.868 10.542 17.881zm-57.57-142.904c-5.032 8.058-8.524 19.96-6.147 29.502 2.495 10.019 10.256 12.444 17.16 5.072 5.696 8.969-5.983 24.942-16.425 16.414-2.257-1.842-3.772-5.37-6.563-6.518-2.288-.941-4.315.338-6.65-.193-7.187-1.633-9.9-8.691-12.724-14.615.775-4.83 1.596-9.616 2.641-14.397.556-2.542 1.135-5.08 1.698-7.621.957-4.317.66-3.778 3.79-5.918 8.254-5.64 13.932-5.92 23.22-1.726zm4.261 4.35l6.038 13.427c-3.29-.793-6.874 9.08-9.023 11.004-1.005-8.216 1.402-16.442 2.985-24.432zm-3.346-45.865c5.46 2.3 6.546 12.269 6.739 17.09-1.501 5.077-2.903 11.57-9.248 7.996-4.234-2.387-6.05-10.247-6.193-14.54-.182-5.382 1.84-13.438 8.702-10.546z" fill="#FF5678"/><g fill="#000"><path d="M654.014 205.804c-2.248 1.01 2.044 8.566 2.71 9.952 1.744 3.618 3.869 11.094 7.996 9.036l-10.706-18.988M125.98 644.149c-3.008-1.334-7.031 10.14-7.567 12.472-1.495 6.495-.244 10.858 4.955 15.057-2.152-9.282.426-18.527 2.612-27.53m694.363-491.386c-3.741-4.856-9.145-13.872-16.703-9.1-2.985 1.887-5.282 7.932-7.123 10.885-2.891 4.636-5.69 9.099-7.89 14.09 3.738-1.536 5.94-4.876 9.282-6.702 2.283-1.247 4.365-1.367 6.564-2.276 4.863-2.008 11.522-3.977 15.87-6.897m-609.917 478.45c2.024 7.922 3.896 15.82 5.462 23.845 1.059 5.43 4.618 13.1 2.76 18.414l14.434-1.94c-3.57-8.122-5.447-16.79-6.507-25.563-.65-5.37.183-6.901-3.863-9.89-3.133-2.313-8.65-3.425-12.286-4.866m-26.61-303.221c9.25 9.259 17.34 19.813 27.17 28.44 5.108 4.483 10.344 8.84 15.586 13.164 4.445 3.666 11.514 11.748 17.299 12.87.715-2.953 2.406-7.792 1.953-10.821 1.688-1.746 1.164-3.021-1.572-3.827a234.499 234.499 0 01-4.968-3.927c-6.43-5.367-12.515-11.197-18.608-16.938-6.057-5.706-11.66-11.676-16.918-18.123-2.77-3.395-4.39-6.8-8.933-7.797-5.397-1.185-7.193 3.023-11.01 6.959m184.87 343.788c-.26 5.03 12.113 8.114 15.872 8.416 10.162.815 16.76-3.641 20.258-12.43 7.28-18.29 18.936-34.405 23.81-53.64 1.447-5.706 2.699-8.303-2.454-11.211-2.115-1.192-7.622-3.852-9.921-2.334-2.19 1.445-3.982 7.947-5.39 10.31-2.234 3.754-4.775 7.324-7.201 10.956-11.35 16.99-22.787 33.537-34.973 49.933m-146.841-251.9l47.504 27.163c1.98-6.84 2.892-13.97 4.749-20.862 1.322-4.9 4.723-11.82 4.508-16.12-.321-6.421-5.294-14.945-7.462-21.066l-8.106-22.884c-3.66 3.499-7.872 5.943-7.917 10.502-.025 2.606 1.712 4.232.705 7.184-.707 2.07-3.713 4.82-5.165 6.36-4.241 4.5-4.108 4.725-8.565.517l-20.251 29.206m52.262 127.357c.68-6.544 1.553-12.818 3.025-19.24.905-3.944 4.727-12.045 3.47-15.761-.924-2.731-6.416-5.106-8.555-6.592-6.188-4.3-12.231-8.822-18.357-13.21-5.372-3.846-10.824-7.601-16.095-11.586-4.882-3.69-8.567-8.28-14.475-9.862-5.17-1.385-11.728-.481-17.082-.66-7.185-.238-14.481-.317-21.66.034-24.088 1.179-51.074-.506-74.25 6.213-10.952 3.175-18.013 5.044-24.136 15.419-7.081 11.999-13.131 24.467-18.282 37.428-.752 1.893-2.452 4.623-2.39 6.69.127 3.95 1.54 3.04 5.327 5.292 4.092 2.433 8.103 5.32 12.012 8.06 6.703 4.699 15.025 9.604 21.979 13.268 8.367 4.408 16.796 8.36 25.307 12.8 5.393 2.813 10.975 5.113 16.265 8.204 5.743 3.357 12.173 4.313 18.364 6.934 19.17 8.117 37.723 15.618 56.535 24.878 18.362 9.038 36.935 16.676 55.722 24.649 24.28 10.303 48.322 19.833 73.645 26.958 1.854.522 5.752 2.362 7.583 2.278 3.915-.18 4.802-3.041 7.154-6.265 4.622-6.336 9.074-12.793 13.495-19.27 9.589-14.048 18.966-28.253 29.29-41.781-29.255-8.163-56.381-23.224-82.098-38.681-1.095 3.077-1.967 9.894-5.477 10.923-4.34 1.274-7.493-4.74-9.438-7.504-1.841 4.584-4.991 20.046-10.883 19.708-8.141-.468-6.704-13.282-7.718-18.366-4.488 5.965-9.69 12.824-15.788 3.65-4.227-6.358-3.758-17.518-2.49-24.608m338.96-73.072c-3.772-1.18-7.52-2.227-11.21-3.548-.97-2.058-2.581-2.682-4.832-1.872a12.495 12.495 0 01-5.381-.686c-7.707-1.317-16.244-3.027-23.608-5.25-6.558-1.978-12.742-3.726-19.405-5.213-3.957-.882-21.581-5.87-24.186-2.934-.801.903.577 11.849.383 13.8-.345 3.469-.516 9.18-2.713 12.068-.843 1.108-4.053 2.336-5.213 3.199-3.77 2.803-7.252 6.286-11.001 9.192-8.186 6.345-16.16 12.929-24.512 19.066-5.903 4.337-12.66 6.484-19.217 9.635 4.665.835 13.794-3.655 18.503-5.047 6.099-1.804 12.084-3.81 18.322-5.461 12.79-3.387 25.894-7.21 38.893-10.816 7.983-2.214 16.416-4.521 24.155-7.453 3.433-1.301 6.128-4.325 8.396-1.247 1.809 2.457-.38 5.69-1.771 7.51-8.115 10.62-30.153 13.205-41.948 17.61-13.312 4.972-26.447 10.208-40.154 13.7-16.008 4.079-33.384 7.2-48.301 14.364-12.376 5.942-26.396 8.245-39.554 11.733-12.357 3.275-27.011 3.93-38.69 9.49 5.045 3.985 12.509 6.063 18.389 8.742 7.198 3.279 14.47 6.27 21.59 9.745 3.03 1.479 6.2 3.677 9.267 4.906 3.892 1.56 3.393.738 7.413.42 6.257-.491 14.699-1.616 19.782 2.94 6.13 5.495 2.246 11.515 3.146 18.238.618 4.609.932 3.87 6.05 4.574 4.71.647 9.417 1.402 14.064 2.409 5.737 1.244 11.609 3.33 17.197 5.128 8.665 2.789 9.607 6.07 18.639 2.47 25.723-10.251 52.328-18.678 78.215-28.38 11.924-4.467 23.899-13.086 35.123-19.561 14.4-8.308 27.42-17.295 37.17-31.127 4.444-6.304 9.078-16.953 8.144-24.78-.835-7-6.013-14.78-9.351-20.798-4.263-7.684-8.016-10.666-14.538-15.771-4.534-3.548-11.54-11.042-17.256-10.995m-286.473 59.479c.399 3.864-1.86 19.79.378 22.24 3.825 4.19 13.207-.7 16.837-1.947 11.792-4.054 25.498-3.167 37.506-6.377 11.649-3.114 23.043-7.15 34.757-10.321 6.284-1.703 12.248-4.371 18.429-6.398 6.88-2.257 14.562-3.494 20.943-6.89-.79-1.962-28.4 2.76-31.538 3.015-10.9.885-21.16-.796-31.902-2.771-23.694-4.358-46.02-14.692-69.407-21.396 1.096 10.786 31.45 12.934 27.834 25.45-1.01 3.49-14.588 9.193-19.08 7.004-9.123-4.45 2.038-10.71 6.586-12.271-6.923-3.97-13.548-8.275-19.867-13.166-6.765-5.236-9.676-12.582-13.302-20.162-7.58-15.848-25.515-25.067-39.447-34.933-15.065-10.668-31.106-19.737-46.162-30.381-2.687-1.9-3.942-1.028-4.886-4.497-1.01-3.715 2.7-8.436 4.502-11.27 4.734-7.45 10.248-14.5 16.502-20.736-8.065-5.49-16.777-10.02-24.34-16.233-7.666-6.298-14.01-13.986-20.773-21.196-10.804 23.509-25.946 45.313-37.837 68.368-4.697 9.106-7.18 22.879-.037 31.703 7.517 9.287 21.534 5.672 32.145 6.164 11.199.52 21.415 1.789 32.46 4.965 4.998 1.438 9.547 1.013 14.35 3.32 5.633 2.707 11.173 6.183 16.532 9.39 10.539 6.309 20.385 14.206 30.337 21.404 4.082 2.952 26.217 20.453 8.709 17.75 0 16.378-2.87 33.15-4.375 49.448 4.152-4.958 7.113-9.997 9.625-15.954 1.494-3.544 1.513-12.588 6.492-10.444 7.49 3.224 1.656 26.917 1.656 33.326 1.856-3.586 3.156-7.448 4.492-11.248 1.012-2.88 2.277-11.042 4.389-12.973 7.07-6.462 8.06 11.162 8.06 14.84 2.29-6.497 2.712-13.431 2.942-20.296.09-2.708-.58-6.922.105-9.542 1.138-4.367 1.003-4.082 5.576-5.928l.809 8.943M544.999 671.85c.56 5.54 2.705 9.552-.938 14.536 7.042-.504 13.975-1.123 21.029-.944 5.663.144 14.133 1.439 19.417-.987 2.153-.988 2.885.713 3.992-1.175 1.05-1.794-1.418-7.748-1.715-9.225-1.424-7.088-2.118-14.36-3.412-21.491-.888-4.902-3.498-14.543-.217-19.175 4.826-6.816 6.95 2.786 8.208 7.049 4.14 14.045 3.902 27.384 3.902 41.815 6.237 0 14.43-2.724 20.446-4.367 8.297-2.267 17.157-4.597 25.196-7.557 7.582-2.791 14.259-6.864 19.053-13.42 3.586-4.904 11.536-17.003 9.56-22.425-2.42-6.648-13.966-11.22-20.132-11.95-8-.95-16.2.658-24.385 1.333-8.763.723-17.265 2.674-25.935 3.613-8.42.91-19.721 3.72-27.901 1.615-.213 3.365 2.6 7.888 3.58 11.314a262.38 262.38 0 013.476 13.577c1.117 4.874 8.03 22.396 1.743 25.899-7.381 4.112-10.904-13.496-11.823-17.788-2.192-10.234-4.076-20.46-1.781-30.747-9.421-1.698-20.783.824-30.5 1.493 3.62 12.75 5.956 26.103 9.137 39.007m-405.775 5.543c3.276 1.457 7.778.675 11.339.955 5.565.437 11.187 1.443 16.789 1.264 8.548-.272 17.509-1.353 26.064-2.331-4.88-8.801-7.841-17.134-8.45-27.221-.22-3.623-2.142-26.095 4.544-25.134 3.226.464 2.54 19.652 3.167 23.187.91 5.128 2.084 10.378 3.513 15.398 1.037 3.64 4.565 9.094 3.66 13.032l12.942-2.097c-3.354-6.687-5.804-12.68-7.06-20.14-.607-3.6-.22-8.08-1.397-11.498-.742-2.155-2.434-4.182-2.66-5.99-.261-2.084 2.023-7.207 1.178-9.06-.83-1.82-6.61-3.504-8.634-4.508-5.581-2.765-8.852-3.465-15.107-1.875-12.065 3.066-31.074 5.242-40.072 13.512-8.914 8.193-12.158 35.829.184 42.506m526.918-399.391c3.34-.377 6.646-.61 10.003-.783-4.905-6.902-9.36-14.116-13.427-21.542a240.363 240.363 0 01-5.677-11.07c-2.07-4.287-2.012-7.086-6.506-7.938-6.223-1.18-14.546 1.177-20.948.909-4.946-.208-16.052-4.862-20.036-3.175 3.633 7.446.717 19.03.859 27.046.142 7.97-.848 15.676-2.251 23.536 8.487 0 19.11-2.93 27.677-4.24 9.974-1.523 20.144-1.602 30.306-2.743M531.415 687.187c3.269-.42 6.377-.55 9.677-.55-7.435-12.052-13.05-25.531-13.112-39.893-.008-1.878 2.25-12.674 1.504-13.571-1.458-1.748-7.501-.368-9.157-.203-6.771.677-14.298.626-20.673 3.065-4.4 1.684-4.447.667-6.196 5.844-1.035 3.062-1.78 6.559-1.8 9.779-.041 6.507 2.034 14.112 4.716 19.97 2.554 5.577 6.589 11.558 12.139 14.553 6.394 3.453 15.404 1.398 22.902 1.006m67.6-447.78c-1.285-4.801-.73-3.717-5.004-4.313-.9-.125-10.692.078-11.255.652-.647.662-.4 10.439-.485 11.558-.29 3.835-.72 7.66-1.137 11.483-1.695 15.52-4.912 30.544-7.324 45.936 5.96-3.698 14.573 1.344 19.664-2.66 4.023-3.162 3.42-13.284 3.72-17.75 1.004-14.948 1.347-29.933 1.822-44.905m215.194-18.124l-1.608 2.583c2.08 1.334 14.263-12.237 16.972-14.665 3.608-3.233 9.318-7.55 10.945-12.277 1.89-5.493.03-14.165-.427-19.845-.327-4.065.368-9.687-2.946-12.527-3.05-2.613-10.564-2.543-14.176-1.984-10.84 1.678-17.36 10.592-22.831 19.086 5.556-.683 25.143-9.625 27.418-4.79 3.305 7.027-17.266 13.309-19.3 19.474 4.21 1.487 13.499-4.281 10.886 5.316a6.992 6.992 0 01-2.332 3.336c-1.923.68-2.378 1.964-1.366 3.85-.861 3.759-.685 8.515-1.235 12.443M938.976 561.51c.058 2.278.267 4.456 2.129 6.066 4.13-13.08 5.42-26.164 7.13-39.765 1.713-13.604 3.535-27.546 3.806-41.138.304-15.233-1.135-31.804-3.6-46.854-1.926-11.766-3.418-26.244-10.433-36.258 3.984 25.95 2.745 50.555.059 76.597-1.426 13.828-3.44 27.549-4.362 41.437-.244 3.668-.323 7.38-.641 11.04-.188 2.158-2.324 6.245-2.343 7.304-.105 5.879 6.189 16.172 8.255 21.57m-211.957-20.211c3.313 7.623 7.08 15.132 9.067 23.239 2.097 8.56 1.194 16.532 1.53 25.206.557 14.39-.597 28.697-.395 43.109.172 12.283-.3 24.259-.176 36.412.078 7.688-.343 15.347-.317 23.03 0-.022.306 6.898-.223 7.249-2.373 1.576-4.966-.662-5.693-2.817l-7.034 7.958c3.687-.926 8.22-2.861 12.01-3.032 1.452-.534 2.897-.55 4.337-.045 1.429.864 2.488 2.068 3.177 3.614 9.93 2.115 15.89-6.724 17.675-14.627 3.869-17.147 2.475-34.076 2.194-51.387-.608-37.608 5.367-74.991 4.802-112.602-.11-7.278-.387-14.471.707-21.735 2.03-13.495 5.028-1.142 5.509 5.227 1.446 19.138 3.964 38.886 2.579 58.142-1.246 17.35-1.131 34.862-1.995 52.265-.92 18.497-2.4 36.602-1.547 55.114 4.967-.635 20.944-1.582 22.608 5.396 1.45 6.086-4.388 3.834-7.421 3.577-4.918-.417-9.722.737-15.098-.227.396 8.186 1.525 19.164-5.79 24.69-3.598 2.72-9.557 5.174-13.761 6.777-4.12 1.572-11.098 5.054-15.39 4.863-3.037-.135-4.207-1.77-7.54-1.51-4.943.39-9.223 3.697-14.464.965-9.94-5.181-5.054-20.25 1.222-26.29 1.618-1.557 3.437-3.26 5.608-4.02 1.032-.36 5.35.076 5.849-.465 1.838-1.995-.457-13.665-.702-15.88-1.29-11.618-2.693-23.483-3.222-35.153-.497-10.972-1.05-21.966-1.428-32.942-.082-2.39.978-7.304-.023-9.393-1.665-3.472-8.97-5.682-12.14-7.3 2.825 27.663 6.974 57.395-3.248 83.743-2.03 5.232-4.307 12.7-9.454 15.61-4.851 2.744-16.275 2.357-22.087 2.683-6.25.35-12.368-1.11-15.812-6.978-2.71-4.618-1.085-10.158 4.478-12.172 3.33-1.205 3.98-.43 6.898 1.003a10.552 10.552 0 011.334 3.315h2.243c3.04 1.356 15.19 2.873 18.53.709 3.873-2.505 4.715-9.28 6.366-13.305 3.066-7.48 3.878-13.548 4.99-21.542 1.743-12.512-.021-27.02.012-40.056.009-3.671.025-7.343.03-11.014.007-5.545.49-5.511-2.674-9.503-4.768-6.016-10.204-12.164-15.308-17.931 2.765 16.849 1.633 34.589.535 51.375-.616 9.43-1.892 19.035-2.477 28.34-.176 2.797 1.833 10.507-1.414 11.743-3.295 1.254-7.396-4.596-8.727-6.708-7.264 14.495-15.934 28.476-30.921 35.975-7.706 3.856-15.73 5.595-24.14 7.107-7.791 1.402-14.991 3.958-22.672 5.164-15.898 2.495-30.541 2.848-46.54 2.303-15.092-.514-29.544 2.273-44.59-1.236-5.871-1.37-11.804-3.884-15.818-8.38-2.19-2.452-3.16-6.313-5.368-8.574-.498-2.926-2.22-3.828-5.165-2.708-1.85.083-3.693.022-5.53-.184-15.09-.792-31.86.09-46.481-4.22-5.55-1.635-11.746-4.33-8.977-11.276 2.42-6.071 9.098-4.227 14.574-3.697 15.907 1.54 31.565 4.352 47.7 5.767-.518-8.431-.071-17.032 3.234-24.92-11.194-1.404-22.8-3.523-33.45-7.097a449.543 449.543 0 01-9.826-3.431c-5.378-1.945-4.26-2.448-7.375.946-3.914 4.264-6.31 13.16-9.146 18.313-3.191 5.798-6.253 11.53-8.942 17.582-2.545 5.728-4.443 13.4-8.321 18.336-8.53 10.858-28.231 11.799-39.825 7.534-5.68-2.09-7.73-2.418-11.171-7.508-3.771-5.576-4.708-5.902-11.655-6.66-12.545-1.366-24.385-4.515-36.137-8.863-12.416-4.593-25.165-8.174-37.545-13.133-11.59-4.643-22.79-9.313-34.781-12.937-1.423 9.044 4.473 19.243 4.473 28.567 6.977-.698 13.483-1.31 20.399-2.42 2.466-.396 18.003-3.882 19.519-1.825 6.319 8.576-22.433 12.61-26.927 13.743-14.401 3.634-29.086 7.01-43.578 9.82-14.792 2.867-29.212 5.722-44.228 6.237-25.41.87-60.456-.597-59.243-33.98.476-13.081 5.865-27.277 16.177-35.808 6.416-5.308 14.417-8.226 22.26-10.628 2.899-.888 18.166-2.962 18.63-4.104-4.302-3.083-11.655-3.887-16.76-6.263-4.865-2.266-10-3.11-14.981-5.394-9.953-4.563-19.566-10.141-28.77-15.783-7.318-4.488-14.718-9.443-21.456-14.778-5.354-4.238-10.485-8.314-14.765-13.158-2.24-2.535-6.205-4.78-8-6.963-6.3-7.667.345-22.923 3.028-31.85 3.919-13.046 9.149-26.93 16.862-38.231 7.093-10.394 15-17.396 27.724-19.831 11.743-2.247 23.55-2.96 35.56-3.59-2.017-7.677-4.858-13.095-4.137-21.515.68-7.942 4.69-15.833 7.837-23.066 5.85-13.445 11.37-26.605 19.373-38.984 4.398-6.803 9.338-13.261 14.139-19.78.774-1.051 5.586-5.86 5.402-7.213-.183-1.346-5.015-5.444-5.755-6.383-4.97-6.308-8.404-13.1-2.57-19.851 3.043-3.52 11.987-10.628 16.292-6.156 4.655-9.406 12.797-15.82 19.136-23.821 7.903-9.978 15.449-20.108 22.847-30.56 7.366-10.405 13.383-21.584 23.147-29.97 10.88-9.345 21.124-8.537 34.488-4.542.763-5.155 1.824-4.47 6.81-6.19 3.774-1.303 7.442-2.85 11.153-4.32 3.944-1.565 7.936-2.453 11.968-3.683 5.37-1.638 6.178-1.103 7.05-8.078 1.057-8.428-2.55-17.34-4.876-25.278-1.148-3.917-1.946-8.793-4.53-11.428-2.336-2.383-6.48-3.468-9.035-6.103-22.022-22.701-22.37-71.171 1.089-92.27 4.559-4.1 8.319-9.617 13.994-12.386 6.23-3.041 14.45-5.5 21.313-6.933 14.146-2.952 30.01-2.015 41.193 7.929 5.515 4.904 8.878 12.699 10.758 19.662 1.796 6.65 1.41 17.893-5.397 7.614-4.293-6.483-8.023-13.095-15.29-16.302-6.494-2.865-14.424-4.412-21.5-3.804-16.673 1.432-30.185 6.328-41.727 18.669-12.762 13.645-13.411 35.43-10.66 52.78 2.424-5.131 4.066-13.257 10.862-14.237 5.664-.817 14.593 6.415 11.553 12.64-13.793-3.515-17.827 17.343-5.9 18.599 3.61.38 8.184-6.048 11.509-4.551 6.218 2.798-2.115 12.44-3.758 15.615l-2.62 1.612c.86 1.998 1.729 3.993 2.606 5.984a163.297 163.297 0 013.009 7.674c2.273 6.303 4.63 12.802 6 19.368 1.392 6.676 2.115 14.472-1.176 20.744-3.617 6.894-7.024 6.046-9.803-.512-7.274 4.585-14.588 9.474-23.14 11.283 8.968 15.044 20.576 27.977 38.03 32.709 14.793 4.01 33.414 3.864 47.529-2.771 14.647-6.885 22.707-22.977 20.963-38.987-.565-5.185-3.583-23.195 3.596-10.167 3.937 7.145 4.226 18.735 3.328 26.57-4.293 37.478-42.284 51.499-75.043 42.477-16.805-4.63-28.915-17.02-37.931-31.604-2.103-3.401-4.027-6.911-5.906-10.44-.751-1.41-1.412-3.38-2.414-4.616-3.927-4.847-.07-2.146-4.238-2.753-6.452-.938-16.605 4.003-21.396 7.918-13 10.62-20.2 27.61-30.176 40.997-10.622 14.25-24.112 26.933-37.644 38.303l45.92 47.034c3.162-3.5 9.173-11.5 10.014-16.18.493-2.743-1.72-11.771 5.086-7.753 4.595 2.714 6.338 14.327 7.77 19.078 2.215 7.338 5.943 14.248 8.353 21.51 4.47 13.474 9.977 26.829 14.556 40.399 1.862 5.518 7.17 12.366 2.07 17.038-7.753 7.098-10.058-6.877-12.111-12.216-2.86 3.975-2.488 10.42-3.962 15.056-.9 2.832-3.641 7.24-3.55 10.03.155 4.77 4.486 6.19 8.389 8.857 7.26 4.96 14.712 9.802 21.363 15.579 2.775 2.41 5.328 4.848 7.353 7.948 1.768 2.707 2.3 8.809 4.254 10.693 2.556 2.462 12.004.746 16.993 1.282 8.33.896 16.774 3.859 24.862 5.988 14.312 3.766 29.032 9.189 44.02 11.2 14.72 1.977 28.534.996 43.205-1.636 8.014-1.438 16.62-3.156 23.934-7.01 8.423-4.438 15.892-11.538 23.76-16.9 3.52-2.4 7.123-4.67 10.724-6.944 4.812-3.04 3.554-2.382 3.867-7.212.363-5.591 2.697-16.267-1.037-21.243-1.56-2.077-6.345-3.596-8.598-5.107-3.275-2.2-6.212-4.753-9.722-6.522-3.832-1.931-3.945-.402-5.723-5.14-1.616-4.301-2.682-8.807-4.165-13.154-6.786-19.883-8.54-40.076-11.351-60.837-1.307-9.643-4.512-22.765-.882-32.16 5.048-13.064 9.272 5.208 10.337 9.89 4.819-8.253 7.588-17.433 12.6-25.582 2.924-4.751 4.354-7.18 6-12.385.668-2.108.935-3.86 2.345-5.61 2.983-3.704 3.424-1.593 6.525-1.684 9.757-.286 19.347-.035 29.113.417 5.397.25 10.795.382 16.23.362 2.648-.01 5.328-.14 7.974.013a25.006 25.006 0 014.257.319c2.914 1.36 4.026.188 3.337-3.517 2.537-5.307 2.368-13.775 3.266-19.565a697.445 697.445 0 002.498-17.516c.403-3.127 3.793-14.926 1.994-17.495-1.783-2.547-11.074-1.976-13.823-2.433-18.276-3.038-35.276-10.57-52.37-16.74-8.416-3.036-16.404-7.137-24.476-10.863-4.202-1.94-8.173-5.935-12.602-7.18-5.59-1.57-13.01.94-18.58 1.886-10.614 1.8-20.853 3.378-31.623 3.964-3.805.207-11.043 1.274-14.476-1.341-6.896-5.252.956-8.323 5.463-8.986 19.937-2.932 39.813-4.617 59.902-5.841.942-.057 4.392-.758 5.54-.396 2.616.826 1.56 1.784 3.129 2.636 2.904 1.578 6.218 2.74 9.903 3.719 10.52 2.794 21.115 7.482 31.67 11.166 18.995 6.628 41.688 17.196 60.684 15.338 4.688-.458 8.543-1.044 13.444-.57 5.74.558 9.09 3.502 13.5 4.358 5.908 1.146 14.359.285 20.578.505 5.93.21 11.864.485 17.797.485-5.21-10.476-8.383-20.312-11.311-31.563-1.597-6.136-4-11.71-2.96-18.171.493-3.05 1.712-5.916 3.04-8.671 2.007-4.16 2.577-3.29 3.289-7.895.98-6.34-.425-13.023.345-19.381.79-6.525 5.72-12.341 6.27-18.58.293-3.318-1.564-6.027-1.008-9.607.497-3.202 2.393-6.56 4.096-9.255 3.966-6.282 8.796-9.844 15.498-12.403 5.387-2.057 12.263-3.944 17.707-.613 5.554 3.398 5.153 10.237 7.814 15.227 5.722 10.73 18.924 20.319 29.448 25.799 9.668 5.034 20.083 8.214 30.449 11.497 6.309 1.998 12.796 3.423 18.996 5.706 4.463 1.644 11.74 5.63 16.286 3.209 3.96-2.111 8.58-8.553 12.5-11.544 4.588-3.5 10.705-6.914 16.48-3.866 5.775 3.047 5.3 14.279 9.793 16.39 1.565.737 6.213-1.42 8.347-1.08 3.446.549 5.819 2.682 7.885 5.308 7.716 9.813 10.106 25.378 10.443 37.475.169 6.042.022 13.557-3.668 18.687-4.304 5.984-12.45 6.132-17.975 10.343-4.42 3.368-7.55 8.874-12.035 12.463-2.763 2.212-3.83.513-4.973 3.96-.745 2.242.76 6.616 1.204 8.785 2.747 13.382 7.892 25.725 12.774 38.473 2.3 6.007 4.25 12.015 5.3 18.38.689 4.178-.105 7.83.228 11.849.236 2.86 1.453 5.332 1.185 8.266-.567 6.213-3.941 11.7-6.087 17.166-2.446 6.23.914 17.019 3.378 23.462 5.904 15.436 14.207 31.03 21.584 45.862 7.246 14.569 12.636 30.084 21.078 44.08 8.199 13.592 17.846 26.9 27.175 39.756 5.189 7.15 10.695 13.953 15.398 21.453 1.028 1.64 8.046 15.24 9.866 14.77-2.232-23.735.025-48.42 1.023-72.14 1.248-29.69-2.531-56.585-10.886-84.927-1.953-6.626-3.694-13.406-5.068-20.177-.962-4.741-3.678-8.637 2.989-6.564 11.039 3.43 20.755 24.27 26.368 33.342 12.569 20.317 23.068 47.41 24.477 71.24 1.383 23.39.19 45.77-2.733 68.816-1.443 11.369-3.773 24.043-7.335 34.916-1.832 5.593-4.032 11.386-6.472 16.745-1.03 2.262-3.291 4.818-3.682 7.303-.618 3.943 2.27 9.263 2.994 13.157 2.362 12.74 2.905 25.945 2.1 38.875-.431 6.935-1.39 13.137-3.652 19.659-2.883 8.309-1.543 14.656-.343 23.22 1.284 9.167 2.514 30.002-7.017 35.21-.673-.07-1.348-.14-2.022-.208-1.703-1.963-3.215-1.847-4.535.35-2.465.804-4.873 2.875-7.47 3.766-6.024 2.069-12.525 2.195-18.81 3.104-12.298 1.78-24.556 4.922-36.64 5.302-14.308.45-29.234-.111-43.224-2.62-2.892-.518-6.272-1.89-9.164-2.152-3.925-.357-6.68 2.253-10.732 1.639-6.28-.951-10.248-7.597-10.66-13.043-1.307-17.354 8.32-25.312 24.055-28.394-10.167-14.555-21.872-26.496-24.577-45.19-2.663-18.391 3.112-39.677 13.6-54.412 10.069-14.145 27.249-23.602 44.966-20.013 8.223 1.666 47.016 13.119 39.517 26.11-1.663-5.942-11.89-4.792-16.831-5.65-8.198-1.424-16.394-3.571-24.711-3.13-16.358.87-32.168 10.547-40.09 25.194-9.131 16.887-4.964 33.739 6.03 48.157 10.052 13.183 20.415 27.033 33.933 36.552-2.613 4.155-1.668 5.459-6.86 4.715-3.563-.511-6.897-3.29-10.5-3.982-7.468-1.434-19.224 4.686-23.84 10.806-2.726 3.616-2.625 5.403 2.403 7.63 3.71 1.643 9.552.794 13.537 1.15 9.913.885 20.017 1.18 29.962 1.146 17.215-.063 33.225-2.825 50.262-4.613 7.55-.793 15.448.12 22.836-2.658 10.007-3.763 7.555-14.816 6.258-23.77-1.285-8.87.023-15.748 1.417-24.531.604-3.815 1.732-8.22.933-12.06-.948-4.561-2.65-6.58-2.432-11.668.772-18.107-1.5-37.176-6.3-54.652-10.422-37.957-35.874-67.914-57.101-100.175-5.995-9.112-12.298-17.746-17.071-27.614-4.521-9.35-7.635-19.237-12.125-28.612-9.896-20.663-19.283-41.948-25.066-64.174-6.554 2.579-13.615 6.373-20.641 7.283-7.96 1.03-16.47-5.397-21.49-11.058-11.448-12.908-14.06-30.414-13.203-47.048.253-4.924.559-9.887 1.44-14.745.574-3.153 4.283-10.785 3.438-13.723-.905-3.144-6.175-5.877-7.793-8.991-2.062-3.964-2.3-9.066-2.19-13.44.103-3.991 2.307-23.537 8.636-15.548 3.625 4.577-1.674 21.833 2.005 24.182 3.31 2.113 7.87-.47 11.303 4.362 3.708 5.22 1.722 11.656.422 17.216-2.687 11.498-5.21 23.914-5.141 35.723.06 10.753 1.983 24.347 13.733 28.696 5.936 2.197 10.442.686 14.869-3.406a131.73 131.73 0 013.105-3.448c.969-1.665 2.455-1.872 4.459-.62 1.483-1.178 3.68-9.318 4.423-11.137 9.1-22.3-5.247-47.904-10.507-69.784-3.217-13.383-6.022-26.807.49-39.723 1.054-2.091 3.958-3.908 2.216-6.908-.46-.79-4.843-1.16-5.881-2.076-3.382-2.985-2.677-8.55-2.677-12.535-7.821 2.412-10.075-3.673-9.058-11.131-5.834.925-9.886 2.709-12.046-4.041-1.915-5.986.977-12.09 2.896-17.668-26.993-2.893-56.146-6.6-77.658-25.226-5.304-4.593-9.715-10.374-13.391-16.363-.664-1.083-3.792-8.707-4.83-9.105-3.08-1.183-5.665 4.845-8.403 6.338-2.434 1.326-5.894 2.057-8.598 2.865-2.545.76-11.516.913-13.107 2.234-3.978 3.304-3.664 22.405-3.695 26.838-.108 15.268 3.3 30.483 9.603 44.384 5.936 13.092 15.019 31.096 26.892 39.664 3 2.166 5.7 3.289 9.503 3.11 2.716-.127 5.409-2.03 8.237-1.04 7.157 2.504 4.597 7.479-.905 9.83-15.726 6.727-28.98-8.06-38.074-18.39-2.663 12.257 9.685 26.76 16.219 36.76 4.163 6.373 8.279 12.752 12.24 19.255 2.876 4.723 8.529 13.445-1.512 9.797-4.844 25.422-18.138 47.655-24.927 72.36-6.97 25.36-13.045 54.317-13.045 80.727 5.307-3.694 7.983-20.53 15.12-7.644.773 1.394.53 3.7 1.549 4.919 1.408 1.685 3.102 1.217 5.259 2.418 3.42 1.903 5.626 5.697 2.569 8.987 3.938-.916 8.062-.45 8.91 4.208.477 2.614-3.351 14.723-6.207 15.712-8.707 3.014-18.361-14.368-20.72-19.897-5.438 5.459-11.705 9.658-16.718.828-3.736-6.58-1.568-16.535-1.041-23.698 1.062-14.43 2.448-28.505 4.53-42.796 3.904-26.798 13.813-50.631 25.984-74.752 3.35-6.64 7.064-13.435 10.057-20.228 4.514-10.25-2.55-7.831-9.453-6.343-13.526 2.917-27.69 5.18-41.356 6.213-7.134.539-16.27.86-23.125 2.922-4.82 1.45-3.993.449-5.93 5.61-.865 2.31-1.842 4.768-3.37 6.746-7.787 10.092-27.96 8.403-39.1 7.65.676-4.255 1.343-8.513 2.043-12.765-8.576 2.015-18.762 3.418-27.594 3.315-4.755-.054-9.812-.78-14.555-1.174-3.497-.291-10.127-2.77-13.418-1.806-3.816 1.119-9.587 14.916-11.77 19.365-4.096 8.355-11.417 17.637-14.002 26.434-2.292 7.799 2.385 21.255 3.854 29.018 2.123 11.222 4.058 22.465 7.616 33.346 2.58 7.889 5.553 18.764 13.474 22.699 7.892 3.922 13.564 6.128 22.106 5.33 15.042-1.406 31.045.903 45.895 3.827 15.292 3.01 29.295 4.367 43.816 9.733 32.935 12.173 53.908 49.67 41.49 84.023-7.142 19.758-18.908 34.442-36.168 46.665-8.795 6.229-19.186 11.282-28.828 16.082-4.427 2.204-8.78 4.878-13.291 6.836-3.297 1.43-8.964 4.725-12.546 5.086 3.976 1.89 7.494.12 11.63-.467 5.854-.833 11.83-1.011 17.705-1.737 9.144-1.132 18.152-1.986 27.299-3.121 7.807-.97 16.616-1.313 24.375-.197 3.748.539 9.389 1.603 12.727 3.409 2.625 1.42 5.032 4.692 7.855 6.313 3.105-12.751 1.653-28.47 1.798-41.572.119-10.696.596-21.156 1.603-31.802 1.127-11.907-6.157-25.448-8.847-37.11-2.517-10.915-9.223-24.748-6.755-36.141 3.113-14.361 11.26 11.438 12.38 15.127 3.507 11.54 7.578 22.807 11.464 34.212 4.623 13.567 9.28 26.713 16.014 39.426 5.603 10.579 12.042 22.989 23.557 28.149-.95-15.558-2.005-29.963-8.473-44.307-6.133-13.602-15.486-25.698-19.575-40.273-2.031-7.243-2.33-14.65-2.43-22.131-.068-5.033.163-11.8 5.56-6.372 4.282 4.303 5.113 18.029 6.987 23.823.903 2.788 2.153 5.348 3.15 8.06.449 1.22 3.472 7.172 3.472 7.97 3.117 9.405 10.008 18.426 14.85 27.08"/><path d="M396.459 198.426c.297 3.643 2.41 13.085-.296 15.968-3.587 3.825-5.287-1.095-6.839-4.974-3.241-8.106-4.852-23.803 1.553-30.558 6.689-7.054 19.903-7.244 27.04-14.269 2.865-2.822 2.59-2.233 2.34-6.645-.142-2.49-1.752-5.8-2.531-8.04-2.025-5.818-4.246-11.566-6.364-17.35-3.702 1.687-9.027 6.891-12.673 2.53-3.37-4.034 2.236-10.642 6.142-11.82-2.04-4.458-11.644-3.634-13.474-10.18-1.59-5.69 2.978-3.43 3.976-5.67 1.176-2.638-1.231-6.203.007-8.633 4.302-8.437 9.065 7.076 11.207 9.845 3.984 5.15 10.926 6.275 11.538 14.065.377 4.796.016 7.026 1.992 11.736 1.819 4.336 3.98 8.494 5.507 12.956 2.297 6.723 5.839 18.958 1.35 25.468-3.786 5.491-12.98 9.677-18.957 12.025-2.994 1.175-7.145 1.891-9.567 4.18-3.161 2.986-2.178 4.821-1.952 9.366M707.058 401.723l-2.047-3.223c-4.731 5.053-9.97 7.13-14.751.711-4.924-6.608-3.075-16.517-1.16-23.734.985-3.714 5.968-18.357 9.16-7.202.704 2.462-1.651 7.944-2.077 10.354-.838 4.728-1.498 9.263-.908 14.078 5.546-4.964 8.262-17.549 13.89-4.48 2.042 4.738 2.266 12.542 7.7 5.344 2.9-3.844 3.087-10.94 4.445-15.469 9.263 2.215 7.575 15.913 4.483 22.587-4.924 10.627-11.623 7.205-18.735 1.034M739.49 163.333c3.295 5.495-2.938 15.544-4.067 21.186 5.52-.64 19.178-13.953 23.022-11.757 8.003 4.567-8.902 20.5-12.15 22.835-25.959 18.657-21.279-35.314-6.805-32.264M706.938 224.525c9.698-2.7 22.776 14.706 16.485 23.326-4.513 6.183-10.089 2.647-11.503-2.796-.72-2.776-.081-6.12-1.024-9.217-1.16-3.812-2.715-7.525-3.958-11.313"/><path d="M408.647 149.498c7.376 6.2-7.695 21.312-15.25 9.478-2.078-3.255-2.456-6.226.625-7.428 1.556-.606 5.225 1.38 7.42 1.028 2.408-.385 5.023-2.078 7.204-3.078M383.303 124.71c-2.862-3.57-10.905-25.53-.938-20.639 5.005 2.456 9.141 21.229.938 20.639M712.383 597.022l-.849-8.315c3.68 1.877 11.064 3.73 12.345 7.931 2.406 7.892-8.768 1.579-11.496.384M819.21 262.758c-2.191-2.961-9.008-27.66-3.094-27.095 1.036 8.96 1.249 18.265 3.095 27.095M727.019 541.297c-4.843-8.654-11.734-17.675-14.851-27.08 7.306 5.915 13.014 18.001 14.85 27.08M925.639 521.235l.885 9.409c-4.388 1.133-1.154-8.374-.885-9.41"/><path d="M712.177 514.231c-2.077-2.261-2.966-5.041-3.48-7.984l3.48 7.984M737.295 656.231l.231-8.365-.23 8.365M409.177 203.375l5.576.692c-1.467.688-4.923 1.6-5.576-.692M779.783 685.524c1.934-.292 3.874-.957 5.774.113l-5.774-.113M764.485 590.308l-.365 6.609.365-6.61M738.18 598.935l-.315-5.75.314 5.75M795.639 615.856l-.311 5.121.31-5.12M448.459 659.014c-1.881.948-3.761 1.042-5.636-.012l5.636.012M640.987 142.807l.079 5.06a2937.61 2937.61 0 01-.08-5.06M454.194 188.89c-1.927.146-3.854.29-5.78.437l5.78-.437M852.106 195.39c-.01-1.667-.02-3.334-.028-4.998.884 1.664.901 3.329.028 4.998M396.459 198.426l-.263-5.309c.089 1.772.175 3.54.262 5.31M869.81 721.633l3.892.027-3.892-.027M526.488 699.6c1.103-.002 2.206-.003 3.296-.002l-3.296.001M773.404 696.68l.308-4.131-.308 4.13M592.308 219.134c-1.647-.015-3.294-.03-4.94-.043 1.655-.958 3.299-.684 4.94.043M372.544 46.759c-1.66-.053-3.415.812-4.945-.504l4.945.504M327.708 209.51c-1.591.147-3.183.293-4.774.438l4.774-.437M427.949 657.585l-5.027.524 5.027-.524M469.67 187.88l-4.902.105c1.621-.649 3.243-1.26 4.902-.105M737.235 634.977c-.01-1.417-.02-2.834-.028-4.248l.028 4.248M926.24 514.817c-.177 1.713-.354 3.425-.529 5.138l.528-5.138M714.156 625.217l-.364-4.37c.12 1.46.243 2.915.364 4.37M164.363 611.823c-.3 1.454-1.36 1.74-3.18.858l3.18-.858zM775.172 612.47c-.098-1.268-.194-2.535-.29-3.799.098 1.268.193 2.533.29 3.798M432.709 190.933l-4.126.56 4.126-.56M723.703 601.67l-.007 3.729.007-3.728M139.075 430.75l-.407 3.716.407-3.716M963.01 516.001l-.22-3.498.22 3.498M252.641 670.153l-4.263-.068c1.438-.985 2.855-.774 4.263.068M418.12 124.45l-.07-3.51c.73 1.16.965 2.323.07 3.51M304.66 109.597c.1-1.155.198-2.31.296-3.458l-.296 3.458M774.335 513.914c-.049-1.273-.099-2.546-.146-3.817l.146 3.817M765.188 579.679c-.035 1.2-.07 2.4-.107 3.595.034-1.203.07-2.4.106-3.595M601.629 695.463c.89-.002 1.78-.004 2.66-.003-.892.003-1.776.003-2.66.003M705.813 590.702c-8.666-6.697-16.222-16.712-17.981-27.434 3.726 4.21 6.86 8.91 10.587 13.118 1.483 1.67 3.3 3.11 4.721 4.813 3.245 3.883 2.673 4.055 2.673 9.503M675.366 545.433c-4.16-9.582-7.77-21.205-7.046-31.777 2.87 9.598 9.528 21.655 7.046 31.777M689.322 601.779a6104.864 6104.864 0 000 0M139.224 677.393l8.53.507c-2.856.038-5.75.73-8.53-.507M689.308 592.589l.03 7.11-.03-7.11M572.493 317.543l-4.79-.25 4.79.25M598.53 258.54l-.018-5.771c.005 1.926.012 3.849.018 5.77M564.156 306.83c-.073-1.354-.794-2.036-2.164-2.045 2.75-1.486 3.472-.804 2.164 2.045M645.707 413.923c.106-1.713.215-3.426.322-5.135-.108 1.714-.216 3.425-.322 5.135M179.59 678.603l5.754-.4-5.754.4M582.426 446.039l5.707-.04-5.707.04M636.902 237.294c-1.327.012-2.654.023-3.97.032l3.97-.031M913.568 700.814l4.991-.022c-1.659 1.047-3.323 1.02-4.99.022M215.048 470.514l-3.373.096 3.373-.096M814.21 221.284c1.068 1.03-.336 3.398-1.608 2.582l1.608-2.582M292.687 574.78l.142-4.368-.142 4.369M674.061 575.586a7727.875 7727.875 0 000 0M940.21 417.167l.189 4.561-.189-4.561M659.938 472.798l.25-4.533-.25 4.533M363.896 501.56l5.094.468-5.094-.469M514.151 633.766l-3.269.001h3.27M610.606 264.226c-.065 1.413-.13 2.825-.193 4.231.066-1.414.13-2.823.192-4.23M634.832 606.95c1.681-1.194 3.316-.406 4.957.112l-4.957-.112M438.321 202.664a662.367 662.367 0 01-3.305-.14c1.11.044 2.207.092 3.305.14M706.282 632.933l-.298-4.215.298 4.215M615.778 474.141c-.911.006-1.822.012-2.722.02.915-.005 1.819-.013 2.722-.02M654.208 525.236l.003-3.514-.003 3.514M536.925 440.584l4.434-.029c-1.473.868-2.952.706-4.434.029M613.49 296.962l-2.552-.023c.858.006 1.704.014 2.551.022M190.928 456.85l4.425.047c-1.484.833-2.959.855-4.425-.046M940.353 459.29a848.107 848.107 0 00-.276 3.37c.092-1.127.183-2.248.276-3.37M564.842 640.158l.376-3.683-.376 3.683M326.341 493.739c1.49.02 2.981.043 4.472.064-1.506 1.037-2.988.384-4.472-.064M666.142 278.002l4.35-.492-4.35.492M544.999 671.85l.392 3.869-.392-3.87M674.085 586.943l-.006-3.608.006 3.608M148.46 678.07l4.208.555-4.208-.554M174.78 678.638c1.385-1.132 2.791-.785 4.202-.06l-4.202.06M427.868 512.72l4.114-.503-4.114.504M580.313 685.015l4.194-.56-4.194.56M531.415 687.187l4.277-.549-4.277.55M609.911 272.766c-.063 1.151-.126 2.303-.187 3.447l.187-3.447M274.107 547.236l.381-3.663c-.128 1.224-.254 2.444-.38 3.663M598.902 242.993l.112-3.591c-.036 1.2-.074 2.396-.112 3.59M326.594 533.643l.377 3.667-.377-3.667M331.318 493.751l4.337.479-4.337-.479M561.51 672.178c.824 2.417.52 8.04-1.817 9.743-4.851 3.536-5.35-2.92-6.313-6.409-2.671-9.675-6.972-20.479-8.068-30.426-.336-3.05-.518-8.766 3.518-9.795 3.896-.992 5.869 5.18 7.213 8.35 3.727 8.796 5.889 19 5.467 28.537M561.51 672.178l.166-3.743-.166 3.743"/></g></g></svg>