<svg width="1024" height="768" xmlns="http://www.w3.org/2000/svg"><g fill="none" fill-rule="evenodd"><path d="M542.373 149.024c3.963-.424 4.529 4.95 5.07 7.401 1.526-.964 2.886-.042 3.231-2.293 4.832 5.062 8.701 10.873 12.991 16.372 4.115 5.276 10.547 9.473 14.107 15.02 3.02 4.708-1.964 11.858-2.58 16.88-.695 5.658.782 12.135 4.647 16.449 1.808 2.017 4.019 3.419 6.69 3.96 2.658.54 5.186-1.019 7.526-.687 1.941.275 2.026 1.558 2.703 3.465.928 2.616 2.112 5.086 4.303 6.924 2.45 2.052 5.081 2.645 6.95 5.402 1.63 2.407 2.555 4.737 5.084 6.408 3.375 2.23 8.79 2.903 8.424 8.108l1.74-1.383c1.345 4.323 3.196 8.509 5.173 12.574.926 1.905 1.402 2.917 1.354 5.036-.032 1.396-.797 2.452.03 3.804 1.324 2.163 4.864 1.87 6.48 3.618 1.658 1.794-.062 4.227 1.853 5.79-.807.247-3.042 2.053-2.202 3.15 1.21 1.576 1.3-.584 2.148-.324 1.946.596 1.535 3.025 3.053 3.685.312.136.288-1.32.272-1.694l-.002-.014 1.172 2.287c9.866 19.093 21.428 37.281 30.723 56.65l1.104 2.33c17.503 37.415 38.31 73.846 61.322 108.164 5.428 8.095 11.385 16.137 16.404 24.463 5.043 8.369 11.328 15.786 16.906 23.787 5.738 8.232 10.99 16.8 16.774 24.994 4.613 6.535 10.251 13.491 10.177 21.918-.035 3.745-.58 7.882-4.19 9.894-.086-1.544-2.423.164-2.98.543-2.411 1.64-1.1 1.46-3.699.886-4.218-.931-7.82.329-11.722-2.069-8.277-5.085-16.434-10.313-24.86-15.166-18.21-10.487-36.24-21.225-53.132-33.759-29.531-21.91-61.616-41.545-88.755-66.469-27.119-24.904-55.578-49.613-87.759-67.828-2.157-1.22-8.34-3.053-7.77-5.965.5-2.552 6.06-6.13 8.01-7.897 6.769-6.133 13.818-11.937 20.346-18.333 12.053-11.807 24.016-24.838 33.684-38.692 4.702-6.74 7.102-14.235 9.848-21.898 2.423-6.764 4.663-15.09.73-21.782-1.821-3.1-4.335-4.357-7.85-4.122-2.911.194-2.78.79-3.934-2.297-1.242-3.323-2.252-7.178-5.583-9.102-3.451-1.993-5.802.132-8.597 2.127-3.215-4.642-7.159-12.675-13.64-13.12-6.768-.463-10.612 7.897-12.95 12.926-6.91 14.87-15.902 28.76-25.572 42.002-10.482 14.354-21.198 28.955-32.747 42.47-2.445 2.862-5.221 7.038-8.666 8.774-3.534 1.782-6.467.108-9.454-1.941-7.04-4.83-13.886-9.788-21.216-14.21-8.118-4.896-16.464-9.382-24.743-13.996-3.653-2.035-7.119-4.486-10.883-6.314-3.507-1.703-7.326-2.547-10.916-4.038 13.183-3.93 27.069 1.219 39.546 5.303 6.476 2.12 13.249 4.326 20.163 3.756 5.98-.492 11.407-3.694 16.137-7.191 8.55-6.322 9.222-15.817 6.433-25.414-3.208-11.046-8.115-21.67-11.823-32.564-1.686-4.956-2.848-10.22.99-14.501 3.436-3.832 7.88-4.303 12.57-2.795 11.367 3.658 21.451 7.093 33.637 6.745 9.527-.27 21.645-2.975 28.064-10.717 3.518-4.244 3.652-10.08 3.666-15.343.018-6.239-.376-12.513-1.249-18.689-1.558-11.02-5.6-22.054-.531-32.754 1.188-2.509 4.496-8.354 7.77-8.704zm99.044 137.615l.001.036-.003-.009c-.003-.08 0-.08.002-.027zM247.11 234.913c2.979-4.12 11.13-13.716 17.353-11.616 1.087.366 1.872 1.45 2.588 2.257.508.66 1.011 1.321 1.511 1.987.31.875.868 1.133 1.672.775 2.183 3.022 5.263 5.305 6.517 9.017 1.243 3.678 4.578 7.245 6.545 10.619 1.522 2.61 4.952 9.575 4.69 12.838v8.329c-.31 3.237-6.361 9.028-8.49 11.217-5.283 5.44-11.022 6.135-18.853 5.441-6.633-.588-15.225-2.8-19.715-8.072-4.31-5.059-4.249-12.899-3.611-19.13.89-8.7 4.707-16.626 9.793-23.662zm20.41 1.38c-1.214-2.255-3.871-2.812-6.206-2.545-2.334.267-5.012.463-7.152 1.504-1.976.962-2.976 2.647-5.44 2.081.976 1.682-.772 2.653-1.024 4.168-.324 1.946.304 3.69 1.59 5.168 2.661 3.058 6.637 2.999 10.336 3.297 3.127.252 6.974.77 8.812 3.7 1.185 1.89.11 3.251.665 5.15.409 1.398 2.117 2.201 2.864 3.402 2.503-3.685 2.416-11.577.89-15.517-.722-1.86-2.086-4.284-3.166-5.918-.354-.536-1.189-1.174-1.41-1.616-.385-.763-.339-2.094-.759-2.873z" fill="#FF5678"/><g fill="#000"><path d="M559.309 727.712c4.529-1.77 10.11-.944 14.858-.859 5.961.108 11.938.56 17.88 1.025 11.414.895 22.77.517 34.192 1.584 5.671.53 11.346 1.019 17.021 1.502 4.97.423 10.74 1.741 15.7.793 2.048-.391 7.576-2.319 6.552-5.318-.791-2.314-7.014-3.74-9.041-4.4-4.77-1.55-9.693-2.66-14.514-4.043-2.476-.71-4.942-1.473-7.55-1.226-2.212.209-4.543 1.86-6.785 1.67-3.315-.28-5.024-4.444-7.456-6.28-3.872-2.925-6.742-1.362-9.71 1.86-2.196 2.383-4.286 5.988-7.888 6.202-4.581.271-5.473-3.657-3.451-6.988 1.862-3.069 6.932-6.215 7.204-10.04.172-2.417-3.694-8.886-5.92-9.806-3.742-1.546-9.032 2.549-12.415 3.806-5.91 2.194-11.941 4.137-17.924 6.12-4.092 1.354-10.164 1.474-10.937 6.27-.967 6.003.211 12.099.184 18.128m-234.191-92.293c1.19-2.636 2.44-4.135.06-6.581-1.33-1.368-3.205-2.04-4.514-3.46-1.967-2.133-5.05-7.963-.833-9.431 4.03-1.404 7.425 4.205 10.668 5.437 4.116 1.564 6.666-1.058 7.255-4.99.756-5.054-.076-10.335.528-15.45.59-5.017 2.342-9.182 3.686-13.984.912-3.256 2.027-6.534-2.108-7.256-3.792-.662-8.19.913-12.035 1.124-5.997.33-12.066.632-18.013 1.531-6.64 1.004-6.52 7.794-8.186 13.345-4.042 13.457-9.462 26.66-11.986 40.534-1.088 5.982 1.796 10.079 5.154 14.783 4.203 5.89 8.576 11.763 13.337 17.219 3.179 3.643 6.76 7.036 11.39 8.711 5.244 1.898 7.248-.21 6.039-5.378-1.598-6.823-4.008-13.414-3.724-20.52.104-2.588.856-5.368-1.01-7.534-1.294-1.502-3.511-2.008-5.2-2.922-2.784-1.508-7.097-6.36-1.673-7.404 3.684-.71 7.599 1.768 11.165 2.226M450.38 368.144c3.31 3.696 6.908 7.232 10.046 11.071 1.8 2.203 3.074 4.85 5.005 6.936 4.23 4.57 8.443-.494 12.188-3.455 14.728-11.644 28.588-24.262 42.621-36.725 6.686-5.938 13.799-11.414 20.378-17.465 6.665-6.13 12.214-13.304 18.458-19.835 3-3.136 6.589-6.247 8.44-10.253 1.58-3.416 1.928-7.132 3.728-10.51 3.116-5.85 8.83-12.641 7.52-19.716-3.859 4.045-10.285 18.54-17.018 11.742-4.805-4.852.103-12.024-.11-17.68-4.563 1.935-3.377 9.785-8.241 11.174-2.63.752-4.88-1.63-6.108-3.718-2.12-3.61-1.343-7.388-.38-11.218.657-2.61 4.847-11.217.703-12.28-3.591-.92-6.6 5.685-7.79 8.025-2.182 4.292-3.87 8.73-6.266 12.929-4.13 7.239-8.887 14.155-13.423 21.145-9.341 14.395-19.993 27.907-30.95 41.102-11.704 14.093-24.372 27.382-38.801 38.731m103.765 45.787c-.472 12.68-11.369 22.297-20.796 29.348-12.048 9.01-23.162 19.252-37.531 24.38-5.532 1.975-12.44 1.406-14.656 7.632-.866 2.435-.08 3.33.859 5.78 1.468 3.833 2.351 7.99 3.048 12.025 2.37 13.728.066 27.708-8.183 39.137-4.385 6.076-9.988 11.24-15.781 15.95-5.779 4.698-11.245 10.178-17.616 14.065-13.588 8.288-28.683 13.047-44.351 15.337-8.15 1.192-16.331 2.253-24.561 2.674-4.268.218-8.544.258-12.814.07-1.908-.083-9.003-1.695-10.382-.602-1.061.842-1.534 5.937-1.746 7.343-.45 2.972-.806 5.903-1.42 8.85-1.233 5.915-2.894 12.606-1.077 18.573.526 1.726.952 3.131 2.55 3.711 1.013.368 2.808-.279 3.832-.384 2.317-.238 4.504-.33 6.834-.084 7.647.81 15.156 2.763 22.884 2.23 16.476-1.134 32.968-2.294 49.293-4.872 7.94-1.254 15.56-3.627 23.37-5.46 7.442-1.746 14.88-3.51 21.828-6.791 13.61-6.43 26.189-14.935 37.425-24.898 11.996-10.637 19.937-23.245 27.44-37.315 6.593-12.36 12.151-24.87 11.862-39.119-.183-9.017-1.475-20.19 3.738-28.142 2.382-3.632 7.186-6.999 11.662-5.078 8.123 3.487.45 10.391-2.649 14.173-4.463 5.45-3.863 13.746-4.326 20.41-.547 7.864-2.314 14.76-4.037 22.365-1.686 7.443 1.715 16.273 2.051 23.866.365 8.233.125 16.475.033 24.712-.183 16.382.578 32.72.522 49.1-.03 8.495.187 17.032-.35 25.516-.49 7.735-2.074 15.136-3.46 22.73-1.362 7.455-3.346 16.382-2.887 23.96 18.613-7.085 36.73-15.454 55.631-21.783-5.895-5.14-6.157-12.404-6.633-19.653-.626-9.56-2.2-19.037-2.886-28.596-1.356-18.879-.975-38.739.63-57.597 1.725-20.246 4.783-40.424 5.412-60.755.303-9.794-.455-19.613-2.05-29.278-1.344-8.142-2.51-18.388-6.757-25.602-4.057-6.894-11.515-11.273-17.74-15.969-9.1-6.866-17.53-14.587-26.215-21.959m1.127-264.808c2.33 3.15 4.963 6.06 7.75 8.812 2.875 2.84 4.099 2.213 7.539.736 6.84-2.94 6.709-6.34 2.89-12.233-8.856-13.67-12.216-29.95-21.587-43.34-9.233-13.194-22.664-23.853-36.764-31.461-15.13-8.164-31.528-10.762-48.583-10.518-8.715.125-17.487.726-26.148 1.703-8.426.95-15.92 3.714-24.076 5.802-4.106 1.05-8.34 1.922-12.332 3.365-3.502 1.267-6.65 3.222-10.19 4.405-7.745 2.588-15.54 5.481-22.529 9.714-6.833 4.14-12.99 8.554-19.195 13.635-6.427 5.263-12.009 11.38-18.959 16-6.327 4.207-11.359 9.875-17.096 14.805-5.994 5.152-11.522 11.464-16.019 17.974-4.397 6.365-6.07 14.6-8.726 21.779-3.092 8.355-6.159 17.286-7.324 26.144-2.17 16.506 2.701 35.799 8.895 51.074 6.127 15.108 16.056 27.714 27.903 38.775 5.775 5.395 12.077 10.29 19.138 13.898 6.04 3.086 13.916 8.634 20.49 4.757 2.662-1.57 4.823-3.395 7.9-4.102 3.364-.772 6.66-.456 9.374-2.922 2.308-2.096 3.412-4.626 6.442-5.891 3.593-1.5 7.842-1.774 11.689-1.762 8.64.029 17.283 2.191 25.528 4.59 7.556 2.196 13.879 5.51 21.906 3.502 5.965-1.492 15.532-5.459 16.818-12.297 1.15-6.112-3.286-14.013-5.519-19.482-3.087-7.558-5.883-14.993-7.822-22.94-1.537-6.295-3.95-16.368.388-22.123 4.263-5.654 14.118-5.586 20.241-4.164 4.013.932 7.702 2.81 11.717 3.755 4.09.964 8.322 1.448 12.494 1.92 14.459 1.636 35.03-2.06 34.26-20.537-.686-16.467-9.76-32.974-4.446-49.461 2.165-6.72 6.59-14.492 13.956-16.266 5.843-1.407 13.74.068 18.895 3.124 4.136 2.453 8.235 7.59 1.102 9.23m-290.355 73.552c-14.574 2.843-24.213 18.206-26.884 31.83-1.21 6.172-1.638 13.524.703 19.497 2.698 6.886 10.325 9.76 17.055 11.204 7.693 1.651 14.51 1.006 20.609-4.327 2.68-2.346 4.952-5.078 6.88-8.063 1.969-3.053 4.71-5.277 2.728-8.69-4.91-8.453-9.1-16.758-12.335-26.058-1.443-4.15-2.726-8.205-3.684-12.479-.76-3.394-1.128-5.465-5.072-2.914m127.647 92.218c-2.82 2.716-6.06 4.88-9.7 6.34-3.993 1.6-5.205.832-5.007 5.45.22 5.101.256 9.183-2.069 13.93-1.088 2.22-5.108 5.219-4.349 7.718 1.09 3.587 12.254 7.214 15.51 8.468 7.793 3.002 16.884 3.063 24.24-1.178 8.542-4.926 9.298-13.857 6.08-22.5-.343-.922-1.592-2.48-1.285-3.487.564-1.845 2.885-1.579 4.217-.874 2.892 1.53 4.1 6.183 4.723 9.087 1.663 7.758-1.392 16.16-7.198 21.505-2.95 2.715-6.641 4.53-10.405 5.838-2.136.743-4.378 1.33-6.634 1.557-1.823.183-4.125-.392-5.866.128-3.068.914-3.205 4.698-3.972 7.464-1.37 4.944-1.942 10.296-2.122 15.41-.291 8.274.694 18.814 5.453 25.827 11.103 16.365 32.577 22.045 49.343 30.466 8.912 4.477 17.176 10.101 25.111 16.113.784.594 1.957 1.758 2.898 2.221 3.18 1.565.403.995 2.44-.039 1.567-.796 2.909-2.525 4.529-3.426 3.73-2.077 7.921-3.198 11.716-5.16 8.823-4.563 16.63-10.225 24.46-16.268 8.024-6.193 16.151-11.847 23.47-18.896 3.088-2.972 6.563-5.422 9.694-8.266 3.154-2.866-.882-4.055-3.553-6.164-9.09-7.179-18.067-14.586-27.774-20.93-3.238-2.118-6.094-4.973-9.472-6.844-3.528-1.954-5.622-.204-8.4 2.282-3.038 2.715-5.933 5.377-9.313 7.7-4.464 3.069-9.654 4.546-14.142 7.468 2.881 3.016 9.907 4.025 10.926 8.594 1.034 4.63-5.86 8.243-9.084 10.031-5.69 3.158-11.967 5.075-18.308 6.445-5.276 1.14-13.098-.576-17.326 3.406-1.206-2.55-2.336-3.882-.352-6.32 1.982-2.436 5.515-2.855 8.312-3.792 7.553-2.531 14.993-5.903 22.302-9.064-.97-2.27-3.395-3.824-5.243-5.302-2.639-2.111-4.856-4.45-7.004-7.075-4.098-5.007-7.773-10.348-11.676-15.502-1.692-2.236-3.236-4.468-6.327-3.23-2.729 1.093-5.392 3.926-8.014 5.394-5.93 3.32-11.119 6.507-17.647 8.62-2.63.85-13.4 3.274-10.536-3.31.85-1.952 3.687-2.756 5.435-3.61 3.23-1.577 6.45-3.185 9.562-4.987 6.393-3.7 12.031-8.481 18.012-12.785 6.598-4.748 13.309-9.356 19.504-14.633-6.164-4.083-13.002-7.073-19.376-10.807-6.443-3.775-12.933-7.187-19.597-10.54-5.306-2.67-10.699-5.517-15.537-8.967-1.923-1.373-8.54-7.075-10.649-3.506m193.813-132.796c-.81.204-1.613.436-2.409.694 5.404 8.262-.562 18.49 1.13 27.43 4.988-2.95 5.641-14.426 13.216-12.305 8.158 2.286 4.098 12.327 6.568 18.07 3.856-3.37 8.357-.22 9.948 3.778 1.722 4.332-.666 8.33.137 12.618.83 4.436 3.309 1.525 4.683-1.091 1.75-3.335 3.281-7.843 2.636-11.658-.785-4.64-3.9-8.953-5.83-13.167-1.917-4.187-3.733-8.46-6.508-12.175-5.255-7.034-14.383-13.354-23.57-12.194m52.256 99.073c-3.527-8.805-8.748-16.868-12.084-25.743-.975-2.595-1.52-6.732-4.1-8.331-1.695-1.05-3.951-.42-5.82-.985-1.864-.563-3.828-1.905-5.165-3.29-2.445-2.533-3.238-6.01-6.122-8.215-3.722-2.847-6.597-3.939-8.368-8.696-1.39-3.736-1.393-4.284-5.57-3.45-4.562.91-8.267-.205-11.414-3.768-5.33-6.033-5.918-14.532-3.303-21.814 1.223-3.406 3.351-7.368 1.584-10.933-1.643-3.313-5.63-5.69-8.157-8.33-6.387-6.674-11.386-14.483-17.375-21.485-1.434-1.675-2.9-3.346-4.004-5.266-.702-1.22-1.116-3.318-2.743-3.663-2.8-.594-6.708 4.247-8.116 6.01-10.31 12.904-2.934 30.479-1.678 45.026.639 7.408 2.076 16.29-1.21 23.265-3.095 6.573-10.93 9.854-17.534 11.684-8.907 2.469-18.473 2.36-27.536.86-4.747-.784-9.303-2.124-13.796-3.822-4.598-1.738-9.38-4.727-14.066-1.574-6.048 4.071-4.18 12.238-2.851 18.19 2.17 9.723 5.959 18.792 9.31 28.133 2.816 7.845 5.095 17.687-.823 24.707-5.911 7.011-15.714 11.399-24.838 11.035-18.916-.754-36.183-14.858-55.513-9.089 3.632 1.501 7.471 2.384 11.02 4.103 4.284 2.074 8.25 4.831 12.408 7.139 7.983 4.428 15.994 8.793 23.796 13.538 7.05 4.286 13.715 8.982 20.443 13.733 8.384 5.919 12.8-.637 18.178-7.031 11.742-13.957 22.92-28.737 33.587-43.528 9.275-12.858 17.884-26.284 24.591-40.649 2.4-5.14 6.441-13.86 13.464-12.845 6.234.9 9.87 8.422 13.093 13.026 2.249-1.612 4.177-3.766 7.213-2.88 2.518.735 4.26 3.32 5.375 5.523.766 1.515 1.288 6.62 2.57 7.388.91.547 4.395-.628 5.948-.27 5.315 1.23 7.014 8.06 6.96 12.802-.075 6.536-2.806 13.075-5.044 19.127-5.016 13.567-13.61 24.17-23.083 34.89-9.615 10.879-19.68 20.74-30.524 30.394a386.771 386.771 0 00-7.935 7.248c-2.14 2.013-5.528 4.108-7.202 6.474-3.1 4.377 5.191 6.364 8.276 7.966 13.273 6.892 25.505 15.97 37.194 25.226 12.055 9.546 24.177 19.13 35.76 29.244 11.331 9.895 22.034 20.441 33.966 29.643 12.26 9.453 25.105 18.181 37.703 27.176 12.61 9.004 24.88 18.477 37.475 27.493 12.309 8.81 25.522 16.363 38.469 24.185 6.772 4.093 13.58 8.126 20.384 12.166 5.502 3.267 11.473 8.344 17.996 8.757 5.877.372 11.45 2.535 14.964-3.855 2.666-4.85 1.562-11.524-.773-16.236-2.85-5.752-7.307-11.04-10.888-16.363-4.119-6.12-7.941-12.417-12.006-18.57-3.897-5.898-8.229-11.342-12.577-16.9-4.408-5.637-7.753-11.989-11.682-17.956-8.397-12.757-17.03-25.283-24.992-38.325-18.258-29.912-34.61-60.791-50.236-92.134-1.376-2.762-33.498-59.664-32.6-60.155m-25.706 183.9c9.813 33.918 4.154 68.408 2.142 102.913-1.017 17.446-1.172 35.001-1.623 52.471-.22 8.492-.204 16.991.148 25.48.178 4.27.49 8.526.794 12.788.269 3.769-.742 7.936-.267 11.572.61 4.658 9.857 5.572 7.016 11.55-1.906 4.011-8.581 4.623-12.157 6.314 1.59 1.841 4.077 4.596 6.729 4.77 2.388.155 4.233-1.916 6.374-2.7 1.9-.695 4.516-1.37 5.716.85 1.257 2.323-1.375 4.905-2.416 6.705 3.54.685 5.987-1.428 9.18-1.234 3.359.204 3.511 3.51 5.719 5.422 2.524 2.187 6.932 2.657 10.044 3.577 3.621 1.07 7.26 2.398 10.557 4.256 5.895 3.321 10.958 9.596 13.137 16.018 2.257 6.656-1.268 12.416-6.52 16.5-1.956 1.522-4.76 3.29-7.355 2.47-2.966-.938-3.43-3.351-7.043-3.172-3.246.16-6.327 1.457-9.59 1.623-4.796.245-9.587-.629-14.388-.445-19.374.744-38.75.91-58.091-.953-5.005-.482-9.91-.876-14.843-1.034-3.836-.122-4.157-2.983-4.807-6.575-1.57-8.674 1.902-17.214.183-25.643.114.556-2.602-.89-2.929-1.166-1.994-1.678-2.66-4.062-3.253-6.54-1.582-6.597-1.566-13.319-1.077-20.047 1.112-15.272 3.953-30.402 3.72-45.754-.117-7.738.117-15.458.12-23.193.001-7.105.644-14.117.704-21.173.131-15.47 1.76-30.767 2.214-46.22-3.22 3.132-4.928 7.5-6.973 11.409-2.516 4.806-5.322 9.563-8.395 14.035-6.344 9.236-14.856 16.753-23.674 23.567-16.828 13.003-35.11 23.074-55.727 28.589-22.32 5.97-44.89 10-67.9 12.265-5.324.524-10.707.808-16.042.29-3.494-.34-9.173-3.163-12.493-1.73-3.773 1.627-4.532 5.542-9.48 4.444-1.887-.419-3.254-1.68-4.907-2.53-2.431-1.25-2.528-.387-4.849-.228-2.588.178-4.14-1.115-6.395.969-1.915 1.77-1.73 3.009.02 4.665 2.459 2.328 6.395 2.718 8.856 5.149 2.395 2.364 1.966 5.27-1.733 5.305-3.722.036-7.03-2.614-10.667-2.959.775 10.76 4.013 22.78.423 33.338-1.666 4.897-5.24 8.052-10.568 8.018-8.918-.057-16.74-8.26-22.11-14.65-2.97-3.533-5.377-7.502-8.243-11.122-2.93-3.7-6.074-7.42-7.752-11.896-1.785-4.761-1.264-9.539-.266-14.426 1.235-6.05 2.383-12.16 3.876-18.153 2.895-11.62 8.718-22.226 11.658-33.81 1.112-4.383 1.098-9.526 3.905-13.284 2.971-3.98 7.594-4.235 12.18-3.98 5.674.315 11.345.943 16.99 1.585 3.565.405 11.376 2.976 14.277.785.999-.754 1-2.731 2.169-3.413 1.126-.658 2.944-.186 4.175-.094 6.095.452 12.243 1.001 18.35 1.18 22.7.663 46.654-2.875 66.921-13.42 9.405-4.894 16.57-12.598 24.129-19.874 7.433-7.155 13.911-14.856 15.911-25.243 1.826-9.483 1.135-20.824-1.898-30.003-2.954-8.942-13.439-14.357-21.07-18.766-10.582-6.114-21.816-11.18-33.217-15.57-1.81-.696-4.01-1.583-6-1.227-2.44.437-4.08 2.551-6.3 3.485-2.64 1.11-5.876 1.115-8.661 1.763-2.7.628-5.332 1.492-8.082 1.907-8.661 1.306-20.832.263-27.99-5.27-11.7-9.04-4.63-21.838-.872-32.844-3.974-.134-7.283.795-11.076-.905-3.78-1.695-6.734-4.695-8.457-8.453-3.134-6.838-1.324-14.695-.399-21.825.418-3.224.896-6.423 2.125-9.451.953-2.345 2.517-4.58 3.095-7.06.636-2.732-.189-2.89-2.467-4.197-3.513-2.014-6.04-4.33-8.19-7.865-4.212-6.923-4.316-14.48-.866-21.763 1.397-2.947 4.73-7 4.35-10.442-.326-2.962-3.678-5.269-5.652-7.208-6.096-5.989-12.577-11.518-19.337-16.742-3.16-2.442-6.64-4.658-9.51-7.432-2.104-2.032-4.241-6.453-7.118-7.522-2.88-1.07-4.798 2.147-6.804 3.871-3.127 2.687-6.124 5.779-9.532 8.108-6.112 4.178-13.69 3.396-20.593 2.062-7.21-1.395-13.897-3.85-20.045-7.901-2.442-1.61-5.295-4.879-8.302-5.14-3.212-.28-6.702 2.913-8.998 4.83-5.993 5.005-7.792 12.779-11.283 19.503-3.898 7.509-5.554 15.303-4.493 23.744.954 7.594 3.879 13.332 8.23 19.466.9 1.27 3.007 3.666 1.467 5.069-1.884 1.717-5.744-1.726-7.01-2.838-12.564-11.05-19.705-27.702-15.626-44.371 2.189-8.95 6.472-17.231 11.446-24.932 2.115-3.276 4.178-6.551 7.856-8.222 4.187-1.901 8.931-1.675 13.403-2.13-3.093-15.143-4.061-31.62 5.444-44.817 7.294-10.127 22.232-18.988 34.07-10.776-.485-11.163-2.076-21.764.895-32.756a80.325 80.325 0 015.397-14.303c2.196-4.492 5.229-8.302 7.003-12.978 7-18.446 20.43-34.923 34.776-48.162 14.501-13.382 28.73-29.708 46.996-38.08 19.056-8.736 38.463-16.586 59.125-20.555 21.445-4.12 43.488-4.966 65.092-1.065 18.938 3.42 36.465 14.918 50.795 27.314 16.352 14.145 26.909 31.197 35.26 50.95 1.834 4.34 3.603 8.715 5.853 12.862 2.496 4.601 5.702 8.88 7.538 13.817 1.637 4.403 1.913 9.18-1.003 13.114-2.05 2.766-6.256 3.39-8.048 5.92-.905 1.276-.814 2.49 1.175 2.87 2.054.392 3.033-1.899 4.51-2.818 3.676-2.288 8.863-.338 12.58.961 8.812 3.081 15.71 8.615 20.984 16.285 5.047 7.341 8.399 15.68 11.73 23.89 2.104 5.179 4.105 10.324 5.263 15.81.435 2.065 1.042 7.661-2.22 5.209-1.323-.994-3.213 6.55-2.857 7.751 1.241 4.178 5.665 8.095 8.268 11.478 6.122 7.952 10.222 16.86 14.54 25.854 9.354 19.476 19.77 38.383 29.777 57.522 20.379 38.975 42.65 76.453 66.01 113.707a1487.464 1487.464 0 0035.878 54.532c5.46 7.913 10.936 15.831 16.276 23.825 4.539 6.793 9.018 14.357 7.85 22.835-1.069 7.763-5.681 13.998-13.14 16.537-3.995 1.36-8.74 2.93-13.017 2.511-4.677-.457-8.804-3.586-12.702-5.935a59013.895 59013.895 0 00-53.76-32.36c-20.05-12.053-38.386-26.364-57.514-39.765-9.733-6.818-19.769-12.963-29.91-19.135-2.284-1.39-12.645-11.348-14.842-9.989"/><path d="M439.33 499.383c-4.896 7.21-10.046 13.986-16.94 19.457-7.26 5.763-14.855 10.432-22.963 14.904-14.3 7.886-33.466 14.87-50.074 11.295-4.723-1.016-12.279-5.149-8.173-11.05 2.064-2.964 6.491-2.19 9.625-2.028 5.049.264 9.464.551 14.302-1.147 8.889-3.123 17.84-6.068 26.519-9.743 8.407-3.56 15.78-8.444 23.493-13.24 7.234-4.5 12.752-9.885 19.107-15.324 1.74-1.49 4.732-4.096 6.378-1.2 1.19 2.094-.621 6.03-1.273 8.076M637.212 153.069c-.547 3.123-2.027 9.337-6.421 8.488-5.606-1.082-2.844-12.056-2.93-15.781-.372-16.232-5.664-31.84-13.501-45.913-3.897-6.997-8.697-13.467-12.238-20.664-.688-1.398-2.776-4.866-1.259-6.383 1.822-1.822 5.313.927 6.597 2.227 4.962 5.028 8.915 12.565 12.745 18.48 5.115 7.898 9.633 16.24 12.877 25.096 3.917 10.697 6.117 23.104 4.13 34.45zM647.7 101.161c.523 2.815 3.085 10.474-1.484 11.153-5.179.77-6.788-11.991-8.226-15.372-.758-1.782-4.798-9.632-2.692-11.34 4.385-3.558 11.362 13.294 12.401 15.56M403.948 480.991c-4.916 4.479-10.623 4.216-16.828 3.79-3.151-.217-10.448-2.083-5.377-5.99 2.649-2.042 23.432-3.446 22.205 2.2M787 563c.35-.695 3.3-4.031 3.935-2.682.6 1.272-3.156 2.644-3.935 2.682M396 315.392c-.605 1.247-3.13.158-4 .347 1.182-2.53 2.587-1.989 4-.347M586 183l-.787 3-1.213-2.248 2-.752M590.828 371.935c6.309.636 12.639.958 18.973 1.153 5.347.164 7.543-.847 8.226-6.404.809-6.588 1.085-13.235 1.894-19.826.367-2.994 3.271-8.977-.227-10.58-2.932-1.343-7.505.58-10.576.807-3.42.252-8.583-.791-11.607 1.237-3.233 2.168-2.53 9.76-3.08 13.323-1.05 6.793-2.316 13.54-3.603 20.29m-3.01-31.997c-5.718.432-11.455.773-17.157 1.382-2.538.272-7.674 1.527-9.813-.32-5.021-4.333 13.744-5.854 15.873-6.196 3.588-.576 9.728.189 12.028-3.198 2.275-3.35 1.7-8.979 2.288-12.868.885-5.853 1.897-11.698 2.488-17.59.198-1.98-.085-8.52 2.006-9.492 4.806-2.234 3.296 20.787 3.217 22.515-.135 2.971-.284 5.956-.698 8.902-.233 1.66-1.054 3.907-.548 5.575 1.45 4.783 9.681 2.025 13.43 1.643 4.203-.428 10.692 1.2 12.083-3.985 1.748-6.516 1.494-13.916 2.142-20.62.179-1.854.647-15.7 4.064-14.627 3.815 1.199 2.326 12.77 2.291 15.748-.04 3.362-.026 6.726-.254 10.082-.204 3.015-1.054 6.71-.425 9.697 1.103 5.237 7.312 2.452 9.114 6.618 1.712 3.959-7.622.855-9.365 2.215-2.603 2.031-1.977 10.517-2.349 13.488-.816 6.527-2.383 13.304-2.893 19.811-.401 5.137 3.728 4.455 7.93 4.083 3.604-.319 7.563-1.175 11.175-.694 2.902.385 6.957 3.059 2.732 4.838-6.606 2.783-20.057-2.902-23.376 5.55-.626 1.593-3.539 20.081-7.2 10.955-1.53-3.815 2.217-9.8-1.778-12.723-1.385-1.014-3.448-.835-5.055-.947-3.957-.276-7.94-.37-11.904-.452-3.953-.082-7.505-.878-9.032 3.452-1.19 3.374-1.057 7.15-2.007 10.602-.713 2.588-3.053 7.118-5.48 2.884-1.594-2.78-.374-7.64-.059-10.664.157-1.514 1.06-4.647-.09-5.92-1.232-1.364-4.532-.625-6.092-.502-4.503.357-12.89 2.524-16.336-1.56-2.883-3.417 3.111-3.482 5.468-3.713 2.428-.238 4.857-.458 7.283-.713 2.671-.282 6.207.094 8.721-.743 4.222-1.406 3.92-7.146 4.198-10.869.543-7.273 2.179-14.457 3.38-21.644M662 355.47c-.34 4.2-.796 8.908-2.152 12.899-1.026 3.016-3.097 3.933-3.803.092-.448-2.435 2.527-16.153 5.955-12.99M395.428 327.822c-1.684-1.209-9.659-7.568-3.895-7.82 2.943-.128 9.284 4.713 9.466 7.399.046.678-1.404 1.029-1.325 1.685.15 1.249 2 1.84 2.595 2.833 1.313 2.19.768 6.517-.928 8.599-3.868 4.748-8.163-3.29-5.169-4.867-.667.351-9.621-4.2-9.957-5.228-1.842-5.633 8.76-.326 9.213-2.601M409.484 349.988c-2.045.064-6.153-.078-7.685-1.538-2.848-2.715 2.707-3.075 4.332-4.34 2.278-1.771 2.725-7.533 6.301-3.968 3.547 3.537.428 7.65-2.948 9.846M380 335.026c3.698-.542 11.925 7.43 7.933 7.96-2.642.35-7.356-5.83-7.933-7.96"/></g></g></svg>