<svg width="1024" height="768" xmlns="http://www.w3.org/2000/svg"><g fill="none" fill-rule="evenodd"><path fill="#FF5678" d="M218 458.457l2.613 32.775 49.655 11.798 37.895 17.043 30.054 26.22 14.374-11.8 18.294-40.64 20.907-3.932 75.79 7.866 26.134 7.865-9.147 44.574L475.422 583 627 573.823l-5.227-76.036-31.36-69.482L466.274 368l-92.777 11.799-65.335 72.103-28.748 15.732-50.961-2.622"/><path d="M843.006 157.21c10.213 12.415-4.833 29.97-13.365 38.633-4.14 4.205-7.573 9.066-11.62 13.376-3.999 4.259-9.018 7.611-12.61 11.723-3.77 4.318-8.121 9.044-11.274 13.901-1.995 3.078-4.955 6.515-5.946 10.087-1.424 5.136-.234 2.17 1.649 5.073 1.923 2.966 2.57 3.137 3.224 7.27.633 4.02 1.534 6.96 3.705 10.393 3.576 5.655 7.438 10.972 9.96 17.224 3.353 8.316 5.725 16.758 8.396 25.313 1.042 3.337 1.74 7.158 3.422 10.232 2.387 4.367 2.724 4 6.276 1.277 10.606-8.129 21.331-16.722 32.387-24.47 6.333-4.437 12.912-8.783 19.595-12.671 4.588-2.669 14.444-7.418 16.74-12.371 3.045-6.569-1.694-12.596 4.83-18.644 4.247-3.94 11.172-6.123 16.706-7.08 7.823-1.351 16.465.579 24.279 1.278 7.9.706 15.625-.063 23.373-1.68 11.86-2.473 34.643-16.163 42.33.283 3.363 7.196 1.09 15.17.456 22.546-.55 6.428-2.436 13.253-6.44 18.54-4.578 6.042-11.24 6.359-18.17 7.964-8.185 1.893-16.584 2.583-24.779 4.431-4.037.91-8.019 1.353-12.164 1.544-3.688.171-9.009-1.324-12.246-.852-3.07.447-2.021 2.385-4.177 3.728-.875.545-2.657.154-3.203.594-1.498 1.205-1.932 2.254-3.025 4.437-3.471 6.933-8.722 13.69-13.186 20.042-3.759 5.35-8.114 11.902-12.536 16.676-9.376 10.124-18.48 21.278-27.734 31.856-4.708 5.382-10.354 11.108-15.825 15.734-1.688 1.428-5.1 2.713-5.964 4.713-1.23 2.85 2.118 9.123 2.9 11.988 1.858 6.812 2.11 13.847 4.081 20.555 1.887 6.416 2.572 13.411 2.99 20.099.947 15.116 3.012 29.452 2.528 44.577-.42 13.043-.897 25.551-5.426 38.358-4.123 11.656-16.474 24.346-27.96 28.64-6.838 2.558-13.19 4.882-20.07 6.269-6.796 1.37-13.956 2.771-20.703 4.7a216.01 216.01 0 01-38.713 7.297c-16.64 1.567-33.999 1.717-50.596 1.14-7.568-.262-15.347-.278-22.816-.255-7.741.023-15.033 1.548-22.77 2.36-27.305 2.863-56.16.562-83.45 3.363-13.488 1.384-26.955 4.048-40.677 4.208-12.286.141-24.742-.67-36.756-.723-3.81-.017-7.13.288-10.937-.587-2.008-.461-4.83-2.257-6.858-1.222-1.77.903-3.106 4.713-4.204 6.335-2.399 3.548-5.322 6.397-8.408 9.34-12.252 11.676-24.393 15.609-40.472 19.888-7.382 1.965-11.026 2.992-17.224 7.488-5.048 3.662-10.157 6.293-15.968 8.452-11.398 4.234-24.84.96-35.552-2.715-5.187-1.778-10.637-3.396-15.937-5.508-7.218-2.875-13.176-7.652-20.29-10.59.816 7.59-7.417 10.14-9.915 15.241-1.613 3.296-.635 8.471-2.356 12.197-1.596 3.456-4.063 6.723-7.91 7.628-5.244 1.23-14.617-4.602-18.3-8.005-2.044-1.89-3.87-6.922-6.374-7.76-3.265-1.093-9.251 3.738-12.342 4.828-14.79 5.221-29.779 7.684-45.66 5.604-16.091-2.108-30.842-7.821-45.932-13.24-29.553-10.61-55.277-28.079-78.419-49.112-1.287-1.171-3.155-2.214-4.043-3.748-.776-1.34-.708-4.503-1.214-5.25-1.508-2.226-3.767-1.832-6.595-2.045-8.737-.66-15.677-2.77-22.45-8.625-10.658-9.216-14.601-30.703 1.738-36.41a24.719 24.719 0 0113.092-.85c1.78.37 8.405 4.385 10.097 4.116 2.565-.408 2.067-3.71 2.748-5.475 1.729-4.47 4.161-8.407 7.093-12.201 4.874-6.307 10.813-12.647 16.908-17.78 6.62-5.577 13.91-8.052 21.793-11.14 5.31-2.081 15.675-5.653 21.3-3.792 7.323 2.424 3.738 10.43-.877 13.229-6.592 4-14.502 5.639-21.182 9.686-7.371 4.467-14.104 10.585-20.85 15.954-5.429 4.32-10.133 9.653-15.648 13.796-1.462 1.097-3.85 3.018-4.304 3.625-.158.21.037 1.918-.687 2.678-3.208 3.368-2.457 2.987-7.288 1.806-5.695-1.393-19.29-4.544-23.13 2.517-3.455 6.354 10.69 12.08 15.333 14.018 6.818 2.844 8.411 5.7 13.282 11.12 4.99 5.556 13.28 9.332 19.53 13.473 13.512 8.95 28.7 15.3 43.17 22.411 14.08 6.919 29.218 11.9 43.89 16.74 8.858 2.922 19.474 6.058 28.771 6.958 9.368.908 18.153-.62 27.344-2.407 3.675-.715 6.45-1.263 10.293-2.618 1.712-.604 4.505-.693 5.864-1.749 2.107-1.637 1.231-2.945 1.604-5.742 1.632-12.264 10.14 1.427 13.905 5.51 2.905 3.15 5.765 7.024 9.59 9.021 4.792 2.5 5.624 1.322 7.195-2.802 2.94-7.722 4.046-16.5 15.156-15.365-8.772-7.505-17.132-13.882-24.64-22.9-7.408-8.898-14.334-18.46-21.438-27.604-5.823-7.495-10.894-17.838-18.452-23.75-2.39-1.87-9.652-6.175-12.417-6.085-4.138.134-7.812 6.895-12.269 7.457-4.923.622-7.19-1.097-8.596-5.094-1.458-4.147 2.028-8.92.85-11.935-.328-.84-2.423-1.844-3.07-3.062-.975-1.83-1.045-4.237-.754-6.263.435-3.024 1.504-4.258 1.276-7.3-.266-3.535-1.815-6.12-.595-9.818 1.281-3.884 5.223-6.011 7.683-8.88 3.723-4.342 1.82-7.615.327-13.193-3.198-11.935-6.928-23.734-10.174-35.662-7.464 2.362-14.762 5.04-22.266 7.24-7.217 2.119-16.148 4.02-22.845 7.36-4.024 2.007-2.906.163-2.608 4.62.19 2.886 1.41 6.112 1.976 8.957 1.046 5.256 1.502 18.82 5.618 21.33 2.493 1.521 6.503-.689 9.244 2.383 2.308 2.582 1.616 6.34 3.005 9.21.863 1.786 2.533 2.465 3.572 4.106 2.17 3.429 1.94 6.312 2.322 10.156.24 2.419-.132 9.667 1.072 11.547 1.605 2.508 4.787 2.073 7.47 2.855 6.76 1.968 12.987 5.392 18.727 9.385 2.98 3.643 24.303 24.976 15.042 27.69-4.471 1.311-12.383-8.763-15.602-11.502-4.988-4.243-10.213-7.031-16.296-9.372-14.846-5.712-28.278-10.846-44.445-8.474-6.931 1.016-15.35 4.086-22.314 3.41-7.007-.68-5.192-6.93-.81-10.419 3.918-3.118 9.371-2.24 11.09-7.47 1.736-5.282-.127-11.958 2.657-17.251 2.378-4.52 7.983-9.212 12.31-11.831 1.886-1.141 5.12-1.939 6.106-3.62.808-1.38-2.523-9.291-2.985-10.935-2.261-8.056-4.726-16.12-6.641-24.263-1.776-7.547-2.238-11.46 5.712-14.198 12.132-4.182 24.853-6.138 36.99-9.982-2.15-5.606-8.876-.89-13.707-1.084-5.916-.238-12.763-2.185-18.398-4.003-12.792-4.128-21.496-14.422-23.473-27.695-.435-2.911.935-8.75-.125-11.325-1-2.432-3.828-3.615-5.895-5.348-5.327-4.464-10.045-10.594-12.919-16.938-2.88-6.358-3.081-13.5-1.407-20.21.921-3.697 1.442-4.205.14-7.701-1.51-4.044-3.97-7.644-5.363-11.8-2.28-6.807-3.522-14.145-3.398-21.333.14-8.063 3.375-11.68 5.517-18.79 1.691-5.612-.616-13.369-.23-19.596.495-7.968 2.535-14.37 6.056-21.462 5.41-10.897 13.977-22.578 25.128-28.292 2.206-1.13 5.83-1.197 7.8-2.51 2.448-1.633 2.64-4.039 3.598-6.899 2.286-6.819 5.14-12.343 10.083-17.557 16.032-16.907 44.124-22.895 66.653-21.468 4.046.257 7.903 2.172 11.737 1.047 2.657-.78 5.472-3.548 8.211-4.695 3.467-1.45 6.94-2.298 10.67-2.67 7.366-.734 13.357.042 20.146 2.53 2.563.939 5.017 1.965 7.544 2.984 3.988 1.612 3.761.844 7.512.097 7.476-1.489 11.771-.387 18.395 2.803 1.765.85 4.557 1.481 6.074 2.672 2.15 1.687 3.026 6.814 5.417 7.77 1.327.532 5.429-1.424 7.14-1.702 3.018-.493 5.974-.06 8.977-.092 5.317-.057 10.938.14 15.793 2.654 3.657 1.893 8.058 5.544 11.207 7.976 4.357 3.364 7.08 9.725 12.52 11.487 2.13.69 4.436-.008 6.611.58 2.836.766 5.56 2.82 7.856 4.634 3.95 3.12 7.292 10.372 11.317 11.64 2.685.847 6.86-.037 9.934.84 3.857 1.1 7.054 2.695 9.913 5.613 5.454 5.568 6.994 13.797 7.228 21.346.063 2.035-1.192 7.772.027 9.578 1.083 1.602 5.161 2.526 6.822 4.17 5.191 5.14 7.536 13.706 8.06 20.748.601 8.034-1.473 13.697-2.901 21.386-.89 4.792-2.04 1.722 2.004 4.545 2.777 1.938 4.695 3.294 6.495 6.336 3.765 6.36 4.712 13.86 4.09 21.11-.777 9.044-5.363 15.785-7.426 24.343 9.505 0 19.743 2.512 29.029 4.264 3.425.647 6.08 2.53 9.12 4.041 2.625 1.303 4.582 1.455 7.058 2.319 5.992 2.09 4.834 1.74 9.002-2.536 16.606-17.034 40.243-27.318 64.079-26.983 13.295.185 26.156 1.94 38.585 6.726 5.152 1.983 10.878 4.121 15.45 7.231 5.293 3.605 6.08 3.563 13.08 3.71 25.345.525 49.939 14.138 68.384 30.637 1.648-11.067 19.622-17.703 28.326-22.29 2.974-1.567 5.707-2.384 7.17-5.32 1.37-2.75 1.289-8.403 2.204-11.64 1.68-5.945 3.622-13.22 3.47-19.489-.434-18.151-4.635-36.22-5.179-54.413-.137-4.569-.655-9.697-.048-14.221.49-3.645 2.153-5.918-.24-9.292-4.54-6.406-12.913-8.005-15.728-16.437-4.537-13.588 3.257-27.483 13.897-35.565 6.127-4.653 12.113-5.638 17.024-12.161 4.422-5.877 8.16-12.827 13.2-18.17 4.228-4.479 8.078-10.48 12.923-14.207 4.967-3.822 12.26-6.405 18.19-8.22 14.24-4.36 31.724-3.32 41.743 8.858zM397.94 498.557c-3.312.141-6.645.514-9.964.51-2.018-.003-6.71-1.093-8.528-.325-3.635 1.539-6.576 9.955-8.275 13.314-5.503 10.89-9.836 22.306-15.205 33.237-2.792 5.686-6.962 9.426-13.552 9.517-7.383.102-10.857-4.629-15.543-9.483-9.343-9.683-21.92-18.006-33.517-24.74-12.527-7.273-27.464-14.32-41.726-16.889-9.499-1.71-31.259-9.084-37.037 2.83 2.953-.395 14.224-2.119 14.702 2.876.359 3.748-13.506 4.389-15.22 10.266 3.626-.282 16.14-3.776 17.02 1.613.468 2.864-4.761 4.307-6.6 5.273-3.646 1.917-5.84 3.908-8.71 6.79 4.427 0 8.791-3.76 12.995-3.368 1.734.162 3.82 2.754 5.396 3.545 2.238 1.12 4.654 1.678 7.121 1.984 5.373.665 8.625-.85 12.908 2.65 3.847 3.14 7.846 7.289 11.39 10.786 7.561 7.467 13.786 16.943 20.274 25.333 8.01 10.359 16.327 18.582 26.982 26.341 8.673 6.314 17.464 10.403 27.29 15.052 9.641 4.56 21.766 9.85 32.703 10.1 8.724.202 19.628-2.597 27.568-6.32 4.618-2.166 6.297-2.164 10.917-3.021 7.172-1.33 15.473-5.18 22.112-8.2 20.847-9.486 34.058-30.159 43.459-50.394 5.35-11.516 8.692-22.769 10.922-35.229 1.214-6.788 2.273-8.38-4.34-11.188-6.679-2.835-13.898-4.587-20.85-6.59-20.392-5.872-43.635-7.167-64.692-6.27zm49.815-122.83c-2.08.937-3.186 10.94-4.12 13.169-4.167 9.944-11.557 16.15-22.396 17.184-3.365.322-8.852-2.742-11.264-1.294-3.229 1.94-3.812 11.21-7.286 14.25-3.199 2.802-9.863 5.762-13.965 6.839-3.167.83-6.308.602-9.464-.13-1.8-.417-5.234-2.641-6.997-1.802-3.001 1.43-4.415 9.043-7.841 11.625-5.01 3.776-12.965 6.572-19.097 6.502-6.324-.073-13.948-5.07-19.579-3.874-6.684 1.42-5.805 7.638-8.723 12.498-6.198 10.322-13.24 19.213-24.382 24.141-12.052 5.33-29.328 6.008-41.968 3.296-6.872-1.474-13.768-3.558-19.567-7.497-4.62-3.14-8.09-7.32-12.368-10.865l-.7-.568.036.126c.095.33.19.653.29.966 2.037 6.498 2.942 18.028 6.99 23.327 3.624 4.743 16.203 5.008 22.26 5.646 16.23 1.71 30.186 5.51 44.503 13.652 13.704 7.793 26.22 17.224 38.084 27.388 2.438 2.087 4.386 5.434 7.334 6.777 4.815 2.193 4.426-.367 5.699-4.655 2.612-8.794 5.382-17.481 9.363-25.77 1.704-3.554 5.583-7.956 6.415-11.73.796-3.62-.84-7.569-.284-11.455 1.404-9.82 5.836-18.191 11.392-26.132 3.856-5.511 15.395-14.895 13.921-1.023-1.089 10.243-8.567 19.318-10.407 29.383 5.67-1.057 9.23-.749 14.334-.426 6.966.44 14.887-2.286 22.067-2.31 13.766-.043 27.326.855 40.857 3.308 6.267 1.137 12.234 2.422 18.276 4.567 4.747 1.684 11.06 7.05 16.117 7.46 3.667.296 2.388.777 3.386-2.352.927-2.902-.07-8.125-.255-11.17-.42-6.891-2.072-13.598-2.928-20.444-.367-2.938-3.873-15.183-.174-17.557 5.661-3.632 8.027 10.619 8.748 13.171 3.692 13.085 6.067 25.976 5.957 39.657-.097 11.831-.883 23.204-3.096 34.966-1.308 6.948-3.707 13.62-6.4 20.136-1.417 3.432-9.735 16.44-8.579 18.732.927 1.836 15.062-1.36 17.236-1.546 7.736-.663 15.493-.202 23.239-.662 11.449-.68 22.982-.54 33.945-2.559 6.537-1.205 13.474-.053 20.005-.011 7.202.047 14.164-.619 21.414.069 5.505.52 13.767 3.427 19.078 2.219 5.438-1.236 3.832-4.876 3.87-10.412.089-13.376-1.102-28.769-4.089-41.775-1.576-6.858-3.695-13.495-4.825-20.466-1.131-6.974-1.072-14.511-3.176-21.264-3.731-11.982-13.988-22.382-22.484-31.236-8.744-9.112-18.47-15.727-29.196-22.262-9.117-5.553-18.75-10.768-28.629-15.112-11.855-5.214-25.317-8.43-36.303-15.294-9.143-5.713-22.368-11.346-32.915-13.99-1.67-.42-10.179-3.941-11.359-3.41zm325.653-110.734c-7.606 1.07-21.826-2.646-21.82 7.842.004 5.753 1.912 11.785 2.454 17.541.639 6.792.197 13.627 1.231 20.393 1.675 10.952 4.132 21.066 3.31 32.318-.897 12.232-3.446 23.985-3.208 36.391.225 11.807-.411 23.191 5.199 34.025 2.367 4.575 4.288 9.949 6.892 14.229 3.053 5.016 5.696 6.485 11.152 8.505 3.417 1.265 11.83 2.912 14.043 6.322 3.196 4.921-1.071 6.912-5.274 6.745-12.98-.517-26.308-6.309-38.477-10.54-5.726-1.991-11.237-4.499-16.864-6.672-4.497-1.737-8.163-2.337-12.252-5.3-9.966-7.22-17.658-17.2-27.485-24.606-18.593-14.012-40.884-22.377-64.235-24.859-6.009-.639-10.66-.352-16.678.158-3.33.282-6.626.373-9.922.984-1.904.354-9.064 3.756-10.55 3.05-9.66-4.593 17.693-18.573 20.769-19.338-3.886-2.738-11.958-2.266-16.62-2.875-5.953-.779-11.74-1.538-17.75-1.21-8.403.46-17.34.212-25.588 2.026-10.333 2.271-20.118 5.76-29.456 10.654-3.117 1.633-7.503 3.62-7.473 8.173.028 4.279 1.731 3.578 5.897 4.526 11.225 2.555 21.612 9.994 31.611 15.662 10.633 6.025 21.223 12.794 31.089 20.014 18.914 13.841 29.709 33.754 38.109 55.4 4.345 11.196 7.495 24.27 8.802 36.202 1.456 13.275.242 26.627 1.28 39.888.245 3.134.664 15.64 3.029 17.588 1.793 1.478 10.696-1.164 13.206-1.337 10.49-.722 21.044-.65 31.335-1.244 21.75-1.253 44.047.496 65.995-.794 11.041-.65 21.729-2.203 32.556-4.43 10.064-2.071 22.604-2.318 31.783-7.101 17.671-9.207 28.444-31.404 29.22-50.198.84-20.374-.552-42.544-4.83-62.84-2.243-10.643-4.188-20.771-6.828-31.288-2.955-11.774-6.272-23.497-9.515-35.125-5.587-20.017-14.282-38.665-18.444-59.181-2.29-11.285-5.535-23.084-8.922-34.098-1.248-4.06-3.709-11.772-6.614-14.856-3.052-3.239-5.615-1.381-10.157-.744zM153.37 508.78c-4.581 2.93-7.884 9.522-7.676 14.956 0 7.172 5.954 4.116 11.564 4.377 3.415.158 16.046 3.662 18.267.28 2.651-4.04-5.323-2.237-6.333-4.404-2.04-4.382 7.317-6.232 6.173-10.03-1.143-3.797-10.65 4.966-12.689.557-1.886-4.082 7.718-7.612 6.244-10.423-1.251-2.383-13.931 3.649-15.55 4.687zm19.894-37.37c-.024 3.057-1.077 7.123-4.878 6.5-4.746-.78-6.184-9.891-6.618-13.34 3.04-11.35 11.547-.123 11.496 6.84zm137.803-97.565c-5.488.86-6.106 3.317-8.672 7.088-1.171-.933-1.897-2.171-2.176-3.713-12.974 5.844-26.472 10.41-40.544 12.571-15.679 2.409-32.034-1.236-47.965-2.721-2.061-.192-8.39-2.74-10.07-1.729-1.39.838-1.367 7.869-1.48 9.228-.775 9.263.992 17.447 2.352 26.513.363 2.414.007 7.642 1.91 9.701 1.337 1.448 3.719.922 5.413 3.108 4.568 5.9 5.993 17.326 8.096 24.934l.052.185.01-.136c.651-7.756 6.715-3.772 11.226-1.738 6.783 3.058 13.89 4.693 21.228 5.721 5.9.828 12.594 2.805 18.646 2.489 6.357-.33 14.176-2.848 20.365-4.66 5.863-1.714 9.099-5.426 13.146-10.205 3.866-4.565 8.072-7.691 12.245-11.765 10.51-10.262 7.633-31.524-1.497-41.567 7.387-3.791 20.197-12.126 8.962-20.579-2.903-2.186-7.746-3.273-11.247-2.725zm-93.084 85.165l-.01.14.064.051-.054-.19zm35.99-17.616c2.913.22 5.006 2.411 4.24 5.43-.969 3.814-7.599 6.203-10.914 6.414-8.785 1.051-.475-12.384 6.675-11.844zm-27.744-14.674c.315 2.214.003 3.594 1.922 4.313 1.467.55 4.24-.581 6.045.183 1.8.765 1.858 1.227 2.964 3.023-1.253 3.918-6.998 8.35-11.608 5.993-5.733-2.93-6.267-14.487-4.695-19.419 2.663-8.359 4.902 2.605 5.372 5.907zm509.75-44.138c-2.393.87-4.502 3.333-6.64 4.674-5.69 3.566-11.914 5.46-17.364 9.365 3.892 4.199 5.93 9.893 9.73 13.934 2.38 2.529 5.271 2.81 8.132 4.182 8.358 4.011 18.196 9.653 27.429 11.57-5.407-6.325-8.836-12.048-12.047-19.734-1.147-2.748-2.587-5.655-3.447-8.51-1.232-4.087-.569-8.413-1.613-12.448-1.126-4.354.427-4.706-4.18-3.033zm-525.52 23.947c2.43 2.87 4.3 9.338 4.506 13.003-2.565 12.283-11.15-4.664-10.89-10.165.244-5.074 2.907-6.939 6.384-2.838zm23.26-6.721c4.166 3.553 5.527 9.488 5.959 14.392.47 5.315-.744 7.574-6.038 4.158-4.635-2.991-6.954-10.956-7.194-15.623 0-5.319 3.236-6.37 7.273-2.927zm83.813-15.214c1.04 5.547-11.243 11.248-9.237 2.562-.402-5.543 8.132-8.437 9.237-2.562zm579.946-100.376c-9.277 11.327-20.512 18.519-32.121 27.078-10.284 7.582-20.076 15.774-31.21 22.068-3.27 1.85-8.624 2.925-9.215 6.36-.555 3.229 5.438 11.901 6.823 15.403 4.677 11.808 8.129 23.925 11.784 36.11 10.897-16.985 21.887-34.252 35.243-49.61 11.787-13.552 23.878-27.733 34.182-42.337-6.237-3.799-11.404-9.038-15.486-15.072zm68.006-26.121c-10.333 3.23-22.236 5.047-33.004 3.947-4.882-.5-9.69-.915-14.619-1.22-3.69-.227-9.93-2.027-13.104.817-3.003 2.688-2.64 8.039-1.111 11.38.988 2.16 2.36 2.51 3.256 4.299.289.576-.567 1.572.176 2.927 2.042 3.73 8.99 9.963 12.734 11.862 4.802 2.437 5.52-.397 9.263-2.853 7.882-5.169 21.123-5.263 30.356-6.193.187 1.986 26.946-7.563 29.587-9.316 4.94-3.276 10.727-18.357 5.472-22.826-6.343-5.395-22.87 5.256-29.006 7.176zm-179.952-71.884c-3.252 5.183-7.578 10.748-12.382 14.626-5.426 4.38-12.469 6.08-18.672 9.076-5.619 2.713-10.613 5.432-14.12 10.667-2.427 3.621-6.873 8.703-4.846 13.37 2.075 4.774 10.246 8.122 13.796 12.272 4.888 5.712 4.895 4.59 12.217 3.012 3.657-.79 7.13-1.035 10.869-.904 1.512.052 6.616 1.534 7.957.54 1.716-1.275.029-6.565.246-8.624.331-3.131 1.444-6.362 2.499-9.314 4.183-11.72 12.136-19.45 19.87-28.336 8.295-9.535 19.662-16.228 27.837-25.808 4.514-5.289 2.459-9.028-3.735-11.504-3.148-1.258-6.836-1.252-10.066-2.255-3.34-1.036-6.315-3.078-9.894-3.118-15.207-.61-15.692 16.92-21.576 26.3z" fill="#000"/></g></svg>