<svg width="1024" height="768" xmlns="http://www.w3.org/2000/svg"><g fill="none" fill-rule="evenodd"><path d="M853.943 405.137c5.615-3.718 17.312 13.238 12.23 19.17-4.147 6.105-16.612-15.018-12.23-19.17zm-19.893-6.74c3.314 1.736 5.463 3.236 2.813 7.22-16.926 3.497-10.25-18.121-2.813-7.22zm-16.517-35.145c7.005-1.014 16.057 6.315 10.068 11.89-3.034-.42-5.782-1.454-9.444-.09-11.605 2.447-14.315-11.903-.624-11.8zm-6.757 30.15c4.571 6.584 4.127 16.607 3.42 25.517-8.576-1.914-6.988-20.083-3.42-25.517zm-30.17-24.145c-6.004-.563-11.175-8.933-5.333-14.052 6.355-3.27 18.226 3.798 18.217 11.134-.415 7.305-6.636 4.598-12.883 2.918zm-22.784-58.81c4.338 1.435 12.311 18.267 7.73 21.96-6.12 3.117-13.387-18.274-7.73-21.96zm-30.497 18.371c4.347-12.53 18.681 9.625 15.255 16.642-5.657 4.888-15.79-10.418-15.255-16.642zm4.404-42.22c6.849 9.106-4.605 14.758-11.944 17.667-16.965 4.084 5.584-23.436 11.944-17.667zm-34.76-4.996c-4.156-8.842 6.631-24.922 6.418-9.298-2.206 3.505-.99 23.692-6.417 9.298zm-16.008-20.748c-.344-8.116 7.398-11.908 6.51.275-1.458 6.556-5.547 9.218-6.51-.275zm1.539-34.78c.995 3.245 1.092 6.334-2.626 7.494-30.435 14.076-3.527-20.312 2.626-7.494zm-13.877-27.267c5.814 3.31 9.664 17.136-.86 10.606-7.285-1.96-13.355-2.987-21.524-4.682-15.82-11.752 15.259-13.903 22.384-5.924zm-34.89 143.328c-6.905-13.244 9.11-10.39 16.46-7.52 11.422 8.83-10.444 11.279-16.46 7.52zm.294-118.602c-4.373-.821-8.6-3.779-14.276-3.15-9.055-20.191 21.648-10.552 14.276 3.15zm-10.661 12.288c8.176-5.715 3.491 20.581.216 24.282-11.814 13.184-2.973-19.9-.216-24.282zm71.503 158.737c-2.51 13.89-11.34 25.145-7.823 2.611.483-8.272 10.6-16.677 7.823-2.61zM590.324 199.925c3.24-11.505 8.506-20.453 12.882-32.086 4.933 4.63 6.405 12.85 2.522 19.502-2.44 3.966-14.277 28.714-15.404 12.584zm1.554 37.683c-1.316 5.452 3.962 11.33 1.747 15.533-15.01 1.673-8.307-42.117-1.747-15.533zm-33.002-87.53c6.612.006 25.925-2.247 21.083 8.181-7.32 1.108-34.355 4.748-21.083-8.181zm3.301 24.49c4.459 2.05 11.13 9.58 7.021 14.383-6.873 1.847-13.517-10.138-7.02-14.383zm.869 87.764c-.667 3.429.881 18.792-5.821 16.647-5.304-11.828-.22-38.192 11.07-16.18-1.645-.145-3.231-.287-5.25-.467zm-3.889-33.983c1.172 2.773-3.28 9.275-5.955 4.996-2.293-3.143 2.954-13.235 5.955-4.996zm-24.28-45.93c6.497 9.445 17.657 14.275 26.227 23.334 8.545 16.31-15.712 3.248-20.186-2.595-4.085-3.488-15.327-18.04-6.04-20.739zm-18.851 75.512c6.245-6.12 20.17-18.249 13.577-.454-2.982 5.257-16.275 12.844-13.577.454zm12.054-26.695c-7.434-4.69-11.88 2.997-18.974 3.837-7.543-12.7 23.13-21.107 18.974-3.837zm-38.064-39.766c5.489 3.318 18.528 13.158 13.553 19.417-6.675-2.151-19.303-12.957-13.553-19.417zm-36.212 123.872c.513-4.492 7.514-6.157 5.18 1.23 2.09 2.744 6.685 6.164 5.498 11.45-4.427 8.126-14.579-6.207-10.678-12.68zm-2.402-35.791c11.31 4.904 2.015 10.965-6.385 11.258-5.293-6.008-1.425-12.942 6.385-11.258zm1.273-116.062c-10.807-11.968 24.15-8.875 20.64 1.926-6.136-2.243-13.46.277-20.64-1.926zm387.994 194.184c-17.478-18.075-39.307-28.933-56.106-47.637-58.476-68.025-39.137-43.459-65.268-45.776-5.739-5.2.845-10.668 8.026-9.065-29.31-49.283-61.007-67.163-90.942-98.465-3.484-5.215-8.836 9.2-14.513 0-3.914-4.964 6.148-7.362 2.474-11.22-15.868-17.718-9.658-10.72-24.353-.268-4.33-5.518-.808-10.19 4.264-14.488-10.196.923-7.445-6.137-13.752-7.754-23.042 3.86-43.532 14.527-66.51 15.512-8.23 2.889-9.3 20.8-12.698 28.463-7.258 3.588-5.283-20.975-2.185-24.826-1.65-.013-7.55-5.463-14.766-4.343-80.3-2.996-93.977-12.06-63.34 36.762 3.245 9.781 16.192 2.74 21.23 10.274 1.49 4.019-2.162 4.35-6.11 3.985.538.685 1.072 1.374 1.61 2.06-9.922 8.938 9.075 17.634 13.283 26.43 4.728 6.532 6.233 20.108 15.996 13.506 1.512 5.334 8.829.429 13.73 1.387 5.332 4.266-1.971 9.52-6.914 10.224 4.245 4.088-1.98 6.92-.971 12.401 6.342 9.498 16.435 48.682-3.98 33.847-6.863-7.812 1.69-11.167 9.7-9.265.587-3.734-1.011-9.045-2.69-13.357-5.102 4.133-13.337 5.174-8.875-5.957-9.387 2.227-20.434 4.496-31.17 4.552 6.456 14.558-9.118 8.756-13.274.187-3.349-.843-10.821-1.43-15.565-1.655 3.285 12.244 11.811 27.88 15.565 41.607 4.346-4.175 12.967 2.597 8.975 6.564-4.286 1.994-7.278 3.181-8.975 3.563 4.436 12.082 4.533 84.57 8.975 65.381 1.058-8.516 11.344-17.286 6.395-22.317-10.952-8.985 3.73-14.757 7.404-4.542 8.578-10.085 21.887-16.844 27.515-30.205 5.495 3.16 8.28-1.59 11.27-8.317 2.312 4.853 11.03 4.663 13.575-1.121 2.074-4.67-1.56-6.925 4.753-9.986 6.257-3.011 3.465-10.132 7.652-16.611 3.552-2.629 5.596 6.396 3.681 9.892 2.595 1.05 6.122-4.876 8.781-1.9 15.306 4.686 32.967-1.014 48.693-3.067 6.12-1.319 20.459 24.358 25.662 31.11 14.904-20.655 18.314-5.16 6.132 5.58 10.143 11.881 23.131 28.807 33.186 42.35-1.338-8.096 11.221-20.612 12.337-11.639-8.634 12.599 5.358 31.294 11.208 41.121 3.6 5.504 6.638 11.99 8.956 18.269 10.176-3.377 23.789-9.547 33.886-16.43-5.76-3.819-.705-9.104 6.226-6.402-3.178-3.067.97-6.682-.487-11.887-3.595-8.174-10.75-11.2-18.452-13.598-13.164 15.313-33.333-8.824-3.108-4.37-5.807-7.868-15.162-21.975-24.438-25.409-9.308 2.384-20.415-6.18-7.349-10.582-9.236-9.68-2.143-12.398-6.756-18.616-3.58-4.946-11.483-9.228-13.734-16.215-.086-6.753-6.957-15.104 3.218-16.605-3.706.732-1.27-28.45 4.206-17.307 3.177 4.038-3.401 19.717 4.444 14.803 1.972 10.923 5.54 9.557 12.227 12.38 2.489 2.951 5.037 6.706 8.201 10.453 6.43-10.98 23.247-9.174 16.445 4.423-1.98-2.03-3.877-.818-7.14 1.237 21.852 22.114 35.506 45.128 53.709 58.18 18.202 13.054 32.156 28.821 51.589 40.671 7.22 20.744 3.411 26.71 25.894 31.019 4.325 7.048 5.012 13.663 12.233 10.142.866 1.513 2.77 3.081 4.496 5.647.386-5.689 13.1-25.73 14.949-11.358-4.123 5.027-8.054 14.95-12.136 20.42 3.006 6.438 8.264 14.516 9.188 23.036 9.413-7.953 20.294-19.695 29.921-26.299-.564-3.743.041-7.28 1.934-11.446 4.694 16.648 5.162 1.913 13.889 4.466 2.475 1.932 6.074.055 9.31-.41.832-3.106 3.801-7.52.02-11.613-14.055-36.708-41.873-54.511-60.456-79.576z" fill="#FF5678"/><g fill="#000"><path d="M732.822 466.013c2.268-2.008-1.322-8.441-1.325-13.198.917-16.927 13.955 20.102 25.515 17.44-4.667-5.043-6.673-17.614-13.512-13.69 6.665-4.482-1.579-16.949 6.248-22.666-4.237-1.878-12.665-14.503-16.303-7.623l-9.365-13.493c-3.921 4.625-16.903 3.675-17.034 11.155.701 3.791 6.01 8.023.812 10.996 2.475 9.154 4.194 21.255 11.222 29.583-.834-27.41 6.042-12.26 13.742 1.496zm145.218 1.947c6.068 5.629 26.144 24.122 20.8 27.572-7.384 2.309-4.601 9.22-5.487 16.751 9.9-12.826 8.994 9.634 11.803 16.147 3.067 9.423 9.512 15.021 16.448 22.864-15.07-48.328-1.784-18.907 18.283-4.06-1.466-7.295-6.794-14.415-12.573-20.374-9.393-22.224 20.187 16.501 27.397 14.072-2.76-4.459-2.472-12.477-7.677-15.935-12.265-6.745-19.583-19.518-25.978-32.953-11.286-7.093-10.963-24.707-19.916-37.236-6.878 1.11-15.724 8.782-23.1 13.152zm-490.502 73.38c1.478-9.216 3.667-19.96 5.527-29.865-3.308-19.914-5.048-38.355-6.56-59.18-5.862-35.211.889-48.33-34.048-50.505-3.998-.232-2.674 10.403-3.874 14.961-3.014 3.724-1.56 7.115-3.503 11.706-2.244 3.751 3.296 9.062 4.718 14.119 16.621 31.624 14.649 67.23 29.735 99.822.33-3.863 4.349-4.274 8.005-1.058zM632.543 155.8c-6.83-7.314-14.695-16.186-22.883-23.744-24.56-4.902-49.166 4.912-74.315 11.324-37.354 8.053-88.073 5.06-116.326-4.837-.423 20.38 16.69 36.4 27.985 53.152 27.539 35.918 61.654 77.247 50.367 122.044 70.81-54.481 116.533-11.724 167.62-42.936 2.62 3.369.866 6.396-.125 11.427 9.732 12.365 22.23 25.05 35.006 36.034 60.515 60.343 133.522 101.732 147.075 159.633 17.89-13.356 36.215-33.309 53.405-29.1-29.754-60.749-91.935-97.492-136.817-147.083-12.498-14.079-23.134-26.737-34.648-42.41-31.11-53.388-65.792-71.25-96.344-103.504zm151.364 4.031c-16.596-2.347-19.674-2.326-31.72-13.486-4.297 14.206-21.91-2.765-12.769 23.905-8.706 8.33-11.035-7.116-7.891-14.172-26.085.181-4.82 25.807-.812 38.926-6.172 8.07-14.303-5.666-15.729-12.305-10.09 3.108-20.803 4.73-31.968 7.403 82.112 73.393 26.703 59.924 72.698 36.819 2.63-2.04.225-6.91 4.8-9.78 1.811-1.092 3.636-.302 4.622 2.626 5.067 27.078 25.67 5.55 8.034-6.39.086-4.42 8.148-1.953 7.39-7.32-.115-20.531 15.787-36.314 29.45-50.649l-5.28-1.072 2.688 2.565c-4.074 2.862-8.55 1.571-12.055 3.453-.987 7.756-3.807 11.234-9.157 10.711l2.29-10.808a18.986 18.986 0 00-4.591-.426zM444.694 264.844c-7.952.94-15.973-.267-25.062-.108 22.487 49.626 16.389 76.96 20.23 115.566 7.597-29.41 32.626-38.044 42.562-63.478 7-15.716 8.269-31.46 3.004-48.726-1.022-3.451-3.356-8.453-8.114-6.502-10.399 3.809-21.09 2.828-32.62 3.248zm-4.755-12.022c11.918.904 24.71 1.549 37.811-.69-7.126-12.653-14.14-24.472-23.872-36.546-57.732-72.754-22.21-62.778-56.272-62.122 19.68 29.509 25.632 64.198 24.14 99.358h18.193zm217.909 126.405c33.716 39.463 8.15 43.88 46.217 27.798 4.07-4.749 18.6-5.055 13.084-12.542-14.68-24-33.557-42.928-53.087-64.145-27.41-36.058-15.278-35.92-36.076-31.953-11.69 2.299-22.053-.338-34.568 2.244 20.08 26.272 43.551 51.534 64.43 78.598zm49.586-201.571l2.696-.563c-8.483-28.836 17.223-28.502 35.062-31.864 1.598-3.932 2.504-7.503 8.488-7.646 15.658 9.267 11.555 12.06 32.245 14.162 5.199.823 8.522 2.329 14.73 2.27 2.058-1.606 3.82-3.941 7.332-4.352 22.386-2.022 42.725 14.166 49.51 35.452 5.25 12.847-.004 26.472-4.75 39.21 7.26 20.605 68.036 20.137 44.915 52.949 31.42 17 62.289 38.184 86.35 66.407 11.81 14.803 27.706 48.658-1.954 50.314-4.092-.196-11.025 1.98-11.104 8.331 1.096 10.68 9.384 16.39 13.296 26.967 39.66 82.102-47.99 33.422-79.53 10.993 1.15 3.419 3.004 7.963 4.149 11.962-1.052 1.912-1.773 1.792 1.16 4.775 10.452 11.963 12.045 25.917 22.734 38.18 5.47 13.049 42.98 29.198 26.235 40.868 6.362 17.263-1.982 16.428-13.958 7.36 8.492 20.221-5.407 13.322-15.987 4.084 15.952 55.995-32.065 1.303-33.328-19.64-14.783 13.394-15.926-7.115-13.665-18.416-.428-3.494 4.122-6.963-.088-9.19 5.04-6.176 1.128-16.793-4.61-23.417-5.946-14.542-22.45 11.517-33.792 8.8-10.014-12.668-19.037-30.41-29.365-45.908-6.794 24.569-27.157 34.459-41.818 8.24-8.217-21.52-5.807-44.26-21.907-62.664-19.703-27.973-45.026-49.237-69.642-73.367-27.386-27.888-11.404-30.855-34.609-17.897 25.123 34.77 65.322 60.05 82.013 101.456.677 5.206.582 9.295 4.983 13.555 4.446 9.355 12.167 12.768 20.069 18.821 6.888 6.154 10.184 17.746-3.122 16.228 4.384 11.864 15.816 20.825 19.905 33.29 5.298 18.802-25.217-3.012-29.38-8.252 1.414 14.029-4.381 14.117-11.953 2.08 1.78 23.382-16.72-3.991-19.002-11.978-4.819-10.767-3.276-21.566-9.802-31.9-2.938-5.21-16.676 3.474-21.847 3.134-6.367-.983-21.867-9.535-7.382-12.288-22.99-41.668-61.706-73.254-83.126-116.635-29.842-7.396-65.77 12.462-91.083 31.103-65.786 55.908-43.753 74.36-61.458 60.028-16.669-25.938-4.727-58.118-11.72-87.507-1.961-9.971-5.784-24.361-11.54-31.947-2.373.205-3.955.89-5.307-2.266-1.161-5.78-3.708-4.978-9.12-2.528-9.816 3.71-17.01 6.76-27.957 7.524-51.763-.45-101.666-5.905-153.828-11.27 45.493 31.6 64.827 63.478 95.527 90.098 33.32 31.808 41.2 21.982 38.8 39.067 9.136 4.529 29.662-2.397 35.079 12.61 14.911 40.07 11.381 83.919 18.386 126.453-9.094-1.44-.604 27.559-15.136 18.527-8.156 25.243-27.296-31.418-27.87-37.798-5.148-25.064-8.262-49.962-17.616-74.52-2.705 2.695-4.103 11.976-10.82 8.62-19.216-8.18-37.46-18.805-56.168-29.88-47.665-24.572-90.554-55.91-127.662-94.761-20.862-21.41-49.382-43.103-45.782-77.034 3.969-34.874 100.207-62.66 119.325-71.038 29.034-14.881 169.704-55.81 172.652-29.579 6.804 1.059 7.003-6.399 11.755-10.457 2.914-2.91 5.675.06 7.812-4.87 29.874 3.662 60.805 4.205 91.844 3.006 32.962.11 60.278-20.129 93.948-13.987 29.64 13.796 48.743 49.14 78.785 65.761 9.117-3.42 18.1-7.287 29.003-7.266z"/><path d="M126.501 525.469c-4.333 28.143-10.288 29.465-29.411 46.274-18.837 21.575-42.329 39.722-57.857 64.972 34.952-32.368 85.25-28.269 100.495-50.622 7.268-11.477 7.283-24.253 8.355-38.266 5.644-29.98-.863-17.085-21.582-22.358m-5.255-1.356c-3.305-3.834-3.9 3.307-8.136.305-2.903-13.98 1.817-29.426 2.16-44.645 5.263-51.017 14.673-100.08 37.923-146.573 77.986 69.885 70.163 37.462 47.226 91.46-10.167 14.803-14.704 30.657-20.787 48.296-6.593 18.497-15.671 34.03-13.538 55.124-.928 4.754-8.188-1.938-7.885 3.986-1.426 17.985-.607 35.43-6.32 53.326-5.462 13.42-16 22.747-31.006 25.723-31.164 10.813-60.572 19.072-85.687 43.64C1.169 659.516 54.69 593.35 63.9 588.467c32.097-36.5 52.863-42.057 57.345-64.355M439 131.347l-8-.694 8 .694M368 136.495c-1.989 1.142-3.987 1.5-6 .098 2-.034 3.999-.066 6-.098M385 137.281l-6-.562 6 .562M782 150.325c-2-.218-4-.434-6-.65l6 .65M820 149.327l-5-.654 5 .654M707 176.981l-5 .038 5-.038zM354 138.374l-5 .048c1.66-1.21 3.329-1.024 5-.048M399.176 485c-.118-1.668-.236-3.335-.352-5l.352 5M372 275.032c1.004-.022 2.007-.044 3-.064-1.008.022-2.004.044-3 .064M957 549.997c1.004 0 2.009.002 3 .006-1.006.002-2.003-.002-3-.006M311 145.677l-4 .646c1.335-.216 2.668-.432 4-.646M290 272.031c1.004-.022 2.01-.042 3-.062l-3 .062M584.343 117.582l-4.284.033c1.43-.01 2.856-.022 4.284-.033M440 251.648l5 .704-5-.704M787 159.028c-1.003-.02-2.009-.04-3-.056 1.009.022 2.005.038 3 .056M778 161.004c-2.511 5.006-9.516 3.784-3.772 11.122 5.808 4.859-1.954 7.65-6.082 4.606-7.884-7.968.42-15.93 9.854-15.728"/></g></g></svg>