<svg width="1024" height="768" xmlns="http://www.w3.org/2000/svg"><g fill="none" fill-rule="evenodd"><path d="M448.995 335.473c-9.1 6.597-7.652 19.578-4.912 29.009 4.034 13.887 12.07 26.742 21.235 37.823 16.261 19.658 43.866 41.73 69.312 24.473 22.66-15.37 36.954-46.383 41.888-72.506 1.525-8.073 3.556-20.102-3.61-26.171-10.591-8.971-29.276-7.34-42.063-6.184-8.42.76-16.546 3.341-24.868 2.13-19.335-2.818-40.854-.266-56.982 11.426" fill="#FF5678"/><g fill="#000"><path d="M841.023 438.343c-18.435 23.385-49.777 27.08-77.613 26.85-16.716-.138-33.463-1.396-49.85-4.802-8.836-1.837-17.611-4.27-26.147-7.193-5.639-1.931-14.033-2.896-16.432-8.938-6.33-15.94-1.673-35.931.933-52.111 1.326-8.23 2.322-16.509 3.611-24.745.825-5.27 1.22-11.1 3.429-16.03 2.586-5.775 5.852-4.622 11.32-3.027 7.536 2.2 15.272 3.114 23.019 4.297 18.906 2.887 35.401 8.709 52.584 16.96 16.99 8.16 33.471 16.213 48.626 27.557 7.678 5.75 14.294 11.99 20.458 19.317 4.762 5.66 11.869 14.498 6.062 21.865m-80.584 103.869c-.149 2.518-29.04-5.084-32.843-5.937-24.947-5.595-50.388-11.968-73.939-22.078-21.983-9.436-41.352-20.232-58.65-36.997-8.064-7.815-15.317-16.044-22.256-24.808-3.479-4.393-8.23-3.883-12.11-7.6-3.488-3.344-6.164-5.956-5.074-10.956 8.719 2.297 24.817 16.737 33.854 9.445 5.152-4.156-1.993-8.498-5.291-10.906-6.2-4.529-11.503-10.116-16.431-15.98 8.462 1.64 16.34 4.81 23.705 9.222 3.272 1.96 14.487 9.067 17.098 2.292 1.607-4.171-5.998-9.412-8.369-11.72-5.822-5.665-12.108-12.279-15.199-19.896 7.643-1.773 14.847 4.134 20.052 8.945 5.777 5.342 12.86 10.948 17.704 17.103 2.5 3.174 3.043 6.924 4.995 10.348 2.197 3.852 5.71 7.154 9.07 10.004 6.47 5.493 14.038 9.537 21.806 12.882 17.751 7.642 36.778 13.051 55.699 16.845 9.282 1.862 18.336 2.72 27.758 3.035 7.322.246 10.562 2.436 13.358 9.182 7.565 18.256 6.192 38.338 5.063 57.575m-217.282-139.1c-4.233 3.96-9.734 6.446-14.16 10.254-3.894 3.35-8.385 6.926-12.73 9.636-4.64 2.892-8.107.864-12.284-1.753-4.904-3.07-10.542-4.315-15.592-7.062-17.464-9.505-38.828-32.794-35.568-54.178 1.382-9.063 6.068-17.981 14.576-22.093 7.728-3.734 18.962-5.807 27.229-2.685 4.663 1.76 8 5.648 10.988 9.47 3.484 4.455 4.818 3.753 8.366-.544 6.35-7.687 16.82-14.43 27.17-14.269 5.145.082 10.255 1.166 14.889 3.301.628.29.978 1.166 1.608 1.463.774.365 2.046-.394 2.584-.053 1.356.859 2.711 3.542 3.493 4.904 3.14 5.463 8.795 16.177 3.097 20.777-.004.002.253 6.224.175 6.933-.402 3.712-1.685 6.776-3.338 10.17-4.965 10.198-12.293 18.05-20.503 25.729m8.441 86.28c-4.01 1.246-8.33-11.322-4.483-13.328 3.668-1.913 8.114 12.2 4.483 13.328m-62.988-15.027c-1.389 4.747-1.976 10.135-5.372 13.999-3.11-3.69-3.417-10.5-.4-14.293 1.721-2.164 7.291-4.894 5.772.294m128.336-83.181c-.023.12 4.825 2.439 2.46 4.974-3.232 3.463-2.787-3.277-2.46-4.974m20.035-38.692c-.056 4.8-10.218 3.641-10.146-1.187.089-5.942 10.205-3.902 10.146 1.187m-12.13-40.119c1.005-4.395 18.68-10.509 18.2-2.85-.242 3.841-20.334 12.194-18.2 2.85M443.645 461.417c-1.982 2.382-4.796 3.321-7.171 5.15-2.491 1.916-4.271 4.402-6.446 6.652-5.974 6.176-13.165 11.251-19.61 16.925-11.848 10.43-23.197 21.642-36.334 30.487-23.475 15.805-50.698 24.45-77.722 32.02-2.239.626-8.688 3.157-10.903 1.272-2.389-2.033-1.174-9.187-1.064-11.892.448-11.091 1.74-22.313 1.601-33.387-.058-4.549-1.39-11.015.984-15.177 2.65-4.648 10.048-6.008 14.625-7.757 13.91-5.317 27.31-14.285 39.598-22.592 15.105-10.212 30.36-20.593 45.905-30.125 15.23-9.34 32.028-15.593 49.016-20.927.787 1.654-7.319 6.976-8.246 7.722-4.444 3.578-9.279 7.287-12.578 12.01-2.336 3.344-4.73 10.91 1.718 11.104 3.127.094 7.748-2.93 10.583-3.908 4.682-1.616 9.507-2.75 14.405-3.488-4.21 4.636-18.483 12.964-15.886 20.674 2.52 7.482 17.092-1.249 22.109-1.249-.823 2.61-2.89 4.45-4.584 6.486M271.48 482.3c-9.333 3.282-18.898 5.148-28.53 7.267-9.182 2.02-17.668 3.542-27.072 2.36-12.983-1.633-27.351-7.011-28.997-21.764-1.952-17.48 10.393-33.543 20.993-46.084 12.901-15.258 27.388-28.899 43.087-41.25 15.683-12.34 32.61-23.218 50.343-32.402 13.49-6.987 28.727-11.23 42.992-16.472 2.714-.998 10.22-4.503 12.759-1.598 2.05 2.349-.741 6.262-1.676 8.443-1.824 4.252-2.075 8.533-2.546 13.098-2.103 20.388-4.635 40.77-5.8 61.246-.324 5.706-.895 11.676-.562 17.386.183 3.163 1.83 7.191.733 10.28-2.107 5.935-11.756 9.865-16.87 12.516-9.154 4.747-18.848 8.289-28.097 12.83-10.157 4.986-20.046 10.376-30.757 14.144m129.432-132.475c2.562-.352 6.4-1.05 8.683.61 2.978 2.164 2.197 5.175-.553 6.745-2.173 1.24-7.257 1.58-9.403.454-3.656-1.917-3.037-7.216 1.273-7.81m14.188 47.21c-2.07 3.449-9.636 5.71-8.977-.724.565-5.51 12.79-5.624 8.977.725m-2.809-97.13c3.328 1.29 9.367 2.393 10.354 6.674.919 3.984-2.857 3.72-5.582 2.624-2.24-.9-12.224-9.366-4.772-9.297m521.394 151.99c-1.943-7.565-.463-15.938-1.535-23.685-1.04-7.51-2.913-14.41-5.6-21.488-5.949-15.668-12.764-29.772-22.407-43.523-18.162-25.895-39.232-48.704-64.676-67.618-25.119-18.672-52.934-33.847-82.399-44.482-31.244-11.279-62.695-15.204-95.644-17.366-9.84-.645-19.67-1.41-29.454-2.653-7.15-.908-16.114-2.027-23.185.163-4.441 1.377-6.923 5.25-2.084 7.792 3.43 1.802 7.922 2.018 11.71 2.497-4.576 14.54-12.023 29.13-23.825 39.143-11.522 9.775-26.94 13.126-41.48 15.605-7.886 1.343-16.715 2.383-24.722 1.803-5.063-.365-9.013-2.71-11.056 2.505-1.417 3.623-2.088 7.598-3.957 2.128-2.21-6.467-3.294-6.426-10.17-8.263-14.061-3.756-30.18-7.183-42.447-15.307-12.727-8.428-17.153-22.062-24.258-34.758-1.757-3.138-7.057-9.49-4.349-13.085 2.477-3.288 10.53-2.96 14.219-3.303 3.891-.362 7.807-.377 11.712-.529 2.262-.087 6.813.84 5.903-2.539-1.374-5.093-16.085-4.44-19.74-4.523-6.793-.152-13.68.005-20.44.752-33.518 3.707-67.337 10.561-99.771 19.701-62.928 17.732-123.874 50.406-169.798 97.478-44.083 45.185-58.049 120.376-30.949 178.07 14.084 29.983 44.648 42.3 74.276 52.248 15.628 5.246 32.177 9.35 48.789 8.36 7.972-.475 15.536-2.622 23.312-4.238 3.39-.706 7.249-1.831 10.732-1.547 2.637.215 5.17 2.635 7.642 1.35 1.755-.914 2.519-3.534 4.664-4.65 2.575-1.339 5.697-1.823 8.479-2.498 7.731-1.878 15.217-4.924 22.775-7.42 7.814-2.584 15.189-5.91 22.687-9.272 3.786-1.699 12.547-8.603 15.015-3.555 1.124 2.303.646 6.747.92 9.163.48 4.226 1.043 8.443 1.66 12.651 1.358 9.264 2.984 18.49 4.65 27.705 3.008 16.625 6.883 32.541 13.363 48.18 5.174 12.488 9.716 26.642 19.324 36.576 4.194 4.336 9.917 6.287 15.932 4.925 6.843-1.55 10.249-7.766 14.402-12.791 9.14-11.06 24.228-19.532 38.161-22.583 17.062-3.735 33.681 1.728 49.966 6.372 17.227 4.912 34.764 9.592 51.672 15.496 15.756 5.503 32.769 13.63 49.857 12.923 14.9-.616 28.82-12.744 39.566-21.989 10.793-9.284 24.29-22.879 39.809-21.784 7.707.542 14.73 4.26 22.236 5.771 8.24 1.66 17.009 1.895 25.389 2.514 10.402.767 33.675-1.945 37.523-14.46.571-1.856.575-5.679-1.877-6.422-2.255-.682-3.407 1.954-5.544 1.834-4.347-.245-7.743-7.824-10.131-10.759-9.637-11.845-22.857-20.68-33.67-31.381-12.212-12.082-22.637-26.72-31.838-41.159 4.16-1.08 8.648.715 12.673 1.568 4.892 1.036 9.659 2.288 14.48 3.615 5.312 1.463 10.7 2.469 16.093 3.584 4.023.83 9.363 1.081 12.994 3.099 3.17 1.762 4.94 3.654 8.875 4.165 4.002.52 8.111.082 12.132.055 10.874-.074 21.726-.276 32.55-1.425 38.243-4.063 78.782-20.24 101.779-52.343 6.255-8.732 11.294-18.405 14.478-28.67 2.485-8.015 6.77-19.309 4.607-27.724"/><path d="M574.989 82.008c10.05.143 19.47 3.123 28.835 6.51 8.236 2.98 17.015 5.736 23.674 11.682 11.978 10.697 15.098 28.408 17.058 43.56 2.445 18.908-5.691 34.772-12.539 51.878-6.404 16-18.16 28.96-32.131 38.836-7.32 5.173-15.41 8.296-23.875 11.034-8.598 2.781-16.925 6.506-26.124 6.492-13.97-.02-31.854-6.655-37.805-20.418-2.709-6.267-.071-7.392 5.35-3.986 7.865 4.941 15.447 10.273 24.638 12.465 17.824 4.252 39.172-2.335 54.801-11.027 15.623-8.69 26.112-21.743 33.122-37.996 7.072-16.398 9.82-32.556 7.092-50.233-2.31-14.98-6.909-28.665-20.408-36.797-29.143-17.553-68.408-16.139-94.324 6.673-3.555 3.127-7.068 6.17-10.73 9.157-2.33 1.898-5.071 4.175-4.732 7.457.289 2.811 6.282 13.649-.935 10.32-5.85-2.7-9.03-7.976-16.116-8.63-7.543-.695-16.54 5.1-18.797 12.392-2.152 6.96 1.686 16.48 7.697 20.471 3.723 2.472 7.819 2.09 12.046 1.99 2.098-.05 7.939-.731 9.327 1.487 2.457 3.923-6.21 8.046-9.007 8.913-6.806 2.112-14.85-.373-18.762-6.448-3.978-6.177-6.7-13.325-7.248-20.683-.524-7.05 1.077-14.188 5.235-19.976 4.424-6.157 13.442-13.058 21.526-10.92 3.508.928 6.328 4.554 9.77 5.242 2.174.434 1.26.745 3.06-.866 1.143-1.022 2.224-2.908 3.279-4.12 6.067-6.965 12.066-14.4 19.492-19.975 13.315-9.997 31.012-14.718 47.53-14.484zm-36.82 138.105c1.575-3.692 4.467 2.893 5.323 3.994 1.693 2.179 5.675 3.873 5.503 7.086-.284 5.304-7.513 4.32-9.924 1.553-2.743-3.15-2.456-8.988-.902-12.633zM589.53 195c3.9 6.078-.853 12.638-3.936 18.018-2.949 5.143-5.687 10.957-9.12 15.793-5.697 8.028-18.093-.657-18.461-8.908-.282-6.316 4.192-3.567 7.064-1.208 2.956 2.43 4.356 3.035 7.455.381 6.233-5.34 9.034-14.271 13.343-21.033.854-1.34 2.403-2.147 3.655-3.043zm11.118 1.954c1.006 2.94-1.104 10.728 4.761 9.949 3.241-.43 3.933-5.08 5.636-7.11 5.73-6.823 3.973 6.082 2.476 9.312-3.3 7.118-12.536 12.023-17.117 2.992-1.704-3.36-1.696-7.6-.83-11.21.47-1.967 3.218-9.36 5.074-3.933zm-52.3-13.92c-.52 3.43-3.744 10.262.192 12.715 3.463 2.16 9.493-2.53 12.16-4.488 2.771-2.035 9.05-7.872 9.297-.608.126 3.703-3.581 8.146-6.226 10.279-5.643 4.55-17.368 8.63-21.527.067-2.265-4.665-1.026-11.305.472-16.006 1.213-3.81 6.885-10.243 5.631-1.96zm74.012-18.776c2.296 2.667 7.74 8.641 4.78 12.44-3.46 4.438-9.083-3.706-11.3-5.973-1.996-2.042-6.197-7.857-4.406-10.942 2.966-5.104 8.91 2.134 10.926 4.475zm-36.095-11.483c7.506 4.89-2.363 8.411-6.638 8.85-5.175.527-11.79.877-16.544-1.662-6.737-3.6-4.491-9.036 2.039-10.338 6.695-1.333 15.318-.646 21.143 3.15zm-97.585-15.567c5.52 1.074 11.825 2.471 13.705 8.49 1.941 6.22-.848 8.283-6.486 6.883-5.217-1.296-13.009-2.6-15.958-7.696-3.524-6.088 3.62-8.672 8.74-7.677zM184.946 270.85c-1.852 5.983-11.228 9.95-15.904 13.587-16.354 12.723-32.335 25.97-47.12 40.49-7.674 7.537-13.483 16.654-20.138 25.036-1.623 2.045-4.5 6.628-7.684 6.197-3.494-.47-4.2-6.488-4.09-9.116.382-8.962 8.567-17.617 14.404-23.788a320.477 320.477 0 0120.755-20.02c7.894-6.955 16.459-12.934 25.188-18.787 8.571-5.748 16.79-12.389 25.703-17.595 4.199-2.452 11.171-3.385 8.886 3.996zm571.676-56.814c6.827.215 13.488 2.454 19.926 4.533 14.161 4.573 27.65 10.917 40.95 17.548 23.317 11.622 45.756 25.684 66.324 41.673 4.3 3.341 8.708 6.049 13.384 8.781 2.992 1.75 7.259 3.886 8.412 7.454 2.928 9.068-11.853-.034-13.95-1.336l-2.951-1.83c-43.764-27.123-87.477-53.476-136.98-69.03-2.636-.83-3.457-3.182-2.073-5.513 1.5-2.527 4.422-2.36 6.958-2.28zm-573.667 18.979c-.317 2.76-3.444 3.389-5.553 4.275-7.87 3.306-15.937 6.125-23.786 9.486-14.567 6.237-27.945 15.288-43.15 20.022-3.475 1.083-3.988-2.424-3.057-4.81 1.036-2.663 4.148-4.533 6.398-6.074 6.493-4.448 13.856-7.645 21.066-10.735 7.149-3.065 14.508-5.384 21.837-7.953 6.812-2.389 14.718-6.834 22.032-7.163l.32-.015c2.328-.118 4.261-.275 3.893 2.967zm586.092-41.945c-6.96-1.958-.384-6.364 3.752-6.054 4.614.345 9.074 2.524 13.45 3.838 13.378 4.017 25.78 8.41 38.277 14.645 1.864.93 10.076 5.344 4.644 7.298-3.764 1.354-12.556-4.455-15.788-5.849-14.203-6.124-29.465-9.697-44.335-13.878z"/><path d="M491.608 205.331c.87-2.552 11.63-30.454 7.418-31.295-4.46-.893-10.424 15.296-11.718 18.22-4.779 10.803-7.609 22.393-9.826 33.98-1.545 8.068-2.902 16.333-2.36 24.581.415 6.34 3.033 7.299 7.347 11.183 0-19.254 2.926-38.445 9.139-56.669"/></g></g></svg>