<svg width="1024" height="768" xmlns="http://www.w3.org/2000/svg"><g fill="none" fill-rule="evenodd"><path d="M350 354.115l9.42 95.106 51.283-29.263v91.205c0 1.68-.997 7.45 0 8.905.846 1.233 7.11 1.269 8.59 1.477a1004.475 1004.475 0 0029.057 3.628c25.57 2.824 52.94 6.87 78.608 3.625 22.312-2.821 43.943-10.757 64.328-19.991a355.91 355.91 0 0021.14-10.42c1.468-.786 6.799-2.642 7.597-4.242.652-1.308-.878-5.901-1.082-7.275l-2.584-17.378-12.03-80.888 22.726 22.695c1.78 1.778 5.161 6.826 7.625 7.614 1.806.578 6.28-1.21 8.065-1.554l38.606-7.44c2.998-.578 9.755-.556 12.282-2.367 1.36-.976 1.425-2.96 1.905-4.842l9.416-36.888c.566-2.215 3.72-9.198 2.918-11.429-.288-.8-1.68-1.346-2.531-1.867l-58.268-35.589-31.92-19.495c-4.456-2.723-9.931-7.628-14.981-9.15-3.135-.946-7.696-.238-10.94-.33l-19.777-.565c-1.032-.03-4.647-.765-5.516-.157-.723.506-.423 1.211-.66 2.417-.58 2.946-.584 6.122-.87 9.112-.229 2.4.226 6.8-.855 8.971-.69 1.388.185.835-.75 1.506-1.112.799-4.664.542-5.988.695l-19.38 2.251c-7.68.892-15.446 2.566-23.162 1.795-11.698-1.168-24.311-1.11-35.798-3.574-2.985-.641-4.06-2.323-6.363-4.622-4.494-4.488-8.943-9.028-13.487-13.468-2.227-2.176-1.273-1.807-3.569-.982-2.877 1.034-5.795 3.53-8.399 5.116l-29.932 18.232-60.912 37.104-3.812 2.322" fill="#FF5678"/><g fill="#000"><path d="M932.615 358.056c-12.557 47.67-37.81 99.65-88.689 114.845-12.37 3.694-24.403 6.483-37.251 5.076-1.223-.134-2.246.038-3.41.06-2.083.04-.283.788-2.62.067-1.823-.563-3.528-1.97-5.427-2.592-5.049-1.652-10.43-1.971-15.562-3.306-12.607-3.28-25.6-7.329-37.816-11.852-5.752-2.13-11.039-5.095-16.45-7.948-5.5-2.9-11.328-4.7-16.89-7.359-4.395-2.102-11.926-4.841-15.016-8.784-3.295-4.205 1.264-13.156 2.567-17.626 4.431-15.21 9.708-30.197 13.039-45.71 11.5 13.328 27.462 21.582 43.986 26.905 8.966 2.889 18.189 4.977 27.514 6.284 8.467 1.186 17.601 2.622 26.088.938 6.407-1.272 14.45-4.217 19.025-9.107 1.633-1.746 3.592-4.946 2.677-7.482-1.161-3.22-4.545-1.704-6.377-4.106-1.595-2.093-1.345-6.987-1.854-9.535-.9-4.51-2.135-8.896-3.643-13.237-2.927-8.429-6.575-16.877-7.45-25.846-.759-7.781 1.013-15.14 4.895-21.892 1.834-3.192 6.44-11.876 10.937-11.515 4.937.396-1.72 21.204-1.938 25.449-.863 16.826 1.394 34.755 10.028 49.503 3.306 5.647 8.087 12.222 15.145 12.922 7.477.74 13.508-5.142 17.066-11.094 8.684-14.521 4.306-34.447-.092-49.666-5.394-18.673-19.474-31.543-28.377-48.313 13.292 1.336 20.41 9.78 27.23 20.493 7.512 11.794 13.358 25.954 16.241 39.677 1.456 6.934.45 13.896.46 20.898.003 2.326.002 10.907 3.795 10.57 4.053-.362 5.443-10.04 6.04-12.993 1.365-6.772 2.844-13.545 4.03-20.35 2.1-12.041 3.033-24.373 5.548-36.33.425-2.022 1.271-7.63 4.297-6.116 2.333 1.166 1.959 9.84 2.044 11.856.21 4.968.505 9.936.544 14.91.06 7.37-1.41 15-.69 22.326.472 4.787 3.04 10.076 6.226 3.62 3.158-6.402 3.802-14.386 5.563-21.271 1.85-7.23 3.76-14.564 7.686-20.985 1.09-1.781 2.26-4.609 4.68-3.77 1.759.609 3.057 4.777 3.601 6.248 2.453 6.649 2.037 14.04 1.882 21.001-.19 8.529-1.105 16.868-3.282 25.137zm-244.85 12.37c-.67-.216-3.521-.486-4.228-.548-.829-.072.112-1.6-1.893-1.165.387.96 1.074 1.6 2.063 1.921-3.015 1.02-5.24-1.498-7.301-1.823-1.972-.31-2.056 0-4.003 2.083-2.11-2.572-1.714-.968-3.448-.967-.631.001-.658.954-1.685.84-.897-.1-.991-1.46-1.521-1.62-2.878-.871-5.838 3.51-9.102-.29-.791 3.955-9.85-1-13.337-.304-3.654.727-2.078 2.037-5.03-.202-2.815-2.133-2.03-.716-5.303 1.03.076-.041-1.848 1.258-1.669 1.28-2.266-.266-2.137-2.608-5.006-2.484-3.037.132-4.334 2.513-7.114-.417-.604 2.195-.729 1.249-2.153 1.802-.784.186-1.47-.02-2.057-.617-.178.603-.569.973-1.175 1.109-1.551.14-4.463.355-5.872-.392-2.114-1.121-.414-1.552-1.881-2.813-.657 3.477-2.097 2.738-5.135 3.063-2.317.248-2.828-.463-5.041-.809-2.18-.34-4.997.506-7.124.866-.877.15-2.053.762-2.947.547-.805-.194-1.15-.82-1.631-.983-.584-.196-.46-.707-1.47-.955-.695-.17-1.94.483-2.636.596-4.957.805-9.72.813-14.448-1.137 2.33 4.093-5.444 1.883-6.83.188-1.732 2.714-3.828.798-7.32 1.01-3.361.204-8.418 1.234-9.781-2.953-.267.85-2.175 3.32-2.934 3.698-2.204 1.092-2.467-.524-4.516-1.182-2.789-.896-2.207.805-3.936 1.15-2.92.585-4.498-1.471-7.078-2.564-.109 1.7-.165 2.744-1.634 3.802-1.301-4.737-5.944.388-5.147-5.943-1.767 1.15-4.252 2.034-4.755 4.36 2.954-.813.315 1.118.191 1.182-.39.204-1.709-1.647-2.015-1.908l-.25 2.62c-1.177-.588-2.282-1.642-3.237-2.17-.86-.475.372-1.465-1.082-1.533-.766-.037-1.566 1.623-2.37 1.765-1.23.215-.64-1.55-1.154-1.49-.784.09-2.062 1.237-2.655 1.215-1.944-.072-.628-.977-2.112-1.392-2.651-.742-2.48.992-4.387 1.617-4.36 1.432-3.923-5.156-8.359-.762-1.062 1.051-1.745 2.675-3.199 2.584-3.011-.189-1.954-3.758-1.342-5.506.633.312-11.001 6.288-10.91 6.054.074-1.433 1.904-2.538.269-3.81-1.337 2.868-2.744 2.918-5.828 3.452-1.499.26-1.794.607-3.398-.016-1.022-.396-1.708-2.026-2.724-2.116.137.013-1.728 1.432-2.012 1.56-1.683.758-2.748-.102-4.383.21-1.395.266-1.944 1.452-3.33 1.127-1.852-.433-.764-2.644-3.312-2.027-.871.21-1.394 1.889-2.766 2.235-2.139.542-4.76-.468-7.02.059-1.794.419-3.125.596-4.694.683-1.267.071-.746-.915-3.079.249l-.99-2.494-3.503 3.15a17.028 17.028 0 01-.421-2.86c-1.742 1.745-3.935 2.043-6.277 2.2-2.535.17-4.424.722-6.891 1.186-.78.146-2.789.38-3.43.107.094.04-1.2-.498-.81-.396-.168-.342-.324-.69-.468-1.044-.218-.984-.926-1.027-2.122-.13-.619-.095-1.819-.907-2.436-.707-1.591.516-1.375 1.75-2.96 1.57-1.029-.12-1.554-1.639-2.625-1.742-1.64-.158-3.06 1.677-4.537 2.077 4.491-1.219-5.824-.273-2.617-.19-2.103-.054-4.286-.158-6.23.784-1.072-.734.23-2.21-.854-2.817-.984-.55-1.06.904-1.175.936.62-.176.311 1.062-.31 1.282-1.935.686-3.484-1.058-3.584-2.788-1.644 2.475-2.106 1.48-4.524 1.633-2.385.15-4.442 1.401-6.828 1.378-4.719-.045-7.92-1.685-9.496-5.898 5.028.613 10.09-2.62 15.006-1.86 1.616.251 2.625 1.465 4.04 1.25 1.745-.266 2.963-2.169 5.2-2.374 4.933-.451 9.796-.012 14.763-.768 5.933-.904 12.124-1.439 18.114-.999 4.629.34 8.377-1.43 13.07-1.77 6.07-.442 12.19-.52 18.27-.839 6.245-.327 12.967-1.325 19.196-1.005 1.945.1 3.619.29 5.549.174.816-.05 1.589-.604 2.445-.52 1.116.107 1.595 1.249 2.752 1.209 1.966-.067 4.068-1.687 6.405-1.731 3.843-.073 7.67-.064 11.522-.283 3.392-.193 7.026-.985 10.403-.942 2.382.03 2.97 2.06 4.358 2.269 2.496.376 15.122-6.809 16.213-.36 6.573-4.499 15.388-.69 22.705-1.535 9.4-1.086 18.97-.118 28.434-.505 9.629-.393 19.535-.029 29.126.88 3.973.375 7.811.728 11.795.5 1.776-.102 3.83-.555 5.605-.146.43.1 3.724 2.399 3.315 2.465 1.8-1.615.582-1.852 3.747-1.935 2.44-.064 4.747.463 7.173.607 4.355.257 8.742-.346 13.087-.213 3.628.11 7.175.646 10.822.672 3.93.029 8.573.14 11.418 3.309l-.901-2.985c4.388.343 8.724 1.91 13.16 1.177-1.122 1.075-2.261 1.953-2.69 3.53 2.392-.304 4.012-1.974 6.53-1.987 2.116-.013 2.556 1.048 4.79-.323l.824 5.039c3.093-.728 1.064-3.034 1.29-5.113 2.513.755 4.642-.112 3.651 3.504-.764 2.788-4.245 4.162-6.863 3.313zm-4.346 31.057c-1.079 3.03-10.408 1.299-12.614.978-2.85-.412-6.11-1.067-8.735-1.392a4.584 4.584 0 00-1.132-1.069c-.33.46-.748.787-1.253.978-1.205.264-1.21 1.508-2.793 1.233-.074 1.841 1.205.795 2.185 1.463-2.469 1.655-1.34-.25-2.725-.22-.343-.487-.821-.678-1.434-.573-.78.202-1.5.536-2.158 1.002-.617.652-1.146.685-1.586.102a2.746 2.746 0 00-1.544-.785c-2.432.395-3.112 1.474-5.85 1.298-3.914-.252-8.147.78-12 .236-2.386-.336-6.375-4.087-7.459-.43-1.65-2.711-4.279-4.555-5.859-7.324 7.36-.426 14.719-.933 22.086-1.199 6.45-.232 13.506.494 19.533.19 5.647-.285 11.626-.91 17.39-1.424 6.112-.546 8.134.795 5.948 6.936zm-192.026.447c2.673.74 5.218-.937 7.81-.407.857.175 2.631 1.735 3.021 1.766.714.057 2.812-1.475 3.712-1.68 5.693-1.296 12.59-1.158 18.282-.362 3.016.421 3.479-.959 6.112-1.63 2.736-.697 6.626-.16 9.507-.352 6.779-.454 13.555-.131 20.288-.627 6.912-.509 13.79-.784 20.705-1.14 4.71-.242 16.031-2.93 19.935.568 3.22 2.883-.928 7.889-4.148 9.032-2.408.852-3.562-.945-5.35-.773-2.036.195-1.326 2.6-3.143.37-1.126 2.218-8.204 1.272-10.232 1.419-4.42.319-8.16 1.206-11.168-2.917l.612 3.567c-3.99-2.132-8.27-1.45-11.734-.706-1.715.368-6.979 2.91-8.837 1.814-1.278-.754.975-2.044-1.182-2.688-1.13-.338-3.081 1.54-4.462 1.445-3.822-.263-2.738-2.833-6.492.438-1.272-1.1-1.695-2.97-1.527-4.573-2.727 2.326-2.5 6.203-7.375 5.493-1.817-.264-2.15-2.117-3.098-2.459-2.018-.729-2.247.581-3.995 1.618-.66.39-1.465 1.02-2.242 1.099-1.596.16-1.85-.574-2.068-.55-1.062.117-2.4.657-3.66.271-1.13-.346-1.461-2.342-3.454-1.875-1.907.447-1.923 1.742-1.577 3.68-1.88-.194-3.018-1.241-4.424-2.376-1.421 3.313-4.41.57-6.065 3.364-2.154-2.572-3.536-1.864-6.209-4.376.132 1.048.263 2.096.393 3.145-2.085-.402-3.013-1.873-4.793.073-1.727-3.217-6.963 1.367-9.653-1.74-1.198 3.935-9.13 2.994-12.481 3.062-2.969.06-5.167-.182-8.068.507-2.563.61-6.116 1.24-8.527.962-1.575-.182-3.297-.471-5.26-.257-2.83.306-5.273 1.77-8.204 1.078-4.413-1.043-7.118-6.84-2.203-9.386 3.364-1.742 9.424-1.097 13.126-1.419 6.135-.533 13.011-1.65 19.155-1.142 4.792.396 9.159-.747 14.048-1.23 3.681-.363 9.714-1.018 12.115 2.63.921-1.065.826-3.285 2.81-2.736zm-67.162 49.936c-.659-3.28 27.39-5.088 30.174-5.302 5.845-.45 11.706-.772 17.565-.92 4.816-.123 9.311.796 14.128.057 4.5-.69 9.93-2.105 13.845 1.08.576-4.356 17.46-2.234 20.672-2.222 13.983.05 27.363.083 40.888-.783 7.73-.495 15.938-1.16 23.669-.774 3.487.175 6.295 1.104 9.762.297 2.262-.525 4.7-1.62 6.863-.073 2.531 1.812 3.613 7.962 1.869 10.529-1.27 1.87-2.394 1.663-4.424 1.34-3.12-.497-5.437-1.219-8.618.05.515-.207-2.131.384-1.911.367-3.604.27-8.546 2.786-11.65-.115 1.243.218 3.05-2.003 1.483-2.186-1.178-.136-1.925 1.126-2.844 1.55-3.144 1.445-4.753.993-6.63-2.041-3.786 3.277-4.194 2.37-5.856-1.665-1.28.985-1.555 3.317-2.562 4.081-.15.114.47 1.53-.257 1.472-.675-.055-.896-1.16-1.415-1.248-.331-.056-.504-1.026-.82-1.085-.345-.064-.698.555-1.088.537-1.04-.049-4.015 2.165-2.948-.942-1.577 2.005-2.255.727-2.824-1.098l-5.46 4.15c-.846-2.353-2.303-1.712-4.135-.89.552-1.634.206-3.18-1.18-2.044-.801.658-1.34 2.746-2.161 3.633-3.323-3.365-4.53-2.442-9.122-2.004-1.752.166-3.93.49-5.495-.569-1.377-.93-2.155-4.344-4.508-1.586.524-.613-.298 4.099-.443 4.847-1.038-.7-1.92-1.56-2.645-2.58-1.355 2.681-4.91.275-7.824.823-4.587.863-9.318 2.316-13.37-1.098-.286 1.102-3.605 2.506-3.61 2.549.197-1.952 1.428-1.266-1.086-1.636-.463-.068-.988.764-1.425.855-1.5.31-3.25.016-4.76-.027-6.286-.181-12.039 1.212-18.245 1.717-2.092.17-4.574.503-6.538-.285-2.023-.814-1.968-1.737-4.015-1.213.648-.165-1.28 1.859-1.175 1.783-.275.2-1.423-.788-1.831-.714l-.357 1.295-1.48-.182c-1.35.18-2.567-1.185-3.835-1.231.233.008-3.422 1.369-3.255 1.452-2.552-1.273-1.82-.904-5.056-.13-3.06.733-6.106.562-9.245 1.019-9.131 1.326-3.69-3.25-4.815-8.84zm-8.064 45.65c-1.717-2.434 2.851-3.276 4.31-3.49 2.4-.355 5.584.349 7.183-.032 2.435-.58 4.786-1.962 7.527-2.337 3.46-.473 6.947-.55 10.421-.846 1.157-.1 2.59-.498 3.716-.43 1.677.1 2.373.987 3.727.993 2.306.012 5.15-1.444 7.514-1.711 3.026-.343 6.083-.504 9.124-.655 6.407-.318 12.748-.186 19.152-.193 2.92-.004 10.699-3.035 12.155.363 2.025-2.575 7.219-2.224 10.115-2.299 5.1-.13 10.146-.623 15.242-.86 4.363-.203 9.238.731 13.523.077 2.361-.36 3.144-1.117 5.821-.775 1.99.252 5.023-.8 6.73-.334-.088-.024 2.132 1.35 1.44 1.395.762-.05.717.484 1.558.246 1.104-.311.597-1.7 2.886-2.193 3.57-.77 8.33.121 12.04-.077 3.598-.191 7.19-.274 10.793-.257 1.658.007 3.709-.389 5.322-.065.79.158 2.47 1.19 3.14 1.086 1.898-.297 2.865-1.615 5.431-1.533 2.91.092 5.527.052 8.42-.17 2.8-.214 3.25-.614 4.638 1.716 1.376 2.312 1.755 5.322-.777 6.893 1.645-.108 3.668 2.095 1.73 3.314-1.198.754-3.6-.947-5.034-.825-1.766.152-3.154 1.086-5.076 1.144-2.022.062-4.075.57-6.068.61-2.077.04-3.647-.888-5.617-.493-1.733.35-1.916 1.77-4.003.522-1.037-.621-1.212-2.919-2.627-2.94-1.896-.03-1.14 2.42-2.23 3.555-.293-3.503-2.997 2.293-4.072-1.959-.99 1.412-4.66 3.387-6.438 2.253-1.62-1.034-1.082-3.373-1.757-5.059-1.123 3.03-4.138 6.172-3.865.657-1.465 1.803-5.422 1.518-4.43 4.672-1.193-.023-1.475-1.726-2.48-1.855-.866-.11-1.554.555-1.687.545.475.04-1.42.67-1.449.677 1.283-.261-3.7-.705-2.851-.698-1.156-.01-2.571.937-3.923.934-1.231-.003-2.456-.488-3.671-.626-3.152-.36-2.496.332-4.474 1.322-.734.366-.918.987-1.959.91-.768-.058-1.055-1.06-1.142-1.068-1.08-.11-.282-.472-1.96-.304l-.576.992c-.605.775-1.39.968-2.355.582-2.482.532-10.712 2.84-9.906-1.433l-3.783 1.85c-.541-3.445-7.393 1.122-8.923 1.353-1.963.294-2.144-.459-4.001-.86-.335-.072-1.005 1.032-1.79.873-2.037-.409-2.4-.612-2.75-2.824-1.451 2.715-2.658 1.5-5.292 1.947-.583.1-.955 1.246-1.792 1.048-.603-.142-.62-1.244-1.035-1.386-.374-.13-.318-.999-.869-1.122-.632-.143-2.787 1.624-3.405 1.897-1.394.614-3.684 1.631-5.045 1.327-1.683-.376-.934-1.624-3.312-1.483-3.751.22-5.316 3.412-7.65-1.619-1.053 2.015-.92 2.562-2.61 3.227-1.25.491-4.417-.022-6.063-.083-7.029-.26-13.94 2.136-20.911 1.509-3.064-.276-5.648-.889-8.74-.388-3.25.528-6.427 1.303-9.723 1.615-1.676.158-5.178.64-6-1.503-.724-1.886 1.976-3.172.463-5.318zm13.786 77.34c-9.118 6.099-16.669 14.428-25.04 21.48-8.394 7.072-15.055 14.932-22.603 22.763-6.98 7.238-13.39 14.086-21.828 19.556-5.34 3.462-10.102 7.723-15.586 10.987-4.108 2.444-10.331 5.66-8.327-1.817 2.054-7.663 5.846-15.408 9.14-22.565 4.68-10.172 9.398-20.25 14.463-30.23 1.904-3.75 2.97-7.482 5.988-10.47 3.285-3.25 5.585-7.494 9.182-10.566 15.132-12.919 37.936-2.938 54.611.861zm28.601 4.379c-4.136 2.168-8.765 2.705-13.148 4.139-3.735 1.221-7.208 3.393-11.225 3.555 3.657-2.747 6.798-6.477 10.921-8.561 4.637-2.345 8.847-.638 13.452.867zm181.532 18.067c-15.213-5.133-29.377-12.696-44.194-18.783-2.558-1.052-22.562-7.64-22.156-10.775 14.018-2.568 28.455-6.975 42.507-2.17 12.783 4.371 23.18 14.856 33.076 23.631 2.582 2.29 18.55 12.717 17.121 16.038-.99 2.302-8.683 1.674-10.5 1.202-2.348-.61-3.7-2.035-5.54-3.6-3.078-2.615-6.483-4.25-10.314-5.543zm-28.084-85.758c2.31-2.126 3.694-5.352 5.9-7.315 2.837-2.522 7.413-1.293 10.513.017 9.302 3.93 17.253 10.54 26.499 14.64 10.245 4.546 19.114 10.62 28.355 16.88 8.447 5.721 17.58 10.459 26.202 15.92 8.786 5.565 18.62 9.182 27.527 14.55 9.064 5.463 18.093 10.95 26.803 16.97 15.532 10.735 31.704 21.76 43.195 37.023 5.906 7.846 11.435 16.745 15.768 25.555 3.94 8.009 8.213 19.126 3.108 27.457-4.903 8-13.26 14.303-20.333 20.273-2.679 2.26-5.227 5.006-8.7 5.987-4.222 1.19-9.15.862-13.493 1.213-23.223 1.884-44.857.106-67.743-4.047-22.067-4.004-44.226-6.247-66.462-9.03-12.544-1.57-25.086-3.399-37.46-6.014-5.29-1.118-10.672-2.407-15.848-3.93-4.52-1.33-8.321-4.258-12.969-5.418-19.725-4.926-42.293-6.81-61.821-15.094 17.28-7.182 35.645-11.52 53.356-17.487 18.641-6.281 36.847-11.551 56.495-13.336 10.11-.918 19.158-3.5 28.884-6.202 9.268-2.576 18.944-3.365 28.464-4.52 4.233-.513 16.315.256 17.718-5.278 2.09-8.24-9.781-9.19-14.842-8.452-7.18 1.047-13.1 2.838-18.593-3.05-5.61-6.015-11.061-12.173-16.773-18.11-10.59-11.011-21.506-23.746-36.476-28.686-18.263-6.026-39.441-.306-57.664 3.121-19.247 3.62-38.463 7.085-57.35 12.347-7.821 2.178-17.908 6.978-26.025 6.207-8-.76-17.061-2.07-24.792-4.377-3.498-1.043-6.373-2.978-9.503-4.781-4.07-2.346-8.53-3.85-12.849-5.673-8.734-3.686-17.25-7.082-26.672-8.531-7.936-1.22-16.363-1.944-24.053.838-7.545 2.73-14.23 8.286-19.494 14.222-5.718 6.45-10.444 13.677-15.13 20.883-2.25 3.458-4.996 6.476-7.327 9.857-1.956 2.84-3.098 5.994-5.168 8.754-4.633 6.174-7.779 14.072-10.586 21.254-3.12 7.977-6.585 17.465-5.84 26.143.28 3.28.575 7.625 1.844 10.666 1.614 3.869 3.915 3.77 7.232 5.23 5.7 2.506 7.298 9.435 14.662 8.084 6.908-1.267 12.899-6.959 17.939-11.497 6.569-5.912 12.856-12.147 19.142-18.358 6.45-6.375 12.806-13.446 17.937-20.946 2.02-2.952 3.595-6.287 5.982-8.975 3.04-3.425 6.453-3.836 10.582-5.2 36.098-11.927 72.371-23.432 109.597-31.307 8.918-1.887 17.91-4.32 26.67-6.832 9.292-2.664 14.104.152 21.773 5.22 16.021 10.594 34.958 18.055 52.798 24.967 5.618 2.176 14.56 2.314 18.952 6.606-26.03 3.967-50.834 11.602-75.94 19.205-12.378 3.747-24.898 6.997-37.323 10.58-12.43 3.587-24.386 8.233-36.645 12.275-12.2 4.023-25.094 5.664-37.412 9.375-12.575 3.788-25.097 6.394-38.005 8.696-13.033 2.326-25.975 5.01-39.053 7.091-5.988.953-11.975 1.942-17.896 3.253-5.794 1.284-11.392 4.357-17.215 5.07-26.005 3.181-51.5 10.27-77.404 14.277-19.341 2.993-52.99 7.166-65.532-12.239-12.612-19.514 2.86-42.278 16.667-56.231 8.58-8.672 18.221-16.304 28.337-23.094 10.825-7.266 21.24-15.112 32.069-22.368 24.504-16.42 51.075-29.812 77.4-43.006 12.637-6.333 24.846-13.125 37.138-20.075 6.1-3.45 9.477 2.116 14.3 5.9 3.793 2.976 10.758 10.311 16.065 6.92.204 1.221.41 2.442.613 3.665 1.554-.71 3.11-1.417 4.664-2.126 1.044 2.738.922 4.44 3.84 5.877 1.79.884 5.613 1.947 7.32.39l1.046 3.244c1.493-.114 1.781-4.385 2.063-5.385 2.558 3.737 6.097 6.86 10.594 7.916.022-.244-.731-3.314-.699-3.333 1.423-.871 3.218 2.86 3.972 3.658 2.501 2.647 3.993 2.236 6.756.1.2.218 1.136 2.658 1.272 2.614.598-.19 1.733-2.352 1.858-2.55-.173 2.845 5.318 3.418 7.257 2.808l-1.304-2.5c6.754-.902 9.406 6.274 15.89 5.91 4.792-.27.948-1.318 3.66-3.37 2.37-1.795 2.793 2.129 3.025 2.004a5.127 5.127 0 001.051-1.632c.877 3.36 7.86 6.374 7.137.85 2.747 1.098 4.697 2.922 7.737 3.307 3.695.468 7.641-.316 11.327-.622 7.942-.661 15.43-2.281 22.588-5.92 4.245-2.157 8.763-4.114 12.753-6.717 3.339-2.178 9.674-8.791 14.12-5.944-1.139-3.358 4.222-.246 4.392-4.572.86.65 1.722 1.297 2.583 1.947.516-1.132.372-2.916 1.064-3.903.95-1.355 1.413-.557 2.222-1.32.906-.852 1.697-3.136 2.783-3.786 1.12-.67 2.436.129 3.64-.456 1.834-.891 9.721-9.588 8.387-2.136 3.39-1.152.776-2.206 1.2-4.466.85-4.529 2.921-1.27 4.984-.875 3.378.648 3.31-2.145 5.194-4.174 1.72-1.854 4.953-2.683 3.839-5.903 1.272.686 1.543 2.029 1.69 3.333zm-203.617-96.729c-2.66 2.964-4.654 1.697-7.612 1.262-.317-1.06-.858-1.207-1.622-.44a8.165 8.165 0 01-2.829.993c-2.426.598-4.946.344-7.32 1.25.069-.795.904-2.208.369-3.015-2.496 1.726-4.043 2.824-7.108 2.857-2.483.026-6.842-1.87-8.904.397-.064-.883-.128-1.765-.19-2.648a8.63 8.63 0 00-2.636 2.02c-.142-1.308-.22-2.297-1.085-3.354-1.64 3.374-3.438 3.454-6.625 2.165.447.18-3.19-1.952-3.051-1.361-1.15-4.845 17.001-4.445 18.907-4.636 4.759-.481 9.517-.76 14.283-1.199 4.52-.415 7.894-1.12 11.022 2.651-1.394-5.447 11.795-5.177 4.401 3.058zM200.272 330.34c.5 8.235 2.332 16.988-.87 24.914-2.574 6.371-7.71 13.566-13.24 17.724-11.328 8.513-20.928-1.904-22.505-13.352-1.643-11.94 1.614-26.53 11.896-33.893 6.144-4.4 12.093-4.094 19.166-2.648 1.661.34 4.358.21 5.308 1.86.223.386.023 5.387.245 5.395zm150.436 109.72c-1.957.988-4.004 1.566-5.729 2.91-.599.466-.803 1.53-1.439 1.922-1.157.716-2.81.241-4.017.832-1.996.975-3.427 2.371-5.8 3.27-3.522 1.335-6.611 3.166-9.941 4.902-5.548 2.893-11.502 5.376-17.303 7.731-2.928 1.19-11.025 3.506-10.745 7.792-.655.177-1.324-1.255-2.692-1.141-1.877.156-4.357 2.327-6.306 2.861-3.646.998-6.468 1.086-6.468 5.734-1.16-.788-1.455-2.718-3-2.973-1.737-.288-2.468 1.587-3.858 2.17-1.637.687-3.673.028-5.294.76-.71.75-1.497 1.404-2.364 1.962a8.985 8.985 0 01-2.633-.082c-3.442.73-6.61 2.025-10.06 2.697-3.361.657-5.663.895-4.25 4.871-3.597.704-4.475-3.113-8.533-1.716-4.974 1.709-9.623 2.943-14.815 3.986-2.648.532-5.415 1.72-8.082 1.998-1.903.199-3.68-.482-5.553-.27-2.258.253-4.073 1.3-6.41 1.338-2.217.039-4.544-.359-6.72-.75.307.877.692 1.718 1.154 2.523-1.505-.315-2.2-2.125-3.476-2.393-1.34-.28-2.539 1.1-3.654.795-.475-.13-.159-1.595-1.008-1.875-.774-.253-1.1.046-1.869-.074-.256-.04-3.467-.214-3.979.057-.894.474.01 1.362-.167 1.494-3.02 2.235-3.057 1.029-4.403-1.306-1.977-3.427-4.361-1.264-7.954-1.864-4.005-.668-7.16 1.099-11.101.847-4.251-.271-9.247-3.452-13.006-5.31-8.116-4.011-16.03-7.808-22.847-13.883-13.325-11.877-24.165-26.483-30.556-43.204-6.868-17.964-8.169-36.7-7.618-55.757.332-11.462 1.25-22.917 3.056-34.244 1.244-7.792 1.504-21.639 10.289-25.187 1.51 18.244-3.255 36.835-.25 54.96.905 5.46 3.112 12.735 7.289 16.779 6.184 5.985 7.63-2.667 8.19-7.446 1.041-8.877 2.975-17.704 4.345-26.538 1.368-8.831 2.335-17.76 4.237-26.499.694-3.186 6.288-26.517 10.394-25.412-.83 16.973-3.037 33.654-3.124 50.69-.034 6.832-.646 14.05.34 20.837.508 3.493 3.689 13.743 9.16 12.888 5.063-.79-.503-8.01-.976-10.795-1.252-7.37.344-16.539 1.511-23.854 2.21-13.844 7.139-28.022 15.195-39.591 7.216-10.36 18.326-20.22 31.71-18.394 5.72.781 10.18 2.201 13.054 7.423 2.255 4.098 11.136 8.755 5.99 13.886-4.686 4.67-12.264.932-17.472-.182-6.377-1.363-13.21.277-18.544 4.014-9.15 6.41-14.364 17.869-16.066 28.617-2.294 14.491 3.838 52.423 26.423 43.922 15.004-5.648 26.305-25.964 25.045-41.518-.505-6.226-2.94-18.046 5.675-19.727 11.036-2.153 12.595 10.012 11.477 17.917-1.624 11.5-7.702 22.193-14.655 31.285-6.06 7.924-13.108 12.879-20.4 19.424-2.16 1.937-7.666 6.293-6.741 9.897 1.014 3.95 9.668 5.072 13.133 5.721 17.143 3.21 36.475.257 53.589-1.983 35.174-4.607 69.885-15.951 98.727-36.808 1.165 12.905 2.634 25.767 3.175 38.719.263 6.287.33 12.665 1.048 18.918.443 3.846 2.042 9.22-2.328 11.427zm-97.53 44.968c-1.382.721.111-3.647-.273-2.202 2.063.74 2.154 1.474.272 2.202zm145.91-156.178c2.192-2.416 8.181-8.163 10.082-2.709.707-2.325.799-5.769 3.53-2.629 1.086-3.857 13.077-3.496 16.047-3.666 9.51-.544 19.058-.835 28.534-1.78 19.473-1.94 39.285-.94 58.829-1.003 4.232-.014 8.453-.243 12.654.37 4.054.593 8.315 2.255 12.447 1.648 3.674-.54 6.083-1.553 9.864-1.12 4.526.519 8.918.888 13.483.87 20.192-.073 40.374.745 60.57.777 3.936.006 8.652-.763 12.345.909 1.368.62 2.863 2.682 3.908 2.908 1.197.259.486-1.61 2.089-.765 2.147 1.129.485 4.602-.933 5.153.849-.33-1.534-.655-1.295-.668-1.131.061-2.096.928-3.31.874-1.85-.08-3.398-1.209-4.888-2.202-.026.406.793 3.109-.142 3.245-.804.118-1.558-2.547-1.639-3.167-4.518 3.985-9.305 1.764-14.911 2.268-3.977.359-12.269 3.011-15.043-1.14a4.226 4.226 0 01-1.062 2.319c-.792 1.207-1.478 1.105-2.057-.311-.196.009-2.128.429-2.166.426-1.36-.108-3.122-.596-4.505-.714-2.14-.183-1.746 1.375-3.45 1.4-.932.013-3.306-1.331-4.93-1.415-2.812-.147-5.684 1.046-8.458.685-1.91-.248-3.636-1.803-5.51-1.863-2.335-.078-3.092 1.703-4.942-.798-.38-.103-.614 1.368-.764 1.394.036-.007-1.76.26-1.973.342-.37.141-1.806.8-2.243.806-.944.018-1.457-.658-2.458-.674-1.656-.028-6.943 1.43-6.795-1.634-5.91 2.19-10.953 1.337-17.019 1.854-2.783.239-4.531-.134-7.179-.645-3.316-.64-5.518.164-8.825.327-3.178.156-4.18-1.19-6.863-2.403-1.058-.479-1.757-1.11-3.055-.844-.74.152-.213 1.398-.432 1.483-1.14.44-1.936-.026-3.5.08-2.885.197-4.034 2.61-7 .345l2.958-.36c-2.837-1.203-6.58-1.816-5.894 2.563-2.42-.34-.325-1.987-1.514-2.577-1.19-.588-2.521.397-4.02.884-3.955 1.283-7.253.646-11.377.416-4.687-.262-15.65 3.562-19.006-1.402-.1 1.046-1.224 3.96-2.719 3.823-.487-.045.871-3.139 1.025-3.466-.77 1.639-4.282 1.95-6.014 2.8.195-.88.388-1.761.582-2.641-1.607 1.711-2.388.667-4.28 1.239-.826.25-2.023 1.955-2.73 2.058-.823-.955-1.858-1.366-3.105-1.233a6.26 6.26 0 00-2.488-.121c-3.32.24-6.345 2.085-9.647.83-2.858-1.09-3.963-3.89-5.667.565l-1.345-2.376-1.66 2.578c-2.162-1.416-2.295-2.236-4.783-1.716-.584.233-1.183.2-1.796-.098l-.44 1.308c-.058 1.096-.384 1.459-.976 1.086a3.998 3.998 0 01-1.348-.815c-1.646.126-3.749.56-5.516.32-.682-.091-4.957-2.348-5.275-1.998zm50.378-29.483l.582.893c-2.673 1.411-3.302.6-3.578-2.233 1.306.025 1.529 2.322 2.996 1.34zm1.656-1.663c1.287.568 2.763 1.683 3.975.189.816 2.372-5.245 5.61-3.975-.189zm8.312 1.048c2.702 1.826-3.78.358-3.769.36 1.165-1.075 2.42-1.195 3.77-.36zm23.24-10.184c.927 4.676 3.483 4.543 7.608 2.37 6.016-3.17 7.032-8.362 7.451-14.561.403-5.944 1.13-8.245 7.26-7.004 4.277.866 7.896.138 12.209.019 4.602-.127 6.224.576 6.594 5.312.371 4.742 1.215 8.343 4.656 11.952 3.5 3.669 8.165 5.86 12.71 7.913 2.339 1.054 4.534 2.19 7.121 2.418 1.002.089 6.22-.571 6.329 1.08.08 1.24-7.144 4.74-7.91 5.158-3.35 1.822-6.692 3.457-10.352 4.56-8.42 2.541-17.348 2.691-26.069 2.537-14.062-.247-33.496-6.195-41.904-18.67l14.297-3.084zm-1.261-40.49c-2.225-1.867-3.666-4.688-5.514-6.899-.932-1.115-1.615-1.47-2.502-2.028-.934-.588-1.46.244-2.24-1.138-2.013-3.57 4.2-8.594-2.39-9.968-2.23-.466-7.595 1.3-8.246-1.894-.92-4.517 7.701-4.812 9.73-7.105 4.033-4.558 1.295-12.285 3.752-17.543 2.325-4.981 8.328-5.866 13.066-7.363 6.602-2.084 13.283-3.293 19.986-4.961 4.687-1.166 12.474-5.85 16.82-1.711-6.707 1.489-2.808 3.827 1.663 5.146 5.064 1.496 10.431 2.08 15.678 2.496 5.402.428 10.906.51 16.243-.567 4.936-.996 10.448-5.286 15.623-4.187-2.871 4.993-11.425 7.72-16.623 9.028-2.648.666-4.344.458-3.988 3.76.344 3.2 3.126 6.41 3.755 9.743.83 4.412.105 8.467-1.465 12.616-1.545 4.083-1.906 4.616-.556 8.517 2.104 6.074-2.418 12.788-6.597 17.199-16.902 17.836-49.247 11.08-66.195-3.141zM524.36 141.48c.068.182.01.113 0 0zm5.264 45.012c-.701.523-4.737 1.62-4.568.044.226-2.114 3.863-1.35 4.568-.044zm9.199-42.694c-.947-.706-3.6-.416-1.66-3.092l1.66 3.092zm-63.657-16.916c1.207-3.136 2.544-6.054 3.088-9.393.336-2.057-.332-4.406 2.544-4.729-3.665-1.598-3.702-7.906-3.919-11.176-.297-4.503-1.72-10.533.26-14.724 2.031-4.305 4.772-4.234 5.6.893.323 2.008-.916 2.658-1.15 4.056-.46 2.766.457 2.16 2.241.052.737 2.142 1.02 5.36 4.017 5.224-.2-.58-1.348-1.857-.964-2.576.589-1.105 3.468.583 3.834.839 2.63 1.839 3.2 3.518 1.324 5.837 2.596.28.417 2.553 2.093 3.145 2.557.904.842-3.378.565-4.131 1.556.607 2.078 1.3 3.064 2.53a26.08 26.08 0 011.58 2.64c.53 1.664 1.62 2.08 3.272 1.25 3.312 1.04 7.884.877 10.852 2.694 1.356.829 1.846 2.644 2.978 3.333 1.275.776 2.982.424 4.351.911-.501 1.138-.095 1.754 1.214 1.85 1.018.093 2.004.322 2.957.687a9.049 9.049 0 012.325-1.27c.563.991 1.358 1.236 2.387.737 3.054.572 4.521 1.727 6.462 3.454 1.742 1.55.324 1.676 2.233 1.538.767-.055 2.11-1.356 3.865-1.102 1.01.196 1.984.508 2.92.933 1.014.867 2.09.976 3.229.328 1.85.903 2.031 2.505 4.286 2.724 2.493.243 1.691-2.866 3.404 1.518 2.305-4.648 3.15 2.757 5.531 3.355 2.466.62 2.732-1.38 4.843.805.633.655.598 1.737 1.308 2.431 1.164 1.136 2.739.91 3.75 2.46-.564-.866.133 3.065.121 2.935.157 1.734-1.384 3.677 1.775 3.53-.036.181-1.553 2.392-1.849 2.142a8.33 8.33 0 01-.182-.767c-.339.146-.49 2.252-.427 2.624.268.042.378-.157.329-.597-.52 1.624.263 2.656-.734 4.198-.638.985-2.383 1.726-3.312 2.334a196.684 196.684 0 00-6.615 4.504c-5.093 3.644-10.796 8.039-17.21 8.8 3.221-3.164 21.756-15.134 12.46-18.57-1.725-.637-4.864-1.24-6.667-1.374-2.243-.166-4.562 1.118-7.035.316-2.986-.965-1.861-3.771-3.684-4.778-3.872-2.135-2.958 2.887-4.176 4.202-1.28-1.343-1.007-1.997-3.028-2.118-2.052-.124-2.54 1.773-4.935.591-3.3-1.628-1.553-4.872-6.233-4.948.078-.712.757-2.702-.136-3.257-1.204 1.561-.272 3.307-1.39 4.81-.56.754-1.773 1.355-2.659 1.6-2.075.569-2.37 1.66-2.032-1.464-1.538 2.77-6.253 1.63-9.058 1.352-4.56-.453-9.406-1.316-13.778-2.778-4.043-1.353-6.202-3.677-9.536-5.792-1.261-.8-1.862-.494-3.67-.99-1.785-.49-3.523-1.44-2.683-3.628zm9.621-49.049c.689-.414 1.184 5.774.349 6.93-1.527-2.416-4.236-5.96-.349-6.93zm2.2-2.468c2.213-2.004.675 3.171.27 4.04l-2.461-1.578c1.046-.642 1.307-1.663 2.19-2.462zm83.519-8.34c20.452 4.292 40.718 12.314 57.121 25.517 14.942 12.025 25.487 29.087 31.4 47.236 6.137 18.838 4.075 39.738-10.526 54.156-7.692 7.594-17.849 12.176-27.529 16.647-4.638 2.142-9.415 3.926-14.07 6.019-3.345 1.503-7.428 3.907-11.244 3.49 1.947-2.048 4.771-2.09 7.128-3.342 2.847-1.515 5.172-4.421 7.626-6.497 2.436-2.061 7.84-8.551 11.584-6.98-.52-3.458 3.42-5.063 5.195-7.343 1.877-2.412 2.012-5.233 5.472-6.022-3.716-2.908-2.578-8.391-1.77-12.35 1.034-5.06 1.512-9.708 1.92-14.859.735-9.286 1.327-21.116-3.804-29.28-1.665-2.65-3.785-5.086-5.27-7.84-1.791-3.318-1.396-6.238-1.396-9.876-3.273 2.2-3.963-2.285-5.346-4.47-1.038-1.64-2.4-2.557-2.735-4.62-.244-1.502 1.386-1.756.492-3.33-1.095.827-1.532 2.11-2.087 3.3-1.011-.405.181-1.813-.398-2.27-.017-.013-1.968-.86-1.87-.738-1.256-1.59-1.66-4.231-2.275-6.125-2.299 1.165-1.869 1.028-4.434-.918-.452-.342-2.71-1.916-2.922-2.43-.992-2.404.747-.98.26-2.473-1.396-4.286-9.234-3.476-9.855-9.899-3.822 2.427-5.28-1.011-7.54-3.457-2.315-2.505-6.2-3.469-5.99-7.442l-3.609 1.231c.625-3.666-4.822-3.433-6.795-5.293 1.095.014 2.184.1 3.267.258zm3.115 227.1c1.895-1.696 1.32.56 2.54.302 1.043-.22 1.249-1.01 2.249-1.251 4.121-.996 10.282.255 14.615.04 5.02-.248 13.623.794 16.015 6.667 1.441 3.536-.758 2.333-3.18 2.07-1.88-.203-3.549.177-5.408.158a8.118 8.118 0 01-2.746-.043 1.733 1.733 0 01-.79-1.238c-2.586-.391-5.333 1.139-8.197 1.215-3.823.102-7.22-.631-10.124-3.212-1.155 1.72-1.941 2.575-4.018 2.767-.054.005-2.083-.811-2.396-.893-.416-.108-1.467.764-2.268.515 1.421-2.264 1.628-5.239 3.708-7.098zm261.065 20.436c.675-2.347 1.239-4.725 1.854-7.087 9.435 10.74 17.692 25.12 21.408 38.895 2.413 8.951 6.17 25.171-5.337 29.788-9.373 3.76-14.6-9.72-16.97-16.36-5.236-14.658-5.236-30.322-.955-45.236zM412.55 146.255c.12-.024-6.108 3.598-4.056.665.824-1.18 3.951-2.01 5.338-2.01l-1.282 1.345zm-5.992 1.535c-.721.606-1.449 1.205-2.183 1.796l-2.117-3.343c1.39-.586 7.294-1.026 4.3 1.547zm-4.39 112.637c-1.304-.883-2.337-.414-2.729 1.068 0-1.474.768-4.9 1.948-5.3.763-.258-2.535-4.16-1.608-5.18 2.357 1.35.946 2.643 1.636 4.386.312.786 1.248 1.53 1.453 2.134.348 1.026 1.755 4.552-.7 2.892zm-6.386-8.779c-1.334.342 1.002 2.545 1 3.52-.002.736-.886 1.301-1.25 2.309-.792 2.183.57 3.658-1.671 5.324 0-4.784-3.21-17.46 2.959-19.792-3.01-2.37-.538-5.106 1.821-2.27 2.268 2.728.823 9.967-2.859 10.91zm-3.214-18.879c-1.213-4.3-4.863-5.804-9.035-5.55.159-2.2 1.827-5.375 3.032-1.407.496-1.173.84-2.703 1.97-3.48 1.902 5.965 11.388 9.261 5.482 15.725-.483-1.762-.952-3.528-1.45-5.288zm-11.024-5.229c-21.967 1.593-52.807 6.151-70.386-10.687-11.462-10.979-10.85-28.076-1.587-40.274 5.286-6.96 12.502-11.862 19.749-16.531 2.796-1.803 5.165-2.992 8.235-4.028.497-.054.965.057 1.402.333.173-.742.59-1.29 1.255-1.649 1.186-.634 2.875-.86 3.558-2.178-.729 2.474-1.104 5.02-1.371 7.58l-1.774-2.067c-.494 4.662-5.351 1.84-8.25 2.422 1.91 2.644 3.276 3.604 3.44 7.098-1.423-2.627-4.398-4.354-7.164-5.2 1.502 4.443 2.564 7.08 1.052 11.952-1.827-1.043-1.95-3.548-4.166-4.148-.585 2.905-.688 6.129-1.437 8.948-5.674-2.588-5.12 4.382-2.842 7.83 1.211 1.836 1.806 3.96 2.887 5.721 2.652 4.32.637-2.14 3.585-1.834-.662 4.557-.893 5.01 2.442 8.348 3.255 3.254 4.943 7.769 8.424 10.826 1.008-1.288-.577-2.636-.716-3.87 3.24.544 4.756 3.792 7.87.915 1.358 2.647 2.828 5.562 6.08 6.105-2.15-4.087 4.129-1.315 5.739-.735 1.221.44 3.409.79 3.88.96 2.653.957.834-.762 2.444 2.379 2.364-.714 3.257-2.675 6.084-1.018 2.3 1.348 2.304 3.656 2.83 6.02a132.016 132.016 0 011.707-4.618c.617.26 3.206 3.109 2.924 3.122 6.058-.297 5.844 3.465 4.106 8.278zM350.7 150.42c1.217-.853 2.702.284 4.068-.022 1.892-.422 2.966-2.042 5.079-2.216-.588 1.879-1.691 1.703-2.625 3.178-.318.503-.152 1.71-.435 1.999-2.368 2.425-3.186.446-5.603-1.39.21 2.214.636 2.913-1.45 3.507-1.888.539-5.005-1.444-5.957-2.965.803-1.606 5.467-1.068 6.923-2.09zm15.073-3.46c2.051.196-.42 6.248-3.359.378a16.474 16.474 0 013.359-.378zm10.547-1.17c3.235-.66 14.025-3.734 15.226 1.301.215-.125 1.018-2.968 1.391-2.621 1.494 1.39 1.661 3.232 1.547 5.162-1.806-3.762-1.164-.457-2.388-.715-.319-.068-.808.529-1.617.283-1.06-.324-1.821-2.58-2.49-3.345-1.116 1.591-2.498 3.641-4.731 3.503-1.58-.098-4.128-4.167-2.08.288-1.203-.397-2.594-1.296-3.933-1.116-1.499.203-2.278 1.682-3.683 1.921-3.115.528-3.585-2.47-5.607-4.097 2.789-.162 5.611-.002 8.365-.563zm19.571-.048c.228-1.032 3.059-1.449 3.78-1.121 1.759.799 1.108 1.854.785 3.609l-3.916-1.853c1.948 3.138-1.582 3.593-.649-.635zm547.94 183.796c-.232-7.52-.45-15.169-2.357-22.49-1.334-5.123-4.612-14.31-10.81-15.2-9.35-1.341-14.526 17.136-17.145 23.478-.525-7.467-.066-15.415-2.887-22.502-2.258-5.68-7.963-11.059-12.877-4.68-4.372 5.676-5.212 14.055-6.363 20.885-1.491 8.85-2.387 17.768-3.476 26.67-4.27-8.251-5.016-17.697-8.391-26.273-3.185-8.093-8.196-15.822-13.024-23.02-3.941-5.88-8.738-11.408-14.913-15.002-5.376-3.128-14.776-6.512-19.9-1.317-4.275 4.335-3.605 10.136-3.383 15.607.1 2.436.482 4.106-1.66 5.334-1.053.603-2.699.29-3.855.613-1.865.52-3.295 1.403-4.871 2.575-11.056 8.217-16.152 23.025-17.729 36.227-1.997 16.728 4.524 31.068 10.136 46.374.894 2.439 3.734 7.614 3.342 10.337-.43 2.983-4.175 3.06-6.702 3.123-7.632.188-15.61-.38-23.203-1.092-18.08-1.691-36.146-10.395-52.334-18.166-2.953-1.418-7.132-2.23-9.543-4.463-2.266-2.099-2.864-5.463-4.82-7.87-4.801-5.909-7.86-10.95-14.93-14.52-7.2-3.634-14.546-6.993-21.57-10.973-8.686-4.925-16.712-11.163-25.036-16.677-15.47-10.245-30.835-21.476-47.236-30.188-7.62-4.049-16.138-4.704-24.05-8.02-7.706-3.227-17.164-3.231-25.205-1.193-3.917.994-6.582 3.348-10.185 4.885-4.221 1.801-7.665-.187-11.38-2.337-5.676-3.284-11.302-8.636-3.22-12.18 2.742-1.202 6.178-1.657 8.573-3.548 2.554-2.013 4.603-5.73 6.68-8.252 4.614-5.609 7.37-12.065 14.126-15.553 7.47-3.857 16.325-4.907 24.29-7.428 8.63-2.73 17.08-5.977 25.549-9.165 15.259-5.743 31.122-11.944 42.087-24.588 9.457-10.907 13.579-24.987 13.197-39.287-.78-29.233-16.44-58.902-38.908-77.18-27.551-22.412-62.6-29.886-97.402-29.494-16.333.184-35.824 2.322-49.453 12.245-11.77 8.571-13.73 23.563-11.978 37.095.71 5.492 3.14 12.74-.734 17.58-2.168 2.707-6.06 3.377-8.979 5.065-3.67 2.12-6.905 4.154-11.06 5.275-17.654 4.768-36.249 3.108-54.299 2.844-30.068-.44-60.888 7.7-83.318 28.888-18.114 17.108-23.546 49.369-1.454 66.047 17.849 13.474 45.845 11.992 66.891 9.642 6.526-.73 11.014-1.79 11.029 6.195.016 8.722-1.428 17.838.797 26.4 3.505 13.486 16.463 13.807 27.92 10.903 6.044-1.532 11.888-3.836 17.628-6.25 8.42-3.538 16.138-8.742 24.453-12.275 5.637-2.394 9.858 5.349 14.858-.019.924-.992 1.095-2.47 2.488-2.978 2.184-.795 5.847 1.993 7.763 2.875 2.868 1.32 5.76 2.291 6.905 5.47 1.072 2.975.602 7.705-.425 10.64-2.231 6.378-8.239 5.117-13.724 4.69-9.566-.744-19.069-2.323-28.632-2.986-8.58-.594-16.615 1.97-24.015 6.2-15.544 8.887-28.26 23.022-41.738 34.646-6.937 5.982-13.642 12.444-21.185 17.653-3.28 2.266-6.832 4.348-9.682 7.163-2.829 2.792-3.14 5.33-4.107 9.047-1.723 6.616-10.279 9.85-15.627 13.34-7.563 4.937-15.581 8.419-24.06 11.448-17.955 6.414-36.052 10.892-54.824 14.202-9.19 1.622-18.305 2.687-27.585 3.562-8 .754-16.506 3.218-24.496 1.25 2.301-3.733 6.379-5.974 9.555-8.86 4.094-3.718 7.576-8.126 10.675-12.692 6.031-8.892 10.262-18.433 11.233-29.218.876-9.707-.128-21.318-5.985-29.518-2.023-2.833-6.026-3.603-7.836-6.155-1.8-2.536-1.114-6.903-2.1-9.86-2.51-7.522-9.956-16.843-16.51-21.212-7.11-4.74-17.51-6.482-25.724-4.012-15.216 4.577-24.563 20.838-31.526 33.98-3.803-8.003 2.566-19.877-4.864-26.43-6.267-5.53-11.24 5.18-13.337 9.762-9.84 21.51-12.074 44.322-16.196 67.336-1.68-1.656-.82-5.906-.661-7.882.294-3.677.267-7.284.274-10.976.02-9.329 1.754-18.7.96-28.02-.46-5.388-2.178-16.748-10.005-14.958-6.639 1.518-10.797 10.853-12.883 16.56-3.008 8.232-3.703 16.381-3.515 25.077.207 9.608-1.624 19.06-2.068 28.654-.861 18.637-.01 37.112 5.337 55.099 8.757 29.454 28.89 53.926 55.762 68.704 14.805 8.143 31.229 13.295 48.115 14.403 9.151.6 17.985-.49 27.058-1.435 8.953-.934 17.953-1.366 26.89-2.461 19.905-2.441 39.3-8.743 57.392-17.222 9.523-4.464 18.479-9.944 27.846-14.703 3.759-1.908 6.298-4.297 9.506-6.952 3.18-2.63 4.06-2.837 7.677-2.837-1.061-2.838 2.035-3.713 3.413-5.509l-.232 2.612c1.05-2.278 2.028-2.256 2.933.066.894-2.6 1.556-5.274 2.636-7.809 4.129 2.09 3.782 7.057 9.303 3.43 4.547-2.984 8.728-6.506 13.363-9.43 10.559-6.666 19.663-15.338 30.252-21.926 0 6.417.453 12.889-.405 19.273-.816 6.07-3.082 11.745-4.885 17.557-3.324 10.722-3.554 22.18-7.237 32.795-1.525 4.396-5.494 8.072-6.633 12.351-1.16 4.366 1.52 7.864-2.972 10.73-3.168 2.02-7.127 2.874-10.635 4.096-5.35 1.866-10.43 4.497-15.638 6.73-24.43 10.467-48.26 21.128-70.893 35.203-21.48 13.356-43.288 27.15-63.02 43.013-17.125 13.767-34.436 31.567-38.605 54.025-4.045 21.783 6.733 45.165 28.374 52.339 11.252 3.73 23.973 3.268 35.691 3.43 12.61.174 25.97-2.865 38.368-5.064 13.092-2.322 25.96-5.956 39.09-8.03 12.598-1.99 24.152-6.437 36.544-9.177 13.198-2.92 26.735-4.503 40.006-7.129 5.975-1.182 11.828-2.926 17.82-4.02 6.558-1.198 13.189-1.648 19.684-3.234 12.598-3.08 24.66-8.043 37.313-10.907 5.688-1.288 11.29-3.013 16.98-4.217 5.24-1.108 9.322-4.053 14.573-1.634 4.242 1.954 7.626 5.304 11.64 7.638 5.208 3.027 10.698 5.739 16.127 8.344 10.908 5.234 22.221 8.852 33.627 12.781 11.98 4.129 23.745 8.836 36.157 11.563 12.724 2.794 25.705 3.572 38.517 5.783 26.24 4.526 52.256 6.558 78.89 6.723 13.463.084 26.924-1.512 40.355-1.323 11.891.167 22.228 2.847 33.1-3.474 17.374-10.1 37.525-25.315 37.098-47.413-.388-20.016-12.394-39.139-23.655-54.925-13.676-19.171-33.175-32.671-52.285-45.895-20.368-14.093-43.246-23.831-64.652-36.133-10.948-6.291-21.045-13.06-32.932-17.531-5.675-2.133-11.21-4.607-16.819-6.905-4.513-1.848-11.028-2.87-14.89-5.937-2.41-1.914-2.642-4.812-3.278-7.657-1.41-6.297-3.624-12.268-5.77-18.34-4.145-11.727-6.9-23.67-8.681-35.967-1.698-11.723-5.467-23.915-3.515-35.83 12.84 12.42 26.032 24.358 39.169 36.448 4.923 4.53 9.754 9.157 14.703 13.66 3.715 3.381 8.361 8.403 13.54 9.406 6.614 1.282 4.198-6.034 8.74-7.168 2.774-.692 11.145 6.36 13.34 7.753 13.908 8.83 29.31 14.425 44.607 20.436 16.041 6.302 32.539 11.9 49.8 13.486 15.944 1.468 32.248-.415 47.634-4.759 30.641-8.65 53.19-29.176 69.737-55.782 18.855-30.318 32.575-65.833 31.465-102.025z"/><path d="M475.521 263.445a7.594 7.594 0 00-.052.11c.058-.04.075-.077.052-.11"/><path d="M477 263.837a10.78 10.78 0 00-.743-2.837c-1.014 1.608-1.922 2.297-.59 4l1.333-1.163M547.658 493.679c1.134-1.208-.85-1.663-1.604-1.679.075 1.295-.567 4.4 1.205 5-.425-1.172-.292-2.279.399-3.321M517.726 241.043c-1.95 3.766 2.358 4.934 4.852 3.115 1.876-1.368 2.986-4.855 3.294-7.092.997-7.238-4.068-14.128-6.594-20.551-.652-1.66-1.546-7.354-3.648-7.51-2.414-.18-2.593 5.064-2.624 6.417-.093 4.08.987 8.236 2.253 12.087 1.364 4.152 4.745 9.136 2.467 13.534M527 225.94c7.496 6.674 13.492-4.442 12.968-11.017-.13-1.63-1.23-7.636-4.32-5.45-1.552 1.098-.229 4.667-.969 6.234-3.585 7.596-7.037-4.187-9.45-5.112-2.938-1.127-3.233 2.732-3.229 4.795.007 4.095 1.956 7.838 5 10.55M499.793 226.977c1.765-2.78 3.936-6.51 4.176-9.84.372-5.177-2.644-4.745-5.128-1.133-1.753 2.552-3.069 6.88-6.94 5.804-4.78-1.326-3.32-7.754-5.996-10.808-6.757 9.076 6.03 28.347 13.888 15.977M509.92 254.752c2.795.604 10.082.382 7.557-3.898-3.184-5.39-13.772 2.554-7.557 3.898M607.831 94c.512-1.524-.191-1.8-1.41-3-1.156 1.066.323 2.188 1.41 3M659.961 369.95c1.844.292 2.438-.683 1.78-2.927-2.91-.188-3.502.787-1.78 2.926M559.276 134.55c2.034.93 1.255 2.838 1.22 4.45 1.048-1.138 3.164-3.22 2.302-4.855-1.327-2.521-4.796-.177-3.522.405M490 102.815l-.93-1.815c-1.263 1.014-3.213 3.694-1.206 5a19.324 19.324 0 002.136-3.185M514.402 120.604c2.53 1.984 1.317-4.107 1.24-4.604-.375.714-2.518 3.601-1.24 4.604M513 117.51l-.581-1.51c-1.026.95-2.282 2.889-.588 4a14.06 14.06 0 001.169-2.49M529.07 138.427c.208.19.414.381.62.573.835-1.684-.114-2.948-1.69-3 .112.945.469 1.754 1.07 2.427M461.265 327.834a16.315 16.315 0 002.735-2.338c-2.97-1.816-1.19 2.12-4.767-.297-.77 1.065.488 3.449 2.032 2.635M586.102 493c1.13-1.734 1.334-1.684-.209-3-1.287 2.143-1.154 1.592.21 3M350 217.077l1.845 1.923c.287-.84 1.853-3.21.79-4L350 217.077M371.874 223.422c-.982-.164-3.33-.88-3.874.033 1.437 1.177 4.678.102 3.874-.033"/></g></g></svg>