<svg width="1024" height="768" xmlns="http://www.w3.org/2000/svg"><g fill="none" fill-rule="evenodd"><path d="M289 498.202l65.62-34.65c20.741 46.241 72.813 75.911 122.863 64.97 12.199-2.667 24.292-8.695 30.149-20.331 4.406-8.75 4.571-19.027 2.577-28.457-1.68-7.945-4.81-16.33-9.928-22.725-6.432-8.035-16.32-14.206-24.32-20.51-12.399-9.771-24.909-19.399-37.453-28.98-1.645-1.255-6.224-3.512-7.145-5.443-.772-1.617 0-5.543 0-7.314v-8.334c18.2 6.64 38.498 10.294 57.842 9.298 32.202-1.659 58.058-24.975 81.024-45.682a376.598 376.598 0 0012.05-11.332c.753-.741 2.659-3.482 3.71-3.69 1.405-.277 5.098 2.05 6.39 2.57l13.412 5.392c10.884 4.375 21.824 7.949 31.652 14.375 41.703 27.273 86.068 60.619 105.025 108.396 10.775 27.156 17.201 56.154 21.124 85.072.534 3.943 1.905 8.854 1.22 12.794-1.251 7.222-5.352 14.875-7.827 21.75l-9.432 26.207c-.347.964-.776 3.4-1.582 4.005-1.68 1.26-7.284.83-9.3 1.052-11.578 1.273-23.186 2.563-34.82 3.202-10.456.575-20.208-2.101-30.18-5.08-5.55-1.658-11.06-3.452-16.54-5.325-1.233-.422-7.261-1.556-7.965-2.796-.308-.544.73-3.098.872-3.696a386.604 386.604 0 002.54-11.458c5.594-27.048 9.714-55.395 7.352-83.052-2.46-28.813-18.454-51.576-38.604-71.285a249.004 249.004 0 00-23.555-20.297c-1.447-1.099-4.088-3.96-5.918-4.328-1.469-.295-2.573.932-4.038 1.89l-12.733 8.318c-1.14.744-5.59 2.709-6.002 4.021-.347 1.106 1.466 4.762 1.77 5.826a256.042 256.042 0 013.474 13.61c6.806 29.915 9.985 62.659 1.623 92.577-7.894 28.254-26.132 53.68-50.597 69.768-25.309 16.643-54.743 20.762-84.12 15.032-52.247-10.195-105.812-40.85-134.267-87.046-7.285-11.828-12.79-24.761-15.963-38.314" fill="#FF5678"/><g fill="#000"><path d="M758.934 561.95c-2.03 16.085-9.22 31.37-18.12 44.748-1.172-2.326.247-4.248-3.003-4.69-2.181-.297-5.066 1.245-7.218 1.611-7.98 1.358-16.36.314-24.333-.54 2.066-2.242 4.797-4.057 3.768-7.703-.778-2.754-4.153-3.824-5.471-6.37 1.798-.779 6.736 3.154 8.467 3.818-.858-2.16-3.776-6.027-3.15-8.399.46-1.744 2.722-1.41.84-3.645-.86.768-3.612 4.475-5.11 3.554 1.45-1.31.39-2.024 1.028-3.341.494-1.018.932-1.511 1.617-2.399 1.77-2.296 2.93-5.23.678-7.924-.752-.902-2.042-.71-2.747-1.729-.68-.982-.538-2.134-.724-3.237-.207-1.238-.106-2.631-.448-3.844-.708-2.504-.979-2.466.23-5.047l-3.724 3.194c-.615-2.613-1.073-5.383-2.347-7.774-.43-.809-2.734-2.944-2.632-3.787-.298 2.456-2.266-.438-3.068-.641-2.53-.638-6.997 1.858-8.925 3.399-5.326 4.255-8.504 12.365-11.867 18.17-3.694 6.379-7.405 13.46-8.377 20.791-.243 1.825-.3 5.663-2.364 6.583-1.11.496-5.737-.834-6.882-1.497-2.798-1.621-1.82-4.05-.734-6.62 1.405-3.325 2.67-6.178 3.318-9.786.774-4.315 1.33-8.68 2.002-13.015 1.407-9.088 2.82-18.219 3.544-27.393.232-2.934-.137-5.855-.026-8.723.097-2.501 2.016-5.392.952-8.375-.365-1.023-1.124-1.262-1.073-2.128.032-.537 1.402-.033 1.585-.74.356-1.377-.958-2.786-1.294-4.063-.533-2.016-.124-3.879.183-5.9 1.247-8.21-1.063-16.853-3.267-24.752-2.38-8.534-5.614-16.745-8.933-24.946-2.921-7.22-4.151-15.055-7.59-22.065-2.972-6.055-6.22-12.066-11.576-15.986-2.454-1.796-4.227-4.512-6.563-6.495-1.392-1.183-2.885-2.452-4.56-3.212-1.616-.733-3.55-.306-5.025-1-2.048-.961-4.322-3.38-6.51-4.324-1.891-.816-4.06-1.373-5.83-3.083-2.398-2.32-2.844-3.864-6.212-4.31-1.949-.256-3.88-.143-5.263-2.08-5.47-7.668 9.283-18.74 2.453-26.739-2.719 2.743-3.88 6.643-5.193 10.17-1.72 4.621-4.14 8.514-6.862 12.608-4.764 7.167-11.87 14.434-13.917 22.984-3.336-4.667-5.215-7.448-10.25-2.833-.947-2.09.301-6.071-1.582-7.414-3.31-2.362-9.627 3.519-11.433 5.653-7.07 8.356-11.02 18.53-14.901 28.693-1.714 4.49-3.556 10.174-1.372 14.819 1.933 4.11 6.531 6.363 10.449 8.126 5.546 2.495 10.137 2.365 16.03 2.988 2.705.285 5.143 1.467 7.721.091 2.232-1.19 3.825-3.567 5.765-5.145.456 1.483 1.638 2.787 3.144 1.474 2.204 9.26 4.399 18.323 3.867 27.92-.489 8.805-1.256 17.647-2.827 26.329-1.62 8.954-3.515 18.055-7.042 26.476-3.489 8.333-8.84 15.672-13.713 23.216-1.483-3.027-3.25-1.532-5.395-.112-.852-1.811.242-3.193-.941-4.799a8.711 8.711 0 01-2.044-1.662 29.762 29.762 0 00-.872-3.809c-1.903.777-2.711 1.696-3.58 3.52-2.866-5.048-4.895-4.407-10.23-4.082-7.147.434-9.43 6.62-11.796 12.428-.562 1.384-1.604 3.127-1.726 4.66-.088 1.082.872 2.896.742 3.455-.269 1.15-1.309.191-1.59.759-1.032 2.084-1.295 5.039-1.844 7.298-1.465 6.045-1.911 15.817-7.863 19.256-4.983 2.879-12.133 3.56-17.72 4.644-8.79 1.705-18.096 2.014-27.028 2.061-7.983.044-17.527 1.005-25.105-2.004-1.11-.44-6.364-2.912-5.14-4.17.532-.547 3.41.356 4 .671-.4-.212-.698-2.663-.899-3.218-.75-2.065-1.326-2.136-2.75-3.7-3.16-3.468 1.106-1.868.818-4.354-.056-.479-3.435.76-3.342.728.11-.756.806-2.324.448-3.082.262.556-1.95-4.108-1.687-3.046-.512-2.06.925-4.092.628-6.085-.42-2.824-2.486-2.26-4.103-3.931-.555-.574-.775-1.738-1.32-2.395-.237-.286-1.103-.336-1.191-.49-.591-1.027-.554-1.198.067-3.359-1.198.525-4.354 2.698-5.574 1.513-1.47-1.427 1.614-3.099-.937-4.081-1.028-.396-1.617.71-2.534.746-.616.024-.736-1.495-1.505-1.095-1.372.714-1.728 3.708-2.333 5.006-3.427-8.745-14.475 5.63-16.515 9.004-1.89 3.123-1.997 9.296-6.661 8.817-2.45-.252-5.262-2.931-7.215-4.242-2.865-1.924-5.927-3.524-8.888-5.298-13.143-7.875-25.535-16.557-37.173-26.537-4.281-3.671-10.012-8.227-10.582-13.916-.228-2.278-.504-4.358-1.136-6.664-1.27-4.64-2.95-3.822-6.66-6.35 1.486-2.933 3.607-3.085 3.478-6.636-.106-2.884-1.21-5.763-2.179-8.424-1.237-3.394-1.835-7.21-5.46-8.152-3.862-1.004-4.478.874-7.034 3.586.264-1.46 1.444-5.165-.194-6.108-2.28-1.311-3.511 3.53-5.302 4.054-1.541-3.442-6.758-8.8-3.107-12.221 1.842-1.726 5.42-2.388 7.704-3.433 3.395-1.553 6.69-3.331 9.986-5.08 14.651-7.771 28.88-16.254 43.411-24.238 2.563 5.935 4.85 12.008 7.803 17.768 2.462 4.805 6.866 9.353 6.688 15.04-.183 5.92-2.862 11.744-3.503 17.666-.424 3.92.163 5.466 4.477 4.103.373 2.702 4.726 6.617 7.048 7.991 3.737 2.211 7.458-1.84 10.064-4.351 1.842 1.751 2.231 4.338 3.752 6.291.765-.821.65-3.151 1.136-3.53.466-.366 2.096.435 2.432.426.509-.015.078-1.461.49-1.479 1.315 3.243 4.353-2.18 7.274.042-.351-1.702.129-2.288 1.589-3.1.756 3.524 3.852 1.865 6.525 2.255 4.75.69 9.386 3.352 14.054 4.56 9.617 2.487 18.697 3.864 28.6 3.703 3.963-.064 5.63.539 7.966 3.634.89 1.177 1.32 2.653 2.862 3.209 2.26.815 2.388-.704 4.22-1.134 1.866-.438.886-.907 2.642.016 1.079.568 1.717 2.37 2.6 3.213 2.497 2.386 5.15 3.29 7.237.02.396 1.196.846 1.563 1.784 2.353-.134-1.885-.415-5.66 2.698-4.768 2.326.665 1.244 4.012 4.546 3.431 1.851-.325 3.39-3 4.498-4.348 1.518-1.847 1.583.688 1.882-2.467.176-1.87-1.045-4.195-1.786-5.827 2.773.571 3.268 3.507 6.025 3.766 3.087.29 4.665-3.813 7.657-3.025-.29-.69-1.407-2.991-.916-3.672.756-1.047 1.84 1.438 3.02 1.203 1.285-.257 2.71-3.751 2.441-4.928-.537-2.346-3.262-1.753-4.3-3.614-.946-1.7-.11-4.815-.154-6.657-.061-2.51-.643-5.055-.208-7.562.458-2.636 1.786-4.816 3.6-6.762 1.26-1.352 4.77-3.446 1.695-5.001 5.449-2.013 2.231-7.642 2.656-12.322.264-2.91 1.435-5.027.787-8.155-.773-3.742-2.77-7.225-4.834-10.388-2.055-3.152-4.173-6.078-7.23-8.307l-2.49-1.679c-.572-.803-1.291-1.036-2.16-.699-1.405-1.07-1.662-1.94-2.7-3.47-2.612-3.851-7.241-5.752-11.081-8.039-3.689-2.197-6.897-5.218-10.764-7.105.02.009-4.06-1.75-3.717-1.293-1.406-1.88.026-4.207-.046-6.234-.075-2.081-1.323-2.998-1.905-4.793-.694-2.135.553-4.786-.703-6.696-.49-.744-1.45-.952-2.046-1.608-1.015-1.116-1.466-2.62-2.542-3.718l-3.166 3.738c-1.246-3.03-1.493-3.818-4.047-.94-3.898 4.395-6.108 2.5-9.285-1.584-1.05-1.35-2.272-1.615-3.058-2.607-1.251-1.577.094-4.339-1.692-5.715-1.04-.803-2.496.009-3.373-1.372-1.078-1.697.681-4.219-.311-6.121 14.929 4.727 30.163 8.495 45.94 7.346 15.326-1.115 30.977-4.874 45.042-11.1 24.404-10.804 48.205-28.574 57.797-54.346 2.403 2.821 1.902 7.967 4.554 10.556 3.94 3.848 3.586-3.844 3.586-6.293 3.159.846 7.667 2.186 7.923 6.036.26 3.89-3.238 7.943-4.468 11.48-1.236 3.557-1.852 7.67-1.551 11.427.15 1.877.497 3.822 1.435 5.481 1.147 2.028 2.42 1.927 3.96 2.853-.254-.151 1.924 1.32 1.86 1.305 4.584 1.101 8.264 4.546 13.19 3.3 3.172-.804 6.238-3.126 7.41 1.517 2.204-1.483 2.477-2.63 2.416-4.817-.027-.947-1.371-1.756-.024-2.056.448-.099 2.119 1.931 2.773 2.119 1.808.517 2.504-.21 3.376-1.57.502-.784.536-6.08 1.138-6.192 1.277-.237 3.945 5.216 4.656 6.193 0-15.637 16.307 2.486 21.382 5.94 4.129 2.81 8.614 5.3 12.076 8.968 4.41 4.672 3.134 7.387.157 12.437-3.295 5.59-5.677 12.103-8.676 17.932-1.505 2.925-3.308 6.436-3.266 9.836.015 1.146.675 2.33.614 3.443-.09 1.61-.87 2.293-1.517 3.703-1.864 4.058-.193 8.905 3.745 10.915 2.524 1.288 5.12 2.102 7.558 3.59 2.577 1.573 5.124 3.27 8.262 3.378 2.028.07 3.148-.474 5.106.134 1.328.412 2.437 1.608 3.976 1.457 3.076-.303 5.333-3.699 8.493-4.398 2.339-.517 5.375-.217 6.867-2.512 1.849-2.848-1.672-5.685 1.137-8.307a13.33 13.33 0 011.472 4.724c.83-2.188 1.164-3.946 2.388-5.907 1.278-2.049 2.004-3.383 1.982-5.969-.04-4.64-2.284-8.964-3.407-13.378 3.93.217 7.166 6.988 8.88 9.827 3.16 5.239 6.43 10.409 9.574 15.658 3.947 6.588 8.96 13.832 11.497 21.108 2.29 6.566-3.251 10.79-6.302 16.127-3.61 6.316-4.703 12.363-6.674 19.136-1.577 5.418-1.756 11.436 2.667 15.546 1.974 1.835 4.484 2.901 6.942 3.898 2.932 1.19 3.705 3.37 6.852 3.997 2.51.5 5.29.747 7.858.667 4.397-.137 2.8-1.588 5.236-4.363-.762 2.607 1.814 5.08 2.528 7.47 1.002 3.345 1.232 7.039 1.643 10.497.905 7.582.449 15.143-.504 22.695m-58.852 69.441c-3.95-.895-9.836-.357-13.388-2.321-2.462-1.362-1.346-2.675-.326-5.247 2.767-6.974 10.474-7.749 17.298-5.85l-3.584 13.418m7.11 52.37c12.527 6.787 26.193 14.062 36.272 24.258 2.368 2.396 8.77 7.72 7.917 11.64-.891 4.094-8.94 3.3-11.914 3.192-14.399-.527-27.885-4.138-40.786-10.466-12.335-6.052-24.226-12.244-33.201-22.927-3.637-4.327-10.295-11.004-9.54-17.181.75-6.133 7.046-10.78 10.385-15.591 3.273-4.718 7.335-15.037 13.447-16.6 2.665-.68 5.342.823 7.827 1.579 2.372.72 5.963.716 7.992 2.305 3.675 2.878 2.204 9.515-1.656 11.37-2.57 1.235-5.558 1.768-8.254 2.663-3.03 1.006-18.323 5.616-12.627 10.835 3.965 3.633 11.023-.803 15.271-1.815 2.182-.518 5.687-1.19 6.984 1.299 1.261 2.424-1.027 4.944-3.018 6.07-2.957 1.675-6.74 1.415-9.306 3.877-2.094 2.01-2.636 4.397.238 5.609 7.638 3.224 15.998-4.436 23.97-.117M550.026 567.65c-.441-1.713.686-2.684 2.466-1.935-.392 1.117-1.213 1.762-2.466 1.935m-124.214 37.073c-1.612-.218-.961-2.251-.299-3.261 1.069.833 1.168 1.92.299 3.261m-112.159-70.531c-2.049-2.284 1.045-6.239 4.122-4.389-1.003 1.507-3.02 2.636-4.122 4.389m-7.429-95.624c-3.315-5.903-3.549-18.725-12.164-19.506-3.167-.287-8.803 3.683-11.522 1.807-2.465-1.7-.316-10.264-3.905-10.135-5.058.181-2.46 10.093-4.743 12.55-1.307 1.404-4.255 1.968-6.078 1.724-2.771-.37-3.01-1.623-3.08-4.222-.053-1.924 1.341-9.627-2.984-8.348-3.15.931-2.39 7.696-2.701 10.097-1.158 8.934-14.153 8.516-20.963 9.274-4.132.458-23.498 3.546-19.195-4.995 1.82-3.612 6.282-6.616 9.319-9.13 5.169-4.282 11.074-7.656 17.236-10.278 11.46-4.875 24.372-7.47 36.798-5.768 13.99 1.913 25.511 8.817 34.851 19.231 1.93 2.153 7.38 7.13 5.293 10.195-1.16 1.706-5.176 2.129-6.973 2.763-3.255 1.15-6.428 2.638-9.189 4.741m20.594 4.312c4.754-1.8 5.833 4.131 7.664 7.336 1.567 2.745 5.042 6.912 3.218 10.135-1.657 2.933-6.727 4.68-9.58 5.917-3.735 1.62-7.64 2.824-11.367 4.457-1.953-4.652-3.646-9.422-5.706-14.025-1.163-2.596-3.546-6.168-1.501-8.763 3.386-4.294 12.551-3.27 17.272-5.057m131.859-175.563c.367-5.33 3.858-3.584 5.205.083 1.464 3.983 1.63 8.717 1.747 12.917.087 3.203-.57 8.211-3.628 3.543-2.938-4.484-3.683-11.346-3.324-16.543m18.79 21.488c-.527 6.453-4.206 1.99-5.553-1.45-1.965-5.022-3.467-11.512-2.749-16.921.83-6.242 3.875-2.323 5.234 1.495 1.92 5.401 2.004 11.286 3.068 16.876m7.988-5.264c-4.143 1.123-10.603-23.316-5.007-24.15 4.651-.693 9.091 23.044 5.007 24.15m16.588 2.548c-.038 5.423-4.509 1.147-6.073-1.042-2.866-4.01-5.124-9.994-5.287-14.918-.152-4.622 1.872-8.377 5.108-3.399 3.595 5.53 5.088 12.978 6.252 19.359m-36.195-62.608c4.035-11.327 9.07-21.74 15.799-31.709 1.207-1.789 2.418-3.827 4.062-5.25 1.33-1.154 3.249-1.443 4.501-2.567 2.521-2.26.594-4.527-1.86-5.711-4.121-1.99-11.455-1.702-8.578-8.317 3.977-9.139 14.284-4.045 18.34 2.167 1.643-3.879 4.528-2.933 8.046-3.198 5.259-.398 10.205-2.919 15.516-2.83 4.925.083 9.459 2.48 14.395 2.566 5.496.099 10.087.327 15.433 1.867-2.785 5.645-6.243 11.226-11.544 14.823.954-1.763 4.259-6.499 1.295-7.807-2.005-.884-6.287 2.82-7.99 3.675a8.297 8.297 0 00-1.625-4.534c-5.207 3.643-3.453 9.897.99 13.323-3.885 2.027-7.947 3.806-12.308 4.464-4.303.651-8.629-.363-12.909.365-7.51 1.277-13.122 8.011-14.318 15.4-.649 4.011 1.54 14.1 4.797 6.278.651-1.562.985-3.404 2.017-4.777 1.701-2.264 3.007-1.466 5.5-.924 2.068.45 5.69.902 6.475 3.192.703 2.055-1.132 4.817-2.171 6.38-3.562 5.369-8.886 10.009-15.32 11.225-3.643.688-31.414-.035-28.543-8.101m8.667-73.508c-2.335-1.566-.582-5.648-.305-7.735l1.242 2.292c-.29-4.892.378-8.844 1.42-13.592.396-1.803.253-3.336.334-5.142.047-1.034-.146-1.767.281-2.388.547-.798 1.202 1.523 1.172 1.319 2.491-3.005.469-3.642 1.197-6.666.009-.038 2.292-2.48 2.544-2.94 1.203-2.197 1.445-3.044 3.524-4.319 2.108-1.293 1.398-.014 2.543-2.78 1.102-2.662 1.03-4.5 1.67-7.29.984.72 1.978.74 2.983.065-.931-.258-1.43-.869-1.492-1.834 2.569-.263 4.844-2.756 7.18-1.896-.589-1.01-.994-6.795.926-6.784.063.907.063 1.812 0 2.718 1.622-2.447 4.165-6.067 6.164-7.916 1.509-1.396 1.083-.989 2.928-1.185 1.587-.17 1.61.428 2.971-.998-.536-1.47-.134-2.403 1.206-2.796l1.24-.541c1.9-1.155 2.603-2.462 4.099-3.993 1.163-1.191 3.625-1.7 4.5-2.89.942-1.278.245-4.13 1.498-5.101 1.372-1.065 1.462.323 2.799.196.192-.018 2.125-1.05 2.52-1.182 2.856-.966 5.5-1.354 7.914-3.555.81-.739 1.383-2.154 2.165-2.725 1.296-.946 2.845-.76 4.167-1.593.42-.264 1.055-1.443 1.55-1.877 1.462-1.28 3.465-1.916 5.275-2.48 3.748-1.166 7.278-2.324 10.903-3.894 7.785-3.373 16.37-6.23 24.63-8.178.951-.224 3.396-.094 4.103-.554.523-.341.977-1.501 1.106-1.575 1.545-.9 4.032-1.908 6.151-2.512 6.218-1.774 6.436 1.613 2.472 5.202-3.518 3.185-7.767 5.408-11.38 8.452-5.89 4.965-9.717 12.288-13.604 18.8 5.219 2.533 12.7-.033 18-1.133 2.694-.558 5.553-.617 8.207-.616l.852-.487c.68-.46 1.12-.272 1.325.563.098 1.072.62 1.244 1.567.514a12.501 12.501 0 011.57-.923c.973-.554 2.464-2.33 3.71-2.111 1.838.323.735 1.223 1.92 1.678 2.728 1.046 4.051-1.443 6.595-1.841.874-.137 2.115.54 3.075.436a8.808 8.808 0 002.202-1.18c.68-.017 1.155.31 1.429.975 2.074.014 5.9-.48 6.083-3.105 1.46 2.763 2.3 1.823 4.583.538 0 3.309 7.148.489 9.107.482 5.04-.016 9.395-2.008 14.175.56-8.45 3.782-18.024 5.46-26.208 9.753-3.7 1.942-8.464 7.433-5.718 11.892 1.63 2.647 4.658 2.497 7.334 2.18 3.4-.402 6.226.874 9.705.732 7.056-.286 15.729 5.08 21.82-.653 2.661 3.626 5.803 3.612 9.796 3.834 1.854.103 13.419 2.116 12.943 4.358-.266 1.261-5.796 3.242-6.629 3.613-3.135 1.39-6.38 2.482-9.702 3.323-5.993 1.52-11.89 1.426-17.936 2.364-4.396.683-9.837 3.19-8.635 8.767 1.058 4.91 6.876 3.804 10.647 3.46 4.123-.374 8.09-.848 12.237-.665 3.329.147 10.212-.06 12.308 3.217-9.237 6.656-20.82 8.382-31.832 9.765-12.732 1.597-25.365 3.616-37.823 6.74.938-1.88 5.07-8.727 3.439-10.77-1.996-2.504-7.988 7.593-9.527 8.95-13.107 11.563-31.053 19.408-47.115 25.82 5.289-6.545 13.258-11.013 19.719-16.32 4.447-3.653 12.536-9.618 9.593-16.399-16.53 10.317-30.437 28.902-51.292 30.119 7.451-5.43 16.036-9.607 22.164-16.695 1.434-1.656 6.161-7.987 3.23-10.263-2.309-1.79-6.39 4.519-7.999 5.886-11.32 9.611-26.869 17.749-40.968 22.254-5.067 1.619-12.03 4.37-16.683.837-6.243-4.742-11.107-4.895-18.149-1.111-.7-3.085-.793-7.508-3.715-9.47M623.48 368.117v3.915c-2.118-.21-1.169-2.445-2.441-3.472l2.441-.443m-2.664-4.534c.645 2.282.645 2.282-2.06 2.024l2.06-2.024m10.212 3.196c1.545-.85.228 4.241-2.225 1.607l2.225-1.607m5.465-7.353l-.864 5.04-2.706-2.24 3.57-2.8M753.86 515.52c1.939-1.172 2.33 3.311 2.539 4.163-1.275-.704-5.59-2.32-2.54-4.163M369.369 174.71c-3.36 4.639-6.712 9.315-9.475 14.342-1.535 2.793-2.656 6.875-5.445 8.743-2.483 1.662-6.573 1.916-9.359 2.612-5.59 1.393-11.134 2.98-16.57 4.892-18.554 6.527-36.17 17.63-49.211 32.49-6.283 7.157-11.53 15.403-14.481 24.509-3.384 10.438-2.243 21.38-3.484 32.125-.297 2.581-.839 11.785-3.884 12.949-3.749 1.433-4.81-7.638-5.262-10.012-.567-2.98-2.14-23.37-8.017-21.485-3.583 1.15-3.605 13.041-3.824 15.877-.5 6.44-1.233 12.83-2.457 19.18-.956 4.946-2.224 9.853-3.41 14.75-1.041 4.304-2.172 9.47-5.426 12.711-2.39-13.112-2.78-27.844 1.702-40.554 1.226-3.478 8.93-21.316 2.117-23.043-4.069-1.033-7.295 8.686-8.397 11.253-3.69 8.596-6.62 17.51-9.805 26.3-2.092 5.77-4.212 16.179-9.338 20.19-1.868-14.49 2.084-28.933 6.892-42.464.86-2.416 11.54-26.5 2.29-23.891-5.048 1.425-8.581 12.204-10.657 16.368-5.086 10.2-11.335 20.805-19.843 28.517-.4-8.074 4.761-16.622 6.68-24.378 2.206-8.914 5.117-17.205 9.832-25.13 8.73-14.672 20.13-28.55 31.388-41.341 11.624-13.205 24.875-24.963 39.317-35 14.499-10.074 29.744-16.466 46.9-20.392 19.21-4.394 40.055-6.992 59.29-1.328-2.688 3.737-5.363 7.483-8.063 11.21M687.1 193.89l-.928.186-.762-4.515c1.918 1.126.29 3.052 1.69 4.33m-80.41-13.002c22.714-10.012 46.655-17.404 70.88-22.725 16.464-3.618 35.133-5.398 51.178.944 18.525 7.321 26.205 26.955 27.018 45.724.949 21.876-6.484 42.623-17.196 61.377-2.572 4.503-16.319 31.72-22.096 28.689 1.95-5.333 15.614-35.402 6.564-38.063-5.206-1.53-9.241 13.267-11.034 16.597-1.215 2.257-9.515 18.061-12.285 16.708 2.615-8.426 5.807-17.118 5.555-26.08-.19-6.769-3.721-9.955-7.45-2.943-8.143 15.308-16.709 31.01-28.558 43.81-1.118-9.491 3.96-19.97 7.049-28.728 2.424-6.875 5.668-13.725 6.442-21.052.418-3.97.296-11.812-5.626-10.435-5.156 1.198-9.316 7.102-13.395 10.158 3.085-5.822 6.057-11.72 9.595-17.285 3.032-4.77 6.665-9.12 9.674-13.902 1.34-2.13 2.085-4.199 2.935-6.447.837-2.219 2.098-3.452 3.525-5.47 1.061-1.503 1.642-2.776 1.963-4.43.12-.617-.306-1.538-.24-2.236.116-1.227 1.4-1.553.973-2.961 2.256 3.13 1.632-3.023 1.59-4.164-.149-4.014 1.47-8.36-.533-12.093-4.222-7.869-16.605-6.342-23.926-5.776-10.487.811-23.61 3.199-32.592 8.878-2.297 1.451-3.74.622-6.23 1.737-2.28 1.02-4.597 2.078-6.935 3.072-6.076 2.58-11.877 5.78-17.869 8.545.318-4.49 1.336-8.871.628-13.358-.302-1.923-2.213-6.941.396-8.09m159.755 348.358c-1.988-13.297-4.237-26.451-7.783-39.43-1.695-6.202-3.033-12.528-4.81-18.7-1.411-4.906-5.727-7.393-7.86-11.962-5.016-10.747-9.615-21.392-15.66-31.678-6.318-10.747-13.86-20.217-22.828-28.86-18.19-17.528-39.202-30.92-59.541-45.67-10.442-7.574-21.266-14.17-32.92-19.719-4.696-2.237-9.209-4.023-14.178-5.479-5.15-1.507-7.72-3.27-9.626-8.442-3.913-10.623-11.253-14.101-21.278-18.138-4.534-1.826-8.66-4.356-13.127-6.298-4.647-2.018-9.562-3.565-13.885-6.263-19.665-12.269 6.59-37.808 17.031-47.003 4.07-3.583 8.673-7.26 13.855-9.04 5.37-1.843 12.688-2.927 18.372-3.433 3.858-.342 9.32 1.457 12.526-1.609 2.584-2.47 1.585-6.426 1.268-9.55-.89-8.766 6.307-9.452 13.554-11 11.322-2.42 21.907-7.511 33.246-10.056 7.236-1.625 27.328-6.487 27.446 5.726.089 9.26-6.836 18.572-11.189 26.14-3.404 5.916-7.035 11.635-10.634 17.426-2.693 4.331-5.131 9.083-5.09 14.316.033 4.135 1.693 8.218 6.544 7.607 5.453-.687 9.537-6.086 14.065-8.7.186 5.656-4.093 11.982-5.735 17.307-1.938 6.28-3.641 12.809-4.735 19.293-.698 4.138-2.619 20.073 5.756 18.029 5.645-1.378 10.509-8.656 13.797-12.954 3.463-4.528 6.57-9.293 9.706-14.049 1.958 5.82-10.222 17.078-4.041 22.322 6.597 5.598 18.021-14.22 21.234-17.88.559 4.446-5.716 14.294 1.382 16.333 5.023 1.444 11.872-5.403 15.035-8.626 5.782-5.89 6.488-14.204 10.094-21.333 4.13-8.161 9.425-15.6 13.25-23.949 12.056-26.31 18.185-65.291-.824-90.11-12.834-16.757-35.096-19.658-54.782-18.108-22.403 1.764-44.315 8.584-65.273 16.402-14.072 5.25-27.916 11.128-41.68 17.134a1864.224 1864.224 0 00-30.344 13.592c-4.876 2.231-9.626 4.646-14.369 7.143-3.913 2.061-8.564 4.457-13.12 3.282 3.278-4.982 9.799-6.633 14.51-9.823 5.576-3.775 8.663-10.225 10.704-16.466 2.199-6.722 4.146-8.327 10.899-10.083 6.75-1.754 13.066-4.583 19.097-8.081 14.143-8.204 29.772-12.894 45.846-15.438 14.222-2.25 29.26-3.264 42.54-9.284 9.885-4.48 22.326-14.397 10.29-24.36 8.518-6.196 23.623-16.546 10.398-26.681-10.25-7.857-25.734-7.248-37.956-7.248 1.758-3.551 7.387-4.772 10.551-6.703 3.903-2.381 8.722-4.959 10.077-9.653 2.218-7.677-6.16-9.915-12.003-10.685-22.212-2.925-47.173-.726-68.213 7.005 1.098-3.871 6.568-6.723 9.631-8.8 4.081-2.767 8.118-5.794 11.097-9.791 1.571-2.109 2.743-4.388 3.055-7.023.336-2.84.033-1.64-.822-2.393-3.153-2.78-7.591-4.531-11.874-4.718-12.343-.539-23.311 5.27-35.022 8.12-5.178 1.261-10.01 1.779-14.968 4.015-5.979 2.697-12.139 5.053-18.053 7.872-2.748 1.311-5.334 2.877-8.108 4.122-2.516 1.129-3.1 2.546-5.13 4.263-1.86 1.575-3.927.796-6.038 1.974-2.92 1.629-5.702 4.47-8.415 6.496-10.563 7.89-20.54 16.95-28.916 27.163-14.459 17.632-28.824 44.948-18.957 68.056 2.304 5.395 7.741 7.13 9.092 13.018 1.183 5.16 1.37 10.282 2.892 15.375 1.542 5.16-4.638 10-7.276 14.202-4.127 6.573-5.925 14.01-8.249 21.328-.723-1.969-.97-5.289-2.997-6.449-2.455-1.403-2.487 1.526-4.252.206-2.075-1.552-3.758-7.61-4.964-10.024-1.608-3.22-3.262-6.419-5.114-9.505-7.558-12.605-19.204-22.344-31.843-29.615-25.81-14.848-56.888-16.438-85.643-11.044-28.879 5.417-53.956 19.798-76.289 38.543-12.368 10.38-23.278 21.881-33.095 34.708-9.643 12.6-19.606 24.872-26.699 39.156-3.983 8.02-7.59 16.334-9.818 25.032-1.73 6.75-3.41 14.946-1.21 21.792 1.883 5.859 7.325 9.006 12.818 5.198 4.818-3.342 6.97-9.378 10.26-14.003.66 7.663-8.66 35.872 4.92 37.2 10.028.982 13.705-22.111 15.83-28.8 1.423 9.001-1.265 18.723 2.115 27.415 1.639 4.218 6.758 11.853 11.092 5.794 1.94-2.713 2.083-6.581 2.777-9.738.874-3.978 1.969-7.906 2.834-11.887 2.182-10.033 3.398-20.22 5.083-30.343 2.835 6.575 2.3 18.55 9.328 22.623 7.127 4.13 10.331-7.68 11.144-12.46 1.367-8.037.713-16.27 1.89-24.337 1.195-8.173 4.103-15.542 8.503-22.511 15.657-24.791 45.02-43.52 74.564-44.757-1.593 6.13-10.688 21.926 1.188 22.186 2.677.06 5.13-.421 7.845-.13 3.338.359 7.31 2.07 10.645 1.829 2.024-.147 1.946-.992 4.021.22 2.174 1.268 2.46 3.148 4.838.187 1.79 3.33 5.968 4.216 9.128 5.669l.112-2.58c1.96 2.789 4.083 3.29 7.085 4.655 1.922.873 3.276.604 5.008 1.055 2.096.545 3.145 1.704 5.033 2.777 2.048 1.164 5.638 1.021 7.21 2.846 2.781 3.227-1.518 8.676-3.068 11.434-4.357 7.754-7.23 16.739-9.118 25.393-.482 2.207-.943 3.767-.588 5.957.309 1.905.878.529.527 2.406-.124.664-1.359 2.06-1.579 2.539-1.867 4.054-1.59 9.429-1.688 13.802-.236 10.453 1.09 20.338 3.936 30.39 1.249 4.407 2.35 9.003 3.925 13.304 1.464 3.996 3.68 6.437 2.9 10.757-1.672 9.265 8.016 11.777 13.304 17.581 2.395 2.63 2.823 5.988 3.362 9.375.774 4.883 2.383 9.37 4.37 13.896 3.477 7.93 8.245 18.282 14.784 24.137 2.942 2.633 5.642 5.547 8.986 7.512 1.564.92 3.52 3.167 5.262 3.6 1.65.409 1.06-1.347 2.852.105 1.372 1.111 1.298 2.766 3.204 4.026 1.828 1.209 3.797 2.22 5.72 3.263 3.91 2.121 8.134 4.128 11.694 6.808 3.446 2.597 6.878 5.332 10.341 7.952 3.187 2.413 5.425 5.414 6.455 9.323 4.525 17.171-11.34 31.682-24.87 38.862-17.512 9.293-37.361 7.331-55.374.568-18.673-7.011-37.111-19.875-48.235-36.65-2.764-4.17-5.567-8.636-7.664-13.187-1.38-2.993-1.775-6.674-3.63-9.422-4.16-6.162-13.097 2.672-17.424 4.985-6.37-26.925-18.602-57.324-47.04-66.961-26.958-9.135-60.734 1.718-78.249 23.95-4.128 5.24-10.036 13.731-7.256 20.747 2.42 6.103 10.382 7.483 16.123 8.095 8.186.874 16.8-.176 24.7-2.398 2.029-.572 5.505-2.198 7.657-1.57 3.344.977 3.218 5.845 4.906 8.38 1.708 2.566 4.186 2.296 4.764-.996.55-3.144-2.34-6.099.105-8.89 1.361-1.555 5.954-2.84 7.866-1.629 1.6 1.013 1.743 4.192 3.014 5.654 3.504 4.032 3.885-2.503 4.603-5.26 1.078-4.145 5.789-7.369 10.362-5.514 2.861 1.16 3.577 5.56 4.318 8.217 1.514 5.43 2.557 10.67 4.607 15.96 1.565 4.037 8.196 15.278 5.016 19.215-1.964 2.432-6.923 3.794-9.774 4.732-3.973 1.308-8.74 2.09-12.385 4.147-1.715.968-5.497 3.607-6.026 5.607-.897 3.389 3.222 3.54 5.138 1.822 5.996 17.8 13.076 35.31 24.088 50.655 11.05 15.397 25.397 28.164 40.518 39.434 29.572 22.044 64.357 36.73 101.197 40.227 18.843 1.789 38.326.215 56.161-6.326 2.012-.737 4.053-1.594 6.18-1.941 1.927-.314 3.904.352 5.77.043 2.419-.402 1.77-1.336 3.307-2.631 1.42-1.195 3.636-1.608 5.208-2.64 7.832-5.14 14.936-12.37 21.059-19.41 11.503-13.225 22.903-29.712 28.321-46.521 5.445-16.888 5.704-34.831 7.342-52.34 1.014-10.831-2.246-20.893-4.024-31.478a513.327 513.327 0 00-6.45-32.186c-.992-4.226-1-7.284 2.313-10.36 2.58-2.395 5.806-4.28 9.238-2.648 3.593 1.71 6.85 5.44 10.131 7.758 3.383 2.39 4.968 5.578 8.337 1.598 0 3.455 1.664 4.494 4.57 5.63 3.9 1.524 7.542 3.155 11.07 5.473 7.63 5.015 13.395 12.603 17.701 20.571 4.59 8.496 9.876 17.19 13.065 26.328 3.476 9.96 3.912 21.187 4.262 31.648.368 10.934.476 21.947-.148 32.873-.588 10.334-1.166 21.94-4.21 31.87-3.357 10.95-14.228 23.359.476 30.663 10.313 5.123 22.811 3.887 32.958 9.16-1.31 2.096-2.19 4.468-3.614 6.494-1.796 2.555-3.394 2.532-6.167 3.556-5.08 1.876-2.621 4.93-3.144 8.952-.463 3.57-5.236 7.64-7.513 10.262-3.429 3.95-6.974 7.862-9.74 12.325-5.995 9.673-5.993 20.214-.5 30.099 4.83 8.69 11.726 18.572 20.208 23.966 9.259 5.888 20.172 10.972 30.334 15.06 9.138 3.676 18.805 6.027 28.578 7.212 7.326.888 17.407 1.749 23.27-3.77 5.375-5.06 6.65-13.105 4.13-19.828-5.907-15.76-23.949-25.246-37.069-34.171 4.158-1.453 9.636-1.944 12.866-5.255 4.037-4.138.307-7.689-4.329-7.642-4.021.042-8.121 1.352-11.945 2.515-3.398 1.031-9.639 3.92-13.082 1.84-4.55-2.752.429-5.525 2.884-6.768 4.611-2.333 4.356-5.3-.107-7.73-7.208-3.926 3.122-4.097 4.2-7.636 1.364-4.474-4.313-8.78-3.917-13.662.377-4.66 1.816-12.845 5.45-16.179 2.51-2.3 6.807-2.096 9.955-2.606 5.095-.825 10.082-2.343 14.993-3.908 1.496 8.786 8.482.888 11.238-2.62 5.193-6.607 7.341-14.603 10.08-22.408 3.085-8.79 5.709-17.422 7.342-26.614 1.78-10.02.946-19.66-.549-29.658M421.786 634.55c-1.428 1.61-8.266-.617-10.143-.852-5.572-.696-10.795-.518-16.31-1.91-4.222-1.067-10.41-3.421-14.526-2.792-.345.053.058 1.202-.53 1.195-.765-.01-1.174-.572-1.94-.867-1.812-.697-3.243-2.27-5.148-.898-.902-4.258-2.456-.527-4.595-.558-2.255-.034-1.43-2.72-3.794-3.067-1.877-.274-2.66.891-4.737.088-2.876-1.109-4.915-2.724-8.073-3.496-3.57-.872-5.93-2.123-9.217-3.582-2.873-1.273-6.058-1.678-8.972-2.877-7.538-3.104-14.92-6.945-22.081-10.83-13.622-7.39-27.07-14.343-39.314-23.98-4.48-3.526-7.641-7.436-11.192-11.827-2.41-2.983-6.559-8.706-11.065-7.757 1.054-2.92-1.757-5.458-3.608-7.26-2.859-2.784-5.297-5.724-7.662-8.959-2.226-3.043-3.789-6.116-5.17-9.594-1.046-2.637-1.722-5.272-4.593-2.634-5.72 5.256 1.623 15.626 4.796 20.244 5.247 7.637 10.47 15.4 16.715 22.262 11.647 12.798 24.92 24.449 39.856 33.207 7.718 4.526 15.849 8.527 24.222 11.68 7.48 2.818 14.867 4.298 22.543 6.312 4.573 1.201 8.924 2.79 13.591 3.626 1.815.325 3.6.765 5.445.859.478.025 1.267-.604 1.57-.577.735.067 1.296.74 2.37.975 1.279.28 2.547.16 3.544.587.406.175 1.407 1.437 2.468 1.829 1.727.639 3.062.934 4.832.397 1.499-.456 2.717-2.023 4.398-1.865-.234 1.006-.47 2.012-.705 3.017 1.711-.656 2.51-.06 4.08-.365-.304.06 3.287-.768 2.926-.864.249.066 1.175 1.763 2.066 2.186 3.68 1.745 8.171.445 12.06.739 3.991.3 7.909.888 11.93 1.178 2.96.212 16.872 2.007 17.177-3.065a6.216 6.216 0 00-3.214.095M796.763 168.434c1.15-9.835-2.12-18.045-4.663-27.287-2.086-7.573-4.67-15.117-9.951-21.191-4.796-5.517-12.055-12.569-19.83-12.943-6.044-.291-10.173 4.442-4.9 8.822 5.26 4.37 10.04 7.195 14.202 12.895 4.793 6.566 8.406 13.978 11.087 21.631 4.885 13.942 7.657 30.383 3.038 44.705-.458 1.42-2.265 5.481-.456 6.622 2.072 1.305 3.672-1.819 4.241-3.156.53-1.247 2.903-13.046 5.01-11.471-.132-1.624-.831-2.384-.732-3.988.059-.928.858-2.246.931-3.447.24-3.937 1.571-7.33 2.023-11.192"/><path d="M433.238 117c6.344.137 6.563-14.1 8.539-17.961.928-1.813 1.892-3.995 2.92-5.686.797-1.312 1.773-1.51 2.358-2.552 1.95-3.46.594-6.211-.28-9.558 2.304-.37 3.086-.36 3.914-2.665.245-.68-.34-1.914.145-2.427.667-.704 1.795-.322 2.474-.914.177-.155.11-1.64.325-2.197.485-1.258.872-1.74 1.806-2.703 1.256-1.296 4.675-2 3.542-4.268a6.269 6.269 0 002.416-.59c.246-1.132-2.057-.702-1.87-1.352.398-1.38 2.563-3.196 3.934-3.478l-3.508-1.83c2.938-.619 2.856-2.363 5.847-.383-.328-2.764 3.442-5.301 5.076-7.082 3.072-3.346 6.51-6.184 9.907-9.196 2.953-2.619 5.684-5.41 8.44-8.228 1.41-1.441 2.844-2.861 4.464-4.067 1.655-1.232 2.948-.99 4.47-1.832 2.43-1.343 3.9-4.069 6.344-5.439 1.1-.617 1.571.081 2.372-.692.748-.723 1.426-3.107.99-4.03-1.832-3.884-15.078 6.418-17.157 7.757-25.256 16.271-45.589 38.7-56.652 66.84-1.503 3.825-10.072 24.33-.816 24.533M426 637l6-1.307c-4.552-2.496-4.925-2.37-6 1.307M515.227 186.982c3.387-.32 10.777-3.817 9.659-8.584-1.03-4.4-5.023.341-7.754-.155-2.918-.529-4.272-6.762-6.724-.405-1.317 3.414.625 9.54 4.82 9.144"/></g></g></svg>