<svg width="1024" height="768" xmlns="http://www.w3.org/2000/svg"><g fill="none" fill-rule="evenodd"><path d="M355.414 420c1.424 9.569 5.004 17.98 8.025 26.937 1.428 4.236 3.655 8.552 5.842 12.443 1.415 2.52 3.21 8.507 5.806 5.01.431 1.825-.136 2.72.464 4.407.845 2.382 5.23 5.347 7.136 7.182 1.837 1.769 3.858 3.125 5.836 4.688.391.308 1.203.056 1.52.414.59.67.039 1.6.288 1.914 3.1 3.894 8.477 6.66 12.507 9.522 5.76 4.09 11.492 8.178 17.105 12.464 4.437 3.388 8.668 6.96 13.069 10.351 2.108 1.625 3.702 3.236 5.27 5.354 1.944 2.63 2.237 2.747.885 5.463-2.42 4.854-6.78 7.986-9.693 12.344-3.32 4.968-5.455 10.523-9.966 14.668-2.017-4.548-4.623 2.099-1.274 1.398-1.556 4.614-5.033 8.543-7.353 12.883-2.743 5.13-5.742 9.79-8.989 14.613-.33-1.195-.66-2.39-.993-3.585-3.158.755-.63 3.07-.396 4.03.197.814.883.898.394 2.667-.368 1.329-1.643 2.459-2.452 3.562-1.819 2.482-3.512 5.036-5.23 7.588-1.69 2.511-2.28 4.583-3.37 7.036-.972 2.19-1.867 1.775-3.433 3.388-1.62 1.666-3.231 4.57-4.674 6.488-4.294 5.71-8.152 12.25-11.083 18.747-2.794 6.194-7.953 10.547-10.31 17.116-1.207 3.354-1.648 6.88-2.693 10.269-.978 3.164-2.578 6.107-3.183 9.391-.503 2.727-.18 5.885-.423 8.276-.2 1.952-1.017 4.95-.775 7.704.513 5.801 2.92 10.835 5.792 15.668-13.105 4.441-28.015 5.689-41.764 5.367-7.027-.166-15.035-.232-21.91 1.394-3.977.94-7.031 2.11-11.208 1.783-4.172-.328-8.341-.72-12.512-1.079 1.217-2.453 5.194-5.544 7.426-7.426 1.288-1.088 3.413-1.344 4.399-2.394 1.13-1.202 1.474-4.2 1.876-5.645 3.093-11.098 5.377-22.297 7.314-33.65 3.423-20.06 4.75-40.484 6.014-60.669.09-1.452.8-3.207.764-4.586-.057-2.228-.501-3.48-.332-5.6.107-1.344 1.71-3.139 1.641-4.324-.061-1.044-1.847-.25-1.844-1.816.005-2.252 3.222-5.494 3.894-7.514.26-.783-.698-1.832-.792-2.709l-.005-.156c.041.023.75-3.163.778-3.293.235-1.02 1.155-1.34 1.108-2.618-.04-1.103-1.656-2.543-.783-3.687.597-.782 2.769.473 3.259-.417.631-1.145-2.142-5.057-1.835-6.83.501-2.886 2.561-5.813 3.263-8.779.312-1.321-.034-3.387.992-4.48 1.673-1.783 3.13.043 5.544-.553-2.463-2.09-2.94-3.92-2.213-6.973.569-2.382 1.702-5.027 4.307-2.648-.389-3.556-.375-4.11 2.28-6.805 1.288-1.307 2.676-3.503 4.215-4.385l1.4-1.469c.63.658 1.38 1.03 2.25 1.116 7.445-.395 11.164-1.92 18.003 2.544 2.884 1.884 5.759 3.293 8.238 5.745 2.765 2.735 4.995 5.954 7.957 8.509 3.311 2.858 6.58 5.204 9.533 8.482 2.442 2.71 4.792 5.778 8.064 7.434.25-3.92-1.893-7.424-3.766-10.848-.225-.41-1.856-1.512-1.82-1.39-.199-.687.553-1.279.32-1.888 2.837 2.565 5.769 6.372 9.018 8.293 5.302 3.135 2.946-2.983 1.934-6.127-2.884-8.968-8.109-17.562-14.15-24.8-10.57-12.661-28.202-26.797-45.076-18.828-16.724 7.9-25.534 21.165-30.333 38.811-5.568 20.483-8.125 40.054-8.654 61.271-.304 12.147-1.543 24.194-2.82 36.273-1.247 11.786-1.757 24.556-4.135 36.129-1.493-2.173-2.373-3.812-3.118-6.253-.303-.988.077-1.955-.44-2.926-.237-.446-1.445-.392-1.67-.8-1.853-3.342-4.456-7.941-5.308-11.788-.449-2.027-.039-3.21-.906-5.054-.815-1.728-1.226-.09-1.536-2.224-.043-.295 1.323-.782.902-2.165-1.064-3.49-1.814-.182-2.324-.204-1.052-.044 1.324-7.205 1.137-8.33-.216-1.292-.819-.588-1.113-1.53a26.52 26.52 0 01-.787-3.265c-.603-3.603-1.97-4.78-2.031-8.679-.074-4.706-1.818-7.736-2.6-12.232-.144-.828.76-1.758.597-2.482-.339-1.508-1.431-2.76-1.856-4.353-.888-3.332.884-6.206.637-9.416.04.525-.996-2.362-1.06-2.617-.375-1.468-.215-3.434-.51-5.032-.279-1.499-1.202-3.5-.375-4.901.565-.959 1.835-.698 2.575-1.767-2.717-.875-2.147.08-3.128-2.917-.937-2.862-1.028-5.26 2.076-3.368-.784-1.93-2.244-4.3-2.562-6.368-.29-1.89.404-3.718.205-5.598-.532-5.036-2.084-8.1.779-12.986-3.772-1.929-2.14-8.646-2.724-12.3-.633-3.966-2.178-7.757.8-10.362-3.775-2.71-1.856-11.505-1.786-15.704.067-4.018-.247-8.09-.2-12.758.029-2.637-.714-4.451-1.344-7.06-.812-3.362.014-5.943-.263-9.194-.221-2.584-1.197-5.18-1.33-7.931-.135-2.808.1-5.958-.297-8.716-.329-2.283-.874-3.917-.932-6.382-.016-.732-.373-2.044-.223-2.724-.005.025 1.018-2.35 1.01-1.302.03-3.905-1.925-7.721-.9-12.48.844-3.908 1.55-3.267 5.492-3.025 3.11.191 6.218.396 9.334.408 4.036.016 17.017-2.783 19.938.062 2.42 2.356 1.013 13.508 1.178 16.876.266 5.482-4.983 7.159-6.439 12.758-2.774 10.675 1.81 24.766 14.317 25.678 11.667.852 22.859-8.74 21.257-20.532-.643-4.732-2.823-9.882-6.938-12.651-3.981-2.68-12.438-.66-15.21-3.888-1.293-1.507-.78-7.363-.93-9.328-.218-2.86-1.528-8.579.356-9.933 2.128-1.531 8.699-1.56 11.127-1.567 3.442-.01 6.574-.006 9.99-.583 7.557-1.28 15.092-1.229 22.517-2.903 7.372-1.662 14.183-3.4 21.128-6.369zm90.075 0c1.535-.038 4.834 12.67 5.703 14.912 2.377 6.127 3.35 12.307 4.673 18.75 1.358 6.615 2.574 13.337 4.333 19.855 1.32 4.897 1.025 9.64 2.802 14.57-.47 3.052-.048 8.326-3.42 9.639-3.048 1.186-5.03-1.711-6.162-4.221-3.057-6.782-2.075-15.832-3.19-23.124-1.315-8.608-1.392-17.088-2.424-25.708-.909-7.595-3.987-17.187-2.315-24.673zM312.404 245.855c3.342 3.773 8.252 2.19 12.655 1.771-1.868 4.246-4.55 8.79-4.65 13.544-.05 2.467 1.277 4.656 1.262 7.01-.016 2.332-1.908 4.51-2.806 6.675-4.033 9.72-5.008 22.887-5.159 33.323-.311 21.59 6.152 44.587 19.898 61.515 2.9 3.572 6.16 6.872 9.806 9.69 1.982 1.532 11.11 5.17 11.538 7.322.828 4.165-8.54 3.754-11.098 4.127-5.379.784-10.697 1.91-16.084 2.635-21.588 2.903-42.9 5.222-64.663 4.05-2.408-.13-6.91 1.07-9.187.105-2.674-1.132-1.762-3.385-1.697-6.02.166-6.763-.806-13.414-1.374-20.133-.46-5.436.785-4.71 4.77-7.72 4.121-3.11 8.15-8.886 9.495-13.836 3.834 3.09 1.057 4.753 1.603 8.719.666 4.837 3.936 4.044 6.093.807 3.346-5.022 3.05-12.96-.077-17.979-2.801-4.494-12.795-11.395-18.464-9.34-7.544 2.737.666 11.918 4.236 13.907-.88 2.541-5.754 4.774-7.925 6.17-3.015 1.936-6.926 3.06-10.41 4.132-9.298 2.86-18.334 3.276-27.929 1.874-9.22-1.347-19.778-4.349-25.726-11.906-2.573-3.268-4.938-8.243-2.47-12.335 2.223-3.69 7.72-3.944 10.422-7.518 1.167-1.541 1.728-3.588 2.8-5.081 1.745-2.428 1.043-1.996 4.323-1.717 5.31.45 10.972.792 16.2-.487 3.93-.962 7.757-2.758 11.602-3.904 4.081-1.217 7.95-3.775 11.107-6.532 7.28-6.36 14.407-13.273 21.148-20.205 6.701-6.89 10.993-15.759 17.266-23.066 7.11-8.28 13.945-18.863 24.365-23.421 5.987-2.618 5.878.15 9.13 3.824zm25.314 27.524c1.013 1.06.368 7.139 1.335 9.078 3.714 7.452 10.21 5.806 16.93 4.24.58 5.972 1.028 12.698 3.438 18.263 1.077 2.485 2.778 4.619 3.647 7.216.55 1.646.328 3.734.95 5.264.672 1.654 2.375 2.928 3.37 4.559 1.203 1.969 1.834 3.807 3.417 5.53 3.464 3.77 8.168 6.965 10.818 11.462 1.088 1.845 1.28 3.213 1.246 5.362-.01.77-.553 3.6-.311 4.171.883 2.093 4.06 2.633 4.411 5.336.2 1.519-.628 1.337-.91 2.602-.337 1.523-.095 2.568-.652 4.264-.885 2.692-4.787 7.758-4.382 10.077-5.741 3.16-15.838 5.163-22.27 3.72-6.578-1.475-13.153-8.943-17.398-13.835-9.964-11.484-15.766-29.624-16.31-44.647-.276-7.624.74-15.283 1.099-22.894.202-4.288-.713-16.366 2.92-19.37.812-.671 7.94-1.143 8.652-.398zm-53.613 14.38c-8.862.509-16.47 14.385-14.83 22.49 1.348 6.653 3.62 1.508 5.346-1.35 2.036-3.372 5.722-7.452 10.098-6.587 4.862.963 6.102 6.886 8.085 10.641 3.616 6.848 4.742-.505 5.544-4.661-.638-8.128-3.622-21.14-14.243-20.532z" fill="#FF5678"/><g fill="#000"><path d="M818.37 702.393c-4.622 1.434-8.954 3.547-13.408 5.434-5.054 2.143-8.583 2.519-14.102 2.51-21.369-.032-42.516 1.065-63.923 1.497-5.848.118-11.783.176-17.63.07-2.362-.043-4.677-.311-7.027-.505-1.518-.125-8.138.785-9.02.253-2.482-1.493-1.009-11.109-1.31-14.19-.523-5.35-1.878-10.506-3.765-15.533-6.75-17.984-18.101-35.531-32.454-48.367 19.407-8.15 40.578-18.896 62.115-14.06 8.203 1.84 19.075 4.25 23.3 12.186 4.508 8.472 8.456 17.787 13.61 25.899 5.76 9.064 11.876 16.83 20.215 23.63 3.29 2.683 19.872 19.165 17.353 6.442-.807-4.081-3.792-7.874-6.176-11.206-1.213-1.695-7.748-7.253-6.731-9.217 1.141-2.202 12.928-3.754 15.454-4.455 5.218-1.446 10.407-2.99 15.604-4.508-1.88 3.542-12.103 16.944-5.57 20.369 2.399 1.259 8.606-3.199 11.235-3.982 4.48-1.333 8.576-.455 12.98.865-.114 2.162-4.361 2.19-5.774 3.667-2.064 2.161-3.514 7.988-1.895 10.577 3.016 4.824 14.69-.099 19.91 1.732-5.868 6.055-15.074 8.434-22.992 10.892zm-291.586-199.12c.061.125-.05.3-.752.908-.214-.77-.596-.938-1.064-.726.377-.411.688-.627 1.064.726.296-.257.542-.575.752-.908zm1.785-2.539c-.14.463-.459.68-.946.668l.069-.215c.323-1.01.753-.838.61-2.697.193.311.34.624.232.937.308.472.318.907.035 1.307zm-51.941 87.28c.493-1.191.623-2.574 1.26-3.669-.624 1.11-.634 2.479-1.26 3.668zm200.767 122.88c-7.735-.309-15.273-.171-23.006.165-16.523.72-33.12.826-49.612 2.151-8.067.649-15.823.896-23.914.625-7.075-.238-14.174.014-21.227-.58-7.744-.65-14.995-2.79-22.81-2.907-7.472-.111-16.371-.975-23.62.116-1.25.188-1.925.986-3.4 1.178-2.042.266-4.913-.565-7-.706-3.665-.247-7.717.159-11.293-.696-1.228-.292-2.088-.743-3.279-1.224-1.075-.433-3.485-.767-4.076-.922 3.408-1.27-4.152-3.86-4.761-4.001-.154.516.186 1.239.745 1.939-1.935-1.484.137-.936-3.027-2.44-1.33-.633-3.845-1.04-5.337-1.208-1.435-.161-2.21.009-2.862-.028.132-.146.262-.342.388-.603 1.056-2.178-2.161-4.665-3.969-3.202.21.426.548 1.213.958 1.985-.019-.02-.034-.037-.052-.059-.67-.774-1.931-2.754-3.186-4.086 1.59-.878-.356-2.072-1.09-3.297-.502.276-1.058.51-1.346.894.417-.873 1.454-1.663.846-3.36-.173-.485-.633-1.216-1.21-1.73.548.429 1.117.904 1.855.802-.922-1.396-1.26-1.922-1.612-3.322-.247-.985 1.13-1.936-.178-2.826.04-.929.592-5.193-1.724-3.705l-.001.001.002-.005c1.482-4.534 4.003-9.215 5.877-13.648 4.365-10.323 8.852-20.724 13.42-30.957 7.553-16.928 15.44-33.813 24.13-50.286 8.615-16.33 18.021-32.125 26.153-48.681 7.843-15.972 16.993-31.255 24.891-47.202 3.72-7.511 8.706-13.722 9.975-22.45.41-2.826.54-8.72-3.738-7.66-2.78.69-6.674 7.652-8.468 9.916-1.608-2.207-10.68-15.18-13.112-7.451-2.087 6.627 10.977 9.513 5.765 16.188-.517.662-2.658 1.33-3.36 1.942-1.37 1.191-2.621 3.292-3.678 4.728-2.409 3.275-4.402 6.755-6.629 10.142-.418.638-1.95 2.08-2.068 2.825-.062.396.27.803.53 1.215-1.812 1.603-4.097 3.02-4.522 5.617a.581.581 0 00.353.043c-1.684 1.76-3.816 6.03-4.121 6.475-2.269 3.3-4.496 6.754-6.738 10.236-1.212 1.883-3.332 4.097-4.028 6.212-.24.731.465 2.042-.193 2.727-1.73 1.8-3.42 1.417-4.713 5.037-.509 1.425-.554 3.418-1.372 4.641-1.312 1.96-3.188 2.885-4.414 4.995-2.325 4.004-5.112 8.4-6.577 12.44-.006.017-.006.032-.013.048a18.32 18.32 0 00-.2-1.033l-2.49 4.474c1.436-.28 2.204-.671 2.554-1.31-.041.215-.11.436-.24.668a7.488 7.488 0 01-2.313.642 42.685 42.685 0 00-1.563 2.812c-.238.484-1.038 3.434-1.375 5.668-.124-.867-.248-1.645-.262-1.748l-3.158 6.077c1.91-1.468 1.803-1.717 3.621-1.753-2.292.046-5.76 3.265-6.08 6.358-.051.502.256 1.052.529 1.571a3.41 3.41 0 00-.198-.023c-2.4-.204-1.698.28-2.609 2.28.348-.14 2.37-.927 3.128-1.542.083.263.097.504-.031.709-.595.945-5.456.335-2.335 2.433-2.594-1.743-3.89 3.98-3.007 5.947-.698 1.008-1.53 1.937-2.312 2.87-1.923 2.293-2.986 4.032-4.245 6.824-2.145 4.754-4.703 9.473-7.048 14.136-.89 1.773-1.927 3.283-3.019 4.93-1.936 2.92-1.595 2.191-.068 5.373-.573-.186-1.421.265-2.241.92.446-.757 1.014-1.319 2.241-.92-1.938-4.037-3.602.883-4.494 3.196.04 0 .073-.01.11-.013-.122.18-.213.34-.269.467-.91 1.877-1.985 3.027-1.208 4.995.224-1.095 1.112-1.942 1.489-2.883-.531 2.295-3.035 5.045-3.791 6.565-.628 1.263-.717 2.588-1.489 3.962-.725 1.29-1.378 2.16-1.934 3.635-2.692 7.136-4.003 15.085-5.701 22.58-2.009 8.857-2.835 18.27-3.265 27.334-.125 2.635-.194 4.964.755 7.466.138.363 1.616 2.293 1.578 3-.205 3.687-7.131 2.92-9.795 2.814-4.235-.17-7.118.514-11.186 1.103-3.753.542-7.436.245-11.247 1.166-6.33 1.53-15.755 3.952-21.874.592-2.959-1.624-6.685-6.333-8.832-8.976-2.643-3.252-3.533-6.564-4.006-10.707-.808-7.088-.864-14.919 1.6-21.692 11.45-31.474 31.091-60.085 48.03-88.728 15.895-26.878 33.714-52.354 49.64-79.16 8.42-14.17 18.55-28.189 28.565-41.285 10.236-13.385 17.54-27.949 24.757-43.1 7.48 3.967 15.398 8.046 23.763 9.839 4.755 1.019 9.477.71 14.273 1.039 3.534.242 6.491 1.077 10.09 1.169 15.785.402 34.023-1.49 49.111-6.151 3.62-1.119 6.856-2.28 10.25-3.89 4.333-2.058 5.504-2.93 5.75 1.851.476 9.257 1.987 18.256 2.698 27.459.694 8.971 2.5 17.817 4.098 26.68.81 4.49 1.682 8.974 2.345 13.486.505 3.424 2.025 8.186 1.421 11.609-.666 3.778-4.246 7.612-6.295 10.836-2.08 3.27-4.17 6.535-6.243 9.81-3.888 6.14-7.759 11.968-12.351 17.602-8.512 10.446-15.76 21.37-23.832 32.156-8.571 11.454-15.695 23.826-24.107 35.397-4.443 6.113-8.987 11.878-11.899 18.762-2.416 5.71-7.278 10.963-10.25 16.614-3.903 7.42-8.869 14.215-12.745 21.672-2.707 5.208-7.933 10.505-8.481 16.558-.92 10.155 8.736.007 10.97-2.824 2.998-3.798 6.285-10.444 10.788-12.503 3.216-1.47 7.914-1.31 11.405-2.461 3.66-1.206 7.25-2.458 10.944-3.56 7.196-2.15 14.14-5.186 21.135-7.915 7.241-2.827 14.48-5.68 21.585-8.821 3.29-1.455 6.061-2.201 9.575-2.834 1.512-.273 6.923-2.829 8.114-2.612 2 .364 4.759 6.245 6.276 7.757 2.337 2.332 4.968 4.238 7.152 6.746 4.302 4.942 8.861 10.207 12.592 15.576 8.336 11.996 16.133 25.103 19.098 39.553 1.33 6.486-.222 6.916-6.494 6.665zM460.59 695.211a1.423 1.423 0 01-.104-.314c.026.101.05.2.104.314.987-.586 1.248-.275 1.35.204-.498-.319-.96-.435-1.35-.204zm-2.3-6.697a2.781 2.781 0 01-.065-.507c.015.168.028.336.066.507.54-.362.99-.26 1.424 0-.461-.25-.958-.313-1.424 0zm.993-4.384c.303-.022.648-.187 1.037-.578-.319.32-.62.658-.893 1.009.005-.043.012-.084.015-.129.006-.084-.063-.188-.16-.302zm-98.292-36.72c-2.247 5.299-3.182 11.096-5.092 16.522-1.46 4.15-2.042 8.251-2.425 12.592 1.332.982 1.302 1.846-.09 2.594-.099.944-.132 1.89-.1 2.84-.362 2.764.171 5.17.902 7.818 1.16 4.2 2.628 7.219 4.783 10.85-13.08 4.438-27.983 5.687-41.707 5.366-7.418-.174-15.738-.19-22.966 1.64-7.783 1.97-14.608 1.147-22.603.458 1.168-2.353 5.632-6.279 7.893-7.914 1.15-.83 3.043-.973 3.916-1.904 1.245-1.328 1.392-3.905 1.875-5.645 3.084-11.1 5.367-22.29 7.304-33.643 3.413-20.012 5-40.497 6.005-60.659.086-1.705.967-3.62.924-5.235-.056-2.122-.663-2.817-.492-4.95.11-1.39 1.778-3.279 1.657-4.516-.076-.775-1.974-.106-1.86-1.622.177-2.337 3.202-5.416 3.889-7.513.305-.933-.833-1.862-.798-2.88-.01.29.751-3.153.78-3.277.23-.99 1.156-1.405 1.106-2.617-.047-1.102-1.652-2.545-.782-3.687.879-1.155 2.7.593 3.254-.417.63-1.145-2.14-5.055-1.832-6.828.539-3.104 2.65-6.442 3.477-9.593.31-1.182-.19-2.642.772-3.665 1.673-1.78 3.124.046 5.537-.552-2.394-2.033-2.92-3.993-2.21-6.972.576-2.42 1.686-5.037 4.3-2.647-.344-3.15-.713-3.47 1.55-6.101 1.953-2.272 4.484-4.993 6.822-6.733 3.494-2.603 9.071-3.941 13.216-4.247 4.523-.333 10.083 2.09 13.506 5.51 4.164 4.157 9.549 7.188 14.273 11.163 5.044 4.244 9.375 9.285 14.221 13.784.995.923 2.827 3.506 4.364 3.062 2.506-.725.482-4.466-.068-6.13-3.907-11.84-10.93-23.768-20.59-31.845-4.982-4.167-9.938-9.437-15.729-12.471-4.678-2.452-8.332-2.066-13.306-2.24-4.252-.15-5.125-.402-8.916 1.387-2.688 1.268-5.35 2.506-7.885 4.057-4.055 2.478-8.238 5.49-11.235 9.236-7.98 9.974-11.093 22.656-14.229 34.81-3.45 13.368-5.825 26.43-6.244 40.301-.425 14.114-1.08 28.02-2.47 42.077a728.758 728.758 0 01-2.502 21.89c-.87 6.717-.915 13.936-2.269 20.532-1.704-2.484-2.234-4.402-3.175-7.078-.635-1.802-1.279-1.74-2.198-3.07-1.947-2.81-4.381-8.143-5.148-11.614-.47-2.122-.035-3.186-.905-5.053-.27-.577-1.73-.125-1.965-1.039-.168-.655.747-1.162.707-1.385-.096-.517 1.326-1.091.098-2.717-1.745-2.308-.852.588-1.794.548-.785-.033 1.57-8 1.293-9.157-.098-.409-1.433-.463-1.54-.843-.324-1.15-.25-2.813-.567-4.06-.773-3.044-1.92-4.264-1.976-7.74-.075-4.594-1.777-7.846-2.596-12.23-.158-.842.77-1.754.596-2.481-.352-1.484-1.45-2.783-1.854-4.353-.778-3.023.26-7.288.048-9.746-.187-2.151-.79-5.643-1.187-8.315-.646-4.35.515-2.93 2.404-5.667-2.62-.845-2.286-.102-3.123-2.917-.966-3.25-.877-5.168 2.072-3.368-.783-1.931-2.239-4.297-2.558-6.367-.297-1.922.406-3.688.205-5.597-.545-5.166-2.157-7.97.778-12.983-3.772-1.932-2.13-8.586-2.72-12.298-.637-4.007-2.184-7.75.798-10.36-3.067-2.205-1.852-8.533-1.84-11.912.006-1.533.525-4.231.394-5.592-.092-.957-.743-1.6-.932-2.714-.697-4.131.842-8.221-.084-12.33-1.043-4.63-1.165-8.58-1.523-13.118-.346-4.398-1.026-8.97-1.319-13.478-.216-3.346-1.521-6.966-.92-10.432.047-.273.844-2.739.867-2.182-.038-.891-.686-1.994-.716-2.525-.213-4.012-.29-7.283-.118-11.355-.008 0-.017-.002-.025-.001.496-.302.764-.93.785-1.908 3.753-.363 7.858.554 11.651.655 4.087.108 8.162-.096 12.244-.284 2.627-.122 8.287-1.366 10.287.827 1.45 1.589.538 9.765.634 11.891.115 2.513 1.386 6.456-.083 8.655-.912 1.364-2.973 1.91-4.036 3.406-.646.911-1.172 2.44-1.515 3.429-1.039 2.982-1.452 6.2-1.293 9.35.75 14.74 12.563 21.509 25.827 15.569 11.555-5.174 14.697-20.824 4.769-29.593-2.337-2.065-4.829-2.59-7.811-3.1-1.896-.323-7.07-.124-8.308-1.477-1.23-1.342-.93-5.53-1.066-7.273-.22-2.797-1.344-6.953-.734-9.652-1-2.249-.333-3.2 2.001-2.855l2.217-.446c1.862-.337 3.692-.744 5.583-.874 3.37-.231 6.656.169 10.029-.282 3.307-.443 6.55-1.27 9.864-1.698 3.522-.455 6.98.051 10.465-.547 7.233-1.238 15.005-2.904 21.773-5.747 1.813-.761 4.884-2.954 6.895-2.592 2.409.434 1.765 1.966 2.459 4.257 3.847 12.706 11.842 25.26 20.303 35.36 7.987 9.536 18.517 17.226 28.04 25.223 5.774 4.85 11.318 9.946 16.678 15.245 3.89 3.847 8.065 9.861 13.09 12.08 1.144.042 5.56-.464 6.368.364.932.953.874 1.486.503 2.08 1.067-2.81-4.01-2.337-6.872-2.444.324.545 3.537 6.988 4.332 3.404l1.384.825c-2.284 5.044-5.24 10.1-8.452 14.614-2.34 3.292-5.364 5.673-7.465 9.084-2.65 4.305-4.86 8.773-8.218 12.608-6.699 7.651-10.427 17.938-16.267 26.427-2.807 4.08-4.272 7.872-7.193 11.933-2.284 3.178-5.984 7.198-7.316 10.854-.531 1.462.04 2.73-.934 4.084-.615.856-2.437 1.785-3.296 2.672-3.413 3.525-6.074 8.554-8.75 12.701-2.852 4.415-4.838 8.997-7.253 13.597-2.477 4.72-6.577 8.064-8.722 13.122zm-88.806 20.148c-1.774.028-2.44.037-2.637-.741-.058-.234-.077-.54-.068-.935-.009.396.01.7.068.935.198.778.863.768 2.637.74v.001zm.222-6.609c.183.496-.922 1.339-3.86 1.028 2.91.308 4.023-.528 3.86-1.028zm-7.224 16.593zm-18.324 34.697c-2.392-.836-8.616-2.315-12.669-4.063 1.808.506 3.69.923 4.413 1.176l8.256 2.887c3.899-14.052 18.535-19.408 31.06-24.597-6.034-.253-8.19-5.49-11.836-9.234 3.64 3.734 5.829 8.982 11.835 9.234-12.522 5.188-27.16 10.546-31.059 24.597zm-13.69-14.147c-.137.228-.273.464-.41.72-.374.699-1.78 3.82-2.37 5.871-.119-2.107 1.132-4.572 2.78-6.59zm13.78-266.817c.223-.089.403-.103.566-.09-.655.03-.833.807-.86 1.885-.57-.604-.705-1.396.293-1.795zm45.457 32.472c4.265 2.118 8.404 3.35 12.473 5.913-4.992 3.881-20.929 10.148-20.453-1.845.056-1.397.873-5.152 2.148-5.983 1.94-1.264 4.14 1.075 5.832 1.915zm-48.826-55.843c18.782 6.554 40.662 4.934 59.752 1.737 20.51-3.434 40.987-5.456 60.855-11.885.02 2.767 1.22 5.664-.973 7.945-1.718 1.788-5.444 2.126-7.714 2.88-5.94 1.969-11.042 4.838-17.25 6.015-6.955 1.319-13.903 1.292-20.917 2.072-2.54.283-4.93.738-7.315 1.197-3.304.05-5.893.497-9.192 1.413-11.8.056-23.52.406-35.271-1-5.968-.715-11.87-1.59-17.854-2.2-5.604-.57-4.353-2.985-4.121-8.174zm-7.185-50.415c-11.061 3.055-22.469 2.14-33.352-1.357-7.869-2.528-18.308-6.233-19.963-15.81-1.093-6.318 2.694-7.463 7.147-10.086 2.13-1.255 3.167-2.203 4.6-4.329.85-1.263 1.615-4.431 2.57-5.295 2.326-2.105 9.667-.257 13.307-.42 5.424-.242 9.1-2.065 14.09-3.674 8.814-2.843 14.392-6.29 21.234-12.794 6.655-6.326 14.47-12.761 19.851-20.217 6.027-8.348 11.794-16.472 18.359-24.434 4.865-5.9 13.69-17.71 22.418-17.656 4.382.028 3.733 4.16 7.213 6.26 3.177 1.917 7.333.583 10.824.25-2.301 5.232-5.494 10.613-4.364 16.533.633 3.315.97 4.46-.325 7.597-1.183 2.866-2.463 5.406-3.196 8.475-2.855 11.96-4.205 25.422-3.008 37.652 2.072 21.171 9.327 43.03 25.196 57.976 3.617 3.407 7.596 6.131 12.027 8.373 4.42 2.236 4.786 4.565-.69 5.564-10.663 1.945-21.489 3.274-32.229 4.718-10.726 1.442-21.643 2.949-32.46 3.17-5.35.11-10.669.777-16.018.397-2.664-.19-5.312-.666-7.983-.74-2.332-.064-5.814 1.101-7.985.182-3.398-1.438-1.709-11.383-1.958-14.836-.287-3.963-2.787-11.395-1.302-15.141 1.044-2.63 4.874-3.733 6.858-5.78 3.256-3.359 6.336-7.34 7.58-11.92 4.123 3.328.576 5.463 1.827 9.52 1.366 4.43 3.885 3.037 5.857 0 3.291-5.073 3.07-12.91-.078-17.968-1.822-2.924-4.782-5.122-7.818-6.686-2.458-1.265-7.896-3.746-10.617-2.647-7.385 2.985.475 11.804 4.228 13.898-.902 2.605-7.298 6.364-9.737 7.477-3.623 1.653-8.214 2.674-12.103 3.748zm101.361-80.774c.097 1.42.248 2.775.717 4.133.955 2.768 2.866 5.167 5.5 6.537 5.107 2.66 15.467-1.17 19.957-4.307 0 9.51 1.705 17.075 4.433 26.097 2.64 8.73 8.042 15.833 12.638 23.583 2.383 4.019 4.571 8.168 7.936 11.468 3.42 3.354 3.99 4.64 3.678 9.585-.513 8.145-4.393 13.7-11.725 17.073-5.81 3.22-17.805 5.836-24.133 3.146-6.653-2.83-13.134-10.154-17.442-15.792-9.789-12.808-14.753-32.1-14.158-48.023.31-8.294.748-16.781 1.542-25.045.578-6.021.367-14.677 9.125-11.964 2.83.876 1.704.223 1.932 3.509zm33.606 111.217c.844-1.72 8.276-3.449 9.57-2.44 1.963 1.53 2.045 10.456 2.735 12.996a77.572 77.572 0 004.265 11.82c3.637 7.976 8.856 16.214 15.048 22.427 6.417 6.435 13.79 10.894 21.58 15.506 2.227 1.319 4.382 2.909 6.67 4.106.96.502 2.738.737 3.493 1.492 1.87 1.87 1.006 5.706.984 8.14-.09 9.752-.057 19.187 1.235 28.806-7.634-5.908-14.531-13.408-21.327-20.297-7.127-7.224-16.303-11.993-23.06-19.643-6.148-6.96-10.987-15.071-15.504-23.121-1.978-3.527-5.748-8.023-5.883-12.146-.147-4.445 1.88-9.15 1.904-13.755.015-3.257-2.965-11.333-1.71-13.891zm91.668 99.547c-.464 2.945-.093 9.258-4.19 9.891-2.82.438-4.555-2.239-5.588-4.48-3.122-6.776-2.09-15.813-3.255-23.092-1.377-8.593-1.41-17.066-2.475-25.672-.938-7.588-4.069-17.16-2.362-24.638 1.547-.038 5.726 14.594 6.628 16.914 1.856 4.777 3.993 8.797 5.6 13.75 2.126 6.56 3.97 12.824 4.95 19.688.69 4.825 3.275 13.393.692 17.64zm22.66-32.352c-3.824 5.934-7.952 12.118-13.338 17.068 0-2.768-2.07-11.768-.667-13.908 1.671-2.549 11.156-2.666 14.004-3.16zM337.404 221.42c3.248-1.474 6.872-1.938 10.147-3.462 3.132-1.456 5.458-2.335 8.934-2.62 12.08-.992 24.38 2.1 35.557 5.482 6.152 1.861 11.005 5.94 16.201 9.472 5.375 3.654 8.322 6.836 10.663 13.02 5.035 13.3 8.134 25.876 10.137 39.902 2.033 14.23-1.268 28.614-1.062 42.874.202 14.068 1.206 28.715 5.676 42.11 3.455 10.357 9.58 27.029 22.486 28.062 12.252.98 22.617-11.653 27.682-21.136 13.39-25.073 18.423-53.734 19.15-81.874 1.89-9.417 2.971-19.57 6.248-28.6 3.644 5.698 6.616 11.814 9.966 17.688 3.677 6.447 3.44 11.707 3.122 19.033-.247 5.696-2.256 11.139-2.987 16.811-.844 6.548-2.394 12.933-2.766 19.546-.437 7.8-.002 15.68-.66 23.458-.55 6.542-1.995 13.112-3.043 19.594-1.018 6.298-1.143 12.499-.994 18.777.146 6.077 2.247 11.979 7.396 15.23-7.653 9.445-17.194 23.352-30.014 25.59-4.298.75-8.312 1.335-12.665 1.653-3.538.258-7.673 2.244-10.725.038-5.254-3.798-6.289-12.262-8.274-17.797-1.374-3.83-14.99-35.187-22.156-26.303-1.277 1.583-.976 7.392-1.171 9.621-.282 3.214-.152 6.482-.254 9.707-.131 4.105-.495 8.268-.21 12.372.173 2.475 1.66 5.147-1.144 5.743-2.594.552-8.063-4.602-9.952-5.937-2.533-1.79-5.264-3.135-7.83-4.86-5.277-3.547-9.462-8.013-13.217-13.074-3.779-5.093-7.144-10.808-9.702-16.623-1.298-2.951-2.36-5.975-3.444-9.005.024.067-1.61-3.755-1.52-4.022.288-.855 3.743-2.274 4.596-2.947 9.748-7.694 11.7-26.826 9.109-38.017-1.569-6.77-6.757-12.72-10.443-18.484-3.56-5.569-7.325-11.023-10.278-16.95-3.256-6.528-5.772-13.383-8.693-20.06-1.41-3.221-3.101-4.88-.996-7.83 1.29-1.81 3.96-2.55 5.11-4.53 1.156-1.992 1.276-5.836-.806-7.26-2.277-1.559-5.585.618-7.672 1.467-2.783 1.132-5.564 1.68-8.405 2.551-3.226.99-6.13 3.177-9.554 3.177 1.841-6.34 9.797-5.74 12.378-11.636 1.763-4.03 1.533-11.529-3.964-12.193-3.122-.378-5.584 2.004-7.905 3.602-3.055 2.102-5.361 2.494-8.94 3.153-1.318.243-3.458 1.478-4.707 1.058-2.029-.68-.858-.26.204-1.927 1.579-2.479 5.312-4.899 7.57-6.708 5.074-4.067 12.106-7 16.502-11.728 2.906-3.127 4.334-13.64-1.187-15.318-2.214-.674-5.816 1.522-7.985 2.194-3.666 1.134-7.4 2.037-11.017 3.331-6.425 2.298-12.595 5.028-19.114 7.09 3.714-5.287 10.768-9.846 16.622-12.505zm217.27-1.55c0 3.634 1.385 10.54-.179 13.843-1.41 2.974-9.976 4.632-13.002 5.768-9.796 3.68-19.512 7.778-29.526 10.825 10.32-15.285 25.657-24.159 42.706-30.435zm-1.445-49.355c-2.539 3.646-6.95 8.589-12.114 6.866-5.565-1.857-9.925-10.38-7.082-15.787 2.43-4.62 9.361-7.518 13.642-3.877.934.794 1.543 2.825 2.437 3.446.574.398 1.483-.667 2.183-.24 2.071 1.256 2.868 4.325 5.854 4.068 1.382-.118 5.812-3.729 6.718-4.652 2.426-2.471 1.58-5.003 1.964-8.25.529-4.474 3.615-5.16 7.167-7.468 3.382-2.199 6.1-5.477 9.445-7.594 3.994-2.529 1.705.677 5.353.994.658.058 2.127-2.129 3.27-2.093 1.48.048 2.124 1.033 2.968 2.108 1.839 2.335.486 3.068 3.69 3.612 2.312.393 3.743-1.287 5.72-1.254 1.617-1.831 4.012-5.655 6.903-4.525 1.958.764 2.658 4.864 3.078 6.576 1.589 6.49 1.47 14.118 1.528 20.774-3.72-2.61-4.201-4.363-5.363-8.571-.755-2.734-2.579-6.752-4.567-2.645-.565 1.166-.08 2.953-.454 4.234-.433 1.485-1.47 2.217-1.632 3.837-.39 3.93 2.83 5.278 5.607 7.192-2.593 2.794-10.051.685-8.062 6.65 2.103 6.304 10.181 2.814 14.211 1.232 3.435 13.022-11.827 19.296-21.127 22.857-5.462 2.09-7.598 3.256-8.35 9.632a33.652 33.652 0 002.098 16.166c.803 2.046 1.572 4.842 2.668 6.736.929 1.604 2.779 1.716 3.403 2.61 2.298 3.302.643 10.465.374 14.427-.735 10.833-4.11 20.699-5.56 31.271-.744 5.407-2.972 10.469-3.928 15.813-.875 4.903-1.221 9.532-5.353 13.038-8.303 7.045-14.725-3.36-17.601-10.198-4.098-9.741-4.507-22.543-3.831-32.93.736-11.292 5.9-22.14 6.174-33.347.292-11.986-1.518-23.365-4.516-34.954-1.311-5.065-3.22-9.6-4.837-14.496-1.322-4.004.867-7.62-2.078-11.258zm21.583-118.575c0 .009 0 .017.003.026-.053-.059-.106-.115-.163-.184.06.072.112.12.16.158zm.248-1.123c-.124-.846-.395-1.91-.58-2.39.449.277.96.51.977.8.048.832-.191 1.224-.397 1.59zm12.326 2.138c-.087.049-.17.102-.257.15a1.28 1.28 0 01-.532-.112c.06.012.124.022.198.028.2.014.397-.016.59-.066zm6.443-2.123c-1.154-.01-2.37-.117-3.718.468a3.65 3.65 0 01.644-.321c.604-.214 1.88-.19 3.074-.147zm-65.35 316.747c.247-5.423.243-7.05 4.504-10.546 3.552-2.915 6.988-5.974 10.577-8.845 7.946-6.359 16.436-13.091 25.47-17.84 5.063-2.66 18.874-8.02 15.384 2.48-3.294 9.91-9.65 18.712-15.123 27.516-5.578 8.974-11.158 17.955-16.953 26.79-2.521 3.844-5.18 7.614-7.593 11.525-2.373 3.85-2.618 6.447-7.485 4.853-3.537-1.16-7.533-2.571-10.87-4.078-2.93-1.324-2.755-2.133-2.836-5.577 1.815-8.902 4.504-17.066 4.924-26.278zm22.673-108.496c-1.232 4.96-10.067 5.551-14.834 6.513-.82.165-4.97 1.508-5.746 1.048-1.529-.91-.777-3.539-1.428-4.812-3.569-6.968-3.621 1.94-4.638 4.038-2.782 5.748-7.044-5.76-8.606-8.577-1.203-2.168-2.492-3.271-1.247-5.091 1.037-1.515 6.804-2.556 8.575-3.21 6.459-2.385 12.901-4.815 19.343-7.247 2.772-1.047 11.312-6.531 11.218-1.26-.92 6.064-1.164 12.665-2.637 18.598zm-4.83 59.232c-2.717.845-10.097 4.23-12.846 2.634-2.32-1.348-.717-6.073-.457-8.533.493-4.636.42-9.68.157-14.33-.387-6.868-.959-7.41 5.819-9.258 2.618-.715 10.614-4.582 12.56-2.401.907 1.018.523 4.256.723 5.49.433 2.671 1.178 5.282 2.153 7.804 1.687 4.36 4.149 8.273 6.724 12.15-4.62 2.841-9.668 4.838-14.832 6.444zm-15.344-48.567c1.174-1.687 7.014-1.927 8.945-2.335 3.412-.722 6.826-1.436 10.24-2.157.183 4.157 2.533 15.014-.457 18.013-1.681 1.688-7.305 2.122-9.686 2.708-2.594.638-5.192 1.265-7.79 1.892-.294-4.007-.54-8.016-.966-12.012-.157-1.469-1.24-4.737-.286-6.11zm.674 54.882c1.796-2.067 6.655-2.007 9.356-2.638 4.303-1.007 8.38-2.38 12.453-4.083 2.28-.952 6.769-4.212 9.288-3.386.706.231 2.183 3.139 2.72 3.684.918.934 2.104 1.567 3.169 2.305 2.932 2.032 4.712 2.664 8.171 3.352-18.09 7.418-32.624 20.616-47.586 32.791-1.062-.89-.472-8.849-.355-10.675.216-3.389.361-6.82.615-10.221.208-2.794.262-8.934 2.17-11.13zm54.935 72.17c-.546 3.086-.629 7.326-1.952 10.178-1.214 2.612-1.066 2.43-4.293 2.508-4.077.099-8.754.782-12.7-.459 3.524-7.785 6.458-16.245 11.28-23.348 1.516-2.23 4.441-7.94 7.61-7.6 3.18.342 2.481 3.531 2.23 5.838-.47 4.308-1.42 8.615-2.175 12.882zm15.88-121.439c2.449-16.794 2.242-33.213 2.242-50.125 3.907.517 8.212.191 11.978 1.296-1.216 3.878-4.723 7.376-1.252 11.058 3.525 3.74 11.743 5.38 16.508 6.756 5.581 1.613 11.27 3.585 17.005 4.543 2.578.43 5.385.848 7.986.348 4.117-.79 4.48-1.883 7.187 2.358.013.023.037.057.052.082-.782-.45-3.262-.179-2.602-.16.097.342.242.682.327.999-.73-.6-2.346-1.107-2.57-1.147-2.692-.473-6.108.735-8.701 1.333-5.814 1.344-11.585 2.807-17.216 4.796-4.74 1.674-9.435 3.548-13.956 5.748-3.49 1.697-11.552 4.687-12.653 8.846-2.112 7.975 18.956 14.034 24.093 16.734 4.852 2.55 3.32 6.33 3.375 11.395.059 5.5.558 10.95.176 16.44-.295 4.252-.621 3.593-4.864 3.517-3.177-.057-6.355-.185-9.529.004-4.479.266-9.077.887-13.28 2.515-6.288 2.436-18.365 14.033-6.331 17.567 4.955 1.455 11.345.923 16.424.572 4.405-.304 11.307-2.31 15.558-.795 2.216-.628 3.015.178 2.398 2.416l.306 4.603.616 9.263 1.259 18.955c-3.693-5.234-8.773-15.56-16.642-14.38-6.754 1.013-10.747 11.486-12.922 16.89-1.768 4.392-2.91 8.995-4.105 13.566-1.15 4.395-1.568 10.609-3.669 14.592-2.068 3.923-4.943 2.606-9.178 3.01-5.296.504-3.161-2.46-2.32-6.96 1.282-6.855 5.82-18.68 1.445-25.07-5.586-8.155-13.477 6.956-15.622 11.037-2.006 3.815-3.717 7.769-5.253 11.794-.991 2.599-1.793 8.21-4.353 9.63-3.134 1.743-8.104-1.043-10.983-1.954-3.382-1.07-7.078-1.517-10.55-2.217 9.887-15.477 20.168-30.72 29.76-46.38 4.795-7.828 10.844-16.048 13.478-24.905.5-1.677 1.112-3.28.908-5.064-.176-1.523-2.465-3.917-2.32-4.974.216-1.566 3.36-2.873 4.83-4.52 5.109-5.719 6.392-12.526 7.979-19.797 1.725-7.913 3.817-16.22 4.981-24.215zm19.303-47.997c7.53-1.622 16.086 2.704 22.383 6.197 4.154 2.304 15.241 7.121 15.668 12.764-.115-1.53-10.311-.575-12.327-.526-8.614-1.865-17.802-4.38-25.839-8.097-2.927-1.354-6.365-2.68-5.299-6.155.7-2.283 3.28-3.723 5.414-4.183zm-8.735 111.023c-4.76-.274-22.043-.086-13.345-8.715 5.445-5.404 15.472-6.577 22.715-6.606 2.594-.01 5.152.194 7.73.458.706.085 1.414.168 2.12.252 2.16-.43 2.834.465 2.023 2.681.387 1.297 1.007 8.988-.132 10.07-1.51 1.434-6.323.801-8.097.94-4.353.34-8.645.946-13.014.92zm25.276 65.371c-12.523 1.866-25.025 4.245-37.724 4.444 1.896-9.256 4.104-18.492 7.554-27.309 2.206-5.634 6.21-17.8 13.93-17.201 6.16.478 13.35 11.034 15.067 16.427 2.24 7.03 1.173 16.328 1.173 23.64zm32.161-140.697c-.25 1.283-5.87 3.59-7.072 4.288-8.67 5.038-16.393 12.506-21.581 20.993-.577-3.276-.485-9.488-3.231-11.815-4.832-4.096-3.84 5.08-4.417 7.884-.541 2.629.132 2.203-2.135 2.437-2.011.207-7.143-3.56-8.998-4.508-5.13-2.623-10.045-5.478-14.972-8.456 4.082-6.743 16.119-9.839 22.973-12.536 9.851-3.876 19.561-5.86 29.986-7.465 1.743.907 1.97-1.133 3.272-1.59a.51.51 0 00.1-.277c1.531 2.275 6.448 9.135 6.075 11.045zm12.753 90.871c4.852 22.292 6.06 45.484 12.188 67.506 5.826 20.934 11 41.776 17.73 62.427 3.878 11.895 7.478 23.909 12.66 35.332 3.614 7.966 6.482 24.957 15.287 28.686 5.764 2.44 8.32.28 7.704-5.565-.534-5.086-3.17-8.28-5.348-12.673-.758-1.53-3.227-5.848-2.958-7.471.334-2.018.847-1.801 2.952-2.799 4.467-2.119 8.922-3.554 13.68-4.78-1.92 2.976-5.753 7.233-6.06 10.874-.256 3.004 1.902 8.514 4.886 9.667 2.821 1.089 6.14-1.208 8.555-2.61 2.796-1.622 5.46-2.073 8.538-3.225-3.922 5.651-10.347 10.153-7.596 17.927 2.935 8.292 12.04 1.51 17.863.573-1.663 6.425-9.042 13.75-14.349 17.326-3.563 2.4-7.43 4.564-11.253 6.507-1.48.752-3.425 1.211-4.785 2.107-.517.341-1.387 1.787-1.856 2.014-6.605 3.19-15.613 4.003-22.8 5.536-7.917 1.689-14.731 2.102-22.882 1.71-6.743-.323-14.213-4.466-19.848-7.945-4.284-2.644-4.91-5.876-6.243-10.545-2.211-7.737-4.19-15.524-6.3-23.288-1.82-6.693-2.666-13.124-3.898-19.915-2.612-14.393-3.814-29.013-6.615-43.38-2.782-14.272-3.712-28.729-4.482-43.316-.371-7.027-1.515-14.194-1.863-21.083-.284-5.604-.187-11.243-.157-17.006.022-4.051-1.414-8.1-1.316-12.165.087-3.595.416-6.832.037-10.463-.81-7.737-1.443-15.381-2.051-23.13-1.186-15.102-4.678-30.006-6.07-45.044-.601-6.504 6.537-12.74 11.372-16.528 5.155-4.037 9.29-9.706 14.962-12.883 2.1 26.083 4.746 52.032 10.316 77.622zm-85.418 278.866c-5.592 2.493-11.182 4.99-16.777 7.479-4.113 1.83-9.509 5.59-14.03 5.251 3.214-4.353 5.239-9.331 8.666-13.56 3.421-4.22 6.245-8.705 9.338-13.166a172.652 172.652 0 0012.803 13.996zm1.19-21.89c8.46-4.46 20.481-12.94 30.397-11.341 7.143 1.152 15.233 6.381 19.546 12.14 2.023 2.7 4.046 5.22 6.362 7.868 2.121 2.426 3.21 2.111 1.355 4.641-1.427 1.946-4.79 3.264-6.98 4.016 0-4.258 1.325-8.527-3.791-8.106-2.018.166-4.373.649-6.384.977-1.734.283-2.739 1.036-4.217 1.384-1.576.37-3.46-.066-5.094.062-2.815.22-5.067 1.349-7.733 1.94-5.515 1.22-10.17 2.91-15.541 4.715-2.457-3.756-4.52-8.27-7.858-11.341-3.731-3.433-5.323-4.18-.062-6.954zM526.42 48.486c.812-.086 1.74-.59 2.367-1.644-1.098 1.843-1.745 1.927-2.367 1.644zm-25.36 2.934c.983.179 1.955.397 2.769.78.801.375 1.233.803 1.661 1.178-.2-.087-.416-.18-.66-.282-1.056-.442-2.409-1.239-3.77-1.676zm-16.913 139.74zm-3.288.477zm-1.315-2.691zm3.982 1.456zm-.678-.59zm140.64-134.72c.18.052.339.074.485.083a.792.792 0 01-.486-.084zm4.35 2.915c-.529-.49-.842-.971-1.003-1.453.082.05.172.097.273.137l.472-.469c-.218.406-.293.798-.125 1.15.812 1.698 1.802-.883 3.027.394-.917-.113-2.036.24-2.643.24l-4.24 5.818c1.914.955 2.513-.224 3.581 1.516.052.085.098.292.14.565-.445-1.27-1.604-1.025-3.72-2.08 1.412-1.94 2.825-3.88 4.239-5.818zm3.662 4.268a.735.735 0 010 0zm.4-2.061zm-2.09 5.165zm-2.125 7.63c-2.02-1.082-.266-2.444-.182-4.106.007-.148.01-.273.014-.41.014.402.017.732.007.893-.137 2.349-1.804 3.003 1.23 3.714.207.05.476.075.781.087-.775.056-1.451.036-1.85-.178zm31.324 17.455c-.126-.96 4.366-3.056 4.945-3.314-.71.317-5.065 2.404-4.945 3.314zm5.11-8.504c-.03-.013-.064-.017-.094-.03.006-.071-.001-.137-.001-.206.02.087.049.168.094.236zm2.39 7.756c.025-.104.073-.383.126-.715.079.41.167.795.25 1.13a3.16 3.16 0 00-.375-.415zm-3.489-.06c-.004-1.627.508-1.28.825-1.23-.29.436-.827.517-.825 1.23zm-4.74 3.576c.472-.093.87.178 1.236.491-.798-.211-1.454-.45-1.236-.491zm-3.854 9.298c-.074.025-.14.041-.21.061.07-.02.136-.036.21-.061zm.389-.14c-.053.021-.098.035-.148.054.05-.019.095-.033.148-.054zm-.729.239zm2.963 56.268c.2-.335.628-.446 1.113-.5-.61.234-1.08.733-1.19 1.457-.122-.268-.153-.571.077-.957zm3.533-10.408c-.033-.01-.068-.023-.1-.026-.99-.077-1.42.563-1.526 1.542.066-.854.352-1.55 1.09-1.777l-.108-.224c.19.171.406.333.644.485zm-1.172 5.27c-.021-.116-.046-.243-.072-.375.11.466.237.93.366 1.374a6.808 6.808 0 01-.294-.999zm.86-16.204zm.242-.143zm-.555.257zm1.017-11.83c.012.438.014.874.027 1.287a4.555 4.555 0 01-.027-1.286zm196.04 583.411c-2.701-2.428-11.751-2.59-15.344-3.272 7.774-7.438 13.618-26.241-1.234-28.655-3.288-.535-4.218.732-4.97-2.991-.462-2.282.478-4.384-.654-6.657-2.688-5.396-12.9-4.794-18.002-5.57 1.219-4.285 4.209-11.94-.295-15.419-3.554-2.744-10.95.919-14.725 2.094-10.202 3.175-20.564 6.799-29.169 13.194-3.856-5.205-7.889-10.342-11.123-15.97-3.086-5.371-4.997-11.308-7.898-16.775-2.909-5.483-5.996-11.947-10.058-16.659-3.438-3.99-8.155-4.384-12.692-6.289-11.51-4.83-21.485-4.553-33.513-2.767-12.022 1.785-22.444 8.816-32.627 14.95-3.996-13.476-13.24-28.119-27.57-32.275-6.432-1.866-13.199-.065-19.078 2.867-7.286 3.635-13.014 9.815-20.14 13.256 8.125-13.908 18.381-26.99 27.31-40.124 4.896-7.204 11.083-13.635 15.866-20.975 4.876-7.483 8.468-15.802 12.005-23.97 2.988 7.623 3.494 15.643 6.238 23.292 2.52 7.022 4.244 14.226 7.109 21.132 2.99 7.21 5.633 14.322 9.675 21.03 2.306 3.828 7.99 15.749 12.18 8.102 9.321 6.297 18.32 10.1 29.98 9.823 5.338-.126 11.283-.294 16.392-1.49 5.19-1.213 10.148-2.847 15.305-4.01 4.08-.921 7.81-3.412 11.52-5.257 4.27-2.122 8.498-5.937 11.794-9.283 4.08-4.143 8.298-8.131 12.4-12.248 4.06-4.074 3.767-8.232 5.939-13.295 2.267-5.282 3.239-9.95.24-15.282-2.196-3.905-6.082-3.367-6.991-7.322-.863-3.752-.024-7.288-2.38-10.73-1.79-2.613-8.226-4.36-8.247-7.026-.018-2.204 2.272-4.154 2.18-6.798-.081-2.36-1.236-6.157-2.505-8.154-2.384-3.757-6.016-3.885-10.11-2.736-9.895 2.773-19.596 9.904-26.4 17.394-9.33-25.553-16.677-51.666-23.501-77.802-3.015-11.544-5.376-23.24-7.293-35.013-1.897-11.655-4.772-23.396-6.054-35.111-.77-7.027-2.932-13.601-3.943-20.543-.836-5.746-1.394-11.538-2.218-17.287-1.821-12.74-4.35-25.284-6.319-37.993-1.087-7.023-3.542-13.168-5.431-19.932-1.62-5.8-2.585-10.76-5.293-16.239-5.167-10.45-10.479-23.251-20.515-29.892-8.926-5.907-17.583-10.843-28.461-12.052-6.382-.71-11.523.79-17.763 1.478-5.525.61-10.256 3.663-15.645 4.763 0-5.12-.5-5.26 4.174-7.081 2.692-1.05 5.318-2.202 8.06-3.114 2.89-.962 5.078-1.9 7.543-3.667 2.908-2.086 1.074-1.424 4.559-.703 5.494 1.138 3.875-.182 7.489-2.919 2.102-1.593 4.248-.62 6.709-.303 2.296.297 6.074 1.312 7.826-.755 1.333-1.572-.12-4.269.862-5.977 1.55-2.697 5.993-2.574 8.364-4.386 2.596-1.981 2.83-4.215 2.268-7.262-.39-2.11-3.714-6.795-3.527-8.61.125-1.208.762-1.562 1.584-1.66 6.497.327 6.184-.652 4.6-6.41-.094.853-.15 1.578-.215 2.203-.018-.894-.01-1.73.214-2.203.169-.357.777-.587 1.327-.875-.145.144-.297.291-.476.456.278 1.224.359 4.422 1.534 5.292.841.623 3.79.56 4.385-.482 1.245-2.174-3.035-3.408-3.202-5.022 4.914-.41 3.238-2.806.668-5.251-.102-.671.288-.989 1.17-.953a2.674 2.674 0 00-1.523-.803c.383-.064.716-.176.89-.448.154-.24.165-.57.108-.94.095.285.179.53.24.719 4.24 1.71 2.06-7.37.302-8.918.136-2.52.27-5.039.404-7.558-1.21.798-2.13 2.042-2.446 3.34.044-1.198.743-2.216 2.446-3.34-2.725-1.2-2.993-1.346-.067-1.602 2.426 2.212 2.087.376 3.59-.975-.09.08 2.274-2.49 2.116-2.097 1.123-2.779-.116-8.642-4.642-6.733 2.458 2.2-.01 2.606-.868 4.498-.029.063-.051.13-.075.196a2.91 2.91 0 01.2-.646c1.517-3.259 1.875-.757.207-4.464l-.005-.009c.442.223 1.132.176 2.227-.285 1.366-1.668 1.78-.986 2.512-3.135.641-1.88.344-3.162-.937-3.861.147.038.293.08.44.118.566-1.446-.22-2.823-1.53-3.488-.528.865-1.057 1.731-1.584 2.597.24.077.48.146.72.219l-.008-.001c-1.678-.194-2.357.107-2.609.881-.084-.347-.107-.689.085-.999.205-.33 1.654.16 1.812-.1 2.6-4.26-.146-7.807-4.33-9.977-1.588-.824-4.72-.852-5.28-2.781-.398-1.363 1.577-4.661 1.956-6.278 2.919-1.339-2.47-2.122-2.506-2.128-.162 1.907-.057 2.752 1.044 2.604-1.11.15-1.206-.703-1.044-2.604 1.584.243 6.258-.193 8.55-1.751 3.792.108 5.744.765 8.045-2.524-2.248-.933-4.896-.43-6.914-1.863.093.43.17.821.218 1.182-.175-.533-.555-.992-1.065-1.427.33.283.16.373-.232.36a3.1 3.1 0 00.232-.36c.137-1.596 1.31-.946 2.498-.846-.03-.514-.234-.945-.454-1.373.218.41.421.831.454 1.373l2.259-1.438c.41-.118.655-.284.751-.493l.003.012c3.598 1.074 2.503-6.55.847-6.51-.444.01-.765.174-1.003.432.051-.703.172-1.446.46-2.487h-.003.003c.169-.448.336-.896.506-1.344-.908.058-3.843-1.695-3.896.396a2.148 2.148 0 00-.462-1.05c.263-2.313-1.099-2.116-3.209-2.763-.784-.24-1.648-1.74-2.531-1.11-1.327.946-.528 1.838.324 2.512A2.821 2.821 0 01657 80.894c-.095-.09-.187-.159-.278-.229.587-.343 1.082-.89 1.407-1.656-2.713-2.146-3.858-.741-5.945.985.83.692 1.794 1.065 2.717 1.103a3.263 3.263 0 00-.135.326c-1.046-.131-1.907-.607-2.582-1.429 2.217-1.834 2.017-2.959-.679-4.047-.912-.367-1.488.45-2.616.018-.559-.215-.963-1.19-1.509-1.513-4.08-2.415-8.98-1.04-13.326-1.613.544-.07 1.03-.138 1.4-.187-.43-1.498-1.596-2.146-2.823-2.602.002-.854.003-1.708.002-2.561a2.61 2.61 0 00-.503-.062c.285-.225.454-.53.414-1.051-1.05.38-1.938.1-2.512-.66 1.141 1.458 3.364.695 4.042-1.174.711-1.958-.813-3.274-2.139-4.728.032-1.397-.562-1.899-1.329-2.033 1.384-2.717 1.694-1.37.21-4.767-.123-2.29-2.066-1.459-3.377.012.138-.337.28-.684.414-1.044-1.03-.07-2.06-.14-3.091-.212.262.836.84 2.325.08 3.035.505-.726.146-2.313-.08-3.035-1.263-.704-2.524-1.407-3.787-2.113.106.226.397 1.076.757 2.038-.971-1.352-1.763-2.19-3.087-3.582-.645-.68-3.174-3.94-3.875-4.143-4.286-1.242-7.528 7.14-12.757 5.993-3.083-.677-1.644-1.475-4.556-.909-1.596-2.072-12.007 1.186-12.406 3.158.195-.053.344-.075.465-.078-1.174.42-2.194 1.068-3.33 1.506-2.85 1.1-1.155 1.386-4.39-.464-1.104-.631-1.512-.434-1.941-.492 1.393-.625 2.064-4.957 2.084-6.5.05-3.69-.438-3.043 1.002-5.69-1.332-.02-2.269-.134-2.968.183.2-.628.343-1.244.34-1.84.72-1.951.085-4.25-2.144-4.793-3.371-.823-4.033 4.017-1.59 4.81-2.336-.758-1.4-3.82-4.58-4.234 1.166-.06 1.891.16 2.978 1.497l1.08-2.176c-2.533-.264-3.704-.48-5.749.71-2.002.358-3.413 1.808-4.924 3.223a197.32 197.32 0 00-11.598 11.8c-1.946-3.998-4.095-6.909-7.253-2.434-2.852 4.038-5.16 9.62-6.642 14.315-2.962-1.36-1.713-1.803-2.956-4.004 1.292 2.144-.022 2.638 2.956 4.004l.888-2.811c-2.594-2.956-2.484-5.892-5.293-9.043-.31 1.01.584 2.45.74 3.36.175 1.009-.944 1.71-.69 2.795 1.05-.383 1.293-.152 1.326.268-.036-.419-.283-.648-1.326-.268-.416-1.772.618-2.715.041-4.694-.233-.8-.572-1.385-.98-1.95 1.786-2.989-3.992-5.06-5.338-3.281a3.187 3.187 0 00-.373.634c-2.256-1.015-2.953 1.144-4.005 2.766l-.751 1.522c-1.328 1.091-2.56 3.374-3.56 4.867-2.14 3.194-3.036 7.867-5.655 10.527.088-1.714 1.023-5.513-2.055-3.98 1.016-.507 1.162-1.122.939-1.835.192.108.399.206.64.286.432.043.866.084 1.3.126-.055-2.427-1.647-4.022-3.526-5.312 0 .634-.02 1.286.021 1.91l-.03-.067c-.825-1.976-.476-2.558-1.19-3.164.28.068.602.116.997.135-2.3-3.888-5.356-4.51-9.582-3.414.287.068.589.126.896.183-.478.001-.942.087-1.375.298-1.641.799-4.07 5.391-5.208 6.984-4.008 5.604-5.875 12.47-7.973 18.948-.59 1.823-1.484 6.095-3.763 6.707-2.648.71-5.454-3.604-7.785-5.046-7.46-4.615-11.17 3.67-12.319 10.245-1.714 2.908-1.319 5.15 1.154 6.527-.692-1-1.011-2.066-1.142-3.165.328 1.868 1.886 2.516 2.167 3.316.154.439.369 3.101.364 3.636 1.275.951 1.37 1.654.287 2.109-.662.452-1.282.958-1.86 1.517-1.788 1.884-1.771 4.497-3.407 6.33-1.848 2.073-3.546 1.157-4.418 4.565-1.495 5.838 2.188 14.654 8.816 15.212-.787 2.3-1.805 4.63-2.392 6.989-.78 3.136-.726 3.454.753 6.455-11.025-1.64-10.163 10.031-3.88 15.763 1.49 1.359 3.12 2.205 5.041 2.807 1.39.436 5.587.193 6.587 1.512 2.106 2.78-2.596 6.395-3.012 9.497-.042.318-.06.863-.046 1.496-1.736 2.125-1.65 2.3.83 4.287 1.359 1.75 5.558 1.332 6.835 3.006 1.963 2.576-2.416 6.723-.221 9.733 1.746 2.392 3.567.901 6.361 1.915 1.354.618 2.706 1.237 4.057 1.86a4.84 4.84 0 012.078-.829c1.578.795.071 2.194 2.061 2.662 1.034.326 3.423 1.565 4.467.923-1.481.91-2.476 3.163-3.326 5.639-.809 1.324-1.556 2.781-1.259 3.875-.498 1.516-1.009 2.9-1.618 3.862 3.44.524 3.035 3.765 5.417 5.544 3.217 2.754 3.753.198 2.992-1.145.322.163.653.375.994.617.065.045-.627 1.681.052 2.063.95.536.949-.002 1.937-.012.93-.011 2.279-1.407 3.415-1.524.605-.062 2.393.765 2.763.52 1.03-.683.95-1.432.55-2.338l.46.92c1.11 2.896 1.667 2.244 3.348 1.414-.454.224 1.318-1.098 1.682-.992-.828-2.295-4.112-2.054-6.134-2.628 1.281.363 3.362.377 4.541.885 1.974.85 1.35 1.714 3.687 1.979.983.111 4.996-.979 5.703-1.693a.708.708 0 00.151-.243c.364-.58.729-1.163 1.091-1.745 1.483.172-.123 2.452 2.205 1.545 1.739-.68.892-1.623.339-2.653a2.4 2.4 0 00-.6-.751c2.403.575 5.26 3.808 8.54 2.903 1.85-.511 1.952-1.773 3.308-2.954 1.812-1.577 2.373-1.334 4.568-2.097 1.328-.462 2.743-1.482 4.081-1.72 2.178-.387 1.577-.147 3.382.77 1.079.55 1.693 1.579 3.055 1.778 1.244.182 3.198-1.25 4.205-.856 2.74 1.071 2.043 4.917 2.198 7.453-13.87-4.415-30.084 2.641-40.293 12.331-2.768 2.627-4.58 5.742-7.039 8.599-2.67 3.1-5.186 4.508-5.561 8.924-.323 3.808 1.394 6.094.038 9.753-1.3 3.506-2.72 6.644-3.67 10.3-4.543 17.458-4.684 35.587-8.05 53.286-3.116 16.377-7.565 30.966-14.895 45.978-3.4 6.96-6.248 11.22-13.702 14.155-6.03 2.374-10.444-.738-13.392-6.152-7.93-14.57-9.059-29.554-8.962-45.806.045-7.807.936-15.615 1.688-23.377.78-8.045.195-15.56-.364-23.594-1.123-16.105-4.798-29.919-10.327-45.066-2.621-7.184-4.833-14.188-11.147-18.862-3.537-2.617-7.089-5.89-11.235-8.154-3.317-1.811-5.292-3.447-9.075-4.258-2.487-.533-4.754-1.356-7.157-2.13-5.668-1.823-12.225-2.387-18.171-2.367-13.884.047-29.12 4.721-41.618 10.715-6.223 2.984-12.98 7.428-17.08 13.09-1.69 2.336-2.842 4.927-3.991 7.556-1.375 3.142-.943 3.717-3.855 3.608-1.823-.07-3.863-1.757-5.952-1.847-2.287-.098-3.961.699-6.09 1.289-2.702.749-5.243 1.42-7.645 2.973-5.83 3.764-10.761 9.764-15.216 14.998-8.156 9.581-15.535 20.318-23.165 30.077-7.514 9.608-16.642 18.135-28.313 22.49-4.452 1.663-9.382 1.999-13.928 3.343-1.995.589-4.41 2.154-6.5 2.127-3.285-.042-3.032-1.65-4.17-4.257-1.351-3.096-3.307-5.506-5.75-7.819-10.84-10.263-24.321 4.944-23.485 16.657.49 6.845 5.62 11.359 5.44 18.076-.17 6.284.203 12.659 2.445 18.623 2.516 6.69 8.703 13.627 14.159 18.177 5.054 4.216 11.385 5.111 17.752 5.815 2.918.322 5.946 1.19 8.768 1.139 2.418-.044 4.617-1.023 7.085-.923 4.187.168 6.432.141 10.355-1.345 2.91-1.102 5.536-1.714 8.705-1.642 0 6.678.423 13.209.997 19.864.076.879.683 3.162.28 3.945-.5.967-1.092.33-1.713 1.025-1.482 1.658-2.557 2.473-3.667 4.63-3.044 5.911-3.976 12.524-2.79 19.116.931 5.168 3.97 7.297 3.252 12.788-.845 6.45-2.416 13.036-2.72 19.529-.145 3.097-.181 5.436-.837 8.44-.379 1.745-1.653 4.886-1.55 6.649.064 1.089 1.219 1.571 1.22 2.569.003.87-1.002.754-1.071 1.5-.211 2.249-.334 4.286-.285 6.547.063 3.06-.236 6.099-.121 9.158.087 2.33-.455 7.845 2.16 6.936-.698 1.646-.883 3.232-.952 4.812a1.508 1.508 0 01-.038-.47c.16-1.823.214-2.512.99-4.342l-1.493.52c-.913 2.354.208 4.661.459 7.005-.008.234-.016.468-.03.705-.212 3.404.045 6.737.3 10.133.58 7.755.853 16.399 2.95 23.367 2.3 7.638 1.565 17.24 2.451 25.652 1.015 9.628 2.66 19.1 3.885 28.693 1.094 8.565 1.622 17.858 3.5 26.2 1.539 6.83 2.841 13.484 3.667 20.664 1.142 9.957 4.776 17.542 8.775 26.59 1.692 3.828 1.808 3.767-1.297 6.564-1.3 1.171-2.403 2.542-3.728 3.686-2.653 2.294-5.551 3.63-9.035 4.042-8.577 1.017-17.242 4.065-22.06 11.46-4.657 7.147-1.64 15.523 1.845 22.805-4.599.39-17.038.11-14.127 8.488 1.989 5.728 12.595 3.81 17.28 3.872 6.846.092 13.74-.244 20.525-.337 3.089-.043 3.404-.363 6.412.815 2.835 1.11 4.998 1.232 8.065 1.03 3.267-.215 6.53.266 9.696-.204 3.99-.591 6.472-1.09 10.48-.38 2.898.512 5.22.26 8.111-.121 3.205-.425 6.239-.169 9.545-.258 7.722-.207 15.385-.061 23.112.025 7.512.083 15.028-.943 22.488-.606 13.009.587 26.25.052 39.318.356 6.029.14 10.685 3.649 16.728 3.288 6.14-.367 12.366-.423 18.46-1.28 10.491-1.479 20.601-3.57 31.26-4.115 6.738-.344 12.66 2.556 18.999 4.378 2.297.66 4.363.35 6.51.84 2.026.461 4.104 1.784 6.244 2.333 5.066 1.299 9.908 1.793 14.36 1.913.577 1.066 1.242 1.197 1.996.39l.918-.52c1.42-.189 2.433-.829 3.923-.923 2.296-.147 4.647.166 6.777-.04 4.463-.429 8.652-.711 13.586-.204 2.927.301 5.488-.124 8.369-.07-.033-.002 3.953.776 4.043.741.353-.137.91-1.12 1.14-1.164-.082-.943.201-1.368.852-1.276.522-.114.867.16 1.033.818-.156.019 1.242.725 1.34.74.081.013 3.682-.413 3.935-.508 1.033-.387 1.472-1.511 2.296-1.68.976-.2 1.558.877 2.403.832 1.865-.1 1.645-.931 3.078-1.19 5.03-.907 11.19.272 16.386.28 5.18.01 10.328-.465 15.314-.683 6.131-.27 12.136.893 18.313.067 5.874-.787 11.752-1.129 17.67-1.378 12.37-.521 25.063.03 37.317-1.425 12.761-1.513 25.735 0 38.515-.228 13.475-.24 27.023-.363 40.493-.915 13.407-.55 26.759-2.146 40.113-2.467 3.398-.081 6.734-.891 10.118-1.137 3.099-.225 6.146.268 9.27-.005 5.689-.498 10.863-.116 16.58-.204 6.395-.097 12.607-1.073 18.967-1.465 6.429-.396 12.796.511 19.173-.757 3.486-.694 9.988-5.469 5.54-9.469z"/><path d="M604.56 140.444h-.023c-.034.037-.067.077-.098.112l.122-.112zM657.817 111c.808-2.808-1.238-4.82-2.608-7-.807 4.948-3.285 4.734 2.608 7M509.463 216.416c.021.057.048.107.065.167.023-.099-.004-.15-.065-.167M487.139 212.71c.184.414.586 3.274.877 3.288 2.59.123-.567-4.715-2.223-4.998-2.395 1.546 1.403 1.838 1.346 1.71M487 196c-.171-2.185-.906-2.462-3-1.4.626 1.374 1.37 1.177 3 1.4M458 142.501l3 .499-1.762-4-1.238 3.501M478.527 581.494c0-.002 0-.004.003-.006-.073.028-.084.034-.003.006M274.512 309.148c2.118-3.541 6.134-7.916 10.706-6.444 4.27 1.376 5.453 6.975 7.294 10.497 3.58 6.847 4.695-.505 5.488-4.66-.647-8.324-3.885-21.871-14.839-20.436-8.332 1.094-15.527 14.478-13.94 22.392 1.333 6.652 3.583 1.508 5.291-1.349M590.267 152.287c-4.09-1.46-4.087 2.96-4.245 6.283-.145 3.053.328 10.215 4.182 11.305 3.839 1.088 4.2-5.237 4.796-7.794-.895-3.035-1.39-8.6-4.733-9.794M595 145.654c-3.003-2.654-5.008-3.467-8.843-1.753-1.974.882-4.794 2.801-5.103 5.221-.965 7.532 11.3-1.923 13.946-3.468M595.626 190.773c6.998 1.808 7.445-7.757-.337-7.773-5.207-.01-3.571 6.763.337 7.773M542.132 161.039c-2.612.381-3.535 2.02-2.975 4.636.647 3.018 2.283 3.043 5.212 3.325 7.06.022 2.452-8.646-2.237-7.961M604.095 144.841c.646 1.792 4.154 2.601 5.988 1.918 2.181-.813 2.634-2.788.666-4.602-1.686-1.553-4.01-1.143-6.12-1 .07.679-.936 2.57-.534 3.684M384.561 349c3.337-.005.188-5.65-2.561-6 .058 1.746-.057 6.005 2.561 6"/></g></g></svg>