<svg width="1024" height="768" xmlns="http://www.w3.org/2000/svg"><g fill="none" fill-rule="evenodd"><path d="M372.117 194.471L370 229.065c4.539-1.307 33.41-9.802 31.628-1.189-1.28 6.178-9.397 12.86-13.533 17.162a298.457 298.457 0 01-11.745 11.56 548.743 548.743 0 0122.338-8.01c5.677-1.896 11.396-3.746 17.213-5.167 2.159-.528 7.99-2.681 10.03-1.213 5.36 3.858-23.724 32.27-27.708 36.276 5.633-2.62 11.402-5 17.268-7.042 4.236-1.474 17.322-7.109 21.07-2.297 4.012 5.148-5.927 16.97-8.684 20.717-3.95 5.37-8.23 10.523-12.72 15.45 18.665 16.764 40.599 31.686 63.942 40.96 17.115 6.8 33.928 8.532 51.988 4.8 18.554-3.834 36.348-11.187 53.263-19.594 9.934-4.938 19.737-10.28 29.076-16.283a398.523 398.523 0 01-11.22-14.318c-5.183-6.93-11.554-14.502-14.51-22.752-2.892-8.074 7.96-6.498 13.165-6.06 7.538.636 15.056 1.983 22.443 3.595a364.967 364.967 0 01-15.377-11.312c-6.55-5.084-15.287-10.832-19.574-18.146-3.77-6.432 4.504-4.807 8.33-3.965 9.122 2.01 17.998 5.434 26.698 8.774a516.116 516.116 0 0118.974 7.706 197.941 197.941 0 01-11.27-10.606c-4.86-4.941-11.413-10.976-13.592-17.78-4.437-13.858 25.41-3.405 30.507-1.266L645.177 186 526.61 217.551c-4.27 1.137-9.616 3.612-14.07 3.744-4.035.12-8.908-1.696-12.842-2.447l-71.52-13.665-56.061-10.712" fill="#FF5678"/><g fill="#000"><path d="M796.896 688.215c-4.267 2.442-9.265 4.327-14.005 5.591-2.784.744-7.384 3.039-9.83.936-1.174-1.01-1.443-3.304-2.136-4.633-1.096-2.105-2.655-3.922-4.115-5.782a238.047 238.047 0 00-11.074-13.097c-1.826-2.01-5.161-6.7-8.378-6.392-4.01.385-3.914 5.935-2.909 8.771 3.2 9.028 12.885 16.898 19.212 23.7-1.609 2.475-10.443 2.18-12.896 1.601-3.746-.884-4.125-3.551-5.834-6.602-3.998-7.13-12.109-11.118-18.776-15.309-2.43-1.53-7.597-5.765-10.765-4.7-3.002 1.01-2.872 4.846-1.916 7.35 1.444 3.785 5.553 6.41 8.592 8.802 4.052 3.189 7.757 6.659 11.133 10.562-4.867.397-9.716 1.083-14.57 1.483-5.871.484-10.764-2.737-16.17-4.563-5.02-1.697-10.025-3.132-14.963-5.087-5.544-2.196-11.352-2.96-16.945-4.887-21.949-7.559-43.455-17.067-64.606-26.65-10.078-4.568-19.95-9.137-30.45-12.711-7.654-2.605-19.68-7.797-21.51-16.913-.966-4.817 2.553-9.997 3.072-14.81.608-5.66.13-11.89-1.595-17.322-1.52-4.785-4.04-9.217-6.025-13.811-2.313-5.355-.242-5.268 4.251-5.877 5.378-.73 11.654-3.757 16.709-5.728 5.823-2.273 11.596-5.447 16.929-8.712 4.824-2.952 9.021-6.758 12.861-10.89 3.907-4.205 6.436-9.187 10.213-13.495 13.94 17.143 27.188 34.547 42 50.949 6.99 7.742 14.592 14.143 23.207 20.03 3.597 2.46 7.166 5.266 11.085 7.21 4.901 2.432 10.38 3.941 15.417 6.161 19.314 8.51 37.747 17.813 55.765 28.794 8.717 5.311 16.033 11.4 23.708 18.064 2.39 2.075 21.96 14.164 15.314 17.967m-226.567-140.44c-3.121 1.414-6.096 3.25-9.426 4.158.944-5.744 6.304-14.408 13.176-13.455 2.626.364 4.606 2.403 3.453 5.214-1.05 2.554-4.98 3.077-7.203 4.083M353.076 391.982c-3.538 1.953-6.835 3.091-8.91-1.102 1.537-.308 8.518-1.239 8.91 1.102m-5.891-11.855c-2.734-.829-.548-1.7.393-2.702.733-.778 3.16-3.51 4.01-3.961 3.75-1.987 6.65 5.406 8.443 7.806-4.246-.378-8.713.11-12.846-1.143m29.237 25.598c-5.183.879-4.608-5.606-4.453-8.891 1.093 1.334 8.494 8.207 4.453 8.891m17.176-11.2c-6.319 1.066-10.494-9.851-9.361-14.626.996-4.207 5.894-6.556 9.792-7.176 3.778-.602 9.039.22 10.161 4.577.992 3.851-6.38 16.514-10.592 17.225M543.17 559.328c-4.54 1.395-8.99 1.571-13.554 2.94-5.178 1.555-9.97 1.417-15.16 2.475-2.11.43-7.805 3.505-9.864 2.818-2.04-.68-4.992-7.01-6.164-8.656 9.18-3.816 17.012-8.743 23.063-16.784 4.811-6.394 9.971-15.973 6.944-24.226-3.414-9.304-15.182-11.324-23.028-7.437-3.712 1.837-7.391 4.122-10.452 6.923-3.499 3.202-4.875 6.698-7.142 10.647-2.292 3.994-3.9 1.772-6.192-1.62-1.957-2.899-1.702-5.826-4.148-8.687-1.248-1.46-3.18-2.868-3.832-4.753-.413-1.195.457-3.314-.326-4.255-1.101-1.322-2.441.231-3.364-.95-.67-.856-.45-2.811-1.143-3.884a9.621 9.621 0 00-2.007-1.563c-.896-.442-1.059-.996-.49-1.661-.713-1.32-.027-1.764-1.552-3.368-2.378-2.5-4.546-4.897-6.239-7.849-.773-1.35-.697-3.354-1.658-4.523-1.319-1.606-3.516-1.365-4.65-3.352-1.01-1.77-.334-4.867-2-6.475-.878-.25-1.757-.497-2.636-.74a3.799 3.799 0 01-1.157-2.34c-.925-1.424-1.11-3.097-2.277-4.602-2.236-2.878-5.243-5.537-7.218-8.571-2.076-3.19-.975-3.727 2.631-4.868 3.252-1.031 6.222-1.987 9.237-3.741 13.937-8.111 27.15-29.626 5.028-36.2-8.21-2.438-14.953-8.998-24.056-6.42-3.946 1.119-7.69 3.498-10.633 6.322-2.034 1.953-3.918 7.174-6.415 8.174-4.49 1.798-2.592-2.694-3.866-4.758-.609-.985-3.058-2.12-3.966-3.017a17.586 17.586 0 01-2.835-3.678c-1.373-2.413-2.213-3.758-4.193-5.723-.746-.742-4.473-4.574-1.112-4.073-1.361-4.149.625-4.773 3.37-7.804 3.225-3.56 6.554-8.505 6.573-13.492.037-9.575-11.31-13.865-18.435-8.182-1.45 1.157-10.026 12.321-8.27 5.201.945-3.84 9.705-13.864 13.766-11.27-4.551-6.633-15.006 9.473-17.446 12.768-2.078-3.825-2.225-6.818-5.663-9.78-2.799 4.49-1.321-.417-1.938-1.414-1.333-2.154-.601.31-1.324-.456-.9-.953-2.317-1.704-3.275-2.966-1.64 2.226-.985-.169-1.488-1-1.175-1.945-.72-3.071-2.735-4.762-1.466-1.23-4.354-3.138-6.327-3.313-2.275-.202-2.905.67-5.223.025-2.95-.82-6.66-2.08-5.233 2.853 1.037 3.584 5.25 5.62 6.174 9.283.93 3.686-2.716 7.401-4.484 10.423-2.271 3.877-4.128 3.56-8.242 4.435-2.629.559-6.138 1.754-3.883 4.943 1.61 2.28 5.384 1.799 7.51 3.149 2.98 1.892 2.938 6.558 6.743 7.37 4.19.894 6.59-3.771 10.123-4.898 2.512-.801 10.294-.712 12.27 1.174 2.695 2.57.367 7.48 1.045 10.673 1.009 4.735 4.212 5.024 8.263 5.176 4.987.186 6.74 4.974 9.422 8.773 6.282 8.896 11.742 18.38 18.177 27.158 2.849 3.887 7.016 7.345 9.348 11.563 2.88 5.21-1.118 8.214-4.57 11.953-4.508 4.886-7.874 10.446-11.785 15.787-3.475 4.746-7.794 3.564-13.347 3.564 1.237-2.551 2.726-4.142 5.771-3.833-3.184-3.887-5.73.56-7.795 3.022-2.988 3.563-6.883 4.422-10.72 6.765-1.359.828-8.754 6.2-6.507 8.034.255.208 12.497-7.845 13.891-8.584 0 2.973-.65 6.062-.233 9.018.305 2.168 1.83 4.43 1.504 6.683-.615 4.255-6.114 7.607-8.474 10.922-1.777 2.495-1.348 4.463-2.252 7.141-.825 2.443-.392 1.704-2.447 2.459-4.184 1.537-11.227.708-15.016-1.478-2.352-1.356-4.155-3.5-6.066-5.39-1.44-1.424-5.06-3.857-5.459-5.85-.686-3.432 6.127-9.808 7.475-13.348 3.808-9.99-2.722-17.755-12.884-18.322 3.132-2.416 7.014-.596 10.315.326-5.643-7.82-15.282-1.385-20.069 3.93-3.27-8.269-4.848-16.99-6.846-25.614-1.361-5.87-6.542-16.35-4.231-22.395 1.117-2.922 4.27-4.552 6.452-6.578 2.479-2.303 4.602-5.056 6.414-7.907 4.27-6.714 6.735-15.19.856-21.807l5.36-.88c-2.906-2.731-7.49-1.4-11.26-2.21-2.392-.514-9.276-.181-10.873-1.535-1.921-1.628-.69-9.118-.62-11.335.157-5.18.59-10.161 1.162-15.31.542-4.865.433-10.12 1.438-14.9.816-3.878 3.424-5.06 6.433-7.345 7.192-5.465 13.053-12.112 10.597-21.53l2.61-.414c-2.814-2.035-6.455-1.295-9.585-2.37 2.874-8.091 9.231-22.313 19.553-23.079.355 3.617.112 7.918 2.552 10.912 2.778 3.408 7.654 3.752 11.417 1.949 3.415-1.638 6.62-5.108 8.194-8.536 1.065-2.32.873-6.245 2.742-8.084 2.507-2.468 19.787-.98 19.258 3.185-.312 2.448-4.932 6.563-6.224 8.733-2.364 3.971-4.256 8.266-5.124 12.827-1.317 6.926-.554 16.069 6.479 19.71 7.999 4.142 17.747-1.124 24.307-5.674a115.175 115.175 0 0010.381-8.15c1.753-1.54 3.514-3.129 5.06-4.88 1.14-1.295 2.051-3.38 3.455-4.349 3.317-2.288 6.568 1.594 9.375 3.555 4.572 3.195 9.121 6.228 14.029 8.887 9.958 5.394 19.064 12.54 27.868 19.635 8.857 7.137 17.988 14.48 25.162 23.37-4.345 2.673-3.57 3.368-5.503 8.136-1.372 3.383-3.262 6.263-3.48 10.023-.377 6.488 3.788 12.017 10.11 13.453 3.536.804 6.904.16 10.18-1.285 2.545-1.123 5.082-3.889 7.742-4.576 4.944-1.275 8.9 8.065 11.671 11.355 12.308 14.611 25.318 28.645 36.908 43.853 1.283 1.684 5.096 4.974 5.406 7.204.445 3.203-4.593 6.254-6.682 8.09-1.098.964-12.734 11.91-8.827 13.65 1.114.496 4.374-6.22 5.19-6.795 3.051-2.15.743 2.065.561 4.196-.455 5.296 3.183 8.182 8.296 7.51 5.457-.716 10.314-5.023 13.691-9.092 4.231 4.901 10.846 12.31 12.07 18.857.781 4.182-2.838 14.419 3.918 15.272 1.031.13 4.763-2.639 5.459-1.067.58 1.312-3.454 3.555-4.036 3.99-2.486 1.855-3.988 3.843-5.995 6.091-2.356 2.639-5.576 4.862-8.227 7.39-2.793 2.663-8.318 9.897-12.003 6.403-1.852-1.757-1.365-4.053-4.332-5.084-2.702-.939-6.125.251-8.635 1.293-2.827 1.17-12.136 5.447-13.17 8.968-1.424 4.855 6.27-.982 7.638-1.835-1.56 3.96-2.422 9.694-6.395 12.004-3.301 1.92-8.049 3.048-11.67 4.16m-52.769-29.953c2.642-8.491 18.222-23.631 28.069-18.896-11.476 2.405-20.583 10.26-28.069 18.896m5.826 24.317c-3.84-2.14-3.633-8.356-4.973-11.993-.77-2.086-2.309-3.61-1.856-5.926.53-2.715 3.992-5.733 5.835-7.69 5.8-6.163 16.008-14.584 25.344-13.171 11.883 1.798 3.827 17.753-.22 23.246-3.448 4.684-16.737 19.654-24.13 15.534m-27.722-10.385c-12.85-.858-25.658-2.007-38.334-4.366-4.494-.836-8.26-.713-5.688-5.88.85-1.705 5.968-12.393 7.124-12.087.685.182.529 7.528.73 8.37.908 3.782 3.456 7.306 7.752 7.066 7.029-.392 11.56-9.48 15.26-14.358 2.965 3.986 5.111 8.415 8.091 12.334 1.425 1.874 6.384 6.233 5.065 8.921m-75.342-50.445c-2.156 4.947-6.492 9.653-9.508 14.135-1.705-3.61-2.904-11.895 1.14-14.564 1.53-1.009 9.731-2.7 8.368.429m44.57 14.732a80.334 80.334 0 011.984-5.649c1.257 3.958 1.9 4.075-1.983 5.65m11 4.052c1.56 2.644 4.16 5.244 3.752 8.565-.31 2.516-2.583 5.094-4.207 6.847-2.688 2.9-8.642 8.468-12.536 4.616-3.253-3.217-2.12-12.063-.607-15.683 2.16-5.172 9.88-10.643 13.598-4.345m-7.632-5.418c.894-.355-.984-6.126.76-6.7 1.52 3.466 2.952 4.404-.76 6.7m-24.556-77.663c-.58-2.13-1.907-2.04-1.429-4.672.314-1.726 1.684-3.569 2.723-4.936 2.07-2.726 4.803-4.973 7.757-6.674 6.237-3.59 14.801-5.08 20.385.54-5.22.823-21.223 5.976-21.325 13.116 5.805-1.118 10.37-6.95 16.192-8.786 4.779-1.51 9.961-1.403 14.715.19 13.013 4.358 7.602 15.606.257 22.911-4.36 4.338-9.588 7.576-15.303 9.81-2.645 1.035-4.268 1.149-6.868.63-.487-.098-1.056-1.001-1.64-1.195-1.45-.48-1.03 1.148-2.225.416-1.043-.637-3.267-4.752-3.976-5.93-1.129-1.876-1.655-3.7-3.04-5.411-1.388-1.713-2.063-4.008-3.346-5.558-.616-.746-2.305-.716-2.758-1.443-.68-1.093.186-1.89-.119-3.008m-19.985 83.882c2.958-5.14 8.018-9.502 11.933-13.993.24 7.382-5.053 12.437-11.933 13.993m3.997 2.373c6.108-2.149 9.473-7.291 10.096-13.525.79-7.897 5.749-12.042 8.734-19.136 1.145-2.719 2.479-11.666 6.916-9.105 1.522.878 2.425 4.182 3.218 5.674 1.919 3.61 4.1 7.11 6.136 10.655 1.657 2.887 4.141 5.789 3.41 9.264-.638 3.03-2.69 6.257-3.89 9.114-2.838 6.747-6.565 12.962-9.679 19.56-1.256 2.663-2.743 8.966-6.579 8.934-3.036-.026-2.697-3.345-4.696-4.483-2.523-1.436-5.392 1.297-7.465 2.43 2.387-4.03 6.56-6.313 11.25-5.554-5.616-5.593-9.41 1.954-14.23 3.634-4.568 1.593-12.67-5.918-16.515-8.047 1.47-2.49 2.8-5.538 5.33-7.176 2.4-1.556 5.344-1.317 7.964-2.239m-49.658 51.113c.669-3.22 2.559-5.124 3.757-8.049 1.39 3.546-1.864 5.638-3.757 8.049m97.042 19.762c-.328 10.845-1.214 21.661-1.534 32.51-.147 5.002-1.033 9.774-1.62 14.719-.498 4.182-.245 8.289-2.877 11.862-4.15 5.632-12.219 7.251-18.483 9.338-4.6 1.532-9.253 2.922-13.796 4.624-4.088 1.532-7.382 3.853-11.27 5.674-3.476 1.629-7.23 2.594-10.69 4.33-3.58 1.796-6.41 3.983-10.086 5.582-4.402 1.913-8.03 5.317-11.944 8.02-3.446 2.378-7.092 4.215-10.057 7.206-2.78 2.807-6.299 4.037-9.45 6.53-3.33 2.637-6.817 4.35-10.497 6.418-7.54 4.237-17.71 11.472-26.783 7.356 2.595-3.314 7.906-6.499 8.31-11.065.525-5.949-4.652-3.76-7.65-1.86-4.541 2.877-7.053 6.35-10.51 10.185-4.041 4.482-9.146 1.466-14.09.206 3.38-3.044 6.734-6.116 10.109-9.165 2.85-2.573 7.209-5.356 8.944-8.915 1.24-2.545 1.18-6.032-1.813-7.353-3.348-1.477-7.134 1.638-9.614 3.493-6.582 4.925-10.917 11.17-15.24 18.024-2.298 3.644-3.357 3.365-7.587 2.636-4.482-.772-8.964-1.595-13.483-2.136 5.986-6.148 12.676-12.809 17.404-20.002 1.532-2.331 3.53-8.474-1.137-9.04-1.923-.232-5.752 3.7-7.235 4.76-6.483 4.634-12.716 10.479-17.012 17.244-1.419 2.233-1.864 4.717-4.61 4.902-3.592.243-10.264-3.184-13.728-4.243 6.62-8.346 13.194-16.752 20.93-24.112 7.106-6.763 14.195-11.676 22.507-16.863 8.908-5.561 17.206-11.962 25.384-18.53 7.829-6.289 16.007-12.22 23.213-19.24 14.395-14.025 27.216-30.153 37.833-47.208 2.484-3.99 4.823-8.085 6.844-12.331 1.899-3.988 2.774-8.757 5.337-12.383.885-1.254 2.133-2.185 2.922-3.492.744-1.232.492-2.72 1.627-3.81 2.625-2.52 7.405-1 9.858.766 3.946 2.84 7.138 6.288 11.475 8.666 4.362 2.391 9.08 4.13 13.91 5.305 11.288 2.745 22.48 4.997 33.98 6.665-1.184 4.388 1.722 5.08 2.685 9.028 1.169 4.792-.33 10.819-.476 15.699M339.25 512.512c-2.56-3.802-4.843-7.778-7.359-11.606-1.532-2.33-3.43-4.834-2.121-7.685 2.205-4.806 9.986-5.662 14.208-3.566 9.599 4.763.682 18.383-4.728 22.857m-25.407-86.968c-.884-7.432 1.958-12.705 8.682-16.602 4.792-2.778 8.65 1.018 7.996 6.081-.995 7.714-9.238 16.294-15.529 20.319-.41-3.262-.76-6.533-1.15-9.798m-1.024-21.265c1.983-1.575 7.295.434 9.593.571l-9.482 8.284c-.207-1.895-1.94-7.402-.111-8.855M323.48 332.5c15.992-2.08-2.417 15.083-7.052 17.773.754-3.652 2.607-17.194 7.052-17.773m42.574-30.047c-2.147 8.796-18.841 18.392-19.016 3.984-.064-5.369 2.951-4.935 7.353-5.45 2.51-.293 12.89-3.562 11.663 1.466m-57.663 13.622c-1.874 4.919-3.377 9.965-5.214 14.89-.814 2.18-1.771 3.68-3.287 5.407-1.269 1.445-2.779 1.81-2.729 4.093 1.59-.307 2.834-1.255 4.118-2.168-.311 4.527-1.911 9.399-2.686 13.91-.928 5.412-1.7 10.825-1.988 16.312-.622 11.932-.627 23.82-.365 35.759.134 6.083.194 12.17.522 18.246.164 3.023.35 6.059.723 9.063.152 1.213 1.032 3.796.488 4.932-2.136 4.463-11.598-7.795-15.707-5.996.591-3.396-.772-2.653-3.05-4.323-1.102-.81-1.82-2.186-2.97-2.908a7.215 7.215 0 00-1.149-1.001c-.475-.649-.977-.58-1.504.206-4.63-2.767-5.826-8.665-8.31-12.632-1.279-2.04-2.514-2.358-2.732-5.179-.189-2.458.181-4.962.081-7.43-.113-2.784-.276-5.854-1.057-8.55-.906-3.13-2.153-2.874-4.582-4.542.748-.328 1.242-.877 1.48-1.65-.775.139-3.132 1.1-3.718.409-1.152-1.357 1.566-1.538 2.28-2.08-3.047-1.353-2.391-2.465-1.291-4.944.311-.702.608-1.75.873-2.341.578-1.293.91-.474 1.102-2.08.181-1.53-1.176-4.541-1.576-6.172-.67-2.736-1.041-5.1-.439-7.95.488-2.309 1.8-4.399 1.892-6.772.026-.667-.99-.888-1.003-1.531-.02-.94.858-1.354 1.086-2.223.583-2.224.32-4.576 1.317-6.686.897-1.896 2.709-4.348 3.991-6.003.89-1.146 3.07-2.438 3.309-3.951.158-1.003-1.403-.887-1.334-1.643.095-1.023.953-1.354 1.188-2.114.65-2.085.812-4.09 2.49-5.688 2.112-2.012 3.03-1.17 3.117-4.488.042-1.619-1.253-1.868-.559-3.735.377-1.013 1.49-1.611 2.2-2.33 2.112-2.13 3.536-4.022 5.04-6.655 1.33-2.325 3.451-3.679 4.814-5.687 1.774-2.618-.879-3.916 2.722-4.655-.512-1.625-1.056-2.939.291-4.315.85-.868 3.005-.337 3.757-1.34.862-1.153-.412-3.884.887-4.632 1.056-.607 2.637 1.266 4.297.339 1.264-.707 3.174-4.61 2.767-6.043 3.27 1.839 2.455.572 4.02-1.788.35-.529 1.414-.646 1.716-1.18.604-1.068.466-2.156 1.337-3.024 1.45-1.444 3.823-1.073 5.419-2.105 1.319-.852 1.25-1.77 2.301-2.575.9-.687 2.376-.82 3.25-1.53 1.713-1.396 1.73-2.868 3.871-4.07 2.537-1.421 4.784-2.63 7.092-4.516 1.504-1.228 2.932-3.406 4.692-4.217 2.434-1.121 4.33-1.2 6.711-2.8 1.72-1.156 3.348-3.064 5.037-4.04 1.275-.733 2.169-.575 3.775-1.03 2.89-.82 3.595-3.544 5.953-4.653 1.619-.761 3.976-.064 5.754-.464 5.532-1.242 10.997-3.921 16.549-5.405 6.776-1.81 13.6-3.396 20.43-4.997-6.276 8.505-14.268 16.179-22.374 22.934-2.66 2.217-17.24 12.326-9.382 16.643 3.155 1.732 10.008-3.864 12.555-5.232 5.129-2.755 10.441-4.96 15.813-7.188 8.686-3.603 19.998-10.01 29.651-9.495-5.876 7.209-13.211 12.996-19.932 19.365-6.176 5.852-15.482 11.342-12.57 20.921-8.675-2.207-16.467-4.816-25.487-4.238-4.04.259-8.083-.227-12.104.339-4.374.618-8.492 2.082-12.695 3.366-3.325 1.015-6.999 1.095-10.058 2.784-1.478.817-3.306 1.983-4.634 2.996-1.77 1.351-2.173 2.246-3.564 4.026-4.96 6.352-9.76 12.306-12.708 20.044M281.26 436.295c-.271-1.1-.517-2.102-.828-3.358 2.762 1.7 2.762 1.7.828 3.358m-20.867-35.013c-.34.47-1.77.621-2.185.215-.517-.505.842-2.471 1.06-2.89.539.414 1.779 1.769 1.125 2.675m-5.911-12.743l1.097-4.027c.45 1.244 2.473 2.62 2.518 3.805.028.786-3.215.395-3.615.222m1.173 1.841c3.168 2.086 3.5 4.547 3.594 8.147-3.791-1.256-3.247-4.926-3.594-8.147m55.095-142.06c-.32.866-1.677 3.563-2.671 1.677-.318-.604 2.01-1.428 2.671-1.676m-.91-2.94c.784-.706 2.362.172 3.248-.398.62-.4.415-.806.707-1.043.058-.048.902-1.756 1.248-2.144.61-.681 1.943-1.106 2.685-1.722 2.075-1.72 3.246-3.98 4.552-6.28 1.557-2.747 2.054-3.065 4.566-4.323 1.732-.866 3.074-1.927 4.483-3.401 1.624-1.697 1.505-2.912 2.838-4.767.659-.915 1.607-1.029 2.374-1.767.92-.883 1.387-2.119 2.238-3.01.367-.386 1.547-.385 1.77-.715.283-.418.504-2.089.77-2.397l1.523 2.058c2.002-3.52 3.463-6.43 6.81-8.773 3.517-2.46 6.552-6.06 10.186-8.264.817-.495 2.481-.703 3.105-1.433 1.055-1.235.141-2.333.91-3.382.874-1.188 2.566-.226 3.676-.738 1.405-.649 1.807-2.543 3.615-2.335-5.947 7.037-5.873 17.985-6.188 26.774-.137 3.787 2.248 5.696-1.273 8.475-2.995 2.364-7.218 1.662-10.76 3.218-4.446 1.954-9.201 2.993-13.738 4.696-4.693 1.76-8.466 4.844-12.982 6.884-3.982 1.798-6.702 4.354-10.345 6.574-1.354.825-3.451 2.023-5.066 1.037-1.011-.618-2.271-1.633-.951-2.824m67.175-59c.258-1 5.335-3.627 6.584-4.484 1.874-1.289 4.649-4.435 6.741-3.185.725-2.904 3.554-6.135 6.053-6.75 2.773-.684 7.53-3.061 10.257-5.137.797-.606 1.06-1.492 1.997-2.06 1.633-.99 3.252-.45 4.825-1.8.24-.206 2.416-3.799 2.502-3.764.111.385.213.775.301 1.167 1.651-.916 3.122-1.644 4.15-2.813.234-.265-1.279-.954-.801-1.478.585-.643 1.89.076 2.48-.534-1.837 9.124-.469 20.868 8.788 25.494-11.008 1.19-21.76-2.12-32.904-.088-5.334.974-10.757 2.571-15.61 5.025-2.972 1.504-6.774 6.889-9.733 4.274 1.174-1.566 2.966-2.539 4.37-3.867m53.412-26.25c4.117-5.034 10.36-7.026 16.65-5.223 7.361 2.111 4.256 7.255 3.144 12.967-2.124-3.115-6.726-6.204-10.645-6.298-5.556-.132-3.456 4.497-.12 6.156 3.033 1.506 8.235 1.926 10.406 4.667 2.113 2.666 1.303 7.027 1.644 10.171l-4.93-.732c1.38-7.34-4.689-7.695-10.347-9.764-5.718-2.09-10.486-6.213-5.802-11.943m18.44-18.072v6.81l-6.869-3.914c2.29-.965 4.58-1.93 6.868-2.896m18.4 54.422c7.644 2.072 15.235 4.263 22.583 7.121 2.668 1.038 5.591 1.405 8.206 2.577 2.49 1.115 2.864 1 1.978 3.181-2.48 6.114-8.358 5.058-13.507 4.123-8.06-1.464-15.953-3.494-23.912-5.404-7.78-1.865-15.724-3.088-23.386-5.427-7.863-2.398-15.525-4.67-23.613-6.254-2.36-.462-21.032-2.175-20.89-4.126 11.76-1.528 23.866-.023 35.678.136 12.275.165 24.957.846 36.864 4.073m-10.376-23.649c.146-4.204.205-8.42.727-12.6 3.498 4.318 6.656 5.611 11.066 1.564 4.222-3.875 5.164-5.895 10.517-2.252 4.64 3.159 9.03 3.013 13.959.248 3.006-1.687 7.837-8.579 10.997-7.16 1.505.676 2.61 3.402 4.13 4.405 1.907 1.256 4.84 2.128 7.063 2.616 5.252 1.15 8.38-2.227 11.676-5.84 4.78-5.238 4.64-2.196 9.072 1.437 4.942 4.051 9.075 2.072 13.55-1.386 2.727 7.989 3.747 16.713 4.518 25.088.26 2.828 1.23 6.843-1.31 8.843-1.79 1.41-5.59 1.465-7.746 2.244-7.705 2.786-15.109 6.739-21.553 11.799-2.51 1.97-4.7 4.385-8.13 3.936-3.27-.428-6.448-3.165-9.078-4.973-2.854-1.96-5.742-4.186-9.077-5.278-1.953-.64-5.082-.408-6.791-1.581-3.178-2.182.562-7.904-.23-11.745-.599-2.916-2.277-8.996-6.293-7.287-5.977 2.543-2.499 12.471.788 15.57-6.724-1.194-14.168-2.938-20.653-5.154-5.009-1.711-7.382-7.367-7.202-12.494m112.766 20.475c13.803-3.876 26.718-6.49 41.082-7.195 6.359-.313 12.514-.115 18.802-.058 3.62.033 6.377-2.886 3.486-6.244-4.002-4.65-16.21-2.88-21.619-3.088-14.498-.56-27.791 1.088-41.522 5.867 1.452-2.675 4.94-3.022 7.331-4.405 2.932-1.698 4.926-4.495 6.18-7.599 3.259-8.072-.022-15.68-3.432-23.054 6.698 1.802 13.627 5.748 20.361 6.75 1.413.21 2.318.075 3.567.59.767.314 1.009 1.404 1.959 1.642.459.116 1.562-.922 2.08-.775 2.052.58.43.734 1.727 1.573 1.029.666.945 1.524 2.833 1.209.837-.138 1.745-1.433 2.186-1.468.562-.046.432-.73 1.292-.53 1.564.363 1.426 2.378 1.947 3.37.556 1.056-.234 2.46 1.454 3.037 1.261.433 1.578-.9 2.65-.804.652.058 2.004.997 2.579 1.568 1.854 1.842 4.391 3.875 6.883 5.074-.245-.247 1.175-.84.835-.98-.228-.092 1.263.268 1.24.263 1.44.327 2.2 2.536 2.926 3.342 1.338 1.476 3.416 3.035 5.29 3.687 3.24 1.127 3.142-.22 4.325 3.63 2.304-3.622 3.188 2.445 6.045 3.113 1.48.346 1.308-.288 2.652.487.924.53 1.54 2.157 2.235 2.942.3-1.132.597-2.265.895-3.395 2.058 3.899 6.5 10.082 11.373 8.964 0 1.064-.439 2.336.385 3.244.575.635 1.507-.086 1.957.283.393.322 1.333 1.604 1.634 1.815.593.416 1.67.72 2.184 1.134.454.365.679 2.108 1.182 2.737.946 1.184 2.582 1.419 3.355 2.839l.529-4.2c1.535 1.185 1.666 2.106 2.043 3.84.537 2.47-.175 1.891 1.529 2.934 1.674 1.025 2.547.91 4.082 2.69 1.504 1.743 1.518 2.818 3.69 1.001.403 1.344.533 3.082 1.61 4.112.815.779 4.187.812 4.508 2.65-6.334-5.345-2.166 2.773.004.014.458 2.953 2.62 3.907 5.088 6.01 2.302 1.96 2.679 1.818 3.465 5.111-.018-.072 1.157.656 1.242.802-2.243.32 1.234 2.826 1.822 3.285.429.334.988-.465 1.7.076.815.62 1.479 2.028 2.142 2.877 1.798 2.302 3.128 4.28 5.02 6.151 2.041 2.02 3.034 4.574 4.994 6.935 2.175 2.622 3.351 5.637 5.17 8.483 1.729 2.707 4.024 4.88 6.026 7.359 3.191 3.944 4.277 12.632 10.226 12.861-.35.36.136 3.053.193 3.55.281 2.445.094 4.798 1.54 7.013.332-2.527 1.654-1.553 2.802-.226 1.91 2.208.233 1.652.334 3.89.122 2.712.43.614 1.464 2.982.809 1.855 1.252 3.059 1.686 5.117-3.36.267-4.9-2.48-6.141-5.14-.52-1.112-.699-2.942-1.618-3.811-.978-.926-2.322-.999-3.327-2.032-1.93-1.985-2.765-5.08-5.04-7.012-2.568-2.182-3.137-3.213-5.26-5.822-2.35-2.886-5.594-4.913-8.058-7.704-2.468-2.797-2.268-1.27-5.368-2.282-3.297-1.078-8.628-11.444-12.782-7.451.164-2.612-3.747-5.069-5.724-6.015-.855-.409-1.85-.039-2.705-.652-.928-.665-.994-1.947-1.93-2.745.001 0-1.434.348-1.725.201-.592-.3-.597-1.362-1.12-1.711a59.518 59.518 0 00-4.71-2.806c-3.733-2.003-7.033-4.469-10.636-6.88-3.087-2.066-6.823-5.797-10.39-6.886-3.117-.95-5.076-.466-7.628-2.371-1.39-1.037-.98-1.386-3.214-2.03-2.127-.615-3.321-.3-4.448-2.554-1.97-3.946-.727-11.648-1.108-16.073-.405-4.696-.886-9.509-2.11-14.075-1.448-5.397-3.361-8.218-9.15-6.947-11.47 2.521-22.801 4.92-34.323 7.133-22.96 4.41-45.526 11.608-67.98 17.998-1.711.488-11.253 2.672-9.304-2.262.898-2.276 6.938-3.124 8.96-3.839 11.098-3.928 22.247-7.93 33.591-11.114m-3.857-10.043l-5.03 1.918v-4.663l5.03 2.745m-6.969-24.656c1.457 1.191 4.42-1.675 5.658-2.256 2.117-.991 4.811-1.842 7.176-1.639 4.36.378 7.549 4.67 6.75 9.023-1.352 7.364-11.844 10.846-17.629 13.725-.185-2.61-1.03-5.747.8-8.004 1.589-1.96 4.67-1.818 6.136-3.903 3.69-5.24-6.31-5.714-8.544-1.548l-2.645-7.987c2.128-.353 1.193 1.687 2.298 2.59m10.32-14.415l-6.245 4.038c-1.032-4.66 2.485-5.272 6.245-4.038m189.688 162.151c-2.726 1.301-3.408-1.806-5.368-1.94 2.316-1.424 2.316-1.424 5.368 1.94m11.087 67.844c.34 4.466.074 8.983.67 13.431.452 3.384 1.823 6.533 1.969 9.955.32 7.495-2.21 15.127-7.322 20.621-4.835 5.197-11.752 9.67-18.279 11.855-2.94.983-6.01 3.165-8.866 3.971-3.16.893-6.162-1.05-8.769 2.434-1.738-14.942-.468-30.555-.605-45.591-.137-15.069.025-30.143-2.524-45.05-2.27-13.275-6.746-28.208-14.995-39.069-3.35-4.41-7.476-8.022-11.827-11.404-2.258-1.754-4.516-3.63-7.03-5.015-3.87-2.133-7.166-1.838-11.375-2.446-6.023-.87-11.622-1.604-17.668.092-5.628 1.58-11.826 3.378-16.868 6.122-5.021 2.734-10.853 3.86-16.066 6.309-3.546 1.666-10.912 7.23-14.847 6.23-3.808-.972-9.446-7.435-11.878-10.33-3.108-3.701-5.679-7.99-8.436-11.971-.967-1.398-2.941-3.559-3.193-5.353-.437-3.116.811-2.098 3.787-1.75 7.653.898 14.85 2.318 22.185 4.727 3.65 1.198 10.786 6.047 14.436 3.141 5.573-4.436-2.895-12.06-5.996-14.622-5.285-4.365-11.429-7.606-17.062-11.485-5.985-4.121-13.898-8.509-17.75-14.855 11.247 3.32 22.483 7.122 33.401 11.403 4.996 1.958 9.934 4.027 14.625 6.631 2.636 1.462 7.96 5.418 11.134 3.523 6.899-4.118-8.946-16.079-11.232-18.523-3.553-3.798-7.034-7.56-10.938-11.006-2.634-2.325-6.772-3.96-7.997-7.389 4.372 1.583 7.907 4.683 12.001 6.79 2.143 1.103 4.099 1.738 6.466 2.076 2.524.361 2.825.763 4.813 1.766 1.548.783 3.14 1.828 4.878 2.36 1.238.38 3.402.445 4.485 1.148.554.79 1.125 1.566 1.716 2.329a22.4 22.4 0 011.951.672c.96.856 1.53 2.037 2.464 2.92 6.78 6.412 15.85 11.001 23.452 16.373 7.192 5.082 14.824 9.68 21.732 15.225 7.949 6.384 16.199 13.245 22.96 20.9 3.821 4.326 6.962 9.231 10.172 14.015 2.324 3.464 5.704 6.337 7.712 9.909 4.38 7.787 8.015 16.204 12.73 23.866 4.804 7.806 11.063 15.563 11.784 25.065m-64.615 45.181c1.31-5.404 8.7-11.714 13.423-14.097-2.38 5.889-8.722 9.904-13.423 14.097m12.186 18.852c-4.028 8.357-21.74 9.313-19.337-3.055 1.177-6.06 6.175-9.778 10.465-13.743 1.983-1.832 6.84-8.388 9.91-7.332-.144 4.713-.421 9.447-.411 14.16.006 3.147.799 7.012-.627 9.97m-5.12-96.325c1.635 3.67 3.263 6.727.231 10.01-1.368 1.482-5.826 4.725-7.843 4.005-6.474-2.31 5.87-12.364 7.613-14.015m-39.16-32.659c1.56-.085 3.074.147 4.615.052 1.535-.095 1.697-.368 3.12-.173l.45.655c.194 1.464.964 1.623 2.307.478 1.868.415 3.083.693 4.869 1.702-4.82 3.476-10.689 7.517-16.6 8.685-9.34 1.843-6.76-10.958 1.24-11.399m-143.21 78.172c-.97 1.949-3.755-2.92-4.445-3.827 1.286-.004 5.424 1.861 4.444 3.827m75.06-51.294c7.258-4.235 15.878-7.955 23.673-11.107 1.37 6.604-5.314 15.13-9.432 19.648-3.329 3.655-7.343 7.445-11.857 9.548-4.88 2.274-10.215 1.275-9.978-5.105.087-2.332.618-6.084 1.567-8.215 1.224-2.748 3.538-3.319 6.027-4.77m-98.11-120.129c1.08-.063 12.814-1.58 12.752-.12-.185 4.389-11.575.942-12.753.12m-82.982 84.738c6.198-7.647 16.204-15.902 16.35-26.59.216-15.728-17.238-7.88-26.013-7.227 4.64-4.559 27.957-23.686 14.165-30.48-3.964-1.952-9.599-.044-13.577.979-7.058 1.815-13.62 4.959-20.554 7.146 4.955-5.274 13.515-11.268 13.235-19.255-.343-9.723-8.324-7.372-15.225-5.946-2.652.55-14.5 5.262-16.725 2.062-.815-1.172.504-2.661.783-3.705.494-1.846.341-2.49.358-4.377.034-3.805 2.562-8.692.5-12.231-.471.804-.875 1.64-1.21 2.51-.68-2.06-.224-4.244-.904-6.303 17.229 4.406 34.756 6.818 52.093 10.579 8.777 1.904 17.037 5.182 25.934 6.658 8.973 1.487 17.79 3.764 26.78 5.183 8.201 1.293 16.059 3.448 24.181 5.1 7.918 1.61 16.038-1.92 23.766-3.707 17.309-4.003 34.612-8.104 51.944-11.988 20-4.484 40.805-8.318 59.95-15.796a350.93 350.93 0 002.385 29.814c-8.454-3.997-21.001-9.209-29.548-2.057-3.42 2.861-4.475 7.802-3.123 12.003 1.472 4.574 5.98 6.698 8.953 10.14-9.051-2.32-32.402-18.68-36.558-2.143-2.936 11.68 11.384 19.224 18.386 25.798-6.954-1.361-16.265-6.92-20.348 2.014-3.528 7.724.722 16.128 5.075 22.498 2.359 3.452 5.012 6.7 7.52 10.044 1.326 1.77 2.62 3.563 4.014 5.28 1.398 1.722 4.034 3.525 5.014 5.378 1.972 3.737-2.008 3.965-5.102 5.315-3.864 1.686-7.182 4.517-10.715 6.773-8.091 5.166-15.163 9.964-24.724 11.615-9.844 1.7-19.323 3.474-29.037 5.845-9.684 2.363-17.59 4.633-27.488 1.58-4.513-1.393-8.19-2.631-12.976-2.37-5.028.276-7.968.015-12.102-3.1-17.788-13.397-37.097-24.39-55.457-37.039m-32.07-13.45c6.875-3.45 13.796-6.916 20.898-9.88 5.878-2.455 14.804-5.314 21.24-4.238-1.815 4.66-5.125 8.483-8.676 11.914-3.14 3.035-7.063 7.615-10.862 9.733-3.45 1.922-7.465-1.123-10.868-2.399-3.74-1.4-8.885-2.054-11.732-5.13m1.728 17.402c3.426-1.423 10.789 3.354 13.905 4.596 6.124 2.442 12.281 4.992 17.678 8.844-6.59 7.616-14.053 14.579-22.92 19.47-5.835 3.219-15.669 6.91-21.173 1.066-6.914-7.343 1.398-22.305 6.293-28.598l.488 3.229c1.562-2.5 2.754-7.37 5.729-8.607m125.776 65.18c-4.274.9-5.727.087-8.549-3.19-1.907-2.216-3.781-4.517-5.932-6.51-2.195-2.032-7.615-6.934-.71-4.111 6.296 2.572 11.688 3.858 18.614 2.85 7.919-1.151 15.302-4.5 23.11-6.195-4.28 3.746-8.53 7.529-12.818 11.264-4.53 3.945-7.959 4.68-13.715 5.892m.977 30.123c-9.367 7.049-28.224 6.286-21.877-9.223.964-2.356 2.313-4.573 3.874-6.58.52-.67 1.447-2.058 2.188-2.508 2.072-1.257 1.497-1.409 3.489.687 1.718 1.807 15.148 16.573 12.326 17.624m-2.777-26.95c.858-.278 4.473-2.374 5.297-1.214.834 1.174-6.254 5.236-5.297 1.215m68.19 107.503c-2.107 5.04-18.962 12.335-15.822 2.176 1.39-4.5 2.702-7.906 7.95-8.248 3.027-.196 9.726 1.635 7.871 6.072m30.235-68.29c2.775-4.04 11.938-9.503 15.85-3.478 1.885 2.903-2.69 4.39-5.455 3.644-1.485-.403-2.7-1.29-4.315-1.357-2.076-.085-4.105 1.544-6.08 1.191m7.356 4.01c-1.887 1.91-13.266 11.486-15.11 10.01 3.717-5.313 7.984-11.246 15.11-10.01m-18.585 96.898c-3.951.224-1.978-5.731-1.596-8.112.956 1.659 5.986 7.864 1.596 8.112m10.04-10.673c-1.278-2.274-4.722-5.66-3.944-8.587.596-2.237 5.972-5.246 8.223-3.962 2.99 1.706-1.344 12.927-4.279 12.55m93.762-23.853c-1.69 5.824-3.442 4.321-8.742 5.45-5.318 1.132-8.994 5.647-13.675 8.069 1.626-3.438 2.635-7.627 5.357-10.417.63-.644 4.488-1.916 2.29-3.408-1.922-1.304-4.685 2.928-5.51 4.082-4.055 5.677-6.89 12.61-9.232 19.142-1.152 3.208-2.074 6.477-2.619 9.846-.486 3.002.038 6.144-.457 9.068-.797 4.71-7.194 4.734-11.041 5.948-3.483 1.099-6.95 2.29-10.565 2.883-3.134.514-6.386-.422-9.423.196-3.289.668-4.766 2.62-8.505 2.178-3.047-.359-5.899-1.76-8.988-1.9-2.89-.13-5.774.869-8.648.055-2.9-.822-2.76-1.14-2.1-3.99.412.77.825 1.539 1.238 2.307 1.156-.907 1.956-3.67 2.664-4.968 1.099-2.01 1.994-2.705 1.587-5.208-.6-3.698-3.934-6.328-4.69-9.845-.789-3.67 1.924-6.67 3.528-9.733 2.192-4.193 2.163-7.303.326-11.64 1.385.366 2.77.732 4.156 1.1-1.899-4.123-8.339-2.452-11.568-1.231-1.623.613-4.195 3.025-5.942 2.964-2.4-.085-3.651-3.24-4.682-4.977-2.985-5.027-6.392-9.991-9.922-14.658-.971-1.284-2.243-2.109-1.908-3.572.286-1.241 3.069-3.001 3.972-3.766 3.386-2.863 7.696-4.45 10.876-7.464 4.807-4.554 10.35-7.817 15.264-12.281 5.12-4.65 10.395-8.922 15.73-13.317 5.404-4.45 10.085-9.696 15.45-14.193 1.39 2.52 4.083 11.539 7.162 12.237 3.591.813 3.484-3.435 3.306-5.992-.255-3.643-2.277-7.183-2.503-10.66-.242-3.72 3.337-5.382 6.037-7.533 4.172-3.324 13.404-10.893 8.442-17.124-4.276-5.366-18.178 4.923-22.01 8.017-3.256 2.63-5.772 5.007-9.438 7.081-2.579 1.457-6.904 7.063-9.96 6.545-3.635-.615-5.055-4.585-9.502-4.454-4.346.127-8.037 3.257-10.732 6.4-6.092 7.103-8.185 16.607-13.737 24.012-2.737 3.65-6.287 6.664-9.256 10.119-3.26 3.79-3.953 8.158-7.168 11.868-9.2-12.256-19.224-23.861-28.925-35.715-4.846-5.92-9.59-11.91-14.331-17.912-1.777-2.25-3.781-4.36-5.408-6.724-2.229-3.236-1.828-5.835-2.703-9.444-.387-1.6-2.204-3.516-1.718-5.045.655-2.054 5.247-3.667 6.904-4.507 6.763-3.433 12.897-7.724 19.204-11.919 11.678-7.766 23.492-15.048 35.913-21.682-.214 2.858-2.074 5.82-.825 8.687.582-1.65 1.503-8.998 3.705-9.313-.422.06-.075 9.423.266 10.76 1.016 3.99 3.965 6.717 8.186 6.69 8.036-.052 15.239-8.794 19.7-14.585 3.02-3.921 5.92-8.481 6.984-13.389.957-4.406-.095-7.47 4.485-9.708 9.399-4.59 18.872-8.33 28.923-10.764-.45 4.331-1.706 9.664 2.23 12.78 4.347 3.438 10.033.373 14.124-1.902 4.053-2.253 10.302-8.442 15.062-6.644 4.682 1.768 7.94 7.64 10.562 11.54 2.309 3.436 4.823 5.914 2.148 9.745-2.998 4.293-4.949 8.483-7.35 13.146-.924 1.793-1.805 2.962-1.152 4.798.211.597 2.618 4.145 3.272 4.654 4.17 3.245 9.801-2.928 12.778-5.271 1.05 10.09 1.285 20.137 1.708 30.259.31 7.413 3.18 14.712-2.903 20.131-6.082 5.418-11.159 10.98-14.866 18.315-1.98 3.92-3.756 7.941-5.898 11.779-1.43 2.564-4.45 6.323-2.602 9.341 1.949-1.85 2.53-4.662 4.153-6.747.973 4.328 1.953 9.13 6.531 10.965 5.268 2.11 10.503-1.542 15.169-3.574-1.673 11.571-4.936 22.816-8.188 34.02m-5.385 13.3c-3.615 7.727-6.88 17.043-13.556 22.733-1.466 1.25-7.695 6.126-10.065 5.31-2.012-.695-.905-4.76-.554-6.502 1.779-8.842 4.856-14.406 12.026-20.047 2.967-2.335 6.777-5.32 10.604-5.896 4.12-.62 2.933 1.433 1.545 4.402m101.974 183.406c-9.373-12.746-22.621-22.651-35.14-32.227-5.672-4.337-11.92-7.59-17.65-11.929-6.478-4.905-13.057-9.637-20.313-13.333-13.756-7.01-28.763-11.896-41.745-20.185-6.331-4.042-13.257-7.949-19.21-12.487-2.614-1.994-4.923-4.543-7.286-6.827-2.195-2.122-6.908-5.202-7.781-8.307 3.653-.598 5.73-4.142 8.991-4.504 1.074-.12 7.804 1.66 6.884-1.604 2.44-.06 2.725-.097 4.77-.631.848-.222 1.852.124 2.71-.18 1.31-.462 2.202-1.798 3.525-2.31.941-.364 4.435.042 4.965-.41 1.447-1.236-.09-1.127-.953-2.67 2.81-.072 4.741 1.348 7.56-.162.857-.46 1.583-1.52 2.415-2.069 1.474-.975 2.007.536 3.017-1.487.945 2.791.92 2.02 3.197 1.198 2.27-.818 3.908-1.408 6.492-1.613 6.174-.488 12.37.261 18.515-.177 2.248-.161 4.17-.672 6.403-.377 1.966.258 1.374 1.626 3.009-.217.38-.428-.848-1.6-.26-2.215.26-.273 1.106-.081 1.427-.22 2.873-1.255 2.886.497 3.396 2.78 1.685-.395 3.404-.752 4.868-1.74-.74-.66-1.977-1.389-1.263-2.594 2.43.92 4.019.496 2.804 3.163 2.445.808 2.902-.245 5.098-.476 1.3-.136 3.112.67 4.194-.367 1.182-1.132-.682-2.363 1.488-3.337.446.227.775.569.99 1.025 1.173.355.962.816-.631 1.384 4.268 2.213 3.265-.26 5.058-2.877.414-.603 2.268-2.477 3.113-1.572 1.281 1.372-1.335 1.809-.774 3.173.972 2.365 4.363-.666 5.404-1.864.788-.905 1.109-2.64 1.958-3.317 1.179-.94 2.876.512 4.352.252 6.745-1.182 13.114-10.25 8.033-16.32-1.365-1.632-2.521-1.308-4.148-2.338-1.609-1.017-2.511-2.778-3.802-4.232a27.29 27.29 0 00-10.675-7.393c-9.558-3.687-19.856-6.376-29.892-8.355-4.648-.916-9.595-2.318-14.354-2.308-2.804.005-7.026 2.186-9.647 1.141-5.096-2.03 2.385-12.425 3.62-15.782 3.626-9.864 6.362-20.38 8.156-30.735.351-2.027.216-4.652.946-6.583.838-2.22 1.018-1.906 2.811-2.086 3.24-.328 6.783 1.371 10.157.784 3.739-.65 7.78-.348 11.555-1.505 1.735-.53 3.344-1.108 4.486-2.573.36-.459-.04-.86.187-1.18.07-.102 1.361-1.494 1.403-1.574-.013-.72.05-1.435.188-2.142 1.308 1.086.663 3.364 2.868 3.417.393-2.43.397-2.919 1.991-4.285-.121.105 1.2-1.019 1.031-.9.08-.431.24-.836.476-1.21a5.723 5.723 0 012.361-.572c1.723-1.772 1.008-2.717 1.008-5.102l4.17 2.167c.337-7.066 4.64-10.935 7.498-16.66 1.218-2.44 2.459-4.348 2.75-7.29.168-1.699-.27-3.197.433-4.797.637-1.452 2.064-2.234 2.66-3.816 1.173-3.112.298-7.085.362-10.317.09-4.482.537-8.95.684-13.43.287-8.795-.597-17.833-1.913-26.526-.63-4.158-1.682-8.192-2.509-12.306-.68-3.382-2.307-6.554-2.889-9.7-.242-1.307.132-2.48-.262-3.926-.52-1.9-1.388-3.769-2.034-5.635-1.507-4.36-2.998-8.713-4.694-13.005-3.287-8.318-7.134-16.386-10.789-24.544-3.516-7.845-6.428-15.933-10.982-23.259-4.486-7.215-9.315-14.309-14.26-21.215-5.149-7.193-11.66-13.373-16.653-20.632-9.377-13.63-22.455-24.86-36.138-34.134-28.235-19.138-58.747-38.246-92.604-44.808-5.103-.988-10.271-1.674-15.471-1.802-3.227-.08-8.573 1.48-11.628.388-3.422-1.223-3.11-5.066-3.965-8.081-1.102-3.875-3.586-6.414-6.408-9.154-2.97-2.883-5.665-6.252-9.37-8.213-3.753-1.986-8.18-2.729-12.34-3.33-3.713-.537-9.26-.035-12.653-1.653-3.09-1.474-1.564-3.01 1.329-1.747.212-1.276.383-2.1 1.201-3.086.41-.496 2.35-1.191 2.397-1.653.055-.542-1.572-2.084-1.805-2.782-.5-1.504-.216-3.587.378-4.998 2.917 2.593 3.762 3.741 7.019 1.263 1.375-1.047 1.797-1.508 3.39-2.036.432-.144 1.4.3 1.778.05 1.439-.947.115-.724.8-1.844-.173.283 1.036-2.695.978-2.072.147-1.586.616-1.098-.341-3.047-1.876-3.812-6.651-3.968-4.217-8.318.957-1.711 1.8-1.541 2.07-4.023.145-1.334-.035-2.864-.041-4.221-.012-2.776.51-4.72-2.09-6.132-2.5-1.36-4.806.132-5.82-3.24-1.064-3.537.007-8.072-3.825-10.495-2.8-1.77-6.844-.256-9.938-1.122-3.101-.867-5.953-4.04-9.1-1.604-2.236 1.732-3.422 5.988-7.635 3.687-1.902-1.039-2.948-4.524-4.148-6.479-1.91-3.115-3.442-4.241-6.382-1.206-1.812 1.871-5.633 6.427-5.866 9.018-.257 2.86 2.238 4.055-.895 5.747-3.116 1.683-4.864.449-7.394 3.866-2.509 3.39-.567 5.262-3.473 8.506-3.634 4.054-5.567 5.804-5.516 11.266.035 3.746-3.275 6.982-1.344 10.536 2.164 3.984 8.48 5.64 12.31 7.261-1.28 2.362-3.033 3.877-1.54 6.308 1.351 2.202 5.172 2.66 7.541 2.26 1.593-.268 1.65-.027 2.904-1.148.822-.733-.305-1.649 1.387-2.055 1.8-.435 4.676 3.095 5.845 3.977-2.613 3.39-9.79 4.025-13.586 5.744-2.313 1.048-4.44 2.599-6.796 3.536-2.137.85-4.738.653-6.676 1.968-3.346 2.272-4.739 7.9-6.79 11.21-2.322 3.745-4.573 5.484-9.027 6.262-5.558.97-10.033 1.359-15.216 3.78-6.33 2.955-12.568 6.076-18.784 9.262-10.026 5.139-19.34 10.414-28.65 16.63-9.74 6.503-19.214 13.29-28.612 20.086-9.296 6.72-17.1 14.989-25.175 23.117-6.527 6.57-12.255 13.661-18.757 20.229-7.676 7.756-13.322 17.544-20.439 25.771-3.894 4.501-7.62 8.927-10.063 14.23-1.98 4.298-5.424 8.515-7.723 13.024-2.937 5.765-5.717 11.439-9.015 17.013-1.353 2.287-2.961 4.25-4.39 6.434-1.829 2.796-1.72 5.497-2.213 8.72l-1.541-2.358c-.932 2.035-2.058 4.036-2.865 6.12-.515 1.329-.434 3.216-.951 4.379-.65 1.46-1.44 1.266-2.248 2.482-.865 1.3-1.144 3.047-2.055 4.441-3.941 6.028-5.457 13.676-7.482 20.554-2.716 9.227-2.287 19.832-2.14 29.346.157 10.05.706 20.099 2.217 30.042 1.369 9.005 4.295 17.642 8.876 25.538 3.992 6.88 9.496 10.888 16.547 14.412 3.238 1.619 6.243 1.119 9.641 1.377 3.723.283 6.262 1.294 10.2.405 1.89-.427 2.785-1.803 4.286-2.262.93-.283 1.43.18 2.322.072 1.276-.155 3.93-.78 5.314-.63 4.307.47 3.584 6.98 4.008 10.304.652 5.121 1.13 10.297 2.009 15.385 1.85 10.702 5.842 20.699 8.201 31.216-10.936 1.334-20.317 3.375-30.567 7.514-10.283 4.152-20.68 5.561-31.502 7.625-10.124 1.93-19.862 5.539-27.966 12.076-3.798 3.062-7.744 6.646-4.955 11.69 1.784 3.225 4.999 4.045 7.774 5.92.561-.71-1.06-2.213-1.358-2.63 2.333.479 2.262 1.568 3.966 2.516 1.489.828 2.708.799 4.338 1.384 3.98 1.43 5.936 4.998 9.87 6 1.238.314 2.857 1.068 4.122 1.282 1.52.257 2.659-.409 4.2-.127.832.548 1.73.94 2.698 1.174.633-.294 1.26-.604 1.876-.932 2.214.23 3.581 1.622 5.38 2.767.12-1.442-.053-2.94 1.311-3.88.533 1.402-.328 2.29 1.126 3.254 1.842 1.223 4.261-.303 5.91-1.077.467 4.66 11.254 4.385 14.673 4.318 4.735-.091 9.465-1.97 14.242-.921 2.437.534 5.038 1.092 7.464 1.786 2.92.834 6.452 1.58 9.327 2.633 1.144.42 2.544 1.76 3.761 1.67.97-.072 1.229-1.501 2.357-1.46 1.276.046 1.705 1.468 2.81 1.896 1.653.639 3.173-.577 4.744.037.565.22 1.33 1.167 2.053 1.476 1.097.468 3.269.474 4.49.7 1.73.32 3.281.104 4.764.21 1.196.086 1.17.89 1.742.943.657.059 1.8-2.198 2.682-2.529 1.284-.482 3.615.667 4.925.868-9.49 12.862-20.93 24.23-33.332 34.184-13.377 10.738-27.076 21.462-41.421 30.88-13.025 8.552-25.633 15.948-35.731 28.02-8.515 10.179-22.07 21.07-19.98 35.824 2.088 14.74 18.095 20.74 30.921 23.554 16.132 3.54 32.738 2.115 48.913 4.105 6.898.85 14.562.396 21.506-.327 8.201-.854 15.23-6.206 22.28-10.076 12.683-6.962 23.525-16.276 36.017-23.455 15.64-8.99 31.117-18.514 48.264-24.534 7.977-2.8 16.19-5.997 22.624-11.758.958-.857 1.671-2.151 2.753-2.858 1.84-1.2 2.332.017 3.4-.347.821-.28 1.617-1.167 2.327-1.433 1.8-.674 2.602-.396 4.617-.396-1.73-.996-3.312-3.566-1.517-5.66 3.072-3.588 3.602 2.145 4.756 3.473.979-1.258.604-2.377.354-3.806l2.481 1.638c-.57-2.766-.028-5.313 1.437-7.723 1.351-2.22 1.685-1.908 2.057-4.986 4.197 3.83 5.017-5.467 5.395-8.857.365-3.287.004-5.647 2.166-8.522 2.32-3.086 5.85-5.037 8.796-7.434 4.654-3.79 9.775-8.574 16.21-4.94 5.081 2.869 7.846 9.901 12.613 13.514 2.89 2.193 5.943 2.415 7.786 5.814 1.49 2.748 1.974 6.037 3.38 8.858 3.409 6.84 8.315 14.666 13.912 19.911 5.21 4.884 11.898 4.859 17.995 7.887 6.035 3 12.306 6.248 18.695 8.42 6.977 2.374 14.501 3.384 21.294 6.259 3.494 1.48 6.619 3.707 10.144 5.123 3.802 1.527 7.807 2.604 11.66 4.002 15.263 5.545 30.2 12.343 46.235 15.416 7.112 1.363 13.696 5.065 20.86 5.845 3.073.334 5.58.757 8.587 1.526 4.717 1.206 3.718 1.847 5.456 5.78 2.86 6.476 9.841 2.641 15.223 2.803 8.615.26 17.099-1.133 25.7-1.2 15.042-.114 29.525-1.81 44.076-6.748 14.608-4.958 31.24-16.906 19.1-33.414M631.321 169.398c.206.206.69.331 0 0"/><path d="M366.363 445.196c3.267-3.31 17.167-2.642 18.218 3.28 1.171 6.611-11.25 16.596-15.795 19.395-5.85 3.603-12.99 4.278-11.952-4.767.784-6.832 4.877-13.194 9.529-17.908m11.48-6.816c.423 1.832-2.7 1.209-3.561.774-.406-.832 3.136-2.612 3.56-.774m-23.97 12.123c2.772.249 5.949-4.199 8.04-5.714.925 1.43-5.171 9.284-5.842 11.076-1.675 4.478-2.607 10.136-.323 14.603 6.674 13.053 23.754-5.587 28.026-12.098 2.989-4.553 5.058-10.2.836-14.662-1.503-1.59-3.986-2.03-5.382-3.542-1.838-1.986-.392-4.551-4.087-4.118-2.55.3-5.611 2.6-8.09 3.433-2.988 1.002-5.674 2.042-8.282 3.9-.588.42-8.321 6.814-4.896 7.122M549.82 454.884c-1.743 8.968-10.63 18.168-19.98 18.525-9.312.355-12.327-9.4-10.683-17.177 1.402-6.632 7.134-18.154 15.312-16.884 6.429.997 16.844 7.849 15.35 15.536m-5.93-14.989c-5.903-4.568-14.06-6.682-20.903-3.057-2.244 1.188-11.2 6.43-8.475 9.979 3.675-2.848 6.847-6.8 11.622-7.747-.803 3.702-5.389 7.032-7.005 10.637-1.889 4.21-2.922 9.03-2.613 13.659.551 8.236 6.068 14.636 14.609 13.504 7.82-1.037 14.656-7.03 18.386-13.768 4.98-8.997 2.175-17.176-5.62-23.207M489.062 475.27c-4.204 6.224-10.614 12.08-18.025 14.002-9.595 2.488-6.9-5.441-4.032-11.131 2.535-5.03 6.884-13.685 13.507-13.638 2.248.014 6.434 1.101 8.404 2.303 3.883 2.37 2.359 5.189.146 8.464m-8.955-13.68c1.509-1.68 8.189-8.884 9.084-3.269 1.918-2.224.405-4.069-2.05-4.304-2.963-.283-6.202 3.016-8.34 4.655-4.4 3.372-7.787 6.825-10.703 11.553-3.215 5.212-11.412 16.991-4.238 22.163 7.754 5.59 19.04-4.734 23.896-10.058 3.105-3.406 7.218-8.407 6.037-13.401-1.45-6.134-8.585-6.778-13.686-7.339M447.021 361.279c-4.339 4.95-13.153 12.164-20.416 11.314-6.624-.775-4.038-8.21-1.694-11.808 3.522-5.408 8.24-10.485 15.057-10.78 2.943-.128 6.757-.068 9.036 2.16 3.113 3.044.31 6.5-1.983 9.114m-.461-13.755c-5.083-1.756-7.08-2.425-12.02.367-3.967 2.242-7.485 5.41-10.207 9.009-4.074 5.386-8.183 17.501 2.278 19.016 11.475 1.663 38.77-21.884 19.949-28.392M462.2 378.434c-3.301 3.372-7.422 6.123-12.126 7.062 1.99-4.44 6.433-14.14 11.701-15.491 2.427-.624 5.194.193 4.995 2.958-.145 2-3.268 4.14-4.57 5.471m4.25-11.736c-2.734-1.37-1.872-2.306-5.052-1.231-2.506.846-5.667 2.315-7.754 4.007-1.138.924-4.683 4.198-4.25 5.864.787 3.028 3.431-1.612 4.126-2.504 1.191.97-4.9 9.686-5.262 11.12-1.35 5.342 2.842 5.907 6.951 4.16 5.541-2.356 21.95-16.05 11.24-21.416M547.693 510.428c.41-3.54.99-7.285 4.24-9.273 2.928-1.793 5.96-1.533 6.394 2.143.404 3.414-2.941 9.477-5.647 11.34-3.767 2.593-4.493-.64-4.987-4.21m4.84 8.058c7.735-4.526 12.61-25.283-1.648-19.466-8.102 3.306-5.122 23.427 1.648 19.466M486.473 432.411c1.22-2.5 2.615-3.33 5.089-4.424-1.65 1.557-3.334 2.996-5.089 4.424m1.785-6.16c-1.752 1.757-5.767 4.437-5.204 7.456.513 2.756 2.618 2.598 4.527 1.739 4.003-1.8 6.231-9.679 10.419-10.417-4.645-2.944-5.73-2.807-9.742 1.221M488.873 269.769c.223 8.39.42 16.78.604 25.172.065 2.95-.639 7.153.246 9.978.39 1.244 3.925 6.638 5.179 6.987 4.387 1.221 2.82-9.778 2.85-12.486.107-9.137-.027-18.284-.064-27.421-.02-4.709 1.309-44.191-4.8-43.999-1.053.034-3.646 4.548-4.036 5.453-1.228 2.842-.776 7.055-.748 10.085.083 8.74.537 17.492.769 26.23M525.866 294.229c.344 2.32.163 6.188 2.775 7.391 2.272 1.046 3.143-.198 3.993-2.142 1.954-4.472 1.249-11.31 1.213-15.933-.072-9.164-1.104-18.289-1.817-27.418-.314-4.006.337-8.03-.163-12.22-.22-1.84-.44-9.24-3.849-8.895-3.083.31-2.805 8.066-2.973 10.064-1.398 16.634-1.64 32.549.82 49.153M671.386 485.239c-1.307 6.68-22.626 29.943-27.994 16.933-3.185-7.72 3.719-16.123 9.102-20.591 3.332-2.766 7.494-5.48 12.035-4.642 3.855.712 7.686 4.057 6.857 8.3m-11.009-11.983c-1.506.356-14.092 9.194-14.207 9.078-1.093-1.097 6.845-12.93 7.662-13.965 6.73-8.527 11.197-2.07 15.406 4.632-.896-4.003-3.362-9.815-7.483-11.508-5.203-2.137-9.261 3.138-11.764 6.931-3.538 5.361-5.488 11.182-7.454 17.232-.938 2.885-2.006 5.5-3.593 8.102-1.567 2.567-4.309 5.397-3.904 8.644 2.228-1.238 3.411-3.662 4.814-5.66 1.566.635 1.028 5.627 1.346 6.898.799 3.193 2.98 5.692 6.355 6.241 6.29 1.023 13.078-4.795 17.283-8.747 4.43-4.164 9.2-9.872 9.162-16.281-.04-6.696-6.626-13.253-13.623-11.597M677.427 365.913c-3.568 5.46-9.83 12.007-16.454 13.276-4.863.931-8.07-2.673-6.117-7.538 1.65-4.112 7.272-6.709 10.957-8.518 2.923-1.435 16.552-4.777 11.614 2.78m-2.625-8.932c-7.31-.276-13.205 5.008-18.655 9.226 1.23-4.845 4.015-10.116 7.936-13.27 5.335-4.29 10.393-1.626 16.01.52-1.386-4.373-7.606-5.946-11.569-5.328-5.01.782-8.613 5.059-11.146 9.197-3.022 4.936-4.056 10.753-7.613 15.383-1.629 2.12-11.714 10.05-9.43 13.291l11.3-11.996c.978 4.726 2.054 10.108 8.088 9.648 4.82-.368 10.315-4.464 13.839-7.595 4.55-4.044 13.506-18.612 1.24-19.076M572.414 403.61c-3.096 1.424-9.912 3.36-11.643-.918-2.405-5.941 5.333-16.361 9.016-20.32 2.266-2.435 3.803-3.695 6.962-2.12 2.522 1.26 6.228 4.836 7.195 7.586 2.077 5.903-6.687 13.545-11.53 15.773m7.104-28.533c2.521.569 2.83 3.77-.323 2.54-2.362-.92-2.911-3.269.323-2.54m3.165 4.51c-.941-2.872.974-7.377-3.663-7.584-2.627-.117-7.44 2.554-9.734 3.64-3.18 1.504-6.172 3.801-7.832 7.036-1.538 2.997-.44 3.787 1.904 1.3.287.195-5.302 14.609-5.35 16.053-.219 6.6 4.453 10.947 11.015 9.777 6.03-1.076 11.466-6.008 14.785-10.985 1.679-2.52 3.058-5.404 3.183-8.49.194-4.733-2.962-6.636-4.308-10.747M611.61 377.167c-2.544-4.9 3.352-13.147 8.631-10.735 10.992 5.023-5.292 17.16-8.63 10.735zm9.875-6.397c-1.18.048-8.637 2.928-7.54 4.88 1.507 2.68 6.95-3.802 7.54-4.88zM260.946 361.713c-.295-2.088-4.973.943-4.946 2.287.774-1.548 5.56 2.062 4.946-2.287M516.806 203.995c5.956-.438-1.633-30.486-5.973-27.829-4.706 2.88.507 28.23 5.973 27.83M527.929 189.964c5.58.8 4.693-12.014 1.692-14.307-5.54-4.233-8.467 13.337-1.692 14.307"/></g></g></svg>