<svg width="1024" height="768" xmlns="http://www.w3.org/2000/svg"><g fill="none" fill-rule="evenodd"><path d="M367.188 255.425l25.561 65.322c3.151 8.052 1.34 17.806 1.621 26.346.57 17.387 1.38 34.674 9.94 50.17 7.99 14.468 17.824 28.064 27.878 41.162 13.646-19.378 34.798-34.53 55.142-45.967 14.016-7.88 29.332-14.883 45.4-17.153 4.994-.706 10.504-1.184 15.458.12-.67-7.662-.794-15.443-.216-23.112.906-12.018 4.045-20.178 13.17-28.203 4.64-4.081 9.64-7.76 14.732-11.254 1.817-1.247 7.17-3.458 8.264-5.401.962-1.707.092-6.624.22-8.643.451-7.074 1.546-14.166 3.62-20.954 3.92-12.833 10.868-24.686 15.21-37.433l-19.398-2.771c-4.378-.626-7.276-2.47-10.083.733-9.722 11.088-18.016 23.859-26.902 35.626-5.859 7.759-11.56 15.556-18.195 22.689-10.602 11.398-29.682 29.853-45.325 15.49-8.033-7.374-9.253-20.04-9.413-30.263-.217-13.917 1.904-27.837 4.316-41.504-23.663-2.254-48.045 1.617-71.25 6-13.34 2.52-26.646 5.438-39.75 9" fill="#FF5678"/><g fill="#000"><path d="M498.775 172.944c-17.42 0-24.979 23.049-3.982 22.832 16.38-.17 25.02-22.832 3.982-22.832zm-6.668 27.239c-26.147 0-16.557-31.485 6.767-31.568 28.778-.101 16.062 31.564-6.767 31.568zm284.521 405.16c-10.606 2.195-21.26 4.474-31.58 7.796-6.332 2.038-13.512 7.874-16.937-.663-1.419-3.535-1.993-7.281-3.708-10.712-1.974-3.951-4.568-7.574-7.316-11.017-6.258-7.837-12.803-16.08-19.92-23.117-13.817-13.662-26.774-28.73-43.548-38.622-4.31-2.541-7.89-6.614-12.044-9.543-4.465-3.147-8.946-6.266-13.525-9.246a624.446 624.446 0 00-28.625-17.526c4.878-5.914 11.61-9.897 17.856-14.178 6.682-4.581 13.254-9.37 19.848-14.07 2.89-2.06 4.294-2.59 7.517-.82 2.966 1.629 5.87 3.672 8.703 5.526 6.95 4.547 13.127 9.903 18.66 16.094 11.918 13.335 25.863 24.1 39.132 35.998 13.464 12.073 26.88 24.762 38.318 38.805 6.13 7.524 12.165 15.373 17.48 23.498 2.807 4.293 5.19 8.822 7.638 13.322.952 1.75 6.008 7.656 2.051 8.475zm-183.526-124.24c-.324.777-1.05 1.46-1.889.889-.226-.155.416-3.82.451-4.26.254-3.157.303-6.33.255-9.495-.09-5.972-.6-11.926-.986-17.885-.779-12.07-.908-24.188-2.31-36.212 2.994 1.482 7.08 3.634 9.17 6.357 1.715 2.235 1.458 4.189 1.487 6.932.091 8.285 1.386 16.528 1.983 24.784.241 3.334.387 6.662 1.26 9.9.735 2.739 2.402 5.78 1.672 8.682-1.248 4.952-7.58 7.275-11.093 10.308zm16.451-51.792c3.63 2.48 7.784 3.92 8.531 8.738.722 4.666-.27 8.944 1.34 13.527.955 2.718 3 6.044 1.33 8.7-1.743 2.77-6.116 4.184-8.657 6.114-.503-6.045-.078-12.122-.519-18.17-.46-6.323-2.025-12.55-2.025-18.91zm18.047 13.906l9.486 7.613c-3.163 1.722-6.324 3.445-9.486 5.168v-12.781zm-46.884 48.545c-2.332 1.889-6.332-.334-8.33-1.708-3.115-2.141-3.663-4.06-3.366-7.767.735-9.18-.948-18.037-2.46-27.096-3.393-20.33-6.152-40.81-7.795-61.36 5.904 2.837 13.7 6.017 17.392 11.753 2.385 3.704 1.686 8.44 1.572 12.652-.155 5.745-.636 11.48-.624 17.23.024 11.308 1.291 22.61 1.61 33.915.133 4.742.117 9.608 2.385 13.91.511.969 3.151 3.84 3.223 4.634.134 1.479-2.512 2.935-3.607 3.837zm-28.719-13.895c-7.51-3.907-8.452-13.948-10.225-21.291-2.47-10.236-4.845-20.686-6.276-31.124-1.408-10.263-1.149-20.665-2.75-30.912-.353-2.25-2.592-7.246-1.65-9.48 1.192-2.824 5.645-2.751 8.153-3.18 2.296-.394 6.604-2.846 8.086-.777 1.232 1.72.044 5.648-.247 7.492-1.348 8.595 0 17.264.98 25.862 2.507 21.975 4.551 43.954 8.285 65.773-1.45-.79-2.89-1.601-4.356-2.363zm-12.81 22.358c-.22-3.907-.437-7.814-.656-11.72l6.846 2.578c-1.796 3.209-3.4 6.645-6.19 9.142zm-7.974 9.729c-2.129 2.214-4.015 5.118-6.955 6.339v-31.5c2.494.37 5.297-.29 6.318 2.445.78 2.09-.267 5.336.034 7.627.495 3.777 3.736 11.832.603 15.089zm-14.636-46.333c-2.187-17.605-2.827-35.362-5.679-52.89-.645-3.968-1.383-7.817-2.352-11.717-.614-2.465-1.889-5.467-.3-7.782 2.445-3.566 9.307-3.463 13.053-4.348-.45 27.604.844 55.754 10.5 81.91-3.184-.366-14.684-.837-15.222-5.173zm-1.23 60.38c-4.088 2.96-7.788 7.249-12.808 8.629-.313-12.522-.498-25.052-.983-37.568-.113-2.912-.19-5.851-.487-8.752-.126-1.235-.955-3.777-.359-5.017 1.526-3.176 7.123-1.01 9.436.428 3.188 1.98 2.832 5.246 2.782 8.744-.062 4.462.008 8.75.337 13.216.291 3.958.66 7.79 1.357 11.69.233 1.308 2.097 7.636.724 8.63zm-19.619 13.574c-4.958 2.717-6.789-2.468-9.06-5.883-1.56-2.344-4.05-4.57-4.679-7.412-.633-2.86.783-5.753 1.023-8.576.578-6.783-1.62-13.78-2.475-20.465-.97-7.594-1.325-15.297-1.325-22.95 3.746 1.702 10.451 1.77 11.798 6.384.6 2.048-.202 4.69-.325 6.78-.208 3.52-.09 7.074-.134 10.6-.172 13.979.398 27.627 8.167 39.772-.988.597-1.985 1.18-2.99 1.75zm-15.903 8.502c-8.389 3.552-16.456 8.08-25.312 10.418a477.202 477.202 0 01-26.87 6.27c-18.794 3.81-38.1 6.04-57.294 5.428-9.395-.301-18.639-1.537-27.92-2.958-9.4-1.44-17.537-4.823-26.432-7.936-17.29-6.051-35.014-9.974-51.407-18.423-3.956-2.04-7.805-4.27-11.734-6.357-2.087-1.108-4.65-1.584-4.765-4.224-.117-2.735 2.836-7.756 4.007-10.207 1.814-3.795 4.614-6.811 7.454-9.872 4.817-5.19 9.34-12.906 15.182-16.906 3.222-2.206 4.546-.858 7.374 1.108 3.723 2.589 8.167 4.432 12.335 6.199 17.146 7.27 36.635 11.674 55.08 13.826 18.16 2.118 36.114 4.178 54.195-.142 10.234-2.445 19.838-6.557 29.51-10.611 3.198-1.34 6.793-4.286 9.716-1.984 3.13 2.465 4.993 7.553 7.55 10.672 6.12 7.466 13.715 13.275 19.835 20.722 1.485 1.809 13.8 13.155 9.496 14.977zM239.4 510.35c-2.714 4.002-5.158 8.33-5.933 13.17-5.213-4.181-8.77-5.597-4.578-12.204 3.918-6.176 7.401-12.47 10.97-18.864 1.457-2.612 3.62-5.675 3.147-8.842-.539-3.608-3.754-5.228-6.88-3.6-2.222 1.156-3.894 4.212-5.359 6.17-2.64 3.53-4.94 7.28-7.184 11.07-1.666 2.816-3.243 7.376-5.57 9.535-1.568 1.453-3.548 1.53-3.964-1.312-.37-2.527 3.381-6.983 4.5-8.993 1.822-3.277 3.828-6.476 5.26-9.953 1.484-3.603 2.455-15.536-4.7-9.604-2.47 2.047-4.55 6-6.41 8.593a156.892 156.892 0 00-8.024 12.338c-4.369-2.92-8.527-7.532-13.799-8.788-5.01-1.194-9.51 3.353-13.788 5.449-6.659 3.263-12.946 7.22-19.287 11.048-5.659 3.415-11.678 6.089-17.229 9.702-9.656 6.286-21.416 14.568-33.544 10.833-4.805-1.48-10.11-4.524-12.722-8.978-3.528-6.018-2.627-14.038-4.897-20.554 6.43 3.557 13.205-.55 18.875-3.613 6.354-3.434 12.945-6.37 19.613-9.14 13.783-5.724 28.075-10.723 41.64-16.898 26.507-12.068 48.853-31.527 75.451-43.324 6.256 18.14 16.592 34.85 30.287 48.318-13.077 11.702-25.975 23.84-35.875 38.44zm209.391-72.266c-3.549-1.676-7.868-2.027-5.406-6.657 1.75-3.287 5.551-5.575 7.953-8.371l2.961 17.868c-1.833-.951-3.64-1.957-5.508-2.84zm20.091 9.844c-.452-8.906-1.567-18.088-4.85-26.43-.963-2.446-2.613-5.328-1.236-7.872 1.407-2.6 5.547-4.022 8.102-5.108 1.947 15.175 2.885 30.615 7.4 45.323-3.33-.914-9.184-1.36-9.416-5.913zm2.762 61.066l.051.806c-3.417-1.687-7.238-4.296-9.016-7.8-1.864-3.675-.868-7.9-.844-11.83.026-4.535-.747-8.923-1.586-13.36-.948-5.005-.357-9.697-.037-14.73 2.744 1.855 6.867 3.163 8.675 6.118 1.892 3.092.804 7.122.43 10.48-1.112 9.985-.286 20.613 2.327 30.316zm31.975-46.176c-6.596-.925-10.106-2.26-11.266-9.114-1.425-8.416-2.926-16.784-4.078-25.244-1.07-7.857-4.754-16.003-5.12-23.84-.26-5.515 9.005-7.48 13.201-9.532 2.242 22.592 3.357 45.333 7.263 67.73zm-67.37-36.595c-.733 1.682-1.343 3.415-2.009 5.124-4.657-6.912-9.247-13.677-14.67-20.021-5.023-5.878-9.21-11.88-11.784-19.218-2.79-7.953-5.349-16.395-6.19-24.808-.85-8.482-.07-17.183.125-25.687.114-4.941 2.881-17.416-.994-21.442-1.423-1.48-3.672-.978-5.282-2.347-2.206-1.875-2.919-5.718-3.83-8.295-5.744-16.237-10.806-32.966-19.265-48.061 11.281-4.828 24.047-7.254 35.932-10.207 12.48-3.101 25.443-5.016 38.253-6.082a205.86 205.86 0 0118.586-.686c5.036.038 10.074-.804 8.368 5.61-2.579 9.694-4.447 19.624-4.325 29.7.177 14.715 3.944 34.244 18.937 40.95 23.354 10.444 41.774-14.652 53.732-30.562 8.358-11.121 16.418-22.118 23.633-34.055 2.36-3.902 4.375-9.918 8.87-11.865 5.577-2.415 13.622-.741 19.515-.741-.447 7.107-.9 13.058-3.98 19.596a137.987 137.987 0 00-7.44 19.423c-1.922 6.418-2.794 12.41-3.59 18.966-.71 5.825-6.674 3.767-10.938 5.437-10.003 3.918-15.393 15.783-19.35 24.934-2.528 5.847-5.139 11.833-6.217 18.153-1.29 7.56-.36 15.255-.07 22.857-1.726.367-3.618-1.028-5.245-1.413-2.48-.586-5.189-.604-7.717-.44-5.57.366-11.218 1.36-16.653 2.6-11.752 2.683-22.864 7.52-33.507 13.1-17.25 9.045-34.847 21.003-42.895 39.48zM378.404 309.9c-17.64 6.07-35.547 11.73-53.946 15.018-9.049 1.616-18.103 1.27-27.245 1-4.2-.125-7.85-.818-11.922-1.682-3.099-.658-8.268-2.263-11.145-.413-1.676-5.52-10.53-5.622-15.07-6.511-3.695-.723-6.947-2.586-10.576-3.461-1.362-.328-2.689-.272-3.894-.96-1.157-.66-1.81-2.16-3.014-2.744-1.73-.84-3.83-.896-5.106-2.092-2.956-2.771-6.263-5.238-9.19-8.054-2.956-2.841-4.358-6.513-6.374-10.037-2.356-4.122-6.015-8.178-7.752-12.565a154.54 154.54 0 012.275 1.592c-.413-5.16-1.828-9.697-1.469-15.045.178-2.64-.09-4.331-.424-6.827-.255-1.906-.007-3.475.021-5.61.076-5.698 1.958-10.915 2.853-16.48.298-1.847.455-3.83.536-5.66.073-1.67-.967-3.894-.77-5.695a8.493 8.493 0 012.111 1.516c-1.754-4.29 3.877-9.39 4.501-13.484.94-6.16-4.925-7.721-9.883-6.984-6.673.992-12.837 4.935-18.81 7.82-8.178 3.952-16.312 7.922-24.326 12.2-9.4 5.02-17.609 11.677-26.863 16.8-1.172.649-5.487 3.45-6.269 1.114-.694-2.072 4.127-5.823 5.298-6.901 6.014-5.538 12.76-10.445 19.507-15.05 4.661-3.182 9.545-6.027 14.317-9.037 5.127-3.234 12.313-6.882 14.325-13.061 1.656-5.084-.267-9.704-5.999-8.244-7.418 1.89-14.847 7.088-21.657 10.54-6.803 3.452-13.71 6.713-20.47 10.244-1.509.787-7.298 4.859-6.323 1.606.788-2.631 5.34-5.805 7.302-7.603 2.907-2.665 5.97-5.156 9.124-7.523 6.666-5.003 13.75-9.433 20.942-13.63 4.412-2.574 9.162-5.29 9.396-11.015.4-9.821-8.518-4.61-13.663-2.661-6.883 2.604-14.015 4.479-20.915 7.04-6.29 2.334-12.644 4.869-19.352 5.722-3.432.437-8.538.568-7.712-4.225.887-5.136 8.222-8.663 12.23-10.954 6.856-3.921 13.883-5.414 21.498-7.123 8.291-1.861 16.468-3.864 24.853-5.306 16.99-2.923 33.343-3.956 50.507-2.395 7.867.715 15.862-.051 23.642.669 5.173.478 9.055 3.698 11.867 7.864 6.851 10.154 9.728 23.999 8.627 35.997-1.597 17.382-9.18 32.032-15.663 47.859-4.93 12.039-8.61 28.767 4.613 36.966 6.244 3.872 13.294 3.602 20.287 2.584 9.435-1.374 18.73-3.56 27.948-5.957 18.218-4.74 36.257-10.063 54.243-15.61.792 3.135 17.97 44.73 12.98 46.448zm97.83-27.405c.666-9.316.998-18.504 2.637-27.72.534-3 .773-6.331 3.388-8.315 2.584-1.961 6.421-2.024 9.362-3.234 7.808-3.214 14.19-10.6 20.092-16.418 6.094-6.008 10.054-12.853 12.927-20.88 2.3-6.42 5.945-16.558 1.69-22.872-3.315-4.915-8.716-6.641-7.016-13.721 1.454-6.052 7.473-9.46 12.7-5.387 3.267 2.544 6.938 8.723 6.938.323 13.93 3.084 28.325-1.79 40.496-8.4 2.38-1.293 5.296-3.345 7.715-1.308 1.598 1.346 2.118 3.997 3.87 5.49 1.828 1.562 4.7 2.429 5.264 5.04.436 2.014-.834 5.15-1.378 7.01-1.385 4.743-3.252 9.59-7.045 12.908-1.642 1.436-7.278 6.293-9.39 4.238-2.44-2.373 2.854-10.068-3.873-5.662-2.407 1.577-3.153 1.653-4.179 4.533-1.205 3.383-1.754 6.974-2.232 10.516-2.615-.855-6.768-3.638-9.44-1.615-2.532 1.917-1.196 5.928.887 7.595 2.138 1.71 6.495 2.03 8.995.93 3.997-1.758 4.016-6.254 4.87-9.947 2.258 1.637 3.77 4.54 7.014 3.984-9.862 11.693-22.848 19.79-38.272 19.817-6.974.012-9.608 2.693-10.999 9.492-1.42 6.945-1.38 14.517-1.39 21.562-.008 5.749.201 11.632 1.957 17.156 1.163 3.66 3.432 7.228 4.867 1.24.772-3.213.224-6.904.192-10.193-.018-2.068-.714-5.844.64-7.546 1.502-1.892 4.99-.85 7.082-.87 4.392-.041 8.595-1.681 12.99-1.681-6.494 9.566-13.85 18.51-20.067 28.269-6.356 9.979-14.082 19.352-23.445 26.678-7.822 6.12-18.712 9.279-27.592 3.318-7.618-5.113-10.885-15.521-10.255-24.33zM597.25 194.81c2.836 4.046-6.315 12.01-9.825 11.95.896-1.441 8.051-14.481 9.825-11.95zm6.233 55.388c1.041-2.991 6.925-2.744 9.367-2.824 5.325-.175 10.66-.188 15.99-.352 14.571-.446 29.133-1.498 43.718-1.265 15.098.24 30.21-1.195 45.281-.67 14.32.498 28.585 1.83 42.661 4.527 25.79 4.942 52.598 11.988 73.211 29.304 18.515 15.553 32.311 38.06 29.392 62.938-1.8 15.34-2.455 31.452-8.266 45.954-4.939 12.325-15.306 19.962-26.013 27.06-.14-2.953 7.728-22.074-.67-19.15-2.709.943-4.28 4.672-5.757 6.908-2.59 3.922-5.365 7.762-8.174 11.532-5.097 6.844-10.949 13.316-18.468 17.546-2.912 1.639-12.177 6.46-13.824 1.172-1.364-4.381 7.482-13.253 9.565-16.606 1.846-2.973 3.324-5.844 2.63-9.383-.268-1.363-1.09-2.616-1.397-3.98-.248-1.104.04-2.794-.459-3.802-3.34-6.744-6.9 4.937-7.956 7.045-3.654 7.297-12.163 12.047-18.783 16.23-8.234 5.205-16.38 10.843-25.94 13.303 5.982-10.244 12.097-20.422 17.53-30.975 5.058-9.826 8.256-21.195 14.166-30.312.998-1.54 1.676-3.208 2.467-5.053.493-1.15 1.234-5.064 1.886-5.75.37-.39 2.438-.538 3.25-1.327 1-.97 1.56-2.507 2.068-3.77.603-1.5 2.914-6.721 2.307-8.42-.127-.354-1.779-.2-2.065-.855-.336-.768-.092-1.328-.127-2.111-.079-1.806 1.064-3.17-.286-4.897 6.826 0 .465-18.356-.702-21.693-1.297-3.71-3.47-6.373-4.472-9.991-1.22-4.414-4.615-8.283-7.645-11.616-3.03-3.335-6.194-7.312-9.605-10.214-3.533-3.006-8.303-4.707-12.317-6.983-1.79-1.015-3.705-2.363-5.76-2.775-.667.198-1.33.405-1.993.619a7.748 7.748 0 01-2.054-1.557c-3.838-1.995-7.598-2.714-11.918-3.236-21.349-2.58-44.232-3.045-65.665-1.234-11.136.94-22.457 2.012-33.425 4.196-11.358 2.262-22.533 5.15-34.016 6.814 2.593-11.94 8.27-22.871 12.268-34.347zm61.79-146.471c1.97-.262 1.142 2.423.506 3.23-.828-.95-.997-2.027-.507-3.23zm276.602 567.822c-1.613-7.77-7.146-15.782-13.524-20.427-7.87-5.733-16.757-5.798-26.004-5.331-10.598.536-20.89 2.386-31.328 4.16-10.607 1.805-21.045 3.357-31.339 6.585-4.124 1.293-8.315 2.382-12.382 3.84-3.033 1.088-6.539 3.174-8.057-.787-2.76-7.197 7.857-10.325 12.084-13.361 2.302-1.654 5.361-4.044 2.473-6.605-3.414-3.026-9.2-.115-12.682 1.138-3.213 1.157-6.473 1.558-5.656-3.575.543-3.41 4.968-5.62 7.444-7.61 3.046-2.45 13.74-9.663 6.88-13.32-7.304-3.892-11.404 5.819-17.643 6.319-5.492.44-5.457-13.067-6.993-16.766-3.878-9.343-13.588.88-17.95-4.754-1.799-2.323-1.178-6.504-1.85-9.227-1.106-4.484-3.67-8.884-5.742-12.993a198.33 198.33 0 00-15.81-26.104c-5.92-8.27-12.479-15.381-19.943-22.258-7.486-6.897-14.01-14.734-21.373-21.756-14.655-13.977-31.545-25.48-46.562-39.114-3.466-3.148-6.77-6.43-10.818-8.845-3.716-2.216-9.86-3.411-12.82-6.564-1.926-2.05-1.609-4.931-2.544-7.453-1.582-4.273-5.384-7.166-8.639-10.153-15.134-13.885-30.968-27.68-48.739-38.121-8.619-5.065-17.35-11.37-26.598-15.182-2.988-1.233-7.028-1.743-9.487-4-2.577-2.366-3.063-6.501-4.038-9.7-6.047-19.835 6.41-40.377 21.531-52.702 2.69-2.192 6.567-4.001 8.296-7.07 1.894-3.362 1.984-7.675 4.005-11.093 3.743-6.331 13.927-5.458 20.357-6.896 38.826-8.686 84.904-12.05 122.961 1.807 15.992 5.822 29.728 15.622 35.845 31.943 2.761 7.366 4.214 15.355 3.984 23.228-.255 8.772-3.466 16.91-6.403 25.08-3.53 9.824-7.482 19.503-12.057 28.89-4.128 8.473-9.36 16.1-13.919 24.299-2.83 5.093-7.32 14.484-.843 18.699 5.166 3.36 13.367 1.396 18.463-1.062 7.622-3.677 13.258-10.277 19.93-15.303.028 4.98-4.4 9.44-2.383 14.478 2.004 5.005 7.443 4.356 11.74 3.135 4.907-1.395 9.994-3.561 14.484-5.968 5.674-3.041 9.755-7.704 14.575-11.84 8.468-7.265 19.72-9.7 28.79-15.998 9.373-6.511 15.85-16.367 19.801-26.941 4.576-12.247 6.447-25.38 8.024-38.293 1.56-12.776 2.323-25.37-1.908-37.742-8.046-23.532-24.373-42.088-46.317-53.727-46.305-24.561-98.61-23.556-149.467-22.208-13.938.37-27.889.557-41.807 1.47-6.398.42-12.81.942-19.165 1.804-1.938.263-6.276 1.745-8.003.157-1.332-1.224-.55-3.8-1.759-5.277-2.874-3.512-9.286-2.61-13.114-2.141-4.835.589-10.53.693-14.877 3.049-4.179 2.265-5.633 7.01-10.812 7.08-5.759.079-11.777-1.29-17.579-1.51-4.564-.173-8.615-1.745-4.243-6.744 3.333-3.812 8.916-3.79 13.448-4.652 8.38-1.595 27.427-15.606 33.703-5.891 1.723 2.666 1.6 3.633 4.911 4.799 3.061 1.079 6.536 1.603 9.743 2.129 5.967.978 12.906 1.765 18.744-.317 9.074-3.237 10.95-13.431 13.068-21.68 9.691 5.148 24.325 7.539 33.894.809 8.041-5.656 10.933-17.513 10.586-26.82-.103-2.768-.47-5.607-1.455-8.212-.913-2.415-3.375-4.926-3.284-7.612.08-2.34 2.287-4.371 3.3-6.332 1.503-2.91 2.225-6.366 2.523-9.61 1.09-11.91-7.809-18.554-17.059-24.033 5.433-6.468 11.508-12.923 11.034-21.984-.44-8.455-7.123-14.34-14.014-18.305-6.163-3.547-12.38-4.92-19.295-5.78-3.013-.375-4.165-.066-3.684-3.174.381-2.468 2.155-4.661 2.702-7.104 3.187-14.235-10.88-19.653-22.265-20.893-18.746-2.042-36.127 1.775-51.354 12.837-11.127-23.43-48.23-11.87-58.57 6.288-1.358 2.38-2.359 4.968-2.827 7.674-.312 1.81.668 6.08-.236 7.457-1.762 2.683-8.784.143-11.259.27-4.534.234-9.39 2.584-13.052 5.148-15.473 10.836-14.69 33.1-10.975 49.456-9.946 1.349-19.998 9.576-20.199 20.153-.102 5.308 1.822 11.296 4.927 15.587 3.178 4.394 8.976 7.33 9.571 13.172.625 6.146-.672 9.75 4.466 14.385 3.766 3.398 8.748 6.143 13.506 7.864 11.137 4.028 23.81 2.6 34.63-1.745-5.5 8.68-14.299 16.419-22.87 21.99-3.844 2.5-8.363 5.713-12.695 7.268-4.7 1.688-10.52-1.257-15.38-1.664-21.836-1.827-44.32 2.146-65.334 7.572-22.742 5.872-45.224 12.323-67.796 18.847-11.175 3.23-22.332 6.642-33.622 9.45-8.477 2.11-17.92 3.965-26.68 2.47-7.468-1.274-11.13-6.31-8.725-13.866 3.17-9.953 9.355-19.235 13.188-29.011 7.09-18.083 10.603-38.858 4.403-57.685-2.51-7.624-6.084-16.475-12.92-21.223-3.614-2.51-8.137-3.99-12.058-5.973-4.982-2.52-10.336-4.344-15.725-5.78-21.65-5.764-44.493-3.07-66.116 1.372-19.53 4.012-49.873 9.7-58.596 30.629-2.983 7.156-4.067 19.253 3.35 24.245 6.382 4.295 16.018 1.516 22.226-1.727-6.05 6.959-13.563 13.593-16.482 22.626-1.027 3.18-1.818 7.569.257 10.517 3.016 4.284 8.144 1.765 12.195.76-4.752 6.129-11.595 15.9-6.744 23.734 5.367 8.666 16.186 2.857 22.865-.762 9.91-5.37 20.244-9.896 30.173-15.233 5.32-2.858 10.535-5.891 15.174-9.781 3.841-3.221 7.1-6.64 12.4-7.03-6.918 13.06-13.737 26.642-13.61 41.785.117 14.1 5.653 30.864 13.133 42.806 7.827 12.495 20.463 20.187 33.798 25.713 14.521 6.018 29.333 10.08 45.106 10.734 30.746 1.273 63.891-5.888 90.424-21.608 1.985-1.176 2.056-1.587 3.914-.225 2.381 1.744 4.292 8.027 5.781 10.664 4.365 7.734 3.075 14.236 2.25 22.714-1.464 15.058 1.827 30.272 6.46 44.527 4.626 14.245 12.317 25.52 21.947 36.85 4.321 5.083 8.814 9.096 14.651 12.357 6.347 3.547 11.758 6.637 14.221 13.856 2.052 6.018 1.72 11.16-1.134 16.826-.738 1.465-2.154 5.946-3.506 6.967-1.288.974-1.629.103-2.823.42-2.179.578-2.8.9-4.562 2.572-4.71 4.47-11.68 5.653-17.782 7.477-8.393 2.51-17.032 4.948-25.822 5.392-15.14.766-32.44.678-47.016-3.684-14.68-4.394-29.894-6.922-44.018-13.06-6.422-2.791-9.382-4.22-10.745-11.208-.724-3.708-1.76-3.998-4.868-5.064-3.568-1.226-4.997-2.912-7.1-6.156-3.763-5.802-7.346-11.693-10.843-17.657-4.38-7.47-9.863-14.326-13.985-21.924-2.464-4.54-4.335-12.522-10.752-12.7-3.809-.105-7.958 2.665-11.38 4.074-4.172 1.718-8.378 3.352-12.54 5.092-16.026 6.7-30.336 16.764-44.98 25.992-15.983 10.07-34.262 17.19-51.184 25.674a176.06 176.06 0 00-22.653 13.597c-4.667 3.292-13.778 6.885-13.096 13.425-2.309-1.261-5.198-3.462-7.407-.841-1.824 2.163-.573 6.14-.114 8.602 1.51 8.096 3.304 16.345 8.238 23.132 7.815 10.75 22.71 19.567 36.283 17.63 16.592-2.365 29.9-14.167 44.157-21.92 5.208-2.832 10.436-5.47 15.37-8.757 2.906-1.937 8.026-6.115 11.845-5.612 5.826.767.955 7.66-.64 10.347-1.69 2.846-3.1 5.845-4.609 8.792-1.69 3.3-4.502 6.987-5.47 10.564-.614 2.264-.315 5.698 2.503 6.264 2.866.577 5.32-3.134 6.773-4.973 2.396-3.032 4.391-6.35 6.448-9.614 1.365-2.167 3.05-6.298 5.355-7.653 5.971-3.51-.559 7.743-1.63 9.279-1.346 1.929-3.296 4.257-3.62 6.638-.48 3.504 2.374 6.886 6.042 6.047 2.826-.646 4.732-3.59 6.322-5.76 1.022-1.392 4.076-6.828 6.056-6.88 1.224-.031 4.314 4.222 5.268 5.144 2.774 2.68 6.062 4.51 9.511 6.18 15.97 7.738 30.49 17.648 47.147 24.078 15.915 6.144 32.51 10.985 49.073 14.977 8.736 2.105 16.902 4.4 25.91 5.142 9.115.749 18.1.374 27.225.186 18.621-.386 36.17-4.25 54.06-9.18 31.771-8.755 61.622-23.124 86.213-45.374 6.356-5.75 12.11-12.064 17.55-18.677 2.362-2.872 4.837-5.717 6.837-8.856 1.337-2.1 2.552-5.696 4.906-6.895 3.627-1.848 11.988 4 15.26 5.622 3.581 1.776 7.247 4.096 11.15 5.023 1.467.348 2.895.378 4.332.877 1.434.499 3.126 2.074 4.762 1.722 6.091-1.313-3.894-13.044 5.041-7.102 14.272 9.49 27.615 20.839 41.068 31.446 3.367 2.655 6.82 4.989 10.42 7.316 3.37 2.179 5.952 5.147 9.177 7.505a225.367 225.367 0 0120.143 16.614c6.364 5.888 12.466 12.117 19.19 17.599 6.591 5.374 11.727 11.579 17.275 17.983 5.413 6.248 9.453 13.432 13.295 20.71-3.213-1.12-5.909-3.031-7.675 1.157-1.139 2.695-.166 6.392.568 9.074 2.356 8.599 7.301 16.317 10.273 24.707 3.384 9.558 8.384 18.733 11.201 28.458 2.492 8.604 1.905 18.129 5.47 26.467 2.925 6.846 13.583 5.26 19.738 5.873 9.84.978 19.564 2.085 29.458 2.392 20.584.637 41.434 2.196 62.017 1.402 18.721-.723 37.4-1.872 56.06-3.482 5.106-.441 16.471-1.464 17.646-8.17.76-4.33-3.09-3.68-6.009-3.41-4.156.386-8.358.324-12.529.395-19.98.342-39.6.616-59.543-.905-20.395-1.555-40.776-1.941-61.184-2.7-9.198-.341-18.134-.504-27.305-.087-2.738.124-6.102.453-7.634-2.2-1.538-2.663-1.324-8.998-2.019-11.997-2.422-10.432-7.739-19.673-11.315-29.696-3.606-10.112-7.198-20.187-11.803-29.901 14.76-2.593 29.497-5.513 44.05-9.098 5.922-1.46 12.174-2.436 17.923-4.42 6.355-2.192 6.497-.994 7.708 5.014 1.055 5.235 2.257 8.96-2.528 12.447-4.969 3.62-11.052 5.79-15.53 10.089-4.09 3.926-3.267 9.55 3.301 8.738 6.498-.803 13.947-5.7 19.833-8.43.822 3.56 1.59 6.098-.714 9.173-2.44 3.256-6.158 5.335-8.91 8.288-2.033 2.179-4.166 5.375-.826 7.487 3.435 2.172 6.865-.666 9.434-2.63 1.945-1.486 5.151-4.77 7.74-2.927 2.693 1.917 1.267 6.776 2.858 9.392 2.688 4.419 4.546 1.149 7.165-.72 4.214-3.006 12.808-2.17 17.828-2.586 6.024-.5 11.901-1.61 17.886-2.348 7.131-.88 14.315-.923 21.438-1.94 10.928-1.56 22.926-6.008 33.892-3.217 17.097 4.352 25.386 22.699 22.673 39.235-.534 3.259-3.168 10.45-.132 13.243 2.85 2.622 4.898-2.084 5.933-4.336 5.418-11.794 3.908-25.353 1.356-37.653z"/><path d="M743.397 200.623c23.49-2.386 47.806 2.912 70.466 8.696 20.344 5.192 40.124 13.733 53.88 30.176 2.163 2.586 4.575 8.258 7.504 9.92 4.491 2.553 4.01-3.72 2.886-6.267-3.627-8.226-11.738-16.887-18.324-22.813-15.69-14.117-36.627-20.663-56.937-24.702-12.34-2.454-25.03-3.831-37.618-3.851a83.857 83.857 0 00-18.657 2.074c-1.948.442-4.779.845-5.8 2.868-1.148 2.273-.125 4.175 2.6 3.899M191.678 343.664c6.338 6.61 14.834 11.256 23.84 12.916 4.697.865 11.954 2.17 16.282-.536 2.188-1.367 3.344-4.038 1.938-6.506-1.67-2.933-6.048-2.823-8.916-3.227-10.599-1.489-19.304-4.387-27.388-11.643-7.42-6.659-12.45-15.165-16.023-24.407-1.663-4.306-2.392-8.687-3.5-13.136-.627-2.518-2.276-8.402-4.995-4.124-4.254 6.694 1.221 20.284 3.656 26.757 3.371 8.966 8.477 16.991 15.106 23.906M445.992 101.547c6.033-6.208 9.019-14.435 15.903-20.074 1.284-1.05 6.213-3.258 6.156-5.166-.075-2.51-2.985-2.076-4.496-1.586-7.435 2.41-21.531 18.886-17.563 26.826M559.895 191.433c2.468-1.995 8.438-7.115 8.031-10.692-.38-3.354-3.143-2.509-5.306-1.16-.93.581-3.06 3.021-4.455 2.382-1.419-.649-.338-.423-.888-1.634-.765-1.688.486-6.3-2.779-4.979-1.94.786-2.907 5.38-3.04 7.146-.338 4.426 2.72 13.562 8.437 8.937M540.313 206.75c.42 2.575 4.018 7.513 7.067 4.874 2.437-2.108-.427-4.524-1.494-6.557-.69-1.318-1.622-6.013-3.563-5.935-3.032.121-2.316 5.743-2.01 7.618M529.437 176.358c.758-2.518-2.038-12.27-5.727-9.313-3.012 2.416.637 4.944 2.022 6.596.675.806 2.852 5.557 3.705 2.717"/></g></g></svg>