<svg width="1024" height="768" xmlns="http://www.w3.org/2000/svg"><g fill="none" fill-rule="evenodd"><path d="M436.795 309.52c-10.629.679-21.345.402-31.983.064-1.048-.034-3.554-.521-4.193.105-.734.721-.578 4.695-.7 5.679l-2.756 22.367-1.267 10.27c-.12.974-1.312 5.183-.743 6.027 1.035 1.536 8.446 1.887 10.399 2.263l23.259 4.48c2.19.422 7.78.521 8.796 2.251.644 1.098.251 4.07.327 5.316l.632 10.277c.83 13.46 1.658 26.92 2.485 40.381l49.382-3.97 12.016-.965c.954-.077 2.952.124 3.731-.403 1.7-1.151 3.15-6.076 4.067-7.846l7.013-13.534 6.759-13.042c.577-1.112 2.016-2.969 1.981-4.185-.041-1.372-2.086-3.827-2.725-4.998l-5.617-10.305-27.81-51.023c-.47-.862-1.519-3.997-2.438-4.473-1.785-.924-8.03.935-9.954 1.155-13.52 1.543-27.076 3.243-40.66 4.11" fill="#FF5678"/><g fill="#000"><path d="M280 280.303L289.859 292A821246.2 821246.2 0 01316 259.735l-13.105-5.857c-3.877-1.732-3.382-.908-5.835 2.526L280 280.303M448.041 533.999L448 551l52-2.56-2.362-7.132c-.615-1.858-1.393-7.471-2.888-8.717-1.634-1.36-8.817.043-11.01.122l-35.699 1.286M406.748 105L346 143.378l13.411 15.686c1.071 1.253 1.261 2.046 2.486 1.924 1.425-.142 3.823-2.379 5.01-3.119l43.063-26.803 13.03-8.111L406.748 105M877.225 304.944c-.732-5.947-3.73-11.992-5.924-17.5-2.585-6.489-5.308-12.924-8.096-19.328-1.766-4.055-2.406-3.058-7.022-2.877-5.395.21-10.79.422-16.183.633l12.46 45.237c.719 2.61 1.881 12.396 4.147 13.717.784.458 3.494-.131 4.383-.164l7.634-.286 10.376-.389c-.482-6.354-.997-12.717-1.775-19.043"/><path d="M534.636 686.752c-9.281-2.345-19.378-.123-28.73-.057-5.509.039-11.006-.33-16.513-.045-1.845.095-10.283-.15-10.57.96-.22.851 1.457 2.997 2.107 3.35 1.822.995 3.103-.282 4.942-.755 4.982-1.286 10.808-.493 15.928-.737 5.356-.255 10.71-.574 16.067-.82 5.336-.246 12.144.86 16.769-1.896M79.925 205.677c-.712-1.632-1.005-4.221-2.641-5.243-1.515-.947-4.69-.255-6.442-.28-3.724-.05-11.81.094-14.242 3.484-2.958 4.12 5.744 7.06 8.645 6.98 5.042-.136 9.63-4.01 14.68-4.941m92.694-51.727c.384-1.044-.963-1.734-1.936-2.066-2.476-.846-4.105.561-6.284 1.62-5.502 2.673-11.484 4.44-17.272 6.371-5.039 1.681-9.713 4.037-14.655 5.93-3.503 1.342-10.897 1.08-12.914 4.467-3.984 6.689 6.45 1.672 8.29 1.023 5.275-1.86 10.89-3.007 16.062-5.133 4.978-2.046 10.053-4.127 14.979-6.343 2.247-1.011 4.482-1.87 6.773-2.752 2.144-.826 4.677-2.9 6.957-3.117m150.57 115.933c-1.314-.806-6.702-5.305-8.512-4.712-1.414.465-2.996 5.633-3.877 6.99-4.413 6.795-9.172 13.309-13.903 19.881l6.3 3.387c4.28-10.146 12.536-17.739 19.993-25.546m81.7 36.264c6.759.016 13.454-.83 20.204-.737 7.564.105 14.996.31 22.552-.307 7.436-.609 14.843-.639 22.279-1.091 2.338-.142 15.362-1.136 7.733-4.86-2.567-1.253-5.654.308-8.442.87-3.23.653-6.49.897-9.755 1.29-3.112.375-6.416 1.41-9.555 1.334-3.293-.08-5.765-.67-9.075-.193-6.861.988-13.693.435-20.551-.201-4.729-.44-15.11-3.098-15.39 3.895M588.8 690.954c4.35-3.508 11.229-1.989 16.397-3.107 5.707-1.236 1.213-7.284-.975-10.504-2.28-3.358-5.716-10.068-9.551-5.099-4.006 5.192-4.478 12.512-5.871 18.71M451.884 538.542c-.145 3.153-1.706 6.397 1.573 7.48 3.147 1.038 8.549-.54 11.81-.821 4.25-.368 8.433-1.07 12.67-1.507 1.892-.195 3.793-.34 5.695-.166 1.31.119 4.467 1.542 5.638.953 1.438-.723 2.135-4.624.96-6.128-1.273-1.63-8.964-.014-11.716.195-8.965.68-17.703-.407-26.63-.006m-.55-10.115c4.129-1.7 9.032-.904 13.378-.928 5.114-.026 10.168.253 15.27.585 2.257.147 8.841 1.82 10.735.375.996-.759 1.354-7.267.51-8.264-1.378-1.63-5.702.331-7.473.596-4.744.704-9.585.686-14.37.642-4.48-.04-8.974-.239-13.451-.25-5.305-.012-4.587 2.698-4.598 7.244M309.35 261.613c-1.686-.978-7.22-5.47-9.288-4.788-1.76.58-3.627 5.942-4.677 7.626-2.002 3.21-4.116 6.357-6.19 9.521-1.326 2.023-4.861 5.678-4.257 8.412.321 1.456 3.265 3.97 4.752 3.53 1.534-.456 4.06-6.162 4.912-7.288 4.608-6.087 10.398-10.667 14.748-17.013m536.68 6.591c5.906 11.577 6.666 24.667 9.866 37.092.745 2.892 1.893 5.746 2.525 8.655.353 1.62-.296 4.398.61 5.777 2.273 3.454 12.78 2.357 15.047-.683 1.331-1.786.297-3.638-.27-5.492-.765-2.504-.398-4.685-.842-7.184-.888-5.009-5.401-10.064-7.543-14.687-2.339-5.05-3.414-11.126-6.765-15.638-2.243-3.018-8.533-9.247-12.628-7.84m-385.13 451.6c7.903-1.04 20.334-3.39 19.92-14.01-.412-10.558-14.253-12.433-21.958-13.359-2.258-.27-2.504-.4-4.796.968-1.576.94-3.145 1.946-4.614 3.042-2.861 2.137-6.102 5.046-6.712 8.773-1.55 9.466 11.224 13.746 18.16 14.586m-45.175-599.737c3.586.38-1.184-3.105-2.088-3.527-2.744-1.28-5.792-1.048-8.705-.561-7.048 1.178-13.286 7.095-19.309 10.754-6.377 3.873-12.672 8.253-19.322 11.633-3.04 1.547-5.554 2.86-8.08 5.166-1.288 1.176-1.734 1.992-3.465 1.991-.96 0-3.1-2.243-4.122-.945-2.852 3.622 11.52 4.794 13.02 4.549 7.492-1.226 13.993-4.069 20.422-7.925 6.565-3.935 13.536-7.13 20.134-10.961 2.851-1.657 5.293-3.853 7.894-5.821.372-.282 1.046-1.232 1.422-1.593.605.178 1.111.021 1.518-.47a59.12 59.12 0 01.68-2.29m144.956 566.784c-7.288 2.587-19.202 4.601-22.622 13.15-3.873 9.685 13.537 16.59 20.369 17.116 7.178.551 19.934-2.354 20.934-11.279.575-5.137-3.498-8.416-7.304-10.978-3.89-2.62-9.442-3.182-11.377-8.01M94.332 147.458c-5.152.592-8.653 1.1-12.757 4.443-3.405 2.775-6.21 5.578-7.598 9.859-3.208 9.893 4.72 18.387 14.905 17.235 1.123-.127 2.22-.542 3.36-.428 1.047.106 1.779.857 2.664 1.008 2.086.354 2.49-.012 4.202-1.635 3.491-3.313 6.996-6.952 8.93-11.422 4.657-10.765-2.347-18.867-13.706-19.06m117.129-20.618c.5-11.141-16.46-12.972-24.28-12.125-8.88.963-23.447 9.978-20.066 21.039 2.977 9.735 19.769 8.993 27.026 7.014 1.553-.423 3.966-1.342 5.494-1.031 2.295.465 2.406 2.354 4.569.644 1.36-1.075 2.587-4.206 3.546-5.748 1.913-3.072 2.901-6.276 3.71-9.793m238.38 457.54c-.234 2.384-1.145 5.451 1.423 6.587 1.587.701 5.99-.067 7.584-.01 6.654.236 13.483-.293 20.096.235 1.955.157 7.8 2.141 9.539.81 1.701-1.3.373-5.368.26-7.19-.463-7.43.533-14.653.853-22.043.085-1.985.904-6.807-.617-8.277-1.853-1.79-5.964-.755-8.172-.531-6.888.697-13.975 1.719-20.9 1.734-1.9.004-6.109-1.345-7.757-.634-2.533 1.092-1.937 4.903-2.076 7.336-.424 7.335-.705 14.64-.233 21.982m-154.868-332.66c-9.032-6.69-18.394-13.035-27.425-19.541-3.216-2.316-5.607-5.623-8.62-7.883-1.89-1.42-2.466-2.037-5.05-.667-2.985 1.584-5.76 4.071-8.514 6.036-2.313 1.65-4.637 3.286-6.953 4.929-2.146 1.522-2.865 1.868-1.344 4.396 2.676 4.449 8.233 8.463 11.866 12.122 8.966 9.028 17.723 18.369 27.797 26.168 3.462-10.102 10.626-18.317 18.243-25.56m101.245-155.94c-15.68-6.196-16.868-27.172-22.352-40.542-1.698 9.153 2.807 24.029-4.799 31.217-4.677 4.42-7.387-1.818-9.898-5.213-3.825-5.17-7.93-10.114-11.581-15.415 1.12 6.396 4.333 13.574 3.733 20.078-.472 5.106-3.736 12.1-8.486 6.31-3.262-3.976-7.438-7.696-11.242-11.223-4.573-4.24-9.79-6.98-14.762-10.595 1.925 9.565 5.594 18.055 11.004 26.15 2.775 4.154 5.812 8.143 8.432 12.399 2.14 3.48 3.15 7.806 5.988 10.762 2.65 2.76 6.547 4.965 9.72 7.086 4.519 3.02 5.602 2.16 9.757-.709 8.043-5.554 16.776-10.001 24.87-15.485-1.497-1.981-3.89-3.938-3.812-6.635.063-2.183 1.734-4.17 3.97-3.909 1.753.205 2.563 2.04 4.513 1.421 1.649-.524 3.902-4.46 4.945-5.698m539.89 167.045c-7.267.857-14.05 3.446-21.497 2.974-3.013-.191-5.263.365-6.587-2.66-1.057-2.416.025-6.088-3.296-6.746-2.46-.487-5.507 1.799-7.326 3.092-3.27 2.325-6.166 4.388-9.867 6.03-6.562 2.911-13.223 5.442-20.395 5.76 1.736 5.269 3.563 10.546 5.966 15.554 2.303 4.8 4.569 8.885 5.254 14.232.293 2.289.293 4.783 2.54 5.789 2.203.988 6.131.174 8.517.216 5.463.098 10.929.226 16.392.239 4.164.008 8.305 1 12.36.943 5.039-.073 10.742-2.264 15.657-3.304 9.314-1.97 22.347-3.192 29.77-9.545-6.87-1.08-13.87-.345-20.618 1.135-3.09.679-10.177 4.21-12.248.674-2.467-4.211 2.361-10.025 5.768-11.981 3.844-2.21 9.58-1.97 12.289-5.952-5.117.432-10.508.621-15.455 2.126-3.791 1.153-8.683 4.438-10.183-1.25-2.43-9.217 6.62-13.588 12.958-17.326M393.87 341.725c1.284-12.2 3.64-24.53 3.849-36.812.089-5.306-5.907-4.357-10.103-5.865-6.1-2.19-12.08-4.785-18.069-7.257-5.97-2.465-11.973-4.841-17.964-7.255-5.439-2.19-10.659-5.503-16.143-7.45-2.985-1.06-3.217-.025-4.95 2.714a167.557 167.557 0 01-5.286 7.838c-3.848 5.39-7.968 10.577-12.18 15.684 12.671 7.628 25.897 14.678 38.97 21.591 13.343 7.056 27.856 11.327 41.876 16.812m270.658-46.281c6.702.016 13.228-.948 19.901-1.153 6.596-.202 12.975.087 19.517.259 6.283.164 12.443 1.438 18.709 1.735 1.524.072 3.108.066 4.623.235 1.525.17 2.428.736 3.842.976 3.476.59 6.86-.245 10.367-.058 12.929.69 25.668 3.347 38.602 4.02 13.294.693 26.271 1.725 39.505 3.32 6.995.842 14.001 1.337 21.028 1.83 1.44.1 4.526 1.008 5.315-.636.96-1.996-2.293-8.817-2.893-10.93-.777-2.747-1.417-5.555-2.462-8.219-.612-1.556-1.902-6.638-3.143-7.626-1.73-1.377-4.316-.054-6.336.238-4.093.591-8.254.944-12.37 1.35-6.092.602-12.189 2.041-18.277 2.224-6.873.205-13.71-.09-20.575-.345-13.749-.515-27.83-.249-41.507-1.653-15.805-1.624-31.683-2.283-47.526-3.475-3.755-.283-7.52-.354-11.28-.58-2.688-.16-8.178-2.048-10.69-1.173-2.553.89-2.069 3.91-2.358 6.259-.55 4.48-1.265 8.947-1.992 13.402M499.95 419.774c-9.537 1.467-18.894 2.041-28.535 2.318-4.253.122-8.478.326-12.714.752-3.54.356-5.527.51-5.657 4.388-.577 17.007-1.501 33.83-2.024 50.843-.296 9.606.045 19.223.011 28.832-.013 3.647-.76 6.276 3.248 6.702 4.87.517 9.98-.162 14.878-.116 4.51.044 9.021.154 13.53.253 2.896.062 8.264 1.503 9.237-2.003.31-1.122-.249-3.09-.22-4.331.054-2.307.339-4.638.478-6.945.319-5.292.551-10.589.873-15.88 1.315-21.683 4.85-43.187 6.895-64.812M390.748 149.849c6.29 4.826 13.446 8.147 20.17 12.368 3.225 2.024 6.337 4.195 9.496 6.316 3.25 2.183 7.024 3.506 10.095 5.93 5.941 4.694 13.293 7.684 19.82 11.756 6.633 4.139 13.244 8.284 20.027 12.172 3.002 1.72 6.284 2.755 9.363 4.307 3.69 1.861 7.037 4.3 10.778 6.077 8.007 3.809 16.003 7.621 23.976 11.503 15.652 7.62 31.695 14.659 47.673 21.563 3.405 1.471 6.985 2.117 10.574 2.986 1.695.41 3.844.623 5.372 1.438.474.254.977.29 1.355.716.72.818.109 1.963.553 2.571 2.487 3.406 9.397-6.165 11.005-8.484 2.481-3.584 1.474-4.164-2.358-5.65-3.865-1.5-7.766-2.915-11.59-4.517-7.042-2.952-14.246-6.292-20.975-9.908-6.998-3.762-14.286-6.868-21.211-10.792-7.767-4.4-15.473-8.89-23.327-13.135-13.253-7.161-25.427-16.19-38.302-23.963-7.11-4.291-13.792-9.398-20.67-14.123-6.713-4.611-13.075-9.76-19.93-14.068-3.771-2.37-7.692-4.342-11.216-7.08-2.634-2.044-5.262-4.143-8.563-2.426-3.568 1.855-6.935 4.974-10.4 7.128-3.909 2.432-7.811 4.876-11.715 7.315m292.036 79.813c-2.04-1.069-9.538-3.921-6.018-7.416 2.505-2.487 8.427.818 10.855 1.64-.051-3.438-.046-5.81-1.152-9.088-1.112-3.294-.804-5.785 1.906-8.282 1.239-1.142 5.734-2.127 6.255-3.625.81-2.328-3.222-1.59-4.598-1.915-7.273-1.72-6.833-9.344-7.014-15.181-.213-6.863-1.82-13.462-7.122-17.922-2.396-2.015-3.26-2.018-6.212-.695-1.087.487-2.067 1.272-3.267 1.488-1.697.305-2.835-.8-4.345-.726-2.34.116-4.73 3.987-7.007 5.224-2.95 1.602-5.854 1.124-8.769 2.27-2.593 1.02-5.1 3.785-7.518 5.256-3.293 2.003-2.543 3.968-2.332 7.904.175 3.283.07 5.437-3.159 6.655-1.04.393-2.872.216-3.758.848-1.309.933-.6 1.634-1.02 3.195-1.07 3.947-3.334 1.538-6.224 1.01-3.52-.642-7.397 1.842-5.558 5.62.657 1.352 2.07 2.583 3.483 3.004 1.672.497 3.758-.872 5.3-.254 3.934 1.576.79 5.31.978 7.854 2.387-1.295 3.198-5.008 5.666-.892 1.782 2.974 1.073 7.493.63 10.74-1.027 7.514-3.33 16.718-8.218 22.745-.704.868-1.755 2.499-3.078 2.293-1.101-.17-1.233-1.598-2.184-1.963-2.041-.786-5.167.378-5.949 2.268-1.32 3.194-1.183 7.88-1.287 11.261-.121 3.892-.578 8.294.366 12.11 1.612 6.52 7.677 8.79 13.576 10.23 3.288.801 6.892 1.737 10.22.61 3.63-1.229 6.125-4.527 8.684-7.189 1.924-2 5.657-4.278 5.908-7.173.118-1.354-.846-3.222-1.065-4.609-.349-2.202-.447-4.427-.389-6.656.108-4.092 1.253-8.253.904-12.346-.36-4.187-3.472-4.488-5.167-7.713-1.01-1.924-1.247-4.92 1.21-5.575 1.427-.38 4.1.703 5.646.813 2.359.168 4.748.205 7.113.228 4.359.045 7.643-.179 11.589-2.077 4.06-1.952 7.687-3.17 12.121-3.969m-101.062 458.7c.164-3.57.66-7.138 1.766-10.545.94-2.896 2.956-5.431 3.296-8.423.707-6.244-1.363-12.11-7.381-14.363-5.837-2.185-12.16-2.15-18.253-1.74-3.539.238-6.537-.973-10.009-.813-3.655.169-6.88-.333-10.51-.717-6.741-.717-12.486-3.685-19.033-4.94-3.204-.615-4.312.752-6.272 3.007-2.16 2.483-4.592 4.572-7.329 6.396-4.206 2.804-11.732 7.955-12.133-.737-.337-7.296 6.97-12.701 11.482-17.426-4.571-1.942-4.18-9.156-9.49-6.253-2.305 1.26-4.125 3.123-6.254 4.634-1.792 1.272-5.904 4.813-8.261 4.537-3.326-.389-3.682-5.116-3.183-7.74.905-4.763 5.884-7.505 9.419-10.303 2.135-1.691 5.33-3.022 7.145-5.007 1.93-2.111 1.5-4.476 1.435-7.128-.029-1.207.876-5.753.384-6.795-.757-1.607-3.38-1.182-5.248-1.348-3.468-.31-6.91-.918-10.365-1.245-2.708-.256-5.31.355-8.02.454-6.845.25-13.77-.106-20.624-.125-1.244-.004-6.455-.894-7.321.182-.748.927-.036 5.226-.04 6.337-.023 6.898 0 13.787.206 20.682.405 13.606-.05 27.576-2.844 40.949-.506 2.423-2.099 5.108.357 6.3 1.889.918 6.93-.508 8.99-.642 6.681-.437 13.434-.007 20.078-.492 11.567-.846 23.53-.069 35.328.205 15.696.366 31.303 2.063 46.994 2.465 6.82.175 13.757-1.07 20.489-.864 2.646.081 3.395.75 3.544 3.586.177 3.37-1.288 5.178 1.657 7.912M252.375 207.228c-6.029-10.184-11.712-20.57-17.735-30.757-2.72-4.6-5.775-8.973-8.812-13.366-1.556-2.251-3.276-4.525-4.465-7.004-1.09-2.27-1.415-4.879-2.698-7.057-2.427 5.366-7.637 8.31-13.09 10.23-4.237 1.493-8.37 3.63-12.791 4.552-11.562 2.412-22.999 7.608-34.344 11.375-24.091 7.998-49.842 12.39-73.036 22.782 7.914 7.834 5.456 24.538 18.661 27.064 5.254 1.006 10.74-.61 15.769-1.996a6533.44 6533.44 0 0119.059-5.216c6.896-1.88 13.86-3.338 20.813-4.978 3.492-.824 7.006-1.396 10.505-2.138 2.914-.619 2.95-1.224 4.476-3.97 2.583-4.64 7.373-9.388 11.425-3.265 1.65 2.494 1.3 5.624 2.746 8.096 1.235 2.11 3.876 3.206 5.733 4.632 1.288-3.637 2.827-8.564 5.674-11.358 3.106-3.049 6.192-.596 7.31 2.987 1.343 4.306-.637 9.545-1.503 13.781-.423 2.07-1.226 4.45-.74 6.574.646 2.822 3.105 5.731 4.57 8.18 13.693-10.206 27.68-20.628 42.473-29.148M520.063 378.69c-4.01-5.435-8.248-10.251-11.257-16.34-3.217-6.507-5.819-13.516-9.25-19.858-3.407-6.298-6.543-12.715-9.653-19.181-2.171-4.513-4.642-15.348-10.859-15.077-3.105.136-6.273 1.255-9.397 1.561-3.662.36-7.34.34-10.997.787-8.023.981-15.833 2.736-23.93 3.211-6.958.409-14.006.618-20.973.315-1.898-.082-6.84-1.561-8.6-.714-2.052.988-1.366 4.841-1.54 6.813-.654 7.417-1.656 14.84-2.783 22.198-.193 1.255-2.132 7.525-1.264 8.585 1.338 1.635 7.09.542 8.965.687 7.399.57 14.67 2.26 22.04 3.077 3.738.414 7.481.51 11.24.523 3.652.013 8.98-.995 12.444.256 2.228.805 3.492 2.698 2.773 5.11-.793 2.657-3.371 3.251-5.762 3.749-1.753.364-6.838.161-7.942 1.773-1.195 1.745.898 5.033 1.488 6.688 1.131 3.172.49 4.534.406 7.637-.09 3.265 1.801 6.139 1.549 9.441-.246 3.228-.38 5.805-.066 9.096.277 2.891.084 6.058.49 8.866.94 6.5 14.993 2.568 19.354 2.47 9.015-.201 18.066 1.257 27.047.825 2.642-.127 8.769.353 10.631-1.89 1.89-2.273 2.19-7.458 3.407-10.27 3.18-7.348 7.92-13.79 12.439-20.338m80.27-144.666c-.657 7.541-1.023 13.35-5.539 19.696-4.821 6.776-10.366 6.169-17.979 6.914-6.833.669-12.194 2.927-17.683 6.967-6.455 4.75-13.417 8.696-20.296 12.785-13.086 7.78-28.693 9.931-43.553 12.243-3.736.582-10.633 2.254-6.237 6.682 4.726 4.761 7.373 11.786 10.549 17.742 7.28 13.657 12.86 28.326 21.165 41.405 3.354 5.284 7.368 11.66 12.517 15.39 4.888 3.541 14.7-3.034 19.676-5.21 6.467-2.826 13.253-4.97 19.346-8.459 5.683-3.254 11.467-6.06 17.44-8.74 5.865-2.63 11.545-5.249 17.688-7.169 7.228-2.26 14.866-3.06 22.208-5.03 7.533-2.017 13.478-4.157 19.565-9.15 2.829-2.319 6.276-4.639 7.415-8.305 1.166-3.75.307-8.533.131-12.379-.185-4.02-.81-8.136-.728-12.157.082-4.053 2.07-7.234 3.27-11 1.895-5.944 4.05-16.72-1.949-20.722-.423 6.35-2.662 12.047-4.759 18.003-2.02 5.737-5.337 9.246-10.296 12.59-1.887 1.273-3.928 3.045-6.162 3.623-2.368.614-5.683.3-8.145.326-5.54.058-11.54-1.393-15.806-5.126-8.635-7.559-10.52-21.106-9.686-31.852.48-6.18 1.5-12.407 4.332-17.983.974-1.918 2.911-3.964 1.83-6.209-1.132-2.35-6.198-3.774-8.314-4.875M429.96 365.71c-10.185-1.329-20.791-2.411-30.684-5.286-3.6-1.046-7.942-2.37-7.98-6.687-.012-1.325.98-3.718.41-4.964-.586-1.277-4.233-1.363-5.92-1.699-19.622-3.89-37.847-11.497-55.363-21.022-17.715-9.634-34.08-21.002-50.795-32.229-16.31-10.953-29.86-24.33-43.416-38.397a253.078 253.078 0 00-5.76-5.751c-1.419-1.382-3.39-4.196-5.255-4.946-3.353-1.348-8.04 3.759-11.005 5.28-3.857 1.977-8.457 2.276-11.002-1.892-1.68-2.753-.118-3.256.123-5.847.198-2.13-1.26-3.337-2.542-4.82-.989 2.334-2.304 6.605-5.67 6.074-3.025-.476-3.357-4.646-3.572-7.023-.252-2.772.612-6.293-1.264-8.536-1.475-1.765-4.358-3.055-6.247-1.456-3.8 3.216-1.335 12.795-6.698 15.183-7.561 3.365-6.824-11.993-6.984-15.063-16.928 1.872-32.838 9.266-49.784 11.686-6.897.985-14.863.662-20.882-3.275-5.535-3.62-11.283-11.583-13.649-17.694-5.677 4.208-11.612 7.434-18.901 5.557-7.41-1.909-13.929-6.02-16.651-13.468-2.734-7.475-1.943-13.168 4.88-17.387 2.793-1.727 5-2.573 8.073-3.407 3.403-.923 7.713-1.591 10.925-3.053-3.312-4.84-7.08-9.58-8.586-15.364-1.698-6.522-.85-13.86 1.783-20.027 4.76-11.146 18.141-18.603 30.194-16.056 10.52 2.223 17.963 11.329 20.95 21.289 1.358 4.528.166 7.328 5.705 4.879 6.29-2.783 11.794-6.877 18.291-9.332 5.637-2.13 11.783-3.92 17.005-6.98 2.703-1.583 2.576-1.719 1.474-4.624-1.368-3.608-2.214-6.967-1.909-10.888.873-11.226 10.165-19.184 20.108-22.878 11.273-4.187 25.25-2.533 33.698 6.516 4.104 4.397 6.905 10.175 7.263 16.225.16 2.682-1.439 6.758-.547 9.23.776 2.152 4.448 3.802 5.865 5.858 2.248 3.265 3.29 7.172 5.52 10.493 1.934 2.875 3.893 5.727 5.751 8.654 4.515 7.105 8.746 14.385 12.436 21.955 1.688 3.463 3.273 6.976 4.82 10.505 1.062 2.42 1.938 6.84 3.848 8.769 1.93 1.949 4.807 1.325 6.463 3.792 2.087 3.106.105 5.852-1.55 8.558 12.577 3.684 20.3 14.332 30.363 22.136 10.16 7.876 21.31 14.697 32.231 21.451 11.368 7.03 22.53 13.731 34.906 18.84 11.532 4.76 22.68 10.372 34.18 15.193 1.612.676 2.868 1.572 4.463.523 1.475-.972 1.77-4.104 3.312-5.373 3.905-3.216 13.09-1.432 17.738-1.505 6.703-.104 13.503-.483 20.2-.137 2.268.117 4.46 1.02 6.68.721 3.405-.457 6.584-1.153 10.127-1.297 2.95-.12 5.893-.338 8.847-.232 1.4.05 3.77.651 5.025-.302 1.567-1.187.623-4.037 1.693-5.765.694-1.12 2.066-1.426 2.738-2.31-.086.113 1.07-1.88.75-1.627 2.064-1.629 7.839-2.122 10.279-1.541.704.167.819 1.353 1.706 1.356.883.003.951-.89 1.575-1.103.648-.223.822-1.12 1.688-1.256.958-.151 2.184.926 3.221.986 1.168.067 2.283-.707 3.37-1.01 1.444-.4 2.558-.106 3.761-.248 2.194-.26 4.553-.507 6.832-.774 3.315-.388 6.544-1.423 9.778-2.21 1.417-.345 2.834-.747 4.296-.857 1.688-.13 3.885.666 5.478.29 1.363-.321.253-.808 1.434-1.217 1.277-.443 2.657-.564 3.952-1.012 2.974-1.03 5.718-2.74 8.39-4.37 6.224-3.8 11.792-8.534 17.945-12.435-1.405-2.044-6.634-2.39-8.846-3.113-3.045-.995-6.033-2.16-9.011-3.336-6.77-2.673-13.492-5.476-20.21-8.275-12.746-5.31-25.564-10.433-37.745-16.948-11.443-6.12-23.664-10.888-35.01-17.226a417.847 417.847 0 01-17.162-10.116c-5.228-3.258-10.853-5.48-16.269-8.458-10.58-5.82-20.296-13.06-30.916-18.757-2.508-1.345-5.293-4.193-8-4.925-2.326-.63-4.686.669-6.788 1.579-2.227.964-4.317 2.547-6.817 2.601-2.752.06-5.902-1.423-8.499-2.322-4.826-1.669-9.018-6.296-10.773-11.115-.857-2.356-1.254-4.973-1.57-7.452-.376-2.938.616-6.392-.1-9.186-1.361-5.314-7.65-10.304-11.165-14.116-4.366-4.733-8.15-10.03-11.597-15.46-7.704-12.138-13.05-26.536-8.755-40.823.655-2.178 1.822-5.776 3.75-7.225 2.674-2.014 3.82.336 6.133 1.503 2.874 1.45 5.6 2.295 8.295 4.266 3.266 2.387 5.953 5.3 8.963 7.97.016-6.167-.944-11.573.387-17.75.683-3.17 2.212-9.763 6.244-10.328 4.184-.587 7.184 6.995 9.004 9.761 3.385 5.14 7.168 9.963 10.934 14.824.489-7.541-.512-25.47 8.97-28.436 8.494-2.659 12.886 20.236 14.944 25.36 1.92 4.78 4.614 9.501 7.53 13.747 3.055 4.45 6.385 2.183 11.12 2.392 4.376.193 6.344 3.221 6.296 7.513-.062 5.43-4.377 9.398-7.363 13.495 6.462 3.124 14.83 7.187 18.69 13.62.855 1.425 1.444 3.061 1.497 4.743.05 1.663-1.47 4.708-.68 6.245.577 1.124 2.525 1.53 3.562 2.143 2.146 1.266 4.051 2.904 6.172 4.216 13.896 8.603 26.96 18.882 40.366 27.964 12.105 8.2 24.927 15.506 37.17 23.702 15.569 10.421 31.938 19.288 48.603 27.855 3.843 1.977 7.408 4.172 11.097 6.384 3.786 2.27 8.304 3.803 12.344 5.64 2.832 1.288 5.92 3.738 8.892 4.54 3.536.955 5.025-2.797 9.145-1.824 3.556.839 7.43 1.21 9.567 4.41 1.871 2.806 1.697 7.098 4.711 8.912 3.495 2.101 4.475-.152 5.283-3.071.919-3.322 3.515-7.12.329-9.511-3.009-2.259-7.272-2.508-10.793-3.343-1.784-.423-4.15-1.967-5.85-2.107-2.121-.175-2.618 1.803-4.422 1.806-.959 0-1.802-.927-2.716-1.222-.206-.066-.747.69-.996.62-.893-.25-.965-.549-1.837-.906-3.105-1.276-7.211-3.287-6.274-7.163.502-2.08 3.91-5.425 1.531-7.332-2.234-1.793-5.234 1.946-6.466-1.796-.874-2.658 1.259-3.371-1.454-5.559-1.994-1.609-3.831-2.046-2.727-4.996.71-1.9 4.402-4.789 3.344-7.08-1.5-3.242-7.202.036-6.652-5.822.392-4.195 5.668-7.224 5.703-11.352.025-2.955-2.777-2.934-3.505-4.854-.72-1.897-.063-1.89.988-3.222.78-.99 1.287-1.319 1.87-2.485.708-1.418 1.931-3.254 1.471-4.903-.413-1.483-2.149-2.364-2.585-4.007-1.645-6.187 11.424-20.245 14.754-11.726 2.472-2.86 5.713-8.848 10.082-8.368 2.642.29 1.512 1.044 2.43 2.57.665 1.107 2.511 1.67 3.034 2.868 1.036-3.216-.063-9.176 2.816-11.536 2.805-2.3 4.568 1.747 5.761 3.999.768-2.125 1.261-6.112 3.91-6.874 2.833-.814 4.601 2.731 5.981 4.536 1.487-2.112 4.274-8.339 7.485-7.58 2.408.569 3.6 4.59 4.726 6.446 2.635-1.731 6.788-5.899 10.2-5.458 3.322.428 3.029 3.543 6.915 2.269 2.817-.925 5.746-3.381 8.737-3.565 3.153-.194 4.82 2.016 8.322 1.48 3.717-.569 4.285-1.434 6.708 1.6 1.196 1.499.88 2.156 2.955 2.47 1.755.265 3.292-.895 5.132-.164 1.362.54 2.313 1.801 2.883 3.097.673 1.53-.107 4.183.565 5.388 1.293 2.316 6.18.272 8.374 1.88 2.96 2.172.173 5.468 1.749 7.874 1.265 1.931 4.83 1.44 6.248 4.046 1.286 2.36.984 5.481-.508 7.669-.626.919-2.387 1.68-2.8 2.513-.85 1.716-.137 1.516.358 3.27.947 3.354.189 4.62-2.396 6.915-1.496 1.327-1.808.946-1.908 2.963-.077 1.557 1.248 3 1.002 4.742-.4 2.83-3.184 4.609-4.022 7.391-1.08 3.581-4.029 5.54-6.252 8.488 2.628 1.586 6.082 2.9 7.357 5.876 1.392 3.247 1.134 7.868.148 11.161-.947 3.157-2.973 5.171-4.92 7.676-2.372 3.05-2.17 5.469-2.317 9.191-.31 7.87-3.687 15.016-11.405 17.516-3.062.991-5.827 2.45-8.934 3.374-3.798 1.132-6.578 1.224-10.519 1-2.465-.139-5.349-.67-6.206 1.94-.43 1.305-.273 6.385.313 7.544 1 1.985 3.838 1.721 5.548 3.438 3.083 3.095 2.211 5.733 7.414 5.805 16.856.235 33.66-1.066 50.515.154 8.312.602 16.447 2.04 24.792 2.462 9.184.464 18.393.619 27.57 1.177 8.665.526 17.142 1.661 25.85 1.212 8.135-.419 15.947-.977 24.048-1.875 2.77-.308 7.064.134 9.022-1.985 1.085-1.175 1.335-3.19 2.418-4.483 1-1.194 2.358-2.058 3.586-2.99 2.977-2.26 5.784-4.292 9.712-4.218 3.441.066 6.185 2.552 8.99 4.38 3.256 2.123 4.604 3.098 8.463 2.275 3.848-.82 7.377-2.339 11.13-3.457 7.92-2.357 15.339-5.747 22.552-9.768 3.553-1.981 6.056-3.313 10.148-2.12 4.194 1.222 5.387 2.425 5.438 6.781.015 1.383-.512 3.841 1.078 4.64 1.153.58 3.693-1.038 4.672-1.463 4.328-1.878 8.576-3.834 13.1-5.205 4.129-1.252 8.31-2.362 12.454-3.557 3.469-1 8.093-2.45 11.548-.587 8.73 4.703-4.115 16.654-7.45 20.63 4.159-.997 13.087-.428 15.274 4.036 2.59 5.284-2.6 10.523-5.53 14.364 4.102 1.868 12.386.261 13.542 6.144.971 4.939-4.166 9.913-7.514 12.802-8.667 7.478-22.108 12.713-33.553 12.812-2.905.025-5.735-.541-8.623-.68-2.114-.1-4.021.632-6.075.635-2.894.003-5.461-.566-8.447-.157-3.441.47-6.854 1.048-10.31 1.437-3.208.36-6.417.69-9.635.94-2.12.167-5.319-.301-7.289.41-2.55.922-1.806 1.843-2.013 4.295-.256 3.012-1.781 5.734-4 7.742-8.06 7.296-21.787 5.544-25.838-5.165-.986-2.604.323-3.965-.049-6.313-.373-2.363-2.571-2.283-4.723-2.442-6.55-.485-13.185-.53-19.763-.984-12.733-.877-25.848-2.663-38.575-2.36-13.283.317-26.65-.482-39.918-1.203-6.19-.337-12.605-2.508-18.698-2.04-6.473.497-13.347-.897-19.854-1.573-14.546-1.512-30.782-1.95-44.223-7.994 1.062 14.571 2.828 29.364-8.996 40.231-4.954 4.554-11.18 9.77-17.675 11.711a333.794 333.794 0 01-24.921 6.434c-15.845 3.453-31.588 11.717-45.883 19.14-6.723 3.492-14.613 4.853-21.903 6.81-3.471.933-7.383 2.162-11.024 2.032-3.588-.128-6.078-2.566-9.245-4.022-3.03 7.14-7.121 13.675-10.17 20.72-1.513 3.496-2.705 7.212-4.467 10.593-1.344 2.577-3.518 3.962-3.723 6.95-.5 7.254.827 14.821.471 22.157-.388 8.001-1.631 16.121-2.364 24.132-1.585 17.31-.845 34.74-2.131 52.075-1.175 15.836-.441 31.55-2.198 47.4-.487 4.4-1.028 8.794-1.38 13.208-.23 2.896-1.834 9.564-.324 12.16.66 1.135 2.246 1.257 3.307 1.825 1.655.888 3.16 2.246 4.397 3.659 2.611 2.983 3.235 6.536 3.83 10.337 3.38-1.818 17.55-11.148 15.427-.93-.657 3.17-3.532 4.877-5.8 6.9-1.663 1.481-3.249 3.053-5.018 4.411-1.193.916-3.721 2.052-4.297 3.548-1.028 2.674 4.284 6.492 6.79 6.462 3.522-.04 7.917-5.324 10.9-7.008 7.92-4.473 7.205 5.186 4.219 9.384-2.253 3.168-.348 2.924 2.75 3.567 4.844 1.006 9.317 1.864 14.24 2.478 9.408 1.174 18.667-.342 28.004 1.83 9.296 2.165 14.823 7.965 16.177 17.53.716 5.053 1.388 2.516 5.63 3.701 3.92 1.096 6.132 5.576 8.387 8.614 4.503 6.062 12.92 21.333 6.024 28.48-2.928 3.035-10.038 2.264-13.892 2.783-2.48.332-5.465 1.489-7.967.89-2.378-.569-3.96-2.697-5.676-4.257-.023 9.594-.08 17.928-7.683 24.855-6.134 5.59-14.337 8.157-22.563 7.59-8.061-.553-16.339-3.833-21.447-10.313-2.696-3.42-4.615-7.613-5.31-11.921-.321-1.985-.413-4.072-.103-6.066.185-1.185 1.312-3.334.596-4.478-1.254-2.004-7.4-.338-9.428-.134-5.355.541-10.695 1.216-16.03 1.93-4.41.592-8.91 1.219-13.334.383-3.803-.718-5.257-1.128-4.572 3.372 1.375 9.054-.916 17.085-8.361 22.652-7.45 5.57-14.327 6.673-23.438 5.207-8.325-1.34-15.94-9.201-18.365-17.022-3.228-10.409.1-19.89 7.874-26.997-4.715-2.389-7.842-3.8-9.505-9.316-1.739-5.767-.114-11.832.708-17.615 1.766-12.419 1.078-24.506 1.685-36.965.266-5.497 1.402-11.093 1.42-16.576.01-3.126-.163-3.014-3.381-3.039-1.996-.015-4.112.124-4.952-2.202-2.03-5.61 7.49-5.137 9.884-7.371 2.855-2.663.883-13.17.8-16.867-.271-12.01.916-23.741 1.149-35.72.106-5.41.435-11.1-.012-16.491-.18-2.152-1.41-3.891-1.328-6.033.104-2.742.633-5.305.491-8.159-1.241-25.1-1.514-50.664 1.707-75.599.192-1.493 1.247-4.854.683-6.354-.855-2.271-3.57-1.466-5.467-2.298-5.307-2.326-6.619-6.019-6.908-11.426-.172-3.204-.342-6.41-.508-9.614-.086-1.646-.17-3.293-.259-4.94-.104-1.908.681-4.054.636-5.657-.015-.514-.237-1.283-.241-1.587-.615-.302-.854-.745-.72-1.331a3.85 3.85 0 01.264-1.61c.032.312-.37-1.767-.404-1.584.056-.284 1.096-1.97.992-2.175-.486-.955-1.516.205-1.86-1.574-.287-1.494.685-3.25.36-4.999-.873-4.668-.05-8.856.61-13.58"/><path d="M171.657 439c58.959.136 118.056 1.59 176.866 3.33 6.481.193 12.983.741 19.467 1.019 1.128.047 4.838-.424 5.674.784 1.36 1.97-1.754 3.975-3.22 4.874-5.049 3.09-11.73 2.55-17.452 2.745-7.893.268-15.79.298-23.687.188-27.437-.38-54.887-2.466-82.266-4.088-16.865-1-33.783-1.61-50.672-2.108-8.336-.245-16.68-.38-25.015-.656-2.25-.074-6.352.628-6.352-2.33 0-3.083 4.498-3.591 6.657-3.758M242.168 472.163c41.72 1.798 83.47 3.03 125.193 4.695 2.705.109 8.463-.69 9.478 2.63 1.057 3.45-3.342 6.912-6.253 7.807-3.78 1.162-8.593.51-12.538.622-5.31.15-10.354.103-15.645-.255-20.161-1.365-40.289-3.137-60.455-4.505-11.416-.775-22.824-1.692-34.223-2.676-3.04-.262-12.068.552-14.197-1.925-1.312-1.526.078-3.885 1.374-5.062 2.135-1.937 4.59-1.498 7.266-1.33M365.268 517.773c-13.558.73-27.267-.345-40.594-2.583-1.816-.306-6.013-.34-7.173-2.027-1.773-2.575 1.558-4.821 3.798-5.049 6.208-.63 13.589 1.536 19.853 1.918 6.552.4 13.194-.299 19.762-.35 3.755-.03 7.51-.057 11.265-.07 2.202-.006 5.37-.563 7.544-.063 6.086 1.398-1.654 6.522-4.364 7.113-.94.205-10.06 1.557-10.091 1.111M661.132 192.52c.09-1.59-.323-5.611 1.645-6.365 3.84-1.47 3.586 7.955 5.082 9.282 5.492 4.865 4.012-13.88 9.245-7.834 4.252 4.912.837 16.748-5.145 18.956-4.406 1.626-7.405-1.503-9.117-5.127-.04-.084-2.42-8.95-1.71-8.911M666.105 171.06c2.65-.504 6.1 2.249 4.477 4.915-1.187 1.95-9.23 4.973-11.41 5.024-2.675.063-2.448-2.065-1.593-4.231 1.336-3.391 4.902-5.746 8.526-5.708M183 128.352c.815-3.392 2.016-7.41 6.03-4.14 2.697 2.196 4.668 7.613 4.939 11 .324 4.058-1.903 6.121-5.503 3.845-3.653-2.309-5.046-6.566-5.466-10.705M96 171.003c-1.306 9.07-9.35.629-8.988-4.904.188-2.88 1.837-5.24 4.969-3.512 2.804 1.547 3.78 5.615 4.019 8.416M554 701.089c.598-2.252.73-6.887 3.334-7.875 3.853-1.46 5.525 4.943 5.653 7.52.14 2.794-.836 8.73-4.836 8.237-3.28-.404-3.496-5.436-4.151-7.882M457 704.683c.737-2.757.88-7.737 4.192-8.571 3.646-.92 4.763 4.052 4.807 6.863.042 2.626-1.428 9.428-5.145 9.006-2.86-.324-3.242-5.071-3.854-7.298"/></g></g></svg>