<svg width="1024" height="768" xmlns="http://www.w3.org/2000/svg"><g fill="none" fill-rule="evenodd"><path d="M259.983 332.192c32.914 8.777 65.471 19.097 98.11 28.838 3.671 1.096 3.661 1.28 6.945-.698 8.932-5.38 18.034-10.49 27.241-15.386 27.77-14.766 56.315-26.581 86.891-34.098a660.978 660.978 0 0165.813-12.656c-2.248 6.917-6.61 14.128-12 19-4.179 3.776-9.876 5.84-15.04 7.865-15.352 6.021-31.425 10.232-46.513 16.925-15.389 6.827-25.11 21.019-28.033 37.485-.547 3.08-.514 3.549 2.014 5.103 2.833 1.743 6.277 2.763 9.401 3.827 25.083 8.543 51.533 13.804 77.47 18.989 13.768 2.753 27.587 5.311 41.477 7.373 8.62 1.28 17.728 2.997 26.483 2.486 37.52-2.189 59.757-46.847 70.741-77.053 33.901 18.364 72.793 30.101 110.764 35.764 46.044 6.867 104.044 7.244 140.438-26.685 17.334-16.16 27.978-38.041 35.798-60.079-25.508-2.187-50.903-6.013-76.2-9.883-4.418-.676-8.833-1.364-13.247-2.064-1.775-.282-4.503-1.279-6.319-1.014-2.757.4-6.317 3.39-8.758 4.715-18.719 10.159-38.07 19.475-58.152 26.624-10.76 3.83-21.932 7.218-33.34 8.352-12.239 1.218-24.77-1.285-36.59-4.273-29.649-7.496-60.666-20.179-85.394-38.457-6.015 8.577-16.873 14.387-27.227 10.248-11.339-4.533-17.643-16.421-23.719-26.198-2.212-3.56-6.384-3.585-10.5-4.635-11.497-2.933-23.135-5.324-34.83-7.308-38.406-6.515-77.896-8.725-116.658-4.231-37.824 4.386-75.062 16.587-108.413 34.926-14.508 7.978-28.634 17.222-40.689 28.643-7.614 7.213-16.51 16.653-17.964 27.555" fill="#FF5678"/><path d="M374.245 84.124c11.87 3.974 22.58 9.813 33.042 16.612 5.098 3.313 10.198 7.19 15.832 9.536 5.002 2.081 10.462 3.028 15.599 4.738 23.015 7.662 47.988 9.203 71.392 1.837 23.857-7.509 44.107-23.635 68.779-28.693 24.062-4.933 48.532-3.842 71.637 5.091 11.223 4.34 20.687 11.63 30.264 18.73 9.178 6.804 18.807 13.515 25.91 22.598 6.979 8.92 11.007 20.02 14.08 30.814a65.022 65.022 0 012.464 19.128c-.088 4.53-2.484 8.906-1.075 13.285 1.977 6.141 4.855 10.655 4.113 17.492-.6 5.506-3.102 10.251-7.014 14.116-4.014 3.965-8.817 6.688-14.168 8.408-4.047 1.301-5.326.972-7.68-2.556-6.584 5.962-11.288 13.496-19.54 17.434-4.095 1.956-8.29 2.898-12.803 3.185-3.42.217-6.555.316-9.443 2.395-3.031 2.183-14.111 11.92-9.872 15.75 2.473 2.234 8.24 2.677 11.386 3.961a76.736 76.736 0 0112.627 6.578c14.61 9.435 29.153 15.321 46.048 19.544 17.54 4.384 35.225 6.756 53.32 6.821 16.439.06 33.66-1.189 48.904-7.844 7.317-3.194 14.379-7.43 20.364-12.734 5.973-5.292 9.639-12.65 15.776-17.576 3.972-3.188.298-8.096-.93-12.472-2.495-8.902-4.405-19.036-5.163-28.24-.736-8.943-1.966-17.859-3.555-26.707-1.683-9.38-5.191-18.11-7.67-27.272-1.826-6.755-3.664-14.683-1.546-21.58 1.05-3.423 3.38-7.039 6.693-8.672 2.962-1.46 4.788-.065 7.442-.222 7.787-.458 13.799 2.717 19.675 7.912 3.175 2.807 6.853 5.265 9.877 8.205 2.353 2.286 2.91 5.975 5.418 8.002 4.117-10.507 8.43-23.864 22.394-17.855 11.047 4.755 12.468 22.621 17.827 31.935 3.013-2.48 3.35-7.367 4.523-10.824 1.213-3.578 3.256-7.357 6.136-9.888 6.292-5.528 13.967-3.308 18.298 3.314 2.315 3.54.937 7.604 3.235 11.1 2.28 3.467 1.568 7.518 2.499 11.556 1.18 5.118 2.606 10.161 3.557 15.337.44 2.393 1.079 5.091.968 7.547-.047 1.018-.871 2.77-.617 3.774.33 1.315 1.893 2.498 2.465 3.8.77 1.747.485 3.018.572 4.821.159 3.246 1.027 5.91 1.959 9.115 2.348 8.075 1.753 18.296-1.724 25.943-1.803 3.964-3.067 6.847-3.603 11.09-.346 2.738-2.41 5.233-2.286 8.177.173 4.097 11.133 10.415 2.48 13.133-3.613 1.135-4.387.542-5.374 4.67-.98 4.098-2.09 8.085-3.697 11.99-3.408 8.284-8.45 15.702-13.205 23.247-5.148 8.167-10.553 16.06-18.16 22.15-7.053 5.646-15.137 10.24-23.188 14.305-16.962 8.564-35.835 13.345-54.88 12.882-20.308-.495-40.907 1.424-61.032-2.025-20.606-3.532-40.71-9.378-61.231-13.299-9.22-1.762-17.812-3.683-26.2-8.033-8.51-4.412-17-8.918-24.786-14.544-5.364 12.855-8.252 26.255-15.942 38.081-6.712 10.321-14.808 20.025-24.717 27.426-9.68 7.231-22.326 12.64-34.514 13.104-3.72.141-9.437-1.49-12.105 1.311-1.336 1.402-1.472 4.188-2.002 5.988-.901 3.064-2.208 6.053-2.933 9.166-1.1 4.72 3.332 4.793 7.216 6.71 5.208 2.57 10.294 5.376 15.329 8.267 5.144 2.955 10.049 6.354 15.2 9.263 4.425 2.497 8.993 4.424 13.252 7.253 10.065 6.688 21.093 11.148 31.9 16.441 11.572 5.668 22.825 11.991 34.196 18.045 22.522 11.993 45.113 24.44 66.377 38.574 9.926 6.598 19.468 13.468 29.647 19.707 9.494 5.821 20.332 12.636 26.376 22.186 4.713 7.448 11.485 10.976 19.278 15.035 4.593 2.392 7.434 2.845 11.164-1.07 3.66-3.842 7.199-7.663 11.062-11.329 15.837-15.029 29.386-31.48 42.593-48.785 9.805-12.848 23.249-28.274 41.257-25.459 5.399.845 8.984 3.357 12.977 6.892 2.709 2.4 7.604 3.968 9.41 7.074 1.043 1.794 1.48 4.093 2.53 5.975 1.1 1.968 2.466 3.887 3.2 6.04 1.243 3.641-1.436 9.427 1.236 12.393 1.956 2.172.137 7.287-.397 9.741-.986 4.54-1.824 9.147-3.384 13.531-1.23 3.45-2.436 8.18-5.024 10.872-2.31 2.403-5.017 2.167-4.414 6.328-2.5-.832-4.647 5.151-5.352 6.66-1.894 4.053-3.962 7.384-7.012 10.744-7.711 8.493-16.54 14.24-26.54 19.64-3.648 1.968-11.213 4.708-12.061 9.26-.813 4.372 1.682 7.922-.072 12.592-3.647 9.715-11.846 19.958-18.538 27.796-6.02 7.05-11.857 11.762-21.51 10.106-8.55-1.465-17.01-5.829-24.126-10.668-8.57-5.829-17.65-10.212-26.906-14.839-4.555-2.276-9.113-4.378-13.061-7.649-3.67-3.04-6.853-6.464-11.106-8.722-3.03-1.609-6.987-2.748-8.25-6.329-1.377-3.905 1.138-6.342 3.278-9.14 1.437-1.88 2.23-2.17.99-3.68-.99-1.204-3.71-2.225-5.075-2.958-3.305-1.774-6.608-3.325-10.141-1.376-3.941 2.174-6.635 6.67-9.588 9.936-3.538 3.912-7.513 7.478-11.393 11.046-7.697 7.08-16.131 13.422-23.65 20.667-1.72 1.656-5.105 5.856-7.942 5.061-2.095-.586-.993-1.83-2.073-2.788-1.162-1.03-2.15-1.043-3.637-2.158-3.701-2.77-4.831-8.086-8.713-10.955-3.99-2.949-8.916-5.069-13.236-7.496-19.718-11.08-38.926-23.03-56.95-36.726-9.036-6.867-17.572-14.319-26.326-21.533-4.12-3.395-8.3-7.116-12.881-9.875-4.18-2.516-8.824-4.274-13.082-6.688-9.122-5.17-18.881-9.129-27.911-14.467-4.246-2.51-7.393-5.882-11.342-8.678-3.458-2.447-6.337-3.897-8.91-7.46-1.223 2.691-4.578-.82-5.79-1.645-.953-.65-2.175-1.11-3.06-1.853-.89-.748-1.427-2.413-2.103-2.933-1.496-1.152-3.234-.889-5.243-1.61-2.685-.963-6.226-3.529-8.29-5.489-1.43-1.355.902-.289-1.512-1.95-1.123-.775-3.05-.983-4.312-1.803-2.996-1.944-5.747-4.44-8.608-6.587-5.183-3.885-11.886-7.422-14.828-13.48-15.803 12.976-31.064 27.06-49.211 36.77-17.528 9.38-37.802 13.64-56.517 20.111-19.257 6.658-38.706 13.351-58.286 18.995-9.52 2.743-19.335 4.713-29.064 6.567-9.98 1.902-19.822 1.335-29.836 2.41-4.923.528-9.852.357-14.773.834-4.532.44-8.927 1.59-13.427 2.19-3.967.527-8.441.081-12.256 1.16-2.8.791-6.496 3.597-8.546-.054-1.502 2.25-1.98 1.187-3.935 1.044-2.086-.154-2.714-.064-4.756.327-3.321.634-6.986.88-9.805-1.73-1.29 4.675-13.79.424-15.28-2.666-1.68 4.95-16.862.68-17.082-3.966-.185-3.932 2.426-9.586 3.504-13.28 1.759-6.029 3.939-11.926 6.217-17.775 2.41-6.185 4.88-12.35 7.36-18.509 1.089-2.706 2.118-5.455 3.36-8.095.61-1.295 2.198-3.227 2.172-4.723-.077-4.37-7.91-4.68-11.222-5.77-2.505-.826-5.048-1.696-7.427-2.839-1.727-.83-3.8-2.736-5.71-3-4.38-.606-3.387 4.35-3.863 7.395-.611 3.918-2.77 5.933-6.92 5.962-4.848.033-18.673-8.304-21.281-1.949-1.223 2.977-.891 8.687-1.34 11.886-.735 5.244-.443 10.46.275 15.688 1.179 8.61 5.07 19.501.69 27.754-8.745 16.483-39.07 6.55-48.748-3.825-14.254-15.279-13.838-38.177-7.008-56.676 3.32-8.997 8.132-18.638 14.42-25.955 2.795-3.25 8.11-6.388 9.032-10.855.766-3.705-2.114-7.119-1.508-10.916.72-4.507 4.533-7.24 7.8-9.974 3.403-2.845 6.713-5.946 10.59-8.15 8.97-5.097 19.145-2.02 28.064 1.723 9.753 4.093 19.096 9.582 27.808 15.557 4.313 2.957 7.97 5.618 13.084 7.05a710.908 710.908 0 0011.82 3.205c3.718.972 6.85 1.695 9.46-1.518 2.87-3.536 3.822-4.965 8.79-5.117 5.293-.16 10.589.134 15.876.336 1.117.043 3.653-.305 4.534.626.785.83-.352 2.56.379 3.085 1.154.828 7.71-8.433 8.27-.936.359-3.639 4.178-1.877 6.307-1.398.775.174 1.548.38 2.315.55.832-.278 1.524-.065 2.07.637.876.187 1.468-.147 1.777-1 9.252-.134 18.585.45 27.86.4 10.726-.057 21.513-.162 32.138-1.715 3.936-.576 7.874-1.37 11.817-1.853 1.807-.22 3.323-.028 5.086.09a3.999 3.999 0 011.75.8c.269-.53.67-.932 1.202-1.205 6.748-1.976 13.69-3.316 20.547-5.04 4.8-1.208 8.824-2.14 13.602-2.48l.906-.058 1.92.566a3.282 3.282 0 011.37-1.602c1.559-.638 2.882-.885 4.56-1.056 6.684-.682 13.24-.612 19.558-1.589 3.327-.515 15.483-2.4 17.725.9 1.719-4.018 14.097 1.451 17.722-.922-5.625-7.672-8.076-15.88-9.668-25.158-1.735-10.106-2.825-20.737-.26-30.803 2.365-9.275 7.516-18.795 14.556-25.32 6.808-6.31 8.405-13.86 12.948-21.648 9.464-16.228 25.057-26.142 42.428-32.129 9.46-3.26 19.077-5.973 28.619-8.969 7.75-2.433 14.239-5.915 18.159-13.358-33 0-64.577 10.235-94.793 22.65a1681.464 1681.464 0 00-44.841 19.21c-7.557 3.363-15.03 6.96-22.08 11.303l-1.949 1.2c-2.272 1.406-4.53 2.845-6.648 4.465-.505.387-3.262 1.995-3.424 2.532-1.26 4.176 5.68 10.892 7.483 14.474 2.453 4.878 4.856 10.582 5.158 16.081.359 6.577-3.835 9.868-10.298 8.518-7.904-1.65-13.888-8.238-20.164-12.818-1.4 4.203.408 9.038 1.388 13.134 1.344 5.618 2.68 11.321 3.636 17.021 1.35 8.057.39 17.15-7.625 21.371-20.427 10.757-30.841-17.625-34.99-31.803-2.803 2.022-2.476 9.431-2.992 12.53-.991 5.96-2.128 12.36-4.775 17.834-2.028 4.192-5.474 9.087-10.546 9.54-5.501.49-9.935-4.24-12.4-8.606-4.257-7.54-5.261-15.947-5.597-24.399-.075-1.862.465-19.103-1.417-19.594-5.534 9.915-8.621 20.94-15.122 30.396-5.697 8.287-14.27 13.907-21.973 4.326-11.93-14.838-8.112-36.28-3.225-52.975 2.842-9.708 6.71-18.975 11.925-27.656 2.162-3.6 4.779-6.303 7.464-9.477 2.214-2.618 3.066-3.847 2.11-6.864-.555-1.759-1.081-1.823-.585-3.768.357-1.395 1.427-3.112 2.038-4.408 1.748-3.703 3.583-7.357 5.724-10.85 4.577-7.464 10.809-13.673 17.358-19.43l.658-.577-.031.029c-.422.388 2.642-1.946 2.579-1.952l-.017.007.08-.048c1.131-.74 1.561-3.168 2.847-1l.094.162c.2-3.19 2.887-5.003 5.19-6.79.859-.666 1.717-1.59 2.759-1.989.725-.277 2.41-.005 2.936-.392 1.02-.75 1.52-2.239 2.49-3.124.972-.885 2.314-1.299 3.42-1.974 2.71-1.655 5.202-3.68 7.847-5.445 5.618-3.748 11.484-7.125 17.494-10.202 12.644-6.475 26.064-11.685 39.494-16.28 11.836-4.05 24.104-7.802 36.26-10.752 12.479-3.029 25.593-2.275 38.337-3.52 25.974-2.539 53.39-2.027 79.353.507 12.724 1.242 25.376 3.184 37.925 5.612 12.17 2.354 24.83 5.033 35.64 11.397 2.305 1.356 6.467 5.705 9.168 5.545 2.274-.134 4.247-4.329 5.315-5.982 2.539-3.926 5.73-7.534 7.887-11.67 2.655-5.096 4.015-10.823 6.013-16.184-9.263 1.277-18.992 2.105-27.883-1.444-8.051-3.214-13.477-9.637-19.491-15.568-6.335-6.247-13.12-10.48-22.182-11.054-10.28-.652-19.551 3.037-29.007 6.475-19.978 7.264-39.952 15.245-60.512 20.724-10.048 2.678-20.38 4.792-30.791 5.268-5.301.241-10.666.003-15.91.982-2.173.405-2.825.744-4.544-.216.233.131-2.188-3.895-2.668-2.328-.463 1.51.294 2.69-1.03 3.828-1.553 1.336-4.925.686-6.725.532-2.696-.23-4.845-1.145-7.441-1.754-4.013-.94-8.51-.32-12.6-.835-1.9-.239-3.278-.718-4.987-1.244-1.791-.55-.637-.48-2.482-.716-1.634-.208-2.56.007-4.537-.636-1.77-.575-3.404-.97-5.213-1.393-1.657-.385-2.994-1.078-4.535-1.529 1.936.567-2.487-1.186-2.295-.72l.017.03-.016-.015c-.48-.541-1.036-1.629-1.987-1.797l-.195-.022c3.128 4.802-10.623-.272-11.534-.549-7.6-2.312-15.383-7.56-23.324-8.043-7.752-.472-15.271 4.811-21.512 8.73a4235.462 4235.462 0 00-22.548 14.282c-16.596 10.565-34.567 20.015-53.192 26.436-9.06 3.123-18.342 5.628-27.531 8.333-4.143 1.22-8.667 1.72-12.626 3.47-2.676 1.181-6.533 4.718-9.237 1.585-1.09 2.741-6.377 2.601-8.62 2.686-.344.013.21.67-.58.615-1.161-.082-1.472-1.21-2.387-1.446-1.86-.478-2.052.238-3.894.95-2.393.922-1.937.123-4.053-.095-1.211-.125-2.494.54-3.707.578-.493.016-1.14-.805-1.853-.793-.686.013-2.294.832-3.202.968-2.274.342-4.95.115-7.243.013-3.281-.147-36.143-3.077-33.785-9.947-3.954 3.648-13.126-2.315-17.248-4.209-1.535-.705-1.634-1.39-2.5-2.185.24-.955-.17-1.38-1.226-1.279-.226-.026-.453-.05-.678-.077-1.811-.923-2.456-.902-3.898-2.52-1.923-2.162-5.463-4.116-6.46-6.932-.267-.756.017-2.06-.255-2.655-.348-.762-1.264-.674-1.476-1.292-.074-.216.28-1.633.254-1.656-1.663-1.392-4.007-.732-5.934-2.403-5.325-4.62-8.538-13.89-10.07-20.472-4.007-17.215-5.375-34.525 2.402-50.808 3.78-7.917 8.408-15.447 13.518-22.57 1.414-1.97 2.895-4.57 4.699-6.234.81-.747 1.87-.9 2.265-1.347 2.108-2.385 3.2-5.452 6.026-7.773 3.145-2.585 6.246-5.242 9.72-7.38 3.188-1.963 7.158-3.23 10.08-5.066.803-.504.527-1.299 1.398-1.898.923-.635 2.117-.684 3.163-.993 1.24-.365 2.78-1.038 4.068-1.149 2.405-.209 3.212.48 5.026 2.188 0-6.573 12.104-7.488 17-7.5 2.259-.006 13.61-1.019 13.393 2.441 2.586-3.418 10.448-.875 13.868.15 4.104 1.23 6.7 4.236 9.333 7.448l1.466-3.055c.747.522 3.273 1.39 2.459 2.767 2.957-2.609 1.29-.46 3.823.004 1.113.204 2.072-.207 3.243-.346.097 1.546-.574 2.047-1.531 3.125 2.294.043 11.11-.873 4.585 2.01.872 1.56 5.01 1.012 6.465 1.222.77.111 2.692.151 3.152.715.303.371-.23 1.397-.162 1.488.622.843-.67 1.276.606 1.52.314.06 1.307-.937 1.532-.933 1.655.026.494-.303 2.249-.05.619.09 1.807.795 2.602.958 11.986 2.453 26.637-6.775 35.344-13.919 10.406-8.536 19.464-17.66 31.974-23.2 12.102-5.36 25.584-9.586 38.446-12.65 23.785-5.669 47.405-5.768 70.806 2.067zm302.768 546.202l1.155.614 1.645-.833c-1.572-.746-1.68-1.073-2.8.22zm127.73-33.998c-2.882 1.82-5.357 5.93-7.881 8.381-3.543 3.442-7.248 6.714-10.946 9.987 4.264 1.48 10.449 7.465 15.062 4.753 2.285-1.343 3.728-5.293 5.174-7.388 2.238-3.244 4.854-6.289 7.484-9.218 2.71-3.019-5.87-8.423-8.892-6.515zM534.45 534.193c1.143.48 3.645 3.237 2.484 4.203-1.176-1.36-2.755-2.343-2.484-4.203zm-366.955-43.646c-2.087 1.803-4.44 5.568-5.893 7.94-1.637 2.67-1.695 4.016.805 5.798 4.83 3.445 11.849 4.456 17.452 6.063 2.99.858 6.689 3.016 9.23.288 2.516-2.7 2.522-7.73 3.654-11.078.917-2.712 1.898-5.4 2.85-8.1-5.281.531-10.592.568-15.784-.614-3.77-.857-8.981-3.178-12.314-.297zm91.217-144.366c-4.264 5.791-8.068 11.925-11.422 18.286-5.55 10.53-9.864 21.708-12.597 33.298-1.937 8.211-4.767 19.755-.344 27.632 9.635 17.16 29.19-32.376 32.176-37.557 1.777-3.085 4.535-6.394 7.59-2.428 2.506 3.255 1.69 8.472 1.806 12.305.346 11.392-1.244 25.035 3.31 35.754 1.496 3.518 5.456 8.6 9.926 7.001 4.007-1.434 6.009-8.335 7.248-11.89 3.919-11.247 6.699-24.994 6.826-36.895.025-2.39-2.12-18.197 3.41-14.7 3.619 2.286 3.47 13.383 3.822 17.014 1.375 14.186 4.177 38.277 21.778 40.664 3.875.526 8.26-.39 10.53-3.875 2.82-4.329-.016-10.15-1.004-14.7-1.703-7.844-3.632-15.93-3.802-24.005-.104-4.95.383-13.179 7.336-11.269 8.379 2.301 11.923 13.262 21.333 13.63.009-2.207-1.212-4.005-2.247-5.848-3.348-5.957-9.446-11.058-11.51-17.648-.677-2.162.027-5.413-1.312-7.215-1.265-1.7-4.12-2.137-6.03-2.522-12.708-2.567-25.202-6.042-37.852-9-13.523-3.163-26.061-6.58-38.725-12.149-5.706-2.509-7.01 1.722-10.246 6.117zm303.215 88.852c1.866.886 3.716 1.81 5.604 2.647 1.642.731 2.286.15 2.94-1.385-1.185-.245-7.855-2.615-8.544-1.262zm-80.078-192.169c-24.182.71-47.824 1.018-71.658 5.61-11.4 2.195-22.573 4.74-33.752 7.857-4.722 1.317-8.885 2.69-13.003 5.317-1.531.976-5.584 4.041-6.206.538-2.036 1.951-6.006 7.907-9.261 4.598-.571 2.392-2.35 2.318-4.086 3.131-.611.286-.944 1.26-1.73 1.612-.198.088-.264-1.279-.552-1.302-1.037-.082-1.855 2.102-2.451 2.66-1.435 1.334-2.78 1.945-4.681 2.43-.826.276-1.673.453-2.54.531-1.021.42-1.633.118-1.835-.903-1.41.023-2.44.535-3.916 1.203 3.185.73-2.173 1.533-2.885 1.614-.088 2.38 1.946.872 3.26 1.365-.608 2.987-6.144 5.267-8.422 6.732l-1.168-2.483a6.59 6.59 0 00-1.467 2.103c-.235.96-.917 1.292-2.045.996-1.056.838-1.214.45-1.863 1.63-.671 1.223 1.313 3.603-1.57 2.578 0 4.062-3.772 1.6-3.111.546-2.854-.276-4.072 4.948-3.752 6.986-1.365-1.352-2.202-1.181-3.573-.125l-.12.095.07-.051c1.056-.714-.03 2.204.065 2.17l.013-.012c-2.898 3.82-2.625-.457-1.728-2.71-1.964.787-2.336 2.917-3.912 4.12-1.403 1.07-1.798.572-3.005.732-1.86.246-1.298-1.283-2.113.765-.345.868.178 2.423.178 3.37.806-1.102.5-2.845 1.957-3.476-.435 3.193-6.645 14.163-9.256 7.698-2.54 1.765.259 3.7-1.408 6.063-1.24-1.196-1.537-3.099-1.398-4.729-.78 1.036-.754 2.345-1.364 3.393-.636 1.093-1.302 1.181-1.61 2.37-.464 1.803 1.125.92.286 2.833-.421.961-2.393 1.802-3.17 2.343-2.717 1.894-5.465 4.088-2.827 7.236 4.13 4.927 15.016 5.491 20.862 6.32 12.466 1.765 24.615 4.698 36.897 7.415 7.396 1.637 14.64 3.46 21.894 5.642 5.209 1.566 12.404 2.54 15.153 7.933 14.52-13.882 33.882-21.125 51.802-29.45 19.41-9.018 39.454-17.39 60.016-23.417 18.23-5.344 36.929-7.372 55.763-9.214 4.963-.486 12.616-1.729 17.039 1.32 2.73 1.882 2.857 4.732.766 7.25-1.132 1.364-2.354 1.01-3.046 3.442-.536 1.88-.242 3.304.249 5.165-1.255-.983-3.504-.397-4.148-2.133l-.063-.194-.06.206c-.858 3.388 5.133 3.856 3.296 7.918l-.12.248c-.634 1.241-.636-2.74-1.195-2.769-1.52-.079-2.765 3.471-3.39 4.455 2.827 0 1.75 2.056.234 3.094-1.083.741-2.91.956-4.167 1.568-2.51 1.224-4.715 3.018-7.29 4.185-2.817 1.28-5.295 1.358-8.094 2.117-.433.117-2.152.761-2.326.776-.237.021-.291.747-.493.775-1.79.253-3.141-1.408-4.873-.73-.663.26-.32 1.878-.894 2.245-.635.405-2.434-.112-3.202-.155-1.848-.106-2.132-.35-3.598.507-2.52 1.472-3.803 3.462-7.2 3.823-2.656.283-4.368-.219-6.896.777-2.558 1.007-4.981 1.23-7.474 1.905-.316.086-.4 1.167-.657 1.242-.825.244-1.811.058-2.6.3-1.81.557-3.278 1.053-4.96 2.052-7.387 4.391-15.516 10.982-21.31 17.31-2.644 2.89-10.021 10.166-7.615 14.348 1.543 2.683 6.87 3.987 9.528 5.12 3.963 1.691 8.06 2.922 12.067 4.488 4.98 1.948 9.5 4.974 14.58 6.67 4.905 1.637 10.152 1.96 15.218 2.834 21.918 3.78 43.39 9.86 65.322 13.63 12.027 2.067 24.306 4.535 36.522 2.586 10.766-1.718 21.075-6.48 29.674-13.133 15.648-12.106 26.552-29.295 32.036-48.204 1.132-3.906 1.37-13.677 5.024-16.067 3.044-1.99 4.64 2.396 6.616 4.13 3.209 2.814 7.912 3.903 11.773 5.51 9.558 3.974 18.242 8.17 28.343 10.86 10.242 2.724 20.626 4.861 30.98 7.108 20.988 4.555 41.022 8.863 62.594 8.933 21.347.068 42.775.871 63.885-3.06 18.466-3.44 37.039-12.835 50.843-25.59 6.97-6.442 12.347-14.577 17.828-22.266 2.94-4.124 5.673-8.399 7.969-12.918 1.688-3.32 4.59-8.13 4.887-11.896.264-3.365-1.703-2.887-5.065-3.23-5.171-.529-10.364-.864-15.538-1.396-10.436-1.07-20.836-2.435-31.267-3.544-10.645-1.132-21.22-2.667-31.561-5.487-3.092-.843-5.377-1.906-7.56 1.098-1.407 1.934-1.381 6.347-4.318 3.107-5.646 7.13-13.902 11.398-21.617 15.872-8.347 4.841-16.46 10.168-25.308 14.077-19.062 8.424-40.068 7.756-60.3 5.057-20.553-2.743-41.383-6.28-60.698-14.103-8.86-3.587-16.472-9.045-24.417-14.253-3.742-2.453-7.623-4.47-11.596-6.515-4.48-2.304-7.217-5.72-11.267-8.383-2.731 8.89-13.231 11.945-21.524 12.342-10.355.496-18.726-4.448-25.006-12.478-5.214-6.666-6.227-16.637-14.297-20.286-9.207-4.162-20-5.816-29.853-7.752-23.142-4.545-47.606-7.264-71.188-6.57zm122.76 68.341c2.602 1.164 10.17 9.87 4.165 9.996-3.816.081-6.059-4.706-10.274-3.98-1.89.325-4.717.977-5.182 2.436-1.158 3.633 4.188 5.973 6.5 6.982 3.558 1.554 6.485 3.117 8.428 6.672 2.984 5.462 3.767 14.3-3.213 16.742-5.189 1.816-11.673.407-16.794-1.02-4.316-1.205-7.612-5.668-5.625-10.103.563-1.256 2.07-3.47 3.826-2.64 1.395.66.716 1.91 1.144 3.028 1.715 4.484 14.54 10.876 17.492 4.1 3.601-8.265-10.09-10.754-14.27-13.517-5.402-3.57-5.544-9.68-1.422-14.348 3.612-4.09 9.975-6.694 15.224-4.348zm22.618 28.006a95.752 95.752 0 01-.822 5.894c-.292 1.677-.278 3.44-2.205 4.045-1.27.4-2.51-.949-3.733-.053-1.356.994-.707-6.235-.646-6.64.4-2.697 1.13-8.17 3.724-9.843 4.386-2.83 3.943 4.223 3.682 6.597zm-.28-11.298c-4.654 2.947-5.862-5.411-4.01-8.13 4.597-6.747 11.348 3.487 4.01 8.13zm-94.557-4.108c1.33.988.89.444.89 3.074-1.547.068-1.312-2.05-.89-3.074zm5.258-2.275c-.448 1.044 1.566 2.297 2.215 2.46.04-.337-.943-5.42-2.215-2.46zm-252.533-15.27c-1.238 1.794-.539 2.893 1.43 2.188l.162-.062-1.592-2.126zm24.87-17.244l-1.177.498-1.665 1.591c1.619-.315 2.743-.072 2.843-2.089zm6.526-2.52c-.811-1.654-3.598 1.627-3.66 2.395.65-.385 4.604-.469 3.66-2.395zm2.616-5.845c-.677.953-.54 1.717.414 2.292a11.906 11.906 0 001.8-3.467c-1.055-.767-1.838.271-2.214 1.175zm533.619-118.074c-2.041.916-.974 4.07-.775 5.78.947 8.14 2.453 16.198 3.387 24.336 1.31 11.446 1.496 23.03 3.644 34.374 1.96 10.345 5.264 20.391 7.009 30.784 1.167 6.953-1.061 14.987 7.233 17.096 7.458 1.897 15.96 2 23.607 2.834 9.85 1.074 19.715 1.602 29.608 2.081 4.683.226 9.51.285 14.147.995 2.732.418 6.132 2.23 8.233-.299 2.044-2.458 2.049-8.714 2.687-11.852.842-4.143 1.598-8.308 2.01-12.519.935-9.534-.44-18.975-1.702-28.415-1.36-10.176-2.404-20.395-3.811-30.56-.908-6.554-.804-17.136-5.313-22.425-4.112 12.28-5.226 25.316-5.432 38.191-.045 2.764-1.853 18.65-6.661 10.905-1.336-2.154-1.358-3.384-3.435-5.205-2.141-1.877-2.89-3.378-3.614-6.22-1.312-5.148-1.523-9.675-4.36-14.304-5.775-9.422-8.116-21.087-16.715-28.693-.086 8.841-1.364 18.403.28 27.136 1.034 5.488 5.269 13.387 1.777 18.816-1.741 2.708-2.748 1.9-4.797.54-1.313-.872-1.112-1.278-2.761-2.15-1.573-.833-2.811-.794-4.3-1.956-5.27-4.112-5.686-11.257-7.41-17.173-3.802-13.06-16.947-21.126-27.014-29.204-1.096-.879-3.838-3.648-5.522-2.893zm-198.647 26.46c-7.718 3.081-15.676 4.255-23.877 2.514.007 1.802 2.607 4.73.599 5.766-.48.247-3.212-.936-3.744-1.074-2.958-.767-6.944-2.086-10.036-1.457-3.271.666-3.158 2.785-1.02 5.185 3 3.37 10.534 3.506 10.619 9.096.036 2.417-1.454 5.445-1.773 7.938-.476 3.728-.996 7.426-1.872 11.087-1.506 6.294-3.943 12.281-6.847 18.054-2.502 4.973-5.544 10.155-10.203 13.405-3.037 2.118-1.867 1.162-1.271 4.284.399 2.091.332 3.648-2.368 3.132l-1.55-.476c6.333 10.376 22.346 16.916 33.309 9.992-4.623-3.726 1.65-10.222 4.3-12.974 3.967-4.123 8.125-8.867 12.379-12.63 6.513-5.763 15.038-2.959 22.744-5.383 7.799-2.453 13.473-7.988 18.514-14.174 4.49-5.509 10.444-12.25 11.05-19.708.12-1.46-.59-3.172-.331-4.553.262-1.408 1.115-1.59 1.56-2.513.91-1.897 1.132-3.85 1.277-6.022.472-7.088-1.78-8.2-8.437-10.032-3.88-1.068-7.811-1.906-11.696-2.949-3.71-.995-7.016-2.91-10.672-3.978-7.697-2.249-13.876 4.763-20.654 7.47zm19.836 44.541c6.122 3.714-3.53 6.092-7.092 4.45-4.812-2.218 3.673-6.524 7.092-4.45zm11.53-30.88c5.557 6.638 11.734 20.132-.435 22.863-3.756.843-9.567 2.205-13.344 1.172-5.395-1.477-3.986-8.517 1.395-8.826 3.188-.183 10.504 2.34 12.398-1.364 1.028-2.008-1.309-5.199-1.664-7.203-.457-2.579-.039-4.64 1.65-6.643zm-331.72 19.936l.004.007c.02.027.05.06.094.098l.021.018-.04-.039-.08-.084zm342.727-17.563c3.859-.01 1.946 8.188.03 9.588-3.436 2.512-4.903-9.578-.03-9.588zm-25.44 6.18c-4.478.543-3.469-10.173.611-10.502 5.355-.433 4.566 9.875-.61 10.502zm38.737-17.786c-.536 1.092-.126 11.724 1.157 11.925.345-2.597.154-5.208.118-7.816l-.006-.66c.03.042.242-6.53-1.27-3.449z" fill="#000"/></g></svg>