<svg width="1024" height="768" xmlns="http://www.w3.org/2000/svg"><g fill="none" fill-rule="evenodd"><path d="M530.199 382.002l.154.018c2.235.433 5.94 6.826 7.456 8.643l14.673 17.581c1.957 2.346 4.78 4.809 6.174 7.523 1.073 2.088 1.441 4.968 2.081 7.206 7.954 27.803 15.732 55.785 21.525 84.13 1.247 6.1 2.43 12.244 3.124 18.437.341 3.061 1.24 7.56-.093 10.518-1.503 3.334-6.339 4.72-9.481 5.753-6.112 2.012-12.512 3.21-18.844 4.285-15.257 2.59-30.705 4.094-46.124 5.31-4.71.372-9.56.366-14.24 1-2.236.301-1.566-.299-2.27 1.202-.982 2.089-.331 6.446-.448 8.723l-.822 16.065-2.244 43.82-2.276 44.426-.861 16.834c-.154 2.999.303 6.871-.5 9.775-.61 2.196.391 1.549-2.302 1.68-6.236.3-12.697-.455-18.935-.678l-21.226-.759c-2.021-.073-4.279.5-5.093-.948-.992-1.764-.237-6.615-.307-8.585l-.589-16.47-1.617-45.208-2.206-61.659a384179.918 384179.918 0 01-58.485 11.77c-5.332 1.073-11.665 3.522-17.171 2.732-5.47-.785-7.73-3.121-8.037-8.312-.33-5.565-.201-11.174-.127-16.744.123-9.11.385-18.22.729-27.324l46.603-4.198 24.815-2.236c1.877-.168 6.505.194 7.343-1.221 1.303-2.2-.147-9.433-.186-11.921l-.37-23.522-1.359-86.546c3.72.122 7.439.233 11.158.337 16.181.457 32.442 1.119 48.628.62 8.117-.248 15.808-2.438 23.47-5.022a260.95 260.95 0 0012.11-4.442c1.259-.495 4.965-2.837 6.324-2.575zm-21.785 80.534l-8.266 40.431 28.287-1.874-20.02-38.557z" fill="#FF5678"/><g fill="#000"><path d="M744.689 134.63c-.578 4.497-.167 9.4-5.243 10.585-4.698 1.098-9.853.79-14.643 1.175-5.383.432-10.75 1.023-16.122 1.556-6.772.67-5.806-1.932-7.287-7.716-1.353-5.282-3.512-10.553-5.309-15.704-.834-2.394-1.831-4.597-2.97-6.853-1.03-2.043-.54-4.821-1.651-6.538-3.792-5.858-22.284 10.16-24.002 7.003 3.129-2.436 8.545-5.162 9.504-9.33 1.129-4.9-1.984-6.362-5.896-4.57-9.625 4.409-20.734 7.855-31.232 9.462 3.395-2.27 34.102-20.156 23.797-25.462-2.323-1.196-5.425 1.055-7.52 1.907-3.324 1.352-6.796 2.258-10.266 3.144a490.433 490.433 0 01-11 2.68c-2.579.595-7.176 2.71-9.689 2.188-2.55-.53 1.968-2.114 2.708-2.487 3.227-1.626 6.401-3.372 9.55-5.141 5.59-3.139 10.75-6.774 15.001-11.627 3.207-3.661 8.502-11.657 6.27-16.72-1.294-2.935-4.13-5.647-5.795-8.427-1.945-3.248-3.515-6.71-5.205-10.093 2.828 1.243 6.001 1.562 8.887 2.677 2.886 1.117 5.817 2.02 8.82 2.85 6.022 1.665 12.028 1.961 17.997 3.311 6.757 1.528 13.797 3.237 20.662 4.12 5.976.767 11.35 2.403 16.472 5.662 10.458 6.656 17.713 16.22 21.382 28.045 2.15 6.928 2.673 14.156 2.926 21.363.267 7.6.827 15.374-.146 22.94m-58.692.56c-7.303 5.323-15.816 9.483-23.653 14.012-4.485 2.59-9.065 5.011-13.64 7.44-3.245 1.723-7.19 4.894-10.762 5.778-2.26.56-2.092.602-3.523-1.459-1.367-1.968-2.561-4.086-3.84-6.113-2.36-3.737-4.741-7.46-7.123-11.183-5.34-8.345-10.668-16.69-16.278-24.857-5.628-8.196-11.027-16.543-16.478-24.855-2.534-3.864-5.053-7.743-7.742-11.502-2.053-2.87-7.317-7.247-4.818-10.625 2.322-3.139 7.612-5.746 10.741-8.122 3.823-2.9 7.67-5.77 11.483-8.686 8.197-6.267 16.18-12.806 24.369-19.082 6.95 12.19 15.127 23.62 23.374 34.953-7.458 4.76-14.993 9.283-22.852 13.358-5.805 3.01-14.685 7.076-18.352 12.784-3.612 5.621-.064 12.107 6.374 12.21 3.85.062 7.689-.958 11.463-1.54 2.725-.421 7.7-2.385 10.158-1-4.416 2.817-20.438 11.028-11.801 18.228 6.173 5.146 16.61-2.364 23.277-.818-2.032 3.9-4.145 10.123 1.497 12.244 4.695 1.766 10.84-1.525 15.065-3.27a259.23 259.23 0 009.09-3.941c2.387-1.095 5.246-3.314 7.797-3.786 2.976-.552 9.037 7.743 6.174 9.831m-135.761 287.5c4.178-.763 6.323-2.49 7.64 2.582 1.179 4.545 2.347 8.922 3.865 13.382-6.526.564-12.283 3.68-17.043 8.064-3.39 3.123-10.13 10.579-8.458 15.809 4.059 12.71 24.564-15.804 27-18.851 2.983 4.36 4.08 10.067 5.563 15.053 1.056 3.548 4.972 10.35-.205 11.212-7.268 1.212-20.903 3.918-20.041 14.21 1.018 12.15 16.473 12.081 25.144 12.628 4.889.307 4.911 4.224 5.607 8.608.312 1.96 1.285 4.61-.38 6.045-1.478 1.274-6.005 1.31-7.928 1.722-5.609 1.204-11.213 2.431-16.82 3.634-6.366 1.366-9.732-.547-15.683-2.29-2.204-.646-4.417-.374-4.579-2.84-.1-1.514 1.382-3.855 1.867-5.352 1.921-5.923 3.556-12.021 4.108-18.241.803-9.038-.2-22.59-11.329-24.353-5.294-.839-6.312-1.112-8.702-6.081-2.586-5.373-6.69-10.35-5.698-16.54.718-4.484-.493-12.971 2.37-16.691 1.323-1.72 3.903-2.746 5.664-4.008a93.053 93.053 0 006.496-5.136c1.759-1.514 3.903-4.476 5.897-5.57 2.437-1.338 2.511-.427 4.26 1.663 2.583 3.086 6.69 12.197 11.385 11.34m11.81 20.08c-1.448 2.922-4.795 5.64-6.926 8.08-2.144 2.453-4.173 5.046-6.565 7.27-2.632 2.448-11.98 8.36-9.92.402 1.602-6.19 7.599-11.204 12.878-14.293 1.021-.6 12.983-6.404 10.533-1.46m10.227 29.472c.927 4.143 1.425 8.414 2.217 12.587.405 2.134 2.65 7.288 1.734 9.34-1.55 3.478-15.497-.64-18.389-1.836-6.882-2.85-10.041-10.163-3.694-15.372 2.406-1.974 17.205-8.861 18.132-4.72m9.143 49.764c.777 3.955 3.05 7.622-.707 10.613-3.12 2.483-8.23 4.177-12.074 5.061-5.24 1.204-6.924-1.732-9.698-5.508-2.982-4.06-6.156-7.983-9.45-11.796l31.03-6.946c-.006 2.882.344 5.752.9 8.576m-24.784 18.358c-5.394-.28-11.198 1.344-16.668 1.771-6.832.533-13.644 1.31-20.482 1.768 1.752-5.59 4.898-10.574 7.36-15.854 2.469-5.298 4.203-5.871 9.883-6.28 5.264-.378 8.976-2.19 12.861 2.275 4.042 4.645 7.702 9.692 11.392 14.615-1.255.84-2.756 1.787-4.346 1.705m-38.557 1.14c-1.331.97-5.435-1.786-6.818-2.32-2.69-1.04-3.287-1.375-4.692-3.999-1.206-2.256-3.125-4.82-3.503-7.396-.498-3.395 1.004-7.865 1.55-11.238 1.457 3.512 6.238 3.92 9.469 4.494 2.442.435 9.681-.258 11.523 1.482 2.035 1.922-1.712 7.283-2.688 9.302-1.165 2.41-2.604 8.046-4.841 9.675m-2.608 2.785c-1.601.26-6.211 1.853-6.119-1.072.103-3.342 6.446.263 6.12 1.072m-8.124-.175c-.292 2.814-6.347 2.58-6.485.106-.236-4.183 6.95-4.599 6.485-.106m-6.923-75.88c-1.547 4.41-10.976 5.987-14.597 7.344-3.307 1.24-13.186 6.962-16.596 4.886 11.542-7.932 23.37-15.706 33.15-25.834.4 2.502-.21 4.592-.948 6.96-.665 2.137-.323 4.692-1.009 6.645m-2.87 16.077c-1.661 10.8-3.29 21.741-5.538 32.433-4.283-1.309-7.815-3.961-12.315-4.885-4.106-.843-8.348-.864-12.487-.248-8.823 1.312-16.688 5.676-24.385 9.928-.711-7.405-2.184-15.331-2.01-22.763.145-6.174 10.71-8.002 15.501-10.552 2.9-1.543 5.521-3.713 8.824-4.25 3.399-.555 6.678-.539 10.036-1.574 7.938-2.45 15.408-6.332 23.185-9.226.635 3.707-.248 7.484-.81 11.137m-7.418 45.705c-.353 2.455.092 6.836-1.779 8.707-1.761 1.762-5.524 1.82-7.847 2.297a3350.318 3350.318 0 00-21.213 4.429 429.807 429.807 0 01-9.499 1.914c-1.514.285-5.312 1.738-6.587.533-1.21-1.145-.309-4.8-.244-6.333.13-3.063.304-6.136.111-9.2-.369-5.878-.04-8.129 5.43-11.17 5.811-3.231 11.814-5.443 18.356-6.64 6.623-1.213 12.933-.55 19.237 1.992 1.755.708 4.386 1.58 5.203 3.471 1.11 2.574-.794 7.392-1.168 10m-7.968 94.746c-2.593 1.626-8.238 1.35-11.218 1.68-4.811.53-9.653.227-14.433-.515-3.598-.558-8.968-1.332-11.726-3.858-3.918-3.589.603-3.754 3.602-3.501 8.717.733 17.545.221 26.254-.409 1.696-.123 6.253-1.612 7.888-.915 2.09.89 1.45 6.379-.367 7.518m-4.942 58.004c-16.242-1.578-25.659-15.028-31.549-28.777-3.161-7.382-2.021-15.127-2.333-22.933-.057-1.426-.952-4.964.514-6.029 1.377-1.001 6.95 2.093 8.456 2.462 7.725 1.894 16.269 2.075 24.01.236 3.355-.797 5.233-2.278 6.299 1.046.858 2.677-.55 7.61-.704 10.415-.265 4.852.495 44.083-4.693 43.58m-32.446.015c-.062-2.356-1.25-26.163-.098-26.235 3.427 7.392 6.947 14.004 13.185 19.442 3.187 2.78 6.77 5.283 10.755 6.775 1.497.56 9.981.985 10.397 2.843.727 3.25-5.065 1.939-6.783 1.675-1.378-.214-2.618-.8-3.97-1.046-2.577-.467-5.011.16-7.599.213-3.93.08-7.791-.332-11.724.008-3.595.31-4.067-.103-4.163-3.675m2.398-106.783c13.904-4.494 25.524 4.017 32.862 15.157 4.184 6.353 5.12 10.795 4.388 18.317-.262 2.693.222 4.516-2.254 5.613-2.45 1.087-8.018.28-10.669.404-7.625.357-15.22.83-22.846.378-4.953-.293-5.653-1.132-5.567-5.94.102-5.788-.379-11.55-.706-17.346-.355-6.272-2.508-14.224 4.792-16.583m-4.55-8.336c.008-4.253-.247-8.616.013-12.862.258-4.21 2.05-4 6.024-4.72 8.606-1.555 17.2-3.296 25.69-5.405 3.357-.834 7.152-2.435 10.65-2.448 3.67-.014 3.476 1.873 3.231 5.124-.544 7.199-1.863 14.292-2.264 21.453-.433 7.73-.66 15.557-.625 23.295.012 2.611.646 4.546-1.58 2.102-2.23-2.449-3.32-6.35-5.311-9.102-4.077-5.634-10.137-10.166-16.862-12.075-3.718-1.055-7.628-1.238-11.419-.474-1.15.231-6.91 2.98-7.644 2.438-.496-.368.096-7.154.097-7.326m50.866 147.385c5.515 3.949 11.622 7.14 17.804 9.91 3.479 1.558 17.249 4.838 17.688 8.346.235 1.871-2.047 3.969-3.542 4.19-1.896.281-5.02-.957-6.951-1.192-7.023-.852-14.032-.858-20.884-2.813-13.68-3.904-27.865-5.004-41.688-8.408a440.117 440.117 0 00-9.89-2.302c-3.141-.697-4.548-.578-4.659-3.933-.245-7.365 1.868-14.91 1.885-22.366 11.182 1.276 22.403 1.26 33.617 2.31 4.805.45 4.693 1.36 6.798 5.559 2.186 4.355 5.904 7.894 9.822 10.699M438.968 475.77c-.141-2.727-.252-5.46-.499-8.18-.165-1.826-1.834-6.932-.893-8.354 1.118-1.69 2.244-.658 4.244-.706 2.636-.062 4.844-1.122 7.018-2.51 4.117-2.625 7.178-6.082 9.85-10.117 2.35-3.55 1.913-8.401 1.884-12.653-.074-10.993.727-21.717.056-32.759-.308-5.072 4.022-1.961 7.518-1.304 5.719 1.073 11.935.33 17.747.344-.216 1.352-12.101 4.708-14.021 5.986-4.916 3.269-7.783 8.5-7.334 14.462.902 11.996 14.113 14.001 23.767 14.024-8.01 7.082-15.875 13.834-22.17 22.57-4.641 6.442-12.816 19.143-5.228 26.27-6.708 3.809-13.355 8.046-20.941 9.88-.34-5.65-.704-11.3-.998-16.953m-3.045-218.979c2.73 1.754 3.88-.726 5.957-2.01 2.927-1.81 3.896-1.632 4.267-5.673.687-7.495-2.466-14.28-6.425-20.413-1.799-2.788-3.594-6.108-6.134-8.288-2.315-1.986-4.656-1.302-6.801-3.356-.842-.808-.662-1.947-2.054-1.915-.917.022-3.145 2.861-3.902 3.489-2.392 1.98-5.318 3.487-8.453 1.854-4.564-2.376-3.098-11.002.447-13.796 2.73-2.152 5.955-1.82 9.063-2.167 2.33-.26 2.815-.158 1.857-2.825-.672-1.867-2.221-3.324-2.986-5.15-1.47-3.508-1.15-7.77-1.785-11.482-.57-3.326-1.904-6.923-1.856-10.301.064-4.3 1.469-5.418 5.195-6.624 3.61-1.168 6.6-3.743 9.674-5.906 3.481-2.45 7.293-4.066 10.87-6.302 2.428-1.519 3.995-4.589 6.665-3.155 3.172 1.704 6.527 6.636 9.225 9.157-3.947 2.506-4.865 3.602-4.322 8.508.5 4.497 1.416 8.505 4.854 11.638 1.32 1.204 3.784 2.168 4.808 3.556 1.194 1.617.417.192.267 2.017-.08.985-.86 1.629-.69 2.767.758 5.054 6.564 2.071 8.957.315 8.549-6.273-7.414-11.255-11.205-13.54-2.618-1.58-3.913-6.62.235-5.28 2.76.89 8.993 8.44 9.626 1.558 6.842 3.975 11.064 12.419 16.802 17.758 4.137 3.85 9.695 8.121 6.41 14.271-4.184 7.839-12.483 11.397-20.058 14.78-7.349 3.28-5.822 12.562-1.895 18.244 2.27 3.284 5.246 5.209 8.825 6.804 3.657 1.632 4.416 3.548 5.215 7.33.887 4.198-.055 5.89-3.69 8.057-3.547 2.118-7.256 4.169-11.044 5.826-8.19 3.584-16.688 3.81-25.4 5.032-3.053.428-5.981 1.32-7.647-1.707-1.873-3.407-2.011-9.274-2.872-13.071m-1.317-16.302c-2.05-1.08-7 2.508-9.591 2.666-4.193.254-6.946.158-10.667 2.382-7.036 4.204-12.874 9.616-18.516 15.486-6.354 6.611-12.673 13.257-19.006 19.888a802.765 802.765 0 01-8.67 8.95c-2.298 2.331-4.545 5.61-7.39 7.274.149-1.977 1.36-3.375 1.79-5.207.25-1.071-.186-1.98-.025-3.006.054-.333.948-1.49 1.084-1.87.363-1.002.807-1.992 1.238-3.033.402-.971.343-1.978.75-2.992.42-1.046 1.569-1.738 1.967-2.768 1.168-3.015-.765-4.413-3.857-4.342 1.21-6.033 1.739-8.983 8.046-11.11 6.026-2.033 11.912-4.314 17.448-7.49 4.915-2.82 9.015-6.883 13.74-10.025 4.23-2.814 9.496-5.762 9.452-11.532 2.398 1.627 4.646 2.995 7.39 1.376 2.315-1.367 2.622-2.468 5.298-2.726 2.186-.21 3.54-.265 5.49.696 2.294 1.13 2.608 1.916 3.945-1.412 1.518 1.279 5.358 6.604 5.23 8.712-.07 1.161-.246 1.685-1.685 1.991-2.04.434-1.962-1.118-3.46-1.908m-9.561 315.155c-.998 1.529-5.204 1.247-6.828 1.226-4.95-.064-6.682-4.22-8.854-8.234-3.425-6.33-8.543-19.48-2.925-26.124 4.435-5.244 13.072 1.363 16.098 5.323 2.612 3.422 1.836 8.553 2.079 12.659.204 3.46 2.4 12.132.43 15.15m-13.527 2.293c-1.98 1.979-8.403 1.56-11.026 1.985-4.681.758-9.336 1.669-13.878 3.052-3.381 1.029-6.723 3.798-7.615-.915-.748-3.962-.376-8.715-.304-12.714.077-4.315.529-8.575.904-12.87.254-2.905-.382-8.25 1.99-10.479 2.043-1.921 7.012-2.106 9.665-2.743 4.357-1.045 8.909-2.417 13.437-1.95-2.642 7.172-2.866 14.693-.033 21.839.807 2.04 8.083 13.572 6.86 14.795m-33.293-28.57c-1.104 10.788-2.214 21.643-1.151 32.484.064.647.837 3.609.5 4.072-.347.48-3.096.729-3.72.876-2.48.588-4.955 1.211-7.45 1.733-4.856 1.016-5.49-2.052-6.443-6.553-2.041-9.643 1.916-20.098 4.314-29.36 1.167-4.51 2.033-5.029 6.468-5.403 3.086-.26 7.951-2.432 7.482 2.152m-18.753 40.245c-1.855 1.688-3.71-6.276-3.874-7.088-.649-3.223-.288-6.492-.278-9.766.016-5.113-.375-10.202-.383-15.291-.004-2.753-2.067-8.38 1.19-9.837.956-.427 4.753-.25 5.615.313 1.79 1.169 1.084 1.926.554 3.96-1.188 4.562-2.214 9.148-3.248 13.75-1.014 4.51-2.015 8.851-1.532 13.51.16 1.541 3.14 9.373 1.956 10.449m59.185-50.262c4.523-1.275 4.765 2.191 4.758 5.508-.69-.528-7.119-4.843-4.758-5.508m-60.514-243.499c-1.108 1.827-8.129 2.326-10.135 2.807-3.947.945-7.896 1.884-11.833 2.868-7.375 1.845-14.57 3.925-22.13 4.89 4.152-6.647 5.444-12.388 4.671-20.683-.974-10.474-2.213-20.841-4.624-31.094-2.377-10.11-5.13-20.151-7.78-30.193-1.302-4.934-2.71-9.773-4.442-14.574-1.388-3.848-3.557-8.69-1.2-12.635 5.98 4.363 10.777 9.064 14.188 15.692 3.654 7.105 6.845 14.4 11.086 21.197 1.939 3.107 4.203 5.942 6.278 8.95 1.234 1.79 2.133 4.373 3.705 5.883 1.812 1.74 3.744 2.56 4.78-.376 1.11-3.152-2.434-9.388-3.48-12.348-2.527-7.145-5.032-14.276-6.981-21.605-1.577-5.925-4.182-13.088-3.26-19.339.913-6.189 5.112-1.76 7.237 1.118 4.38 5.932 7.003 12.846 9.88 19.57 2.645 6.18 5.73 12.07 8.657 18.105 1.019 2.1 2.36 7.525 5.028 8.149 3.877.91 3.548-4.551 3.178-6.767-2.457-14.686-8.871-28.748-10.202-43.69-.064-.713-.991-6.264-.246-6.728 1.446-.899 3.396 4.733 4.02 6.113 3.242 7.177 5.501 14.742 7.574 22.324 1.762 6.448 3.357 12.944 5.335 19.33 1.087 3.511 2.333 6.963 3.562 10.426 1.111 3.136 2.239 8.497 5.137 10.564 4.112 2.932 18.825-4.04 20.316 2.193 1.061 4.43-12.582 7.998-15.488 9.343-3.825 1.77-7.577 3.71-11.404 5.483-2.897 1.34-7.06 1.89-9.157 4.414-2.22 2.673-2.576 6.427-2.642 9.743-.051 2.51 1.688 8.704.372 10.87m-9.298 48.374c-.194 1.392-1.3 3.236-1.799 4.56-1.013 2.7-1.875 5.925-3.285 8.447-1.213 2.172-3.002 4.114-4.174 6.318-1.111 2.092-1.26 4.504-2.557 6.598-1.486 2.393-3.94 4.115-5.416 6.493-.727 1.174-1.478 2.514-2.505 3.763-3.638 4.427-7.25 8.603-10.176 13.345-.748 1.214-4.403 6.513-5.858 6.8-3.04.597.5-3.725 1.094-4.62 4.308-6.465 8.134-13.271 12.292-19.837 4.028-6.357 8.15-12.665 12.026-19.118 3.161-5.26 5.348-12.814 10.486-16.52.02 1.26-.023 2.517-.128 3.771m140.474-59.419c2.503 10.288 5.496 20.257 8.317 30.453 2.618 9.46 6.101 19.584 7.186 29.337 1.075 9.661 3.545 19.436 6.867 28.606 1.535 4.243 3.115 8.502 4.781 12.696.916 2.304 1.94 4.556 2.98 6.806.806 1.748 2.938 4.579 3.02 6.431.066 1.483.581.89-.883 2.005-1.516 1.155-4.142.736-5.908.94-4.605.532-9.095 2.264-13.584 3.386-8.658 2.164-18.978 3.881-27.85 2.376-3.732-.634-7.608-1.183-11.299-2.008-4.54-1.016-5.474-2.895-6.405-7.358-2.038-9.756-3.794-19.487-5.476-29.309-2.001-11.682-4.167-23.351-5.71-35.106-1.56-11.892-2.681-23.796-5.125-35.559 9.859 1.65 19.143 3.511 29.03.81 8.756-2.392 15.077-7.068 20.06-14.506m38.591 127.366c2.204 4.543-3.108 8.627-5.683 12.126-3.395 4.611-6.565 9.43-10.514 13.601-1.185-4.74-2.224-10.074-5.385-13.967-4.037-4.972-8.749-2.94-13.695-5.292 5.187-2.523 11.81-1.56 17.312-3.81 5.427-2.22 10.907-3.961 15.957-6.844.67 1.395 1.333 2.794 2.008 4.186m-19.235 105.983c-3.315.184-1.097-6.807-.882-8.544.592-4.775 1.19-9.55 1.709-14.334 2.735 7.213 5.47 14.425 8.202 21.636-3.005.43-5.99 1.073-9.029 1.242m-5.392 34.574c.452 1.004 2.561 4.354.896 4.972-2.282.846-2.556-4.702-.896-4.972m-3.955-77.697c-10.56 8.43-21.047 16.884-32.473 24.142-2.503 1.59-5.024 2.256-6.684-.898-1.304-2.48.074-5.273.91-7.7 2.133-6.19 5.85-11.57 9.968-16.606 8.225-10.059 18.014-18.65 30.506-22.616 2.043-.65 5.198-2.607 5.914.097.422 1.59-1.362 5.561-1.724 7.054-1.492 6.164-1.167 12.337-6.417 16.527m30.398 61.488c.232 7.16-19.338 1.385-21.777.105 2.559-.858 21.672-3.324 21.777-.105m7.267.045c1.163.31 5.622.703 3.956 2.227-1.49 1.364-8.242.817-10.032.985 1.202-3.95 2.115-4.267 6.076-3.212m-3.626-9.59c-.437 1.593-.615 4.023-2.042 5.114-1.779 1.36-5.558.534-7.571.545-3.42.018-6.835.193-10.238.533-1.302.129-6.575 1.718-7.795.634-.896-.796-.562-4.532.09-5.372 1.34-1.726 4.427-1.128 6.36-1.197 7.077-.253 14.116-.274 21.196-.257m-4.543-26.463c-.999-1.484-1.177-1.468-1.604-3.71-.455-2.4-1.613-4.453-2.295-6.772-1.498-5.103 3.29-4.65 6.803-2.778 9.11 4.854 6.912 21.815 4.658 29.756-3.275-2.408-4.484-3.5-5.611-7.386-.429-1.477-.909-2.927-1.355-4.396-.327-1.08-.1-3.974-.596-4.714m.79-82.552c2.543-.307 4.87 7.586 4.143 9.294-1.487 3.494-7.17 6.615-10.065 8.845-1.927 1.485-3.841 3.187-5.901 4.482-1.913 1.201-3.013.527-4.791 1.104-2.573.833-3.197 3.556-5.83 4.726-3.706 1.647-8.198 2.108-12.068 3.595-4.697 1.804-9 1.853-13.925.998-7.081-1.229-15.382-4.743-14.743-13.347 1.125-15.182 31.275-22.961 39.498-10.088 2.14 3.35 2.107 7.256 3.496 10.855 1.505 3.895 2.964 2.364 5.228-.505 2.96-3.753 5.712-7.708 8.557-11.55.92-1.243 4.564-8.185 6.4-8.409M344.842 545.778c-.145 2.582.01 5.2-.888 7.664-.905 2.485-2.74 4.494-3.796 6.909-2.141 4.893-2.125 10.814-2.04 16.057.2 12.2 3.088 24.049 4.617 36.103-5.087-.012-10.344.045-15.273-1.409-4.403-1.299-5.106-4.517-6.351-8.572-3.497-11.39-7.273-22.73-8.402-34.656-.537-5.684-.763-11.414-1.02-17.116-.225-5.002.899-7.184 5.414-9.66 9.815-5.384 19.989-9.867 29.703-15.506-.993 6.69-1.587 13.434-1.964 20.186m418.995-399.719c-2.39-.438-4.802-.712-7.213-1-1.259-.15-5.18.059-6.121-.761-1.12-.976.82-8.356.92-9.94.606-9.523-.1-19.341-.973-28.828-1.58-17.176-6.982-33.087-19.444-45.455-6.203-6.156-13.177-11.04-21.648-13.397-4.936-1.373-10.022-2.106-14.968-3.437-3.99-1.076-7.714-2.307-11.859-2.733-8.267-.85-15.825-3.974-23.892-5.781-5.936-1.33-15.483-4.483-19.331 2.219-3.03-3.553-6.076-6.22-9.897-8.87-3.659-2.539-4.257-5.075-8.739-2.143-8.706 5.695-16.86 12.643-24.992 19.123-7.595 6.052-14.944 12.39-22.904 17.955-8.118 5.677-6.579 15.31-2.761 23.297 7.183 15.032 18.261 27.884 27.959 40.77 6.074 8.071 12.168 16.154 18.218 24.242 5.784 7.73 10.787 16.677 17.545 23.622 4.261 4.378 9.348-1.347 13.193-3.993 4.773-3.285 9.463-6.693 14.242-9.969 9.951-6.824 20.6-13.216 31.106-19.156l2.292 6.498c-2.307.173-5.424-.342-6.598 2.139-1.678 3.543 2.438 4.008 3.16 6.04.644 1.814-1.999 6.606-2.78 8.241-1.758 3.684-4.213 6.86-6.918 9.892-10.699 12-24.239 20.585-37.976 28.767-14.7 8.754-30.457 14.099-46.55 19.74-8.185 2.868-16.68 4.2-25.124 6.037-8.138 1.77-16.268 4.095-24.583 4.763-17.013 1.365-35.065 2.388-51.872-1.28-1.84-.402-3.787-1.272-5.659-1.437-1.5-.133-2.611.496-4.028.577-3.04.174-4.784-2.546-7.2-.02-1.209 1.265-1.23 3.387-2.915 1.028-2.143-3 3.335-3.581 5.364-4.436 6.835-2.88 12.329-8.675 16.671-14.533 4.34-5.854 4.964-12.106 2.321-18.96-2.64-6.851-8.648-11.495-13.158-17.059-2.182-2.694-4.189-5.544-6.585-8.059-1.278-1.344-3.339-2.63-3.419-3.984-.093-1.575.85-2.357.286-4.271-.146-.498-.772-.781-.905-1.328-.21-.872.116-1.62.006-2.47-.253-1.948-1.017-3.172-2.099-4.769-.674-.997-1.66-2.994-2.586-3.741-1.625-1.31-3.84-.776-5.493-2.104-2.614-2.1-3.533-6.526-5.846-9.075-3.256-3.588-3.95.037-7.399-1.106-2.95-.98-2.915-5.417-5.298-6.918-3.357-2.114-6.184 1.776-9.165 2.642-3.922 1.14-2.415-3.285-5.91-3.688-3.158-.364-7.53 6.04-9.104 8.313-1.604-1.869-3.358-5.054-6.244-3.913-3.03 1.198-3.568 6.774-5.782 8.763-.772.692-.61 1.202-1.558 1.52-1.226.411-2.86-1.368-4.444-.826-3.197 1.095-2.807 5.36-2.814 8.125-3.772-.551-6.403-.832-7.665 3.233-1.236 3.979-1.705 2.223-5.682 3.515-3.429 1.114-3.908 4.37-4.474 7.554-.35 1.98-.026 2.789.507 4.594.671 2.274.671 2.245-.424 4.416-1.909 3.787-2.023 7.96-2.328 12.128-.324 4.447-1.102 8.496.161 12.84.782 2.688.842 6.346 3.475 7.851 1.044.597 2.818.27 3.706.862 1.697 1.13 1.18 2.849 2.31 4.499.847 1.235 2.213 1.354 3.16 2.355 1.032 1.09 1.093 2.417 1.68 3.747 1.74 3.938 3.374 5.843-2.292 6.068-3.496.138-7.225 1.187-10.707.865-4.109-.379-5.13-2.675-6.438-6.172-6.59-17.622-10.133-36.722-18.813-53.48-1.906-3.679-9.73-18.71-13.036-7.758-2.788 9.237.87 20.51 2.273 29.704-4.401-3.966-6.03-11.11-9.371-15.954-2.468-3.578-10.197-12.365-14.728-7.33-3.57 3.969-2.678 12.384-2.02 17.128 1.042 7.506 3.44 14.74 5.154 22.1-2.157-2.82-3.221-6.266-4.718-9.443-1.877-3.984-4.22-7.764-6.888-11.265a66.189 66.189 0 00-7.768-8.511c-2.16-1.995-6.031-6.361-9.1-6.597-7.9-.606-5.415 13.883-4.212 18.025 2.493 8.586 5.197 16.935 7.133 25.693 3.784 17.112 8.367 33.829 11.155 51.158.617 3.843 1.36 6.91-.16 10.603-1.339 3.254-2.728 7.146-5.2 9.648-5.592 5.666-10.236 11.716-14.417 18.543-4.478 7.312-9.088 14.708-12.743 22.47-1.681 3.572-3.056 7.434-4.988 10.87-1.744 3.1-3.84 5.55-5.08 8.983-5.924 16.402-10.31 32.517-12.318 49.885-1.65 14.26-.113 33.226 17.103 36.563 7.909 1.533 15.01-1.974 22.142-4.87 7.376-2.993 12.71-7.86 18.726-13.03 7.476-6.427 15.238-12.457 22.793-18.776 7.559-6.322 14.54-13.334 22.058-19.724 7.426-6.314 14.144-13.019 20.565-20.35 6.37-7.273 11.545-15.33 17.712-22.705-.023 9.548-1.44 19.009-1.838 28.543a319.759 319.759 0 00-.02 26.214c.353 8.732-1.954 17.045-1.972 25.759-.02 8.5-.357 16.95-.543 25.442-.084 3.809-.83 8.082.593 11.756 1.063 2.744 4.403 3.602 7.253 4.342 4.403 1.143 17.653-1.058 19.62 3.647 1.074 2.567-.008 7.24.076 10.078.14 4.675.31 9.349.47 14.023.167 4.827.328 9.655.503 14.481.157 4.253.984 8.99.471 13.201-.438 3.609-2.542 3.137-5.877 3.322-5.033.278-10.068.502-15.103.721-7.387.324-15.096.176-22.177 1.048-2.974.366-6.224.21-9.361.807-3.935.748-7.57.938-11.56 1.136-3.217.159-7.353-.075-9.88 2.304-.878.825-1.074 1.809-1.696 2.727-1.164 1.72-.516 1.268-2.427 1.655-7.462 1.512-14.549 3.217-21.846 5.76-3.653 1.273-7.042 2.982-10.712 4.18-3.216 1.05-5.574 2.342-7.163 5.5-2.84 5.638-2.121 13.796-1.915 19.873.323 9.48 2.43 18.507 4.701 27.676 2.363 9.538 4.216 19.333 8.813 28.096 1.51 2.88 3.14 6.554 6.226 8.055 3.983 1.937 10.109.763 14.456.77 2.917.005 10.732 1.007 12.912-1.44 2.112-2.368-.013-9.05-.31-11.989-1.045-10.302-2.926-20.7-2.901-31.072 2.38 3.516 6.506 9.586 10.635 4.198 1.017-1.326.62-1.942 2.425-2.71.998-.425 3.103-.686 4.19-.612 1.478.1 2.026.694 3.384.403 1.203-.258 2.555-1.335 3.934-1.662 17.094-4.063 34.088-8.442 51.255-12.062 4.539-.957 3.894 2.528 4.194 6.452.331 4.34-.3 8.723.301 13.015.524 3.734.932 7.373.194 11.13-.87 4.43-.31 8.126.556 12.514 3.34 16.919 2.743 35.27 3.496 52.465.392 8.956-.45 18.1.393 27.008.318 3.365 2.196 5.224 2.957 8.284.874 3.515-1.51 7.99-2.234 11.394-1.457 6.834-4.016 16.615.665 22.561 2.528 3.212 5.842 3.677 9.584 4.763 4.478 1.3 8.893 2.815 13.392 4.046 16.44 4.5 34.206 5.38 51.055 7.86 4.126.607 7.953.55 12.105.262 2.56-.177 8.864.665 10.992-.867 1.14-.82.562-1.846 1.142-2.848.823-1.424 1.82-2.002 3.222-2.888 2.321-1.467 5.005-2.324 5.397-5.352.958-7.417-8.31-11.346-13.267-14.553-6.333-4.1-13.983-5.682-20.704-9.028-3.709-1.846-7.286-3.938-10.859-6.033-1.55-.908-4.69-1.936-5.77-3.366-1.102-1.46-.023-3.542.433-5.627 1.884-8.616 1.247-17.426 2.221-26.132.975-8.72.71-17.496 1.03-26.26.332-9.028 1.077-18.032 1.65-27.046.526-8.325 1.058-16.784 1.146-25.118.083-7.728 1.137-15.31 1.386-23.088.085-2.64-.389-7.428 1.363-9.664 1.538-1.961 6.628-1.715 9.002-2.059 6.399-.929 12.49-1.743 18.816-2.303 15.054-1.332 31.807-2.313 46.042-7.56 5.87-2.164 13.683-5.12 15.63-11.861 2.24-7.75-.683-17.274-.78-25.197-.104-8.46-2.556-16.713-4.395-24.91-1.98-8.824-3.227-17.8-5.367-26.59-1.964-8.066-5.148-15.21-8.159-22.868-1.222-3.106-8.179-13.809-6.02-16.448 1.162-1.422 5.349-1.782 7.047-2.433 3.662-1.4 7.33-2.993 10.706-4.988 4.507-2.664 14.377-7.071 14.832-12.99.432-5.657-5.126-11.374-7.952-15.817-4.553-7.159-10.295-13.418-14.63-20.718-8.764-14.754-15.733-30.914-22.121-46.814-3.342-8.319-4.434-16.151-4.984-25.03 9.705.023 19.583 1.217 29.226-.14 10.495-1.478 21.004-3.965 31.407-6.015 18.945-3.734 37.134-7.95 54.684-16.358 16.434-7.873 33.11-16.49 46.717-28.988 7.035-6.462 14.213-13.048 20.288-20.438 6.242-7.591 10.937-16.216 15.752-24.739 5.315-9.406 9.546-19.292 12.89-29.581.674-2.069.677-4.703 1.538-6.657.972-2.206 2.74-2.264 4.585-3.426 2.595-1.635 4.324-7.106-.182-7.934M537.89 40.76c2.22 1.905 11.78 8.619 14.87 6.987 3.81-2.016-2.223-8.086-3.847-9.583-2.068-1.904-9.454-7.664-12.282-7.13-5.653 1.07-.737 8.01 1.26 9.726"/><path d="M542.613 109.662c1.254-2.467 4.588-3.374 6.13-5.761 1.854-2.87 2.706-5.382 2.022-8.901-4.747 1.598-10.148 6.435-13.324 10.217-2.655 3.161-6.426 9.766.502 9.783-.06-.94-.12-1.882-.182-2.82 2.078.301 3.909-.659 4.852-2.518M519.998 68.618c3.06.88 5.586.755 8.713.824 2.27.05 5.37 1.297 7.209-.108-1.632-.945.43-.998.026-1.92-.339-.767-.983-.516-1.507-1.137-1.868-2.216-3.492-2.19-6.454-2.65-2.296-.359-5.67-1.186-7.876-.045-2.321 1.2-3.22 4.142-.111 5.036M563.563 136.58c1.98-1.66 4.137-6.467 4.537-8.947.157-.972-.543-1.716-.46-2.431.16-1.363 2.96-3.997.027-5.115-2.566-.98-4.978 6.625-5.63 8.284-.67 1.697-2.491 5.003-1.932 6.644.464 1.362 2.121 2.684 3.458 1.564M587.241 33.662c1.791-1.662 2.925-3.547 2.74-5.832-.148-1.801-1.496-8.009-3.014-7.826-5.039.608-2.773 16.489.274 13.658M480.865 311.197c-.415-1.518-1.922-10.798-4.529-10.166-1.98.48.077 8.647.17 9.722.192 2.248-4.13 2.174-6.137 1.87-3.185-.481-2.93-2.347-3.406-5.242-.179-1.094-.868-6.04-3.15-4.228-1.542 1.224-.44 7.321-.312 8.712.445 4.819.968 13.047 3.833 17.422 1.142 1.746 2.169 2.607 3.37.37 1.213-2.266-1.535-9.169-2.016-11.485 2.267.221 8.793-.514 10.159 1.84 1.247 2.15-.748 8.291 3.253 8.79 2.373.295 1.943-2.454 1.715-4.568-.479-4.436-1.78-8.753-2.95-13.037M486.944 309.05c-2.628 1.187.671 18.495 4.516 17.937 4.487-.653-2.012-19.068-4.516-17.937M484.015 303.319c-.324 3.897 4.74 5.35 4.98 1.114.184-3.267-4.639-5.211-4.98-1.114M456.217 199.996c2.312 8.616 23.356 12.28 20.52.661-1.42-5.818-7.349-.65-11.489-1.326-2.679-.438-10.659-5.41-9.031.665M450.932 184.627c.99-4.61-9.095-9.699-12.755-8.43-5.353 1.858-5.33 13.733-1.246 16.89.537.415 2.184 1.406 2.99.616 1.274-1.249-.117-.908-.414-2.155-.472-1.983-2.014-4.53-.478-6.786 2.904-4.262 10.486 6.471 11.903-.135M420.181 207.005c-3.636-.204-6.618 5.44-1.268 4.967 1.025-.09 3.226-.349 3.82-1.425.984-1.783-.953-3.452-2.552-3.542M596.58 72.462c-1.244-1.8-3.853-4.697-6.098-2.891-1.99 1.601-1.643 5.553-.88 7.517 2.055 5.287 6.907 9.997 12.398 6.951-1.908-3.821-2.982-8.052-5.42-11.577"/></g></g></svg>