<svg width="1024" height="768" xmlns="http://www.w3.org/2000/svg"><g fill="none" fill-rule="evenodd"><path d="M662 292c-7.635 14.928-15.702 29.46-23.847 44.116-4.312 7.759-18.218 39.85-21.81 41.076-3.867 1.32-27.559-12.612-34.359-15.341-12.082-4.85-23.564-9.443-36.185-12.433-14.132-3.35-28.377-5.818-43.036-4.573-6.42.546-17.048 2.098-10.667-6.922 4.652-6.577 9.158-12.634 15.476-17.385 4.598-3.46 11.339-9.804 16.723-12.114 5.649-2.425 13.98-1.888 20.05-1.745 6.564.155 37.845 9.916 39.566-.257 3.19 2.903 5.049 1.78 8.704 3.198 4.121 1.598 6.69 4.7 10.782 6.573 2.655 1.217 7.549 6.023 10.5 6.052 3.923.039 4.98-3.21 7.797-5.608 6.311-5.374 14.716-8.91 21.565-13.58 6.03-4.113 11.772-8.4 18.741-11.057zm-68.724-118c-.536 6.815 1.303 13.147 1.259 20.16-.02 3.06-.158 6.118.77 9.066.835 2.643.252 7.39.695 10.158-7.806-2.376-22.309-5.9-30.279-2.696-7.62 3.063-8.578 17.23-8.846 24.12-.183 4.697 1.902 11.932.321 16.428-.737 2.097-.743 2.774-.697 2.963l.006.02c-.15-.077-.762-.076-2.92 1.48-2.139 1.543-4.692 2.393-6.806 4.096-3.844 3.102-4.503 6.616-6.4 11.111-1.843 4.366-6.752 8.246-12.232 8.088 4.405-7.984 10.521-15.44 7.011-24.817-2.648-7.078 1.994-15.384 5.645-22.107 1.209-2.227 14.61-19.286 8.672-20.488-3.856-.782-12.707 17.326-14.4 20.488-4.723-3.193-6.844-7.129-3.21-11.938 2.793-3.693 6.22-6.851 8.938-10.675 4.412-6.207 8.712-13.615 13.952-19.128 9.204-9.68 25.27-16.27 38.521-16.329zm-36.77 80.219c.05.035.029.07.006.017l-.007-.017zm160.454-90.796c5.881 5.634 13.32 10.307 19.003 16.22 4.975 5.176 11.674 13.883 14.037 20.798-12.126 2.337-32.275 9.495-37.103 22.221-18.86-17.312-26.155 14.339-29.897 27.574-11.037-4.776-8.836-20.676-8.69-29.96.113-7.364 4.599-16.08-6.094-16.684-7.991-.45-15.751 2.805-22.958 5.852-8.993 3.803-18.426 9.491-25.69 16.025L612 219.577c12.415-6.97 18.886-20.297 26.153-32.5 2.318-3.89 5.415-8.216 7.105-12.421 1.17-2.908 1.992-8.778 3.274-11.363 2.017-4.065 21.714-5.184 26.932-6.232 13.775-2.764 30.24-4.422 41.496 6.362z" fill="#FF5678"/><g fill="#000"><path d="M713.821 253.754c5.088-.26 10.154.876 15.242.381l-13.252-11.542c-1.952 3.427-2.094 7.326-1.99 11.161zm-120.717-79.098c-13.17.058-29.235 6.673-38.384 16.334-4.847 5.12-8.853 11.996-12.952 17.748-2.75 3.86-5.435 7.585-8.772 10.977-4.867 4.943-3.474 6.073 2.01 9.795 1.735-3.252 10.937-20.64 14.794-19.858 5.86 1.19-5.458 19.556-6.694 21.844-3.661 6.77-9.573 16.226-6.917 23.366 3.505 9.425-1.577 14.796-5.99 22.827 4.634.134 5.09-1.673 6.688-5.626 2.05-5.08 4.29-9.324 8.627-12.836 3.36-2.72 8.854-3.865 10.432-7.149 1.952-4.059.727-12.074.885-16.59.24-6.862.258-23.083 7.819-26.131 7.922-3.194 22.166-.184 29.91 2.182-.967-6.047-4.017-9.996-3.975-16.716.045-7.034 1.982-13.31 2.519-20.167zM491.928 286.872c6.889-2.18 13.42-4.479 20.508-5.965 7.417-1.556 7.913-3.336 12.094-9.697 3.17-4.822 7.016-8.58 6.118-14.485-.576-3.788-2.65-5.633-2.026-9.893.386-2.64 1.618-5.522 2.508-8.033 1.092-3.08 3.355-6.573-1.906-6.726-2.905-.084-3.047 1.449-5.013 4.022-3.628 4.753-7.804 9.07-11.664 13.628-6.706 7.914-13.817 16.337-21.302 23.663-8.24 8.06-15.352 17.783-20.678 28.103-.984 1.906-6.965 13.131-4.413 15.332 2.343 2.022 15.376-2.693 17.753-3.244 10.257-2.381 21.9-3.231 31.591-7.556 4.938-2.204 15.834-4.834 19.734-8.243 3.625-3.17 3.462-10.847 1.358-15.314-5.888 3.663-48.458 17.484-44.662 4.408zm128.16-62.996c6.875-6.21 15-11.19 23.488-14.881 7.592-3.301 17.023-6.981 25.47-6.408 10.523.713 6.126 9.19 6.088 16.408-.05 9.579-4.247 23.377 7.19 28.346 3.734-13.262 11.603-44.624 30.454-27.246 4.818-12.752 22.001-17.068 34.1-19.41-2.192-6.443-8.854-12.275-13.47-17.11-5.777-6.05-10.337-13.14-16.124-19.075-11.431-11.72-32.14-7.957-46.613-5.035-4.831.974-18.836 2.198-21.176 5.746-1.468 2.225-.648 7.661-1.736 10.382-1.499 3.748-4.06 7.223-6.115 10.685-7.496 12.633-15.122 25.348-27.952 32.582l6.397 5.016zm41.953 68.058c-6.788 2.604-11.78 6.96-17.8 10.626-7.3 4.447-15.86 8.612-22.41 14.104-2.397 2.009-3.744 5.479-7.053 5.704-2.878.196-7.263-3.147-9.815-4.316-4.28-1.965-8.368-4.942-12.67-6.693-3.534-1.44-5.099-1.145-8.157-3.944-1.716 10.21-32.925.667-39.472.51-6.057-.143-14.367.575-20.004 3.009-5.371 2.32-9.57 7.425-14.168 10.903-6.302 4.77-12.316 9.594-16.957 16.196-6.366 9.053 3.238 6.49 9.643 5.944 14.62-1.25 28.842 2.232 42.936 5.593 12.598 3.003 25.04 6.606 37.099 11.476 6.782 2.74 13.92 5.258 20.299 8.818 3.363 1.878 8.817 6.474 12.676 5.15 3.539-1.215 7.065-11.36 9.21-15.41 4.167-7.866 8.55-15.598 12.852-23.386 8.126-14.711 16.174-29.3 23.79-44.284zm-83.523 194.702c4.183-2.402 11.002-1.755 15.627-2.762 5.227-1.138 10.482-2.99 15.466-4.923 5.047-1.956 9.816-3.957 14.428-6.405 2.109-1.119 4.92-2.221 6.87-3.774 1.57-1.252 2.142-3.578 3.59-4.713 3.779-2.963 4.89-1.104 5.396-6.82.55-6.209-2.934-9.725-7.27-14.372-3.883-4.158-8.926-7.752-13.804-10.678-2.158-1.293-4.463-2.75-6.665-3.984-3.332-1.87-7.796-4.98-9.544-.965 3.64.929 4.443 5.58 1.157 7.25-1.805.918-4.537-.43-6.572.545-3.141 1.506-6.163 5.71-8.852 7.972-8.826 7.43-17.267 10.217-28.82 10.814-24.139 1.244-49.417-1.509-73.092-5.086-6.093-.922-12.176.076-18.326-.144-5.984-.214-12.223-1.522-18.105-2.533-11.33-1.946-23.272-3.548-34.426-6.411-13.49-3.464-27.025-7.944-39.69-13.746-12.148-5.567-25.879-14.764-39.524-15.473 5.823 5.701 14.548 7.897 21.552 11.653 5.724 3.067 14.676 5.037 18.293 10.092 2.354 3.29 3.535 9.333 5.314 13.191 1.967 4.27 3.781 8.607 5.602 12.94 1.829 4.36 3.734 8.722 5.22 13.212.919 2.786 1.315 8.562 3.487 10.467 3.465 3.04 15.061 4.39 19.73 5.4 8.719 1.89 18.663 1.638 27.555 1.769 3.675.054 7.379.555 10.89.623 4.931.094 4.461-.76 4.39-5.04-.04-2.57.012-7.246 3.45-5.129 2.343 1.443.731 7.833.297 10.104 19.628 1.955 40.107 2.938 59.642 2.284 19.211-.644 37.758-3.121 56.734-5.358zm88.641-45.056c3.464-24.87 7.684-50.155 12.408-74.703 4.774-24.806 10.514-49.387 16.97-74.1l-12.793-3.058c-.159 5.207-1.92 9.73-2.67 14.913-1.037 7.154-3.017 14.101-4.203 21.232-2.253 13.554-6.427 26.817-10.104 40.035-3.748 13.475-5 27.358-8.444 40.901-2.838 11.157-4.288 23.447-5.873 34.917-3.845 27.827-9.323 55.708-13.492 83.549-3.91 26.102-4.302 52.734-4.077 79.08.138 16.085 2.592 32.124 2.464 48.23-.032 3.982.303 7.95.51 11.926.146 2.804-1.36 10.579-.083 12.928.809 1.487 4.284 2.859 5.514 4.924 1.945 3.268 2.355 7.174 5.48 9.646 2.533-10.216 1.336-23.7.783-34.127-.536-10.046.504-20.429.709-30.63.4-20.01 1.46-39.726 2.486-59.746 1.125-21.955 4.323-44.444 7.447-66.234 2.84-19.813 4.736-39.977 6.968-59.683zm-92.7-311.89l-4.12-.383c.206 2.894-.406 7.58 1.634 9.09 1.546 1.144 4.676.769 6.55 1.134 6.142 1.201 13.26 2.205 19.357.018 2.37-.85.848-2.181 4.11-1.628 3.93.668 2.495 1.29 3.63 3.741.874 1.892 1.324 5.112 2.316 7.383 1.328 3.04 4.02 8.48 2.869 11.99-1.118 3.412-5.29 4.443-7.064 8.307-1.32 2.873-1.008 7.049-1.693 10.213-.914 4.22-2.07 8.424-2.58 12.722-.643 5.415-.423 11.768 6.286 12.608 6.227.78 10.679-1.22 14.854-5.755 7.975-8.657 17.08-20.877 21.765-31.767.547-1.272 1.894-3.395 1.706-4.757-.37-2.694-.533.033-1.387-1.838-.815-1.789-2.094-3.412-2.846-5.397a104.55 104.55 0 01-5.707-22.155c-.492-3.42-.657-6.798-.572-10.251.027-1.18.735-4.72.313-5.527-.43-.818-2.674-1.195-3.373-2.007-1.297-1.505-3.524-5.754-4.96-6.88-1.767-1.385-5.72-.288-6.438-3.042-1.148-4.406 26.024-11.583 13.33-17.463-9.478-4.39-24.015 17.802-27.329.34-.574-3.025.52-7.13-.807-9.903-1.466-3.063-5.458-4.209-8.246-5.7-3.558-1.9-7.152-3.854-10.61-5.936-2.371-1.427-5.788-5.216-8.313-5.563.994 5.143-.911 10.241-.943 15.374 5.468-1.48 9.231-1.511 14.628 1.12 2.57 1.252 12.254 8.359 7.348 11.777-3.975-2.35-8.227-4.387-12.658-5.77-1.748-.545-3.93-1.286-5.789-1.324-4.315-.087-3.707.364-5.327 3.618-1.562 3.134-1.226 11.308-4.655 13.31-3.545 2.069-.81-.828-3.838-.16-1.727.383-3.608 1.667-5.189 2.392 2.166 2.35 6.537 4.497 7.973 7.108 2.096 3.807 1.369 11.68 1.697 15.845 2.743-.982 5.63-1.022 8.411-1.751 2.613-.687 6.238-3.657 6.51.71.305 4.866-7.388 6.158-10.842 6.158zm35.7 128.126c.215-4.205.448-8.409.916-12.597.316-2.812 2.986-10.968 1.477-13.438-1.641-2.687-7.142-2.858-9.79-3.503-5.074-1.237-9.941-2.25-15.099-3.067-4.743-.75-9.213-.91-13.993-1.127-5.206-.235-6.496-1.616-7.647 4.12-.904 4.51-2.117 9.209-2.286 13.827-.158 4.335 1.15 8.098-3.145 11.02 9.433 0 21.719-8.4 30.327-.89 12.314 10.74-9.115 13.834-14.765 16.205 4.697 2.283 11.67 4.076 13.881 9.29 2.482 5.845-1.12 8.33-6.629 8.798.518 2.253 2.502 3.716 3.093 6.425.865 3.971-1.942 2.656 1.64 5.729 4.716 4.044 14.425 6.748 20.209 9.324a81.994 81.994 0 004.11 1.706c2.168 1.928 3.767 1.561 4.801-1.103 2.967-1.878 5.608-6.068 8.24-8.505 5.856-5.424 12.319-10.183 19.277-14.1-2.885-1.194-6.335 1.506-9.103.192-2.237-1.062-1.394-2.995-2.734-4.442.537-1.887-.03-2.577-1.701-2.07a4.043 4.043 0 01-2.332-.424c-1.4-1.735-2.029-2.303-2.122-4.982-.098-2.842 1.548-3.845 2.18-6.12 2.054-1.4 2.007-2.775-.14-4.123a9.736 9.736 0 01-1.444-4.697c-.408-6.27 5.314-8.796 9.678-12.112-7.814-.859-7.516-10.024-2.11-14.03 5.605-4.154 17.47-2.453 24.247-1.516 1.41.193 5.216 2.011 6.641.852.874-.71.257-6.715.297-7.775.092-2.406.677-5.275.293-7.669-.802-5.012.898-2.488-2.71-2.627-8.587-.333-19.522 7.163-27.077 10.697-8.456 3.956-13.89 4.564-13.978 14.373-.085 9.287-2.69 18.541-3.826 27.68-.497 3.992-.852 24.729-8.157 17.076-2.832-2.968-1.017-7.532-.807-11.193.286-5.037.116-10.153.289-15.204zM137.768 568.71c4.18.742 10.99-1.658 15.55-1.91 7.974-.438 16.187-1.198 23.999-2.857 6.112-1.299 13.077-2.442 16.373-8.358 2.947-5.287 3.988-11.909 5.575-17.679.843-3.063 3.017-7.506 3.017-10.675 0-4.121-.556-3.31-4.853-5.565-5.44-2.853-10.731-6.83-16.598-8.449-1.775-.347-3.55-.686-5.328-1.02-2.298-1.333-3.596-.677-3.897 1.966-2.244 2.365-3.559 6.726-5.442 9.493-4.292 6.309-9.39 10.608-16.048 14.246-11.983 6.545-23.148 11.596-35.982 15.876-7.073 2.358-13.595 5.667-20.508 8.267-5.539 2.083-13.183 2.716-17.437 7.353-4.8 5.23 2.578 7.133 6.679 10.669 3.36 2.898 3.426 3.563 8.022 2.156 3.425-1.048 6.46-3.052 9.75-4.411 11.264-4.653 24.898-7.75 37.128-9.102zM395.21 651.68c-4.198-.909-8.397-1.816-12.595-2.723 4.129 7.708 12.812 18.986 6.58 27.906-2.33 3.333-6.204 4.284-9.665 5.974-4.19 2.047-8.057 4.668-12.017 7.107-16.33 10.055-32.926 20.251-50.133 28.88 5.387 1.738 13.67 2.94 19.217 1.426 6.46-1.765 12.442-5.816 19.074-7.587 11.899-3.175 24.424-5.88 36.512-7.509 9.881-1.331 34.615 1.677 33.414-13.183-1.141-14.11-9.568-27.57-12.076-41.518-6.154 1.367-12.024 1.128-18.311 1.227zm250.239-225.82c4.785-23.486 7.644-47.37 13.288-70.688 2.816-11.632 4.8-23.424 7.55-35.06 1.28-5.413 2.248-10.879 3.494-16.282 1.263-5.47 3.98-10.518 4.6-16.173-4.572 1.131-5.63 11.605-7.016 15.545-2.542 7.228-5.316 14.174-8.583 21.094-5.194 11-10.705 21.613-16.564 32.278-6.178 11.249-12.703 22.066-20.421 32.338-2.536 3.376-5.977 6.02-7.612 9.723-2.57 5.824-3.65 12.766-6.105 18.827 1.729.878 6.195 1.096 8.315 1.515 3.944.778 6.707 1.47 10.495 3.345 6.673 3.304 12.28 7.22 16.738 13.164 1.12-3.051 1.412-6.397 1.82-9.626zM459.452 605.053c-.08-22.619-.4-45.431-.029-67.882.102-6.234.61-12.96 1.514-19.147.567-3.888 3.908-12.154 1.712-14.018-1.876-1.594-11.782-.544-14.213-.6-4.714-.11-9.414-.32-14.138-.675 0 8.383 3.275 17.902 4.797 26.194 1.418 7.735 2.584 15.513 3.755 23.284 2.534 16.827 3.255 33.886 6.007 50.758 2.492 15.298 5.78 30.532 7.594 45.828.995 8.396 3.009 16.318 4.573 24.71.818 4.375 3.797 22.398 7.55 24.17.793-6.465-2.448-14.272-3.029-20.81-.598-6.749-1.062-13.544-2.157-20.329-1.285-7.965-1.934-16.127-2.427-24.19-.3-4.935-.392-9.854-.819-14.785-.308-3.578-1.662-9-.69-12.508zm117.875-302.461c.156-2.463-6.22-2.364-7.406-5.195-2.409-5.749 3.08-4.714 6.456-5.309-1.203-3.197-23.739-2.033-18.488-10.663 3.642-5.988 17.453 3.177 21.145-2.513 2.425-3.737-4.177-4.252-6.795-4.626-3.94-.565-13.223 1.26-12.918-3.853.385-6.424 18.431-10.858 23.493-12.745-.561-4.399-22.28 1.854-25.423 3.637-7.114 4.036-12.565 11.278-13.609 19.326-1.216 9.364 3.533 16.739 12.886 19.037 3.9.958 6.782 1.064 10.39 2.505 2.375.947 10.059 3.309 11.686.92l-1.417-.521zm127.5-58.245c.36-3.999 3.727-11.527-.152-14.154-5.427-3.677-7.676 2.382-8.906 6.022-1.504 4.444-7.826 15.322-2.298 18.091 1.286.644 7.38-.106 8.455-.53 2.995.78 3.96-.341 2.902-3.367v-6.062zM572.37 567.283c-.34-10.93 4.553-24.07 7.326-34.774 3.144-12.129 4.8-24.499 8.13-36.495-3.704.447-7.443.811-11.104 1.554-4.994 1.015-5.084.855-4.725 5.754.536 7.357-.166 14.57-.546 21.925-.76 14.725 1.093 29.692-.14 44.324 1.1.28 1.452-.484 1.06-2.288zm138.276-286.441c12 1.837 23.5 5.64 34.418 10.752 6.019 2.817 12.648 5.845 19.374 6.97 7.472 1.25 15.397.664 23.028 1.146 2.69.17 9.762 1.477 12.385-.105 2.598-1.568 2.395-4.224 2.517-7.391.315-8.145-3.372-16.12-6.687-23.428-2.844-6.27-4.994-11.057-9.407-16.45-5.667-6.927-10.602-14.402-15.91-21.632-4-5.45-8.044-10.821-12.123-16.264-2.917-3.898-2.779-5.239-7.177-4.803-4.33.43-8.69 2.99-12.769 4.346-6.054 2.014-13.385 3.12-18.906 6.339-3.569 2.082-3.728 2.465-3.687 6.098.04 3.384 1.13 7.512 3.154 10.16 4.206 5.495 11.177 8.404 17.16 11.146 3.46 1.585 6.45 3.834 9.532 6.022 3.319 2.358 10.016 3.747 12.556 6.435 7.395 7.828-6.067 6.28-9.828 6.045-8.117-.51-16.19-.433-24.367-.44-8.925-.005-17.779-.42-26.578-.13-5.154.17-11.067-2.444-14.406-6.801-1.616-2.11-2.247-4.106-4.36-6.296-2.771-2.867-5.18-5.888-8.551-8.107-5.515-3.63-15.536-5.685-22.1-4.33 2.35.328 13.406 4.092 8.539 8.823-.593.576-7.704.953-9.25 1.663-2.79 1.281-6.306 3.143-7.942 5.848 4.764-.798 22.432-1.722 13.419 7.419-2.212 2.244-8.565 4.483-3.16 6.869 1.242.548 3.727-.228 5.326.266 2.375.736 4.317 2.703 6.543 3.752 6.313 2.978 15.015 4.814 21.603 4.162 9.11-.904 18.605.723 27.654 1.916zm-241.6 275.425c.31 13.13-.163 26.34.117 39.53.3 14.088 2.107 27.894 2.968 41.84.774 12.498 2.461 24.759 3.832 37.198.789 7.165 1.698 14.016 2.91 21.127 1.136 6.654 1.33 12.517-6.625 14.306-15.208 3.422-17.571-18.457-20.51-27.676-4.388-13.758-7.202-28.201-9.376-42.464-4.047-26.562-9.429-52.755-11.529-79.542-1.293-16.495-3.168-32.821-4.232-49.301-.208-3.23.615-8.205-2.22-9.644-1.707-.863-6.405-.87-8.558-1.497-5.998-1.745-11.532-4.314-17.385-6.98 4.154 21.72 5.526 43.333 8.642 65.244 1.653 11.626 4.817 23.673 7.559 35.117 2.84 11.857 3.472 24.625 6.75 36.224 1.443 5.113 2.666 7.196.57 12.443-2.57 6.442-.865 7.983 2.358 14.31 5.929 11.638 10.455 25.373 9.45 38.494-.82 10.716-8.916 16.325-18.946 19.217-12.546 3.615-25.683 3.188-38.305 7.294-10.996 3.576-22.17 6.219-32.848 10.94-4.306 1.904-8.397 4.163-13.178 4.513-6.558.476-10.98-3.33-17.173-4.123-3.871-.494-9.54 1.353-11.77-2.705-1.767-3.217.234-10.237 2.453-12.827 6.234-7.277 18.719-13.618 27.126-17.913 9.69-4.949 19.066-11.144 28.044-17.532 5.442-3.873 10.992-7.589 16.43-11.469 3.596-2.568 4.963-2.584 4.596-6.664-.293-3.253-1.76-6.409-2.016-9.74-.196-2.552.698-6.03-.508-7.696-.887-1.228-4.217-2.095-5.526-3.025-4.788-3.394-5.876-7.593-8.05-12.756-4.939-11.727-10.613-23.124-15.382-34.945-10.24-25.38-16.488-52.068-24.977-77.967-8.672-26.459-16.427-54.235-21.203-81.686-6.391 1.944-12.423 10.55-17.513 14.809-6.876 5.755-13.922 11.32-20.665 17.233-11.053 9.692-22.245 19.118-31.379 30.726-4.4 5.59-8.004 11.607-11.988 17.48-2.301 3.393-4.447 7.234-6.94 10.462-.4.518-.41 1.582-.842 2.023-.95.969-2.762-.322-3.37.317-3.756 3.927-3.707 15.078-4.877 20.26-1.613 7.142-3.424 15.353-9 20.275-8.613 7.602-24.499 8.78-35.4 9.175-13.99.506-27.56 4.405-40.834 8.592-6.19 1.952-12.22 4.237-18.434 6.132-3.574 1.093-7.651 3.269-11.468 2.85-4.603-.504-8.238-4.377-11.61-7.256-5.393-4.605-10.387-9.144-10.213-16.7.194-7.998 4.527-14.034 11.352-18.007 13.195-7.681 27.953-12.604 42.176-17.912 5.45-2.035 10.116-4.287 15.328-7.026 7.363-3.872 15.84-7.032 22.373-12.144 1.926-1.509 9.006-6.13 9.61-8.513.079-.31-1.69-3.95-1.698-4.527-.018-1.485.861-3.093 1.402-4.364 3.403-8 9.111-15.704 13.475-23.248 7.992-13.819 16.015-27.71 25.281-40.706 18.477-25.911 39.233-51.282 61.635-73.9 10.921-11.027 20.359-23.534 31.433-34.408 4.388-4.307 9.02-7.815 14.426-10.61 6.027-3.117 12.792-3.728 19.7-4.68 16.74-2.304 30.72 2.648 46.437 6.957 14.857 4.073 29.731 7.51 44.672 11.752 16.408 4.659 32.648 9.128 49.004 14.206 8.74 2.713 17.73 4.378 26.511 6.982 4.228 1.252 20.213 9.102 23.738 6.523-11.105-5.21-22.481-9.96-34.362-13.105-3.499-.926-5.734.099-5.604-3.919.071-2.191 2.534-5.15 3.42-6.953 2.123-4.319 4.527-8.539 6.604-12.87-7.532 2.139-27.777 9.54-33.453 1.889-5.94-8.01-.98-23.713 2.742-31.555 9.718-20.471 26.246-37.554 42.35-52.986 3.483-3.336 10.992-7.693 12.849-11.943.564-1.292-.664-3.19.61-4.868.757-.999 3.799-1.681 5.015-2.757 4.428-3.92 7.96-12.168 11.02-17.307 3.205-5.382 6.093-11.21 10.12-16.04 6.586-7.895 13.386-16.265 24.052-18.112 5.23-.905 10.786-.422 15.8-2.229 6.062-2.185 11.823-5.627 17.945-7.89-1.519-3.123-2.75-8.088-5.697-8.429-2.837-.33-6.998 2.11-10.245 2.092-4.743-.026-8.791-.784-13.368-1.688-5.066-1.002-6.734-.82-8.58-6.315-1.937-5.756-1.45-12.442-1.433-18.42.008-2.923.587-6.55.338-9.417-.373-4.32-1.213-4.487-4.6-7.235-4.232-3.433-9.449-7.976-4.265-13.941 2.801-3.224 8.557-.717 11.038-4.18 2.527-3.528 2.405-12.39 3.175-16.533-7.79 3.83-4.934-10.486-4.935-13.93-.001-5.013-3.36-14.027 1.475-18.196 2.247-1.936 3.916-.335 6.486-1.447 2.931-1.27 4.777-4.6 7.896-5.891 6.199-2.567 12.529.524 18.894.013 7.3-.584 14.471-1.713 21.812-.541 3.478.553 4.942 1.874 7.885 3.355 2.83 1.424 5.701 1.814 8.775 2.73 2.735.816 5.133 1.229 6.98 3.612 1.462 1.886.867 5.058 2.342 6.683 1.455 1.602 4.334 1.37 6.068 3.271 1.666 1.826 2.662 4.843 3.527 7.114 1.17 3.06 1.306 4.21 3.365 6.658 1.795 2.137 4.38 3.856 5.877 6.294 3.529 5.746 3.62 14.056 2.493 20.52-.383 2.201-3.573 7.89-3.074 9.764.475 1.783 3.467 1.314 4.822 2.441 1.17.975 2.2 5.316 3.124 5.58 1.994.573 4.454-3.366 5.966-3.957 2.626-1.027 3.725-2.08 5.18 1.79 1.078 2.873-.424 6.772-1.215 9.513-1.006 3.49-2.118 7.693-4.784 10.332-3.134 3.102-5.643 1.406-9.101 3.077-5.183 2.504-3.654 10.334-10.031 12.572-6.077 2.132-12.772-4.576-17.37-7.66.953 7.486 4.537 14.7 2.817 22.372 13.977-5.476 27.8-13.248 43.033-14.96 7.767-.874 15.614-1.908 22.946 1.316 8.582 3.774 13.84 12.099 19.649 19.016 10.917 13 22.119 25.635 32.597 39.054 9.611 12.309 17.714 26.571 28.293 38.096 10.727 11.688 18.822 30.65 17.647 46.835-.105 1.461-1.237 4.78-1.06 6.355.138 1.207 1.235 2.737 1.218 3.71-.06 3.275-1.142 5.16-4.264 6.977-5.411 3.152-13.475 4.747-19.591 5.53-8.126 1.039-18.077 1.15-26.207.04-8.384-1.146-15.754-5.839-23.464-8.675-6.764-2.49-13.556-4.043-20.663-5.63-3.92-.877-8.26-3.302-10.682-.955-2.225 2.157-2.687 13.225-3.205 16.168-5.623 31.899-12.305 62.717-18.223 94.453-6.707 35.972-11.293 71.93-15.958 108.207-4.24 32.977-5.625 66.326-6.574 99.272-.452 15.716-.518 31.263-.422 46.992.054 8.808 4.457 38.208-8.6 39.333-7.673.664-13.811-10.337-15.867-16.336-3.089-9.014-4.698-18.72-5.19-28.189-.997-19.169-2.303-38.352-3.077-57.528-.837-20.776.228-41.935 1.936-62.642 1.719-20.846 6.05-41.388 7.378-62.265-3.985 5.687-5.26 6.756-11.898 9.232-6.946 2.594-13.628 5.661-20.636 8.079-2.385.822-6.106 1.337-8.06 2.684-3.607 2.484-1.238-.335-2.39 4.5-1.23 5.166-1.461 11.367-1.788 16.675-1.536 24.91-8.437 49.643-11.62 74.421-.768 5.983.329 31.38-9.968 23.376-7.929-6.164-7.772-25.525-8.9-34.594-1.501-12.089-.665-24.518-.427-36.68.27-13.851.503-28.379 3.808-41.903-5.914-1.012-14.139 1.745-20.09 2.209-5.155.4-10.29.656-15.416.938-12.221.67-24.81 1.206-37.238.966-2.262-.044-17.043-2.113-18.932-.445-.614.542-.801 7.994-.916 8.905-.435 3.424-1.025 6.845-1.465 10.25-1.404 10.886-2.671 22.575-2.269 33.457z"/><path d="M688.546 659.718c9.328 3.645 19.227 4.968 28.633 8.289 8.41 2.969 16.219 6.96 24.499 9.977.484-3.841.742-10.345-.677-13.965-2.008-5.127-7.293-5.252-12.497-7.078-12.666-4.444-25.989-5.38-38.563-10.572 2.153 4.144 1.192 9.631-1.395 13.35m161.01-13.406c-20.144.591-39.395 5.279-59.248 8.178-9.661 1.41-19.331 2.669-29 3.985-3.722.506-10.504-.09-13.209 3.13-2.242 2.67.215 11.778-.78 15.69 4.071.3 11.3-3.504 15.72-4.134 6.88-.978 13.672-2.349 20.625-2.785 11.012-.694 21.831-1.284 32.824-2.51 11.18-1.246 21.997-3.562 33.265-4.408 5.477-.412 7.68.615 8.003-5.168.127-2.26.437-6.045-.197-8.275 1.013-2.74.114-4.071-2.697-3.993a15.88 15.88 0 00-5.305.29m-38.962-18.455c5.448-.51 10.918-1.244 16.38-1.55 1.107-.064 6.724.275 7.641-.755 1.299-1.456-.148-6.784-.386-8.432-.81-5.605-1.705-8.865-7.82-8.877-5.16-.013-10.502 1.079-15.642 1.582-23.333 2.287-46.548 3.252-69.624 7.595 1.405 5.982 3 12.153 1.32 18.27 11.07.571 23.222-1.559 34.04-3.744 11.058-2.233 22.79-3.342 34.091-4.09m-36.93-56.317c-8.337.037-17.148 3.709-25.374 2.89-.123 1.53 2.51.26 3.237 1.693 1.553.004 2.094.51 1.62 1.523.029.69-.324 1.095-1.06 1.212l-1.087.094c-1.59.052-1.852 1.124-.781 3.221-.46 2.598.23 5.898.33 8.505 14.783-2.011 29.145-4.104 44.033-5.002 7.028-.423 14.051-.422 21.07-1 7.724-.637 16.155.728 23.705-.718 4.037-.774 3.614-.72 3.32-5.97-.18-3.188-.113-6.974-2.71-9.3-4.336-3.885-14.21-1.64-19.395-1.503-15.618.413-31.5 1.864-46.908 4.355m8.533 74.96c22.333-2.027 44.498-6.47 66.957-6.47-1.588-1.586-5.047-1.995-7.023-2.861-2.254-.986-4.38-3.087-6.583-3.95-4.42-1.73-8.916.674-13.455 1.713-10.949 2.507-22.183 2.592-33.15 5.052-11.337 2.541-22.822 4.885-34.369 6.177-5.498.615-11.397 1.862-16.83.41l-1.324-.945c-.475-2.022-1.793-2.562-3.955-1.62-2.746-.523-6.242.152-9.007.221-.112 1.104 10.1 4.567 12.048 5.425 4.692 2.066 7.873 3.578 12.884 2.693 11.283-1.993 22.381-4.372 33.807-5.844m-78.56-65.293c.872 3.402 4.537 1.854 7.692 2.23 4.235.5 8.448 1.962 12.55 3.063 7.449 2.002 14.9 3.976 22.317 6.092-.292-2.996.37-9.815-1.212-12.473-1.662-2.786-9.537-4.007-13.204-4.857-9.245-2.139-19.12-.922-28.51-.472.166 2.137.289 4.274.366 6.417m88.797 21.285c8.771-.743 17.552-1.32 26.348-1.63 10.057-.352 2.747-1.959 2.535-8.092-13.218 2.108-26.552 2.524-39.729 4.326-10.916 1.495-23.92 5.397-35.055 3.3-5.252-.987-10.614-1.368-16.201-1.927-5.27-.527-10.244-2.982-15.45-3.592-5.845-.685-11.816 2.6-17.63 3.468-2.464.368-3.037 2.04-4.2-.927-1.207-3.077 2.249-5.591 3.61-7.431 1.59-2.149.929 1.34 1.812-2.016.247-.94-.423-3.303-.546-4.316-.312-2.561-1.117-5.34-1.242-7.896-.116-2.348-.136-5.932 2.413-7.302 1.555-.836 2.658.383 4.014.147 10.585-1.84 23.035-1.992 33.77-.215 11.637 1.925 21.653-3.172 33.123-5.24 13.456-2.424 27.052-2.787 40.624-3.812 11.605-.875 32.807-5.417 37.228 9.405 1.252 4.2 3.076 15.762-.292 19.335-4.42 4.693-14.653 3.195-20.368 4.415.855 2.431 3.4 4.085 2.52 6.98 8.008.38 9.424 7.944 10.679 15.006 1.298 7.307-1.234 10.211 5.749 14.016 9.732 5.303 20.042 10.658 19.851 23.287-.095 6.35-.806 15.926-7.325 19.22-6.378 3.223-16.764 2.678-23.793 3.848-13.612 2.267-27.272 4.926-40.967 6.287-14.582 1.45-29.407 2.639-44.014 3.286-7.958.355-14.833 1.557-22.52-1.121-7.556-2.633-14.948-4.556-22.745-6.511-7.697-1.928-31.26-4.525-24.394-17.689 1.098-2.106 4.854-3.78 5.46-5.772.978-3.213-2.326-5.72-2.188-8.623.252-5.312 6.245-5.978 10.383-5.978-7.093-4.436 2.405-9.688 2.349-13.454-.1-6.635-8.352-10.942-8.819-16.504-1.135-13.536 41.804.558 48.413 3.486-5.087 7.543-28.687 1.016-35.716-.128.959 2.519 1.876 4.783 2.153 7.362.225 2.101-.578 4.503.157 6.618 1.16 3.344 1.12 2.704 5.227 3.616 3.038.674 6.042 1.453 9.07 2.168 4.652 1.097 11.969 4.042 16.578 3.881 4.043-.14 3.244 1.113 3.985-3.377.4-2.413-.281-4.978-.688-7.342-.849-4.954-2.09-9.643 2.236-13.197 4.125-3.39 12.82-5.004 17.88-6.2 11.23-2.652 24.193-3.302 35.715-3.165"/><path d="M845.875 517.936c-12.197-2.044-24.59-2.547-36.93-1.928l2.008 9.159c11.56-2.977 23.29-4.722 34.922-7.231zm-99.177 23.688c-4.89-.358-1.488 1.83-.28 5.031 1.484 3.933 1.166 8.906 1.507 13.046 14.311-5.457 30.962-8.65 46.178-10.488 7.216-.87 14.537-1.12 21.793-1.492 2.145-.11 9.89.788 11.46-.655 1.165-1.073.348-6.993-.772-8.3-6.09-7.099-29.632-.97-38.15-.333-13.964 1.043-27.674 3.538-41.736 3.191zm20.326-19.024c12.672 1.217 24.908 1.101 37.58 3-.96-8.055.188-10.111-8.95-10.539-8.143-.38-16.26-.688-24.365-.684-18.227.01-36.41-.338-54.658-.338v8.186c16.876-1.728 33.484 1.393 50.393.375zm-60.935 30.103c7.997-.034 15.556 2.983 23.554 3.765 4.787.468 3.283 1.062 6.604 3.466 5.172 3.744 6.662 1.75 6.013-3.338-2.197-17.21-23.986-13.35-36.542-14.307.825 4.104-1.072 7.584-3.866 10.414h4.237zm86.442-22.095c-11.503.186-23.02.84-34.442.601-5.113-.107-11.737-1.12-16.748-.248-3.67.638-6.741 2.508-10.767 3.203 5.914 3.185 8.912 1.033 15.13.308 6.212-.723 12.516-.71 18.754-1.087 10.243-.62 21.162-3.074 31.254-2.406.184-1.422-.875-1.546-3.18-.371zm-91.236 37.272c-5.278-.012 1.984-6.014 2.937-6.61-5.843 0-7.258-3.504-5.565-9.134 1.595-5.303 2.775-3.68-1.238-8.096-3.021-3.325-3.478-5.775.083-9.493 3.624-3.782 10.964-2.712 14.175-5.834 5.467-5.314-1.588-15.897 5.987-19.968 5.12-2.75 13.375-2.41 19.028-2.991 5.464-.562 11.12-.67 16.62-.745 11.99-.164 24.446 1.847 36.383 2.954 4.353.402 9.245 2.16 13.533 2.164 4.373.005 8.953-.97 13.468-.857 5.249.132 10.305-.255 15.718.606 4.147.661 13.83 1.008 17 4.091 10.562 10.274-14.485 14.992-18.795 16.146 4.386 4.805 4.204 11.157 3.543 17.206 2.088 0 5.687-.909 6.767 1.433 1.343 2.907-3.625 3.663-4.8 4.002-6.758 1.952-14.667 1.417-21.63 2.126-13.924 1.417-27.679 2.234-41.457 4.872-6.715 1.285-13.39 2.876-20.1 4.127-1.158.217-2.323.39-3.493.521-1.796-.153-2.376.973-1.743 3.386-1.863.91-8.807-1.357-10.954-1.704-12.292-1.994-23.289-1.166-35.467 1.798zM949.514 687.245c-7.928 6.24-15.298 12.127-23.884 17.548 6.07-.19 26.254-9.869 23.884-17.548m-3.096-10.169c-4.327-3.718-8.626-3.338-13.982-4.465-4.932-1.038-9.725-2.825-14.647-4.015-3.863-.933-7.686-2.195-11.535-3.077-5.435-1.246-5.971.126-10.97 2.973-17.726 10.103-37.563 17.052-56.234 25.252 5.482 4.826 17.814 5.034 24.665 6.573 5.003 1.122 9.763 2.658 14.554 4.435 4.462 1.657 11.65 5.466 16.355 5.593 3.971.107 7.2-3.801 10.62-5.906 4.497-2.77 8.975-5.492 13.508-8.193 9.593-5.716 18.562-12.72 27.666-19.17m-80.11 40.92c-2.047-1.968-8.206-1.882-10.772-2.483-5.054-1.18-10.034-2.408-15.156-3.295-8.311-1.438-21.44-2.081-22.343-12.864-.752-8.96 10.075-11.087 16.408-14.123 9.523-4.567 19.24-8.781 29.004-12.809 9.155-3.774 18.444-6.967 27.766-10.229 1.818-.636 3.294-.548 4.778-2.004 1.171-1.148.81-3.377 2.093-4.577 2.938-2.748 6.75-1.302 10.282-.597 8.019 1.599 16.345 3.699 23.99 6.666 7.945 3.083 15.051 3.727 16.96 12.734 4.062-1.906 7.117-2.183 6.631 3.417-.142 1.646-1.337 3.436-1.624 5.133-.422 2.502.317 5.14-.1 7.648-1.52 9.12-13.82 15.877-21.44 19.459-9.397 4.415-21.522 10.94-32.014 11.802-11.18.919-23.364-3.472-34.463-3.877"/><path d="M724 566.677l-10 .063c3.326-.625 6.66-.632 10-.063M529 214l-3 5c.34-2.148 1.103-3.989 3-5M724 614.474a3878.009 3878.009 0 010 0M770 505.69l-7-.38 7 .38M730 566.726l-6-.056a10.822 10.822 0 016 .056M809.585 283c-.057-2-.112-4.002-.17-6 .059 2.002.114 4 .17 6M469.562 585l-.123-5 .123 5M524 503.498c1.338 0 2.673.002 4 .005-1.34 0-2.67-.003-4-.005M703 144.319l-5 .362 5-.362M829 509.52l-6-.04 6 .04M660.575 633l-.15-4 .15 4M662.554 582l-.108-4 .108 4M628.428 605l.144 4-.144-4M532 502.52l3-.04-3 .04M822 554.565l3-.13-3 .13M630.415 637l.17 4-.17-4M737.601 630l-.202 4 .202-4M622.345 34.147l-4.24-.539c1.4.324 2.936-.877 4.24.539M475.603 669l-.206-4 .206 4M799 556.531c1.005-.021 2.007-.043 3-.062-1.006.022-2.003.042-3 .062M459.49 314c.008 1.336.014 2.671.02 4l-.02-4M687.743 606c-.036 1.335-.071 2.67-.11 4-.547-1.371-.485-2.7.11-4M501 504.5h3-3M661.516 600l-.032-4 .032 4M866 718.458l3 .084-3-.084M830 591.518l2-.036-2 .036M805 594.502l2-.004-2 .004M415.56 601l-.12-3 .12 3M825 600.241c-.869.88-1.986.36-3 .416l3-.416M706 568.247c-1.32.624-2.655.71-4 .043l4-.043M793 602.517l-4-.034 4 .034M737 567.682l-4-.364 4 .364M661.423 617l.154-3-.154 3M799 559.332l-4 .336 4-.336M469.542 556l-.083-3 .083 3M636.618 479l-.236 3 .236-3M819 509.26c-1.336.692-2.668.605-4-.007l4 .007M660.589 648l-.178-3 .178 3M660.563 656l-.126-3 .126 3M471.479 524l.042-3-.042 3M756 683.528c.67-.02 1.339-.038 2-.056-.673.02-1.336.038-2 .056M433.581 692l-.162-3 .162 3M650 700.48c.67.014 1.34.025 2 .04-.672-.012-1.336-.026-2-.04M795 508.651l-4-.303 4 .303M802 509.707l-3-.414 3 .414zM650.416 615l.168-9-.168 9M400 651.469c-1.67.02-3.34.04-5 .062l5-.062M537 452.538c-1.671-.026-3.341-.053-5-.077 1.675.027 3.338.053 5 .077M516 451.467l-4 .066 4-.066M408 651.51l-4-.02c1.342.008 2.67.014 4 .02M588 140.673c1.666-.116 3.334-.23 5-.347l-5 .348M610.407 258l.186-5-.186 5M570 273.499l-3 .002 3-.002M462 489.337l4 .326-4-.326M459.469 540c.02-1.335.043-2.668.063-4l-.063 4M574 486.696l4-.392-4 .392M665.381 463l.238-4-.238 4M683 278.655c1.334-.103 2.666-.208 4-.31-1.334.102-2.666.206-4 .31M571.692 564c2.186 5.42.959 1.582 1.015 2.833-1.862.25-2.201-.695-1.015-2.833M480 448.555c-1.002-.036-2.007-.072-3-.11 1.01.036 2.003.072 3 .11M684.406 347l.189-4-.19 4M459.505 605l-.01-4 .01 4M459.395 575l.21-3-.21 3M667.36 444l.28-3-.28 3M446.366 578l.268 3-.268-3M444.352 570l.296 3-.296-3M644.388 433l.224-3c-.076 1.002-.15 2-.224 3M134 568.658a12184.412 12184.412 0 000 0M651.389 596l.223-3c-.075 1.002-.15 2-.223 3M645.342 429c.105-1.001.212-2.001.316-3l-.316 3M142 567.697l4-.394-4 .394M566 452.489l-2 .022 2-.022M459.505 566l-.01-3 .01 3M653.578 564c-.355-1.034-.529-2.053.156-3l-.156 3M636.543 545l-.086 3c.03-1.003.058-2.002.086-3M637.407 644l.187 3-.188-3M711 280.286l3 .428-3-.428M707 280.38c1.342.08 2.816-.564 4 .38l-4-.38zM536 491.51l4-.02-4 .02M566 279.327l4 .346-4-.346M500 491.239l4 .018c-1.339.644-2.672.707-4-.018M609.478 281l.044-3-.044 3M525 491.661c1.334-.106 2.667-.214 4-.322-1.334.108-2.666.216-4 .322M638.466 668c.023 1.001.046 2.002.067 3-.021-1.004-.044-2.001-.067-3M642 255.69l4-.38-4 .38M659.363 511c.092-1 .184-2.002.274-3l-.274 3M705.385 244c.078-1.002.154-2.002.23-3l-.23 3M610.471 158c.019 1 .037 2.003.058 3l-.058-3M575 139.334l4 .333-4-.333M375 707.696l4-.392-4 .392M331 720.72c1.335-.688 2.667-.492 4 .005l-4-.005M850 662.679l7-.358-7 .358M850 645.454l-4 .092 4-.092M830 625.62l5-.38c-1.555.977-3.333.254-5 .38M811 627.681l5-.362-5 .362M783 645.656l4-.312-4 .312M790 645.659l4-.317c-1.333.105-2.667.21-4 .317M795 644.677l4-.354-4 .354M802 610.491c-1.003.007-2.006.014-3 .018 1.007-.008 2.004-.013 3-.018M827 665.582l4-.338c-1.244.874-2.65.371-4 .338M789 585.691l4-.382-4 .382M774 571.495c-.67.005-1.339.008-2 .01l2-.01M750 574.281c-.336.822-2.103.717-1.995-.127l1.995.127M703.439 578l.122 3-.122-3M840 583.3c1-.016 2-.032 3-.05-.988.707-1.99.608-3 .05M802 568.486c-.67.01-1.339.02-2 .028l2-.028M776 631.687l4-.374-4 .374M760 633.674l4-.348-4 .348zM838 663.688l4-.376-4 .376M790 669.709c1.336-.488 2.671-.655 4 .012l-4-.012M787.88 531.868l-1.88-.65c2.333-.03 4.667-.058 7-.086.005 0-4.851.757-5.12.736M770 514.502l-5-.003 5 .003M707 552.727c1.664-.666 3.33-.536 5-.018l-5 .018M808 536.482l-3 .036 3-.036M787 523.337c1.668.108 3.335.218 5 .327-1.666-.11-3.334-.219-5-.327M766 533.677c1.667-.118 3.334-.235 5-.354-1.666.119-3.333.236-5 .354M768 522.336l4 .328-4-.328M749 541.521l-2-.042 2 .042M770 531.563l-2-.125c.672.04 1.336.083 2 .125M757 531.527c-.67-.019-1.34-.038-2-.055.672.02 1.336.037 2 .055M793 530.597c0 .26 3.012-1.055 3 .167l-3-.167zM782 514.498l-2 .003c.673 0 1.336-.002 2-.003M427 467.076c1.083-4.419.788-7.877 4.644-5.053 2.117 1.55 5.607 9.413 5.342 12.076-.326 3.285-1.824 4.594-4.916 3.549-3.554-1.204-4.964-7.266-5.07-10.572M621.83 440.247c8.956 0 5.048 9.531-2.417 9.744-3.43.099-8.365-.578-7.253-5.17.594-2.45 9.296-5.755 9.67-4.574M525.774 459c6.465 3.128-2.63 16.863-8.505 13.463-7.522-4.352 5.847-11.503 8.505-13.463M510.044 472c2.116 2.308 11.652 10.133 6.396 13.28-6.464 3.87-11.384-8.904-6.396-13.28M401.678 466c-2.103-4.067.79-14.71 7.213-12.765 6.462 1.959-3.657 11.685-7.213 12.765M544.34 468.344c4.193-1.688 3.394 3.306 4.028 4.917.718 1.83 4.41 6.288 3.484 8.236-1.374 2.89-4.66 1.048-6.443-.828-3.127-3.29-2.905-8.569-1.069-12.325M480.44 472.973c-3.494 0-11.837-10.076-6.935-11.767 6.084-2.098 11.17 12.507 6.935 11.767M601.208 457c3.2.79 7.437 9.851 2.613 10.902-5.34 1.165-6.293-8.396-2.613-10.902M581.803 474c-2.51-4.834-3.129-15.182 3-6.876 1.328 1.799 2.698 1.071 2.016 4.039-.596 2.591-2.975 2.837-5.016 2.837M449.585 449c2.558 3.85 1.803 15.926-3.543 8.784-2.274-3.036-.708-8.64 3.543-8.784M578.188 86.098c4.964-1.282 6.154 10.421 3.26 11.711-4.054 1.806-3.546-9.754-3.26-11.711M892.156 680.65c-4.607-.27-11.06-1.527-4.082-4.796 4.427-2.072 11.01-2.216 15.685-1.366 3.223.586 8.058 3.257 3.14 6.72-2.878 2.025-11.243-.46-14.743-.559M886.993 689l-3.993-.45c1.068-1.938 4.171-2.345 3.993.45M893 680.457l4 .087-4-.087"/></g></g></svg>