<svg width="1024" height="768" xmlns="http://www.w3.org/2000/svg"><g fill="none" fill-rule="evenodd"><path d="M281.53 633.818c.12-40.625.9-81.264 2.271-121.865 1.018-30.092 2.322-60.206 4.845-90.214 1-11.888 2.161-23.786 3.99-35.58 1.133-7.301 2.174-15.257 5.255-22.055 1.01-2.226 1.983-3.672 4.13-4.81 7.935-4.212 18.808-4.832 27.557-5.72 14.344-1.458 28.863-1.877 43.277-1.58l-2.533 46.51-1.95 35.822c-.41 7.537-1.4 15.288-1.245 22.837.127 6.15 7.36 12.036 11.035 16.837l13.528-41.378c2.384 6.155 4.932 12.258 7.704 18.248 1.83 3.952 3.691 8.019 6.116 11.65 2.216 3.319 2.865 3.787 6.716 3.22 4.636-.68 8.156-2.055 10.896 1.39 2.43 3.055 4.691 6.171 7.327 9.072 29.107 32.012 73.961 51.894 115.522 60.888 24.48 5.295 49.173 9.596 73.642 14.997 37.36 8.246 75.734 16.378 111.417 30.472 5.592 2.21 11.245 4.582 16.347 7.797 5.626 3.543 9.644 8.904 13.537 14.212 9.512 12.97 20.663 34.243 5.992 47.78-11.247 10.378-28.82 11.42-43.43 12.588-15.104 1.207-30.26 1.796-45.4 2.288-41.24 1.34-82.52 1.63-123.779 1.67-37.697.029-75.4-.184-113.09-.905-17.099-.327-33.576.07-50.12-4.319-33.863-8.978-67.628-18.327-101.407-27.61l-8.15-2.241" fill="#FF5678"/><g fill="#000"><path d="M625.63 278.773c-1.581 1.644.983 2.91 2.137 3.269-.186-1.586-.951-2.303-2.136-3.27zM408.8 587.823c-.61-1.438-1.52-2.621-3.182-1.942-2.75 1.12 2.813 1.927 3.183 1.942zM647.89 356.11c1.138.14 5.787-.15 4.35-2.68-1.666-2.932-3.956 1.772-4.35 2.68zm-83.366-25.94c2.444-2.094 4.634-5.297 4.66-8.625-2.304 1.529-3.535 6.26-4.66 8.626zm58.607-42.063c2.036.103.173-2.763.193-3.334.042-1.225 1.188-2.277 1.002-3.73-.007-.06-2.06-4.653-2.6-4.945-1.523-.82-2.408.683-3.775 1.148-2.024.689-3.012.08-5.185.293-1.915.187-3.528 1.119-5.53 1.118-.475 0-1.001-1.008-1.547-.952-.851.087-.932 1.172-1.534 1.226-2.115.188-2.238-.652-4.211-1.441-3.28-1.312-5.58 1.74-5.506 5.347.097 4.778 5.08 6.73 8.9 7.829 4.925 1.415 7.66 2.268 12.665 1.377 1.447-.26 2.917.202 4.059-.796 1.535-1.342.72-4.173 2.473-5.481l.596 2.34zm-173.27 190.1c.41 3.123-.448 4.73 2.58 6.823 1.789 1.236 4.037 2.049 5.93 3.287 2.744 1.793 6.855 2.945 9.288 5.007 1.545 1.309 1.82 5.015 3.962 5.464 1.823.38 3.996-2.913 4.62-4.396.693-1.643.23-2.996.512-4.637.189-1.101 1.013-1.33.868-2.624-.151-1.357-1.467-2.074-2.04-3.151-.511-.965-.666-2.334-1.067-3.096-.947-1.793-3.048-5.602-4.921-6.79-1.578 4.143-2.774-.054-4.962-1.27a64.503 64.503 0 00-2.45-.021 46.515 46.515 0 00-1.29-1.184c-1.01-.094-2.671.445-3.581.726a8.188 8.188 0 00-1.521-.2c-.682.199-.953.579-.81 1.139.298-.136-1.35.864-1.507.97-3.253 2.21-6.237 3.093-6.84 7.794l3.23-3.84zm25.37-167.853c-3.477-9.014-2.373-16.956-2.037-26.391.079-2.215.55-6.967-1.764-8.437-2.89-1.833-5.293 2.313-6.802 4.029-2.59 2.945-6.205 5.649-7.532 9.47-1.172 3.373.037 7.51.93 10.85.965 3.6 2.157 8.44 5.434 10.435 3.5 2.129 8.245 1.92 11.772.044zM597.837 502.06c-.501-6.91-10.11-4.488-14.431-2.358-3.231 1.593-5.04 4.022-7.074 6.91-2.31 3.279-3.067 4.195-2.883 8.093.169 3.556-.03 7.133.862 10.67.452 1.797.553 2.114 1.745 3.35-.003-.002 2.064 2.057 1.489 1.728 2.666 1.522 6.642 1.777 9.774 2.013 4.477.336 5.554.397 7.37-3.858.35.74.7 1.48 1.048 2.222.112-.524 1.356-6.74 1.069-6.678-.502.108-1.041 1.554-1.287 1.922.156-2.863 2.194-5.003 3.18-7.556.91-2.347 1.283-5.005 1.984-7.433.678-2.35 1.437-5.62.78-8.058-.871-3.24-1.146-2.317-3.626-.967zm58.014-152.296c1.56 1.47.17 3.85.373 5.672 2.122-1.301 1.386-1.998 2.208-4.115.529-1.363 2.089-3.971 3.45-1.737.574.939-1.32 2.229-.038 2.78.754.325 2.76-2.2 3.127-2.596 2.529-2.738 4.147-5.537 4.356-9.271.058-1.022.043-3.572-.32-4.16-1.051-1.693-3.847-.691-3.607-3.788l3.339 1.66c.346-3.482-3.413-5.543-4.984-8.307-1.79-3.15-2.952-5.44-5.868-8.15-1.346-1.25-3.536-3.827-5.284-4.43-1.36-.467-1.91.224-3.281.237-2.866.027-7.174-.748-2.907 2.432-.867.407-2.006.66-2.745 1.3-.548.476-.753 1.833-1.395 2.158-1.386.7-2.423-.666-3.988.889-1.647 1.639.039 2.672-.328 3.394-1.055 2.077-2.507 1.044-2.46 4.21.077 5.22 3.083 11.399 4.7 16.277.952 2.867 2.015 7.35 6.026 6.175-.152 1.38-.501 2.718.395 3.949.837-.985 1.137-3.147 1.7-4.304.833-1.704 2.187-3.35 3.143-5.007-.14 2.619-.424 3.347-2.204 5.33 2.342.287 5.227 2.164 6.592-.598zm-171.36 75.862c2.149-1.627-.672-3.442 3.566-2.52 1.08.237-.005 1.5 1.627 1.547.616.017 2.127-1.5 2.554-1.855.39-.326 2.147-2.693 2.429-2.846-.472.254 2.132-.755 1.319-.1 1.55-1.25 2.732-3.303 3.429-5.8 1.71-6.121 1.466-13.435-2.08-18.693-1.485-2.204-2.671-4.894-4.91-6.373-3.037-2.006-8.057-3.2-11.45-4.473l1.099-2.671c-9.312 4.209-15.734 14.034-16.518 24.016-.282 3.59-1.305 8.15.882 11.334 2.282 3.323 8.037 6.816 11.215 3.125-.483 2.057.934 4.517 3.108 5.045.822.2 1.598-.397 1.962-.344.463.066 1.44.674 1.769.608zm-85.48-208.41c-6.256-.745-5.286 10.557-4.112 13.95.946 2.739 4.337 6.549 6.13 8.934 2.139 2.84 4.99 4.962 8.024 6.775 1.04.62 1.8.82 2.698 1.167.319-.317.7-.482 1.145-.496.39.652.945 1.14 1.66 1.463 2.276.708 6.04.6 8.302.505 3.644-.154 7.899-2.251 11.524-2.95 1.694-.327 2.637-.46 4.135-1.34.755-.442 2.233-3.857 2.444-.503.934-.575.639-1.521 1.322-1.942.652-.402 2.737-.79 3.514-1.674 1.084-1.234 2.525-4.05 3.279-5.735.485-1.082 1.513-3.87 1.432-4.996-.172-2.385-.941-1.836-2.98-2.824-1.361-.66-2.145-1.213-3.506-1.578-.158-.042-.536.77-.803.7-.467-.12-.655-.658-.982-.763-2.486-.806-5.42-3.195-8.494-2.964-1.327.1-2.57 2.122-3.252 2.019-1.048-.16-.525-2.311-1.256-3.091-1.865-1.986-8.087-1.665-10.503-2.01a1350.247 1350.247 0 00-19.72-2.647zm219.18 171.787c.599-4.69 1.337-9.346-3.805-11.654-1.93-.866-3.536-.553-5.515-.788-2.571-.306-2.197-1.413-4.105 1.346-1.055-1.355-.354-1.795-2.081-1.956-.713-.066-3.824 1.958-4.633 2.289-3.375 1.38-7.673 1.253-10.22 4.038-2.473 2.707-4.474 5.309-5.517 9.002-.526 1.86-.872 3.787-1.522 5.613-.703 1.975-2.284 3.677-2.825 5.652-2.203 8.04 7.162 15.378 13.74 17.51a4.637 4.637 0 012.493.164 7.776 7.776 0 011.544 1.34c2.07.65 2.562.436 4.668-.514 3.472-1.565 7.528-2.098 10.156 1.564.81-4.262 3.77-1.726 5.193-4.471.786-1.514-.931-5.708.064-6.8 1.689-1.852 6.957 1.443 6.82-2.885-.05-1.577-1.841-2.1-2.462-3.345-1.115-2.237-.496-4.605 1.054-6.571.145.339.706 2.568 1.449 1.978 1.97-1.567-1.27-4.035-1.976-4.89-1.165-1.41-2.225-2.485-1.965-4.452.16-1.22 2.118-2.49 2.048-3.675-.054-.903-2.472 1.4-2.603 1.505zm-91.5 50.625c.134 3.287-1.966 3.716-3.35 5.977-.375.616-.4 2.09-.926 2.994-.982 1.693-1.665 1.798-1.98 3.447.035-.184.526 1.634.538 1.84.135 2.32-1.478 4.176-1.034 6.727.623 3.589 3.35 7.586 5.273 10.57 4.347 6.749 10.424 11.98 18.749 12.457 5.56.319 18.64-1.904 19.833-7.717a15.814 15.814 0 01-.797-2.082c-.128-1.033.255-1.738 1.149-2.115a2.691 2.691 0 001.61-1.145 3.956 3.956 0 00-.928-1.56c.154-.777 1.465-.815 1.444-1.317-.04-.934-.861-3.275-1.081-4.34-.382-1.84-.591-3.592-.926-5.444-.272-1.498-1.191-2.238-1.427-3.612-.162-.937.79-1.787.709-2.781a6.907 6.907 0 01-1.525-1.962 3.532 3.532 0 01.573-2.16c-.934-6.536-10.184-12.027-16.764-12.177-3.535-.081-9.571-.335-12.75 1.512-2.125 1.234-3.55 5.61-6.39 2.888zM384.783 670.044c-4.647-2.095-8.81-4.327-13.786-5.344-3.592-.735-6.676-2.753-10.286-3.411-7.997-1.458-16.634-2.803-24.304-5.607-8.224-3.008-17.18-4.085-25.61-6.585-4.15-1.231-7.771-2.038-12.063-2.276-4.182-.231-8.481-2.563-12.661-2.17-3.494.33-5.986 3.015-8.72 4.928-3.545 2.48-7.411 4.62-11.221 6.669-4.043 2.175-8.547 3.265-12.537 5.386-3.313 1.76-6.567 3.478-9.983 5.092-18.15 8.576-35.674 16.587-52.041 28.519 5.278 1.606 11.282.005 16.527-.561 7.455-.806 14.883-1.411 22.264-2.792 4.319-.807 12.749-3.888 16.873-1.52 3.624 2.08 3.346 7.42 3.866 10.992 3.42-1.32 6.827-2.674 10.278-3.914 2.714-.975 7.118-3.656 9.884-3.75 7.705-.261 6.863 10.552 6.113 15.514 4.502-1.53 8.783-2.596 13.147-4.49 3.498-1.52 7.36-1.854 10.759-3.665 8.443-4.5 17.81-7.32 26.85-10.514 10.2-3.605 20.377-7.277 30.489-11.123 4.156-1.581 8.255-3.668 12.507-4.95 4.578-1.381 9.265-2.42 13.655-4.428zm100.63-412.3c-.645 6.082.02 12.215.207 18.304.218 7.13.227 14.184 1.15 21.272 1.666 12.787 4.01 25.577 8.589 37.676 4.168 11.02 11.202 18.812 23.114 21.194 10.702 2.139 21.132-1.53 27.943-10.081 7.065-8.867 9.235-20.066 13.372-30.343 2.023-5.025 3.52-10.078 5.208-15.22 1.012-3.08 6.028-11.922 4.593-15.086-1.401-3.09-9.668-4.145-12.53-5.862-4.547-2.73-8.752-8.2-12.222-12.198-2.325-2.68-3.683-4.66-5.251-.41-1.885 5.107-.52 11.007-2.278 15.96-1.731 4.872-5.51.067-5.897-3.108-.744-6.096.15-13.021.439-19.148.537-11.418 1.286-24.624 11.582-31.664 9.758-6.672 20.349-8.748 25.767-20.267 2.172-4.618 4.725-9.456 3.368-14.623-1.568-5.963-3.89-12.2-6.172-17.93-4.386-11.006-11.255-20.59-17.26-30.694-.811-1.363-.981-3.11-2.753-3.495-2.004-.436-6.682 2.973-8.625 3.523-5.291 1.496-10.02-1.608-14.687 1.905-3.746 2.82-6.922 6.878-11.976 7.173-2.176.127-5.13-1.816-7.004-1.352-2.39.59-3.08 4.156-4.001 6.159-2.115 4.596-4.475 10.355-7.963 14.112-1.184 1.275-3.276 1.669-4.287 2.856-1.177 1.379-.523 4.179-2.21 4.43-.976.145-1.756-1.18-2.578-1.496-1.397-.538-2.767-.641-4.262-.597-2.766.08-5.636.749-8.067 2.073-5.653 3.078-7.742 7.759-.948 10.574 2.723 1.129 5.68 1.969 8.626 2.23 3.233.288 6.504-.721 9.7-.327 6.166.759 8.062 5.915 9.658 11.213 2.194 7.288 3.967 14.667 6.43 21.879 2.014 5.892 5.67 11.88 6.727 18.036.649 3.78-.201 3.499-2.725 5.837-1.923 1.78-3.08 4.117-5.162 5.903-5.808 4.979-10.87 3.652-17.614 1.592zM860.29 611.727c-.177-1.3-27.706 1.185-30.834.863-5.344-.55-11.033.913-16.558.726-4.884-.166-11.93-2.063-15.961.308-1.495.879-1.532 1.917-3.892 1.469-2.193-.416-4.503-1.966-6.145-3.403-4.57-3.998-7.361-10.288-10.35-15.473-5.98-10.376-11.102-21.127-16.066-32.04-10.225-22.474-20.063-45.077-30.277-67.557-5.052-11.12-9.923-22.258-15.372-33.171-2.325-4.658-4.878-9.767-6.668-14.646-1.951-5.321-4.516-10.316-6.265-15.771-3.707-11.553-8.137-22.934-10.975-34.815-.72-3.008-.986-6.158-1.852-9.123-.924-3.167-2.811-5.875-3.994-8.941-1.206-3.124-1.21-5.912-1.81-9.105-.598-3.182-2.06-6.284-3.113-9.332-5.421 3.269-11.594 6.244-16.583 10.129-4.907 3.823-12.067 7.025-10.013 13.936 1.868 6.286 5.176 12.066 7.144 18.344 2.208 7.043 4.92 13.928 7.05 20.987 4.574 15.155 8.577 30.488 12.672 45.779 1.924 7.184 4.328 14.382 5.738 21.689.734 3.8.614 7.2 1.996 10.882 1.35 3.599 2.63 7.12 3.739 10.805 1.974 6.559 3.858 13.132 6.042 19.623 1.182 3.513 2.127 7.065 2.967 10.674.509 2.18 2.24 6.376 1.753 8.634-1.398 6.502-9.998-.123-12.056-2.777-4.775-6.156-8.2-13.687-11.776-20.58-14.358-27.678-21.418-57.531-28.821-87.661-1.946-7.921-3.825-15.771-6.012-23.61-2.292-8.214-2.96-16.802-5.664-24.97-2.795-8.44-5.646-16.572-7.7-25.255-.948-4.02-1.952-8.038-2.795-12.081-.45-2.16-.47-6.13-3.344-6.56 1.85 13.548 2.535 29.42 7.934 42.126 4.894 11.524 8.784 27.313 3.836 39.548-2.38 5.884-6.143 10.909-8.973 16.514-3.165 6.267-5.227 13.462-7.348 20.14-4.392 13.828-5.688 28.37-8.627 42.516-1.541 7.414-1.571 12.485-.234 19.78.43 2.349-.33 4.216 1.649 5.722 1.99 1.515 6.592 1.82 9.05 2.69 7.466 2.639 13.884 4.575 21.789 5.44 7.467.818 14.479 2.3 21.59 4.747 12.817 4.407 26.144 7.7 38.737 12.119 6.888 2.417 13.53 6.723 20.153 9.81 6.888 3.214 14.195 5.313 20.688 9.323 6.995 4.318 13.912 9.333 20.54 14.174 6.14 4.484 9.083 10.058 11.639 17.036 4.859 13.266 17.11 30.482 5.794 43.868 3.967 1.724 8.507 2.409 12.308 4.252 1.312.637 1.703 1.258 3.195 1.624 1.95.479 4.462.096 6.46.226 2.89.188 8.98 2.267 11.798 1.427 2.634-.786 2.749-4.607 4.64-6.493 2.807-2.796 5.5-.993 8.933-1.304 5.085-.461 10.15-1.128 15.239-1.572 10.266-.895 20.503-1.106 30.803-1.082-5.362-5.951-25.081 4.88-25.565-5.9-.561-12.474 14.664-8.732 22.065-12.33-6.727.198-13.454.263-20.168.796-4.074.324-11.907 2.274-14.211-2.203-2.476-4.814 1.508-10.382 5.239-12.896 5.163-3.478 11.13-5.696 16.842-8.075zM299.213 445.402c-1.234 2.46.677 3.45 1.543 5.434 1.196 2.74.015 2.195-.225 4.773-.161 1.729.31 2.545.213 4.164-.041.689-1.021 1.604-1.136 2.388-.207 1.407.554 2.055.47 3.077-.04.507.616.597.482 1.332-.116.64-1.592 1.092-1.68 1.495-.5 2.337.902 1.167 1.116 2.275.358 1.849-.682 2.166-1.274 3.867-1.021 2.933-.034 4.3.597 7.05.534 2.319-.26 2.335-.56 4.55-.183 1.343.205 1.507.199 2.756-.018 4.314-.983 8.8-1.023 13.37-.095 10.819-1.011 21.48-1.148 32.272-.135 10.604-.907 21.34-1.371 32.077-.226 5.235-.757 10.452-.986 15.688-.267 6.08.328 12.13-.184 18.187-.465 5.505-.186 11.028-.414 16.548-.107 2.619-1.455 10.544.265 12.305 2.234 2.286 11.286-.148 14.214.013 5.504.3 11.307 1.409 16.7 2.545 12.78 2.692 25.59 6.12 38.377 8.535 10.66 2.013 20.663 7.134 30.586 11.468-.91-9.116-2.514-18.01-2.811-27.197-.266-8.258.512-16.473.329-24.721-.391-17.598-1.388-35.001-.995-52.596.4-17.892 1.843-36.161 4.334-53.883 1.145-8.143 2.038-16.818 4.95-24.555 1.32-3.505 3.47-6.075 2.578-9.931-.967-4.176-2.877-8.542-4.29-12.592-1.037 6.596-4.695 50.549-19.723 37.336-5.868-5.16-8.585-16.336-9.897-23.66-1.772-9.901-1.136-20.307-1.09-30.326.092-20.413 2.337-41.238 4.396-61.54.41-4.054 2.459-7.68-2.743-7.486-4.877.183-9.89 1.338-14.74 1.907-4.197.492-8.412-.706-12.412-.17-1.834.246-3.456 1.332-5.308 1.607-2.337.347-4.78-.161-7.132-.158-3.965.005-8.562-.016-11.853 2.45-3.457 2.592-6.421 6.88-7.582 11.026-1.16 4.147-.85 8.814-1.584 12.956-.62 3.49-.751 7.799-1.33 11.764-2.51-3.144-2.348 1.394-2.375 2.735-.031 1.62-1.774 4.898-1.325 5.848.29.613 2.238.289 2.403.769.339.99-.834 1.408-.855 2.148-.083 2.884.082 5.865.075 8.773l-2.043-1.561c-.358.778-.471 1.792-.812 2.579-.154.358-1.592.259-1.66.963-.09.919 1.923 2.689 2.31 3.693.696 1.794 1.139 1.086-.04 3.02-1.355 2.227-3.575 2.35-3.22 5.588a9.472 9.472 0 001.88-1.92c.336 1.933-.504 3.636-.606 5.56-.067 1.258 1.464 6.279.31 7.119-.485.354-1.782-1.578-1.9-1.714zm101.394-158.408c.009-4.238-6.178-10.756-8.306-14.303-3.394-5.66-7.044-10.782-11.36-15.783-4.334-5.024-8.962-9.813-13.166-14.947-1.74-2.123-3.031-4.603-4.805-6.682-2.217-2.596-2.685-1.798-5.431-1.73-2.088.054-3.45-.301-5.38.319-1.025.329-1.69.818-2.79 1.12-.69.192-1.598-.477-2.523-.154-2.288.797-3.066 2.837-5.827 2.795-.331-.005-1.391-.79-1.544-.746-.187.054-1.045.709-1.015.702-.184.042-.131 1.34-.621 1.566-.838.386-1.432-.908-2.195-.824-1.928.212-3.362 2.202-5.495 2.684-2.74.619-5.11-.284-7.727.99-2.091 1.019-3.148 3.335-4.887.94-1.575 3.345-4.474 2.332-7.37 3.74-4.038 1.966-8.415 2.962-12.715 4.446-8.847 3.053-17.756 6.18-26.38 9.856-17.89 7.624-35.213 16.078-52.702 24.274-17.104 8.016-32.924 18.645-48.317 29.345-7.547 5.245-15.05 10.755-20.937 17.938-1.784 2.176-4.763 5.556-3.561 8.618 1.272 3.238 6.648 5.248 9.688 5.869 3.986.816 8.368 1.089 12.426 1.36 4.38.294 9.087.439 13.423.38 8.546-.118 16.928-.951 25.514-1.14 9.767-.216 19.342-2.276 29.089-2.398 10.715-.134 21.308-1.477 32.039-1.058 20.684.81 41.35 1.407 62.095 1.507 2.58.012 5.112-.3 7.647.15 2.057.365 3.543 1.085 5.749.927 2.055-.147 3.96-1.046 6.054-1.155 2.75-.143 5.567.31 8.33.253 9.333-.191 20.4-1.04 29.397 1.912 3.573 1.173 8.065 4.588 5.887 9.014-2.154 4.376-7.656.809-11.062 2.798-3.173 1.853-1.413 6.909-1.19 9.932.424 5.728.5 11.426.35 17.166-.333 12.676-1.105 25.337-1.253 38.017-.071 6.159.017 12.316.342 18.467.287 5.429.096 11.338 1.952 16.519 2.585-6.47 2.9-13.611 3.925-20.428 1.11-7.375 2.195-14.75 3.25-22.134.627-4.386 1.278-30.728 9.86-27.287 9.125 3.657 5.953 23.922 6.367 31.208.39 6.877 1.094 13.728 2.652 20.447.725 3.123 2.717 16.385 6.72 17.242 2.938-13.88 6.043-27.736 8.202-41.764.953-6.192 1.794-12.431 2.174-18.687.198-3.256-.043-11.083 4.664-11.462 13.836-1.115 4.554 57.182 14.893 64.516 3.824-7.607 5.319-15.54 6.357-23.973.472-3.84 1.482-8.161.885-12.011-.783-5.037-1.633-8.125-.581-13.33.86-4.261 1.479-8.636 2.473-12.86.717-3.044 2.588-4.53 3.575-7.275 2.78-7.73 2.602-17.513 3.71-25.626 1.124-8.217 2.308-16.295.852-24.584-1.441-8.21-7.446-10.82-14.273-14.208-6.88-3.414-13.516-7.166-21.07-8.672-8.482-1.69-16.266-3.33-24.948-3.78-15.322-.79-30.338.128-45.591.854-16.96.808-33.937-.2-50.888-.432-8.24-.113-16.635-.272-24.861-.138-4.122.068-8.121.783-12.27.679-3.535-.088-10.445 1.002-13.54-.878-2.427-1.475-2.424-4.743-.374-6.544 2.03-1.785 6.014-1.88 8.55-2.43 8.105-1.76 16.184-2.77 24.347-4.181 4.7-.813 8.645-1.083 13.356-.854 4.575.224 9.24-1.084 13.867-1.306 9.803-.468 19.663-.932 29.47-1.085 19.009-.296 37.798-1.747 56.824-1.701zm9.919 185.925c-1.53.59-1.14 7.895-1.28 9.354-.412 4.369-.865 8.733-1.254 13.104-.898 10.09-1.574 20.204-2.126 30.319-.551 10.116-1.205 20.264-1.172 30.398.015 4.314.208 8.624.12 12.938-.064 3.225-1.483 9.259 1.269 11.55 1.846 1.537 5.462.845 7.619.703 4.262-.28 8.535-.564 12.808-.596 4.936-.038 9.838.493 14.777.364 1.895-.05 4.01-.365 5.887-.008 1.359.26 2.842 1.433 4.117 1.484.938.038 2.15-.893 3.188-1.076 1.614-.285 3.508.045 5.15.025 1.168-.014 3.984-.542 5.058.148 1.047.672.644 2.203 1.6 2.542.365.129 2.443-2.34 2.799-2.495 1.59-.694 3.91-.154 5.588-.135 4.828.054 9.659-.251 14.489-.205 4.708.044 9.249.592 13.768 1.139 2.988.362 6.419-.545 9.59-.811 5.072-.425 10.165-.346 15.249-.244 2.552.05 5.106.09 7.658.154.604.015 1.8-.22 2.383-.046 2.342.703.856.744 2.51 1.813-2.17-1.403 4.859-2.317 5.264-2.32 3.19-.024 6.113 1.543 8.768 1.236 2.876-.332 5.812-2.11 8.976-1.558 1.479.258 2.707 1.912 3.806 2.102 1.776.307 2.383-.976 4.012-1.618 3.25-1.282 7.02-.165 10.414-.387 4.763-.311 9.349-.322 14.13-.386 8.723-.115 17.445-.26 26.169-.174 8.033.078 14.487 3.299 22.476 3.124 4.19-.091 8.45-.457 12.635-.356 3.593.085 5.428 2.763 2.712 5.909-1.836 2.127-5.208 2.352-7.797 2.74-3.843.58-7.617 1.412-11.447 2.054-9.107 1.526-18.64 1.479-27.851 1.756-37.57 1.13-75.146 4.47-112.738 4.824-16.506.155-33.19 1.545-49.643.897-9.18-.362-18.152 1.61-27.402.193-3.9-.598-7.734-.961-11.666-1.242-.512-.036-3.515-.617-4.082-.36-1.675.764-.74.067-1.443 2.004-1.153 3.182-.672 8.257-.666 11.645.012 5.399.275 10.809.456 16.205.175 5.17.462 10.336.77 15.5.127 2.138-.714 10.173.934 11.766 1.275 1.234 7.24.65 8.854.305 1.936-.414 2.117-.516 4.213-.27 1.546.182 2.096.137 3.644-.03 4.433-.48 9.51-.564 13.96.237 3.455.62 7.083-1.018 8.405 2.615 2.235-2.736 2.184-1.16 4.64-.61 2.53.565 1.755-1.07 3.899-1.294 1.51-.158 2.859 1.036 4.493 1.047 2.699.017 5.127-.696 8.013-.336 12.742 1.59 25.664 3.019 38.513 3.137 5.33.05 10.599.132 15.9.294 2.706.082 5.264.364 7.924.683 2.507.302 4.477-.301 7.083-.433 5.763-.294 11.809.584 17.573.899 2.71.148 6.104-.318 8.703.038 2.612.357 2.809 2.34 4.886 3.49.328-6.436 13.789-2.313 17.293-2.305 1.376.004 3.057-.582 4.718-.476 2.749.177 5.517.222 8.27.319 4.39.154 8.633.42 12.803-.112 5.448-.694 11.365.046 16.868.012 5.992-.038 11.985-.12 17.974-.315 6.068-.2 12.125-.57 18.192-.765 5.27-.17 10.86.255 16.056-.131 1.347-.1 2.635-1.087 3.839-1.138 1.669-.071 3.538.646 5.464.48 6.07-.517 11.728-.602 17.864-.581 10.526.036 21.462-1.908 31.554-4.696 4.652-1.285 9.487-1.355 14.106-2.733 5.332-1.592 10.215-4.367 15.122-6.935 3.843-2.012 9.246-2.948 7.68-8.035-1.67-5.431-4.336-10.697-6.324-16.032-1.728-4.638-2.83-9.157-6.576-12.646-3.702-3.448-8.431-5.763-12.375-8.942-8.596-6.928-17.57-11.071-27.748-15.174-10.26-4.136-19.62-10.235-30.398-12.985-10.008-2.554-19.65-5.978-29.456-8.595-10.73-2.863-21.793-3.901-32.614-6.446-10.371-2.44-20.553-6.028-31.061-7.886-11.37-2.01-22.843-3.043-34.17-5.495-9.603-2.078-18.765-6.15-28.418-7.773-2.82-.475-5.87-.765-8.598-1.651-2.552-.83-4.378-2.507-6.958-3.187-5.956-1.57-11.132-3.708-16.771-6.258-2.371-1.073-3.685-2.391-5.74-3.721-2.451-1.585-5.59-2.148-8.341-3.022-5.3-1.683-10.577-3.338-15.331-6.293-4.928-3.062-9.455-6.524-13.991-10.102a171.52 171.52 0 00-5.944-4.453c-2.426-1.745-4.915-2.061-7.634-3.201-11.793-4.948-16.957-16.564-23.381-26.671-.603 8.185-8.434 11.983-13.26 4.199zm167.603-143.375c.813-3.666 1.972-8.927-2.597-9.133-.294-.012-3.321.744-3.633.945-1.557 1-2.146 4.34-2.74 5.96-.523 1.43-.886 3.335-2.048 4.415-1.146 1.067-2.343 1.093-3.413 2.37-3.255 3.89-5.68 10.57-7.65 15.265 2.672-.646.73 1.146 1.867 2.167 1.775 1.594 1.222 1.306 3.745 1.553 4.396.43 6.402-.741 9.839-3.48 2.915-2.321 3.85-3.842 5.529-7.194 2.399-4.788 1.229-7.84 1.096-12.871l3.609 3.322-1.12-4.352-2.484 1.033zM451.677 40.07c2.336-7.996 6.7-8.587 12.567-2.842.93-2.055 2.03-5.246 4.736-5.228 1.917.013 2.256 1.563 3.542 2.609 1.552 1.265 2.762 1.709 4.732 2.046 4.299.735 8.294.483 12.34 2.405 3.686 1.75 5.439 4.306 8.277 6.927 2.655 2.452 4.592.864 7.623 2.105 3.37 1.38 4.877 5.464 5.53 8.773.797 4.048-.033 5.338 2.78 8.277 2.655 2.773 4.063 6.304 4.383 10.114.3 3.603-.494 7.879-2.574 10.917-2.341 3.422-4.767 2.476-1.72 6.54 1.535 2.048 1.708 6.405 3.553 7.717 3.228 2.293 7.396-1.406 10.247-2.337 3.874-1.265 3.01.85 4.709 3.403 2.51 3.77 4.004-.12 7.429.633 1.259.277 1.628 1.636 2.07 1.799 1.565.58-.096.365 1.69-.28 1.189-.428.375-2.732 2.768-1.417 1.663.915.41 2.542 1.167 3.72 1.485 2.316 3.69.966 4.788 3.955 1.092 2.977 2.57 6.925 3.178 10.18.74 3.954-.997 7.395-.743 11.136.266 3.907 4.137 6.54 6.545 9.279 11.809 13.424 16.809 31.08 20.66 48.146 3.582 15.86-2.72 33.817-15.094 44.567-6.273 5.45-14.11 7.787-20.134 13.785-2.674 2.662-2.64 3.505.547 5.687 2.61 1.787 5.004 4.064 7.77 5.476 7.11 3.63 14.04 6.223 21.98 7.747 4.004.769 8.173.46 12.224.317 4.217-.15 8.977.448 13.099-.067 3.64-.455 6.52-3.394 10.333-3.082 1.494.122 2.41.693 3.93.558 1.998-.176 3.678-1.233 5.802-1.18 3.229.083 6.424.137 9.546.255 3.546.132 7.714-.84 11.243-.226 3.349.58 7.332 3.593 10.245 5.349 3.59 2.165 7.902 4.669 11.117 7.314 3.037 2.5 5.179 6.478 7.548 9.582 2.505 3.284 5.404 6.218 7.923 9.487 9.918 12.869 20.365 28.72 23.466 44.922.785 4.1.742 8.149.15 12.267-.528 3.678-3.98 5.076-4.084 9.03-.213 8.002 3.62 17.279 5.847 24.863 2.345 7.985 5.282 15.74 8.919 23.25 1.408 2.908 3.193 5.312 4.079 8.324 1.082 3.679 2.73 7.169 3.935 10.88 10.426 32.099 26.588 61.98 38.369 93.592 6.33 16.987 13.026 33.828 19.929 50.598 3.397 8.256 7.077 16.259 10.77 24.389.486 1.068.83 3.127 1.677 3.862 1.429 1.242.169.535 2.17.324 1.726-.182 3.518-.97 5.26-1.261 4.204-.706 8.51-.827 12.75-1.245 4.872-.482 9.16-.733 14.036-.497 4.537.22 9.003-1.128 13.519-1.427 9.68-.641 19.228-.303 28.902-.122 7.538.14 17.19-.755 24.165 2.745 6.988 3.506 4.577 11.58-1.35 14.655-7.1 3.685-15.458 4.21-22.515 7.966 5.296 1.63 11.018 1.21 16.413 2.482 3.477.82 8.852 1.426 11.473 3.964 2.538 2.459 2.28 6.694.606 9.578-2.086 3.59-6.098 4.21-9.71 5.455 1.628 2.156 4.157 1.988 5.62 4.829 1.946 3.779.73 7.816-1.652 11.083-5.17 7.093-15.405 7.692-23.396 8.703a125.677 125.677 0 01-24.003.694c-4.504-.307-8.948-.532-13.396-1.166-5.117-.73-4.625 2.855-6.448 6.524-1.764 3.552-4.31 5.074-8.25 4.855-4.254-.238-8.971-.527-13.185-1.24-4.035-.682-7.53-2.765-11.4-3.633-3.484-.783-6.251-2.047-9.562-3.742-3.8-1.945-5.821-5.2-9.147-7.435-3.414-2.294-6.986 1.31-10.343 3.104-8.16 4.359-17.113 6.287-26.037 8.43-9.1 2.186-17.962 4.983-27.217 6.496-4.307.703-8.398.609-12.685 1.066-4.94.527-9.222 2.414-14.267 2.424-17.816.037-35.747 3.253-53.571 3.848-17.645.589-35.576-.871-53.202.31-9.012.606-17.734-.607-26.696-.141-9.245.482-18.817-.005-28.043-.711-19.146-1.465-37.697-1.084-56.642-2.033-9.855-.494-19.903-1.422-29.634-2.987-9.541-1.534-20.338.233-27.086-8.067-.742 3.254-.945 6.628-3.323 9.194-2.501 2.698-6.53 3.787-9.878 5.016-8.55 3.137-17.191 6.117-25.8 9.094-8.158 2.823-16.37 5.88-24.594 8.467-8.644 2.719-16.867 6.015-25.365 9.207-7.7 2.892-15.678 5.177-23.098 8.664-3.061 1.438-6.267 1.557-9.193 2.9-3.614 1.658-6.971 3.249-10.843 4.445-3.321 1.026-6.36 1.764-9.573 3.098-3.182 1.32-7.69 3.615-11.02 1.858-2.341-1.234-3.26-4.07-3.98-6.438-.902-2.961-.133-8.1-3.64-7.966-3.463.13-8.353 3.465-11.75 4.596-4.062 1.354-8.221 3.618-12.406 4.385-4.19.767-7.488.537-9.686-3.36-2.474-4.383-2.062-9.03-1.322-13.798-7.132-.017-13.738.653-20.932.897-3.963.135-7.817.31-11.77-.126-3.566-.393-8.87.725-11.963-.907-6.29-3.32-5.353-12.71-2.181-17.845 1.762-2.851 4.523-4.773 7.329-6.503 3.519-2.168 6.099-4.627 9.18-7.39-2.01-1.384-4.623-.711-6.594-2.361-1.531-1.28-2.484-3.416-3.183-5.238-1.303-3.397.376-11.19-2.564-13.115-1.57-1.027-4.351-.592-6.145-1.416-2.451-1.125-4.172-3.2-5.228-5.67-2.378-5.565-.34-11.36 1.98-16.56-8.79-1.498-21.676-2.094-24.19-12.273-.804-3.251-.914-7.015.192-10.212 1.642-4.744 5.466-5 9.706-6.391 17.727-5.818 34.33-15.266 53.429-16.667 10.23-.75 20.534-1.145 30.752-2.206 10.263-1.066 20.157-2.947 30.488-1.67 4.395.543 9.483.059 13.687.854 4.065.767 4.58 5.562 1.473 8.33-3.02 2.689-7.4.969-10.996 1.27-5.096.428-9.39 2.839-14.147 4.357-11.675 3.726-24.468 6.37-36.643 7.708-6.536.718-12.71.814-19.107 2.557-5.812 1.584-11.564 3.383-17.396 4.899 6.372 1.704 18.715 1.514 20.836 9.277.997 3.653-.11 8.708-3.321 10.967-1.865 1.312-5.94.713-7.113 2.673 5.017.616 10.739-3.244 13.493 2.276 3.143 6.299.068 11.27-3.953 15.948 3.553-.59 7.206.082 10.794-.373 2.769-.352 5.355-1.185 7.986-.318 1.32.435 1.146 1.61 2.813 1.618 1.212.005 3.027-1.313 4.079-1.821 3.998-1.93 8.055-3.5 12.187-5.111a116.447 116.447 0 0114.824-4.697c6.929-1.7 13.884-6.063 20.644-8.53 2.864-1.045 6.546-2.116 7.969-5.098 1.468-3.076.343-7.58.253-10.833-.255-9.152-.146-18.317-.09-27.471.047-7.7.232-15.253.917-22.922.819-9.177.086-18.321.437-27.512.323-8.44-.434-16.86-.204-25.297.257-9.4.727-18.764.824-28.174.173-16.903.742-33.786 1.069-50.685.336-17.36 2.176-34.725 5.886-51.7 1.662-7.602 3.832-15.346 6.725-22.57.916-2.288 1.876-2.418-.326-3.726-1.306-.775-2.92.09-4.2.263-2.694.36-5.1.519-7.841.358-15.718-.921-31.992-.176-47.653 1.237-8.145.735-16.334 1.435-24.512 1.727-8.156.29-16.312 1.555-24.47.957-13.666-1.001-29.254.563-40.967-8.24-12.5-9.392-11.322-26.033-3.251-38.056 8.907-13.27 23.784-20.83 36.207-30.127 12.205-9.135 26.55-15.835 39.862-23.192 28.495-15.751 59.115-30.33 89.795-41.215 31.214-11.073 62.533-23.803 96.529-21.64 17.223 1.097 36.492 1.737 51.685 10.888 8.116 4.89 15.973 9.988 22.946 16.447 3.285 3.043 6.18 6.793 9.678 9.573 3.25 2.585 6.44.815 10.155-.135l-7.896-25.48c-3.634 2.82-8.635 3.892-13.361 2.895-5.737-1.211-5.272-3.662-4.76-8.571.24-2.277.862-1.888-1.114-3.326-1.62-1.18-4.581-1.566-6.446-2.588-4.653-2.55-8.686-6.292-10.401-11.431-1.705-5.11-.497-9.85.619-14.922 1.34-6.1-1.975-3.55-5.767-6.385-1.668-1.248-2.266-2.332-1.98-4.393.235-1.673 3.542-4.082 3.394-5.73-.18-1.984-1.284-1.762-2.854-2.96-1.732-1.32-2.98-2.94-3.743-5.02-1.618-4.402 1.68-7.122 3.062-11.182.67-1.968 1.329-3.651 2.645-5.307 2.332-2.934 3.237-2.87 6.49-2.844 2.739.02 2.709-.203 4.76-2.68.797-.961 1.59-1.916 2.279-2.96 1.182-1.79 1.51-1.547.246-2.946-3.852-4.264-5.61 2.393-9.03 1.99-3.957-.464-4.667-6.74-7.148-8.835-1.736-1.467-3.717-.908-5.615-1.9-2.322-1.21-2.788-3.52-4.295-5.454-2.446-3.14-5.997-3.694-7.63-7.678-.925-2.261-1.052-4.59-1.24-6.986-.27-3.413-1.162-6.111-2.155-9.36-1.012-3.314-.763-5.71.883-8.758 1.696-3.142 1.896-4.2 1.469-7.743-.325-2.698-.425-5.093.983-7.5 1.518-2.594 1.834-3.948 2.329-6.903.43-2.591 1.254-4.457 3.759-5.532 1.707-.733 3.555.083 4.76-1.586 1.204-1.666.883-4.335 2.119-6.176 2.016-3.003 5.048-3.473 8.35-4.15z"/><path d="M551.482 173.516c-1.172-2.753-5.093-15.451 1.356-15.516 5.117-.052 3.5 10.967 3.563 13.672.117 5.063 5.414 5.782 7.395 10.375 2.312 5.355.717 11.749-2.886 16.114-2.75 3.33-8.045 7.148-11.824 3.07-4.202-4.538-.164-7.085 2.778-9.911 4.261-4.095-3.892-5.285-6.009-8.607-3.597-5.646.352-8.583 5.627-9.197M533.007 176.38c-.588 2.614-.41 8.583-3.25 9.992-4.762 2.363-5.862-9.033-5.825-11.549.04-2.676.966-8.999 4.912-8.18 4.428.919 1.916 9.118 4.163 9.737M550.823 209.48c7.042.219 6.646 8.617-.107 8.91-6.284.273-6.129-9.103.107-8.91M565.8 334.654c-.658 2.798-2.192 5.436-4.491 7.199.542-1.106 2.895-7.697 4.49-7.2"/></g></g></svg>