<svg width="1024" height="768" xmlns="http://www.w3.org/2000/svg"><g fill="none" fill-rule="evenodd"><path d="M547.233 217.499c14.856 10.376 34.754 4.293 49.186-3.517.867 6.05 12.173 5.476 16.222 8.392 6.384 4.598 13.536 12.966 18.545 19.062 11.566 14.08 18.713 33.758 25.187 50.63 6.668 17.372 14.902 32.275 32.043 41.934 5.538 3.12 10.901 7.306 16.584 10.233 6.795 3.5 14.667 5.211 22.14 4.65 8.905-.668 16.585-.947 25.314-2.624 9.327-1.793 19.282-3.67 28.522-3.388 6.857.21 13.779-1.187 20.463-.87 4.103.194 8.17-.154 12.266.018 1.624.068 2.892.055 4.566.206 3.97.357 4.033-.073 4.616 3.444.688 4.158-1.97 10.909-2.233 15.176-.303 4.96.537 9.856.356 14.773-.204 5.524-1.796 5.016-6.622 7.549-4.68 2.456-9.13 4.822-13.97 6.989-13.862 6.204-28.498 12.277-43.788 13.987-18.345 2.052-37.457-.124-55.685-.913-10.158-.44-20.684-2.182-30.454-4.675-7.688-1.963-20.147-5.947-26.153-11.106 6.872-.309 4.462-6.41.45-9.108-7.31-4.917-10.583-2.556-8.834 5.688-8.604-2.817-16.298-9.646-23.624-15.112-9.418-7.028-23.395-17.589-23.952-30.233-.63-14.257-17.423-43.034-15.675-28.03 1.57 13.485 7.467 31.714 0 44.346-.325-7.573-13.822-20.017-20.176-22.15-11.3-3.792-24.716-3.205-36.487-2.482-21.809 1.34-43.684 5.627-64.607 11.406-21.109 5.83-43.704 13.404-61.235 27.246-2.16 1.706-4.176 4.533-6.375 6.003-.766.513-3.063.221-4.155.789-2.906 1.508 1.503 1.763-3.275 2.116-1.035.076-3.749-1.033-4.453-1.352-11.557-5.247-10.9-19.276-10.211-30.024 1.582-24.703 9.56-49.627 19.303-72.175 8.718-20.168 20.608-41.789 37.844-55.91 7.54-6.178 15.03-13.424 23.715-17.827 3.3-1.67 9.233-4.287 7.932-9.285-1.389-5.335-7.697-2.737-12.131-2.95-23.037-1.11-41.609-10.809-59.05-25.553-17.873-15.11-36.655-20.214-58.842-25.925-6.388-1.644-50.314-12.199-56.617-12.144-6.974.061-13.92.289-20.887.42-4.141.08-8.287.07-12.433.402-3.338.268-7.016 1.648-10.341 1.29-3.117-.334-2.873.59-4.406-1.726-1.078-1.63-.787-5.004-1.099-6.989l-.818-5.201c-.86-5.47-4.88-8.268-.448-10.479 6.51-3.249 19.926-6.195 27.049-7.5 6.819-1.248 45.422-10.487 58.328-13 6.428-1.251 84.268-4.15 87.172-4.17 27.965-.192 87.603 15.21 101 27.521 13.397 12.312 13.412 21.24 19.2 26.22 6.471 5.566 15.23 12.487 19.781 19.701 3.078 4.877 4.259 17.78 10.551 19.68-4.57 14.627-2.923 37.03 10.701 46.547z" fill="#FF5678"/><g fill="#000"><path d="M134.294 172.327c1.774.41 2.633-.296 2.94-2.129l-2.94 2.13m23.228 434.293c-1.573.087-.016 4.073.185 4.057l-.185-4.057m429.03-493.138c2.05.344 13.595 3.501 9.708-2.938-2.089-3.46-6.3 2.94-9.709 2.938m-38.146 77.847c-5.873 3.25 12.246 14.724 14.839 15.443 2.532.702 21.627 3.234 21.856-.971-6.664-1.475-13.358-.585-19.89-2.554-7.988-2.41-11.073-6.38-16.805-11.918M833.99 368.521c.352-5.233.563-10.314 1.626-15.465.22-1.069 2.02-6 1.62-6.64-.627-1.006-5.414-1.846-6.403-2.183-.76 10.25-1.624 20.466-3.048 30.653 3.345-1.154 2.472-5.754 6.205-6.365M209.37 128.48c0-5.608-1.495-13.953-2.613-19.396-.914-4.45-4.172-8.778-6.035-13.253-.58 3.08-2.616 7.786-1.965 10.927.851 4.096 2.79 3.423 2.79 8.464 0 3.065-.506 6.556.052 9.57 1.096 5.939 2.854 4.99 7.77 3.688M640.97 85.207c-6.723-3.725-18.217 3.36-24.245 6.618-7.156 3.869-14.355 14.268-17.258 21.82 2.844-.315 5.248-.368 7.315-1.9 1.064-.787 2.184-3.014 3.189-4.064 2.592-2.711 5.857-5.235 8.7-7.701 6.778-5.878 14.107-11.08 22.3-14.773m39.745 93.894c5.585-.983 12.022-3.518 13.62-9.808 1.545-6.079-2.911-9.022-8.356-9.778-12.494-1.737-20.944 16.391-5.264 19.586m-43.596-18.76c6.16 4.301 12.893 3.758 18.992-1.048 4.884-3.847 9.652-10.425 4.116-15.128-8.893-7.556-21.639 7.905-23.108 16.177m265.69 475.9c-3.857.236-10.074 4.266-13.456 6.252-4.242 2.49-8.707 5.116-12.81 7.413-8.517 4.766-18.085 10.116-27.527 13.692-9.258 3.504-18.595 7.913-28.049 12.057-4.045 1.773-9.705 3.846-14.29 3.364-4.197-.44-8.605-4.756-12.365-6.646-5.839-2.935-9.635-6.745-14.3-11.442-2.032-2.046-7.207-10.642-9.95-10.964-2.345-.275-8.753 4.853-10.583 5.953-2.83 1.704-7.1 4.495-9.787 6.635-2.661 2.117-2.81.56-2.995 3.342-.126 1.891 4.21 5.602 5.548 7.126 4.492 5.12 9.183 10.132 13.425 15.473 3.645 4.588 7.036 9.513 10.167 14.468 3.036 4.807 8.661 10.369 9.885 15.989 7.062-6.914 14-3.542 22.876-5.625 3.844-.903 7.259-3.034 10.859-4.296 3-1.053 6.224-1.397 9.313-2.08 13.702-3.025 26.995-8.945 39.81-14.24 2.994-1.236 5.478-3.6 8.37-5.03 3.1-1.53 6.483-2.042 9.608-3.452a879.657 879.657 0 0024.136-11.314c8.526-4.162 17.51-7.76 25.877-12.153 5.054-2.654 14.86-7.41 17.194-13.03-5.584 1.001-10.271 4.183-15.442 5.791-9.12 2.837-8.673-5.747-8.673-12.29-3.052 0-9.18 4.377-12.1 5.735-3.774 1.754-8.722 6.391-12.91 6.703-10.366.771-5.357-12.863-1.832-17.43M536.663 170.837c-5.79-1.747-6.948-12.814-9.4-17.39-3.616-6.75-10.546-12.218-16.075-17.493-5.086-4.852-10.53-8.957-16.236-13.03-5.844-4.175-9.888-9.666-15.262-14.269-22.446-19.22-49.855-25.728-78.821-26.732-29.1-1.01-58.47 2.204-87.708 4.073-3.726.238-7.056.343-10.773.971l-2.678-.809-2.068 1.489c-1.433.211-3.472.43-4.792.686-6.813 1.321-13.623 3.079-20.434 4.62-14.436 3.263-28.395 6.263-42.945 9.312-3.47.726-11.908 1.194-14.629 3.395-2.11 1.708-1.322 2.38-.829 5.518.454 2.885.906 5.77 1.361 8.656.881 5.601.499 7.535 6.555 6.955 5.207-.499 10.283-1.422 15.548-1.661 7.57-.345 15.265-.785 22.836-.635 7.5.149 16.142-1.096 23.485.828-2.264-4.745-3.597-19.118 2.41-9.172 2.824 4.676 2.125 10.406 8.196 12.075 4.95 1.36 10.335 2.155 15.438 3.446 20.112 5.092 41.076 8.601 58.234 21.857 16.817 12.993 32.122 27.95 53.647 32.692 5.163 1.138 11.44 1.8 16.877 2.062 3.166.153 9.46-1.765 11.61 1.095 5.224 6.94-14.125 15.105-18.003 18.563-7.883 7.029-16.794 12.522-23.62 20.726-7.134 8.573-13.266 17.915-18.52 27.693-11.822 21.997-20.17 45.322-25.023 69.804-2.297 11.59-4.894 24.865-2.828 36.724.833 4.785 3.514 9.55 7.64 12.277 1.342.887 3.023 1.501 4.574 1.967 1.465.48 2.967.765 4.508.852.17-.866.5-1.664.984-2.395 1.09-.566 3.386-.275 4.152-.787 2.197-1.469 4.211-4.296 6.37-6.001 3.748-2.96 7.795-5.772 11.918-8.163 10.397-6.025 21.718-9.57 32.845-13.36 22.905-7.803 46.897-14.2 71.218-16.582 12.835-1.257 27.26-2.03 39.98.352 8.202 1.536 24.846 8.741 25.274 18.699 7.438-12.586 2.722-25.828 1.126-39.28-1.785-15.036-4.848-29.237.2-44.077 3.434-10.094 9.341-23.412 19.382-28.568 3.596-1.845 11.27-.732 8.607 5.369-.068.157-5.076 3.007-5.788 3.837-2.436 2.837-4.282 6.545-6.096 9.8-14.432 25.898-1.59 54.172-.643 81.654.438 12.688 14.538 23.202 23.934 30.217 7.301 5.451 15.025 12.293 23.606 15.105-1.749-8.242 1.522-10.6 8.827-5.686 4.009 2.696 6.417 8.794-.45 9.102 5.414 4.653 16.473 8.259 23.354 10.05 8.062 2.098 16.313 3.967 24.711 5.156 16.77 2.372 33.845 1.618 50.705 1.792 17.36.177 31.846-4.458 47.796-10.48 7.32-2.765 14.202-5.961 21.165-9.593 2.362-1.232 7.719-2.662 9.018-5.358 1.673-3.474-.828-12.482-.679-16.454.158-4.23 3.296-13.017 2.337-16.869-.915-3.688 1.407-1.097-2.34-2.941-1.012-.5-3.284-.758-4.524-.898-6.935-.782-15.136-.139-21.875.73-7.722.994-14.877-.347-22.384.54-10.42 1.232-21.113 3.078-31.18 6.062-15.885 4.709-30.585 4.374-44.78-4.635-6.005-3.81-13.078-7.721-18.224-12.936-6.918-7.01-11.988-16.99-15.894-25.94-8.592-19.689-14.853-40.36-26.617-58.525-5.042-7.785-12.054-14.12-18.53-20.748-3.063-3.135-4.824-4.941-9.02-6.29-3.384-1.088-10.26-1.42-10.921-6.036-14.421 7.807-34.3 13.878-49.147 3.514-13.61-9.5-15.255-31.917-10.692-46.522m-.748 188.15c-18.794 2.074-36.993 3.63-55.476 7.908-18.646 4.316-38.098 10.897-55.798 17.394-6.943 2.549-15.742 4.347-22.028 8.293-4.665 2.928-4.082 2.818-.734 8.212 2.242 3.614 4.127 7.657 6.525 11.125 9.748 14.099 23.102 26.159 34.307 38.95 12.379 14.132 26.884 28.124 41.07 40.507 13.645 11.91 27.098 24.67 41.606 35.37 30.24 22.306 60.865 44.303 92.293 64.901 17.454 11.44 34.49 23.161 51.992 34.683 9.1 5.99 17.591 12.606 27.26 17.61 9.975 5.163 22.162 12.394 30.373 20.019 5.734-10.136 17.856-16.698 26.926-23.256 1.812-1.308 3.759-3.078 5.494-4.546 3.302-2.792 3.469-2.328 1.704-5.524-1.94-3.514-7.233-6.346-10.004-9.254-2.535-2.66-4.209-5.356-6.51-8.201-7.657-9.467-17.52-17.328-26.09-25.939-8.25-8.29-15.92-16.708-23.986-25.537-3.994-4.371-8.532-7.518-12.362-11.942-5.318-6.144-10.563-12.437-15.815-18.644-9.423-11.137-17.34-22.959-26.51-34.153-16.684-20.37-29.34-43.397-43.944-65.247-8.963-13.409-20.045-25.926-28.193-39.867-4.488-7.679-8.81-15.331-12.026-23.72-1.832-4.78-1.39-5.153-5.86-6.551-4.315-1.35-9.761-2.286-14.214-2.591M302.432 554.614c9.514-.92 19.301 2.24 28.534 2.63 8.977.379 18.16 1.355 27.153.765 9.87-.648 19.797-.629 29.628-.323 10.658.33 20.81-1.395 31.082-2.901 10.385-1.523 21.695-6.246 31.847-9.267 6.005-1.787 11.782-4.105 17.815-5.79 6.103-1.705 10.965-5.754 16.526-8.862 3.793-2.12 11.838-4.689 10.153-9.05-1.497-3.875-11.473-9.693-14.736-12.509-9.65-8.326-19.433-16.589-28.373-25.728-18.959-19.383-37.028-38.718-53.045-60.595-3.805 10.766-8.007 21.69-16.419 29.885-7.147 6.964-15.384 12.933-23.02 19.274-14.827 12.313-32.667 21.086-50.377 28.178-8.764 3.51-17.237 5.762-26.068 8.865-4.18 1.47-8.632 1.184-12.552 2.106-5.94 1.398-12.144 4.288-18.16 5.985-8.48 2.394-17.053 4.073-25.92 3.31-11.538-.992-21.13-6.65-31.639-10.741.547 4.088-2.593 18.578-.266 21.637 1.29 1.696 9.545 2.393 12.103 2.964 10.436 2.329 21.545 3.737 31.97 5.088 11.058 1.432 21.487 6.905 32.275 9.452 10.181 2.403 21.427 4.642 31.489 5.627m-185.8 59.633c.665 7.757 1.634 19.482 7.914 25.062 2.405-5.837 1.071-13.727 2.135-19.947.634-3.704 1.494-7.352 2.389-11 .508-2.072.82-8.044 1.902-9.247 7.768-8.638 9.341 17.073 10.22 20.061 2.875-6.933 1.927-14.63 4.48-21.403 3.054-8.102 7.828-1.583 10.432 3.505.768-11.187-3.627-22.464-3.472-33.865.168-12.157 2.235-20.245 11.547-28.432 4.453-3.914 16.345-8.704 18.487-13.626.365-.835.272-7.007.034-7.867-.999-3.617-.626-2.874-5.017-3.927-3.848-.924-7.429-2.167-11.322-2.744-10.606-1.572-18.778-1.794-27.766 4.81-9.348 6.869-13.791 19.09-16.285 30.058-5.094 22.406-7.442 45.636-5.678 68.562m734.214-247.453c15.885-2.026 31.61-8.524 47.278-9.604 9.42-.65 19.922-2.808 29.15-4.784 6.07-1.3 18.749-2.37 22.136-8.242-4.091 1.26-9.49 4.129-13.767 4.24-3.144.083-4.24.677-4.862-3.64-.298-2.065.375-4.544 1.628-6.167 2.159-2.795 6.782-4.163 9.922-5.942 4.232-2.396 8.168-4.961 12.153-7.75-1.215-3.016-18.2 3.032-20.86 3.988-3.297 1.185-6.64 2.335-9.806 3.847-2.076.992-5.677 4.195-8.023 4.11-5.93-.215-5.396-7.372-2.523-11.484 4.071-5.823 12.186-10.158 17.65-14.686-5.842.25-11.152 3.664-16.522 5.708-5.933 2.258-11.947 4.824-17.753 7.344-14.25 6.187-29.43 10.427-43.92 16.395 4.356 7.43-.595 11.088-7.71 8.356-1.072 6.267-1.49 12.65-1.49 18.992l7.319-.68M190.492 113.91c.08-1.372 1.12-8.068-.113-9.227-.431-.405-7.361.571-8.043.671-4.508.662-8.232 2.35-12.453 4.147-10.33 4.401-20.776 8.37-31.086 12.8-19.303 8.295-38.423 15.998-56.444 26.782 13.392-1.132 27.091-5.012 39.284-10.665 5.157-2.39 24.514-18.465 25.084-4.479.252 6.19-5.078 8.391-9.578 11.373-5.51 3.65-10.91 7.271-16.028 11.45-2.72 2.224-24.415 16.813-23.365 19.148 5.51-1.318 11.434-5.477 16.287-8.377 5.401-3.23 11.067-6.1 16.644-9.035 3.042-1.602 9.982-7.164 13.325-4.732 5.79 4.214-2.146 12.045-4.754 14.926 5.069-.526 11.861-7.906 15.805-10.982 4.987-3.89 10.231-7.366 15.293-11.195 5.29-4.002 10.83-7.755 16.202-11.66 5.017-3.646 4.204-3.626 3.713-9.634-.31-3.773.01-7.544.227-11.31M409.89 371.196c6.527-.67 12.376-4.685 18.644-5.943 6.173-1.239 12.002-4.677 18.074-6.627 7.987-2.565 16.07-4.463 24.32-5.91 6.925-1.216 13.607-3.849 20.538-4.654 14.3-1.662 27.956-3.582 42.355-1.535 7.128 1.013 13.37 2.509 19.744 5.916 7.094 3.792 7.793 3.604 15.41.251-2.381-6.41-11.416-10.665-17.478-11.97-9.133-1.966-18.708-1.08-28.01-.77-16.063.536-32.741 4.026-48.131 8.351-29.505 8.294-57.862 17.952-84.98 31.769 2.293 3.151 4.712-.68 7.37-2.3 3.884-2.369 8.183-4.279 12.144-6.578m251.005-239.23c-5.146-1.017-10.292-1.427-15.43-2.65-6.495-1.547-9.34.806-15.384 3.828 2.42 1.102 5.502 3.01 8.075 3.675 4.531 1.173 3.015.225 7.322-1.5 3.821-1.53 11.015-2.146 14.946-1.347 10.53 2.137 8.84 14.568 7.833 22.854 5.188-2.522 5.846-7.268 7.69-12.098 1.997-5.228 4.146-9.975 5.684-15.41-6.57 1.72-13.91 2.72-20.736 2.648m82.66 196.963c18.681-6.975 39.663-5.194 58.88-6.82 7.396-.626 17.619.495 24.898 2.865 3.488 1.135 7.414 1.967 10.721 3.504 1.776.826 3.212 2.81 5.038 3.422 3.576 1.198 3.392.495 7.224-1.606a212.28 212.28 0 0110.2-5.256c20.891-10.022 41.974-18.909 63.472-27.267 5.583-2.17 11.133-3.632 16.869-5.525 3.622-1.195 9.955-3.633 13.852-2.393 13.585 4.32-6.18 20.55-10.634 24.73 5.543-.259 15.723-2.845 18.93 3.32 1.33 2.557.863 6.296-.328 8.854-.874 1.873-2.775 2.954-3.735 4.722-1.81 3.334-1.113 2.136-.838 5.475.763 9.271-1.052 13.376-8.777 19.323-7.302 5.622-16.745 8.018-25.453 10.478-15.229 4.305-31.206 5.524-46.63 9.238-7.253 1.747-14.825 2.878-22.099 4.196-8.078 1.464-17.58.33-24.419 4.815-13.666 8.962-26.197 20.15-41.365 26.632-13.388 5.722-25.867 8.522-40.252 10.992-13.54 2.325-27.566.674-40.64 1.008-15.292.39-29.475-.654-44.052-5.062-14.823-4.481-29.122-10.217-41.733-18.788-7.126-4.843-14.22-9.51-20.924-14.965-8.176-6.652-13.743-14.532-19.858-23.08-3.513 3.79-6.322 5.895-10.918 8.319 14.037 15.421 25.89 33.312 39.213 49.37 5.552 6.693 10.158 13.909 15.422 20.743 5.21 6.765 8.675 15.136 14.396 21.43 5.34 5.874 8.957 12.683 13.485 19.201 5.552 7.994 13.02 14.988 18.932 22.769 6.1 8.03 12.342 15.951 18.968 23.483 6.14 6.977 12.674 13.853 18.418 21.105 11.685 14.752 25.529 28.084 38.815 41.408 2.724 2.73 5.716 5.377 8.133 8.387 1.784 2.22 3.52 3.689 5.666 6.001 1.8 1.936 3.997 5.32 5.468 7.66 2.595 4.135 4.151 5.95 7.562 9.524 2.25 2.357 6.736 7.05 5.774 10.709-.59 2.244-3.31 2.32-4.073 4.196-.426 1.046.454 2.377.42 3.426-.16 5.15 2.337 6.576 6.442 10.348 4.137 3.803 9.48 6.843 14.353 9.68 3.676 2.141 7.487 5.048 11.557 3.096 2.829-1.358 5.768-3.946 8.742-5.48 7.531-3.887 15.665-7.375 23.344-10.507 17.164-7 34.367-14.62 50.842-23.59 9.292-5.058 19.43-10.068 29.663-12.508 4.607-1.1 9.47-3.864 12.863.24 3.367 4.07 1.195 9.622-.693 13.737 4.765-.688 11.082-2.031 14.167 2.692 1.168 1.788.41 6.51 1.686 7.549.563.459 5.114-.541 6.012-.305 11.619 3.058 7.568 20.274 1.724 26.758-13.349 14.814-33.265 22.118-50.64 30.651-4.548 2.233-9.152 4.143-13.837 5.979-6 2.352-11.49 5.324-17.582 7.52-10.148 3.658-19.955 8.972-29.846 13.011-10.098 4.126-21.343 6.184-31.953 9.243-8.998 2.594-28.098 8.516-28.293-6.024-8.495 6.615-19.356-14.98-23.681-20.08-3.9-4.599-7.781-9.272-11.481-14.034-3.378-4.347-6.698-14.918-11.123-17.75-2.704-1.732-5.697 1.733-9.857 2.559-7.222 1.433-10.8-.6-16.892-3.955-11.159-6.146-21.449-13.704-32.89-19.353-11.327-5.594-20.993-13.706-31.616-20.504-10.18-6.515-21.192-11.944-30.749-19.18-18.742-14.191-40.537-23.993-58.123-39.754-9.064-8.125-19.7-14.892-29.374-22.425-4.409-3.433-9.07-6.353-13.648-9.53-2.577-1.788-5.055-4.446-7.876-5.806-2.8-1.35-1.378-1.879-3.997-.86-1.493.58-3.204 3.289-4.433 4.38-18.167 16.14-38.682 23.771-61.61 30.973-5.192 1.63-10.023 3.402-15.29 4.78-5.026 1.317-8.705 3.582-14.174 4.373-10.092 1.46-20.029 1.538-30.191 1.598-10.007.06-20.3.211-30.018 1.077-10 .892-20.4-.822-30.214-1.634-4.968-.41-10.101-1.145-15.079-1.903-4.853-.737-8.951.2-13.727-.322-13.425-1.466-25.375-4.508-38.166-8.886-11.672-3.995-23.592-4.716-35.402-8.051-6.278-1.773-13.389-3.232-19.175-6.2-3.286-1.687-8.124-7.75-9.604-3.452-1.754-2.262-2.872-4.945-2.68-7.854-4.493 1.102-6.765 6.905-10.06 9.943-3.653 3.369-7.249 5.579-9.739 10.14-5.571 10.207-1.952 24.15.244 34.857 2.302 11.228 4.382 23.932 3.052 35.393-.485 4.177-1.592 10.286-6.732 10.56-5.231.28-8.294-7.933-10.146-11.534-4.004 9.544-9.258 12.904-16.861 4.779-1.446 5.413 2.448 27.285-8.412 24.753-8.142-1.898-14.931-19.712-17.353-26.407-7.972-22.038-6.718-47.338-3.958-70.246 2.677-22.22 5.16-46.664 23.17-62.591 7.79-6.892 15.393-8.022 25.272-7.769 9.925.255 23.865 4.694 30.48 12.273 1.64-2.804-1.65-5.843-.328-8.747 1.765-3.877 5.453-2.254 9.027-1.375 8.077 1.982 15.581 5.68 23.897 7.078 4.258.716 8.643.498 12.904.931 3.75.38 4.747-.584 8-1.159 2.566-.452 6.46.192 8.881-.649 1.012-.352 2.703-2.177 3.964-2.794 2.058-1.008 5.137-1.467 7.395-1.789 13.589-1.935 26.58-7.188 39.737-11.662 15.988-5.437 31.514-10.676 45.693-20.337 12.979-8.843 26.954-17.564 37.674-29.13 4.808-5.187 7.59-11.142 10.193-17.595 2.288-5.67-.667-6.398-3.44-11.663-2.437-4.625-2.867-8.987-7.067-11.782-6.138-4.082-13.395-4.867-19.425-9.656-7.413-5.886-7.158-15.264-8.79-24.23-3.337-18.334-.655-40.465 3.895-58.341 4.998-19.636 12.308-38.63 22.153-56.323 9.282-16.68 21.833-29.192 35.321-42.293-3.392-2.357-9.246-2.708-13.285-4.517-5.899-2.642-10.725-6.56-15.866-10.2-9.6-6.797-18.297-14.23-28.602-19.957-9.571-5.321-19.667-9.824-29.872-13.259-5.177-1.743-11.314-1.3-16.735-2.747-4.23-1.13-9.036-1.818-13.133-3.326-2.114-.777-3.968-2.485-6.146-2.97-23.683-5.262-49.898-4.214-74.49-4.348-5.251-.029-13.637-1.568-18.513.718-5.089 2.386-10.793 8.266-15.35 11.642-10.727 7.945-22.059 14.842-32.476 23.145-12.336 9.83-24.936 19.574-37.722 28.837-4.387 3.177-12.392 10.875-15.97 3.075-3.07-6.693 3.106-13.41 5.354-19.114-6.323 3.619-19.53 13.658-22.826 2.046-3.188-11.228 6.923-21.755 13.549-29.375-7.434 1.517-21.762 5.72-28.485.554-6.893-5.296-.98-16.862 3.927-20.925 14.95-12.383 34.897-20.01 52.794-26.996 18.161-7.09 36.454-12.398 55.087-17.36 3.833-1.022 7.13-4.263 11.108-4.62 4.583-.412 2.903 2.589 5.082-2.504.948-2.216.598-4.924 1.845-7.047 6.063-10.312 13.847 5.1 16.184 10.487 12.958-5.323 26.169-7.837 39.409-11.756 10.463-3.096 21.22-6.478 31.81-9.47 5.703-1.612 11.47-2.417 17.238-3.482 5.51-1.016 12.059-2.66 17.923-3.226 10-.968 20.605-1.906 30.465-2.133 48.158-1.113 99.358-4.18 138.373 30.21 0 3.136 10.046 11.617 12.524 13.345 6.906 4.817 13.034 9.547 19.437 15.267 6.922 6.185 12.458 11.532 16.563 19.93 3.536 7.237 4.4 15.223 6.286 22.99 5.032-5.733 6.583-.341 7.551 4.377 1.042 5.072 2.282 8.12 5.521 12.28 6.92 8.89 16.013 13.552 27.135 14.652 2.042.202 8.799.778 10.699-.004 3.448-1.416 2.416-2.263 3.896-6.074 1.127-2.904 2.788-5.03 4.259-7.718 1.796-1.28 2.475-2.992 2.036-5.133l.146-2.827c3.74-2.197 7.998 7.924 9.373 9.75 3.989 5.297 8.29 6.196 14.771 6.196-.423-3.544-1.36-3.744 1.976-5.364 2.06-.999 5.01-.297 6.962.495 5.611 2.277 5.49 3.395 11.833.795 4.69-1.923 8.888-4.423 13.133-7.164 3.612-2.333 4.18-2.73 5.567-6.81 1.061-3.12.89-7.27 1.286-10.507-4.282 2.569-6.79 7.527-11.49 10.077-4.766 2.587-10.515 4.205-15.704 1.823-10.799-4.956-7.755-18.662-4.57-27.357-4.937-.847-10.105-3.784-13.261-7.654-2.126-2.606-3.663-5.854-5.935-8.83-5.184-6.787-18.583-8.412-21.123 1.952-1.293 5.276 1.776 7.16 6.616 7.83 5.76.799 7.164-.619 5.066 6.19-2.31 1.189-3.03 3.042-2.153 5.558l-.431 2.511c-.525 2.109-1.65 3.739-2.263 5.765-1.742 5.744-2.043 7.317-8.538 9.067-11.393 3.072-24.625 4.674-36.37 5.68-3.907.335-8.048.294-6.753-5.011 1.068-4.38 8.343-5.863 12.03-7.214 4.274-1.567 12.168-2.296 15.828-4.557 3.902-2.41 3.528-6.787 2.653-11.44-1.09-5.809-2.2-10.228-2.023-16.47.195-6.835 2.652-9.315 6.724-14.726-10.734 2.979-22.72 10.772-33.865 10.757-14.83-.021-12.082-15.268-9.123-25.295-5.42.916-13.83 3.178-16.486-3.606-3.107-7.932 4.644-17.09 9.4-22.377-6.234-.607-12.18.899-14.452-6.62-1.58-5.236.36-11.415 3.958-15.364 9.424-10.344 24.074-12.412 36.984-13.871 7.14-.806 14.417-1.478 21.58-.805 6.943.652 12.38 3.577 18.717 6.515 6.625 3.072 11.126 7.356 15.55 13.22 2.078 2.755 3.81 5.426 4.976 8.699.568 1.597 1.1 9.493 2.353 10.396 1.852 1.34 13.201-3.322 16.435-3.19 3.572.143 5.79 1.256 7.901 4.254 1.143 1.626 2.309 7.635 4.449 8.29 1.034.317 7.486-2.342 9.002-2.574 2.204-.337 4.335-.822 6.595-1.039 7.017-.676 14.31-.866 21.117 1.288 13.585 4.295 21.324 16.62 17.773 31.14-.663 2.707-2.515 4.682-3.326 7.248-1.09 3.45-.693 7.059-1.511 10.625-1.725 7.514-4.926 11.976-11.41 15.881 20.848 16.595-1.765 54.31-23.304 35.282-6.12 8.58-19.446 14.721-29.443 17.109-13.472 3.218-25.98 1.332-33.185-11.096-.818 2.131-2.144 4.428-2.547 6.65a4527.9 4527.9 0 00-.949 2.476c-.941 1.252-.488 1.975 1.357 2.168 1.26 3.559 2.184 3.92.328 8.226 13.767-4.767 28.278 7.63 37.784 16.819 6.403 6.19 9.809 15.272 13.819 23.021 4.704 9.09 8.285 18.588 12.63 27.826 3.903 8.302 6.313 17.322 10.575 25.44 4.033 7.683 10.554 13.223 17.32 18.146 6.277 4.565 12.574 9.13 20.605 11.028 9.15 2.164 19.365-.898 28.308-3.194"/><path d="M130 370.858c.708-11.28 17.762-21.549 25.494-28.454 10.026-8.954 20.092-17.996 31.1-25.904 27.572-19.807 56.222-37.643 86.742-52.44 4.67-2.264 38.71-18.417 39.647-9.288.562 5.463-13.295 8.196-17.083 9.83-8.306 3.587-16.185 8.094-24.21 12.198-24.083 12.313-45.927 29.717-68.221 45.458-13.307 9.395-25.753 20.013-38.93 29.54-7.024 5.079-13.197 11.116-19.98 16.38-4.837 3.756-12.236 11.684-14.559 2.68M706.003 444.107c3.77-1.528 8.114 13.776 9.76 16.507 3.138 5.205 6.572 10.585 10.38 15.3 8.798 10.895 17.728 21.338 28.104 30.788 9.944 9.058 21.174 17.635 33.104 23.982 3.436 1.828 29.178 10.018 19.477 18.195-3 2.527-12.39.133-15.609-.874-5.561-1.74-11.721-4.641-16.812-7.457-10.68-5.908-20.667-13.446-29.225-22.158-9.785-9.96-17.785-20.885-25.657-32.382-7.064-10.315-17.877-29.181-13.522-41.901M276 316.166c-1.488 3.252-4.056 2.368-6.834 3.403-4.317 1.61-8.419 4.553-12.415 6.85-7.68 4.412-15.286 9.002-22.802 13.69-13.963 8.706-27.453 18.132-39.916 28.891-7.853-7.896 31.47-35.715 36.632-39.037 7.719-4.967 15.73-10.09 24.011-14.084 6.495-3.133 21.036-11.649 21.324.287M755.42 466.097c5.214-1.076 6.712 7.083 8.882 9.633 3.446 4.05 7.84 7.514 11.957 10.735 5.01 3.92 9.526 7.96 14.79 11.547 4.282 2.917 13.713 7.465 12.902 13.878-1.853 14.658-28.242-6.435-32.682-10.822-6.33-6.252-24.843-25.657-15.85-34.97M815 498.281c-3.589 12.514-27.736-9.828-25.9-18.824 1.665-8.162 10.39.284 14.065 3.383 5.068 4.274 11.595 8.5 11.835 15.441M254.806 362.188c-5.644-1.608-19.612 5.474-11.15-5.332 2.417-3.086 5.145-6.03 8.517-4.383 3.412 1.666 5.15 6.883 2.633 9.715M607 208.334L603 210c.477-1.334.956-2.667 1.436-4 .502 1.342 1.356 2.12 2.564 2.334M325 65.207c-3.08.551-5.876.65-9 .553 3.048-.532 5.92-.522 9-.553M103.352 593c.1 2.669.198 5.337.296 8-.1-2.671-.197-5.336-.296-8M707.344 112l-.17-7c.941 2.321.741 4.657.17 7M336 64.767l-7 .034c2.674-.79 5.08-.803 7-.034M351.628 328c-.086 2.001-.172 4.001-.256 6l.256-6M405 62.715l-6-.43 6 .43M149 491.634c-2.013.044-4.067.74-6-.502l6 .502M953 314.168c-1.94 1.286-4 .282-6 .43l6-.43M555 40.123c-1.919 1.309-3.984.532-6 .468l6-.468M232 501.768l-5 .05c1.662-.924 3.33-.755 5-.05M528 74.56l3-.12-3 .12M376 62.322l-4 .563c1.21-1.47 2.67-.34 4-.563M758 325.252l-4 .496 4-.496M765 324.437l-4 .126 4-.126M579.617 153c-.079 1.335-.158 2.67-.234 4 .08-1.335.157-2.668.234-4M359 577.574l3-.148-3 .148M77 164.511l3-.022-3 .022M816 322.895l-4-.005c1.335-.665 2.668-1.372 4 .005"/><path d="M814.292 498l-.14-4c.837 1.31.96 2.64.14 4M793 322.28l-4 .44 4-.44M276.55 316l-.1-4c.035 1.334.068 2.668.1 4M199 141.546l2-.092-2 .092M272 492.262l-4 .476c1.334-.16 2.666-.317 4-.476M807 322.136c-1.328.964-2.663.97-4 .023l4-.023M247 499c-.501 1.514-1.88.863-3 .849l3-.849M532 102.564c.669-.043 1.337-.086 2-.127-.671.044-1.336.085-2 .127M348 63.252l-4 .496 4-.496M840 381.462c.67.024 1.338.049 2 .076-.672-.023-1.336-.05-2-.076M355.62 372c-.08 1.002-.159 2.004-.24 3 .079-1.005.159-2.002.24-3M551 174.478c.67.016 1.34.03 2 .043l-2-.042M242 562.431l2 .138-2-.138M777 323.835l-4-.01c1.337-1.039 2.67-.709 4 .01M908 370.572l2-.144-2 .144M928 609.229l-4 .542 4-.542M670 82.258l-4 .484 4-.484M410 371.033c-4.061 2.262-8.447 4.157-12.445 6.468-2.824 1.63-5.124 5.463-7.555 2.26 5.357-2.618 14.037-9.289 20-8.728M152.76 573c-.82-2.341-.808-4.677.08-7-.025 2.336-.053 4.668-.08 7M157.784 606l.205 4c-.223.016-1.953-3.915-.205-4M190.339 119c.107-1.668.216-3.336.322-5l-.322 5M367 557.699l5-.398-5 .398M117.275 617l.45 4-.45-4M303 554.735l4-.47-4 .47M291 552.367c1.32.315 2.823-1.117 4 .542-1.335-.182-2.666-.362-4-.542M116.617 590l-.234 3c.08-1.004.157-2.002.234-3M145.447 157c.035 1.001.07 2.003.107 3-.034-1.004-.071-2.002-.107-3M130.291 602l.417-3-.417 3M851 366.765l4-.53-4 .53M116.356 611l.288 3-.288-3M844.188 362c.851.998.805 2 .02 3l-.02-3M538 358.593a491.39 491.39 0 01-2-.186c.672.061 1.336.124 2 .186M101 144.758l4-.517-4 .517zM771.366 377.921c-7.403 1.076-.578-9.167 1.428-10.589 2.335-1.651 4.805-2.308 7.067-4.293 1.415-1.24 3.02-4.235 5.192-4.029 4.791.451 2.63 7.321 1.202 10.267-2.799 5.768-8.655 8.742-14.889 8.644M531.1 260c-4.358-1.546-26.39-5.733-16.632-14.655 6.446-5.895 24.357 9.174 16.633 14.655M430.016 329.868c-.682-7.795 20.465-16.428 17.742-6.187-.633 2.38-6.626 8.257-8.261 9.812-4.378 4.167-9.478 3.26-9.48-3.625M232 114.43c1.433-5.052 3.012-7.426 8.018-9.377 3.2-1.25 8.502-2.385 8.966 2.827.344 3.847-5.083 7.588-7.709 9.225-4.695 2.929-7.281 2.773-9.275-2.675M517.985 300.36c.051 5.302-1.804 11.535-6.472 14.72-3.656 2.491-11.967 3.664-8.813-3.557.961-2.2 3.673-3.288 5.332-4.918 2.727-2.684 2.953-5.59 4.48-8.103.52-.86-.304-2.89 1.336-3.392 2.739-.837 4.328 3.327 4.137 5.25M617.19 257c3.768-.006 7.331 1.348 5.139 5.65-1.663 3.261-8.882 5.763-12.147 6.22-4.192.587-8.876-.71-6.575-6.022 1.917-4.424 9.43-4.821 13.582-5.848M648 327.004c-.156 9.72-17.673-.439-15.87-7.73 2.272-9.189 14.467 3.438 15.87 7.73M446.993 155.989c0 8.256-17.402-2.317-15.901-9.54 2.002-9.627 16.265 3.304 15.901 9.54M429.83 121c-7.352-5.877 9.504-20.997 14.345-14.34 4.382 6.03-9.908 13.98-14.345 14.34M434.912 245c-4.028-.362-8.672-.322-12.218-2.632-2.589-1.685-7.082-8.194-3.14-11.004 2.427-1.73 8.555 3.196 11.041 4.49 4.241 2.207 7.062 3.582 4.317 9.146M605.45 299.999c-9.493.124-12.494-11.347-1.057-9.867 3.04.392 10.534 1.124 10.606 5.128.084 4.618-5.96 4.146-9.55 4.739M509 194.318c-.683 4.356-1.86 7.56-5.684 10.106-3.286 2.188-9.74 5.1-9.294-1.436.265-3.89 13.223-18.444 14.978-8.67M324.195 102c3.777 1.81 8.709 21.078 3.644 22.772-8.05 2.695-6.225-19.36-3.644-22.772M488.32 283c-5.867-6.659 9.508-19.896 13.21-13.123 3.056 5.594-9.644 10.758-13.21 13.123M383.02 106.47c1.034-10.203 12.766 4.863 11.938 9.77-1.451 8.591-12.48-5.2-11.939-9.77M392 360.239c-.062 6.81-13.432-.25-11.874-7.44 1.76-8.123 11.775 3.643 11.874 7.44M662 365.013c3.964-11.847 6.28-3.788 7.394 3.689.356 2.388 1.966 8.997-2.176 8.238-3.852-.706-4.905-9.42-5.218-11.927M710.476 372c3.107 2.128 9.316 18.041 2.339 15.78-5.322-1.722-6.425-12.642-2.339-15.78M553.732 307c.353 4.274.932 5.736 3.207 9.256 1.953 3.02 3.228 4.43.475 7.744-3.265-2.491-7.21-4.428-8.185-8.58-.754-3.21.255-8.288 4.503-8.42M460.779 263c-2.3-1.827-10.318-11.574-8.518-15.11 2.222-4.366 13.398 8.398 8.518 15.11M611.788 334c2.485 2.202 1.34 6.856 1.765 9.704.43 2.886 2.833 6.739.312 9.296-6.203-3.547-5.992-13.938-2.077-19M399 296.973c-.041-3.436 8.142-9.688 9.842-5.673 1.46 3.447-7.635 13.767-9.842 5.673"/></g></g></svg>