<svg width="1024" height="768" xmlns="http://www.w3.org/2000/svg"><g fill="none" fill-rule="evenodd"><path d="M344 337.466c5.023-19.531 9.757-39.487 17.21-58.257 4.665-11.746 9.608-23.385 14.559-35.012.686-1.614.976-3.17 2.312-3.974 1.784-1.073 5.476-1.05 7.489-1.419 28.597-5.245 57.49-9.248 86.48-11.5 33.082-2.57 65.334-1.394 98.068 3.997 27.995 4.61 55.713 10.964 83.129 18.24a937.062 937.062 0 0112.07 3.284c1.872.523 4.978.79 6.61 1.882 3.487 2.334 4.67 11.897 5.976 15.948 1.751 5.43 2.77 12.89 6.146 17.51 5.026 6.877 12.676 12.842 18.906 18.559 21.742 19.951 45.575 38.151 73.654 48.015 43.44 15.26 89.248 24.824 134.249 34.28 1.047.22 2.095.439 3.142.656l-34.948 38.7-19.702 21.817c-3.377 3.74-3.007 4.406-7.782 3.365-23.929-5.221-47.815-10.913-71.31-17.85-11.518-3.401-23.234-6.932-33.95-12.44-14.75-7.581-28.594-16.953-42.068-26.578-12.045-8.605-23.807-17.607-35.357-26.864-2.277-1.824-10.493-10.621-13.158-10.048-2.298.494-6.277 5.724-7.96 7.247-4.45 4.03-8.92 8.04-13.416 12.017-7.157 6.328-14.466 14.08-22.825 18.842-8.809 5.02-18.905 8.44-28.202 12.438a6537.056 6537.056 0 01-15.57 6.665c-1.356.578-3.248 1.836-4.71 1.867-4.329.092-10.613-3.426-14.627-4.796-10.312-3.52-20.549-7.264-30.68-11.277-21.63-8.57-45.402-17.883-63.204-33.305-3.106-2.69-6.14-5.702-8.196-9.296-.713-1.246-1.773-2.981-1.846-4.453-.116-2.346 1.203-2.806 3.165-4.273 10.126-7.568 21.043-14.164 31.78-20.815 2.524-1.562 5.052-3.118 7.588-4.658l-125.461 10.075-17.561 1.41" fill="#FF5678"/><path d="M530.821 98.582c13.255.605 26.844 1.221 39.984 3.087 13.097 1.858 25.32 6.613 37.158 12.37 21.345 10.381 43.16 23 56.889 42.966 6.419 9.336 11.655 19.11 20.514 26.46 2.073 1.718 4.332 3.784 7.083 4.31 2.187.418 4.116-.467 6.258-.573 4.088-.203 5.637 1.952 5.637 6.013 3.068-1.225 6.41-2.333 9.756-1.883 2.797.377 5.022 2.064 7.708 2.773 4.847 1.28 9.591-.634 14.201-2.06 11.643-3.603 24.432-6.331 36.665-5.046 8.057.847 17.821 4.34 13.649 14.72-3.46 8.608-16.4 12.966-24.572 15.108-6.951 1.822-16.298.196-15.71 9.787.41 6.694 1.423 13.876 8.539 16.048 3.9 1.191 17.724 2.966 9.652 9.006-5.96 4.461-8.042 12.313-12.576 18.21-5.779 7.516-13.613 13.592-22.77 16.335-10.248 3.07-21.091 2.481-31.617 3.672 7.414 10.23 18.118 17.267 27.861 25.047 10.244 8.18 20.128 17.12 31.985 22.951 10.627 5.227 22.108 8.856 33.084 13.288 11.528 4.655 23.137 9.256 35.036 12.883 24.002 7.314 49.25 12.423 73.926 16.91 12.177 2.215 24.117 1.89 36.418 2.087 12.618.203 25.228 2.415 37.614 4.687 6.005 1.103 12.067 1.798 18.07 2.895 2.882.527 14.286 1.688 14.695 5.908.666 6.872-6.767 10.724-12.21 12.64-2.325.82-6.068.7-8.081 1.826-2.178 1.218-1.328 3.01-1.577 5.368-.363 3.427-2.197 5.892-5.008 7.793-2.312 1.564-5.099 1.502-3.505 4.464.735 1.365 2.574 2.226 3.422 3.666.969 1.643 1.415 3.445 1.218 5.336-.345 3.31-2.532 5.836-5.582 7.007-4.876 1.871-10.598.547-15.592-.06-8.357-1.017-16.837-1.119-25.082-2.947-8.597-1.906-16.962-4.843-25.569-6.795-4.413-1-8.835-1.84-13.148-3.228-2.806-.902-6.862-3.247-9.851-2.512-2.8.687-4.988 4.067-6.818 6.03-2.527 2.706-4.972 5.486-7.54 8.155-1.7 1.767-3.445 3.498-5.302 5.102-.604.521-4.333 2.801-4.385 3.413-.145 1.73 3.926 1.7 4.797 2.387 5.067 4.004-2.546 6.538-5.831 6.337-7.572-.462-15.182-1.391-22.682-2.503-17.856-2.649-35.661-5.508-52.734-11.489-16.887-5.916-33.366-12.208-48.985-21.026-14.993-8.463-29.494-18.031-43.656-27.811-6.871-4.746-13.79-9.663-19.593-15.71-5.674-5.912-10.3-12.7-15.006-19.382-11.269 10.883-22.114 22.328-34.22 32.305-11.515 9.49-25.358 14.56-38.752 20.724.434 2.8 13.525 4.478 15.916 5.206 10.92 3.322 21.4 8.654 32.02 12.835 17.67 6.956 34.434 16.008 40.319 35.326 5.785 18.994-.925 38.113-9.11 55.272-9.659 20.255-21.132 39.016-35.002 56.674-5.9 7.513-12.256 14.428-18.73 21.423-5.524 5.97-10.26 13.04-7.945 21.523 4.445-1.39 5.26 2.078 2.353 5.015-2.583 2.61-7.048 3.116-10.498 3.548-10.457 1.311-21.26.848-31.728-.126-19.062-1.776-38.166-6.586-55.424-14.864-8.586-4.118-11.693 2.522-17.598 7.665-4.646 4.046-11.043 6.669-14.574 11.904-2.904 4.307-1.008 11.112 5.025 9.498 4.695-1.256 8.466-6.492 13.438-6.694 8.825-.358-7.825 12.232-9.956 13.769 4.218 3.771 9-1.4 13.253-2.264 4.079-.828 5.218 1.283 3.044 4.683-1.695 2.65-7.019 4.528-3.478 7.753 2.934 2.67 9.439 4.077 13.04 5.247a201.036 201.036 0 0034.117 7.921c3.778.539 9.834.194 12.897 2.872 4.04 3.532 2.092 9.386.047 13.432-7.745 15.328-23.85 22.862-40.39 23.966-10.186.678-20.468.021-30.687.57-11.198.603-22.42 1.498-33.644 1.128-18.043-.594-29.522-13.634-38.517-27.973-5.715-9.111-10.982-18.486-15.93-28.032-1.932-3.73-5.979-7.594-6.667-11.784-.621-3.773 1.786-6.798 4.125-9.468 6.155-7.024 13.56-12.385 20.795-18.19 4.131-3.313 5.72-6.057 7.558-10.88 1.55-4.06 4.526-5.795 7.148-9.035 2.883-3.564 1.978-4.194-.271-7.106-2.353-3.05-1.429-7.543-.44-10.994 1.417-4.95 4.458-6.04 8.998-7.636 4.14-1.454 7.65-4.006 11.322-6.373 18.134-11.692 35.22-24.923 53.579-36.29 18.112-11.213 37.04-21.119 54.327-33.632-14.037-1.887-26.412-9.465-39.654-13.953-6.795-2.303-13.526-4.763-20.1-7.645-2.511-1.1-5.437-2.08-7.677-3.698-2.25-1.626-3.98-3.766-6.339-5.304-5.598-3.653-12.254-5.732-18.274-8.579-6.501-3.074-12.918-6.435-18.96-10.347-5.64-3.654-11.055-7.83-15.745-12.654-3.736-3.844-7.369-8.853-12.658-10.619.555 7.365 9.68 13.464 14.681 17.897 8.115 7.192 16.55 13.304 25.622 19.244-10.174 8.716-22.575 14.391-34.49 20.279-13.396 6.618-26.418 13.955-39.76 20.677-11.303 5.694-23.194 10.081-34.683 15.372-12.394 5.708-25.152 10.494-38.084 14.837-11.703 3.93-22.722 8.12-33.765 13.637-10.735 5.363-22.222 9.464-33.706 12.906-12.903 3.867-25.214 7.545-37.624 12.847-11.19 4.78-22.426 7.835-34.27 10.434-3.911.859-8.934 2.434-11.674-1.353-2.077-2.87-2.39-7.295-2.985-10.67-2.283-12.917-2.464-26.04-4.518-38.976-7.795 2.352-15.179 5.246-23.403 5.62-5.17.234-8.312.767-9.6 6.411 2.99.338 13.677.486 13.966 4.721.261 3.821-6.205 3.86-8.498 3.965-4.103.187-7.822-.486-10.012 3.53 3.227 1.191 10.38-.98 11.809 3.358 1.84 5.597-6.52 5.583-9.527 6.034-5.248.786-4.709 4.907-4.35 9.312.474 5.795.832 11.599 1.615 17.365 1.672 12.32 4.537 24.456 5.894 36.822 1.173 10.693 1.83 20.963-5.814 29.483-3.073 3.427-7.345 7.37-12.175 7.778-4.902.413-4.813-3.02-7.864-5.546-1.87-1.547-4.346-1.864-6.549-2.699-2.68-1.015-5.279-2.502-7.686-4.043-4.437-2.839-8.315-6.363-11.452-10.6-12.268-16.573-16.653-41.335-17.869-61.43-.772-12.78-.001-25.575 1.171-38.304.632-6.855 1.268-13.714 2.097-20.549.257-2.117.687-4.239.846-6.363.091-1.216-.495-3.673.126-4.84-.793 1.488-2.198.388-3.593-.783-2.879-2.418-1.992-7.061-.452-10.24 4.64-9.582 18.547-9.954 27.595-10.7 24.32-2.002 47.423-8.522 70.706-15.486-3.286-4.92 1.882-8.167 5.888-9.858 6.178-2.607 12.557-4.9 18.793-7.388 14.08-5.623 27.869-10.865 42.614-14.453 13.356-3.25 26.28-8.643 39.457-12.597 13.615-4.086 26.984-8.755 40.375-13.514 26.523-9.425 53.07-19.055 78.81-30.488 6.506-2.89 12.721-6.24 19-9.584 5.101-2.715 11.087-4.706 15.412-8.629 4.129-3.746 6.601-8.954 11.09-12.356 4.041-3.063 9.571-3.105 12.92-6.91 4.528-5.144 9.934-7.405 16.081-10.422 1.975-.969 14.975-5.865 14.711-8.644-9.29 0-18.827 2.764-28.015 4.05-9.717 1.362-19.427 2.875-29.216 3.628-15.861 1.219-31.715.889-47.51-.83-2.36-.256-11.828-2.2-13.46.331-1.244 1.93 1.849 4.225 1.88 6.298.045 3.04-2.406 4.672-5.182 3.615-5.405-2.055-4.613-10.763-4.108-15.182.966-8.453 3.115-16.829 4.994-25.111-11.15 5.675-21.74 12.96-31.341 20.967-7.438 6.202-14.155 14.611-22.883 19.032-8.38 4.247-13.363.624-13.02-8.724.158-4.283 1.026-8.348 2.51-12.337.7-1.884 3.58-7.219 2.231-9.227-7.66 6.107-15.267 12.23-23.307 17.835-5.684 3.962-13.924 10.143-21.344 8.57-6.554-1.389-5.913-8.6-3.835-13.457 1.801-4.214 5.04-7.957 8.248-11.175 2.654-2.66 6.426-5.043 7.755-8.73-8.803 3.955-17.865 6.948-27.087 9.727-6.557 1.977-11.14 10.185-18.766 8.972-7.634-1.214-4.594-10.646-1.547-14.747 2.132-2.87 5.082-5.396 7.943-7.516 2.79-2.069 7.034-3.871 8.407-7.313-8.918 1.674-17.884 4.583-27.06 4.047-5.449-.32-14.545-2.698-13.47-10.022 1.09-7.417 10.967-7.985 16.52-9.368 7.573-1.887 14.82-5.428 22.127-8.13 14.74-5.45 29.769-9.82 44.85-14.164l4.765-1.372c17.024-4.906 34.144-9.084 51.38-13.16 8.518-2.014 17.007-4.211 25.592-5.93 8.307-1.663 16.746-2.626 24.99-4.613-6.948-10.485 1.464-19.1 10.548-24.09-5.761-1.165-11.62-1.865-17.331-3.277-4.878-1.206-9.58-3.058-14.493-4.125-8.444-1.833-16.878-2.797-24.087-8.025-13.623-9.881-14.782-25.605-3.303-37.503 11.584-12.008 28.587-17.631 44.95-18.19 18.315-.624 39.154 2.925 56.292 9.41 8.419 3.184 17.184 7.234 24.401 12.659 4.909 3.69 12.672 10.76 19.261 10.76-7.892-9.543-17.577-19.41-19.001-32.335-1.35-12.235 4.2-25.24 13.515-33.155 18.611-15.809 49.324-14.378 72.141-13.336zM424.716 623c-4.858 7.554-11.576 13.687-17.919 19.957-2.188 2.162-6.58 4.913-6.79 8.3-.172 2.766 3.221 5.876 4.703 8.05 7.836 11.492 14.288 24.186 23.86 34.394 10.82 11.535 23.167 13.778 38.487 13.81 17.01.038 34.247 2.166 51.227 1.269 14.385-.76 28.563-7.164 35.716-20.182-4.66-2.402-11.29-1.257-16.34-1.203-6.887.072-13.609-.052-20.412-1.249-6.166-1.085-12.26-2.713-18.06-5.09-3-1.231-5.968-2.638-8.731-4.348-2.024-1.25-3.544-3.166-5.532-4.394-7.331-4.526-15.797 9.865-23.632 9.588-4.8-.168-3.063-4.888-1.065-7.528 3.605-4.768 9.893-7.711 14.641-11.187-4.42-4.069-9.415.198-13.623 2.324-5.262 2.658-10.729 5.92-16.608 6.919.44-7.576 10.747-11.637 16.433-14.718 2.53-1.372 5.701-2.644 6.324-5.66.469-2.268-.333-5.493-.571-7.784-.301-2.912-.524-3.842-3.625-4.663-3.76-.996-7.548-.708-11.315-1.951-10.31-3.405-18.33-8.458-27.168-14.654zM89.635 503.614a125.468 125.468 0 01-7.62 1.842c-5.06 1.067-10.13 2.176-15.208 3.145-2.548.486-5.376.178-6.127 2.609-.386 1.246.585 3.486.752 4.78.299 2.335.318 4.701.346 7.053.266 21.66-4.264 43.197-2.27 64.857 1.685 18.305 5.627 41.452 19.076 55.086 5.804 5.884 12.946 12.274 20.255 16.296 5.73 3.15 13.733-4.759 14.903-10.235.839-3.924-.56-8.065-1.47-11.848-1.168-4.847-2.35-9.692-3.507-14.542-2.468-10.351-4.713-20.8-5.422-31.441-.233-3.496-.183-6.864.014-10.345.107-1.89.997-6.445-.325-8.064-1.71-2.094-5.618-.726-7.932-.547-2.537.196-5.013.045-7.491-.603-5.9-1.542-6.934-6.23-.492-8.402 4.497-1.516 12.719.68 16.497-2.237 4.44-3.429-4.533-3.9-6.628-3.989-2.79-.118-12.044.612-11.572-4.588.35-3.854 8.316-4.11 11.103-4.275 5.955-.35 13.489 1.88 16.063-5.298 1.031-2.876-5.18-4.336-6.738-5.762-3.787-3.466-5.028-9.408-5.354-14.277-.32-4.788 4.393-21.384-2.788-21.823-2.205-.134-5.87 2-8.065 2.608zm353.18 95.78c-4.226 5.03-7.879 10.542-11.815 15.8 9.232 5.094 18.675 9.19 28.22 13.57 4.342 1.993 7.385 3.572 11.586.552 3.014-2.167 5.274-5.246 8.215-7.499 4.228-3.236 8.645-6.202 12.979-9.287-12.787-4.665-25.77-8.759-38.553-13.434-4.78-1.748-7.18-3.814-10.632.297zm-105.29-15.982c2.735 2.772-2.53 10.452-3.566 13.081 8.479-.672 16.887-2.009 25.213-3.73 2.835-.584 1.79 2.867.73 4.005-1.313 1.409-3.937 1.835-5.691 2.337-6.453 1.85-13.073 2.74-19.696 3.727 3.031 3.729 10.324 9.561 7.975 15.168-4.235-3.649-7.28-8.505-11.965-11.66-1.354 2.02-4.162 9.141-7.24 8.705-4.83-.685.064-9.008 1.074-11.012-3.253 0-15.478 2.855-17.184-1.15-1.745-4.096 10.052-3.963 12.233-4.93l-.406-.497-.409-.492c-1.63-1.966-3.196-3.904-3.417-6.602 3.648 1.256 6.084 6.971 10.093 7.054 3.801.079 5.498-5.632 6.853-8.337.77-1.538 3.385-7.715 5.404-5.667zm411.373-53.87c8.174 6.894 2.621 20.797-3.564 27.048-6.93 7.002-22.359 13.435-31.142 6.297-4.808-3.907-3.073-9.867-1.889-15.064 1.316-5.775 2.135-10.644 6.92-14.606 7.441-6.166 21.382-10.668 29.675-3.675zm-16.593 4.006c-7.975 1.695-16.056 9.662-17.951 17.872-2.486 10.767 8.693 11.553 16.057 9.935 9.264-2.035 19.106-8.827 19.579-19.48.407-9.195-11.489-9.645-17.685-8.327zM152 487c-11.942 4.444-23.167 10.524-35.697 13.161-3.823.805-5.394 1.685-6.34 5.247-1.324 4.984-2.579 10.036-1.633 15.244 1.963 10.813 17.013 9.488 25.37 9.064 4.29-.218 12.543.566 16.266-2.111 2.719-1.954 1.578-5.62 1.154-8.474-1.585-10.67.144-21.469.88-32.13zm651.096-103.04c-4.397.829-11.998 4.412-5.694 8.904 4.205 2.995 10.464 3.359 15.405 4.099 9.651 1.445 19.954 2.694 28.328 8.138 15.519 10.085 13.618 29.118 8.976 44.695 3.343 1.969 13.163-10.902 15.013-12.995a4706.276 4706.276 0 0122.602-25.392c3.239-3.609-23.304-16.072-25.69-17.194-12.608-5.931-24.377-9.836-38.52-10.854-6.707-.483-13.782-.652-20.42.599zm-54.743-31.57c-1.205 3.037.906 4.413 2.845 6.512 10.842 11.727 18.477 28.325 24.514 42.883 3.01 7.26 5.119 14.58 6.983 22.186 1.829 7.463 7.638 9.457 14.599 11.575 16.033 4.88 32.91 6.514 49 11.334 4.31 1.291 5.157-8.185 5.427-10.588.77-6.838.055-13.974-3.539-20-6.793-11.394-20.412-13.816-32.56-15.757-6.947-1.11-16.1-2.255-21.598-7.004-2.759-2.384-3.15-5.118-.998-8.08 3.924-5.4 10.833-6.094 17.006-6.535 3.007-.214 21.623 1.667 22.23-.535-9.268-3.02-18.782-5.012-27.915-8.465-7.124-2.695-14.306-5.24-21.495-7.761l-7.19-2.52c-7.312-2.563-14.006-5.682-21.021-8.768-2.635-1.159-5.052-1.589-6.288 1.523zM905.58 401.8c-2.32 3.122-4.624 5.742-6.364 9.249-2.03 4.091-5.399 6.7-8.215 10.214 14.624 2.58 28.575 5.857 42.665 10.583 7.234 2.427 14.707 3.626 22.107 5.364 6.207 1.458 12.822 3.72 19.25 2.382-7.32-10.087-26.846-7.298-31.986-19.515-3.498-8.31 5.098-14.939 12.128-16.381 12.278-2.52 25.366-2.713 37.836-3.61.131-4.771-45.137-7.241-49.612-7.628-7.948-.687-16.242-2.177-24.175-2.452-7.362-.256-9.769 6.598-13.634 11.794zm-172.738-34.89c-4.36 4.214-8.629 8.52-12.985 12.74-2.864 2.774-6.743 5.729-9 9.034-2.882 4.22 2.166 6.249 5.53 8.246 8.49 5.042 17.266 9.749 25.906 14.545 7.762 4.309 15.835 9.793 24.403 12.314 4.582 1.348 8.885 3.44 13.305 5.21-2.132-19.132-13.12-36.51-23.251-52.46-2.327-3.663-4.73-7.274-7.056-10.936-1.173-1.843-3.347-6.194-5.805-6.57-3.632-.555-8.845 5.749-11.047 7.877zM955 415.606c5.311 3.043 10.635 4.589 16.626 2.29 1.473-.601 2.933-1.237 4.374-1.906-3.992-5.444-15.798-2.126-21-.384zm-439.895-66.583c-9.415 4.244-19.485 8.472-27.673 14.875-3.022 2.364-9.776 7.33-8.196 11.833 1.353 3.856 8.83 7.14 12.38 8.315 18.676 6.182 39.932 1.685 57.129 13.029 4.654 3.07 6.171 7.082 9.629 11.119 3.126 3.65 7.083 3.197 11.285 1.682 5.517-1.99 10.601-5.036 16.14-6.989 2.832-.998 7.645-1.66 7.94-5.481 1.385-18.014-2.458-40.963-18.339-51.984-17.827-12.372-42.42-4.455-60.295 3.601zM505.01 391c-.456 2.284 17.215 6.42 19.134 6.948 10.67 2.939 20.638 9.925 31.69 11.052 1.922-4.285-13.387-11.108-15.808-11.988-11.05-4.012-23.413-4.74-35.016-6.012zm346.99-8c13.397 5.49 26.382 12.21 37.611 21.556 3.873 3.223 13.283-12.072 15.39-14.417-17.843-.742-35.427-4.146-53-7.139zM601.62 275.407c-12.42 8.203-23.236 18.93-36.87 25.218 4.266.672 8.924-2.09 12.998-3.059 3.968-.943 7.98-1.565 11.843-2.9 2.373-.82 12.172-6.116 14.01-2.527 2.874 5.607-17.363 9.486-20.24 10.442a1041.222 1041.222 0 00-28.988 10.125c-9.315 3.404-18.624 7.066-28.25 9.51-9.777 2.483-20.143 3.122-29.542 6.978-8.311 3.409-15.455 9.051-23.472 13.033-8.04 3.993-17.178 6.463-24.108 12.406 7.536 8.041 16.448 14.775 26.198 19.901 1.561-12.263 15.936-19.245 25.77-23.959 21.44-10.276 53.64-25.772 75.493-8.358 15.971 12.727 18.135 36.877 18.135 55.783 4.326-1.377 8.276-3.568 12.295-5.636 2.783-1.434 2.814-5.424 3.164-8.089.574-4.364 1.754-8.59 3.11-12.778 2.998-9.261 6.751-18.297 10.329-27.345 5.789-14.636 12.924-29.07 16.482-44.469 2.322-10.049 5.084-27.32-7.033-32.309-10.483-4.314-22.813 2.41-31.325 8.033zm-54.236-40.902c-2.025 1.357-1.27 5.428-1.131 7.47.502 7.427.187 14.885.436 22.325.302 9.066.369 25.69 9.718 30.774 6.395 3.476 14.348-1.733 19.45-5.28 8.636-6 16.557-12.969 25.311-18.826 10.378-6.945 30.043-16.55 39.974-3.487 5.374 7.07 4.62 17.605 3.28 25.831-1.77 10.853-5.904 21.147-10.012 31.29-8.484 20.944-17.338 42.229-22.056 64.398 10.757-6.392 19.122-15.605 28.51-23.698 6.958-6 17.293-12.889 18.899-22.665.363-2.208 2.5-3.781 3.971-5.258 1.913-1.923 3.262-3.87 4.474-6.322 2.676-5.417 4.415-11.268 5.511-17.196 2.3-12.436 1.204-24.815-.917-37.178-.959-5.591.449-11.59-.855-17.04-.905-3.784-3.575-3.56-7.129-4.42-12.795-3.1-25.614-6.105-38.417-9.176-5.2-1.248-10.855-3.589-16.254-3.511-4.431.064-8.154 2.706-11.98 4.62-6.279 3.142-16.26 8.638-23.471 5.514-8.403-3.64 1.39-11.861-2.825-15.75-2.889-2.667-11.523-1.068-15.44-1.73-2.147-.363-7.078-2.004-9.047-.685zm132.223 107.398c-6.11.963-9.65 3.613-13.015 8.813-3.42 5.286-3.827 7.903 1.05 12.04 5.259 4.46 10.762 8.865 16.345 12.882 7.077 5.091 14.928 8.945 21.923 14.161 3.063 2.285 16.967-15.624 19.38-18.08 3.327-3.387 6.743-6.784 10.314-9.903 1.304-1.139 5.395-3.781 5.397-5.72.005-4.898-10.86-9.281-14.355-10.63-7.833-3.02-16.045-4.24-24.39-4.366-7.398-.112-15.321-.353-22.65.803zm27.231-21.55c-5.737 3.046-11.73 5.613-17.503 8.596-2.048 1.057-14.962 6.482-14.31 9.724 14.533-.92 29.002-3.38 43.489-.567 6.505 1.264 12.705 3.382 18.142 7.29 4.117 2.959 7.256 8.644 11.345 3.584-8.347-4.73-15.863-10.998-23.265-17.085-3.24-2.664-6.573-5.17-9.861-7.762-1.956-1.541-5.182-5.295-8.037-3.78zM363.079 249.54c-4.546.638-8.977 1.843-13.442 2.877-18.088 4.189-36.245 7.95-54.285 12.383-35.983 8.841-73.042 17.367-107.352 31.532 2.885 3.189 10.529.879 14.11.254 7.008-1.225 13.809-3.364 20.733-4.98 6.772-1.578 13.57-3.46 20.397-4.777 3.145-.606 8.692-1.404 8.82 3.31.179 6.684-12.807 11.682-17.574 14.125-5.097 2.612-10.031 5.5-14.883 8.537-3.836 2.402-10.91 5.603-12.154 10.376 12.448-5.273 24.903-10.524 37.273-15.975 4.66-2.054 9.381-3.988 13.817-6.493 2.958-1.67 6.765-4.602 10.267-4.865 4.743-.357 5.529 3.948 3.53 7.422-2.5 4.35-7.66 6.803-11.456 9.846-4.838 3.88-9.12 8.459-13.477 12.852-3.616 3.646-8.273 7.236-10.161 12.166 6.501 2.174 13.888-4.795 18.665-8.24 7.507-5.413 14.5-11.301 21.662-17.151 3.664-2.993 8.031-7.84 12.854-8.733 6.11-1.133 5.605 5.853 4.122 9.704-3.312 8.608-11.067 15.785-11.62 25.489-.342 5.974 4.719 3.7 8.095 1.304 5.686-4.036 9.534-10.186 14.694-14.814 12.427-11.148 26.651-20.657 42.023-27.26 2.75-1.183 3.74-5.426 4.577-7.976 1.248-3.806 2.684-7.496 4.184-11.216 3.287-8.149 5.983-16.956 10.589-24.483 1.284-2.1 4.598-4.239 1.857-5.473-1.49-.67-4.326.043-5.865.259zm131.22-13.784c-4.656.543-9.368.494-14.033.986-7.614.802-4.293 10.063-5.519 15.643-3.612 16.426-21.024 19.528-34.22 11.779-7.422-4.361-11.88-10.61-15.871-17.922-2.276-4.168-3.971-4.838-8.68-3.795-3.23.716-6.17.564-9.457.802-4.137.3-4.497 1.177-4.582 5.113-.074 3.496-.577 5.917-2.904 8.749-4.436 5.393-11.874 8.944-18.21 11.654-6.348 2.716-13.539 4.735-17.025 11.154-1.758 3.236-3.64 7.1-4.15 10.778-.556 4.02.808 6.513-1.536 10.22-4.872 7.708-7.105 16.13-9.569 24.89-.803 2.853-1.12 4.027 1.995 4.812 4.47 1.126 10.818-.583 15.404-.763 3.273-.128 5.184-5.897 6.247-8.234 2.068-4.546 4.604-8.85 7.143-13.151 5.754-9.745 11.907-19.425 19.424-27.94 5.673-6.426 14.049-14.426 21.313-5.396 7.08 8.8 12.182 19.108 20.697 26.78 7.489 6.747 15.206 6.855 22.972.46 7.647-6.295 13.458-14.885 18.21-23.455 5.14-9.267 9.016-19.161 14.025-28.484 1.57-2.922 8.82-10.827 6.612-14.213-1.492-2.287-6.192-.71-8.285-.467zm38.995-2.021c-4.099.193-8.223-.267-12.322-.35-7.418-.146-13.621.114-17.346 7.221-3.288 6.273-6.09 12.946-9.09 19.369-6.52 13.953-12.915 28.23-22.923 40.104-8.868 10.52-20.323 15.819-31.858 5.77-5.114-4.456-9-10.204-12.67-15.854-2.942-4.53-6.3-12.502-11.23-15.143-5.495-2.944-11.787 3.81-15.147 7.474-5.649 6.16-10.37 13.406-14.904 20.402-3.289 5.075-6.437 10.256-9.634 15.39-1.295 2.081-6.572 8.89-4.816 11.484 1.762 2.6 10.359.822 12.846.584 5.94-.566 11.87-.77 17.813-1.282 18.483-1.59 36.692-5.65 55.222-6.734 12.206-.715 24.234-3.074 36.249-5.217 11.683-2.084 23.441-3.506 35-6.26 6.796-1.62 13.604-3.241 20.387-4.921 2.347-.581 13.44-2.166 14.129-5.216-7.638-1.333-11.649-4.296-14.357-11.747-3.393-9.333-3.787-19.733-4.076-29.566-.111-3.783-.13-7.567-.132-11.352v-4.54c0-2.714 1.171-7.639-1.275-9.521-2.264-1.742-7.243-.22-9.866-.095zM684.93 294c.32 12.297-1.878 24.691-6.93 35.926 5.285.846 11.57-5.783 16.003-8.003 1.708-.856 13.013-4.964 9.227-8.105-6.964-5.776-11.53-13.846-18.3-19.818zm151.533 10c1.55 3.058-.365 6.939-1.401 9.84 8.063 1.937 16.093 3.84 24.217 5.485 6.123 1.239 3.987 4.91-1.327 4.658-7.392-.352-14.269-3.483-21.624-3.89-7.006-.387-7.831 5.73-13.804 6.907.203-3.365 2.925-5.702 4.88-8.227-3.223-1.654-6.516-3.191-9.643-5.013-1.62-.944-6.095-4.902-4.372-7.005 1.74-2.123 6.3 1.855 7.923 2.731 2.307 1.246 6.912 3.991 9.626 3.204 3.718-1.08 2.944-6.416 5.525-8.69zm-116.183-80.123c-3.271.227-6.83-.873-9.928.566-3.089 1.436-6.776 4.579-9.36 6.758-2.5 2.11-3.744 4.672-6.854 5.918-3.107 1.245-6.289 1.135-7.486 4.933 2.818.773 8.35-.252 10.557 1.819 3.21 3.014-2.391 6.331-4.715 7.28-3.333 1.36-6.059.919-9.466.663-1.483-.11-1.47-.566-2.684.169-4.504 2.722-1.388 12.407.074 15.94 7.149 17.294 31.576 11.47 45.663 9.7-4.482-4.516-11.824-9.497-12.194-16.59-.111-2.112.413-5.886 3.125-6.062 2.168-.14 4.77 3.135 6.12 4.426 4.002 3.825 9.18 10.17 14.97 10.719 7.737.734 13.69-11.798 16.899-17.263-3.944-.74-8.265-.697-10.558-4.567-2.725-4.599-2.773-11.644-2.725-16.822.04-4.408 1.446-9.231-4.448-9.448-5.429-.199-11.508 1.481-16.99 1.861zm-519.572 11.307c-1.127 2.46-6.026 3.423-8.177 4.08-8.18 2.5-16.17 5.673-24.145 8.786-16.102 6.285-32.028 13.227-46.732 22.463-2.748 1.728-1.401-1.604-.688-2.805 1.6-2.693 4.962-4.599 7.473-6.248 6.795-4.466 13.992-7.603 21.505-10.59 15.034-5.976 30.297-12.312 45.715-17.153 1.79-.562 6.564-1.837 5.05 1.467zm186.75 12.177c-2.99.31-6.49-.37-9.365.605-3.746 1.271-3.128 3.843-4.237 7.005-1.88 5.367-3.893 10.69-5.855 16.03 7.263-.34 14.22-6.089 20.375-9.398 3.484-1.874 15.599-8.091 11.946-13.783-2.313-3.603-9.546-.803-12.865-.459zm82.66-9.357c-4.497-.082-9.442 1.28-13.994 1.506-6.103.303-12.113 1.464-18.209 1.745-4.01.185-7.947 1.009-11.914 1.549 3.947 9.144 11.651 17.142 21.332 20.454 7.637 2.613 18.325 3.057 23.543-4.174 3.002-4.159 7.906-20.924-.757-21.08zm234.192-37.77c-4.904 3.257-8.835 7.925-12.932 12.09-10.26 10.43-20.88 21.599-25.322 35.898-.61 1.958 4.017 3.69 5.269 3.765 2.646.16 3.184-1.175 4.224-3.41 2.57-5.536 3.556-11.72 7.669-16.44 5.013-5.756 11.048-11.367 16.866-16.311 3.954-3.36 13.643-8.09 14.78-13.645 1.344-6.566-7.584-3.92-10.554-1.948zm-126.505 37.995c-2.773.807-2.994 3.373-3.627 6.138-2.55 11.108 23.233-1.012 26.823-2.828-1.194-3.566-12.944-2.916-15.666-3.056-2.119-.108-5.481-.85-7.53-.254zM730.102 244c-3.82.147-2.06-15.457 2.284-13.888 3.725 1.347.165 13.792-2.284 13.888zM193 226.057c-5.85 5.05-15.035 5.726-22.308 7.347-10.718 2.388-21.343 5.432-31.974 8.179-6.713 1.734-2.934-2.402.428-3.955 5.779-2.673 12.322-4.097 18.499-5.567 6.687-1.592 13.521-2.655 20.17-4.39 4.604-1.204 10.542-4.28 15.185-1.614zm181.999-108.522c6.501 1.193 12.99 3.273 18.69 6.678 4.718 2.82 4.531 7.206-1.45 4.661-27.9-11.875-62.52-4.682-89.766 5.833-3.006 1.16-2.782-1.37-1.873-3.32 1.25-2.687 3.924-4.246 6.49-5.494 7.711-3.75 16.6-5.87 24.984-7.427 13.973-2.596 28.886-3.508 42.925-.931zm4.077-17.057c3.545.961 7.618 3.346 9.786 6.372 2.538 3.54.52 5.35-3.001 3.268-3.93-2.324-7.524-4.641-12.034-5.869-2.382-.647-2.285-2.14-.575-3.451 1.6-1.227 4.086-.792 5.824-.32z" fill="#000"/></g></svg>