<svg width="1024" height="768" xmlns="http://www.w3.org/2000/svg"><g fill="none" fill-rule="evenodd"><path d="M653 632.477l-106.384 23.25L531.64 659l4.456-137.273c.214-6.609.43-13.218.643-19.826-8.216 7.192-16.841 14.087-24.703 21.661-10.064 9.695-19.742 19.731-30.1 29.138-17.82 16.181-36.54 31.875-57.174 44.37-22.421 13.574-48.285 22.307-74.32 25.323-9.589 1.11-18.271.84-27.771-.15l-24.8-2.584-9.99-1.04c-.804-.084-3.422.104-4.064-.437-1.165-.983-1.773-5.443-2.232-6.86-1.913-5.899-3.814-11.8-5.703-17.706-5.134-16.05-10.196-32.125-15.084-48.252-4.186-13.806-8.587-27.672-11.713-41.767-.366-1.652-1.169-3.815-1.033-5.524.197-2.495-.985-1.97 2.305-2.005 7.734-.085 15.912 1.794 23.654 2.344 7.972.565 15.96.902 23.952.982 42.322.43 91.034-4.156 125.32-31.558 11.494-9.187 23.041-19.807 31.948-31.618 12.56-16.655 19.407-38.83 21.075-59.38 1.876-23.091-2.018-46.907-7.69-69.26-1.149-4.523-.89-6.216.097-10.949l2.455-11.788c.228-1.091.473-5.675 1.374-6.348 1.579-1.175 9.19.116 11.039.139l22.93.287 44.304.554c7.67.096 15.331 1.294 22.952 2.087l49.013 5.093c3.274.341 6.549.682 9.823 1.021-2.098 18.594-4.196 37.187-6.296 55.78-1.564 13.865 3.893 27.612 6.8 41.165 6.552 30.533 12.934 61.511 15.363 92.694 2.286 29.359 2.262 59.033 3.007 88.462A12871.27 12871.27 0 01653 632.477" fill="#FF5678"/><g fill="#000"><path d="M425.005 71.317c0-1.707.51-2.902 1.467-4.317 2.213 1.922 5.679 11.455 9.367 5.3.733-1.223.767-5.782 3.282-4.36 1.182.668.859 3.886.775 4.976-.299 3.882-2.062 9.299-7.07 9.077-5.11-.225-7.96-6.43-7.821-10.676M428.09 62.789c-8.501 1.567-5.109-6.08 1.117-6.714 2.308-.235 6.289-.112 5.742 3.296-.484 3.014-4.614 3.003-6.86 3.418M404.538 87.988c-2.676.254-7.086-3.52-2.642-3.98 2.052-.211 6.362 3.625 2.642 3.98M871.236 132.7c-2.048 1.567-8.185-3.475-10.192-4.366-7.812-3.47-16.793-5.39-25.188-6.886-16.62-2.961-33.655-4.629-50.53-5.16-10.292-.325-20.036.035-30.216 1.132-2.535.273-19.682 3.134-20.101-1.566-.738-8.253 44.62-7.862 48.94-7.847 19.637.067 37.373 2.246 56.448 6.525 5.16 1.157 36.891 13.534 30.839 18.168M328.981 269.064c-10.328 3.055-22.112 2.638-31.802-2.284-1.665-.845-5.71-2.642-3.567-4.754 2.306-2.27 8.765 1.582 11.28 2.075 12.206 2.395 27.682-2.35 36.328-11.252 4.292-4.416 6.714-9.998 7.736-16.01.582-3.429.881-7.056.671-10.532-.221-3.683-1.727-7.642-.719-11.307 4.503 2.67 4.555 9.7 4.876 14.24.404 5.724.369 11.228-1.238 16.805-3.31 11.483-12.192 19.655-23.565 23.019"/><path d="M144.445 574.936l.998 2.66c1.392-2.557 1.392-2.557-.998-2.66m12.982 66.812c5.166 2.386 10.922-4.026 13.672-7.597 4.584-5.954 6.623-12.817 8.43-19.986 2-7.932 4.31-15.771 6.168-23.74.826-3.553 1.617-7.116 2.546-10.645.77-2.92 3.635-8.122 2.428-11.154-2.04-5.127-12.058-6.538-11.375-13.414.627-6.32 11.652.43 14.298 1.77 6.047 3.063 2.903-.803-.018-3.043-2.214-1.698-12.51-9.048-7.12-12.755 3.498-2.407 11.106 4.92 14.005 6.27 3.044 1.418 4.153 1.046 6.62-1.452 1.757-1.777 4.367-4.026 5.723-6.065 3.353-5.04-1.138-14.918-1.828-20.692-.154-1.285.813-8.327-.085-9.16-1.18-1.096-6.233-.325-8.09-.604-6.66-1.001-13.23-1.756-19.9-2.589-4.405-.55-17.51-3.868-20.104.7-2.059 3.624-1.4 10.58-1.4 14.454-.003 8.155-.029 16.136-.8 24.318-1.686 17.866-2.95 35.723-4.576 53.591-.788 8.673-2.42 17.245-3.239 25.917-.507 5.375-1.31 13.125 4.645 15.876M257.743 509.8c4.891 12.233 8.938 24.836 13.17 37.305 1.956 5.765 3.761 11.587 5.747 17.34 1.901 5.513 4.961 10.478 6.53 16.115 2.961 10.646 5.453 21.219 8.961 31.683.506 1.508.21 4.844 1.115 5.91 1.114 1.309 6.046 1.113 7.793 1.333 7.145.9 14.362 1.592 21.57 1.291-6.744-8.504-14.31-16.311-22.065-23.916-6.791-6.659-15.963-14.221-17.069-24.369-1.47-13.482 12.598-10.772 21.35-9.956 12.21 1.14 26.05 6.09 38.27 3.347-8.469-11.454-21.307-19.995-31.94-29.318-4.146-3.637-8.508-7.634-10.626-12.865-1.079-2.667-1.615-5.742-.883-8.573.889-3.437 2.862-4.062 5.723-5.686-16.964 0-34.12-.605-50.28-6.43-.642 2.707 1.725 4.515 2.634 6.789m75.841 108.053c2.963 4.028 8.3 2.93 12.692 2.677 6.45-.374 12.882-1.158 19.213-2.45 6.392-1.305 12.804-3.054 18.901-5.395 1.283-.493 5.274-1.618 5.744-3.16.426-1.398-2.037-4.263-2.573-5.33-1.71-3.406-2.558-9.476 1.305-11.906 3.189-2.006 7.899.004 11.116.951 4.765 1.405 10.45 4.24 15.287 2.084 6.175-2.754 12.289-6.712 18.094-10.178-10.486-9.529-20.785-19.245-31.538-28.479-9.85-8.46-21.715-18.195-27.871-29.848-2.319-4.388-3.82-10.609-.977-15.18 2.55-4.098 7.69-4.242 12.024-3.867 12.873 1.116 25.555 4.313 38.218 6.699 4.262.803 31.688 7.164 31.762.244.015-1.493-2.826-4.893-3.552-6.08-1.647-2.69-3.33-5.353-5.11-7.96-4.149-6.074-8.658-11.888-13.13-17.723-2.257-2.945-5.14-9.08-9.46-8.426-1.97.298-3.943 2.49-5.531 3.625a104.549 104.549 0 01-8.493 5.447c-11.782 6.796-24.792 10.246-37.9 13.451-2.973.726-17.168 2.189-18.562 5.12-.697 1.465.907 4.923.948 6.507.063 2.385-.463 4.86-1.773 6.88-3.804 5.863-12.12 5.555-18.245 5.381-7.78-.22-15.746-.604-23.49.345 7.704 7.13 15.698 13.934 23.741 20.675 5.668 4.75 11.984 9.249 16.438 15.228 3.813 5.118 6.65 13.828 1.78 19.343-5.212 5.9-16.961 3.287-23.572 2.281-7.707-1.173-15.346-2.609-22.986-4.138-2.589-.518-5.262-1.117-7.908-1.256-3.165-.166-4.324-.345-2.132 2.592 5.446 7.295 13.639 12.54 19.374 19.664 2.7 3.355 5.85 6.027 8.69 9.247 3.538 4.012 6.315 8.636 9.476 12.935m106.02-39.869c3.723 3.787 7.925-1.597 10.943-4.064 4.524-3.7 8.94-7.53 13.532-11.148 8.697-6.852 17.75-13.21 25.926-20.705 2.577-2.363 6.812-5.009 7.596-8.63.997-4.617-1.4-8.746 1.05-13.39 4.646-8.796 14.252-1.6 20.517-6.663 3.218-2.6 5.485-6.374 8.022-9.593 3.02-3.832 6.874-7.55 8.611-12.166 1.809-4.8 2.046-7.098-1.32-11.156-3.626-4.37-8.025-8.363-10.934-13.282-2.004-3.39-3.64-8.371-.49-11.651 2.543-2.65 6.948-1.936 10.24-1.733 4.794.297 9.563.745 14.275 1.696 3.724.752 10.836 2.72 14.41.675 8.434-4.82-6.727-17.237-10.085-20.921-7.504-8.232-15.37-16.12-23.174-24.067-7.215-7.347-14.5-14.7-21.276-22.46-5.042-5.777-10.951-13.93-8.247-22.085 2.192-6.61 9.571-6.819 15.443-6.36 8.6.674 17.158 2.083 25.72 3.105 6.383.762 18.665 3.158 24.11-1.915 5.628-5.242-6.388-20.817-9.493-25.483-6.564-9.86-14.127-19.011-21.962-27.876-3.805-4.305-7.683-8.545-11.564-12.782-3.368-3.681-6.458-8.318-10.327-11.479-4.234-3.456-10.556-3.05-15.744-3.57-5.457-.55-11.26-1.357-16.745-1.338-4.995.018-3.76 4.828-3.97 8.999-.051 1-1.397 9.86.119 10l.497-5.92c4.266 1.751 7.431 5.52 10.738 8.582 3.3 3.056 7.782 6.167 9.175 10.66 3.93 12.686-11.755 8.186-18.328 6.898 1.479 14.409 5.163 28.413 7.195 42.724.85 5.997.504 11.424-.16 17.388-.379 3.399-.334 6.83-.749 10.227-.328 2.694-1.582 5.775-1.08 8.484.915 4.957 7.174 10.162 9.955 14.356 3.69 5.566 6.947 11.596 8.653 18.093 3.083 11.727-2.17 20.158-14.437 21.287-5.535.51-11.658-.346-17.14-1.128-4.712-.672-10.73-4.166-15.028-1.005-1.76 1.293-2.972 3.584-4.516 5.165-2.238 2.292-4.752 4.337-7.223 6.368-2.33 1.916-8.7 5.32-8.072 8.255.473 2.213 4.313 5.374 5.614 7.012a298.975 298.975 0 015.046 6.497c4.182 5.572 8.17 11.325 11.777 17.285 4.365 7.212 10.495 20.098 3.11 27.572-4.276 4.329-11.378 3.566-16.831 2.713A260.038 260.038 0 01420.862 525c-7.311-1.803-14.682-3.059-22.08-4.432-6.318-1.17-13.667-3.41-19.984-1.092 18.457 21.488 41.012 38.374 60.806 58.51m107.674-99.393c2.372-2.775 4.803-5.857 6.904-8.857 1.934-2.763 1.776-3.968-1.485-4.829-2.031-.535-4.286-.012-6.357-.254-2.157-.251-4.308-.945-6.42-1.421-2.372-.534-5.033-1.346-7.48-1.34-2.759.007-3.031-.244-1.645 2.237 1.9 3.4 5.581 6.371 8.203 9.205 1.649 1.782 5.596 8.398 8.28 5.259m-3.052 38.965c1.25 2.746 10.246.733 11.694-1.157 3.163-4.132-4.931-13.753-7.058-17.233-3.211 2.128-4.322 4.94-4.513 8.654-.133 2.572-1.187 7.397-.123 9.736M540.84 654.03c5.376.531 12.418-2.57 17.342-4.272 6.819-2.357 13.91-4.039 20.944-5.61 14.13-3.153 28.735-3.592 42.905-6.618-9.004-11.717-19.893-21.813-29.044-33.406-3.319-4.203-8.198-10.228-6.657-15.993 1.509-5.653 7.348-4.404 11.684-3.1 5.816 1.747 11.436 4.18 17.122 6.3 2.689 1.002 14.7 6.77 16.92 3.03 1.498-2.525-7.027-11.928-8.27-13.554-4.644-6.072-9.684-11.826-14.763-17.535-9.476-10.653-20.232-21.552-27.562-33.843-5.494-9.215-7.333-23.758 7.502-23.176 6.126.24 12.367 2.14 18.343 3.388 5.52 1.154 13.68 3.705 19.314 2.28 5.932-1.5-.89-10.355-2.757-13.276-3.946-6.173-8.579-11.94-12.925-17.835-4.676-6.341-9.662-12.546-14.033-19.1-2.72-4.078-7.132-11.193-4.66-16.35 2.836-5.916 12.579-2.258 17.349-1.36 9.036 1.7 17.9 4.532 27.182 4.532-.093-4.66-4.867-8.755-7.612-12.06-4.123-4.963-8.367-9.768-12.875-14.386-3.17-3.249-6.636-8.539-10.345-11.042-3.794-2.56-6.037 5.533-7.529 8.542-10.873 21.941-22.758 43.452-37.419 63.134-2.951 3.962-7.284 7.162-4.807 12.221 2.576 5.262 5.973 9.866 6.964 15.805.732 4.385.347 10.483-3.03 13.816-3.272 3.229-8.08 2.497-12.122 3.76-4.293 1.341-3.082 5.147-3.12 8.957-.066 6.663-.147 13.323-.106 19.987.035 5.922.117 11.843.188 17.765.073 6.262 1.6 10.7 3.308 16.597.89 3.07 1.196 6.244.212 9.33-.846 2.652-2.235 3.16-3.865 5.037-3.175 3.652-2.16 10.593-2.55 15.236-.279 3.328-4.928 32.434-1.228 32.799m13.228 71.2c1.351 1.698 6.202 1.156 8.096 1.28 3.596.236 7.198.237 10.795.432 7.673.416 15.248 1.484 22.945 1.62 6.326.11 12.88.417 18.96.85 2.997.213 6.363-1.085 9.277-.477 2.872.601 3.969 1.44 7.078 1.19 7.745-.62 15.669.16 23.427.351 7.177.177 14.415-.367 21.604-.462 8.087-.107 16.192.19 24.278.272 8.652.088 17.485-.426 26.028 1.218-.791-3.634-.737-7.918-3.673-10.636-3.008-2.784-7.994-3.417-11.865-3.871-5.635-.662-11.225-.813-16.849-1.052-3.513-.15-6.894-1.34-10.387-1.738-5.01-.571-10.401-.241-15.45-.323-1.731-.027-2.882-.668-4.47-.91-1.865-.285-3.687.192-5.72-.304-4.216-1.03-8.516-2.107-12.607-3.482-2.497-.84-2.394-1.551-4.442.397-1.282 1.22-2.07 3.531-3.152 4.967-1.788 2.372-4.988 5.209-7.745 2.354-2.922-3.025.209-6.418-.44-9.557-.502-2.424-5.106-4.552-7.406-3.638-3.183 1.265-4.126 7.839-7.533 8.583-4.285.936-3.129-5.55-2.547-7.964 1.519-6.319.976-6.525-4.07-10.732-3.846-3.207-4.92-4.46-9.692-2.062-4.809 2.415-10.06 3.466-15.42 4.043-6.33.683-12.237-.03-18.432-1.297-2.916-.596-8.598-2.833-10.503.228-2.147 3.451.061 11.903.14 15.897.059 2.976.24 6.038-.044 9.008-.147 1.534-1.273 4.443-.181 5.815m77.659-90.14c4.45-.386 8.81-1.566 13.249-2.104 1.617-.195 5.09-.136 6.427-1.28 1.635-1.401.869-1.263.536-3.299-1.588-9.678-2.195-19.05-1.96-28.886.175-7.36 1.611-18.812-2.774-25.213-5.168-7.543-13.022-13.125-18.264-20.692-2.835-4.093-6.79-15.08 2.185-14.785 3.57.116 7.386 2.38 10.852 3.219 4.907 1.187 5.206-.005 4.772-4.452-1.018-10.437-.715-20.92-1.78-31.36a3162.993 3162.993 0 00-3.474-32.2c-.587-5.21-.854-10.728-1.865-15.86-.984-4.99-5.829-2.305-10.069-2.508-11.227-.539-22.141-7.424-33.425-6.346 9.408 17.652 25.45 31.06 34.578 48.945 3.154 6.18 6.09 15.85-1.687 19.977-8.67 4.6-21.9-1.229-30.82-2.71-3.121-.517-15.52-4.141-16.096.688-.31 2.6 4.736 8.68 5.998 10.56 2.874 4.282 6.185 8.254 9.294 12.363 6.211 8.207 13.6 15.349 20.04 23.382 5.619 7.007 12.513 13.872 17.04 21.645 4.251 7.295 5.07 20.44-6.88 19.004-12.234-1.47-22.875-11.016-35.345-11.296 6.373 8.4 13.647 16.048 20.722 23.848 3.404 3.753 6.745 7.557 9.972 11.465 2.066 2.501 4.902 8.232 8.774 7.895m16.696-76.133c-.27-3.494.575-5.446-2.596-7.36-2.045-1.234-6.874-3.15-9.114-2.302.846.983 10.53 12.561 11.564 11.628.258-.63.307-1.285.146-1.966M631.54 398.27c-.582-6.72-1.934-13.364-2.226-20.109-.196-4.56.454-10.627-2.634-14.43-3.737 6.993-6.249 14.556-9.982 21.552-1.598 2.993-3.379 5.885-5.032 8.846-1.128 2.025-4.439 6.372-4.178 8.786.444 4.122 8.636 10.029 11.289 12.971 5.652 6.271 11.187 12.652 16.962 18.813-.78-12.21-3.144-24.247-4.199-36.43m.161-109.185c-1.56-2.192-12.441-1.156-14.79-1.365-7.392-.653-15.423-1.236-22.577-3.221 11.357 14.054 21.564 29.27 28.236 46.144 2.532-6.894 4.199-14.072 5.746-21.241a205.059 205.059 0 002.047-10.994c.265-1.666 2.348-7.903 1.338-9.323m-34.681 102.85c3.042 1.52 12.268-21.193 12.677-23.71-4.376 1-21.794 1.815-22.817 7.336-.478 2.579 2.499 5.692 3.8 7.557 1.594 2.283 3.824 7.563 6.34 8.818m-27.642-23.119c-6.442 8.074-18.466 6.442-27.46 5.295-6.09-.779-12.124-1.825-18.196-2.72-5.992-.885-13.26-2.52-19.073-.051 9.425 13.25 21.557 24.206 33.011 35.632 5.872 5.86 11.545 11.912 17.19 17.989 5.538 5.96 9.954 13.463 15.828 18.986 4.985-9.107 9.702-18.351 14.509-27.552 2.018-3.865 4.616-7.345 6.688-11.166 2.283-4.209 2.634-6.145-.28-9.96-4.335-5.678-10.43-13.369-9.558-20.995 1.017-8.905 11.595-9.883 18.52-11.803 3.481-.965 7.476-1.697 10.658-3.454 4.043-2.235 4.225-5.923 5.562-9.925 1.619-4.844 3.103-7.99 1.395-13.085-1.423-4.24-3.551-8.449-5.517-12.455-4.134-8.422-9.302-16.176-14.782-23.769-3.602-4.99-7.85-14.947-14.292-16.28-4.571-.945-10.34-.557-15.028-.816-5.466-.302-10.94-.472-16.409-.708-11.334-.491-23.472-1.563-34.751-.068 13.283 14.364 26.71 28.369 38.526 44.012 7.61 10.075 23.844 29.877 13.46 42.893m50.834-108.662c-6.16-11.426-11.88-22.724-20.221-32.701-7.214-8.63-13.757-17.632-21.244-26.059-15.706-17.678-36.09-30.742-55.094-44.478-4.3-3.108-9.801-4.802-14.519-7.513-5.838-3.353-12.093-6.152-18.41-8.47-11.462-4.204-24.622-6.35-36.828-5.496-13.489.943-23.666 5.71-32.04 16.232-8.211 10.314-9.483 21.7-9.705 34.663-.105 6.16-.182 12.356-.122 18.517.06 6.097.851 9.952 4.585 14.649 3.074 3.865 9.55 5.817 13.968 7.604 6.011 2.43 11.637 5.14 17.245 8.41 2.426 1.414 8.187 6.738 11.18 6.173 4.409-.833 5.489-8.66 5.927-12.132 1.642-12.992 1.467-26.278.67-39.333-.406-6.685-3.515-16.73-1.753-23.495.73-2.81 2.401-3.807 4.464-1.325 2.55 3.07 3.179 10.274 3.837 13.976 2.323 13.039 2.169 26.147 2.244 39.332.031 5.239 2.955 7.956 4.872 12.623 2.451 5.969 4.458 12.197 5.666 18.538.702 3.681 1.198 7.431 1.145 11.186-.029 2.062-1.045 5.342-.253 7.301 1.537 3.801 11.079 1.676 14.277 1.605 14.256-.318 28.472-1.077 42.75-1.261 28.907-.371 58.019 3.923 86.327 9.377-2.932-6.002-5.797-12.04-8.968-17.923m-12.423-60.998c2.265.37 9.873 4.53 11.188 1.893 1.122-2.254-4.43-10.326-5.26-12.476-1.927-4.992-2.393-10.566-3.528-15.777-.714-3.284-.783-9.775-2.56-12.7-1.985-3.272-6.614-1.63-9.9-1.531-5.605.167-11.266.164-16.875.144-5.703-.02-11.403-.169-17.108-.152-5.83.018-11.59-.95-17.375-.95.649 2.096 3.362 3.119 5.066 4.105 2.625 1.52 4.834 3.327 7.136 5.311 5.391 4.648 10.767 8.363 15.289 13.908 4.086 5.013 9.792 10.373 14.864 14.403 2.716 2.157 4.573 1.984 7.864 1.956 3.936-.034 7.358 1.238 11.199 1.866m13.966-11.169c1.416 4.34 1.55 5.615 6.142 5.307 5.903-.398 11.82-.768 17.734-1.197 13.49-.976 26.992-2.992 40.484-3.672 11.503-.58 23.924-1.97 35.354-.771 5.335.559 11.022-.517 16.462-.304 6.568.258 13.198.23 19.482 2.253 5.237 1.687 9.612 2.598 13.354 6.961 3.77 4.394 6.344 9.932 8.85 15.101 4.86 10.024 8.664 23.11 17.212 30.701 2.159 1.918 5.846 5.173 8.987 4.812 5.169-.595 3.584-7.44 3.13-10.914-1.53-11.702-6.124-21.816-9.553-32.993-1.024-3.341-3.054-12.166 2.253-13.396 3.82-.885 9.82 7.519 12.014 9.776 4.833 4.97 9.563 9.793 14.966 14.17 4.46 3.612 8.944 7.603 15.108 6.828-2.95-7.958-6.205-15.663-11.037-22.684-4.148-6.028-11.14-11.452-13.731-18.385-1.953-5.22-.224-12.344 5.848-7.75 5.274 3.988 9.839 8.869 15.23 12.786 7.073 5.139 15.103 9.399 23.489 11.94 2.774.84 7.697 2.47 10.356.463 3.966-2.991-.08-9.232-2.306-11.982-20.877-25.785-55.595-35.032-87.274-36.976-8.258-.507-16.845.307-25.136.424-7.866.11-15.166 1.073-22.94 2.224-16.137 2.387-32.309 4.329-48.376 6.714-4.301.639-9.405 1.903-13.687 1.737-1.765-.068-2.68-.541-4.44-.07-1.501.403-2.582 1.207-4.255 1.478-9.522 1.535-19.212 2.134-28.86 2.257-4.641.059-9.329-.03-13.936-.637-2.712-.358-5.489-1.486-6.253 1.737-.577 2.43 1.346 7.034 2.006 9.374 1.35 4.785 1.813 10.054 3.323 14.688m-172.602-83.35c1.622.062 4.297.305 4.824-1.723.993-3.821-4.113-1.49-5.06-3.895-1.053-2.678 2.542-3.372 4.128-3.804 3.233-.883 2.401-.695 2.489-4.052.082-3.097 1.081-5.918 2.338-8.724 1.746-3.898 1.836-3.7-2.081-4.149-6.59-.752-8.028-6.575-10.466-11.901-1.505-3.287-3.171-6.494-4.107-10.005-.57-2.13-.49-5.517-2.571-6.717-2.811-1.621-9.356.055-12.318.445-4.95.65-10.155 1.389-14.889 3.05-4.06 1.425-5.604 4.73-9.264 5.315-2.366.377-16.604-.515-14.734 3.849 1.165 2.719 6.663 1.165 8.689 1.084 2.587-.103 5.742-.489 8.307.017 2.564.507 2.804 1.467 3.805 4.02-2.402-.12-11.389-1.463-13.352.304-1.741 1.568-.455 3.286 1.297 3.862 3.418 1.125 8.038-1.057 11.626-.119 2.553.668 2.376.759 3.427 3.324.549 1.338 1.174 2.707 1.406 4.146 1.319 8.128-6.134 1.818-9.232.018-5.668-3.293-11.813-2.678-10.712 5.234.364 2.618 1.775 4.908 3.587 6.796 2.554 2.661 3.215 3.163 3.347 7.183.113 3.46-.258 7.16.966 10.482 1.35 3.658 4.225 6.776 6.47 9.899 2.697 3.75 5.487 7.456 8.088 11.274 1.121 1.645 2.722 5.786 4.881 6.335 2.034.515 5.186-2.749 6.87-3.683 4.082-2.264 8.565-3.738 12.761-5.764-3.516-3.127-6.646-6.674-10.089-9.815-2.69-2.453-4.08-2.92-3.194-7.062 1.99-9.29 15.964-5.478 22.763-5.224m-52.866 195.24c-11.112 10.762-27.634 17.49-42.664 20.198-15.745 2.838-33.7 4.94-49.037-.547-15.727-5.627-30.432-13.716-43.745-23.782-1.637-1.238-19.976-19.148-21.453-17.736 5.448 8.16 11.165 16.118 16.94 24.047 2.837 3.894 12.648 17.3 7.007 22.15-3.737 3.212-10.093-1.963-13.16-4.039-7.386-4.996-15.613-7.686-24.589-7.686 4.147 7.615 10.452 14.358 13.825 22.402 1.593 3.8.781 3.525-2.818 2.492-4.505-1.292-9.615-2.787-14.315-3-2.186-.098-6.625.864-6.995 3.72-.354 2.731 5.445 7.885 7.063 9.84 5.93 7.175 11.976 13.981 19.308 19.765 14.075 11.1 30.783 18.258 47.788 23.575 17.374 5.43 35.942 7.066 53.702 2.695 8.8-2.166 16.872-5.104 24.754-9.49 3.568-1.984 7.32-2.884 10.752-5.217 3.566-2.423 7.179-4.841 10.818-7.148 7.494-4.75 12.14-9.53 17.37-16.669 2.103-2.87 4.99-5 6.994-7.826 2.209-3.115 4.48-6.288 6.54-9.566 9.497-15.117 18.803-31.367 24.34-48.41 2.854-8.787 4.792-17.826 7.188-26.742.824-3.068 3.865-8.968 3.23-12.084-.612-3.006-5.367-4.225-7.721-5.5-6.874-3.72-13.77-7.022-20.476-10.977-9.264-5.465-7.624 5.74-8.224 12.21-1.783 19.236-8.245 39.592-22.422 53.324m78.363 7.353c1.955 1.676 6.901 2.716 9.401 1.951-2.464-3.673-6.264-6.083-9.46-9.039-.348 2.032-1.894 5.415.06 7.088m-11.93 130.695c4.5.328 9.195 1.68 13.656 1.715 3.979.032 9.014.356 12.88-.498 10.667-2.36 4.36-12.013.649-18.314-2.054-3.484-4.65-6.601-6.79-10.025-.517-.825-1.951-4.194-3.097-4.307-1.684-.167-2.208 2.597-3.02 4.288-2.198 4.58-4.23 9.312-6.723 13.741-2.508 4.454-6.011 8.45-7.556 13.4M347.328 505.71c-.922-5.124-15.91.08-19.3.691-.973.176-12.715 1.607-12.61 2.628 3.887.287 33.057 3.058 31.91-3.32M143.523 620.102c-2.296 1-2.215-6.309-2.32-7.278-.215-1.954-.484-5.472.509-7.188.729-1.259.943-.62 1.334-.95 3.205-2.72-.666-3.882-1.386-6.05-.222-.666-.243-2.501.089-3.057.945-1.594 1.208-.402 2.332-1.07.755-.448 2.284.658 1.842-1.383-.365-1.685-1.653-.65-2.298-1.178-2.453-2.005-2.204-4.636-1.81-7.84.373-3.045.733-6.302 1.628-9.184.46-1.48 1.087-.812 1.037-2.56-.027-.911-1.412-1.812-1.457-2.958-.056-1.425 1.265-3.711 1.34-5.213.098-1.972.116-3.685-.104-5.55-.135-1.142-.437-1.557-.5-2.947-.059-1.31.228-2.843.255-4.208.078-3.874.594-7.768 1.275-11.473a7.78 7.78 0 00.945-1.875 6.492 6.492 0 00-.797-1.953c-.103-1.771-.07-3.5-.048-5.298.04-3.333-.596-6.496-.79-9.782-.058-.976-.442-2.604.236-3.506.516-.687 2.323-.518 2.522-1.178.57-1.892-1.138-.763-1.508-1.721-.297-.768-.146-1.779-.195-2.55-.137-2.09 2.868-16.28 5.471-14.435-1.037-.735.998-5.621 1.658-6.448 2.455-3.075 3.92.408 5.91 2.57 2.786 3.027 5.211 1.08 8.83.396 4.479-.844 9.401-.546 13.942-.448 4.655.1 9.376.363 14.012.773 4.992.441 9.827 1.95 14.87 1.874 7.472-.112 15.043.063 22.51-.205 1.493-.054 5.11.102 5.736-1.798.236-.714-1.113-2.213-1.315-3-.392-1.512-.42-3.496.247-4.976 2.013-4.465 6.202-.82 9.153.803 4.445 2.443 9.053 4.524 13.964 5.845 19.585 5.269 42.69 4.975 62.689 2.488 20.308-2.526 40.384-8.641 60.184-13.65 18.079-4.573 34.765-14.713 48.642-27.121 14.146-12.647 25.31-30.189 32.297-47.799 7.785-19.618 2.122-39.37 1.923-59.435-.098-10.007-2.323-19.773-2.933-29.748-.591-9.675.237-18.753 3.138-28.223.74-2.412 1.78-4.835 2.319-7.303.5-2.285-.384-4.12-.09-6.274.629-4.614 5.728-4.146 7.958-7.576 2.02-3.105-.061-7.938-.776-11.268-1.243-5.783-2.788-11.495-4.21-17.235-1.468 3.418-2.84 6.827-3.726 10.449-.228.928-.249 2.566-.884 3.39-.458.596-1.617.519-1.98 1.069-1.224 1.854-1.083 3.713-1.295 6.097-.413 4.625-1.161 9.2-1.922 13.776-2.555 15.375-4.501 30.528-10.541 45.042-11.132 26.746-26.168 51.634-48.404 70.606-10.077 8.598-22.893 13.944-35.09 18.474-14.548 5.403-28.386 8.331-44.005 6.93-14.738-1.324-29.469-5.9-42.97-11.835-13.298-5.846-25.783-10.991-37.137-20.41-12.133-10.064-24.249-22.211-32.594-35.68-3.044-4.912-8.462-15.045-7.134-21.197 1.703-7.889 13.82-2.687 18.197-1.053-3.682-6.027-13.539-16.76-8.639-24.277 7.154-10.971 25.877.14 33.544 4.205-3.95-8.037-9.99-14.79-14.27-22.632-2.12-3.886-7.982-19.688.63-20.543 2.607-.26 5.375 2.718 7.216 4.21 3.576 2.898 7.123 5.83 10.669 8.763 7.75 6.413 15.93 11.867 24.856 16.51 17.862 9.294 35.142 14.229 55.43 12.252 17.287-1.682 36.35-6.937 49.792-18.334 8.072-6.843 14.49-14.413 18.636-24.248 4.579-10.86 7.498-22.79 10.701-34.12-4.965-1.279-8.445-.538-7.487-6.445 1.149-7.08.896-14.245.938-21.432.088-14.898.363-29.96 5.023-44.257.83-2.544 1.56-5.166 2.989-7.457 1.762-2.825 3.398-3.245 1.13-6.325-4.367-5.93-8.904-10.998-12.143-17.812-1.684-3.544-3.248-7.015-5.324-10.328-3.405-5.432-7.857-9.417-12.226-14.123-5.016-5.4-8.945-10.494-11.523-17.431-1.205-3.238-2.847-6.46-3.47-9.88-.742-4.08.029-8.251.38-12.332 1.165-13.536 5.71-24.46 19.02-29.75 10.814-4.298 23.248-6.149 34.586-2.825 13.719 4.022 20.22 16.06 26.753 27.708 1.844 3.285 2.978 6.761 4.65 10.095 1.711 3.417 3.489 3.423 6.644 4.81 6.254 2.747 5.724 10.672 3.009 15.882-3.45 6.62-2.752 14.29-5.725 21.2-3.045 7.076-7.771 9.048-14.978 10.634 2.748 2.182 5.253 5.036 8.755 5.969 4.251 1.132 9.401.052 13.802.114 9.136.129 18.375 1.367 27.057 4.288 8.525 2.867 16.167 7.457 24.094 11.564 3.623 1.877 7.002 4.555 11.142 5.1 4.016.53 8.063-.46 12.103.058 8.858 1.14 18.569-.297 27.603-.493 9.73-.213 19.493-.077 29.203-.789 4.195-.307 8.338-.748 12.547-.382 3.825.331 6.106-.57 9.413 2.049 2.198 1.74 3.95 5.999 6.541 6.579 2.762.619 8.203-1.113 10.93-1.524 9.17-1.383 18.412-3.211 27.525-4.897 4.27-.79 8.295-2.23 12.602-2.974 4.445-.768 9.06-1.018 13.452-2.006 7.106-1.6 14.78-2.195 22.188-3.217 8.676-1.196 17.6-3.72 26.345-4.038 36.607-1.336 77.638-3.51 110.097 16.787 7.62 4.766 15.452 10.852 21.322 17.67 5.394 6.262 12.017 14.548 13.393 22.893 1.229 7.45.332 20.5-9.629 20.59-9.713.089-19.693-5.71-28.05-10.005 3.569 8.558 14.417 26.888 5.001 35.198-9.718 8.576-27.61-10.033-34.028-16.007 1.268 9.144 10.324 42.374-6.814 42.89-16.727.5-26.432-20.119-32.39-32.36-3.146-6.463-5.494-14.056-10.602-19.315-5.135-5.288-12.256-5.113-19.207-5.789-16.895-1.643-33.698-1.728-50.692-2.135-21.508-.514-42.631 3.03-64.167 1.028.271 4.153-1.305 11.71-5.513 13.3-6.198 2.344-13.8-1.024-20.146-1.024.426 2.54 4.04 5.214 5.564 7.13 2.729 3.436 5.078 7.121 7.274 10.915 4.29 7.41 8.852 14.833 11.898 22.865 1.532 4.041 2.84 8.208 3.944 12.385.634 2.402.623 5.992 1.91 8.115 1.596 2.64 4.05 1.116 6.074 3.186 2.917 2.985-.128 4.555-1.047 7.186-.997 2.847.255 7.669-.125 10.798-.57 4.698-1.173 9.43-1.952 14.097-1.425 8.532-4.45 16.424-6.472 24.753-1.92 7.901 3.277 16.256 4.99 23.898 1.992 8.872 3.148 17.847 5.193 26.701 2.158 9.348 3.16 18.976 4.65 28.445 1.453 9.252 3.546 18.391 4.967 27.65 2.707 17.643 4.427 35.61 6.56 53.325 1.12 9.286 1.98 18.693 2.062 28.051.078 8.763 1.314 17.32 1.494 26.067.192 9.27.301 18.548.702 27.811.395 9.163-.741 18.286-1.157 27.435-.198 4.361-.345 8.73-.28 13.094.054 3.685 1.065 7.997.15 11.603-1.805 7.13-11.838 11.412-18.135 13.486-7.7 2.536-15.826 4.288-23.709 6.162-3.84.913-7.729 1.69-11.633 2.263-1.518.223-3.278.133-4.696.778-2.135.972-1.714.483-1.827 2.912-.184 3.925.966 8.224 1.564 12.07.55 3.543-.15 9.367 1.218 12.542 1.559 3.611 12.538 6.569 15.224 4.12 1.895-1.728 2.437-4.994 4.67-6.448 3.214-2.097 4.69.84 4.675 3.995-.012 2.377-1.81 5.245.352 6.981 1.873 1.506 5.824.717 7.634-.522 3.016-2.066 9.273-14.852 10.804-3.976.361 2.562-.744 5.546 1.428 7.49 2.036 1.823 6.944 1.742 9.511 2.067 4.099.52 7.686.692 11.823.604 4.618-.1 8.98.985 13.52 1.189 7.074.317 14.172 1.275 21.405 1.414 7.384.144 15.432 2.073 21.111 7.083 6.52 5.752 5.179 12.864 3.935 20.569-.821 5.095 5.68 10.6-.882 15.055-2.632 1.787-7.004 1.41-10.03 1.437-5.172.048-10.287-.555-15.465-.266-37.715 2.1-75.576.534-113.283-.71-8.81-.29-17.959.114-26.693-.95-3.892-.475-7.753-1.152-11.653-1.57-3.336-.355-7.319.232-10.505-.852-7.89-2.683.553-10.847 1.181-15.51 1.222-9.051.705-18.642.764-27.762.062-9.696 0-19.393 0-29.089-4.195.292-15.967 3.4-19.256-.202-2.718-2.977 1.908-9.193 2.135-12.767.925-14.57.613-29.155 1.711-43.738 1.135-15.039.995-29.944 1.467-44.985.504-16.067 1.644-32.075 1.644-48.166-11.737 12.426-22.947 26.072-35.998 37.149-5.59 4.744-11.68 8.849-17.517 13.273-6.578 4.984-12.703 10.53-19.242 15.56-12.166 9.361-26.634 14.834-39.487 23.156-12.993 8.414-26.857 15.343-41.815 19.507-16.35 4.552-33.69 6.066-50.61 5.193-8.118-.418-16.196-1.462-24.19-2.92-3.333-.609-6.632-1.402-9.966-1.999-4.716-.845-7.014-.056-11.43.808-5.8 1.135-7.245-7.34-8.965-11.413-3.172-7.516-4.545-15.727-7.352-23.412a997.56 997.56 0 01-13.774-40.398c-.986-3.101-1.642-8.48-5.34-8.916-2.496-.295-6.795 2.489-9.242 3.258-4.255 1.336-8.288 1.937-12.72 2.047-3.735.092-4.182 1.492-6.517 4.15-2.14 2.436-6.005 3.833-5.278 7.371.43 2.095 2.655 3.712 3.07 6.079 1.493 8.493-7.033 1.15-10.03-.705-1.814 4.003 11.899 8.448 6.902 14.117-2.447 2.775-7.55-1.441-9.984-2.52-5.68-2.513-6.543 4.324-8.055 8.754-2.775 8.133-4.633 16.669-6.76 24.99-2.049 8.02-3.715 16.214-6.948 23.87-2.882 6.822-7.9 11.276-11.483 17.438-1.763 3.031-3.71 5.216-7.522 5.36-2.579.097-7.349-.917-9.785-1.9-2.3-.93-4.794-3.758-6.402-5.532-2.233-2.464-1.792-4.847-3.6-7.862.078 1.514.416 2.923.497 4.402-3.3-2.598-.01-6.684-.61-9.978-.188-1.043-1.263-1.917-1.324-3.012-.027-.448.931-1.48.995-2.105.077-.739.137-2.889-.073-3.438-.152-.394-1.422-2.403-1.394-2.04-.02-.265-.468-.685-.228-1.563.364-1.326 2.474-1.561 2.306-3.338"/></g></g></svg>