<svg width="1024" height="768" xmlns="http://www.w3.org/2000/svg"><g fill="none" fill-rule="evenodd"><path d="M452.566 621.216c1.909 7.753 3.225 15.707 5.488 23.369.952 3.223 2.872 6.05 3.635 9.34.807 3.469-1.619 4.613-4.176 6.466 1.416-1.923 3.092-3.143 3.025-5.655-4.24.967-8.266 5.326-11.506 8-4.244 3.504-8.405 7.106-12.582 10.689-7.715 6.619-15.364 13.31-23.012 20.008-7.173 6.284-14.857 11.927-22.466 17.664-6.692 5.047-13.023 10.372-18.56 16.689-1.14 1.299-4.72 7.022-6.862 6.068-1.051-.468-1.384-2.2-1.751-3.154-.659-1.708-1.342-3.398-1.953-5.124-1.387-3.92-2.688-7.87-4.104-11.778-1.176-3.244-3.113-5.738-.033-8.515 5.771-5.202 11.067-10.837 16.944-15.962 6.734-5.873 13.712-11.45 20.518-17.235 6.537-5.557 12.735-11.505 19.371-16.946 6.542-5.364 12.997-10.658 19.294-16.322 6.371-5.73 12.233-12.01 18.73-17.602zM873.9 565.434c-1.313 1.957-2.415 2.921-4.25 4.39-2.024 1.62-3.647 3.724-5.424 5.596-3.385 3.562-7.076 6.838-10.773 10.07-7.795 6.815-16.462 12.496-24.304 19.212-3.755 3.214-6.385 7.473-10.106 10.683-3.433 2.962-7.932 4.224-11.662 6.737-1.889 1.273-3.4 3.158-5.462 4.154-2.021.978-4.414 1.323-6.524 2.093-2.688.979-5.145 1.477-7.96 1.891-2.378.349-4.411 1.014-6.837.617 1.177-.701 2.34-1.698 3.64-2.157 1.154-.407 2.182-.195 3.372-.22 2.443-.052 4.524-1.358 6.966-1.481-2.22-1.838-5.609-.498-7.993.222-3.087.933-6.226 1.688-9.32 2.601-14.425 4.255-28.969 7.801-43.625 11.159-14.524 3.328-29.014 7.018-43.64 9.816-14.12 2.701-28.427 4.476-42.593 7.138-14.976 2.814-29.992 5.749-44.86 9.088-7.034 1.58-14.073 2.878-21.027 4.8-6.69 1.849-13.432 3.598-20.139 5.391-1.818.486-3.698.871-5.464 1.532-1.654.62-3.074 1.539-4.847 1.819-3.058.481-5.904 1.264-8.93 1.944-6.918 1.554-13.6 3.948-20.442 5.779a563.03 563.03 0 00-21.95 6.357c-6.78 2.111-13.784 3.565-20.49 5.904-1.595.557-3.083 1.325-4.77 1.566-1.375.196-2.762.077-4.106.505-1.416.451-2.58 1.349-4.07 1.571-1.647.244-2.185.416-3.65 1.187-3.01 1.582-6.627 1.743-9.894 2.5-3.202.743-6.295 1.791-9.427 2.773-6.8 2.131-13.654 4.05-20.5 6.025-3.589 1.036-7.077 2.387-10.618 3.568-.884.294-5.834 2.282-4.83.319.414-.809 2.618-1.959 3.253-2.438 1.341-1.013 2.692-2.013 4.04-3.016 2.697-2.006 5.396-4.013 8.021-6.113 5.809-4.646 11.086-9.901 16.757-14.705 5.273-4.464 10.812-8.56 15.65-13.519 4.923-5.048 9.26-10.806 13.792-16.208 1.906-2.272 2.82-4.81 4.387-7.239 1.53-2.372 3.696-2.26 6.18-2.25l.486-.001c7.288-.043 14.844-2.6 21.767-4.658 6.596-1.961 13.272-4.002 19.997-5.48 3.41-.75 6.795-1.163 10.167-2.138 3.334-.965 6.73-1.622 10.133-2.306 7.196-1.448 14.139-3.628 21.149-5.77 6.84-2.091 13.809-3.637 20.72-5.462 3.794-1.001 7.563-2.091 11.36-3.088 3.145-.826 6.505-2.038 9.761-2.271 7-.498 13.606-1.45 20.367-3.44 3.518-1.037 7.114-1.619 10.664-2.516 3.327-.839 6.348-2.649 9.7-3.339 6.923-1.425 13.72-2.843 20.58-4.615 13.794-3.562 27.558-6.586 41.648-8.674 3.577-.53 7.034-1.609 10.577-2.305 3.391-.666 6.851-.976 10.269-1.484 7.414-1.104 14.678-3.004 22.038-4.409 7.183-1.371 14.447-2.281 21.621-3.7 3.654-.722 7.38-1.301 10.986-2.235 3.28-.848 6.098-2.333 9.5-2.655 3.567-.338 6.91-1.431 10.317-2.478 3.202-.984 6.284-1.466 9.548-2.077 1.857-.347 3.248-1.517 5.011-2.045 1.443-.432 2.99-.168 4.47-.335 3.433-.386 6.742-1.695 10.122-2.37 6.966-1.391 13.973-2.597 20.89-4.225 6.922-1.629 13.726-3.704 20.582-5.585zm-145.005 37.645c-2.775.075-5.538.19-8.303.442-5.995.546-11.966 1.359-17.906 2.317-12.163 1.963-24.284 5.189-36.243 8.138-21.485 5.298-42.779 10.815-63.76 17.916-10.496 3.552-20.967 7.18-31.477 10.695-8.635 2.888-18.087 5.671-25.597 10.994-1.855 1.313-5.606 4.193-3.418 6.709 1.32 1.519 3.727 1.459 5.538 1.76 2.457.41 4.35.508 6.84.289 5.35-.47 10.728.135 16.076-.548 5.108-.653 10.262-1.438 15.263-2.677 2.476-.613 4.903-1.428 7.398-1.959 2.642-.562 5.368-.501 8.003-1.084 2.35-.52 4.677-1.141 7.022-1.659 1.76-.389 3.366-.877 4.92-1.693 1.79-.94 3.871-.505 5.855-.872 2.346-.435 4.682-.955 7.02-1.44 2.932-.608 5.861-1.227 8.79-1.847 1.986-.421 3.943-.788 5.515-2.17-2.65-2.146-5.093-.845-8.172-.108-3.512.841-7.038 1.62-10.554 2.436-6.627 1.537-13.226 3.2-19.926 4.388-6.586 1.169-13.13 2.656-19.785 3.393-6.714.744-13.48 1.016-20.17 1.988-3.16.459-5.555.794-8.71.201-1.888-.354-4.484-.258-2.267-2.424 1.443-1.411 3.702-1.701 4.653-3.525.523-1.003.36-1.631 1.582-1.989.664-.195 1.94-.258 2.652-.308 1.005-.07 1.794.331 2.774.124.934-.197 1.96-.885 2.841-1.267 2.242-.972 4.718-1.012 6.942-1.949.903-.38 1.967-1.731 2.903-1.869.609-.091 1.288.411 1.958.362 1.928-.141 3.962-1.625 5.642-2.485 1.32-.676 1.683-.714 3.02-.568 1.253.135 1.284.192 2.47-.468 2.356-1.307 4.23-1.506 6.875-1.873 2.76-.382 5.5-1.256 8.044-2.374 1.082-.475 2.048-1.176 3.12-1.65.768-.34 1.633-.289 2.35-.602 1.282-.56.159-.746.712-1.253.596-.546 1.046-.024 1.724.063 1.04.135.851-.142 1.652-.406.933-.307 1.046-.22 2.249-.163 2.712.127 5.278-1.594 7.732-2.525.936-.354 2.136-.518 2.976-1.073.642-.423 1.055-1.4 1.945-1.276.952.133 1.159 1.312 2.414 1.188.88-.087 1.566-.883 2.284-1.304 2.006-1.173 4.467-.713 6.673-1.519 1.14-.416 2.077-.878 3.264-1.135.788-.171 1.28-.493 2.03-.719 2.202-.665 3.94.045 6.116-1.36.899-.579 1.505-1.246 2.613-1.346.879-.08 1.698.255 2.595.15 2.311-.27 4.866-1.514 7.022-2.335 2.613-.993 5.114-1.948 7.927-2.202 2.672-.241 5.193-.241 7.779-1.1 2.604-.863 5.172-1.724 7.732-2.681 2.389-.892 4.92-.777 7.406-1.185 2.501-.411 5.762-.549 8.029-1.572 1.735-.783 3.602-.821 5.322-1.614 1.259-.58 2.024-1.34 3.48-1.347 1.118-.004 2.016.224 3.155.008 1.055-.199 1.943-.535 3.041-.423 1.422.146 1.408.081 2.627-.473 2.274-1.032 5.13-.794 7.55-1.181 2.678-.428 5.243-1.334 7.873-1.973a4.25 4.25 0 001.237-.817c-1.99-1.395-4.63-1.233-6.938-1.171zm149.287-74.243c1.582 3.646 2.315 8.05 3.456 11.866 1.108 3.717 2.227 7.432 3.33 11.15.82 2.766-1.341 2.986-3.447 3.239-3.49.42-6.832 1.332-10.184 2.368-7.403 2.289-14.942 3.727-22.543 5.177-7.804 1.488-15.505 3.405-23.371 4.562-7.347 1.08-14.462 3.342-21.778 4.618-3.72.649-7.605 1.419-11.126 2.809-1.597.63-2.999 1.279-4.737 1.412-1.763.133-3.439.065-5.178.462-7.257 1.658-14.84 2.664-22.238 3.632-7.793 1.019-15.481 2.673-23.22 4.018-3.81.662-7.622 1.3-11.428 1.979-3.315.593-6.765 2.069-10.108 2.194-2.219.082-4.219-.215-6.447.167-1.726.296-3.447.65-5.164.99-3.76.743-7.438 1.804-11.185 2.599-15.173 3.22-30.412 6.27-45.471 10.045-3.755.94-7.48 2.035-11.284 2.759-3.497.665-6.676 1.924-10.108 2.765-7.193 1.764-14.62 2.284-21.698 4.299-7.137 2.032-14.543 1.988-21.715 3.81-7.736 1.966-15.386 4.216-23.011 6.575-14.989 4.635-30.333 7.572-45.506 11.497-7.475 1.933-14.794 4.294-22.19 6.497-3.841 1.144-7.719 2.163-11.64 2.988-2.651.559-6.161 1.816-8.88 1.537-2.458-.253-4.05-4.657-5.075-6.645-1.52-2.95-1.839-5.685-2.161-8.922-.15-1.511-.373-3.07-.991-4.472-.396-.898-2.058-2.156-2.2-2.948-.292-1.63 5.272-1.618 6.481-1.87 3.5-.725 6.837-2.441 10.347-3.295 3.543-.862 6.843-2.096 10.233-3.431 6.959-2.741 14.082-5.033 21.233-7.206 3.763-1.143 7.371-2.651 11.104-3.861 3.04-.986 6.168-.981 9.238-1.964 7.25-2.323 14.802-3.791 22.15-5.773 4.019-1.083 8.163-1.474 12.228-2.342 3.632-.776 7.226-1.684 10.909-2.205 3.413-.485 6.448-1.385 9.741-2.326 3.452-.987 7.087-1.168 10.602-1.85 3.878-.751 7.736-1.582 11.637-2.212 3.362-.544 6.745-.907 9.923-2.216 3.154-1.298 6.248-1.343 9.551-2.056 3.509-.757 6.974-1.246 10.512-1.832 4.15-.686 8.23-1.73 12.372-2.46 3.272-.574 6.75-.613 9.928-1.608 1.773-.553 3.118-1.424 5.01-1.605 1.59-.152 3.076-.267 4.653-.565 3.712-.7 7.486-.992 11.216-1.638 7.566-1.31 15.234-2.188 22.744-3.8 4.08-.875 8.087-1.975 12.21-2.647 3.59-.584 7.245-.95 10.75-1.951 3.883-1.108 7.55-2.21 11.57-2.774 3.348-.47 6.66-1.005 9.971-1.692 7.976-1.657 16.102-2.08 24.144-3.337 7.256-1.135 14.697-2.43 21.587-5.035 3.582-1.355 7.455-1.914 11.149-2.97 3.583-1.025 7.164-2.065 10.745-3.107 14.971-4.36 30.223-7.986 45.487-11.187 3.7-.775 7.394-1.575 11.09-2.37 1.543-.332 3.188-.957 4.745-1.153 1.39-.174 1.475.013 2.038 1.31zM660.236 630.745a785.435 785.435 0 00-14.904 1.861c-4.692.629-9.635 1.032-13.876 3.321 7.582-.508 15.202-.737 22.737-1.786 6.841-.953 13.925-3.089 20.809-1.252-3.12 2.44-7.059 3.263-10.739 4.48-4.597 1.52-9.155 3.162-13.743 4.712 1.425 1.838 3.67.538 5.363-.069 2.093-.751 4.278-1.249 6.395-1.932 4.926-1.589 9.643-3.747 14.404-5.757 1.347-.569 3.423-2.076 1.904-3.646-.9-.929-2.721-.708-3.866-.742-4.869-.145-9.649.256-14.484.81zM394.042 147.878c2.4 2.989-.03 5.286.184 8.457.203 3.01 3.321 1.512 5.254 1.115l.124-.024-1.81 8.856c-.656-.774.054-1.475-1.218-1.413-.157.008-1.123.73-1.348.83-.7.312-1.47.426-2.192.679.593.394 1.652 1.688 2.205 1.874 1.188.402 1.405-.774 2.35-1.326-1.233 16.242-4.272 34.458 2.203 50.018.79 1.897 1.88 3.764 2.564 5.696.54 1.524.262 1.369-.747 2.307-.39.363-1.1 1.016-.953 1.655.284 1.23 1.187.597 1.896 1.14 1.068.818.924 2.197 1.108 3.47.182 1.27.748 2.267 1.042 3.455.17.683-.52.55.253 1.146.58.447 1.324-.117 1.952-.041 1.124.135.405-.207.903.635.218.367.681 1.874.6 2.315-.258 1.403-1.578 1.233-2.784 1.627.796.766 1.728 1.368 2.43 2.233.212.263.21 1.003.584 1.123.707.227 2.125-.692 2.698-1.04.82-.493 1.671-1.677 2.632-1.786 1.455-.164 1.914 1.337 2.99 1.892 1.352.698 2.97.04 4.45.163 1.715.142 3.338.755 4.965 1.272 3.84 1.219 7.691 1.58 11.707 1.256 6.532-.528 13.226-3.208 19.105-6.034 5.72-2.75 9.45-7.942 13.023-12.982 3.924-5.535 7.835-10.877 10.66-17.092 3-6.602 4.854-13.511 5.975-20.663.584-3.73.94-7.343 1.016-11.11.054-2.707 2.002-5.344 4.925-5.466 1.754-.073 2.982 1.154 4.638 1.309 1.141.106 2.331-1.09 3.242-.941.921.149 1.914 2.337 2.414 3.04.954 1.342 1.925 2.67 2.881 4.012a152.775 152.775 0 015.811 8.734c.857 1.397.794 2.815 1.456 4.214.605 1.276 1.656 1.653 2.003 3.125.357 1.512.207 2.262 1.458 3.27 1.098.887 1.645.797 2.02 2.36.313 1.313.407 2.838.48 4.19.078 1.436-.837 3.688-.04 4.959.548-1.076 1.02-3.087 2.546-3.047.791.02 1.211.995 2.038 1.086.792.088 1.415-.82 2.211-.444 1.847.874.526 2.722-.276 3.498-1.558 1.508-2.063 3.169-.978 5.188 1.834-2.16 3.613-.672 5.028 1.068-1.442.44-3.137.56-1.77 2.29.294.373 2.21 2.055 2.585 1.999.682-.103.338-.947 1.182-1.125.526-.111 1.34.56 1.56.965.656 1.217-1.14 3.763-1.628 4.957 1.26-.64 2.166-2.545 3.672-2.651 1.565-.111 3.132 1.723 3.045 3.154-.07 1.16-1.262 2.034 0 2.878 1.617 1.084 4.095-.725 5.78-.3 1.727.436 1.908 2.865 3.212 4.094 1.252 1.18 1.611 2.64 3.124 3.497 3.806 2.155 3.831 7.13 6.563 10.354 1.374-1.268 1.525-1.666 3.283-1.741.79-.034 2.023-.337 2.75.075 1.125.638.705 1.832 1.322 2.743.681 1.006 1.739 1.015 2.813 1.204l.19.036-.908 4.934c.961-.668 1.582-2.856 2.613-.898 1.224-1.312.635-3.484 3.254-2.578 1.66.573 2.906 2.233 4.237 3.306 3.964 3.195 9.114 4.788 14.037 5.787 1.115.226 3.117-.002 4.128.43.834.357.595.483.998 1.18.283.487-.045 1.269.763 1.187.62-.064.663-1.356.902-1.756 1.1-1.835 2.892-1.201 4.69-.745 2.265.575 2.49 2.394 3.4 4.456 1.11-1.178 2.002-2.52 3.55-3.155 1.736-.712 3.844-.781 5.655-1.252 1.95-.505 3.707-1.36 5.565-2.104 1.582-.635 3.375-.916 4.882-1.707 1.586-.832 2.741-2.135 4.417-2.851 1.841-.785 3.69-1.535 5.504-2.385 3.696-1.731 7.292-3.723 10.442-6.338 3.29-2.732 6.13-6 8.89-9.25 1.295-1.527 4.477-6.448 1.168-7.905-1.429-.63-2.64.927-3.487 1.838-1.477 1.59-2.952 3.154-4.62 4.554-3.015 2.53-6.449 4.583-10.158 5.917 1.97-3.38 5.256-5.907 7.774-8.865 2.608-3.061 5.415-6.337 8.806-8.554 2.48-1.622 5.61-2.277 7.586-4.616 1.476-1.747 4.316-6.725 6.901-5.997 1.981.557 3.56 1.73 5.745 1.638 1.394-.058 2.514-.641 3.895-.17 1.347.462 2.628 1.54 3.878 2.24 1.658.928 3.246 1.675 4.602 3.03 5.032 5.033 9.521 11.949 12.103 18.587 1.405 3.61-.87 6.485-2.6 9.544-1.737 3.075-3.47 6.1-5.57 8.946-4.702 6.374-9.35 12.695-13.816 19.235-4.23 6.197-8.567 12.342-13.52 18.004-2.57 2.937-5.226 5.902-8.087 8.558-2.373 2.203-5.197 3.844-7.827 5.713a4195.503 4195.503 0 01-20.64 14.605c-6.053 4.247-12.845 7.057-19.844 9.34-.186-1.253-.973-.508-1.9-.628-1.148-.147-2.359-1.313-3.3-1.975-.79-.556-1.574-1.462-2.418-1.908-.88-.466-1.255-.014-2.04-.188-1.97-.438-3.768-4.815-4.806-6.361a934.863 934.863 0 01-5.445-8.221c-7.067-10.766-15.197-22.245-25.925-29.69-9.562-6.634-21.915-7.333-32.95-4.522-4.222 1.076-11.547 5.14-15.036 1.195-.818-.926-2.484-2.552-2.912-3.66-.336-.87.558-2.207.824-3.29.592-2.4.498-4.927.164-7.357-.727-5.287-2.568-10.436-3.989-15.564-1.709-6.166-3.406-12.347-4.578-18.643-1.119-6.013-2.666-12.812-2.299-18.95.11-1.81 1.95-5.146-.49-6.052-2.32-.861-3.736 1.632-4.078 3.489-.95 5.16-.199 11.268.401 16.417.698 5.99 1.963 11.898 3.36 17.76 1.404 5.883 2.934 11.725 4.47 17.57.681 2.589 1.123 5.099.125 7.658-.93 2.389-2.593 4.463-3.658 6.802-1.177 2.583-2.149 5.473-3.927 7.725-1.064 1.348-2.8 2.298-3.027 4.147-.248 2.026 1.79 2.977-.07 4.43-1.83 1.43-3.887 2.584-5.879 3.767-4.989 2.962-10.382 5.505-15.203 8.71-1.164.775-6.347 5.416-7.679 3.58.292 1.687-6.6 4.69-7.763 5.407a1244.459 1244.459 0 00-13.399 8.377c-8.98 5.697-18.09 11.273-26.724 17.489-4.182 3.01-8.503 5.154-13.027 7.569-2.403 1.283-4.707 2.738-7.07 4.09-2.287 1.309-3.423 1.734-5.936 1.662-1.899-.053-2.933.925-4.31 2.113-1.936 1.669-3.982 3.217-6.035 4.737-4.28 3.17-8.716 6.129-13.168 9.054-3.278 2.154-6.532 4.35-9.63 6.76-2.617 2.036-5.16 4.279-8.29 5.499-.438-1.301-.879-2.602-1.318-3.902-.48.975-.962 2-1.058 3.1-.05.599.428 1.634.363 2.089-.16 1.129-2.406 2.66-3.298 3.37-3.292 2.624-6.618 5.214-9.889 7.864-3.294 2.669-5.969 5.967-9.2 8.694-1.48 1.248-3.178 2.78-4.948 3.598-1.629.75-2.076.15-3.064-1.208-1.036 2.07-.942 2.79-3.245 3.259-1.834.374-2.878.978-3.305-1.241-.905-4.697-1.46-9.731-1.694-14.508-.24-4.921-.088-9.983.2-14.901.137-2.33.321-4.718.891-6.99.481-1.915.362-2.29-.296-4.06-.8-2.15.798-1.855 1.246-3.59.374-1.451-1.613-2.48-1.006-4.154.247-.681.996-.95 1.172-1.698.18-.768-.36-1.394-.503-2.108-.167-.836-.335-1.047.123-1.797.337-.553 1.01-.078 1.013-.842.006-1.298-1.91-1.934-1.392-3.7.201-.683.92-1.11 1.062-1.607.133-.461-.272-1.105-.005-1.718.417-.96.97-1.265 1.14-2.338.132-.846.154-1.518.454-2.35.658-1.825 1.18-3.227 1.23-5.206.056-2.208-.408-4.42.284-6.57.452-1.402 1.456-2.742 1.461-4.264.005-1.861-1.899-2.937-2.436-4.711-.612-2.017-.45-4.308.366-6.245l1.012 3.327c.275-.964.836-2.092.624-3.124-.16-.787-.694-.926-1-1.56-.677-1.398.096-.806.638-2.06.281-.648-.064-1.51-.022-2.195.053-.838.362-1.514.56-2.307.394-1.593.046-2.627 1.227-3.874 2.457-2.596 5.69-4.78 8.374-7.167 1.503-1.338 3.05-2.638 4.543-3.983 1.406-1.266 1.37-1.983 1.294-3.862-4.383 1.61-7.534 5.404-11.01 8.336-3.737 3.15-7.936 5.81-11.819 8.782-7.593 5.812-15.734 11.132-24.014 15.904-4.074 2.348-8.213 4.583-12.305 6.899-3.796 2.148-7.514 4.259-11.768 5.362-3.618.938-8.174 1.937-11.062-1.223-1.386-1.518-.877-3.275-1.786-4.934-.466-.85-.995-.621-1.549-1.161-.782-.762-.539-.21-.254-1.325.25-.976.728-.834.423-2.056-.205-.821-.727-1.661-1.02-2.472-.625-1.723-1.049-3.41-2.399-4.684-.95-.898-.654-.442-.918-1.5-.142-.564.02-.791-.34-1.39-.697-1.16-2.45-1.813-3.492-2.597.28.154.556.308.834.463-.098-1.515-.96-2.841-1.052-4.354-.088-1.458.237-2.051-.596-3.375-.693-1.102-1.77-1.901-2.432-3.04-.738-1.267-1.035-2.772-1.63-4.112-1.032-2.325-3.116-3.986-3.473-6.551-.108-.774.051-1.392-.445-2.064-.19-.26-.724-.28-.886-.517-.605-.887-.33-1.971-1.036-2.807-.637-.753-1.98-.701-2.557-1.52-.695-.983-.097-1.747.33-2.733 1.21-2.79-.988-3.237-2.209-5.444-1.243-2.25-1.628-4.936-2.457-7.35-.475-1.38-.989-1.853-1.857-2.914-.769-.94-.724-.483-.289-1.824-2.612.13-2.446-5.366-2.969-7.106-.189-.624-.548-2.021-1.116-2.427-.315-.224-1.39-.036-1.518-.01l-.013.004-.28-.25c-.593-.54-1.139-2.202-1.075-2.827.05-.487.54-.581.48-1.223-.05-.563-.817-1.203-1.174-1.586-1.862-1.99-5.149-5.978-3.98-9.013 5.478 5.65 10.52 11.844 16.332 17.159 4.874 4.455 10.57 6.595 17.063 7.33 3.873.439 7.81.698 11.706.458 3.241-.2 6.506-.73 9.763-.574 1.361.064 2.165.139 2.712 1.376.486 1.097-.226 1.732 1.301 1.752 2.037.025 3.423-2.095 4.502.404l.078.188.078-.274c.838-2.717 3.486-3.99 5.991-4.9l.25-.09a85.853 85.853 0 0010.618-4.614c6.546-3.368 12.54-7.773 17.481-13.25 8.817-9.77 14.616-21.784 20.413-33.471 6.16-12.417 13.222-24.64 21.17-36.008 3.721-5.321 8.043-9.91 13.221-13.84 5.061-3.84 10.81-8.377 17.17-9.574 3.24-.61 6.535-1.11 9.79-1.636 3.06-.495 6.245-1.16 8.424 1.554zM198.986 246.75l2.19-4.304 40.02 89.255c-2.266-.527-4.587-1.051-6.69-2.073-1.11-.54-3.388-2.446-4.69-1.971-.36.13-.26.753-.555.843-.687.208-.935.205-1.72.063-1.94-.351-3.719-1.466-5.556-2.128 1.1-1.816.201-3.368-.963-4.81-.548-.676-1.418-2.05-2.436-1.797-1.2.298-.915 2.103-2.522 1.264-.406-.213-.328-.93-.847-1.126-.566-.216-.865.419-1.42.31-1.284-.25-1.575-2.266-2.88-2.287-.894-.015-1.202 1.198-2.186 1.304-1.467.159-1.582-.916-1.675-1.972l-.022-.243c-.16-1.704-.145-2.638-1.784-3.632-.43 1.539-.109 3.672-2.104 3.28-1.458-.287-3.146-1.833-3.789.566-8.857-4.365-16.765-10.24-24.108-16.797-6.859-6.125-11.833-13.504-16.823-21.163-2.272-3.488-5.04-6.995-6.91-10.712-1.005-1.996-.453-3.337.14-5.372.246-.844.451-1.632.387-2.522-.028-.393-.475-1.208-.295-1.585.624-1.305 3.194-.574 4.308-.545 2.022.055 4.084-.128 6.097-.314 4.3-.398 8.613-1.057 12.695-2.512 8.495-3.03 15.31-7.931 22.627-13.012l.756 1.996.755 1.996 2.19-4.304zm5.82 65.907c-.5.286-.378.51.366.676l-.367-.676zm256.346-6.371c.181 2.152 1.911 1.645 3.207 1.883-.606-1.401-1.763-1.882-3.207-1.883zm-1.587.942a.4.4 0 00-.019.178c.006-.06.012-.118.02-.178zm208.524-37.604c-.423 1.447-1.272 2.845-2.413 3.842-1.237 1.08-2.609 1.102-3.98 1.848-2.375 1.293-2.634 4.294-3.633 6.537-.014.439.07.858.25 1.258 1.402-.555 1.868-2.08 3.374-2.507.661-.188 1.106.023 1.733-.355.565-.341.916-1.173 1.394-1.645 1.235-1.217 2.75-1.893 3.782-3.338 1.011-1.414 1.587-3.141 2.327-4.7-.757-.284-1.04.749-1.715.682-.945-.095-.826-.926-1.119-1.622zm-199.84-3.475c-.292.06-1.284-.032-1.4.347-.479 1.54-.744 3.137-1.085 4.71 2.161-.96 2.24-2.986 2.485-5.057zm-304.169-4.973c-.264.975-.57 1.839.491 2.442.365.073.732.079 1.1.018l-1.59-2.46zm368.868-14.665l-.776 2.965c2.894-1.198 2.907-1.26.776-2.965zm-.788-7.515c-.598.047-1.192.122-1.782.225.64.679 1.51 1.403 1.81 2.32.137.417-.23 1.45.051 1.795.868 1.06 2.584-.063 3.55-.403-.987-.558-1.968-1.132-2.61-2.085-.18-.27-.607-1.871-1.019-1.852zm2.968-5.537l-.059.207c-.411 1.315-1.476 2.65-1.02 4.085.36 1.13 1.042 1.51 1.958 1.037 1.34-.693 1.563-2.066.79-3.036-.179-.225-.62-.114-.828-.37-.416-.514-.498-1.125-.741-1.707l-.1-.216zm132.078-2.92c.263.449.823.847.892 1.398.051.4-.463.742-.405 1.169.122.907.295 1.156 1.302 1.273 2.12.247 3.678-2.435 1.317-3.42-.98-.41-2.074-.298-3.106-.42zm-137.547-1.09c-.413.625-2.948 4.176-.952 3.586.563-.167 1.743-1.595 2.03-2.15.093-.181.534-.52.505-.777-.058-.52-1.194-1.25-1.583-.66zm-8.324-.722l-.046.006c-.117.227-.2.467-.247.717-1.626 1.14 2.298 3.132 2.976 3.619.607-1.74.213-1.688-.977-2.696-.234-.198-1.264-1.437-1.643-1.624l-.063-.022zm164.911-4.867l-.61.613c.8.137.31 1.134.854 1.408.945.476 1.325.05 1.91-.744l-2.154-1.277zm-179.409-33.093l-.109.282c.09-.093.288.057.11-.282zm.658-4.57l-.516.093-.515.094.536 2.82c1.311-.421.604-2.07.495-3.007z" fill="#FF5678"/><g fill="#000"><path d="M199.936 111.428l.345.577c-.198-1.086-.312-1.278-.345-.577M637.325 240.83a.037.037 0 00.026-.018l-.026.018z"/><path d="M883.1 554.921c-7.503.462-14.463 3.746-21.71 5.438-7.692 1.796-15.535 2.899-23.267 4.51-3.717.775-7.47 1.556-11.238 2.061-3.739.502-7.238 1.444-10.918 2.242-7.308 1.584-15.085 2.736-22.18 5.079-6.959 2.297-14.408 2.758-21.63 3.985-7.807 1.327-15.669 2.25-23.46 3.656-7.687 1.387-15.363 2.832-23.047 4.222-3.679.666-7.29 2.015-11.03 2.181a80.483 80.483 0 00-12.255 1.477c-15.804 3.12-31.528 6.865-47.213 10.549a954.282 954.282 0 00-11.455 2.764c-3.898.965-7.952 1.526-11.794 2.67-7.055 2.1-14.157 4.223-21.5 4.707-3.675.242-7.05 1.842-10.616 2.614-3.747.81-7.614.958-11.41 1.42-7.638.931-15.36 3.698-22.736 5.849-7.354 2.145-14.655 4.752-22.089 6.58-7.788 1.915-15.679 3.375-23.462 5.322-15.112 3.781-29.758 9.345-45.09 12.083-1.177.21-3.087.82-4.274.373-1.245-.468-1.815-2.053-2.468-3.105-1.912-3.082-3.624-6.003-4.032-9.686-.369-3.321-.31-6.527-2.532-9.245-.648-.792-1.489-.94-.342-1.825.744-.573 3.198-.433 4.135-.592 3.34-.57 6.164-2.152 9.442-2.95 3.655-.89 7.225-1.858 10.767-3.135 7.154-2.58 14.308-4.937 21.558-7.231 3.553-1.124 7.08-2.325 10.536-3.721 1.652-.667 3.297-1.458 5.075-1.726 1.934-.293 3.646-.244 5.548-.861 7.487-2.427 15.245-4.16 22.905-5.96 7.267-1.709 14.767-3.565 22.168-4.517 3.694-.476 7.08-1.361 10.652-2.376 3.787-1.077 7.74-1.369 11.587-2.156 6.77-1.385 14.358-1.663 20.773-4.3 3.03-1.246 5.884-1.269 9.076-1.847 3.927-.713 7.841-1.457 11.778-2.146 3.77-.66 7.5-1.528 11.26-2.247 3.79-.724 8.006-.759 11.644-2.074 6.426-2.325 13.616-2.265 20.327-3.613 7.888-1.585 15.887-2.506 23.774-4.112 7.617-1.55 15.455-2.625 22.976-4.567 3.518-.909 6.78-1.953 10.415-2.374 3.97-.459 7.857-1.342 11.78-2.086 7.29-1.384 14.701-1.717 22.011-2.979 14.885-2.57 29.308-7.053 43.82-11.174 7.453-2.116 14.842-4.18 22.446-5.676 3.574-.702 6.925-1.977 10.434-2.912 3.905-1.04 7.884-1.76 11.852-2.508 3.593-.677 7.181-1.39 10.744-2.203 1.718-.392 4.661-1.973 6.328-1.563 1.551.382 1.5 2.943 1.806 4.31.782 3.476 1.896 6.889 2.943 10.292a631.581 631.581 0 002.745 8.737c.59 1.829 1.083 4.183-1.558 4.346zm-11.052 13.172c-3.902 2.329-6.593 6.213-9.778 9.366-3.564 3.526-7.379 6.829-11.192 10.082a242.496 242.496 0 01-12.15 9.722c-3.864 2.887-7.95 5.579-11.444 8.926-3.282 3.146-5.749 7.136-9.369 9.928-3.553 2.74-7.906 4.046-11.534 6.703-1.692 1.241-3.23 2.707-5.2 3.498-2.268.91-4.678 1.594-6.98 2.426-2.256.814-4.45 1.07-6.807 1.439-2.555.4-4.368 1.124-6.997.694 1.204-.717 2.387-1.668 3.713-2.14 1.128-.402 2.127-.203 3.3-.237 2.45-.072 4.518-1.357 6.966-1.481-2.156-1.785-5.444-.594-7.79.131-3.659 1.132-7.377 2.07-11.048 3.163-7.325 2.182-14.675 4.206-22.103 6.011-15.539 3.776-31.132 7.34-46.723 10.899-7.656 1.748-15.449 2.83-23.099 4.569-7.254 1.649-14.797 2.253-22.155 3.651-15.513 2.947-31.04 5.824-46.526 8.913-15.262 3.043-30.725 6.133-45.678 10.48-6.999 2.035-13.945 4.516-21.002 6.056-7.289 1.591-14.28 4.032-21.449 6.038-7.447 2.084-14.972 3.677-22.34 6.059-7.44 2.406-14.893 4.68-22.436 6.743-1.577.432-3.016.965-4.538 1.55-1.884.724-3.517.727-5.477.987-1.506.199-2.675.877-4.072 1.402-1.638.618-3.276.299-4.795 1.177-3.045 1.761-6.095 2.171-9.565 2.871-4.057.817-7.978 2.055-11.91 3.327-7.238 2.338-14.59 4.191-21.842 6.443-1.087.338-12.712 5.038-12.92 3.646-.128-.893 2.97-2.581 3.67-3.092a465.531 465.531 0 009.587-7.205c5.731-4.417 10.901-9.409 16.308-14.201 5.604-4.966 11.751-9.236 17.104-14.497 5.11-5.022 9.233-10.906 13.975-16.258 2.024-2.284 3.606-4.525 4.942-7.263 1.452-2.978 3.211-3.636 6.482-3.598 7.205.085 14.856-2.172 21.7-4.298 6.945-2.156 14.157-4.69 21.364-5.737 7.3-1.061 14.313-3.302 21.535-4.831 7.637-1.616 14.97-4.031 22.436-6.263 7.431-2.222 15.026-3.941 22.517-5.955 3.476-.935 6.924-1.935 10.382-2.935 3.815-1.102 7.382-1.005 11.277-1.472 7.251-.87 13.996-3.086 21.1-4.576 3.517-.737 6.62-1.634 9.932-3.012 3.385-1.407 6.974-1.718 10.538-2.472 7.72-1.633 15.314-3.977 22.978-5.863 7.32-1.801 14.802-3.261 22.192-4.758 3.532-.715 7.088-.99 10.647-1.493 3.96-.56 7.792-1.789 11.731-2.477 15.232-2.666 30.42-5.588 45.674-8.138 7.84-1.31 15.613-2.753 23.178-5.233 3.265-1.071 6.69-1.107 10.012-2.033 3.477-.969 6.867-2.396 10.44-2.988 1.866-.309 3.818-.269 5.626-.885 1.224-.417 2.277-1.227 3.518-1.594 3.605-1.065 7.673-1.126 11.363-2.03 7.544-1.849 15.23-2.958 22.8-4.68 7.336-1.668 14.533-3.875 21.784-5.864-.583.868-.898 2.09-1.852 2.659zM400 704.323c-5.68 4.334-11.538 8.456-17.043 13.016-4.973 4.12-9.28 8.967-13.522 13.818-1.436 1.642-3.139 4.091-4.84 1.398-1.667-2.634-2.468-6.144-3.484-9.07-1.138-3.271-2.214-6.571-3.42-9.816-.904-2.43-2.584-4.929-.815-7.364 1.644-2.26 4.297-4.208 6.285-6.182 2.574-2.557 5.142-5.123 7.844-7.547 5.178-4.647 10.657-8.959 15.99-13.425 5.72-4.789 11.322-9.721 16.933-14.636 4.886-4.279 9.582-8.8 14.84-12.63 12.332-8.983 22.27-20.748 33.798-30.67 1.91 7.756 3.234 15.704 5.487 23.37.913 3.108 2.72 5.845 3.551 8.984.977 3.696-1.359 4.842-4.09 6.822 1.434-1.95 3.091-3.118 3.023-5.656-2.89.66-5.134 2.896-7.38 4.685a327.325 327.325 0 00-7.144 5.839c-5.232 4.408-10.412 8.879-15.592 13.348-10.053 8.671-19.857 17.658-30.42 25.716zm-23.266-50.876c-4.95.334-9.724 1.819-14.688 2.124-2.37.145-4.72.641-7.093.715-2.705.084-5.354-.346-8.07-.198-5.305.291-10.534-.159-15.826-.459-5.26-.299-10.477-.425-15.696-1.219-2.12-.323-4.23-.654-6.36-.917-1.735-.215-4.45-.272-5.173-2.151-.674-1.757-.09-4.678-.063-6.534.025-1.679.117-3.36.122-5.038.008-2.344-.15-6.056-3.158-6.411-1.756-.208-3.534 1.016-5.025 1.77-2.49 1.259-4.937 2.565-7.313 4.032-2.333 1.439-4.654 2.941-6.85 4.582-1.743 1.301-3.535 3.064-5.886 2.763-2.016-.257-3.77-1.66-5.606-2.423-2.61-1.084-5.583-1.603-8.398-1.662l1.07-12.685.391-4.649c.138-1.636-.109-3.79.3-5.374.66-2.551 5.53-.993 7.657-.826 4.12.325 8.244.622 12.36.999 1.951.18 6.011 1.39 7.708.023 2.11-1.7 1.53-8.019 1.678-10.411.112-1.826-.53-6.89 1.157-8.102 1.1-.788 3.417-.173 4.633-.107 1.971.108 3.945.166 5.92.124 15.561-.325 31.056-3.789 46.197-7.161 3.364-.749 6.188-1.891 7.881 1.817 1.698 3.72 3.234 7.529 4.863 11.282 1.262 2.909 3.583 5.695 2.042 8.882-1.697 3.51-3.807 6.913-5.78 10.276-1.287 2.193-5.33 7.648-.278 8.106 3.583.325 7.895-1.015 11.42-1.622 1.522-.262 3.02-.604 4.181.585 1.292 1.322 1.902 3.901 2.655 5.561 1.933 4.256 4.01 8.441 5.767 12.776-2.222.6-4.426 1.376-6.739 1.532zm-76.49-1.26l-13.052-2.14c-1.103-.181-7.534-.329-6.572-2.205.375-.731 2.667-1.563 3.333-1.983 1.88-1.187 3.761-2.372 5.681-3.492 3.561-2.076 7.261-3.951 11.195-5.21l-.586 15.03zm-36.407-40.871c.152-2.824-.03-6.334.68-9.07.658-2.541 2.868-3.019 5.236-2.776 2.942.302 5.812 1.243 8.766 1.583 3.661.421 7.353.479 11.033.304 0 4.202.595 8.872-.427 12.993-.839 3.386-4.214 2.136-6.839 1.962-4.383-.29-8.762-.423-13.132-.908-2.634-.292-5.494-.772-5.317-4.088zm94.353-32.603zm-6.799-19.004c-.428-1.251-1.17-2.389-1.54-3.66-.324-1.119-.283-2.228-.777-3.303-1.109-2.415-2.905-4.429-3.884-6.96-1.104-2.851-1.41-6.267-3.17-8.833-.768-1.115-1.39-1.7-1.817-2.991-.464-1.402-1.036-2.43-1.666-3.76-.989-2.089-1.48-4.043-2.658-6.108a94.662 94.662 0 01-4.026-7.881c-.547-1.211-.764-4.516-2.098-5.249-1.067-.585-1.05.518-1.897-.701-.685-.983-.647-1.564.594-2.035-.495-.705-1.464-.362-2.052-.972-.57-.591-.44-1.605-.65-2.334.788.25 1.578.495 2.37.741-2.302-4.959-4.38-10.019-6.867-14.891-2.146-4.208-3.586-8.789-6.596-12.414-1.504-1.811-.38-3.678-1.407-5.611-.39-.738-1.078-1.261-1.418-2.04-.35-.805-.207-1.955-.696-2.679-.686-1.016-1.259-.368-2.117-.942-.612-.409-.93-1.159-1.286-1.771-.185-.317-.926-1.367-.846-1.748.25-1.196 1.017-.058 1.59-.655-1.259-3.187-2.64-6.319-4.022-9.454-.634-1.443-1.743-6.616-4.018-5.036-1.25-3.029-.973-5.539-2.308-8.558-1.887-4.269-3.618-8.606-5.419-12.912-.875-2.092-1.66-4.243-2.595-6.308-.786-1.732-2.147-2.581-3.162-4.087-.937-1.388-.952-3.783-1.518-5.538-2.3-7.128-6.197-13.317-9.413-20.021-2.009-4.187-3.823-8.452-5.742-12.68-.934-2.058-2-4.043-2.984-6.075-.386-.801-.729-1.549-.88-2.437-.088-.513.126-1.554-.103-1.974-.32-.588-1.198-2.089-1.658-3.025-.672-1.37-2.086-2.177-2.418-3.592-.21-.895.141-1.308-.413-2.177-.678-1.061-1.073-1.169-1.273-2.547-.302-2.076-.957-3.35-2.232-5.041-1.22-1.616-1.88-3.146-2.665-4.993-.59-1.387-2.284-3.417-1.7-4.985.491-1.321 2.021-1.502 3.217-1.796a69.864 69.864 0 006.103-1.775c4.253-1.463 7.975-3.61 11.694-6.114 3.403-2.291 6.926-5.207 10.634-6.948 3.29-1.543 6.713-4.841 9.877-7.193 3.716-2.763 7.575-6.472 11.954-8.128-4.476 10.111-6.105 20.801-7.086 31.759-1.022 11.42-1.059 22.58-.795 34.019.256 11.101-.112 22.184 1.717 33.205.88 5.291 2.217 10.453 2.908 15.78.321 2.477 1.267 9.339 4.574 9.766 2.08.268 3.398-1.772 5.147.334 1.264 1.523 1.44 3.586 2.041 5.375.652 1.944 2.718 2.939 2.368 5.094-.174 1.069-.716 1.382.07 2.355.451.559 1.602 1.307 2.18 1.963.005-.349-.217-1.223-.005-1.505.286-.381.864-.031 1.222-.365-.362.337-.844.136-1.094.488-.569.804.243 2.342.532 3.088.714 1.838 1.665 3.412 2.858 4.984 1.131 1.492 2.113 3.428 3.433 4.747 1.314 1.311 2.936 1.794 4.112 3.357 1.016 1.35 1.7 2.878 3.16 3.821 1.654 1.069 2.51 1.986 3.687 3.546 2.587 3.425 7.383 5.448 11.015 7.618 3.89 2.325 8.324 4.268 12.944 3.948.7-.049 1.45-.221 2.147-.088 1.202.229 1.012.713 1.766 1.287 1.122.854 2.4.775 3.848.884 4.727.355 9.647.434 14.33 1.096 2.31.327 9.13 2.501 10.036-.765 3.187 2.29 6.211 1.021 9.718.23 3.471-.783 7.715.203 10.818-1.845 1.607-1.06 1.813-1.429 3.85-1.522 1.708-.078 3.44-.037 5.032-.763 1.56-.71 2.29-1.281 4.038-1.565 2.031-.33 3.655-1.222 5.532-2.02 3.706 12.166 9.926 23.115 11.265 35.951.678 6.493.228 12.61-.87 19.027-.475 2.767-.852 5.359-2.38 7.77-1.579 2.49-3.774 4.687-5.94 6.667-4.229 3.869-9.085 6.959-14.064 9.763-5.243 2.953-10.559 5.928-16.123 8.232a463.24 463.24 0 00-16.815 7.342c-5.955 2.747-11.738 4.077-18.17 5.139-1.619.267-3.218.589-4.794 1.042-1.252.359-3.223 1.287-4.503.493-1.544-.956-2.196-4.505-2.875-6.138-1.176-2.825-2.064-6.03-3.808-8.57-.6-.875-.907-1.402-1.255-2.369-.382-1.064-.505-2.078-1.813-2.464-.228 1.027-.876 2.876.577 3.344-1.12-.361-1.08-1.073-.577-3.344zm-9.46-16.17zm-20.64-49.096l-.452-.692c.556-.224.646-.055.98.387l-.528.305zm-37.786-85.287c-.552-.656-.507-.486-.144-1.001.65.28.7.614.144 1.001zm.401 1.299c-.256-.159-.254-.317.005-.472.275.16.273.318-.005.472zm-.524 3.324c.081.477.318.794.654 1.009-.336-.214-.573-.532-.654-1.009zm-3.762-9.816c-.068.424-.135.847-.204 1.27.135-.838.278-1.641.15-2.493.147.978-.128 1.022.602 1.827l-.548-.604zm33.213 12.705c.074-.168.152-.335.225-.503-.073.168-.15.335-.225.503zm48.272 61.045l.117-.604-.117.604zm23.563 4.747c0 .396.04.805.06 1.199l-.06-1.199zm-7.569 1.467zm19.172.19c-.649.252-1.16.803-1.723 1.189.097-.336 1.401-1.064 1.723-1.189zm207.777 56.749c-1.134-.509-2.516-1.614-1.592-2.972-1.343-.208-1.33-1.547-1.702-2.57-.618-1.704-1.703-3.14-2.595-4.699 3.342-1.503 7.052-1.813 10.615-2.477l-4.726 12.718zm-2.832 4.172c.991-1.359 1.9-2.775 2.832-4.172-.317 1.269-2.076 3.135-2.832 4.172zm-36.699-78.179l.343-.293c-.323.024-.436.122-.339.293h-.004zm-7.679-17.122c-.2-.047-.359-.221-.454-.51.095.289.254.463.454.51zm-3.033-6.596c-1.268-.881-2.246-2.058-2.989-3.449.743 1.39 1.721 2.567 2.99 3.449zm-3.258-3.98zm1.3-2.655c-.482-.055-1.203-.135-1.668.097.31-.154.852-.166 1.668-.097zm8.273 13.687c-.35-.146-.348-.589-.593-.789-.296-.242-.753-.213-.952-.383-.713-.609-.527-.264-.62-1.451-.118-1.49-1.017-2.328-1.333-3.533-.396-1.511.173-2.274-1.047-3.502-1.47-1.478-3.37-2.763-3.877-4.946-.23-.995.1-1.859.101-2.84.001-.717-.713-2.159-.404-2.802.545-1.131 3.902-1.261 5.066-1.531 5.51-1.275 11.021-2.538 16.532-3.806-3.504 8.876-7.275 17.793-12.873 25.583zm2.047 12.955a53.892 53.892 0 01-.401-.539c.151.199.283.379.401.539zM551.81 565.329c.221-2.804 1.255-5.459 1.857-8.188.68-3.069.922-6.199.916-9.337-.012-5.973-.633-11.961-.979-17.923-.714-12.307-2.713-24.515-4.549-36.692-1.753-11.622-4.054-23.082-9.357-33.668-2.398-4.786-5.487-9.6-6.798-14.837-.293-1.169-.25-2.484-.642-3.614-.43-1.244-1.289-1.844-2.055-2.836-1.793-2.319-2.842-5.44-4.125-8.068-1.185-2.424-2.16-5.004-3.54-7.325-.554-.931-1.152-1.748-1.957-2.47-.575-.515-1.789-.996-2.134-1.7-.702-1.426 1.197-2.534 2.15-3.592 2.285-2.536 4.356-5.309 6.523-7.949 1.618 8.441 3.258 16.695 6.536 24.677 3.171 7.72 6.566 15.31 10.275 22.787 7.225 14.56 14.312 29.197 21.16 43.931 1.603 3.45 3.493 6.582 5.335 9.895 2.06 3.704 3.78 7.606 5.764 11.354 3.783 7.143 6.931 14.612 10.801 21.697 3.841 7.034 8.545 13.464 12.815 20.226 1.102 1.744 5.127 6.311 4.481 8.51-.292.991-1.217.979-2.076 1.139-2.262.425-4.585.561-6.853.969-4.42.796-8.699 2.117-13.156 2.835-3.858.622-7.775.886-11.494 2.16-2.193.751-4.204.812-6.47 1.18-2.123.345-4.183 1.05-6.265 1.571-4.604 1.152-9.31 1.817-13.966 2.729 3.34-5.427 7.287-10.9 7.803-17.461zm-9.72-72.928l2.992 18.088c-5.199-1.996-10.736-3.463-15.367-6.673 3.5-4.433 8.111-7.777 12.375-11.415zm-17.33-48.508c2.053.737 1.54 1.615.62 3.427-.934 1.838-1.793 3.627-2.529 5.566-1.932 5.079-3.59 10.27-5.306 15.425-1.617 4.859-3.257 9.716-4.787 14.603-.186.595-.615 3.132-1.527 3.071-1.032-.068-1.99-4.543-2.293-5.379a124.445 124.445 0 00-6.389-14.683c-.748-1.452-2.498-3.541-2.314-5.296.176-1.683 1.952-2.498 3.212-3.287 4.48-2.8 8.97-5.591 13.423-8.435 1.535-.981 3-1.986 4.424-3.116.722-.574 2.4-2.279 3.466-1.896zm-72.16 85.425zm-.027-.707zm-86.119 70.059zm1.507 19.191c1 2.155 1.95 4.35 3.03 6.465.607 1.192 2.126 3.139 1.303 4.516-.753 1.26-2.823 1.035-4.064 1.153-2.34.223-4.676.565-7.008.857l6.74-12.991zm-1.132-18.958c.24.361.036 1.006.227 1.365-.192-.358.012-1.004-.227-1.365zm12.66 27.704c-.547-.547.066-1.941.028-2.582-.088-1.51-.45-1.036-1.439-1.774-1.919-1.434 1.064-2.513-.08-4.485-.205-.352-.816-.416-.972-.777-.135-.309-.048-.671-.159-.965-.322-.846-.595-1.832-.928-2.722-.527-1.406-1.262-4.574-3.373-4.148l5.777-12.025c4.345 11.107 9.12 22.21 16.273 31.84-5.006 0-10.036.261-15.02-.333.955-.655-.11-1.252-.107-2.029zm11.668 24.143c-.402.173-.765.052-1.135-.268.37.32.732.441 1.135.268zm54.906-34.081a302.806 302.806 0 00-16.908 13.152c-2.364-6.661-2.57-13.798-2.869-20.785 6.248 3.389 13.351 4.66 19.777 7.633zm47.364-21.609c-1.73.194-3.145-.765-4.669-1.386-1.79-.729-3.674-.966-5.569-1.279-4.017-.663-8.026-1.375-12.04-2.043l17.615-22.477c-.017 9.274 2.953 18.158 4.663 27.185zm23.871-26.542c1.125 2.157 2.255 4.312 3.39 6.464.732 1.39 1.438 3.92 2.561 5.017 1.37 1.339 2.905.156 2.56-1.54-.372-1.837-2.006-3.957-2.897-5.562-.94-1.693-2.32-2.592-.505-3.698 1.493-.91 3.552-1.464 5.222-1.92 4.923-1.348 10.078-1.325 15.14-1.141-1.835 4.162-4.16 8.169-6.667 11.961a26.058 26.058 0 01-3.678 4.443c-1.096 1.057-1.493 2.449-2.542 3.486-1.204 1.19-3.017 1.532-4.6 1.917-1.875.457-3.528 1.142-5.337 1.805-1.928.706-4.185.448-5.966 1.272-1.673.773-3.044 1.401-4.9 1.818-3.679.827-6.952 2.973-10.62 3.65-1.776.327-1.757-.025-2.294-1.764-.459-1.492-.645-3.016-.914-4.548-1.634-9.333-3.006-18.707-4.628-28.042-4.206 4.838-7.957 10.054-12.17 14.881-2.113 2.419-4.388 4.686-6.55 7.057-1.32 1.447-4.079 3.683-4.085 5.843-.009 3.109 5.056 3.891 7.33 4.263 5.905.968 11.962 1.164 17.406 3.935-1.664 1.852-4.293 2.244-6.526 3.036-3.026 1.073-5.989 2.349-8.977 3.521-1.51.593-3.014 1.323-4.566 1.788-1.643.492-3.352.336-4.986.783-1.274.348-2.31 1.188-3.53 1.652-1.394.531-2.745.527-4.207.713-3.125.397-5.93 1.577-8.819 2.748-2.864 1.16-5.26.867-8.12-.138-6.129-2.154-12.465-3.85-18.437-6.422-.813 6.116-1.112 13.035.566 19.041.606 2.173 2.495 4.993 1.023 7.157-1.19 1.75-4.08 3.024-5.749 4.277-5.076 3.814-10.09 7.921-15.788 10.789a28.336 28.336 0 01-8.753 2.775c-1.04.153-3.258.783-4.093.293-.182-.107-.09-.681-.293-.801-.71-.424-.936-.45-1.782-.571 1.621-2.109-.923-2.102-1.878-3.465 3.581-2.87-2.427-5.847-3.318-8.304 2.156.224 1.47-1.315.71-2.583-1.11-1.845-2.828-1.802-4.862-2.257 1.528.341 2.996.893 4.575.94 1.523.045 3.048-.32 4.555-.502 1.768-.214 6.751.315 7.728-1.441 1.004-1.804-1.615-4.799-2.505-6.239-1.852-3-3.934-5.831-5.592-8.95-3.15-5.929-5.839-12.206-8.327-18.438-1.195-2.996-2.71-4.373-4.762-1.03-1.51 2.463-1.994 5.494-3.933 7.706-1.32-1.465-1.473-2.656-2.103-4.471-.7-2.015-1.993-3.698-2.853-5.624-1.868-4.179 3.21-3.158 5.8-3.448 4.281-.48 8.118-2.337 12.137-3.749 4.295-1.507 8.493-3.128 12.65-4.991 8.256-3.702 16.7-7.072 24.385-11.903 7.056-4.434 14.618-8.467 20.375-14.615 3.12-3.332 5.49-7.161 6.993-11.473.816-2.337 1.373-4.73 2.038-7.11.578-2.064 1.551-4.232 1.373-6.418l.023.359c2.601-1.855 1.767-4.975 1.715-7.674-.009-.48-.21-1.137.045-1.591.324-.576.945-.011 1.22-.783.28-.785-.88-2.157-1.092-2.903.365.187.73.372 1.096.555.394-2.375 1.017-4.698.942-7.123-.075-2.411-.653-4.847-1.153-7.197-.466-2.189-.967-4.393-1.565-6.551-.122-.439.022-1.092-.409-1.4-.72-.513-1.636.217-1.793.941.153-.707.495-.933.493-1.707 0-.782-.326-1.664-.46-2.438-.36-2.098-.742-4.19-1.16-6.277-.368-1.836-.689-3.707-1.17-5.516-.163-.61-.506-1.259-.542-1.894-.054-.94.187-.8.487-1.488.075-.175.467-.386.574-.619.19-.411-.178-1.048.03-1.472.264-.541.674-.694 1.203-.888 1.708-.624 2.33-.16 3.704-1.6 1.12-1.173 2.61-1.597 3.996-2.46 1.658-1.033 3.038-1.65 4.532-3.019 1.57-1.439 3.362-2.71 4.772-4.312.966-1.096 1.262-3.045 2.51-3.835.758-.482 1.751-.455 2.55-.962.812-.513 1.533-1.284 2.311-1.851 1.934-1.408 3.98-2.661 5.948-4.021 7.883-5.452 15.548-11.472 22.298-18.292 3.403-3.438 6.598-7.084 9.831-10.681.34-.378 2.337-3.236 3.1-3.09.84.161 1.532 3.772 1.906 4.542 1.874 3.859 3.594 7.646 5.041 11.698.562 1.575 1.252 2.507.035 3.649-1.492 1.401-3.947 2.307-5.724 3.347-4.252 2.49-8.513 4.97-12.74 7.506-2.254 1.352-7.718 3.394-8.5 6.188-1.002 3.577 3.105 8.56 4.604 11.527 2.086 4.129 3.614 8.434 5.144 12.787.643 1.826 2.721 9.674 5.651 8.967 1.498-.362 2.077-2.217 2.56-3.471a299.19 299.19 0 002.353-6.337c3.718-10.374 7.051-20.882 11.156-31.114 3.36 6.028 6.053 12.424 8.89 18.708 1.235 2.739 2.15 5.446 2.743 8.394.572 2.844 1.651 6.373 1.502 9.293-.297 5.809-23.974 14.481-13.183 21.486 4.716 3.06 10.855 3.566 15.63 6.452 2.527 1.527 2.445 4.079 2.36 6.718-.106 3.298.148 6.618.33 9.911.397 7.15 1.627 14.823.126 21.882-.495 2.329-.636 5.353-1.468 7.558-1.118 2.962-5.62 1.874-8.156 1.815-2.507-.058-22.452 1.134-19.7 6.41zm91.071-9.717c.924-.573.96-.351.255.501l-.255-.501zm6.591 9.498c-.49.68-1.46.711-1.922.578.462.132 1.43.102 1.922-.578zM337.727 406.628c6.61-5.991 14.716-10.315 21.704-15.883 7.572-6.033 15.472-11.625 23.372-17.216 15.733-11.129 31.14-22.634 47.103-33.441 15.794-10.694 32.225-20.327 48.887-29.595 7.668-4.266 14.803-9.516 22.74-13.256 4.161-1.962 8.284-4 12.493-5.862 2.038-.902 3.225-1.238 4.761.597 1.09 1.303 1.843 2.884 2.805 4.281 2.834 4.116 5.747 8.141 9.284 11.686 1.547 1.55 6.757 6.849 9.18 4.59.967-.901 1.106-2.756 1.48-3.97.776-2.522 1.67-5.023 2.54-7.514 1.774-5.075 3.826-10.045 5.784-15.051 4.097 2.061 8.353 3.75 11.915 6.713 3.42 2.843 6.551 5.868 9.608 9.083 1.206 1.269 1.53 1.306.887 2.851-.295.708-.763 1.012-.369 1.851.318.68 1.346.743 1.33 1.698-.016.936-1.648 2.378-2.349 2.858-1.899 1.3-4.356 2.109-6.43 3.108-2.306 1.11-8.43 2.787-9.146 5.656-.517 2.069 1.454 3.346 2.88 4.441 1.913 1.469 3.864 2.893 5.734 4.419a59.72 59.72 0 0110.005 10.445c2.672 3.566 4.476 7.646 7.025 11.261.844 1.198 2.748 3.859 4.377 2.421 1.335-1.178 1.418-4.775 1.773-6.402 1.18-5.406 2.49-10.903 4.39-16.105 4.927 7.996 8.426 16.473 12.172 25.061 3.9 8.939 8.055 17.757 11.842 26.746.94 2.229 4.163 6.515 2.341 8.785-.877 1.093-2.469 1.695-3.617 2.459-1.908 1.271-3.73 2.7-5.567 4.069-3.574 2.662-8.234 5.299-11.063 8.782-2.599 3.199.996 6.165 3.582 7.841 3.91 2.534 8.558 3.52 12.917 4.99 4.778 1.611 9.416 3.936 14.464 4.602-.158-2.152-.155-4.124-2.244-5.284-2.398-1.33-5.354-1.814-7.95-2.634-5.929-1.873-11.763-4.115-17.55-6.38 6.128-5.672 12.633-10.924 19.304-15.94 6.348 14.241 8.573 29.824 14.862 44.038 6.29 14.219 12.462 28.71 15.5 44.052l-2.017-1.549c-5.803 8.016-7.275 18.435-13.787 26.012-1.025-4.87-3.82-8.865-6.214-13.123-1.115-1.983-3.626-6.149-1.968-8.386 1.043-1.408 4-1.532 5.57-1.915 2.642-.645 5.162-1.71 7.67-2.751 1.743-.724 3.855-1.176 5.477-2.134 1.283-.756 2.537-2.607.27-2.603-1.952.004-4.273 1.332-6.108 1.922a146.41 146.41 0 01-8.08 2.361c-1.754.454-3.675.494-5.385 1.052-2.26.737-2.485 2.442-2.285 4.627.442 4.81 2.635 8.908 5.103 12.964 1.274 2.094 2.52 4.16 3.255 6.515.483 1.548.727 3.625 2.251 4.562 3.556 2.186 6.76-6.863 7.812-8.983 2.977-5.992 5.775-12.073 8.647-18.115 1.436 1.21 1.773 3.204 2.318 4.895.606 1.88 1.265 3.745 1.896 5.617.734 2.18 1.382 4.416 2.231 6.556.553 1.393 1.618 2.923 1.423 4.48-.234 1.862-2.134 3.479-3.237 4.884-1.2 1.529-2.29 3.144-3.417 4.727-2.574 3.62-5.239 7.182-7.693 10.886-2.469 3.723-4.512 7.701-6.929 11.455-2.307 3.581-4.838 7.018-7.308 10.487-2.357 3.31-4.145 6.834-6.334 10.226-2.56 3.966-5.602 7.648-8.408 11.44 0-.34-1.103-1.004-1.334-1.313-.499-.664-.108-1.093-1.07-1.263-.935-.165-.998.984-1.992.038-.6-.572-.535-1.616-.302-2.171.308-.728.894-.49.821-1.46-.026-.339-.603-.626-.723-.933-.198-.506-.04-1.109-.162-1.624-.467-1.988-2.47-3.259-3.694-1.237l-.416-1.398 1.165.095c-.284-1.697.061-3.382-.55-4.871-.549-1.337-1.138-2.168-.734-3.592.434-1.531 1.513-3.613 2.195-5.302.886-2.194 1.666-4.432 2.433-6.668 1.077-3.135 3.36-7.854 1.22-10.998-1.059-1.555-2.355-1.454-4.03-1.056a122.17 122.17 0 00-7.059 1.922c-1.526.461-3.399 1.239-4.948.43-1.62-.848-2.332-3.416-2.975-4.962-.992-2.385-1.922-4.749-3.19-7.007-1.067-1.899-1.792-4.071-3.21-5.719-1.144-1.328-2.257-2.694-2.574-4.474-.108-.605.148-1.362-.17-1.926-.358-.634-1.142-.743-1.53-1.507-.913-1.793-.185-3.712-2.32-4.968-.82-.483-3.966-1.361-1.269-2.146-1.196-3.154-2.644-6.202-4.073-9.255-.715-1.524-1.432-3.048-2.109-4.59-.32-.732-.553-1.743-.974-2.411-.328-.522-.797-.696-1.099-1.129-.718-1.027-.502-1.651-.798-2.83-.317-1.266-1.338-2.304-2.067-3.348-1.986-2.844-2.71-6.189-3.703-9.463-.434-1.432-1.21-3.066-1.385-4.559-.158-1.363.26-1.63 1.06-2.919 1.926-3.099 3.757-6.257 5.414-9.508 1.396-2.738 2.523-5.59 3.857-8.354 1.141-2.363 2.603-4.618 3.3-7.172.6-2.201.502-4.623-1.246-6.297-2.323-2.227-5.737-.727-8.39-.014-3.373.905-6.745 1.813-10.116 2.725-1.638.443-6.08 2.72-7.543 1.173-.596-.631-.445-1.688-.53-2.477-.126-1.168-.454-2.085-.965-3.149-.565-1.176-1.303-2.256-1.664-3.523-.326-1.14-.145-2.189-.977-3.086-.785-.848-.916-.405-.982-1.706-.063-1.209.195-1.95-.42-3.162-.562-1.103-1.418-2.038-1.898-3.187-.372-.893-.253-1.58-.397-2.529-.379-2.491-3.116-5.036-2.636-7.569.437-2.309 3.102-3.467 3.411-5.995.778-6.389-6.717-2.101-9.02-.361-.73.551-1.556 1.635-2.585 1.373-.802-.204-1.02-1.375-1.753-1.609-2.027-.647-1.08 3.376-1.618 4.589-1.229 2.773-4.195 4.928-6.169 7.168-2.429 2.756-4.609 5.725-6.965 8.543-.748.893-3.037 4.514-4.454 4.74-2.307.368.764-3.363 1.143-3.944 1.692-2.593 2.744-5.694 3.912-8.542 1.334-3.255 2.863-6.406 4.435-9.552 1.505-3.01 3.03-6.015 4.335-9.119.823-1.955 2.812-5.135 2.425-7.336-.428-2.43-3.013-2.27-4.966-2.039-3.24.385-6.477.924-9.7 1.433-8.096 1.278-16.324 1.885-24.342 3.57-1.444.303-8.772 1.284-7.882 3.288.673 1.514 6.578-.297 7.646-.449a262.99 262.99 0 0111.801-1.426c4.181-.404 8.35-.801 12.488-1.542 4.07-.729 8.09-2.134 12.234-2.374-2.192 7.232-6.458 13.908-9.435 20.848-1.469 3.426-3.035 6.793-4.597 10.177-.726 1.57-1.522 4.773-3.442 5.274-2.155.563-4.23-2.497-5.373-3.917-2.245-2.789-4.109-5.825-5.9-8.918-1.009-1.741-9.577-17.874-11.373-16.756-.665.414 11.815 21.461 13.164 23.405 2.018 2.911 5.023 7.979 8.645 9.07.705.213 2.716-.058 2.827.826.107.859-2.32 1.714-2.856 2.043-3.577 2.196-6.489 5.561-9.525 8.416-3.459 3.253-7.274 6.026-11.109 8.812-1.445 1.049-2.897 2.08-4.237 3.262-1.07.946-2.345 2.482-3.772 2.864-1.332.357-1.645-.273-2.302-1.352-1.255-2.061-2.554-4.097-3.824-6.148-4.98-8.04-10.38-15.476-17.319-21.969-.847-.791-2.124-1.962-2.857-.564-.96 1.829 1.018 2.464 2.102 3.197 3.571 2.413 6.455 6.752 9.011 10.154 2.967 3.951 5.636 8.092 8.272 12.267 1.261 1.999 4.792 5.175 1.5 6.758-3.525 1.694-8.07 1.751-11.818 2.919-4.477 1.395-8.717 3.438-13.202 4.837-3.839 1.197-7.76 1.961-11.634 2.991-.969.257-3.057.688-3.422 1.839-.423 1.338.87 1.521 1.856 1.555 3.402.12 7.48-.929 10.722-1.757 2.61-.667 5.2-1.478 7.752-2.33 1.671-.558 2.96-1.695 3.914.167-2.826 1.239-5.386 2.669-8.269 3.718-1.018.371-1.589 1.173-2.496 1.737-1.27.788-2.87 1.076-4.26 1.615-2.987 1.159-5.77 2.748-8.827 3.743-3.235 1.055-6.59 1.689-9.844 2.686-2.524.773-4.497 2.271-7.21 2.386-1.435.061-2.898-.119-4.327.102-1.295.2-2.384.965-3.652 1.155-.906.135-2.23-.021-3.122-.095-.41-.034-.703.064-1.137.02-.319-.032-.689-.528-1.062-.586-1.278-.197-2.926.492-4.253.485-1.41-.007-2.83-.164-4.236-.288-2.644-.232-5.559-.394-7.854-1.828-2.159-1.35-4.346-.715-6.725-1.702-2.57-1.066-4.977-.187-7.495-1.001-1.04-.337-1.474.025-2.53-.043-1.287-.083-2.763-1.687-3.93-2.249-5.65-2.715-10.802-5.688-15.256-10.184-1.876-1.893-3.273-4.191-5.714-5.343-2.318-1.095-2.928-3.399-4.628-5.268-1.577-1.737-8.06-7.124-6.018-9.567.684-.819 2.395-1.111 3.354-1.485 1.542-.603 3.052-1.298 4.58-1.938a121.594 121.594 0 0110.603-3.875c-1.25 3.696-2.356 7.476-3.826 11.092-.435 1.066-1.374 2.438-1.274 3.648.124 1.487 1.496 1.899 2.23 3.042 1.17-3.065 2.26-6.164 3.47-9.212.997-2.517 2.497-5.353 2.32-8.144-.439-6.885-7.854-2.372-11.259-.898-2.694 1.167-5.396 2.32-8.09 3.485-1.544.667-3.814 2.024-5.527 1.233-2.174-1.003-2.115-4.13-1.566-6.048.893-3.119.515-4.067-2.09-6.04 4.348-3.742 8.774-7.397 13.026-11.25zm171.976-130.793c.585 1.528 3.062 5.696 1.97 7.07-.596.751-3.153 1.367-4.047 1.764l-5.122 2.274c2.401-3.702 4.8-7.405 7.2-11.108zm36.708 9.709c-1.912 4.981-3.62 10.026-5.213 15.116-.565 1.804-1.587 9.069-4.295 8.686-1.438-.203-2.887-2.122-3.89-3.053a53.295 53.295 0 01-4.636-4.89c-3.09-3.692-6.413-7.373-8.615-11.691 8.41-3.54 17.661-3.855 26.65-4.168zm30.696 22.287l-.604-.609.604.609zm2.585 4.945c1.871 2.943 3.685 5.937 5.57 8.878-1.22-1.902-2.4-3.834-3.627-5.731-1.172-1.812-1.054-2.105-3.154-1.401.96 2.464 1.387 4.945 3.846 6.361 2.86 1.647 5.431 2.237 6.233 5.955.734 3.409-1.013 6.874-1.926 10.068-1.176 4.114-1.959 8.348-2.975 12.504-2.362-.993-3.278-3.83-4.299-5.948-1.427-2.959-3.24-5.799-5.255-8.391-4.342-5.584-10.039-9.911-15.487-14.343 4.157-2.135 8.32-4.261 12.473-6.406 2.561-1.321 6.513-4.827 8.601-1.546zm87.428 242.91c4.992-8.315 9.736-16.806 15.042-24.927 2.568-3.929 5.42-7.663 8.232-11.419 2.32-3.096 4.358-6.714 7.136-9.409 2.99-2.901 5.65-6.172 8.446-9.264 1.303-1.441 2.347-3.093 3.754-4.438 1.582-1.511 3.374-2.793 4.994-4.265 3.255-2.956 6.135-6.319 9.474-9.181 3.34-2.863 6.988-5.532 10.593-8.054 2.786-1.95 6.498-5.191 10.063-5.193 3.791-.002 3.29 4.51 3.35 7.28.096 4.564-.606 9.118-1.18 13.633-.59 4.639-1.296 9.249-2.57 13.757-2.43 8.605-5.014 17.555-8.353 25.85-1.673 4.157-3.819 8.084-5.644 12.17-1.213 2.718-2.072 6.203-4.767 7.876-1.83 1.134-4.33 1.243-6.409 1.612-2.69.478-5.388.909-8.076 1.398-4.974.905-10.017 1.337-14.987 2.253-5.227.964-10.346 1.673-15.634 2.247-2.77.301-5.426.949-8.158 1.467-2.502.475-5.125.359-7.568 1.126.748-1.509 1.394-3.073 2.262-4.519zm-38.46 9.746c.972-.628 1.02-1.711 1.388-2.684.406-1.072 1.105-1.853 1.665-2.832 1.108-1.935 1.2-3.811 2.683-5.514 3.366-3.862 4.52-9.458 7.09-13.84 6.226-10.62 12.376-21.265 18.352-32.036 1.934 3.916 3.81 7.868 5.825 11.743 1.633 3.138 4.555 6.702 5.242 10.209.578 2.955-2.935 6.611-4.289 9.042-2.006 3.599-4.035 7.245-5.615 11.057-1.313 3.165-2.013 6.841-4.043 9.661-2.02 2.808-5.356 2.354-8.425 2.746-4.008.513-7.952 1.439-11.92 2.178-1.814.337-3.52.711-5.258 1.332-.85.303-4.16 1.245-2.695-1.062zm-22.048-225.881c9.584.612 16.921-3.509 25.02-7.946 4.111-2.251 7.89-4.97 11.83-7.496 3.904-2.503 7.951-4.9 11.64-7.721 1.621-1.24 2.9-2.826 4.455-4.136 1.468-1.236 3.23-2.062 4.605-3.418 2.666-2.629 5.603-5.729 7.57-8.906 4.801-7.754 10.652-14.808 16.27-21.964 3.141-4.002 5.723-8.394 8.48-12.659 2.86-4.425 5.768-8.822 8.312-13.44 17.437 37.077 35.22 73.988 52.796 110.996a77248.578 77248.578 0 0126.93 56.752c4.297 9.065 8.865 17.986 13.392 26.936 4.42 8.736 8.203 17.894 12.25 26.813 2.222 4.897 5.158 9.401 7.267 14.359 2.081 4.893 4.488 9.65 7.07 14.297 2.541 4.574 4.622 9.375 7.18 13.923 2.502 4.452 3.882 9.487 6.738 13.747-8.25 1.695-16.54 3.191-24.73 5.157-4.067.977-8.203 1.614-12.264 2.601-4 .974-7.814 2.629-11.892 3.279-8.435 1.342-16.889 2.777-25.354 3.906-4.247.567-8.528.694-12.786 1.132-4.418.456-8.725 1.529-13.092 2.295.24-2.945 1.884-5.594 3.024-8.254 1.325-3.097 2.571-6.249 3.593-9.459 2.034-6.389 3.694-13.023 5.394-19.512 3.294-12.568 6.56-26.851 3.64-39.824-.975-4.325-3.31-8.94-7.518-10.893-5.48-2.544-10.752 1.514-15.219 4.368-5.702 3.644-10.9 8.042-15.937 12.543-2.432 2.174-4.79 4.339-6.899 6.833-2.036 2.408-4.48 4.081-6.607 6.346-10.192 10.853-19.032 22.898-26.746 35.618-1.37-3.508-2.454-7.012-4.482-10.222-1.548-2.452-3.263-4.785-5.008-7.097-1.175-1.556-2.919-3.568-1.98-5.593.97-2.093 4.093-3.091 3.492-5.847-1.26.738-2.523 1.476-3.786 2.213-3.708-11.829-8.185-23.366-11.889-35.19-1.833-5.852-3.59-11.732-5.543-17.546-1.81-5.394-4.497-10.399-6.838-15.568-4.82-10.633-6.42-22.31-10.513-33.195-.83-2.205-2.07-4.229-2.883-6.431-.363-.986-.672-1.714-.182-2.641.3-.564 1.344-.865 1.47-1.505.304-1.559-2.436-.919-3.335-1.758-.723-.675-1.016-2.083-1.399-2.979-.699-1.632-1.362-3.279-2.043-4.919-5.39-12.984-11.185-25.804-17.225-38.498 1.243.171 2.478.422 3.732.503zm92.482-123.5c-.559-.842-.53-2.13-1.282-2.852-.756-.727-1.629-.535-2.302-1.363-.247-.304-1.177-2-1.302-2.387-.059-.186.118-.871-.007-1.278-.228-.746-.919-1.094-1.293-1.722-1.613-2.708 1.097-3.537 1.71-6.05.356-1.463.191-2.389 1.367-3.503.898-.85 2.332-1.798 3.405-2.446.764-.462.8-.33 1.585-.578.355-.112.536.104.97-.069.831-.333 1.62-1.488 2.216-2.106 1.758-1.822 2.742-3.208 2.126-5.794-.298-1.251-.805-3.455-2.436-3.177-.898.152-2.045 1.768-2.68 2.376-1.22 1.171-2.43 2.584-3.846 3.535-.988.665-2.2.591-3.145 1.174-1.188.734-1.057 1.937-1.617 3.085-1.162 2.382-4.405 4.289-6.406 5.925-2.034 1.663-4.126 3.292-6.479 4.486-2.109 1.07-5.74 2.617-8.153 1.853-4.122-1.307 2.652-10.832 4.108-12.637 2.96-3.668 9.91-6.641 8.95-12.187-.435-2.509-1.947-4.226-4.54-3.128-3.218 1.363-6.058 3.951-9.215 5.535-3.299 1.655-6.713 3.074-10.1 4.534-1.856.8-3.724 1.573-5.568 2.395-1.415.631-2.909 1.555-4.51 1.033 5.006-6.928 10.017-13.89 15.701-20.288 2.673-3.01 5.733-5.549 8.862-8.066 2.341-1.884 4.99-3.843 4.83-7.178-.12-2.531-1.54-5.915-4.54-5.335-1.928.372-3.578 2.048-5.389 2.773a29.614 29.614 0 00-4.195 2.043c-1.603.935-3.663 1.072-5.425 1.529-1.933.501-3.84 1.11-5.793 1.534-4.167.907-8.39.657-12.622.657 3.538-6.091 9.145-10.488 14.47-14.928 3.001-2.502 5.782-5.255 8.806-7.729 2.987-2.442 6.225-4.558 9.198-7.019l.668 2.584c1.401-.668 1.764-2.483 3.134-3.262 1.683-.958 3.75-.558 5.53-.139 3.873.914 7.31 2.793 10.3 5.395 6.158 5.358 10.65 12.295 14.223 19.572a115.236 115.236 0 015.04 11.927c.707 1.976 1.376 4.041 1.404 6.161.03 2.333-1.01 4.332-1.588 6.539-1.1 4.209-1.359 8.692-1.939 12.997-.617 4.571-.956 9.15-1.343 13.743a99.034 99.034 0 01-.893 7.264c-.118.738-.11 1.777-.457 2.44-.317.611-1.143.849-1.43 1.452-.332.69-.074.66.141 1.563.277 1.159.118 2.017-.214 3.169-.724 2.514-1.479 5.014-2.165 7.541-1.914-.792-4.319-2.786-5.064-4.802-.405-1.095-.022-1.751.137-2.833.217-1.475-.124-2.723-.943-3.958zm-52.127-105.785zm-19.22-42.819zm-.086 1.718c-.165-.459.392-1.197.15-1.629.076.136-.19 1.629-.15 1.629zm114.117 249.114l.824 1.224-.824-1.224zm3.947.162c-.115-.215-.23-.433-.355-.65.124.217.24.435.355.65zm2.371 3.944l.145-.256c-.112.392-.295.358-.55-.102.134.121.272.237.405.358zm1.761 2.697zm-515.878 4.329c-.968-.471-2.338-1.899-3.479-1.906-.496-.003-1.57.329-.973.923.285.284-1.97.001-2.003-.007-1.34-.334-2.662-.843-3.967-1.292-2.309-.794-4.599-1.642-6.9-2.454-4.622-1.632-8.947-3.85-13.449-5.764-8.696-3.696-16.074-8.813-23.457-14.658-15.144-11.991-24.772-29.518-33.682-46.29 9.058.803 18.457 1.185 27.227-1.645 9.125-2.944 16.415-8.169 24.18-13.56.502 1.33 1.006 2.662 1.51 3.992l2.19-4.304 40.02 89.255c-2.459-.572-4.937-1.179-7.217-2.29zm-87.956-45.595c2.41 1.091 2.987 2.165 3 5.065-.013-2.898-.59-3.973-3-5.065zm1.683-118.059zm-9.349 20.506c.308-1.126.62-2.251.93-3.376.172 2.198 1.407 2.988-1.266 3.99l.336-.614zm2.021 2.471c-.239.381-.32.289-.243-.276l.243.276zm12.137-30.15c5.473-6.974 10.782-14.074 16.817-20.581 4.776-5.148 10.227-10.897 17.472-12.152-.599 6.64-5.17 12.011-8.79 17.29-2.027 2.953-4.015 5.802-6.39 8.488-2.148 2.428-3.344 5.129-1.927 8.288.85 1.893 2.67 4.58 5.031 4.258 1.402-.192 2.696-1.564 3.795-2.36 1.568-1.137 3.225-2.154 4.846-3.211a358.864 358.864 0 019.23-5.855c2.792-1.703 5.738-4.305 9.138-4.556-1.25 3.325-2.98 6.427-4.63 9.561-1.685 3.195-3.206 6.53-5.38 9.435-2.127 2.839-4.825 4.677-7.492 6.929-2.279 1.923-2.104 4.65-.858 7.186 1.456 2.963 3.618 4.623 6.247 2.159 2.842-2.663 5.551-4.969 8.76-7.187 2.697-1.863 5.277-2.997 8.291-4.292 1.201-.516 3.636-2.202 5.002-1.483 1.876.988.262 5.814-.11 7.381a41.46 41.46 0 01-4.065 10.514c-3.119 5.627-6.434 11.467-11.776 15.22-4.356 3.059-14.482 6.305-11.159 13.175 1.452 3.002 3.085 5.935 4.621 8.896.953 1.838 4.293 5.9 3.082 8.101-.814 1.48-3.56 2.508-4.958 3.348a174.911 174.911 0 01-5.755 3.327c-3.57 1.963-7.229 3.783-11.025 5.271-7.712 3.02-16.192 3.392-23.817 6.649.451-.185.906-.359 1.367-.521-1.328-.23-1.865-2.317-2.332-3.369-.227-.513-.714-1.207-.822-1.749-.126-.63.314-1.071.275-1.43-.087-.795-.485-.642-.78-1.164-.513-.902-.288-.751-.428-1.736-.1-.698-.445-1.209-.614-1.88-.303-1.2.106-2.367.316-3.546-3.26.271 1.107-3.562.71-4.697-.377-1.076-1.617-1.286-1.793-2.605-.187-1.393-.004-2.902-.193-4.345-.19-1.463-.507-2.988-.2-4.453.27-1.297 1.017-2.198.087-3.426-.57-.754-1.664-.964-2.182-1.788-.793-1.263-.107-2.623 1.202-3.172-1.116-.642-1.9-1.633-1.806-2.979.088-1.247.688-1.312 1.39-2.176 2.224-2.745-2.432-2.781-1.803-5.677.3-1.374 1.55-2.452 2.015-3.781.494-1.409.708-3.206.78-4.685.055-1.161-.565-1.9-.65-2.897-.094-1.125.718-1.526.9-2.517.203-1.109-.742-2.254-.492-3.376.253-1.135 1.372-1.615 1.705-2.795.381-1.353-.304-2.299-.255-3.548.072-1.854.862-.76 1.825-1.524.632-.501.29-1.059.436-1.743.19-.878.418-1.198.964-1.913.72-.942 1.574-1.757 2.097-2.838.614-1.271.784-2.65 1.441-3.884.925-1.738.767-2.293-.1-4.018-.5 1.165-1.63 1.967-1.986 3.209.678-2.367 3.234-4.873 4.726-6.776zm-23.498 58.828c-.417-.367.237-.497.42-.189l-.42.189zm128.09-82.881zm-9.103-110.964zm.295-.189zm1.006-.22c-.284.074-.575.107-.858.176.278-.068.6-.077.858-.176zm-20.7 108.663zm203.53 18.775c.358-6.615.265-13.499 2.694-19.771.756-1.953 1.62-4.946 3.811-5.724 3.038-1.077 7.692.321 10.853.517 6.544.406 13.06-.328 19.47-1.629 3.43-.695 6.617-2.22 9.925-3.317 3.347-1.11 6.61-2.321 9.73-3.986 1.293 3.852 3.735 7.325 6.592 10.185 2.535 2.536 6.137 4.683 3.771 8.555-2.12 3.473-3.133 7.172-4.829 10.835-1.909 4.126-4.93 7.644-7.665 11.232-.338-1.161-.415-2.315-.39-3.518-1.888.411-4.802 2.783-5.759.124-.345-.963.33-2.964-1.075-3.145-2.114-.273-2.244 3.605-2.023 4.778.507 2.689 2.223 4.022 4.58 5.128-7.208 3.917-13.389 9.302-20.809 12.94-3.7 1.815-7.937 2.494-11.976 3.207-2.556.451-5.236.343-7.63-.729-8.91-3.986-9.722-17.339-9.27-25.682zm464.043 403.118c-2.194-3.23-2.596-7.213-3.22-10.965-.708-4.254-1.685-8.43-3.323-12.429a97.796 97.796 0 00-5.178-10.695c-.546-.975-1.208-2.29-2.483-2.389-1.427-.11-2.065 1.31-3.006 2.083-1.327 1.091-3.099 1.364-4.69 1.909-1.967.673-3.87 1.518-5.849 2.164-3.766 1.231-7.908 1.351-11.786 2.207-1.823.402-3.652.782-5.478 1.176-1.222.263-3.31 1.242-4.555 1.036-2.63-.435-4.539-6.604-5.44-8.768-1.47-3.542-3.692-6.789-5.024-10.353-1.39-3.718-2.61-7.387-4.299-10.999-1.76-3.766-3.61-7.502-5.27-11.313-.635-1.453-1.08-3.063-1.956-4.397-.946-1.441-2.158-1.713-2.55-3.475-.128-.565-.116-1.543-.53-1.996-.723-.79-.978-.053-1.67-.302-.723-.26-.587.013-.842-.684-.046-.126.353-.468.325-.667-.048-.346-.274-.655-.338-.984-.287-1.476.123-2.516-.526-4.014-.823-1.897-1.475-3.867-2.19-5.81-2.856-7.758-7.047-14.847-10.476-22.266-.414-.896-1.134-1.556-1.448-2.505-.275-.833-.06-1.829-.468-2.627-.45-.883-1.185-.839-1.769-1.48-.5-.549-.547-1.058-.709-1.781-.783-3.508-2.792-6.4-3.737-9.874-.535-1.97-1.613-3.407-2.606-5.157-1.164-2.048-1.927-4.315-2.897-6.458-.905-2.002-1.818-4.033-2.842-5.977-.942-1.789-1.52-2.045-2.895-.404-1.076-1.556-2.257-2.886-2.992-4.642-.625-1.495-1.634-1.56-3.07-2.502.917.602 1.541 1.405 2.49.391.43 1.734 2.574.096 2.21-1.287-.404-1.533-2.45-1.809-3.713-2.248.62-1.621 1.621-.178 1.596-2.005-.022-1.519-1.515-3.302-2.19-4.577-1.862-3.516-3.306-7.277-4.88-10.927-1.58-3.666-3.01-7.417-4.802-10.988-.739-1.474-1.492-3.037-2.41-4.41-.397-.592-.835-1.271-1.435-1.687-.37-.258-1.424-.347-1.633-.742-.42-.794.49-2.251.363-3.247-.196-1.53-1.02-3.313-1.666-4.687-1.67-3.544-3.279-7.157-5.03-10.66-1.699-3.397-3.52-6.643-4.876-10.204-.694-1.825-1.636-3.413-2.517-5.145-.696-1.368-1.095-2.859-2.303-3.899.105.736.1 1.482.16 2.222-.07-.836.155-1.94-.358-2.664-.613-.865-1.828-.67-2.545-1.432.581.617 1.452.942 2.287.962-1.678-4.481-2.963-9.443-6.012-13.237-.39-.487-.915-1.289-1.462-1.577-.333-.176-1.543-.083-1.697-.254-.98-1.09.614-3.064.292-4.37-.342-1.383-1.68-2.633-2.168-4.063-.768-2.253-1.332-3.757-2.754-5.643-.894-1.187-1.199-2.578-1.723-3.983-.914-2.45-1.859-4.894-2.887-7.298-1.94-4.538-4.51-8.687-6.624-13.126-.986-2.071-1.47-4.431-2.633-6.408-.894-1.522-2.316-2.623-3.012-4.272-.85-2.017-1.257-4.162-2.175-6.179-.645-1.417-1.339-2.795-1.922-4.237-.787-1.947-2.257-6.357-5.166-4.765 1.044-3.497 2.226-6.988 3.13-10.523.238-.937.254-2.149.935-2.898.714-.785 1.14-.648 1.636-1.646 1.335-2.677.617-7.091.838-9.98.272-3.579.9-7.119.98-10.714.078-3.582.061-7.102.3-10.681.22-3.302.44-6.583.094-9.868-.325-3.093 1.99-5.005 2.606-7.97.668-3.209.268-6.648-.196-9.859-1.7-11.768-7.037-24.22-14.382-33.596-5.597-7.146-15.985-16.335-25.754-11.994-1.343.597-2.003 1.229-3.329.275-1.06-.763-1.138-1.985-2.66-2.062-1.482-.075-3.012 1.292-4.205 2.012-1.652.996-3.368 1.891-5.059 2.82-3.093 1.7-5.845 3.623-8.037-.218-.593-1.038-1.073-3.472-2.249-3.985-.958-.417-1.407.528-2.047-.356-.08.098-.162.196-.244.294.495-.6-.047-1.2.055-1.845l-.132-.68c.253-.22.474-.467.663-.742.117-.982-.765-2.28-1.193-3.098-1.396-2.669-2.31-5.545-3.709-8.207-1.667-3.173-2.923-6.371-4.352-9.644-1.48-3.395-3.605-6.498-5.177-9.864-3.246-6.955-6.215-14.047-9.539-20.964-.687-1.432-4.405-11.715-6.886-10.559.563-2.514-1.107-4.021-2.544-5.938-.858-1.145-1.375-2.284-2.047-3.52-.562-1.035-1.458-1.77-2.032-2.769-.512-.891-.429-1.788-.712-2.742-.32-1.085-1.003-1.789-1.684-2.663-1.624-2.086-2.848-4.496-5-6.119-1.337 5.33 1.734 10.636 3.731 15.376 2.437 5.787 4.598 11.694 6.908 17.533 4.558 11.527 9.715 22.804 15.092 33.968 2.816 5.845 5.8 11.614 8.381 17.568 1.037 2.39 2.092 4.695 3.376 6.965 1.413 2.498 2.106 5.262 3.305 7.85.864 1.865 2.538 3.762 1.88 5.942-.638 2.107-3.5 4.704-5.064 6.194-3.563 3.396-8.379 4.399-9.724 9.575-1.27 4.893-.643 11.848 3.576 15.306 4.392 3.601 12.28 1.57 17.213.89-3.019 4.513-6.138 8.961-9.108 13.507-2.748 4.208-5.147 8.649-4.457 13.837 1.675 12.588 17.978 1.67 23.802-1.122-1.543 5.062-2.587 12.202.852 16.814 2.5 3.353 7.706 3.043 11.272 2.108 2.727-.714 3.52-.462 5.146 2.024 1.383 2.116 2.996 3.775 4.718 5.632 4.094 4.411 6.594 9.118 9.244 14.434 1.461 2.933 2.321 4.906.792 8.092-1.367 2.849-2.977 5.683-4.61 8.388-3.113 5.159-7.232 9.629-10.784 14.478-7.199 9.831-13.449 20.247-21.697 29.307-8.143 8.943-18.597 15.632-28.488 22.494-5.154 3.575-10.094 7.375-15.88 9.903-2.937 1.284-5.978 2.31-9.036 3.265-1.454.455-2.93.856-4.377 1.333-.82.27-2.133 1.013-3.01.617-.636-.286-1.28-2.311-1.538-2.804-.656-1.25-1.295-2.498-2.074-3.676-1.63-2.468-3.504-4.761-5.128-7.238-3.598-5.486-6.908-11.178-10.866-16.42-3.734-4.946-7.965-9.533-12.347-13.908-4.21-4.202-8.8-8.093-14.402-10.281-5.63-2.2-11.513-2.57-17.485-2.123-5.62.421-10.75 2.179-16.15 3.649-1.906.518-4.455 1.348-6.249.149-.875-.585-1.27-1.584-1.9-2.384-.644-.82-1.77-1.454-2.217-2.398-.723-1.536.625-3.494.876-5.072.5-3.148.028-6.458-.667-9.536-2.925-12.966-7.019-25.518-9.017-38.71-.466-3.071-1.032-6.209-1.123-9.317-.059-1.937.89-3.831.795-5.674-.094-1.839-2.014-2.411-3.559-1.416-1.664 1.072-1.662 3.604-1.762 5.348-.775 13.52 2.294 26.43 5.58 39.414.797 3.153 1.546 6.316 2.372 9.462.716 2.728 1.523 5.493.44 8.225-.977 2.462-2.616 4.697-3.749 7.1-1.197 2.538-2.172 5.686-4.02 7.838-1.732 2.015-3.429 2.452-2.648 5.546.177.701.657 1.335.433 2.044-.316 1.007-2.504 1.961-3.335 2.496-5.498 3.538-11.372 6.46-16.977 9.815-2.438 1.46-4.849 3.497-7.48 4.557-2.533 1.019-4.663 2.041-6.94 3.614-5.184 3.579-10.648 6.768-15.97 10.138a1667.016 1667.016 0 00-16.422 10.51c-5.114 3.322-9.883 7.293-15.18 10.31-5.3 3.02-10.743 5.914-16.105 8.84-1.224.668-2.285 1.358-3.702 1.355-1.095-.001-1.945-.401-3.036.015-2.554.973-4.962 3.844-7.075 5.535-5.043 4.038-10.522 7.44-15.952 10.92a103.296 103.296 0 00-7.618 5.371c-2.108 1.634-4.044 3.59-6.363 4.933-2.433 1.409-4.545 2.521-6.667 4.439a131.16 131.16 0 01-6.81 5.758c-2.452 1.93-4.944 3.809-7.26 5.903-2.117 1.914-3.913 4.155-6.066 6.028-2.144 1.865-4.512 3.402-6.392 5.564-2.038 2.344-3.55 5.089-5.224 7.691 0-.276-1.252-1.159-1.393-1.363-.678-.974-.475-2.122-1.002-3.164-1.81 1.838-.355 6.284-.227 8.494-.272-4.7-.096-9.416-.719-14.092-.614-4.607-1.532-9.167-1.629-13.828-.099-4.714.216-9.44.361-14.151.061-2.019.21-4.031.611-6.015.166-.817.578-1.684.638-2.511.081-1.13-.295-1.242-.73-2.238-.68-1.55-.06-1.734.733-3.003.928-1.483.004-1.958-.435-3.403-.565-1.868 1.124-2.304 1.12-3.983-.002-.695-.652-1.382-.649-2.038.008-1.401.64-.626 1.1-1.481.454-.847-.786-1.532-1.09-2.44-.28-.832-.263-1.523.141-2.313.107-.21.375-.443.452-.647.165-.431.065-.498.15-.813.711-2.642 1.83-5.178 2.682-7.843.771-2.413.176-4.918.232-7.384.048-2.119 1.107-3.77 1.532-5.794.47-2.231-.934-3.134-1.824-4.958-1.038-2.127-.852-4.879.05-7.015.337 1.109.675 2.217 1.011 3.326.25-.865.715-1.808.626-2.731-.1-1.054-.67-1.157-1-1.953-.585-1.407.078-.782.63-2.052.284-.652-.059-1.526-.013-2.216.058-.886.424-1.597.597-2.448.28-1.367.015-2.385.952-3.509.843-1.013 2.123-1.686 3.132-2.515 1.88-1.543 3.66-3.245 5.478-4.863 2.54-2.262 5.987-4.103 5.837-7.844-3.84 1.41-6.628 4.656-9.663 7.243-3.382 2.882-7.258 5.104-10.694 7.918-7.32 5.996-15.274 11.296-23.43 16.09-4.058 2.384-8.177 4.655-12.28 6.956-3.718 2.083-7.23 4.633-11.259 6.103-3.659 1.334-8.262 2.966-12.095 1.457-1.52-.599-3.036-1.674-3.644-3.237-.51-1.315-.007-3.37-1.297-4.325-.496-.369-1.472.014-1.65-.782-.14-.626 1.003-1.311 1.093-1.934.222-1.544-1.648-4.203-2.239-5.632-.338-.817-.618-1.886-1.305-2.498-.254-.226-.759-.239-.932-.473-.208-.283-.024-.525-.164-.786-.42-.787-.295-1.35-1.013-2.111-.774-.821-1.845-1.374-2.74-2.048.04-.041.752.417.833.462-.084-1.291-.778-2.412-.964-3.675-.195-1.325.227-2.475-.426-3.714-.665-1.26-1.967-2.133-2.69-3.376-.738-1.269-1.035-2.775-1.63-4.116-1.132-2.548-2.988-4.139-3.482-6.925-.11-.626-.065-1.176-.45-1.723-.329-.466-.984-.378-1.257-.938-.404-.826.14-1.451-.618-2.292-1.43-1.588-3.788-1.088-2.58-3.826 1.224-2.777.441-2.86-1.262-4.97-1.734-2.148-2.197-5.367-2.975-7.937-.306-1.014-.488-2.087-1.247-2.828-1.237-1.208-1.602-.449-1.009-2.284-2.262.114-2.399-4.113-2.672-5.735-.179-1.054-.412-2.503-1.19-3.305-.538-.553-1.712-.463-1.736-.48-.502-.356-1.395-2.156-1.479-2.664-.095-.58.463-.975.366-1.669-.099-.713-.837-1.425-1.292-1.904-1.786-1.878-4.723-5.872-3.642-8.681 4.608 4.753 9.017 9.695 13.622 14.452 3.652 3.774 7.67 7.153 12.77 8.73 5.778 1.785 12.09 2.053 18.1 1.855 3.15-.103 6.268-.764 9.427-.602 3.271.167 6.356.002 9.574-.713 1.384-.308 2.754-.885 4.165-1.014 1.088-.099 2.15.094 3.237-.097 2.755-.483 5.238-2.23 7.683-3.491 5.308-2.738 10.35-5.821 14.866-9.759 8.688-7.574 14.342-17.764 19.764-27.765 6.116-11.281 11.528-22.762 18.312-33.688 3.347-5.391 6.598-10.896 10.492-15.919 3.59-4.631 7.978-8.437 12.716-11.85 4.467-3.218 9.033-6.98 14.552-8.128 2.992-.624 6.07-.838 9.084-1.35 3.23-.548 6.267-.926 9.475-.028 2.844.795 5.622 1.825 8.464 2.632 3.095.879 6.312 1.304 9.214 2.77 2.592 1.311 4.896 3.123 7.417 4.56 2.255 1.285 5.635 1.929 6.833 4.435 1.211 2.533 1.038 5.631 2.014 8.279 1.115 3.027 2.683 5.853 4.511 8.506 3.06 4.442 7.055 8.308 12.642 8.954 6.67.771 13.347-1.743 19.416-4.211 6.27-2.548 11.27-7.25 17.364-10.111 0 2.206.276 4.402.045 6.606-.255 2.43-.929 4.813-1.49 7.183-1.104 4.655-2.219 9.343-4.125 13.749-1.84 4.256-4.43 8.001-7.088 11.772-2.56 3.632-4.966 7.469-8.047 10.694-5.467 5.723-13.26 9.142-21.018 10.318-7.968 1.208-16.979.94-23.239-4.657-6.043-5.404-10.756-12.401-12.146-20.48-1.618-9.404-1.25-19.068-.645-28.548.307-4.803.748-9.602 1.541-14.352.687-4.117 2.596-8.504 1.104-12.61-.343-.948-.495-1.862-1.44-1.915-1.647-.091-3.032 2.374-3.692 3.5-2.207 3.768-2.796 8.008-3.574 12.235-1.879 10.228-2.268 20.827-1.667 31.182.298 5.118.488 10.316 1.902 15.277 1.408 4.939 3.545 9.752 5.952 14.278-.985-.195-1.533.368-1.242 1.338l1.273-1.279c4.867 6.255 10.61 13.769 18.446 16.357 4.604 1.519 9.036 2.766 13.935 2.626 4.826-.138 9.304-1.461 13.75-3.263 4.02-1.631 8.173-3.044 11.521-5.9 3.418-2.914 6.212-6.788 8.928-10.34 5.88-7.692 10.832-16.077 13.728-25.361 1.424-4.567 2.031-9.226 2.79-13.93.376-2.331.74-4.672.76-7.038.016-1.922-.475-3.798-.46-5.712.024-3.632 3.544-4.918 6.708-5.379 4.073-.594 6.14 3.013 8.245 5.883 2.808 3.827 5.505 7.702 8.032 11.721 1.117 1.778 1.752 4.106 2.94 5.762.824 1.15 2.247 1.722 3.207 2.908 2.923 3.609 5.994 7.503 8.35 11.5 2.261 3.836 5.56 7.273 8.458 10.66 3.202 3.74 6.714 7.2 9.922 10.933 2.523 2.938 5.882 4.645 8.435 7.506 2.585 2.897 6.814 4.683 9.956 7.008a93.257 93.257 0 015.304 4.221c1.696 1.455 3.092 3.344 4.87 4.677 6.545 4.905 13.09 9.364 21.631 9.668 1.852.066 3.436-.562 5.2-.663 1.91-.109 3.714.827 5.74.655 4.51-.384 9.24-1.4 13.57-2.696 8.737-2.615 17.963-5.791 25.404-11.199 3.75-2.725 6.761-6.144 9.88-9.537 1.65-1.796 5.522-6.028 2.727-8.61-2.364-2.183-6.673 3.917-8.16 5.319-3.27 3.087-7.232 5.209-11.375 6.893-4.184 1.7-8.529 2.957-12.785 4.458-4.462 1.573-8.798 3.358-13.532 3.931-2.426.293-4.866.447-7.296.7-2.485.258-4.992.949-7.488.582-4.539-.667-9.399-1.21-13.452-3.49-7.884-4.436-13.879-12.007-21.083-17.424-3.623-2.724-7.532-5.018-10.943-8.027-3.522-3.105-6.51-6.772-9.553-10.332a1012.792 1012.792 0 01-19.753-23.823c-2.87-3.573-6.093-7.046-8.68-10.829-1.038-1.518-1.822-3.232-1.53-5.112.345-2.241 1.802-4.113 2.077-6.397.523-4.346-1.736-8.597-3.51-12.422-.688-1.484-1.67-3.168-.489-4.647 1.18-1.475 3.105-2.625 4.414-4.056 3.147-3.44 6.222-6.949 9.114-10.607 1.29-1.631 2.661-3.238 3.705-5.044 1.277-2.209 1.802-4.721 2.534-7.143 2.84-9.399 3.851-19.083 2.75-28.856-1.007-8.949-1.675-19.049-5.677-27.238-3.829-7.835-10-14.045-16.588-19.602-3.798-3.203-7.65-6.344-11.487-9.497-3.729-3.064-7.774-4.973-11.85-7.451-8.09-4.918-16.955-5.703-26.237-4.933-4.82.399-9.663.232-14.329 1.717-4.429 1.409-8.524 3.809-12.416 6.304-7.803 5.004-15.48 10.218-23.367 15.095-15.957 9.868-36.006 18.053-54.917 13.283-9.36-2.362-18.643-6.108-27.156-10.649-8.54-4.556-16.49-9.779-25.559-13.311-4.66-1.814-9.4-3.419-14.032-5.311-1.999-.816-4.035-2.003-6.199-2.305-.789-.11-1.852.188-2.58-.179-.65-.327-.424-.719-.935-1.051-1.067-.696-2.936-.575-4.25-1.065-1.22-.455-3.434-2.085-4.757-1.917-.712.09-.978.794-1.758.767-.717-.025-1.383-.846-1.983-1.162-1.99-1.051-4.466-1.306-6.662-1.621-4.256-.61-8.033-1.174-12.143.324-3.856 1.405-7.857 2.605-11.779 3.883-2.054.669-3.279 1.287-5.007 2.492-1.03.717-2.304.854-3.497 1.348-3.464 1.436-7.193 4.598-8.75 7.977-.795 1.726-1.909 1.305-2.925 2.558-1.054 1.298-.637 3.168-1.929 4.507-1.07 1.11-1.446 2.246-2.554 3.375-1.446 1.474-2.237 3.488-3.072 5.342-4.029 8.942-6.822 18.631-8.075 28.363-.62 4.819-.672 9.609-.286 14.448.362 4.549.177 9.446 1.7 13.804.15-.338.295-.678.433-1.021.31.415 1.02.876 1.028 1.452.01.844-.547 1.307-1.162.522 1.092 3.859 2.627 7.436 4.603 10.942.847 1.503 1.46 1.873 2.84 2.412 1.393.543 1.033.778 1.924 2.053.74 1.06 1.186 1.213 2.44.744.547-.204.571-.715 1.201-.59.456.09 1.101 1.152 1.406 1.454.577.571 1.103 1.141 1.93 1.343.976.239 1.513-.501 2.224-.416 1.484.178 2.195 1.616 3.781 1.833 1.6.219 2.352.277 3.87.882 2.148.855 4.484 1.149 6.784 1.112 1.856-.03 3.943-.146 5.73-.687.966-.292 1.71-.75 2.731-.879.87-.11 1.735.093 2.61-.105 1.815-.412 3.404-1.165 5.291-1.486 1.734-.296 3.373-.844 5.05-1.363 1-.31 2.427-1.043 3.036.178.725 1.457-1.207 3.969-1.73 5.196l1.024-.06c-1.429.536-1.347.518-2.032 1.963-.694 1.464-1.646 2.8-2.195 4.333-1.26 3.518-1.673 7.44-2.449 11.09-1.68 7.896-3.424 15.521-2.973 23.649.392 7.06 1.024 14.618 6.067 20.038 1.043 1.121 2.218 2.185 2.953 3.551.735 1.368.995 2.798 1.978 4.055 1.897 2.424 5.004 4.422 8.01 5.118 3.387.785 7.101 1.575 10.576 1.102 3.377-.459 6.842-.94 10.188-1.593 7.294-1.423 12.915-7.035 17.625-12.432 2.452-2.81 5.034-5.566 7.348-8.491.646-.815 1.36-2.4 2.4-2.785 1.292-.479 2.285.581 3.461 1.044 1.82.714 3.987 1.034 5.898 1.431 1.413.294 2.598.049 2.522 1.684-.069 1.492-1.955 3.922-2.635 5.272-.92 1.827-1.827 3.66-2.734 5.493-3.566 7.21-7.289 14.295-11.365 21.231-3.847 6.549-8.097 12.72-14.079 17.502-5.698 4.557-12.46 8.432-19.175 11.294-3.727 1.589-7.656 2.072-11.655 2.502-1.753.188-3.513.32-5.265.516-.75.084-1.54.271-2.293.27-.766-.002-1.567-.453-2.26-.432-1.107.034-1.868.791-3.109.779-1.755-.017-3.542-.226-5.3-.295-3.978-.155-8.036-.248-11.958-.97-7.633-1.403-12.569-5.932-18.054-11.05-2.332-2.176-4.876-4.381-6.968-6.792-.608-.702-1.01-1.042-.716-1.914.131-.388.787-.764 1.047-1.089.74-.926 1.558-2.242 1.923-3.375.615-1.905-.92-6.126-3.57-5.306-1.8.556-2.026 3.398-3.773 4.081-1.555.607-1.917-.603-2.229-1.824-.406-1.583-.505-2.757-1.723-4.013-1.125-1.159-2.546-1.622-2.572-3.473-.009-.685.335-1.323.272-2.019-.064-.723-.883-1.596-.792-2.274.191-1.424 3.106-2.196 4.162-2.894 1.552-1.027 2.916-2.282 4.15-3.67 2.878-3.239 5.167-7.096 7.143-10.935 3.334-6.477 6.084-13.905 5.343-21.307-.279-2.785-1.058-5.716-2.93-7.873-2.917-3.36-6.775-2.745-10.782-2.745 3.188-6.046 7.72-14.902 3.24-21.443-3.636-5.308-10.775-2.371-15.729-1.13.982-4.908 2.36-9.914 1.447-14.946-.587-3.242-2.09-7.274-5.377-8.649-3.71-1.552-8.326.728-11.405 2.75-3.686 2.419-6.867 5.91-9.486 9.432-1.267 1.703-4.078 6.993-6.172 3.271-.676-1.202-.823-2.749-1.306-4.04-.887-2.368-2.05-4.113-3.517-6.09-.963-1.298-.658-2.695-1.454-4.117-.478-.856-1.232-1.532-1.696-2.405-.587-1.104-.78-2.332-1.147-3.513-.645-2.072-1.91-3.661-2.965-5.516-1.228-2.157-1.132-4.574-1.996-6.851-2.049-5.397-4.967-10.555-7.353-15.812-2.006-4.42-4.075-8.821-8.243-11.609-1.07 3.15-.868 5.055.166 8.21 1.024 3.127 2.064 6.251 3.232 9.328 2.23 5.867 4.942 11.523 7.517 17.241 2.596 5.764 4.757 11.701 7.31 17.483 1.241 2.81 2.522 5.603 3.76 8.415.881 2.003 3.313 5.431 2.042 7.556-.518.867-1.513 1.532-2.17 2.312-.93 1.108-1.68 2.335-2.497 3.526-1.626 2.373-3.384 4.649-5.06 6.986-3.543 4.938-6.747 10.186-9.993 15.323-6.523 10.32-9.84 23.112-8.268 35.228.828 6.382.691 12.823 1.596 19.205.896 6.323 2.28 12.609 4.068 18.739 1.626 5.571 5.026 10.882 4.675 16.795-.28 4.741-.4 9.503.498 14.197.368 1.923.915 3.833 1.821 5.575.461.887 1.002 1.732 1.66 2.489.705.813 1.973 1.356 2.566 2.16.38.514.325 1.412.491 2.001.272.961.717 1.812 1.21 2.676 1.49 2.619 3.162 5.433 5.172 7.683 3.701 4.142 7.412 8.456 11.467 12.262 4.156 3.901 8.27 8.131 12.723 11.68 1.22.97 2.5 1.874 3.858 2.639.554.313 1.254.802 1.89.932.437.091 1.038-.096 1.425.033 1.031.34.076.068 1.041.965.832.773 1.63.918 2.662 1.432 5.727 2.854 10.835 6.473 16.921 8.559 6.66 2.282 13.44 4.834 20.421 5.908 3.07.473 10.446-1.197 11.057 3.229 2.137-2.122 4.552-.375 6.912.221 0-.602-.439-2.201 0-2.675.566-.611 3.06.022 3.62.429 1.173.853 1.571 2.793 2.11 4.054.918 2.154 1.948 4.266 2.912 6.4 3.795 8.407 7.578 16.82 11.416 25.208 7.672 16.774 14.961 33.721 22.338 50.626 1.714 3.926 3.256 7.916 4.907 11.867 1.5 3.593 3.59 6.889 5.254 10.402 1.86 3.927 3.185 8.084 4.996 12.037a3023.81 3023.81 0 015.54 12.165c7.51 16.596 14.695 33.336 21.92 50.057 8.204 18.987 16.597 37.891 25.01 56.786-8.999 1.961-17.988 4.345-27.119 5.625-4.273.599-8.633.501-12.885 1.268-2.226.4-4.154.926-6.43.858a97.22 97.22 0 00-6.59.038c-8.832.332-17.956.216-26.707-1.101-3.537-.532-7.426-1.586-10.767.241-2.922 1.597-3.81 4.582-4.339 7.668-5.828-1.377-10.798-4.969-16.503-6.694-5.434-1.644-11.603-2.133-17.035-.223-5.46 1.92-11.39 4.68-16.05 8.131-4.81 3.561-8.184 8.603-11.14 13.723-3.282 5.682-6.203 11.563-9.435 17.273-3.334 5.891-6.655 11.726-9.484 17.885a199.247 199.247 0 00-13.125 38.661c-1.142 5.012-1.767 10.43 1.576 14.784 3.452 4.499 9.067 4.545 14.058 2.909 2.76-.904 5.248-2.34 7.775-3.739 2.427-1.343 4.878-2.422 7.012-4.225 4.598-3.885 9.685-7.269 14.352-11.117 8.81-7.261 18.608-12.797 25.83-21.837 3.647-4.562 8.3-8.934 10.885-14.237.818-1.677 1.338-5.109-1.459-5.172-1.789-.041-3.44 2.178-4.529 3.344-5.005 5.359-10.508 10.341-16.368 14.754-2.77 2.087-5.753 3.858-8.665 5.733-2.92 1.88-5.487 4.09-8.272 6.134-2.747 2.015-5.687 3.614-8.342 5.775a87.423 87.423 0 01-8.33 6.035c-5.849 3.72-11.795 7.547-18.475 9.597 0-4.553 2.537-8.334 3.988-12.462 1.524-4.332 2.776-8.524 4.654-12.754 2.014-4.539 4.032-9.076 6.172-13.556 2.018-4.219 4.572-8.15 6.581-12.372 1.826-3.837 4.535-7.008 6.133-10.873.824-1.995 2.223-3.721 3.275-5.596 1.165-2.076 2.234-4.203 3.424-6.266 4.635-8.03 11.043-13.374 19.293-17.549 4.463-2.258 9.403-3.594 14.41-3.735 5.75-.161 11.36 1.491 17.1 1.491-.18 3.617.284 7.839-.855 11.32-.405 1.233-1.137 1.865-.927 3.118.084.499.75 1.017.866 1.658.165.903-.11 2.004-.156 2.922-.397 7.961-.228 15.906.19 23.859.135 2.586.138 6.13 2.774 7.606 1.124.629 1.311.301 2.391-.083 1.552-.552 2.545-.187 4.037.498.972.446 1.937.874 2.917 1.293.482.205 1.458.378 1.711.95.128.291-.129.963-.009 1.144.603.913.282.496 1.627.366 1.776-.17 2.794.512 4.332 1.416 13.285 7.811 29.01 8.594 43.988 10.327 7.892.913 15.634 2.298 23.604 2.434 7.91.134 15.875.214 23.754-.547 3.483-.337 6.954-.906 10.418-1.387 1.151-.16 5.755-1.997 4.388.989-.59 1.286-2.355 2.08-3.35 3.002-1.12 1.037-1.907 2.405-3.164 3.299-1.647 1.171-3.263 2.04-4.81 3.405-5.389 4.757-10.312 9.855-15.967 14.335-2.315 1.834-5.026 3.69-6.527 6.31-1.485 2.589-1.51 5.958-1.2 8.845.348 3.23 1.708 6.01 2.973 8.952 1.572 3.656 2.687 7.522 4.011 11.274 1.253 3.551 2.564 7.084 4.033 10.552.945 2.232 1.786 5.319 3.57 7.068.802.786 1.914 1.47 3.07.965 1.13-.494 1.193-1.823 1.997-2.557 1.155-1.054 1.863-.29 3.306-.008 2.001.39 2.678-.548 4.411-1.15 1.223-.425 2.468.1 3.718-.466 1.132-.512 1.872-1.63 2.946-2.233 2.87-1.608 7.364-1.473 10.583-2.035 15.894-2.777 31.364-7.534 47.031-11.34 7.83-1.902 15.73-3.556 23.52-5.62a269.376 269.376 0 0010.863-3.14c1.92-.595 3.91-1.119 5.77-1.886 1.742-.718 3.217-1.674 5.112-1.937 3.592-.501 6.722-1.929 10.253-2.752 3.812-.889 7.356-2.564 11.093-3.69 3.793-1.141 7.7-1.879 11.504-2.981 3.885-1.126 7.658-2.603 11.545-3.719 7.525-2.159 15.345-3.297 22.662-6.19 1.51-.597 2.956-1.394 4.558-1.725 1.95-.402 3.89-.358 5.833-.902 3.913-1.093 7.666-2.599 11.614-3.604 7.467-1.9 14.99-3.655 22.435-5.618 7.06-1.862 14.311-2.715 21.465-4.249 7.78-1.667 15.57-3.354 23.315-5.175 3.547-.834 7.015-1.781 10.627-2.302 3.767-.544 7.151-2.169 10.914-2.696 14.97-2.095 29.826-4.469 44.542-7.938a1410.295 1410.295 0 0123.151-5.249c3.512-.765 7.385-1.162 10.721-2.503 3.51-1.411 6.988-1.735 10.583-2.807 7.532-2.248 15.354-3.215 22.986-5.082 7.48-1.83 15.177-3.087 22.568-5.211 1.375-.396 3.653-1.773 5.093-1.331 1.114.341 1.342 1.593 2.214 2.187 2.375 1.616 4.896-1.524 6.435-3.037 2.194-2.156 4.4-2.962 6.914-4.482 3.09-1.868 6.058-5.138 8.468-7.825 10.005-11.164 23.683-17.748 34.498-28.058 5.57-5.31 10.563-10.973 15.468-16.888 2.278-2.746 4.773-5.303 7.297-7.821 1.38-1.377 2.777-2.738 4.157-4.114.855-.851 2.316-3.133 3.546-3.411 1.144-.257 2.392.787 3.651.523 1.147-.242 1.978-1.053 2.611-1.994 1.55-2.3 2.134-5.863.5-8.27z"/><path d="M783.03 399.648c-.105-.013.027.005.073.012-.05-.057-.145-.023-.074-.012M607.57 556.325c-.067-.005-.038.046-.017.02-.034.055.007-.005.017-.02M548.577 235.026c.845-.108 1.688-.216 2.533-.32-1.254-1.01-1.496-.548-2.533.32M287.73 415.532l-1.052.206c.555.819.522.419 1.052-.206M451.1 360.706c-.957.833-1.79 1.751-2.467 2.826l3.616-.698c-5.542 9.9-9.137 20.72-12.517 31.505-5.2-4.887-10.179-9.986-15.105-15.147-1.604-1.68-4.44-3.552-5.426-5.69-.448-.97-.287-1.576-1.082-2.346-.96-.93-2.938-1.312-4.137-1.825 11.983-4.368 24.692-6.015 37.118-8.625M407.454 371.1c1.398-.425 3.226-1.667 4.73-1.465 1.735.234 1.914 2.164 2.862 3.43 3.137 4.187 7.36 7.858 11.036 11.568 3.707 3.74 7.284 7.667 11.21 11.18 1 .895 2.767 3.146 4.143 2.15 1.488-1.077 2.234-5.235 2.87-6.949 1.847-4.979 3.356-10.1 5.478-14.973 2.154-4.946 4.588-9.836 7.008-14.656.647-1.287 1.931-3.105.9-4.514-1.217-1.663-3.824-.472-5.367-.033-5.235 1.49-10.673 2.386-16.02 3.37-5.865 1.077-11.564 2.753-17.245 4.545-2.718.857-5.432 1.72-8.128 2.643-2.248.77-4.88 1.457-6.339 3.498 1.03.375 1.79.532 2.862.206M480.26 349.53c7.431-2.427 15.068-4.436 22.86-5.26 3.93-.414 7.892-.38 11.837-.354 2.811.017 6.863-.217 4.515-3.962-1.71-2.731-5.332-4.58-7.728-6.69-2.516-2.215-4.17-5.022-5.797-7.911-1.877-3.34-3.87-6.61-5.689-9.982-1.354-2.511-2.442-6.128-5.178-7.452 2.067 7.013 6.214 13.182 9.885 19.425 1.659 2.822 3.36 5.927 5.855 8.116 1.978 1.737 5.286 2.848 6.183 5.554-7.284 0-14.671.136-21.892 1.188-6.104.89-12.456 4.677-18.66 4.166 3.704-8.417 7.985-16.513 12.023-24.766 1.462-2.986 3.047-6.223 3.787-9.501.709-3.132-1.022-1.774-2.014.169a1732.943 1732.943 0 01-11.034 21.266 97.695 97.695 0 00-2.894 5.916c-.844 1.899-2.136 4.038-2.206 6.175-.113 3.467 3.144 4.885 6.147 3.904M366.282 432.256c7.105-1.908 13.956-4.712 21.179-6.19 6.586-1.349 14.129-.651 20.331-3.418-2.093-3.921-6.364-4.808-9.53-7.775-3.436-3.221-6.331-7.229-9.263-10.901-3.051-3.82-5.518-7.969-8.383-11.912-1.566-2.155-4.616-6.697-7.675-6.544-1.602.08-2.671 1.816-1.467 3.163.88.984 2.829.791 3.971 1.399 3.464 1.846 5.296 6.619 7.507 9.688 2.886 4.005 6.076 7.817 9.245 11.601 3.483 4.16 7.285 7.213 11.744 10.261-13.571.174-26.733 3.982-39.522 8.205 2.226-6.612 3.281-13.545 4.258-20.43.484-3.42.941-6.843 1.255-10.283.278-3.03.916-6.472.166-9.473-1.965 3.415-1.987 7.676-2.41 11.487-.512 4.618-1 9.263-1.837 13.835-.795 4.344-2.215 8.547-3.037 12.869-.511 2.688.123 5.316 3.468 4.418M602.357 455.495c1.147 5.996.948 12.14 2.185 18.133a286.058 286.058 0 001.964 8.734c.503 2.105 1.552 5.157.725 7.306-1.427 3.712-8.139-3.812-9.603-4.953-4.98-3.88-9.884-7.862-14.8-11.825l19.53-17.395m-22.145 18.916c6.562 5.782 14.155 10.368 20.478 16.386 1.954 1.86 5.654 6.436 8.161 3.148 2.332-3.057.712-8.616-.035-11.935a115.647 115.647 0 01-2.19-13.274c-.24-2.28-.388-4.569-.563-6.855-.17-2.234-.744-4.525-.715-6.76.01-.678.032-1.484.415-2.077.356-.552 1.166-.693 1.462-1.185.933-1.548-.666-1.718-1.887-1.7-1.664.021-2.086.261-3.086 1.546-1.162 1.492-2.53 2.527-4.024 3.673-3.985 3.056-7.98 6.11-11.798 9.374-2.01 1.721-9.653 6.631-6.218 9.66M572.594 381.113c.103 8.308 1.601 16.609 4.644 24.352-8.766-1.801-16.634-6.28-24.226-10.828l19.582-13.524m-20.356 17.133c3.971 2.279 7.893 4.919 12.082 6.78 3.63 1.61 7.582 2.179 11.294 3.53 2.067.753 6.493 2.933 5.338-1.271-.424-1.545-1.393-2.951-2.028-4.415a38.185 38.185 0 01-2.174-6.712c-1.037-4.566-1.36-9.327-1.5-13.998-.104-3.566 2.63-5.772 6.059-6.657 1.126-.29 3.658-1.26 1.263-2.493-1.296-.667-3.281.459-4.442 1.02-3.894 1.883-7.344 4.527-10.94 6.897-4.517 2.977-9.123 5.814-13.642 8.789-1.418.933-3.33 1.944-3.807 3.712-.543 2.014.818 3.855 2.497 4.818M397.98 460.825c-6.373-2.168-13.02-3.338-19.637-4.483 4.602-6.032 9.84-11.561 15.471-16.638 4.473 7.899 8.892 15.932 11.571 24.648-2.459-1.194-4.807-2.643-7.405-3.527m7.935-.726c-1.588-3.814-3.04-7.688-4.854-11.404-.772-1.584-1.6-3.143-2.537-4.636-.559-.89-1.58-1.972-1.718-3.047-.15-1.188.442-1.312.095-2.498-.389-1.333-1.095-2.367-2.608-2.111-2.797.472-6.154 4.213-8.115 6.059a115.989 115.989 0 00-8.516 8.9c-2.608 3.04-2.936 6.254 1.003 8.318 3.214 1.685 7.318 1.683 10.845 2.175 4.007.558 8.04 1.33 11.627 3.297 1.521.834 5.074 4.367 6.142 1.36.666-1.876-.649-4.694-1.364-6.413M446.258 409.107c-4.014 8.366-7.767 16.85-11.163 25.486-1.539 3.914-3.148 7.839-4.407 11.854-.358 1.139-1.593 7.419 1.253 5.022.923-.778 2.077-2.587 2.526-3.64.719-1.684.084-3.312.7-5.045 1.454-4.101 3.166-8.147 4.713-12.22 1.563-4.115 3.138-8.225 4.727-12.33 1.326-3.426 4.306-7.36 3.316-11.212-.554.68-1.276 1.278-1.665 2.085M602.306 655.75c-.084-.046-.168-.095-.254-.13.086.035.17.084.254.13m123.242-52.568c-21.267 1.055-42.25 6.569-62.87 11.529-20.846 5.016-41.529 10.864-61.859 17.687-10.084 3.385-20.107 6.95-30.17 10.397-8.522 2.919-17.96 5.77-25.429 10.96-2.127 1.478-5.562 4.825-2.372 7.07 1.998 1.405 5.898 1.826 8.307 1.935 2.28.103 4.593-.513 6.905-.486 2.828.035 5.646.169 8.473-.03 5.256-.37 10.527-1.401 15.677-2.49 5.6-1.182 11.028-2.736 16.74-3.295 2.116-.208 3.726-.848 5.731-1.493 2.21-.712 4.727-.562 6.895-1.388.896-.342 1.494-1.093 2.398-1.395 1.103-.37 2.348-.004 3.48-.071 2.708-.161 5.522-1.053 8.176-1.602 2.856-.591 5.71-1.19 8.563-1.8 2.238-.477 4.462-.76 6.238-2.32-2.158-1.746-3.463-1.336-6.072-.621-2.924.8-5.919 1.394-8.873 2.076-5.992 1.383-11.952 2.915-17.972 4.174-12.255 2.563-24.477 4.475-36.937 5.605-3.063.277-6.145.485-9.189.93-2.942.43-5.193.81-8.15.205-2.39-.49-4.54-.598-1.9-2.786.82-.68 1.764-1.08 2.631-1.657 1.08-.72 1.118-1.35 1.79-2.351 1.201-1.79 3.543-1.31 5.496-1.397 2.238-.101 4.104-1.501 6.321-2.15 2.433-.711 4.457-.881 6.651-2.211.955-.58.902-.436 1.916-.432 1.265.004 2.226-.317 3.406-.884 2.28-1.096 3.95-2.14 6.483-2.05 1.431.052 1.942-.404 3.257-1.083 1.41-.726 2.754-1.013 4.313-1.208 3.27-.407 6.308-1.057 9.36-2.357 1.35-.575 2.533-1.427 3.858-2.024.191-.086 2.43-.423 2.466-.46.221-.217-.174-1.307.722-1.393.804-.076 1.12.817 2.004.667.377-.064.311-.58.607-.714.588-.264.906-.371 1.562-.38 2.655-.035 4.043-.527 6.486-1.69 1.088-.516 2.08-.805 3.241-1.118 1.23-.332 1.602-.89 2.627-1.442 1.75-.942 2.05 1.05 3.894.649.901-.197 1.601-.935 2.388-1.364 1.062-.578 1.905-.605 3.091-.746 2.273-.271 4.264-1.34 6.5-1.724.933-.162 1.726-.558 2.64-.766 1.211-.276 2.461-.014 3.657-.433 1.982-.692 2.85-2.072 4.994-2.066 2.594.009 4.838-.891 7.284-1.787 2.636-.966 5.217-2.202 8.022-2.578 2.611-.351 5.221-.3 7.8-.911 2.588-.615 5.06-1.626 7.578-2.462 2.735-.908 5.443-1.273 8.263-1.78 2.4-.43 5.002-.535 7.35-1.103 1.04-.252 1.9-.877 2.923-1.137 1.194-.303 2.26-.208 3.437-.735 1.043-.467 1.943-1.301 3.117-1.446 1.428-.176 2.715.14 4.184-.18 1.34-.291 2.355-.224 3.656-.297 1.052-.06 1.69-.675 2.881-1.077 2.526-.855 5.388-.44 8.003-.92 2.585-.475 5.423-1.018 7.635-2.526-2.852-2-7.049-1.23-10.284-1.068"/><path d="M676.038 630.013c-8.268-.556-16.43.871-24.613 1.785-6.696.747-13.897.852-19.968 4.13 7.582-.509 15.203-.738 22.737-1.788 6.842-.952 13.924-3.088 20.809-1.252-3.12 2.44-7.06 3.265-10.738 4.481-4.598 1.52-9.157 3.162-13.744 4.712 1.708 2.204 5.938-.275 8.006-.879 3.296-.962 6.533-2.046 9.722-3.323 2.755-1.103 5.745-1.91 8.347-3.35 2.957-1.639 3.184-4.265-.558-4.516M526.293 543.3c-1.057-2.326-4.162-3.802-5.761-5.839-2.3-2.932-4.593-5.835-7-8.683-2.244-2.655-4.293-5.416-5.98-8.464-1.827-3.3-3.017-6.926-4.983-10.15-.597 1.175-1.317 2.612-1.1 3.978.21 1.322 1.26 2.013 1.986 3.042 1.828 2.588 2.757 5.811 4.582 8.481 3.922 5.74 8.676 10.851 13.058 16.232-10.606 1.404-21.211 2.81-31.817 4.213 2.422-6.945 5.309-13.752 7.622-20.723 1.107-3.33 1.972-6.72 2.863-10.113.7-2.67 1.803-5.914-.244-8.293-1.23 4.242-2.07 8.571-3.58 12.733-1.486 4.104-3.265 8.107-4.898 12.155-1.595 3.952-8.394 17.091-.032 17.848 3.512.318 7.433-.69 10.882-1.226 4.353-.677 8.702-1.422 13.073-1.976 1.654-.21 12.954.361 11.329-3.216M457.166 568.934c-2.805-3.21-5.713-6.326-8.583-9.478-1.926 1.999-1.275 2.716.598 4.592 1.727 1.732 3.592 3.35 5.254 5.147 1.664 1.8 1.404 2.672-.371 4.193-1.958 1.679-4.081 3.179-6.078 4.814-4.105 3.36-8.194 6.743-12.372 10.016-3.391 2.657-7.403 6.84-11.627 8.063l-3.225-16.881c-2.034.484-2.424.978-2.077 3.117.433 2.673 1.265 5.285 1.784 7.945.44 2.263 1.384 4.776 1.009 7.1-.16.992-.852 1.929-.874 2.934-.024 1.174.747 1.852 1.248 2.852 8.182-5.338 15.902-11.356 23.465-17.531 3.586-2.928 7.072-6 10.74-8.824 1.13-.871 2.659-1.658 2.992-3.175.357-1.624-.863-3.717-1.883-4.884M481.975 480.901c-9.986 1.891-20.084 3.086-30.157 4.397 2.127 3.672 5.746 2.674 9.232 2.187a254.33 254.33 0 0115.475-1.697c.372 9.092 1.23 18.214 1.181 27.317-.012 2.262-.129 5.291-2.79 5.937-3.73.906-8.808-1.545-12.332-2.565.745 1.218-.362 2.415.88 3.464.786.664 2.185.753 3.143 1.062 2.977.959 6 2.347 9.212 1.653 4.741-1.025 4.062-6.516 3.966-10.24-.187-7.159-.95-14.441-.58-21.598.146-2.831 1.301-3.944 3.423-5.6.8-.623 1.742-1.212 1.785-2.344.05-1.336-1.182-2.211-2.438-1.973M143.893 236.599c-.23.114-.148.123-.196.39.152-.003.217-.133.196-.39M337.638 602.016c-1.859-1.118-2.62.986-3.377 2.281-1.495 2.554-3.023 5.093-4.525 7.644-1.02-2.218-1.26-4.644-1.537-7.038-.138-1.189.043-5.207-2.016-4.066-1.759.975-.419 3.983-.18 5.442.38 2.327.635 4.737 1.394 6.983 1.652 4.885 4.595 1.837 6.433-1.088 1.418-2.256 2.97-4.43 4.35-6.712.962-1.59 1.208-2.394-.542-3.446M363.035 641.748c-3.212 3.681-6.365 7.413-9.543 11.123 4.563-.214 5.978-2.675 8.787-5.747.929-1.015 2.275-2.704 3.736-2.936 1.118-.178.785-.319 1.587.96.547.871 1.16 1.712 1.758 2.548.562.785 2.528 3.326 3.495 1.178.45-1.003-1.81-3.262-2.376-4.066-1.74-2.47-4.412-6.533-7.444-3.06M463.036 164.628c1.338 5.397 6.364 1.379 8.256-1.077 2.73-3.546 4.354-8.046 5.21-12.405.353-1.802.628-4.066-.181-5.796-.938-2.01-2.705-1.564-3.908-.076-1.481 1.832-2.046 4.616-2.934 6.761-.996 2.405-2.112 4.784-3.537 6.968-1.156-1.232-2.927-2.575-3.633-.274-.544 1.78.299 4.176.727 5.9M454.65 153.401c2.44-.22 6.215-1.845 7.095-4.358 1.703-4.865-5.61-2.58-7.813-2.294.11-1.755 1.445-7.28-.984-8.154-1.824-.655-2.774 3.102-3.027 4.328-.71 3.45-.406 10.94 4.728 10.479M444.84 163.637c-.048 1.692 2.935 9.873 5.657 6.629 1.249-1.488-.203-2.595-1.065-3.72-1.375-1.795-2-4.038-3.286-5.902-.406.837-1.305 2.04-1.305 2.993M557.369 241.11c-.913 1.036-1.753 1.89-1.07 3.267.312.63 1.544 2.095 2.415 1.85.813-.227.74-1.394.563-2.02-.366-1.29-1.658-1.596-.98-3.14-.31.013-.618.029-.928.043M405.301 233.601c.036.182.113.344.233.487 1.077-.956-.16-.94-.233-.487M211.014 319.31l-.304-.494c-.337.308-.34.62-.01.937l.314-.443"/></g></g></svg>