<?xml version="1.0" encoding="UTF-8"?>
<svg width="1024px" height="768px" viewBox="0 0 1024 768" version="1.1" xmlns="http://www.w3.org/2000/svg" xmlns:xlink="http://www.w3.org/1999/xlink">
    <!-- Generator: Sketch 58 (84663) - https://sketch.com -->
    <title>Illustrations/levitate</title>
    <desc>Created with Sketch.</desc>
    <g id="Illustrations/levitate" stroke="none" stroke-width="1" fill="none" fill-rule="evenodd">
        <path d="M853.942712,405.137221 C859.557886,401.418739 871.254817,418.374544 866.172458,424.307601 C862.026208,430.411691 849.560963,409.289181 853.942712,405.137221 Z M834.050424,398.396182 C837.363597,400.133046 839.512524,401.632529 836.863162,405.617881 C819.936687,409.113725 826.613078,387.495811 834.050424,398.396182 Z M817.533128,363.251959 C824.537745,362.23756 833.589729,369.566891 827.600701,375.141665 C824.567182,374.72293 821.819205,373.687889 818.157199,375.051725 C806.551525,377.499259 803.841817,363.14875 817.533128,363.251959 Z M810.775784,393.402329 C815.347404,399.985605 814.9029,410.008697 814.196404,418.918604 C805.619833,417.00481 807.207978,398.835559 810.775784,393.402329 Z M780.606918,369.257263 C774.601699,368.694035 769.431028,360.323766 775.27287,355.204587 C781.628394,351.934328 793.499004,359.002687 793.490183,366.33939 C793.075107,373.643656 786.853523,370.936625 780.606918,369.257263 Z M757.82241,310.44716 C762.160003,311.881768 770.133109,328.713722 765.551186,332.407139 C759.432633,335.524058 752.164552,314.133204 757.82241,310.44716 Z M727.325317,328.818406 C731.671741,316.287329 746.006258,338.443405 742.579751,345.46016 C736.923364,350.347855 726.789557,335.041923 727.325317,328.818406 Z M731.729144,286.598452 C738.577743,295.704456 727.123671,301.3559 719.78494,304.264926 C702.820196,308.349063 725.369205,280.829055 731.729144,286.598452 Z M696.969523,281.60165 C692.81297,272.759566 703.600286,256.679565 703.386865,272.303971 C701.180536,275.808662 702.39777,295.996391 696.969523,281.60165 Z M680.961493,260.853642 C680.617076,252.738447 688.359099,248.946244 687.471563,261.129358 C686.012942,267.68462 681.924094,270.347419 680.961493,260.853642 Z M682.499595,226.0736 C683.494577,229.318794 683.59172,232.407699 679.873783,233.568066 C649.438508,247.644333 676.347189,213.256486 682.499595,226.0736 Z M668.622828,198.807192 C674.436705,202.11726 678.28711,215.942876 667.763258,209.412679 C660.477514,207.453178 654.407533,206.425509 646.238669,204.731403 C630.419038,192.978818 661.497518,190.827643 668.622828,198.807192 Z M633.732211,342.135347 C626.827681,328.890652 642.843071,331.745125 650.192105,334.615817 C661.615268,343.44463 639.749205,345.893638 633.732211,342.135347 Z M634.026585,223.533179 C629.653667,222.711928 625.427935,219.754246 619.750943,220.383822 C610.696014,200.19167 641.399169,209.831414 634.026585,223.533179 Z M623.365849,235.820977 C631.542072,230.106133 626.857118,256.402375 623.582213,260.103164 C611.767534,273.287408 620.609041,240.202946 623.365849,235.820977 Z M694.869168,394.558273 C692.359634,408.447289 683.529902,419.702994 687.046193,397.169467 C687.528966,388.896508 697.64511,380.492327 694.869168,394.558273 Z M590.323897,199.924801 C593.564949,188.419918 598.829819,179.471677 603.205681,167.83852 C608.13938,172.469666 609.611248,180.688071 605.728462,187.340645 C603.288105,191.306828 591.451348,216.054931 590.323897,199.924801 Z M591.878189,237.607971 C590.56234,243.060368 595.840456,248.938872 593.625296,253.140963 C578.615192,254.814427 585.318076,211.024218 591.878189,237.607971 Z M558.875978,150.077683 C565.487606,150.083581 584.801451,147.83067 579.959007,158.259228 C572.63941,159.366515 545.604149,163.006853 558.875978,150.077683 Z M562.177376,174.567763 C566.635663,176.617204 573.306166,184.14853 569.198184,188.950709 C562.324563,190.798154 555.680554,178.812612 562.177376,174.567763 Z M563.045778,262.332483 C562.379022,265.760505 563.927427,281.123938 557.224543,278.97866 C551.921404,267.150881 557.005234,240.786816 568.294457,262.799874 C566.650381,262.653906 565.063708,262.512362 563.045778,262.332483 Z M559.157104,228.348627 C560.328711,231.122007 555.877784,237.62419 553.201929,233.345429 C550.908759,230.20197 556.155967,220.10958 559.157104,228.348627 Z M534.877179,182.419038 C541.374002,191.864158 552.533701,196.694351 561.104385,205.753174 C569.648575,222.063184 545.3922,209.001317 540.917723,203.158199 C536.833291,199.669726 525.591168,185.117222 534.877179,182.419038 Z M516.025501,257.931346 C522.270635,251.811038 536.195973,239.682477 529.603478,257.477225 C526.621475,262.733525 513.327568,270.320879 516.025501,257.931346 Z M528.080096,231.235537 C520.645693,226.545414 516.200654,234.233029 509.106253,235.073447 C501.562932,222.372812 532.235177,213.965681 528.080096,231.235537 Z M490.016132,191.470489 C495.504726,194.787929 508.543999,204.628193 503.569087,210.887097 C496.894169,208.735921 484.265546,197.929913 490.016132,191.470489 Z M453.803778,315.342227 C454.31746,310.849676 461.317661,309.185058 458.984751,316.571891 C461.073331,319.315783 465.668501,322.736432 464.482176,328.02222 C460.054799,336.147737 449.903329,321.814921 453.803778,315.342227 Z M451.40169,279.550735 C462.71152,284.454648 453.416677,290.51598 445.016729,290.809389 C439.723894,284.801136 443.591962,277.866949 451.40169,279.550735 Z M452.674856,163.488988 C441.868405,151.521138 476.825256,154.614467 473.314853,165.414577 C467.178637,163.171988 459.854625,165.691768 452.674856,163.488988 Z M840.669412,357.672762 C823.190986,339.597874 801.36172,328.740262 784.563297,310.035797 C726.087476,242.010583 745.426342,266.577332 719.294808,264.259547 C713.555997,259.059276 720.13966,253.592135 727.320901,255.194827 C698.010133,205.912411 666.313513,188.032146 636.378674,156.730256 C632.894763,151.51524 627.543009,165.929149 621.866016,156.730256 C617.952321,151.765892 628.014006,149.368488 624.340225,145.509937 C608.472022,127.791858 614.681831,134.789445 599.986707,145.241593 C595.656473,139.724321 599.178652,135.051891 604.250707,130.753963 C594.055081,131.676949 596.806001,124.617436 590.499049,123 C567.456965,126.860026 546.967098,137.527439 523.988304,138.51235 C515.759093,141.400734 514.689046,159.311962 511.290504,166.974511 C504.032726,170.563244 506.007972,146.00013 509.106253,142.148951 C507.456289,142.135681 501.555573,136.685546 494.340479,137.806104 C414.039808,134.810087 400.363152,125.746059 431,174.567763 C434.245468,184.349051 447.19215,177.308706 452.230352,184.841506 C453.719882,188.860769 450.068178,189.192513 446.119158,188.826858 C446.657862,189.512462 447.19215,190.201015 447.730853,190.886619 C437.807523,199.82454 456.804916,208.520656 461.012985,217.317033 C465.740623,223.848704 467.246343,237.425143 477.00924,230.8227 C478.520848,236.157144 485.837501,231.251756 490.738819,232.210127 C496.071395,236.475618 488.767989,241.730443 483.825458,242.43374 C488.070323,246.522301 481.845796,249.353183 482.854025,254.835069 C489.196302,264.333268 499.288897,303.517396 478.874096,288.681804 C472.010778,280.870338 480.5638,277.514564 488.573702,279.416562 C489.160977,275.683337 487.562529,270.372484 485.8846,266.059812 C480.781636,270.192605 472.546538,271.233544 477.00924,260.103164 C467.621669,262.329534 456.575304,264.598663 445.839503,264.654691 C452.295114,279.213093 436.721285,273.411259 432.564731,264.841942 C429.216233,263.998575 421.743829,263.412775 417,263.187189 C420.285208,275.430755 428.811469,291.067412 432.564731,304.794242 C436.911156,300.618691 445.531883,307.390692 441.540179,311.35835 C437.254101,313.351763 434.262285,314.539161 432.564731,314.920543 C437.00094,327.003397 437.098083,399.490073 441.540179,380.302 C442.598451,371.785763 452.883861,363.016052 447.935443,357.985339 C436.983277,349.000237 451.665155,343.227891 455.338936,353.442658 C463.916979,343.35764 477.225604,336.598905 482.854025,323.23773 C488.348506,326.397408 491.13328,321.648312 494.124114,314.920543 C496.436418,319.774327 505.154289,319.584127 507.699147,313.799986 C509.773009,309.130505 506.138968,306.874645 512.451807,303.813754 C518.708716,300.802993 515.916583,293.681555 520.104046,287.202963 C523.655662,284.574076 525.700086,293.598987 523.785187,297.094832 C526.380089,298.144618 529.906683,292.218932 532.566348,295.194308 C547.872297,299.881482 565.533234,294.181382 581.258666,292.127518 C587.37992,290.809389 601.717558,316.486371 606.920609,323.23773 C621.824739,302.582611 625.234596,318.078746 613.053421,328.818406 C623.196059,340.699264 636.184342,357.625126 646.238669,371.167653 C644.900741,363.071625 657.460186,350.555748 658.575861,359.529054 C649.941887,372.127955 663.933808,390.823381 669.784481,400.650376 C673.383197,406.154378 676.421589,412.640533 678.73978,418.918604 C688.916272,415.542187 702.528766,409.371748 712.625777,402.489166 C706.86636,398.670424 711.920752,393.384636 718.851776,396.087244 C715.674014,393.020455 719.821737,389.405182 718.364588,384.200488 C714.770288,376.026315 707.614068,373.00081 699.913258,370.601932 C686.748876,385.915236 666.579876,361.777542 696.804674,366.231758 C690.998157,358.364264 681.642968,344.257035 672.367259,340.823116 C663.05917,343.207249 651.952458,334.642356 665.018225,330.241219 C655.782257,320.561666 662.875186,317.84284 658.262354,311.62522 C654.6813,306.678548 646.778844,302.396839 644.528359,295.409573 C644.441519,288.656739 637.570841,280.305636 647.745861,278.804679 C644.039699,279.537465 646.475639,250.355787 651.952458,261.497963 C655.128748,265.536393 648.550972,281.215352 656.396026,276.301118 C658.368328,287.223605 661.936135,285.858294 668.622828,288.681804 C671.111756,291.632114 673.659611,295.387482 676.824126,299.133978 C683.254715,288.153988 700.070748,289.960124 693.269248,303.557205 C691.288115,301.526932 689.39235,302.738903 686.12922,304.794242 C707.980563,326.90756 721.635077,349.921748 739.837662,362.974769 C758.040246,376.02779 771.993549,391.795214 791.426615,403.64511 C798.647597,424.388694 794.838404,430.355663 817.321179,434.663912 C821.645525,441.711629 822.333099,448.327342 829.554081,444.806432 C830.419539,446.319184 832.323923,447.887296 834.050424,450.452783 C834.436053,444.764479 847.150044,424.723387 848.998709,439.094537 C844.876009,444.122302 840.944651,454.044228 836.863162,459.514319 C839.868716,465.953101 845.126647,474.031422 846.05098,482.550608 C855.463572,474.597599 866.344667,462.856255 875.972152,456.252337 C875.408427,452.50879 876.013364,448.971662 877.906186,444.806432 C882.599971,461.454083 883.068025,446.718752 891.794727,449.272443 C894.270408,451.203931 897.869123,449.326997 901.10576,448.861081 C901.937365,445.755957 904.906122,441.34155 901.124894,437.248566 C887.070032,400.54146 859.251738,382.737865 840.669412,357.672762 Z" id="Accent" fill="#FF5678"></path>
        <g id="ink" transform="translate(23.999908, 116.848550)" fill="#000000">
            <path d="M708.821767,349.164646 C711.090393,347.156296 707.500366,340.723392 707.497419,335.966076 C708.413709,319.039396 721.452417,356.068717 733.012098,353.406623 C728.34521,348.363662 726.338802,335.792333 719.500514,339.716272 C726.164972,335.234294 717.921315,322.767506 725.748075,317.050187 C721.511342,315.17288 713.083543,302.547073 709.444902,309.427585 C706.267353,304.84843 703.278364,300.54314 700.08019,295.934536 C696.158708,300.559336 683.177452,299.60964 683.046343,307.089418 C683.747555,310.880842 689.05673,315.112512 683.85804,318.085282 C686.332905,327.239176 688.052052,339.34081 695.080374,347.66869 C694.24658,320.258541 701.121696,335.408037 708.821767,349.164646 L708.821767,349.164646 Z M854.040358,351.111155 C860.108196,356.74013 880.184065,375.233441 874.841008,378.683268 C867.456188,380.991987 870.238938,387.903421 869.353584,395.434733 C879.253044,382.60868 878.347067,405.068629 881.156333,411.581043 C884.223398,421.004386 890.668359,426.602441 897.603873,434.445902 C882.533713,386.117403 895.819908,415.538847 915.886937,430.38503 C914.421169,423.090773 909.092844,415.970259 903.31374,410.011467 C893.921038,387.787101 923.501566,426.512624 930.711083,424.083169 C927.950431,419.62475 928.239165,411.606073 923.034583,408.148884 C910.76927,401.403832 903.450741,388.630785 897.055867,375.195159 C885.770188,368.102621 886.092805,350.488331 877.14057,337.959702 C870.262508,339.069889 861.416339,346.74108 854.040358,351.111155 L854.040358,351.111155 Z M363.538337,424.491023 C365.015891,415.275288 367.204968,404.531204 369.065536,394.626387 C365.756877,374.712213 364.017106,356.271908 362.504197,335.446319 C356.642598,300.235409 363.39397,287.116348 328.457127,284.941617 C324.459042,284.708978 325.783389,295.344105 324.582785,299.902647 C321.568753,303.62634 323.022736,307.017271 321.079673,311.608206 C318.83609,315.359874 324.376547,320.670812 325.798121,325.727024 C342.41949,357.351175 340.446964,392.958161 355.533328,425.549677 C355.86331,421.686106 359.882019,421.275307 363.538337,424.491023 L363.538337,424.491023 Z M608.542598,38.9511331 C601.713149,31.6377353 593.848087,22.7650688 585.660409,15.2072531 C561.100321,10.3056422 536.494566,20.1191707 511.345225,26.5314612 C473.990969,34.5840025 423.272443,31.592091 395.019208,21.6946359 C394.596419,42.0740879 411.708342,58.0952437 423.004333,74.8467086 C450.543097,110.76437 484.657931,152.093092 473.37078,196.890782 C544.181379,142.409134 589.904508,185.166082 640.991318,153.954202 C643.612023,157.323047 641.85752,160.350296 640.866101,165.381478 C650.597624,177.746671 663.095691,190.431375 675.872181,201.415459 C736.387048,261.758721 809.39409,303.147811 822.946921,361.048365 C840.836659,347.692248 859.162444,327.739792 876.352444,331.947903 C846.598086,271.199733 784.417105,234.456056 739.535135,184.865713 C727.037067,170.786649 716.401041,158.128449 704.887026,142.454779 C673.777385,89.0671224 639.095394,71.2054699 608.542598,38.9511331 L608.542598,38.9511331 Z M759.907103,42.9825571 C743.310777,40.6355557 740.2334,40.6561692 728.187585,29.4968695 C723.890453,43.7025594 706.277665,26.7317073 715.41846,53.4012409 C706.712239,61.7305928 704.383214,46.2851444 707.526882,39.2294162 C681.442101,39.4105211 702.706788,65.0361249 706.715185,78.1551855 C700.542754,86.2253955 692.412529,72.4894004 690.986535,65.8503607 C680.895568,68.9585915 670.182938,70.5811734 659.018057,73.2535746 C741.130539,146.646694 685.721555,133.177203 731.71574,110.072343 C734.345284,108.031601 731.94113,103.162382 736.516684,100.29268 C738.327165,99.2001611 740.152378,99.9908385 741.137905,102.917964 C746.205485,129.996825 766.807262,108.468903 749.172377,96.5292323 C749.257819,92.107623 757.32028,94.575361 756.561616,89.2084726 C756.446712,68.6773636 772.349192,52.8947362 786.012509,38.5594754 C783.998735,38.1516213 782.388599,37.8247491 780.731324,37.4875701 C781.682968,38.3945669 782.457837,39.1351827 783.419793,40.0524863 C779.346578,42.9148268 774.869724,41.6235343 771.365139,43.5052581 C770.378139,51.2618475 767.558561,54.7396501 762.208138,54.216949 C762.971222,50.6110479 763.723993,47.0625702 764.497388,43.4080799 C764.143836,43.3270981 762.206665,42.90452 759.907103,42.9825571 L759.907103,42.9825571 Z M420.694459,147.99541 C412.742482,148.936272 404.721268,147.728906 395.632032,147.887925 C418.119421,197.513606 412.020646,224.847191 415.86258,263.45345 C423.459531,234.043785 448.488075,225.409647 458.424363,199.975454 C465.424696,184.259085 466.693064,168.51474 461.428083,151.249408 C460.405728,147.798109 458.072284,142.796375 453.314062,144.747301 C442.91521,148.556393 432.224677,147.575777 420.694459,147.99541 L420.694459,147.99541 Z M415.939182,135.973285 C427.856836,136.877337 440.64953,137.522248 453.75011,135.284204 C446.624561,122.630421 439.610971,110.811487 429.877975,98.7378284 C372.145859,25.9837294 407.669009,35.9592216 373.605734,36.6159108 C393.28533,66.1242266 399.238264,100.813909 397.745979,135.973285 L415.939182,135.973285 Z M633.848091,262.3786 C667.563706,301.841794 641.997468,306.257514 680.06472,290.17599 C684.134989,285.427508 698.665982,285.12125 693.149096,277.634109 C678.469316,253.634032 659.592579,234.706364 640.06177,213.489118 C612.651168,177.431578 624.783899,177.569984 603.986195,181.536622 C592.295404,183.835034 581.933381,181.197971 569.417635,183.780556 C589.497923,210.052542 612.969365,235.314464 633.848091,262.3786 L633.848091,262.3786 Z M683.433778,60.8073997 C684.395734,60.6071536 685.35769,60.4054352 686.129613,60.2449439 C677.647308,31.4080413 703.353494,31.7422755 721.191672,28.3807923 C722.790022,24.448019 723.696,20.8774553 729.679869,20.7346328 C745.337809,30.0019018 741.235131,32.7935673 761.925297,34.8961507 C767.123986,35.7192208 770.447376,37.2254834 776.655162,37.1665875 C778.71313,35.5602019 780.474998,33.2249797 783.98695,32.8141808 C806.372692,30.7925792 826.712251,46.9801159 833.497506,68.2665647 C838.746282,81.1132318 833.493087,94.7387971 828.746649,107.476507 C836.006253,128.081236 896.783337,127.613013 873.662501,160.425389 C905.082973,177.425689 935.951021,198.60907 960.011716,226.831983 C971.821831,241.635466 987.718418,275.490298 958.058341,277.146745 C953.965975,276.950917 947.033407,279.125648 946.953858,285.47757 C948.049869,296.156868 956.33772,301.866825 960.250364,312.444528 C999.910074,394.546878 912.260082,345.866476 880.720285,323.437446 C881.86933,326.856353 883.724005,331.400171 884.86863,335.399203 C883.816813,337.311847 883.09645,337.19111 886.02946,340.174187 C896.481345,352.137416 898.073802,366.091326 908.762862,378.354924 C914.232608,391.403309 951.743016,407.552564 934.997903,419.222785 C941.360368,436.485172 933.016538,435.650323 921.03996,426.5833 C929.532576,446.803733 915.633558,439.904079 905.053511,430.666257 C921.004604,486.66153 872.987806,431.969329 871.72533,411.025949 C856.942432,424.420348 855.79928,403.911325 858.06054,392.610675 C857.631858,389.116676 862.182369,385.647708 857.972152,383.419971 C863.011743,377.244736 859.100573,366.627279 853.362716,360.002963 C847.415675,345.461566 830.912156,371.520055 819.570498,368.803482 C809.556134,356.134975 800.533189,338.394059 790.205048,322.895604 C783.410954,347.464027 763.047825,357.35412 748.387196,331.13514 C740.170056,309.616052 742.580103,286.876347 726.480223,268.47138 C706.777057,240.498775 681.453886,219.234412 656.837819,195.104764 C629.45226,167.216085 645.434289,164.249205 622.229485,177.207774 C647.35231,211.976965 687.551187,237.256556 704.241794,278.663315 C704.919435,283.869712 704.823681,287.958559 709.225405,292.218205 C713.671324,301.573818 721.392018,304.986835 729.293908,311.039861 C736.182282,317.193009 739.477683,328.785194 726.172338,327.267152 C730.556384,339.13173 741.987903,348.09274 746.077322,360.558057 C751.374712,379.359099 720.860217,357.545532 716.697141,352.305269 C718.111349,366.334271 712.31604,366.422615 704.744132,354.385767 C706.523678,377.767437 688.024063,350.394098 685.742178,342.407814 C680.923557,331.640172 682.465929,320.84161 675.939946,310.506853 C673.002517,305.297511 659.26407,313.981711 654.09337,313.641587 C647.726486,312.658025 632.226171,304.106341 646.711496,301.352958 C623.721769,259.685585 585.004865,228.099717 563.585498,184.718473 C533.742752,177.322621 497.815963,197.180844 472.501631,215.821395 C406.715891,271.729796 428.749555,290.181879 411.043959,275.849563 C394.375449,249.911811 406.316672,217.731094 399.323706,188.342043 C397.362964,178.370968 393.540182,163.981228 387.783175,156.395437 C385.411429,156.6001 383.829283,157.286237 382.476947,154.129417 C381.316117,148.348785 378.769069,149.151242 373.356775,151.601311 C363.541284,155.311753 356.347971,158.361088 345.39964,159.125262 C293.636662,158.676181 243.734252,153.220948 191.572055,147.855532 C237.065375,179.454652 256.398784,211.333528 287.098894,237.953 C320.419709,269.7612 328.299502,259.935893 325.898294,277.020119 C335.03467,281.549214 355.561318,274.623056 360.978031,289.62973 C375.889092,329.701025 372.359463,373.549019 379.364215,416.083634 C370.270559,414.643629 378.76023,443.642496 364.227764,434.61081 C356.072495,459.853591 336.932067,403.192795 336.357544,396.812897 C331.210415,371.748277 328.09621,346.850037 318.741809,322.293394 C316.037136,324.987881 314.639132,334.268402 307.921641,330.912808 C288.706083,322.732168 270.462793,312.107349 251.753993,301.031976 C204.089273,276.460608 161.200454,245.122103 124.092211,206.271426 C103.229689,184.861295 74.7098175,163.168465 78.3101567,129.237068 C82.2787794,94.3633358 178.517142,66.577725 197.635474,58.1997839 C226.669469,43.3182637 367.339023,2.39003393 370.286764,28.6207931 C377.091169,29.6794468 377.290042,22.2217541 382.042372,18.163827 C384.956231,15.2528974 387.716884,18.2241953 389.854401,13.2931365 C419.728083,16.9549887 450.659475,17.4983034 481.698405,16.2997719 C514.659776,16.4087293 541.976097,-3.82937257 575.646045,2.31199687 C605.285499,16.1083602 624.389099,51.4532592 654.430718,68.0736807 C663.547943,64.6533016 672.531114,60.7867861 683.433778,60.8073997 L683.433778,60.8073997 Z" id="ink-layer"></path>
            <path d="M102.501213,408.620407 C98.1682898,436.763795 92.2132822,438.085613 73.090076,454.894307 C54.2526867,476.469777 30.7611982,494.616462 15.2328012,519.866261 C50.1849539,487.498645 100.482817,491.597896 115.728343,469.244626 C122.996046,457.767311 123.010778,444.991704 124.083328,430.978087 C129.727473,400.99827 123.219984,413.892973 102.501213,408.620407 M97.246015,407.264772 C93.9414425,403.430179 93.3462364,410.571521 89.1105493,407.569129 C86.2067096,393.589329 90.9271066,378.143622 91.2703814,362.924343 C96.5329463,311.907192 105.942801,262.844097 129.192671,216.351119 C207.179404,286.236882 199.356275,253.813393 176.41874,307.810882 C166.251618,322.61406 161.715381,338.468517 155.632198,356.107941 C149.039259,374.604562 139.960893,390.137019 142.094206,411.231695 C141.166038,415.985238 133.905702,409.293813 134.209198,415.217731 C132.783061,433.202681 133.602206,450.648024 127.888817,468.543284 C122.427358,481.964361 111.888969,491.290599 96.8835875,494.266526 C65.719244,505.079256 36.3110531,513.338042 11.1960073,537.905613 C-22.830924,542.667978 30.6904806,476.502124 39.9014425,471.619192 C71.9983738,435.118508 92.7642898,429.56217 97.246015,407.264772" id="ink-layer"></path>
            <path d="M415.000092,14.49845 C412.333928,14.26645 409.666256,14.03645 407.000092,13.80445 C409.667764,14.03645 412.333928,14.26645 415.000092,14.49845" id="ink-layer"></path>
            <path d="M336.000092,159.11845 C337.671068,159.14045 339.342044,159.16245 341.000092,159.18445 C339.324268,159.16245 337.661372,159.14045 336.000092,159.11845" id="ink-layer"></path>
            <path d="M344.000092,19.6461614 C342.011142,20.7881614 340.013151,21.1461614 338.000092,19.7441614 C339.99959,19.7101614 341.999088,19.6781614 344.000092,19.6461614" id="ink-layer"></path>
            <path d="M361.000092,20.43245 C358.99959,20.24445 357.000594,20.05845 355.000092,19.87045 C356.999088,20.05845 358.99959,20.24445 361.000092,20.43245" id="ink-layer"></path>
            <path d="M758.000092,33.47645 C756.000092,33.25845 754.000092,33.04245 752.000092,32.82645 C754.001672,33.04245 756.000092,33.26045 758.000092,33.47645" id="ink-layer"></path>
            <path d="M796.000092,32.47845 C794.333911,32.26045 792.66773,32.04245 791.000092,31.82445 C792.66773,32.04245 794.333911,32.26045 796.000092,32.47845" id="ink-layer"></path>
            <path d="M683.000092,60.13245 C681.332935,60.14445 679.665779,60.15845 678.000092,60.17045 L683.000092,60.13245 Z" id="ink-layer"></path>
            <path d="M330.000092,21.5257322 C328.333425,21.5417322 326.665246,21.5577322 325.000092,21.5737322 C326.660709,20.3637322 328.328888,20.5497322 330.000092,21.5257322" id="ink-layer"></path>
            <path d="M375.176092,368.15145 C375.058092,366.483719 374.940092,364.815989 374.824092,363.15145 C374.942092,364.820777 375.058092,366.486911 375.176092,368.15145" id="ink-layer"></path>
            <path d="M348.000092,158.18345 C349.00419,158.16145 350.006923,158.13945 351.000092,158.11945 C349.991895,158.14145 348.995994,158.16345 348.000092,158.18345" id="ink-layer"></path>
            <path d="M933.000092,433.148184 C934.003714,433.148184 935.008693,433.150184 936.000092,433.154184 C934.993754,433.156184 933.996923,433.152184 933.000092,433.148184" id="ink-layer"></path>
            <path d="M287.000092,28.82845 C285.666275,29.04445 284.332458,29.25845 283.000092,29.47445 C284.335361,29.25845 285.667726,29.04245 287.000092,28.82845" id="ink-layer"></path>
            <path d="M266.000092,155.18245 C267.00409,155.16045 268.009801,155.14045 269.000092,155.12045 C267.990954,155.14045 266.995523,155.16245 266.000092,155.18245" id="ink-layer"></path>
            <path d="M560.343242,0.7335 C558.915242,0.7455 557.487242,0.756 556.059242,0.7665 C557.488742,0.756 558.915242,0.744 560.343242,0.7335" id="ink-layer"></path>
            <path d="M416.000092,134.79945 C417.667245,135.03345 419.334399,135.26945 421.000092,135.50345 C419.332939,135.26945 417.665786,135.03345 416.000092,134.79945" id="ink-layer"></path>
            <path d="M763.000092,42.17945 C761.996614,42.15945 760.991396,42.13945 760.000092,42.12345 C761.008788,42.14545 762.005309,42.16145 763.000092,42.17945" id="ink-layer"></path>
            <path d="M754.000092,44.1551738 C751.489084,49.1611974 744.484243,47.9394539 750.228584,55.277356 C756.035736,60.1360561 748.274309,62.9277626 744.145921,59.8830763 C736.261727,51.915701 744.565612,43.954278 754.000092,44.1551738" id="ink-layer"></path>
        </g>
    </g>
</svg>