<svg width="57" height="61" xmlns="http://www.w3.org/2000/svg"><g fill-rule="nonzero" fill="none"><path d="M37.68 23.137c2.34-4.352 25.874 4.982 17.543 26.383-6.58 14.43-30.068 18.75-35.962-7.94-4.19-1.165-21.69 6.028-18.977-4.865C3.508-.809-6.99 1.698 17.218.621c22.704.342 17.336-7.228 20.463 22.516zM2.484 38.965c2.078 0 5.738.44 7.29-1.729 1.278 2.087.39 1.52 8.79 1.26 2.429 1.309 2.994-5.83 6.627-9.6.047-2.68 12.085-5.35 9.746-6.994-1.29 1.064 1.696-16.839-2.304-18.456C30.644 4.73 11.757 2.01 7.656 6.691c-1.513-.474.437-1.737-4.148-1.97-1.037 9.676-.468 21.964-1.025 34.244zm19.776 2.58c-.491 12.219 14.568 20.48 25.982 12.219C60.326 43.248 55.61 28.03 37.79 25.562c.94 18.657 6.865 14.771-15.531 15.984zm.35-3.24c4.137-.074 8.967-.482 14.456-.424-.403-3.958-.811-7.918-1.224-11.88-5.887 1.232-11.165 5.682-13.231 12.304z" fill="#FFF"/><path d="M8.508 49.022c2.872-.402 1.723 4.96 4.812 3.848.388-.257 2.44-.775 2.607.59.679.995-3.492 5.42-7.407-.43-3.096 1.81-6.057-2.07-.012-4.008zM46.005 8.062c.282-2.064.563-5.754 2.47.085 2.98-1.241 3.965 3.943-.645 3.06.336 2.843-2.094 6.987-2.141-.217-3.266.69-6.477-3.622.316-2.928z" fill="#FFF"/><path d="M23 38c1.637-5.363 6.355-10.829 12.8-12L37 37.587c-3.18-.06-7.652.197-14 .413z" fill="#47C1AF"/><path d="M11 11.623c-.08 3.66-6.184-.948-3.16-2.623.709.114 2.942.944 3.16 2.623zM14 35.402c.291-3.739 5.316-2.99 1.692 1.392-.83.627-1.483-.274-1.692-1.392zM6.011 19.54c-.288-2.272 5.056-2.11 2.09 1.017-.406.633-2.044.813-2.09-1.016zM28.977 7.337c.416 1.684-4.969 2.867-2.164-.432.45-.639 1.985-1.867 2.164.432zM12 24.908c.36-1.874 3.6-.639 2.902 1.803-.461.496-1.185.609-2.902-1.803zM20 14.155c-.034-3.049 3.4.782 1.344 1.845-.47-.15-.943.345-1.344-1.845zM6.632 27.97c-1.427.452-2.79-4.396-.06-2.548 1.078.271 2.557 2.318.06 2.548zM33.998 12.66c.099 2.382-3.469 1.44-1.294-1.66.673.237.925.46 1.294 1.66zM20 29.899c-.182 3.392-3.839-2.16-.792-1.89.51.48.8 1.17.792 1.89zM27.002 23.214c-.106-2.695 3.375-.364 1.38 1.786-.569-.227-1.012.359-1.38-1.786zM30 18.288c-.146 2.036-3.288-.794-1.395-2.288.59.134 1.242.949 1.395 2.288zM15.004 13c.507.565 1.764 1.589.335 4-1.263-.416-2.089-2.648-.335-4zM7 33.286c-.74 2.273-3.6-1.64-.785-1.26.375.356.645.789.785 1.26zM23 22.871c0 2.731-3.485-.133-1.254-1.871.677.214.92.752 1.254 1.871zM19 7.269c-1.119 3.04-3.606-4.58-.481-1.536.018.294.306.055.481 1.536zM14 19.655c.111-1.607 3.18.095 1.496 1.34-.613.046-1.397-.225-1.496-1.34z" fill="#FFF"/></g></svg>