<svg width="116" height="19" xmlns="http://www.w3.org/2000/svg"><path d="M25.632 0v11.084c0 3.264 1.042 4.632 4.544 4.632 3.516 0 4.525-1.368 4.525-4.632V0h4.248v11.185c0 2.372-.29 3.99-1.19 4.97-1.652 1.807-4.067 2.552-7.583 2.552-3.502 0-5.954-.745-7.607-2.552-.93-.997-1.15-2.624-1.15-4.97V0h4.213zM4.242 0v7.496h9.454V0h4.23v18.501h-4.23v-7.724H4.243v7.724H0V0h4.243zm48.562 0l8.603 18.501h-4.722l-1.857-4.4h-8.76l-1.803 4.4h-4.49L48.301 0h4.503zm10.528 0l4.664 14.218L71.926 0h5.004l4.524 14.218L85.8 0h4.352l-6.233 18.501h-5.198L74.42 4.692l-3.76 13.81h-5.168L58.777 0h4.555zM107.6 0v3.223h-6.97c-3.049 0-4.59 1.397-4.755 4.299H107.6v3.218H95.84c.035 3.334 1.459 4.544 4.79 4.544h6.97v3.217h-7.161c-2.44 0-4.326-.174-6.29-1.624-2.076-1.512-3.087-3.936-3.087-7.286 0-6.545 3.01-9.591 9.485-9.591h7.053zm8.172 0v18.501h-4.433V0h4.433zm-65.38 3.69l-2.953 7.114h6.023l-3.07-7.115z" fill="#000" fill-rule="evenodd"/></svg>