<svg width="137" height="23" xmlns="http://www.w3.org/2000/svg"><path d="M11.192.214c6.182 0 11.193 5.031 11.193 11.236 0 6.205-5.01 11.232-11.193 11.232C5.007 22.682 0 17.655 0 11.45 0 5.245 5.007.214 11.192.214zM112.885 4.96c4.165 0 7.555 3.817 7.555 8.505 0 .378-.032.757-.075 1.133l-10.791-.002c.393 2.933 4.332 5.286 7.16 1.82l3.333 1.932c-2.078 2.959-4.721 3.623-6.652 3.623-3.825 0-8.085-3.492-8.085-8.506 0-4.768 3.319-8.505 7.555-8.505zM97.928 1.337v4.034h5.64v3.842h-5.64v6.984c0 1.527 1.128 1.93 1.726 1.93.933 0 1.395-.637 1.602-1.073l3.728 1.006c-.686 2.002-2.537 3.91-5.33 3.91-2.73 0-5.555-2.159-5.554-5.773V9.213H91.38V5.371H94.1V1.337h3.828zM50.242 4.974c1.355 0 2.625.41 3.729 1.116V5.37h3.827V21.56h-3.827v-.717c-1.104.706-2.374 1.115-3.729 1.115-4.164 0-7.551-3.809-7.551-8.491 0-4.68 3.388-8.492 7.551-8.492zm29.527.397v9.51a3.232 3.232 0 003.222 3.234 3.231 3.231 0 003.223-3.234V5.37h3.828V21.56h-3.828v-.391a6.97 6.97 0 01-3.223.789c-3.887 0-7.05-3.174-7.05-7.076V5.37h3.828zm49.252-.397c3.889 0 7.05 3.177 7.05 7.078v9.507h-3.828v-9.507a3.232 3.232 0 00-3.222-3.237 3.232 3.232 0 00-3.222 3.237v9.507h-3.828V5.371h3.828v.392c.967-.5 2.06-.79 3.222-.79zM34.249 1.337c3.833 0 6.95 3.125 6.95 6.972 0 2.343-1.16 4.41-2.925 5.682l5.664 7.568h-4.792l-4.688-6.272h-2.707v6.272h-3.829V1.337zM63.924 0v11.232l5.837-5.86h5.414l-7.561 7.587 8.565 8.6h-5.411l-6.844-6.871v6.871h-3.829V0h3.829zM50.242 8.818c-2.053 0-3.724 2.086-3.724 4.648 0 2.563 1.671 4.649 3.724 4.649 2.056 0 3.729-2.086 3.729-4.65 0-2.561-1.673-4.647-3.729-4.647zM11.205 5.413H7.426v12.074h2.286v-3.745h1.617l2.799 3.744h2.861l-3.382-4.518a4.177 4.177 0 001.747-3.393 4.16 4.16 0 00-4.15-4.162zm-.001 2.292a1.871 1.871 0 010 3.743H9.712V7.705h1.492zm23.045-2.528H31.75v6.268h2.498a3.134 3.134 0 000-6.268zm81.862 5.984c-.71-3.803-5.739-3.148-6.455 0z" fill="#000" fill-rule="nonzero"/></svg>