<svg width="144" height="38" xmlns="http://www.w3.org/2000/svg"><path d="M52.594 28.465h3.283l-.544-2.508V11.006h-3.14v6.819a4.908 4.908 0 00-3.778-1.71c-3.141 0-5.573 2.553-5.573 6.303s2.432 6.304 5.573 6.304c1.558 0 2.904-.656 3.849-1.781l.33 1.523zm62.079-8.999a3.03 3.03 0 011.77.538l1.488-3.304c-.685-.422-1.488-.609-2.267-.609-1.416 0-2.597.631-3.352 1.805l-.331-1.525h-3.236l.52 2.367v9.725h3.139v-7.71c.425-.796 1.228-1.288 2.267-1.288v.001h.001zm9.208 5.999c-1.817 0-3.164-1.195-3.164-3.047 0-1.875 1.347-3.046 3.164-3.046 1.842 0 3.165 1.171 3.165 3.046 0 1.852-1.323 3.047-3.165 3.047zm-77.993-3.047c0-1.875 1.345-3.046 3.163-3.046 1.843 0 3.165 1.171 3.165 3.046 0 1.852-1.322 3.047-3.164 3.047-1.818 0-3.164-1.195-3.164-3.047zm91.902 3.047c-1.818 0-3.164-1.195-3.164-3.047 0-1.875 1.346-3.046 3.164-3.046 1.841 0 3.163 1.171 3.163 3.046 0 1.852-1.322 3.047-3.163 3.047zm-74.287-6.28c1.63 0 2.692.75 3.022 2.132h-6.044c.354-1.383 1.416-2.133 3.022-2.133zm37.568 0c1.63 0 2.692.75 3.023 2.132h-6.045c.355-1.383 1.417-2.133 3.022-2.133zm-15.324 9.28H90.8l3.283-12.093H90.66l-2.408 9.796-2.409-9.796h-3.377l3.283 12.092zm-8.1 0h3.14V16.372h-3.14v12.093zm-13.663.224c1.749 0 3.472-.47 4.912-1.383l-1.204-2.672c-1.133.586-2.385.938-3.66.938-1.652 0-2.81-.633-3.306-1.805h8.83c.095-.445.143-.89.143-1.43 0-3.749-2.62-6.256-6.14-6.256-3.54 0-6.138 2.53-6.138 6.304 0 3.843 2.574 6.304 6.564 6.304zM144 22.418c0-3.75-2.645-6.304-6.21-6.304-3.566 0-6.21 2.554-6.21 6.304 0 3.75 2.644 6.304 6.21 6.304 3.565 0 6.21-2.554 6.21-6.304zm-42.503 6.304c1.746 0 3.47-.469 4.912-1.383l-1.206-2.672c-1.133.585-2.385.937-3.66.937-1.652 0-2.81-.632-3.306-1.805h8.832a6.67 6.67 0 00.14-1.429c0-3.75-2.62-6.257-6.139-6.257-3.541 0-6.139 2.53-6.139 6.304 0 3.843 2.575 6.304 6.565 6.304zm22.384 0c3.566 0 6.21-2.554 6.21-6.304 0-3.75-2.644-6.304-6.21-6.304s-6.21 2.554-6.21 6.304c0 3.75 2.644 6.304 6.21 6.304zm-52.184-.258h3.14V11.005h-3.14v17.46zm7.532-13.757c1.11 0 1.96-.844 1.96-1.969s-.85-1.968-1.96-1.968c-1.133 0-1.983.843-1.983 1.968s.85 1.969 1.984 1.969h-.001zM25.279 0L23.48 16.756 20.413 2.63l-9.616 2.003 3.066 14.126L0 21.643l2.449 11.284L26.827 38l5.575-12.261 2.654-24.732L25.278 0zm-7.704 24.308c-.503.45-1.168.409-1.873.18-.704-.23-1.017-1.064-.75-2.072.198-.748 1.134-.86 1.602-.868.178-.003.352.032.514.104.33.146.89.46 1.005.937.163.688.005 1.266-.497 1.717h-.001v.001zm7.057.777c-.365.621-1.324.703-2.267.252-.636-.306-.63-1.082-.561-1.556.037-.258.142-.5.308-.706.227-.281.606-.649 1.044-.66.712-.019 1.325.294 1.671.86.348.565.174 1.188-.192 1.81h-.002z" fill="#000" fill-rule="evenodd"/></svg>