<svg width="82" height="33" xmlns="http://www.w3.org/2000/svg"><path d="M24.663 0v10.275s1.764-3.071 7.44-3.071c6.06 0 9.648 4.29 9.648 9.623 0 .654-.05 1.286-.15 1.892.978-2.762 4.371-4.126 9.957-4.126h5.052V13.7c0-2.51-2.205-3.816-5.052-3.816-4.38 0-4.606 2.773-4.606 2.773h-4.31c0-.759.556-5.51 9.213-5.51 2.95 0 6.18.618 7.823 3.054l-1.227-2.308h4.847l6.958 13.968 6.941-13.968h4.391L68.945 32.761h-4.606l3.648-6.932-7.748-14.574c.34.836.532 1.833.532 3.017v8.977c0 1.038.149 2.661.149 2.661h-3.831s-.102-1.31-.102-2.638c0 0-1.944 3.341-7.978 3.341-4.427 0-7.704-2.136-7.704-6.063 0-.223.012-.44.034-.65-1.144 4.04-4.59 6.662-9.246 6.662-5.462 0-7.47-3.15-7.47-3.15 0 1.193-.147 2.498-.147 2.498H20.41s.093-1.817.093-3.11l-.001-4.86H4.215c0 3.357 2.487 5.774 5.978 5.882l.246.004c4.444 0 5.358-3.127 5.358-3.127h4.263s-.564 5.807-9.361 5.807C3.225 26.506 0 22.824 0 16.976c0-7.382 4.795-9.828 10.55-9.828 7.632 0 9.859 5.012 9.953 8.411V0h4.16zM56.61 17.274c-6.542 0-10.995.02-10.995 3.276 0 1.789 1.322 3.332 4.406 3.332 5.633 0 6.59-3.863 6.59-5.417zm-25.557-7.25c-4.372 0-6.39 3.47-6.39 6.84 0 3.616 2.249 6.878 6.418 6.878 3.493 0 6.361-2.735 6.361-6.915 0-3.898-2.484-6.803-6.39-6.803zM10.4 9.903c-3.026 0-6.092 1.92-6.092 5.286h11.887c0-3.17-2.349-5.286-5.795-5.286z" fill="#000" fill-rule="evenodd"/></svg>