<svg width="92" height="30" xmlns="http://www.w3.org/2000/svg"><path d="M63.989 8.308c1.76 0 3.086.678 4.056 1.717V8.758h3.154v13.443c0 5.28-3.064 7.799-7.084 7.799-3.676 0-5.74-2.25-6.765-4.406l2.89-1.202c.4.965 1.553 2.664 3.85 2.664 2.38 0 3.955-1.546 3.955-4.127v-1.475c-.842.972-1.982 1.818-4.126 1.818-3.467 0-7.151-2.986-7.151-7.489 0-3.953 3.178-7.475 7.221-7.475zM11.792 0c5.222 0 8.085 3.17 8.085 3.17l-2.23 2.297s-2.129-2.29-5.74-2.29c-4.682 0-8.415 3.693-8.415 8.488 0 4.923 3.916 8.435 8.405 8.435 3.508 0 7.224-1.894 7.6-6.337h-7.613v-3.168l10.734-.001.008.032c.033.146.167.798.185 1.84l.002.23c0 6.311-4.586 10.58-10.851 10.58C4.839 23.275 0 17.515 0 11.608 0 5.581 5.144 0 11.792 0zm73.43 8.291c3.007 0 5.28 1.995 6.254 4.383l.524 1.22-10.086 4.162c.602 1.116 1.575 2.268 3.69 2.268 1.882 0 3.01-1.018 3.685-2.06l2.6 1.72c-1.166 1.552-3.12 3.284-6.302 3.284-3.813 0-7.382-2.795-7.382-7.507 0-4.453 3.202-7.47 7.016-7.47zm-53.81.01c3.622 0 7.548 2.551 7.548 7.506 0 4.323-3.375 7.455-7.496 7.455-4.551 0-7.613-3.489-7.613-7.542 0-3.995 3.157-7.42 7.562-7.42zm16.447 0c3.62 0 7.547 2.551 7.547 7.506 0 4.323-3.376 7.455-7.496 7.455-4.551 0-7.614-3.489-7.614-7.542 0-3.995 3.157-7.42 7.563-7.42zM76.709.774v22.05h-3.313V.774h3.313zM64.282 11.24c-2.122 0-4.205 1.714-4.205 4.586 0 2.764 2.006 4.504 4.161 4.504 2.03 0 4.062-1.61 4.062-4.532 0-2.875-2.036-4.558-4.018-4.558zm-32.826-.002c-2.434 0-4.304 1.935-4.304 4.526 0 2.648 1.894 4.56 4.294 4.56 2.185 0 4.23-1.79 4.23-4.538 0-2.806-2.053-4.548-4.22-4.548zm16.446 0c-2.434 0-4.304 1.935-4.304 4.526 0 2.648 1.894 4.56 4.294 4.56 2.185 0 4.23-1.79 4.23-4.538 0-2.806-2.054-4.548-4.22-4.548zm37.45-.072c-2.177 0-4.242 2.23-3.952 4.398l6.736-2.8c-.42-.87-1.41-1.598-2.784-1.598z" fill="#000" fill-rule="evenodd"/></svg>