<svg width="92" height="25" xmlns="http://www.w3.org/2000/svg"><path d="M12.587 23.133c-1.377.242-2.778.314-4.228.507L3.938 10.697v13.499c-1.377.145-2.633.338-3.938.53V0h3.672l5.025 14.03V0h3.89v23.133zm7.61-14.078c1.498 0 3.793-.072 5.17-.072v3.863c-1.715 0-3.72 0-5.17.073v5.747c2.271-.145 4.542-.338 6.837-.41v3.718l-10.703.845V0h10.703v3.864h-6.837v5.191zm21.212-5.191h-4.01v17.772c-1.305 0-2.61 0-3.866.048V3.864h-4.01V0h11.886v3.864zM47.69 8.79h5.29v3.863h-5.29v8.766h-3.793V0h10.8v3.864H47.69V8.79zm13.288 9.248c2.198.048 4.42.218 6.57.338v3.815c-3.454-.217-6.909-.434-10.436-.507V0h3.866v18.038zm9.832 4.42c1.232.072 2.537.144 3.793.289V0H70.81v22.457zM91.54 0l-4.904 11.76 4.904 12.967c-1.45-.193-2.9-.459-4.349-.7l-2.778-7.148-2.826 6.568c-1.402-.241-2.755-.314-4.156-.507l4.977-11.325L77.913 0h4.155l2.537 6.496L87.311 0h4.228z" fill="#000" fill-rule="nonzero"/></svg>