<svg width="69" height="50" xmlns="http://www.w3.org/2000/svg"><path d="M53.724 9.499l.987.568c.18.107 4.21 2.483 4.92 7.357a17.869 17.869 0 012.895-.249c3.674 0 5.416 1.316 5.603 1.464l.679.536-.282.824A8.385 8.385 0 0166.5 23c-1.334 1.318-3.751 2.892-7.683 2.892h-.634c-1.59 4.023-3.73 8.55-7.32 12.615a30.138 30.138 0 01-7.482 6.124 35.114 35.114 0 01-10.962 3.982 45.17 45.17 0 01-8.4.762c-6.236 0-11.738-1.185-15.125-3.26-3.022-1.845-5.345-4.861-6.906-8.956A32.614 32.614 0 01.003 25.512a2.154 2.154 0 012.15-2.142H47.48c.553-.02 3.291-.254 4.998-1.205-1.414-2.234-1.814-4.848-1.156-7.63a13.223 13.223 0 011.754-4.1l.649-.936zm-41.292 6.07a.53.53 0 01.527.534v5.41l-.008.095a.53.53 0 01-.522.435H6.355a.53.53 0 01-.53-.53V16.1a.53.53 0 01.53-.53zm8.37 0a.53.53 0 01.527.534v5.41l-.009.095a.53.53 0 01-.521.435h-6.074a.533.533 0 01-.533-.53v-5.41c0-.295.238-.534.533-.534zm8.497 0a.53.53 0 01.527.534v5.41l-.008.095a.53.53 0 01-.522.435h-6.074a.53.53 0 01-.53-.53V16.1a.53.53 0 01.53-.53zm8.393 0l.087.007a.533.533 0 01.447.527v5.41a.533.533 0 01-.534.53H31.62a.53.53 0 01-.53-.53V16.1a.53.53 0 01.53-.53h6.073zm8.471 0l.087.007a.533.533 0 01.446.527v5.41a.533.533 0 01-.533.53h-6.074a.53.53 0 01-.53-.53V16.1a.53.53 0 01.53-.53h6.074zM20.799 7.786l.095.009a.53.53 0 01.435.522v5.41a.533.533 0 01-.53.533h-6.074a.536.536 0 01-.533-.533v-5.41a.533.533 0 01.533-.53h6.074zm8.497 0l.095.009a.53.53 0 01.435.522v5.41a.533.533 0 01-.53.533h-6.074a.533.533 0 01-.53-.533v-5.41l.008-.096a.53.53 0 01.522-.435h6.074zm8.396 0c.294 0 .532.237.534.53v5.41a.536.536 0 01-.534.534H31.62a.533.533 0 01-.53-.533v-5.41l.008-.096a.53.53 0 01.522-.435zm0-7.786c.294 0 .532.237.534.53v5.413a.533.533 0 01-.534.53H31.62a.53.53 0 01-.53-.53V.53l.008-.095A.53.53 0 0131.619 0z" fill="#000" fill-rule="nonzero"/></svg>