<svg width="28" height="50" xmlns="http://www.w3.org/2000/svg"><g fill="#000" fill-rule="nonzero"><path d="M17.69.146l-.02 10.869-.02 10.869-.892-2.524v-.006L15.6 43.55c1.139 3.21 1.747 4.924 1.753 4.93.007.007.654.046 1.437.084 2.367.117 5.305.37 7.537.647.517.065.957.097.99.071.032-.025.038-11.088.032-24.59L27.329.145h-9.64zM.113.113v24.572c0 13.515.013 24.585.032 24.604.02.02.854-.065 1.864-.175 1.009-.11 2.4-.252 3.092-.31 1.061-.09 4.244-.291 4.606-.298.11 0 .117-.55.13-10.41l.02-10.41.77 2.175c.116.336.154.44.27.77l1.159-24.19c-.246-.693-.117-.33-.395-1.12C10.717 2.65 9.914.391 9.882.288L9.817.107H.113v.006z" opacity=".7"/><path d="M.113.113L9.85 27.706v-.013l.77 2.174c4.276 12.105 6.573 18.6 6.586 18.613.006.007.653.046 1.436.084 2.368.117 5.305.37 7.537.647.511.065.958.097.983.071L17.51 21.877v.007l-.893-2.524-4.969-14.039C10.704 2.65 9.902.391 9.87.288L9.804.107H4.96L.113.113z"/></g></svg>