<svg width="59" height="50" xmlns="http://www.w3.org/2000/svg"><path d="M52.456 8.778c-2.345 0-4.442 1.173-5.721 2.95l-8.637 12.084c-.32.462-.853.746-1.421.746-.96 0-1.742-.782-1.742-1.742 0-.355.107-.71.285-.96l7.285-10.91c.747-1.102 1.173-2.452 1.173-3.91a6.992 6.992 0 00-7.001-7H0v7h31.417a3.526 3.526 0 01-3.518 3.52H0c0 2.487.533 4.868 1.457 7H24.38a3.526 3.526 0 01-3.518 3.519H3.518a17.468 17.468 0 0014.039 7.001h8.636c.96 0 1.741.782 1.741 1.742s-.782 1.741-1.741 1.741H17.52L5.793 49.08H27.01c9.702 0 17.948-6.326 20.826-15.069l3.945-11.976a22.075 22.075 0 016.682-9.88 6.971 6.971 0 00-6.007-3.377zm0 4.798c-.71 0-1.315-.604-1.315-1.315 0-.71.605-1.315 1.315-1.315.711 0 1.315.604 1.315 1.315 0 .746-.604 1.315-1.315 1.315z" fill="#000" fill-rule="nonzero"/></svg>