<svg width="46" height="49" xmlns="http://www.w3.org/2000/svg"><path d="M32.861 0l-2.337 21.58-3.987-18.194-12.5 2.58 3.985 18.193L0 27.875l3.183 14.532 31.692 6.534 7.248-15.792 3.45-31.851L32.861 0zM22.847 31.307c-.654.581-1.518.528-2.434.232-.915-.295-1.322-1.37-.976-2.667.258-.964 1.475-1.109 2.083-1.119.231-.004.458.042.668.134.43.189 1.158.592 1.306 1.206.213.887.008 1.632-.645 2.213h-.002v.001zm9.175 1.002c-.475.8-1.721.906-2.947.324-.827-.393-.82-1.394-.73-2.003.049-.333.185-.646.4-.91.295-.363.788-.836 1.358-.85.925-.024 1.722.38 2.172 1.108.452.727.226 1.53-.25 2.33h-.002z" fill="#000" fill-rule="nonzero"/></svg>