<svg width="50" height="50" xmlns="http://www.w3.org/2000/svg"><path d="M24.977 39.858h-9.622v-9.534s0-.002.002-.002h9.641l.002.001v9.51c10.255-.014 18.178-10.055 14.262-20.72-1.452-3.952-4.641-7.105-8.638-8.54-10.791-3.872-20.949 3.975-20.95 14.125l-.003.003H0C0 8.527 15.8-4.066 32.938 1.225c7.49 2.312 13.44 8.197 15.778 15.603C54.066 33.776 41.332 49.4 24.977 49.4v-9.542zm-9.624 7.329H7.945l-.002-.002v-7.327h7.412v7.327l-.002.002zm-7.404-7.329h-6.21c-.003 0-.005-.002-.005-.002v-6.138s.002-.004.004-.004h6.206l.005.002v6.142z" fill="#000" fill-rule="nonzero"/></svg>